<?xml version="1.0" encoding="utf-8" standalone="no"?>
<!DOCTYPE svg PUBLIC "-//W3C//DTD SVG 1.1//EN"
  "http://www.w3.org/Graphics/SVG/1.1/DTD/svg11.dtd">
<svg xmlns:xlink="http://www.w3.org/1999/xlink" width="387.336475pt" height="337.369716pt" viewBox="0 0 387.336475 337.369716" xmlns="http://www.w3.org/2000/svg" version="1.1">
 <metadata>
  <rdf:RDF xmlns:dc="http://purl.org/dc/elements/1.1/" xmlns:cc="http://creativecommons.org/ns#" xmlns:rdf="http://www.w3.org/1999/02/22-rdf-syntax-ns#">
   <cc:Work>
    <dc:type rdf:resource="http://purl.org/dc/dcmitype/StillImage"/>
    <dc:date>2025-04-03T00:50:21.439523</dc:date>
    <dc:format>image/svg+xml</dc:format>
    <dc:creator>
     <cc:Agent>
      <dc:title>Matplotlib v3.6.3, https://matplotlib.org/</dc:title>
     </cc:Agent>
    </dc:creator>
   </cc:Work>
  </rdf:RDF>
 </metadata>
 <defs>
  <style type="text/css">*{stroke-linejoin: round; stroke-linecap: butt}</style>
 </defs>
 <g id="figure_1">
  <g id="patch_1">
   <path d="M 0 337.369716 
L 387.336475 337.369716 
L 387.336475 0 
L 0 0 
z
" style="fill: #ffffff"/>
  </g>
  <g id="axes_1">
   <g id="patch_2">
    <path d="M 7.2 330.169716 
L 380.136475 330.169716 
L 380.136475 7.2 
L 7.2 7.2 
z
" style="fill: #ffffff"/>
   </g>
   <g id="matplotlib.axis_1">
    <g id="xtick_1">
     <g id="line2d_1">
      <defs>
       <path id="m5f1ca85ea7" d="M 0 0 
L 0 3.5 
" style="stroke: #000000; stroke-width: 0.8"/>
      </defs>
      <g>
       <use xlink:href="#m5f1ca85ea7" x="55.595583" y="47.902907" style="stroke: #000000; stroke-width: 0.8"/>
      </g>
     </g>
     <g id="text_1">
      <!-- −1.0 -->
      <g transform="translate(43.454176 62.501345) scale(0.1 -0.1)">
       <defs>
        <path id="DejaVuSans-2212" d="M 678 2272 
L 4684 2272 
L 4684 1741 
L 678 1741 
L 678 2272 
z
" transform="scale(0.015625)"/>
        <path id="DejaVuSans-31" d="M 794 531 
L 1825 531 
L 1825 4091 
L 703 3866 
L 703 4441 
L 1819 4666 
L 2450 4666 
L 2450 531 
L 3481 531 
L 3481 0 
L 794 0 
L 794 531 
z
" transform="scale(0.015625)"/>
        <path id="DejaVuSans-2e" d="M 684 794 
L 1344 794 
L 1344 0 
L 684 0 
L 684 794 
z
" transform="scale(0.015625)"/>
        <path id="DejaVuSans-30" d="M 2034 4250 
Q 1547 4250 1301 3770 
Q 1056 3291 1056 2328 
Q 1056 1369 1301 889 
Q 1547 409 2034 409 
Q 2525 409 2770 889 
Q 3016 1369 3016 2328 
Q 3016 3291 2770 3770 
Q 2525 4250 2034 4250 
z
M 2034 4750 
Q 2819 4750 3233 4129 
Q 3647 3509 3647 2328 
Q 3647 1150 3233 529 
Q 2819 -91 2034 -91 
Q 1250 -91 836 529 
Q 422 1150 422 2328 
Q 422 3509 836 4129 
Q 1250 4750 2034 4750 
z
" transform="scale(0.015625)"/>
       </defs>
       <use xlink:href="#DejaVuSans-2212"/>
       <use xlink:href="#DejaVuSans-31" x="83.789062"/>
       <use xlink:href="#DejaVuSans-2e" x="147.412109"/>
       <use xlink:href="#DejaVuSans-30" x="179.199219"/>
      </g>
     </g>
    </g>
    <g id="xtick_2">
     <g id="line2d_2">
      <g>
       <use xlink:href="#m5f1ca85ea7" x="124.617987" y="47.902907" style="stroke: #000000; stroke-width: 0.8"/>
      </g>
     </g>
     <g id="text_2">
      <!-- −0.5 -->
      <g transform="translate(112.476581 62.501345) scale(0.1 -0.1)">
       <defs>
        <path id="DejaVuSans-35" d="M 691 4666 
L 3169 4666 
L 3169 4134 
L 1269 4134 
L 1269 2991 
Q 1406 3038 1543 3061 
Q 1681 3084 1819 3084 
Q 2600 3084 3056 2656 
Q 3513 2228 3513 1497 
Q 3513 744 3044 326 
Q 2575 -91 1722 -91 
Q 1428 -91 1123 -41 
Q 819 9 494 109 
L 494 744 
Q 775 591 1075 516 
Q 1375 441 1709 441 
Q 2250 441 2565 725 
Q 2881 1009 2881 1497 
Q 2881 1984 2565 2268 
Q 2250 2553 1709 2553 
Q 1456 2553 1204 2497 
Q 953 2441 691 2322 
L 691 4666 
z
" transform="scale(0.015625)"/>
       </defs>
       <use xlink:href="#DejaVuSans-2212"/>
       <use xlink:href="#DejaVuSans-30" x="83.789062"/>
       <use xlink:href="#DejaVuSans-2e" x="147.412109"/>
       <use xlink:href="#DejaVuSans-35" x="179.199219"/>
      </g>
     </g>
    </g>
    <g id="xtick_3">
     <g id="line2d_3">
      <g>
       <use xlink:href="#m5f1ca85ea7" x="193.640392" y="47.902907" style="stroke: #000000; stroke-width: 0.8"/>
      </g>
     </g>
    </g>
    <g id="xtick_4">
     <g id="line2d_4">
      <g>
       <use xlink:href="#m5f1ca85ea7" x="262.662797" y="47.902907" style="stroke: #000000; stroke-width: 0.8"/>
      </g>
     </g>
     <g id="text_3">
      <!-- 0.5 -->
      <g transform="translate(254.711235 62.501345) scale(0.1 -0.1)">
       <use xlink:href="#DejaVuSans-30"/>
       <use xlink:href="#DejaVuSans-2e" x="63.623047"/>
       <use xlink:href="#DejaVuSans-35" x="95.410156"/>
      </g>
     </g>
    </g>
    <g id="xtick_5">
     <g id="line2d_5">
      <g>
       <use xlink:href="#m5f1ca85ea7" x="331.685202" y="47.902907" style="stroke: #000000; stroke-width: 0.8"/>
      </g>
     </g>
     <g id="text_4">
      <!-- 1.0 -->
      <g transform="translate(323.73364 62.501345) scale(0.1 -0.1)">
       <use xlink:href="#DejaVuSans-31"/>
       <use xlink:href="#DejaVuSans-2e" x="63.623047"/>
       <use xlink:href="#DejaVuSans-30" x="95.410156"/>
      </g>
     </g>
    </g>
    <g id="xtick_6">
     <g id="line2d_6">
      <defs>
       <path id="mfba43d4d39" d="M 0 0 
L 0 2 
" style="stroke: #000000; stroke-width: 0.6"/>
      </defs>
      <g>
       <use xlink:href="#mfba43d4d39" x="14.18214" y="47.902907" style="stroke: #000000; stroke-width: 0.6"/>
      </g>
     </g>
    </g>
    <g id="xtick_7">
     <g id="line2d_7">
      <g>
       <use xlink:href="#mfba43d4d39" x="27.986621" y="47.902907" style="stroke: #000000; stroke-width: 0.6"/>
      </g>
     </g>
    </g>
    <g id="xtick_8">
     <g id="line2d_8">
      <g>
       <use xlink:href="#mfba43d4d39" x="41.791102" y="47.902907" style="stroke: #000000; stroke-width: 0.6"/>
      </g>
     </g>
    </g>
    <g id="xtick_9">
     <g id="line2d_9">
      <g>
       <use xlink:href="#mfba43d4d39" x="69.400064" y="47.902907" style="stroke: #000000; stroke-width: 0.6"/>
      </g>
     </g>
    </g>
    <g id="xtick_10">
     <g id="line2d_10">
      <g>
       <use xlink:href="#mfba43d4d39" x="83.204545" y="47.902907" style="stroke: #000000; stroke-width: 0.6"/>
      </g>
     </g>
    </g>
    <g id="xtick_11">
     <g id="line2d_11">
      <g>
       <use xlink:href="#mfba43d4d39" x="97.009025" y="47.902907" style="stroke: #000000; stroke-width: 0.6"/>
      </g>
     </g>
    </g>
    <g id="xtick_12">
     <g id="line2d_12">
      <g>
       <use xlink:href="#mfba43d4d39" x="110.813506" y="47.902907" style="stroke: #000000; stroke-width: 0.6"/>
      </g>
     </g>
    </g>
    <g id="xtick_13">
     <g id="line2d_13">
      <g>
       <use xlink:href="#mfba43d4d39" x="138.422468" y="47.902907" style="stroke: #000000; stroke-width: 0.6"/>
      </g>
     </g>
    </g>
    <g id="xtick_14">
     <g id="line2d_14">
      <g>
       <use xlink:href="#mfba43d4d39" x="152.226949" y="47.902907" style="stroke: #000000; stroke-width: 0.6"/>
      </g>
     </g>
    </g>
    <g id="xtick_15">
     <g id="line2d_15">
      <g>
       <use xlink:href="#mfba43d4d39" x="166.03143" y="47.902907" style="stroke: #000000; stroke-width: 0.6"/>
      </g>
     </g>
    </g>
    <g id="xtick_16">
     <g id="line2d_16">
      <g>
       <use xlink:href="#mfba43d4d39" x="179.835911" y="47.902907" style="stroke: #000000; stroke-width: 0.6"/>
      </g>
     </g>
    </g>
    <g id="xtick_17">
     <g id="line2d_17">
      <g>
       <use xlink:href="#mfba43d4d39" x="207.444873" y="47.902907" style="stroke: #000000; stroke-width: 0.6"/>
      </g>
     </g>
    </g>
    <g id="xtick_18">
     <g id="line2d_18">
      <g>
       <use xlink:href="#mfba43d4d39" x="221.249354" y="47.902907" style="stroke: #000000; stroke-width: 0.6"/>
      </g>
     </g>
    </g>
    <g id="xtick_19">
     <g id="line2d_19">
      <g>
       <use xlink:href="#mfba43d4d39" x="235.053835" y="47.902907" style="stroke: #000000; stroke-width: 0.6"/>
      </g>
     </g>
    </g>
    <g id="xtick_20">
     <g id="line2d_20">
      <g>
       <use xlink:href="#mfba43d4d39" x="248.858316" y="47.902907" style="stroke: #000000; stroke-width: 0.6"/>
      </g>
     </g>
    </g>
    <g id="xtick_21">
     <g id="line2d_21">
      <g>
       <use xlink:href="#mfba43d4d39" x="276.467278" y="47.902907" style="stroke: #000000; stroke-width: 0.6"/>
      </g>
     </g>
    </g>
    <g id="xtick_22">
     <g id="line2d_22">
      <g>
       <use xlink:href="#mfba43d4d39" x="290.271759" y="47.902907" style="stroke: #000000; stroke-width: 0.6"/>
      </g>
     </g>
    </g>
    <g id="xtick_23">
     <g id="line2d_23">
      <g>
       <use xlink:href="#mfba43d4d39" x="304.07624" y="47.902907" style="stroke: #000000; stroke-width: 0.6"/>
      </g>
     </g>
    </g>
    <g id="xtick_24">
     <g id="line2d_24">
      <g>
       <use xlink:href="#mfba43d4d39" x="317.880721" y="47.902907" style="stroke: #000000; stroke-width: 0.6"/>
      </g>
     </g>
    </g>
    <g id="xtick_25">
     <g id="line2d_25">
      <g>
       <use xlink:href="#mfba43d4d39" x="345.489683" y="47.902907" style="stroke: #000000; stroke-width: 0.6"/>
      </g>
     </g>
    </g>
    <g id="xtick_26">
     <g id="line2d_26">
      <g>
       <use xlink:href="#mfba43d4d39" x="359.294164" y="47.902907" style="stroke: #000000; stroke-width: 0.6"/>
      </g>
     </g>
    </g>
    <g id="xtick_27">
     <g id="line2d_27">
      <g>
       <use xlink:href="#mfba43d4d39" x="373.098645" y="47.902907" style="stroke: #000000; stroke-width: 0.6"/>
      </g>
     </g>
    </g>
   </g>
   <g id="matplotlib.axis_2">
    <g id="ytick_1">
     <g id="line2d_28">
      <defs>
       <path id="m8857e5493b" d="M 0 0 
L -3.5 0 
" style="stroke: #000000; stroke-width: 0.8"/>
      </defs>
      <g>
       <use xlink:href="#m8857e5493b" x="193.640392" y="323.992527" style="stroke: #000000; stroke-width: 0.8"/>
      </g>
     </g>
     <g id="text_5">
      <!-- −2.0 -->
      <g transform="translate(162.35758 327.791746) scale(0.1 -0.1)">
       <defs>
        <path id="DejaVuSans-32" d="M 1228 531 
L 3431 531 
L 3431 0 
L 469 0 
L 469 531 
Q 828 903 1448 1529 
Q 2069 2156 2228 2338 
Q 2531 2678 2651 2914 
Q 2772 3150 2772 3378 
Q 2772 3750 2511 3984 
Q 2250 4219 1831 4219 
Q 1534 4219 1204 4116 
Q 875 4013 500 3803 
L 500 4441 
Q 881 4594 1212 4672 
Q 1544 4750 1819 4750 
Q 2544 4750 2975 4387 
Q 3406 4025 3406 3419 
Q 3406 3131 3298 2873 
Q 3191 2616 2906 2266 
Q 2828 2175 2409 1742 
Q 1991 1309 1228 531 
z
" transform="scale(0.015625)"/>
       </defs>
       <use xlink:href="#DejaVuSans-2212"/>
       <use xlink:href="#DejaVuSans-32" x="83.789062"/>
       <use xlink:href="#DejaVuSans-2e" x="147.412109"/>
       <use xlink:href="#DejaVuSans-30" x="179.199219"/>
      </g>
     </g>
    </g>
    <g id="ytick_2">
     <g id="line2d_29">
      <g>
       <use xlink:href="#m8857e5493b" x="193.640392" y="254.970122" style="stroke: #000000; stroke-width: 0.8"/>
      </g>
     </g>
     <g id="text_6">
      <!-- −1.5 -->
      <g transform="translate(162.35758 258.769341) scale(0.1 -0.1)">
       <use xlink:href="#DejaVuSans-2212"/>
       <use xlink:href="#DejaVuSans-31" x="83.789062"/>
       <use xlink:href="#DejaVuSans-2e" x="147.412109"/>
       <use xlink:href="#DejaVuSans-35" x="179.199219"/>
      </g>
     </g>
    </g>
    <g id="ytick_3">
     <g id="line2d_30">
      <g>
       <use xlink:href="#m8857e5493b" x="193.640392" y="185.947717" style="stroke: #000000; stroke-width: 0.8"/>
      </g>
     </g>
     <g id="text_7">
      <!-- −1.0 -->
      <g transform="translate(162.35758 189.746936) scale(0.1 -0.1)">
       <use xlink:href="#DejaVuSans-2212"/>
       <use xlink:href="#DejaVuSans-31" x="83.789062"/>
       <use xlink:href="#DejaVuSans-2e" x="147.412109"/>
       <use xlink:href="#DejaVuSans-30" x="179.199219"/>
      </g>
     </g>
    </g>
    <g id="ytick_4">
     <g id="line2d_31">
      <g>
       <use xlink:href="#m8857e5493b" x="193.640392" y="116.925312" style="stroke: #000000; stroke-width: 0.8"/>
      </g>
     </g>
     <g id="text_8">
      <!-- −0.5 -->
      <g transform="translate(162.35758 120.724531) scale(0.1 -0.1)">
       <use xlink:href="#DejaVuSans-2212"/>
       <use xlink:href="#DejaVuSans-30" x="83.789062"/>
       <use xlink:href="#DejaVuSans-2e" x="147.412109"/>
       <use xlink:href="#DejaVuSans-35" x="179.199219"/>
      </g>
     </g>
    </g>
    <g id="ytick_5">
     <g id="line2d_32">
      <g>
       <use xlink:href="#m8857e5493b" x="193.640392" y="47.902907" style="stroke: #000000; stroke-width: 0.8"/>
      </g>
     </g>
    </g>
    <g id="ytick_6">
     <g id="line2d_33">
      <defs>
       <path id="mf5d49cd337" d="M 0 0 
L -2 0 
" style="stroke: #000000; stroke-width: 0.6"/>
      </defs>
      <g>
       <use xlink:href="#mf5d49cd337" x="193.640392" y="310.188046" style="stroke: #000000; stroke-width: 0.6"/>
      </g>
     </g>
    </g>
    <g id="ytick_7">
     <g id="line2d_34">
      <g>
       <use xlink:href="#mf5d49cd337" x="193.640392" y="296.383565" style="stroke: #000000; stroke-width: 0.6"/>
      </g>
     </g>
    </g>
    <g id="ytick_8">
     <g id="line2d_35">
      <g>
       <use xlink:href="#mf5d49cd337" x="193.640392" y="282.579084" style="stroke: #000000; stroke-width: 0.6"/>
      </g>
     </g>
    </g>
    <g id="ytick_9">
     <g id="line2d_36">
      <g>
       <use xlink:href="#mf5d49cd337" x="193.640392" y="268.774603" style="stroke: #000000; stroke-width: 0.6"/>
      </g>
     </g>
    </g>
    <g id="ytick_10">
     <g id="line2d_37">
      <g>
       <use xlink:href="#mf5d49cd337" x="193.640392" y="241.165641" style="stroke: #000000; stroke-width: 0.6"/>
      </g>
     </g>
    </g>
    <g id="ytick_11">
     <g id="line2d_38">
      <g>
       <use xlink:href="#mf5d49cd337" x="193.640392" y="227.36116" style="stroke: #000000; stroke-width: 0.6"/>
      </g>
     </g>
    </g>
    <g id="ytick_12">
     <g id="line2d_39">
      <g>
       <use xlink:href="#mf5d49cd337" x="193.640392" y="213.556679" style="stroke: #000000; stroke-width: 0.6"/>
      </g>
     </g>
    </g>
    <g id="ytick_13">
     <g id="line2d_40">
      <g>
       <use xlink:href="#mf5d49cd337" x="193.640392" y="199.752198" style="stroke: #000000; stroke-width: 0.6"/>
      </g>
     </g>
    </g>
    <g id="ytick_14">
     <g id="line2d_41">
      <g>
       <use xlink:href="#mf5d49cd337" x="193.640392" y="172.143236" style="stroke: #000000; stroke-width: 0.6"/>
      </g>
     </g>
    </g>
    <g id="ytick_15">
     <g id="line2d_42">
      <g>
       <use xlink:href="#mf5d49cd337" x="193.640392" y="158.338755" style="stroke: #000000; stroke-width: 0.6"/>
      </g>
     </g>
    </g>
    <g id="ytick_16">
     <g id="line2d_43">
      <g>
       <use xlink:href="#mf5d49cd337" x="193.640392" y="144.534274" style="stroke: #000000; stroke-width: 0.6"/>
      </g>
     </g>
    </g>
    <g id="ytick_17">
     <g id="line2d_44">
      <g>
       <use xlink:href="#mf5d49cd337" x="193.640392" y="130.729793" style="stroke: #000000; stroke-width: 0.6"/>
      </g>
     </g>
    </g>
    <g id="ytick_18">
     <g id="line2d_45">
      <g>
       <use xlink:href="#mf5d49cd337" x="193.640392" y="103.120831" style="stroke: #000000; stroke-width: 0.6"/>
      </g>
     </g>
    </g>
    <g id="ytick_19">
     <g id="line2d_46">
      <g>
       <use xlink:href="#mf5d49cd337" x="193.640392" y="89.31635" style="stroke: #000000; stroke-width: 0.6"/>
      </g>
     </g>
    </g>
    <g id="ytick_20">
     <g id="line2d_47">
      <g>
       <use xlink:href="#mf5d49cd337" x="193.640392" y="75.511869" style="stroke: #000000; stroke-width: 0.6"/>
      </g>
     </g>
    </g>
    <g id="ytick_21">
     <g id="line2d_48">
      <g>
       <use xlink:href="#mf5d49cd337" x="193.640392" y="61.707388" style="stroke: #000000; stroke-width: 0.6"/>
      </g>
     </g>
    </g>
    <g id="ytick_22">
     <g id="line2d_49">
      <g>
       <use xlink:href="#mf5d49cd337" x="193.640392" y="34.098426" style="stroke: #000000; stroke-width: 0.6"/>
      </g>
     </g>
    </g>
    <g id="ytick_23">
     <g id="line2d_50">
      <g>
       <use xlink:href="#mf5d49cd337" x="193.640392" y="20.293945" style="stroke: #000000; stroke-width: 0.6"/>
      </g>
     </g>
    </g>
   </g>
   <g id="line2d_51">
    <path d="M 331.685202 47.902907 
L 325.804065 42.378016 
L 320.97864 38.331178 
L 318.533682 36.431853 
L 311.913809 31.754933 
L 307.995479 29.283976 
L 299.820167 24.778109 
L 295.640301 22.791969 
L 290.976997 20.81558 
L 282.614159 17.876365 
L 278.061291 16.591797 
L 275.061615 15.864406 
L 270.617 14.958692 
L 262.14172 13.799058 
L 255.301525 13.410956 
L 249.332819 13.483102 
L 241.816407 14.144791 
L 239.125366 14.544741 
L 234.167329 15.521804 
L 229.48898 16.749108 
L 223.836197 18.670585 
L 221.773582 19.504002 
L 218.517645 20.980088 
L 216.071682 22.230656 
L 211.475391 24.961033 
L 207.574277 27.751213 
L 205.435236 29.513409 
L 203.541516 31.244685 
L 200.257245 34.749228 
L 198.403238 37.126441 
L 196.672109 39.764678 
L 195.490553 41.954696 
L 194.74403 43.639138 
L 193.979257 45.933214 
L 193.644973 47.789851 
L 193.640629 47.88721 
L 193.581111 47.281606 
L 193.147584 45.383405 
L 192.352718 43.191609 
L 191.213023 40.830871 
L 190.188991 39.075643 
L 188.423812 36.509587 
L 187.369984 35.166691 
L 185.399216 32.923677 
L 183.715601 31.221916 
L 181.121221 28.895578 
L 179.233449 27.385645 
L 174.56445 24.170241 
L 173.290921 23.401381 
L 170.412024 21.808911 
L 167.34336 20.3112 
L 163.234945 18.590038 
L 159.930939 17.416805 
L 155.902539 16.216076 
L 151.326376 15.132677 
L 146.36583 14.268873 
L 142.929006 13.848098 
L 139.623143 13.57425 
L 131.825937 13.414207 
L 125.886977 13.732603 
L 120.746206 14.307088 
L 111.840452 15.951065 
L 107.334024 17.097229 
L 100.748929 19.158475 
L 97.984363 20.163443 
L 92.628905 22.352287 
L 84.993217 26.04926 
L 81.917749 27.739969 
L 78.563725 29.723246 
L 70.734468 34.958289 
L 68.170063 36.871373 
L 61.527379 42.333362 
L 59.197009 44.43777 
L 52.715834 50.875391 
L 48.739512 55.307601 
L 46.000978 58.606837 
L 39.884128 66.838309 
L 36.924745 71.334185 
L 32.029798 79.723738 
L 26.829518 90.428215 
L 25.86446 92.694891 
L 21.996332 103.087577 
L 20.104949 109.264114 
L 18.989063 113.437898 
L 17.566686 119.623362 
L 15.460659 132.434668 
L 14.371855 147.180321 
L 14.440131 157.761167 
L 15.004784 166.293912 
L 15.98711 174.569247 
L 16.904911 180.21546 
L 17.952439 185.520478 
L 20.137781 194.484744 
L 23.89991 206.463651 
L 25.441465 210.625081 
L 28.332616 217.653474 
L 34.220715 229.78103 
L 37.206131 235.130576 
L 39.95784 239.698928 
L 43.816277 245.616227 
L 49.353722 253.288631 
L 58.09694 263.857125 
L 61.67858 267.740783 
L 68.281378 274.333865 
L 75.028531 280.408564 
L 81.813291 285.930972 
L 88.109804 290.589934 
L 94.066444 294.624309 
L 99.746948 298.161139 
L 111.633658 304.670788 
L 120.544052 308.829748 
L 132.967551 313.69354 
L 139.229182 315.759018 
L 151.711618 319.150785 
L 154.989366 319.88683 
L 161.245368 321.118446 
L 168.327957 322.243387 
L 175.453303 323.0917 
L 182.653689 323.66432 
L 188.964524 323.933124 
L 197.165865 323.95876 
L 206.76944 323.523658 
L 218.799093 322.264673 
L 226.727846 320.993201 
L 236.716802 318.878125 
L 246.904913 316.110391 
L 252.081521 314.458439 
L 260.133025 311.54532 
L 269.348862 307.670919 
L 274.71176 305.135195 
L 283.700772 300.387314 
L 290.184446 296.54706 
L 299.951279 290.035316 
L 304.172801 286.923939 
L 310.942066 281.518409 
L 319.056465 274.27978 
L 324.224314 269.174703 
L 329.647826 263.336647 
L 334.683232 257.407545 
L 341.972835 247.770589 
L 343.720684 245.239187 
L 349.819274 235.568233 
L 351.242476 233.090698 
L 358.014933 219.747155 
L 359.603768 216.135685 
L 363.596929 205.852324 
L 366.188544 197.838425 
L 367.544836 192.987435 
L 369.587192 184.291121 
L 370.876697 177.289586 
L 372.148577 167.608831 
L 372.668347 161.189796 
L 372.872132 156.907997 
L 372.96462 150.80761 
L 372.690686 142.09223 
L 371.926963 133.335693 
L 371.044347 126.888839 
L 369.125494 116.918331 
L 366.741125 107.756963 
L 365.860346 104.870028 
L 364.04821 99.496974 
L 360.571899 90.705815 
L 357.025886 83.130473 
L 354.038077 77.517441 
L 349.088981 69.362577 
L 345.367844 63.9625 
L 341.302176 58.634687 
L 337.506923 54.115669 
L 331.685202 47.902907 
L 331.685202 47.902907 
" clip-path="url(#pc089a5d8cd)" style="fill: none; stroke: #0000ff; stroke-width: 2; stroke-linecap: square"/>
   </g>
   <g id="patch_3">
    <path d="M 193.640392 330.169716 
L 193.640392 7.2 
" style="fill: none; stroke: #000000; stroke-width: 0.8; stroke-linejoin: miter; stroke-linecap: square"/>
   </g>
   <g id="patch_4">
    <path d="M 7.2 47.902907 
L 380.136475 47.902907 
" style="fill: none; stroke: #000000; stroke-width: 0.8; stroke-linejoin: miter; stroke-linecap: square"/>
   </g>
  </g>
 </g>
 <defs>
  <clipPath id="pc089a5d8cd">
   <rect x="7.2" y="7.2" width="372.936475" height="322.969716"/>
  </clipPath>
 </defs>
</svg>
