<svg xmlns="http://www.w3.org/2000/svg" xmlns:xlink="http://www.w3.org/1999/xlink" xmlns:inkscape="http://www.inkscape.org/namespaces/inkscape" version="1.1" width="212" height="178" viewBox="0 0 212 178">
<defs>
<path id="font_1_1" d="M.6589966 .23046875C.6759949 .23046875 .69400027 .23046875 .69400027 .25045777 .69400027 .27046205 .6759949 .27046205 .6589966 .27046205H.117996219C.100997928 .27046205 .08299255 .27046205 .08299255 .25045777 .08299255 .23046875 .100997928 .23046875 .117996219 .23046875H.6589966Z"/>
<path id="font_2_4" d="M.13198853 .327713V.35173036C.13198853 .6047821 .2559967 .64100649 .30699159 .64100649 .33099366 .64100649 .37298585 .634964 .394989 .6007538 .37998963 .6007538 .33999635 .6007538 .33999635 .5557556 .33999635 .524765 .3639984 .5097656 .38598634 .5097656 .4019928 .5097656 .43199159 .51875308 .43199159 .5577545 .43199159 .6178589 .3880005 .6660156 .30499269 .6660156 .1769867 .6660156 .041992189 .5367584 .041992189 .31570436 .041992189 .048553468 .1579895-.022460938 .25099183-.022460938 .3619995-.022460938 .45700074 .07156372 .45700074 .2036438 .45700074 .33070375 .36799623 .4267578 .25698854 .4267578 .18899536 .4267578 .1519928 .37573243 .13198853 .327713M.25099183 .0055389406C.18798828 .0055389406 .1579895 .06556702 .1519928 .080566409 .13398743 .127594 .13398743 .2076416 .13398743 .22564698 .13398743 .30369569 .1659851 .40374757 .2559967 .40374757 .27198792 .40374757 .31799317 .40374757 .34899903 .34172059 .36698915 .30470277 .36698915 .2536621 .36698915 .20463562 .36698915 .15661621 .36698915 .10658264 .34999085 .0705719 .31999208 .010528564 .27398683 .0055389406 .25099183 .0055389406Z"/>
<path id="font_2_3" d="M.2939911 .16503906V.07800293C.2939911 .041992189 .2919922 .0309906 .21798706 .0309906H.19699097V0C.23799134 .0029907227 .2899933 .0029907227 .33198548 .0029907227 .37399293 .0029907227 .4269867 .0029907227 .46798707 0V.0309906H.44699098C.37298585 .0309906 .37098695 .041992189 .37098695 .07800293V.16503906H.47099305V.19602967H.37098695V.65075686C.37098695 .67074587 .37098695 .6767578 .35499574 .6767578 .34599305 .6767578 .34298707 .6767578 .33499146 .66474917L.027999878 .19602967V.16503906H.2939911M.2999878 .19602967H.055999757L.2999878 .5688019V.19602967Z"/>
<path id="font_2_2" d="M.1269989 .07699585 .23298645 .18003845C.3889923 .31811524 .44898988 .3721466 .44898988 .47216798 .44898988 .5860901 .35899354 .6660156 .23699951 .6660156 .12399292 .6660156 .049987794 .57411196 .049987794 .48516847 .049987794 .4291687 .099990848 .4291687 .102996829 .4291687 .11999512 .4291687 .15499878 .44117738 .15499878 .48217774 .15499878 .5081787 .13699341 .5341797 .101989749 .5341797 .09399414 .5341797 .09199524 .5341797 .08898926 .5331726 .11199951 .59806826 .1659851 .63500979 .22399903 .63500979 .31498719 .63500979 .35798646 .5541382 .35798646 .47216798 .35798646 .39215089 .30799867 .31311036 .25299073 .25108338L.06098938 .036987306C.049987794 .025985718 .049987794 .023986817 .049987794 0H.42099L.44898988 .17404175H.42399598C.4189911 .14402771 .4119873 .1000061 .4019928 .084991458 .394989 .07699585 .32899476 .07699585 .30699159 .07699585H.1269989Z"/>
<path id="font_2_1" d="M.45999146 .31976319C.45999146 .39982606 .45498658 .47988893 .41999818 .5539398 .37399293 .65000918 .2919922 .6660156 .25 .6660156 .18998719 .6660156 .116989139 .64001467 .07598877 .54693606 .04399109 .47789 .038986207 .39982606 .038986207 .31976319 .038986207 .24472046 .042999269 .15464783 .083999637 .07859802 .1269989-.0024719239 .19999695-.022460938 .24899292-.022460938 .30299378-.022460938 .3789978-.0014648438 .4229889 .09359741 .45498658 .16265869 .45999146 .2407074 .45999146 .31976319M.24899292-.00047302247C.20999146-.00047302247 .15098572 .024551392 .1329956 .12062073 .12199402 .18066406 .12199402 .2727356 .12199402 .3317871 .12199402 .39582826 .12199402 .46188355 .12998963 .5159149 .14898682 .63500979 .22399903 .64401248 .24899292 .64401248 .28199769 .64401248 .34799195 .6259918 .36698915 .52693179 .3769989 .47088624 .3769989 .39482118 .3769989 .3317871 .3769989 .25672914 .3769989 .18867493 .3659973 .12461853 .35099793 .029556275 .2939911-.00047302247 .24899292-.00047302247Z"/>
<clipPath id="clip_3">
<path transform="matrix(1.00005,0,0,-1.00002,32.905946,166.52207)" d="M-16.43797 0H177.82825V161.39028H-16.43797Z"/>
</clipPath>
</defs>
<path transform="matrix(1.00005,0,0,-1.00002,32.905946,166.52207)" stroke-width=".3985" stroke-linecap="butt" stroke-miterlimit="10" stroke-linejoin="miter" fill="none" stroke="#bfbfbf" d="M0 0V161.39028M26.89838 0V161.39028M53.79675 0V161.39028M80.69513 0V161.39028M107.59352 0V161.39028M134.4919 0V161.39028M161.39028 0V161.39028"/>
<path transform="matrix(1.00005,0,0,-1.00002,32.905946,166.52207)" stroke-width=".3985" stroke-linecap="butt" stroke-miterlimit="10" stroke-linejoin="miter" fill="none" stroke="#bfbfbf" d="M-16.43797 0H177.82825M-16.43797 26.89838H177.82825M-16.43797 53.79675H177.82825M-16.43797 80.69513H177.82825M-16.43797 107.59352H177.82825M-16.43797 134.4919H177.82825M-16.43797 161.39028H177.82825"/>
<path transform="matrix(1.00005,0,0,-1.00002,32.905946,166.52207)" stroke-width=".19925" stroke-linecap="butt" stroke-miterlimit="10" stroke-linejoin="miter" fill="none" stroke="#7f807f" d="M0 0V4.2517M26.89838 0V4.2517M53.79675 0V4.2517M80.69513 0V4.2517M107.59352 0V4.2517M134.4919 0V4.2517M161.39028 0V4.2517M0 161.39028V157.13855M26.89838 161.39028V157.13855M53.79675 161.39028V157.13855M80.69513 161.39028V157.13855M107.59352 161.39028V157.13855M134.4919 161.39028V157.13855M161.39028 161.39028V157.13855"/>
<path transform="matrix(1.00005,0,0,-1.00002,32.905946,166.52207)" stroke-width=".19925" stroke-linecap="butt" stroke-miterlimit="10" stroke-linejoin="miter" fill="none" stroke="#7f807f" d="M-16.43797 0H-12.18626M-16.43797 26.89838H-12.18626M-16.43797 53.79675H-12.18626M-16.43797 80.69513H-12.18626M-16.43797 107.59352H-12.18626M-16.43797 134.4919H-12.18626M-16.43797 161.39028H-12.18626M177.82825 0H173.57656M177.82825 26.89838H173.57656M177.82825 53.79675H173.57656M177.82825 80.69513H173.57656M177.82825 107.59352H173.57656M177.82825 134.4919H173.57656M177.82825 161.39028H173.57656"/>
<path transform="matrix(1.00005,0,0,-1.00002,32.905946,166.52207)" stroke-width=".3985" stroke-linecap="butt" stroke-miterlimit="10" stroke-linejoin="miter" fill="none" stroke="#000000" d="M-16.43797 0V161.39028H177.82825V0H-16.43797Z"/>
<use data-text="&#x2212;" xlink:href="#font_1_1" transform="matrix(9.963098,0,0,-9.962799,26.540627,176.46227)"/>
<use data-text="6" xlink:href="#font_2_4" transform="matrix(9.963098,0,0,-9.962799,34.290018,176.46227)"/>
<use data-text="&#x2212;" xlink:href="#font_1_1" transform="matrix(9.963098,0,0,-9.962799,53.439973,176.46227)"/>
<use data-text="4" xlink:href="#font_2_3" transform="matrix(9.963098,0,0,-9.962799,61.18936,176.46227)"/>
<use data-text="&#x2212;" xlink:href="#font_1_1" transform="matrix(9.963098,0,0,-9.962799,80.34032,176.46227)"/>
<use data-text="2" xlink:href="#font_2_2" transform="matrix(9.963098,0,0,-9.962799,88.08971,176.46227)"/>
<use data-text="0" xlink:href="#font_2_1" transform="matrix(9.963098,0,0,-9.962799,111.11385,176.46227)"/>
<use data-text="2" xlink:href="#font_2_2" transform="matrix(9.963098,0,0,-9.962799,138.01419,176.46227)"/>
<use data-text="4" xlink:href="#font_2_3" transform="matrix(9.963098,0,0,-9.962799,164.91355,176.46227)"/>
<use data-text="6" xlink:href="#font_2_4" transform="matrix(9.963098,0,0,-9.962799,191.81388,176.46227)"/>
<use data-text="&#x2212;" xlink:href="#font_1_1" transform="matrix(9.963098,0,0,-9.962799,.2163086,169.31713)"/>
<use data-text="6" xlink:href="#font_2_4" transform="matrix(9.963098,0,0,-9.962799,7.9656984,169.31713)"/>
<use data-text="&#x2212;" xlink:href="#font_1_1" transform="matrix(9.963098,0,0,-9.962799,.2163086,142.41858)"/>
<use data-text="4" xlink:href="#font_2_3" transform="matrix(9.963098,0,0,-9.962799,7.9656984,142.41858)"/>
<use data-text="&#x2212;" xlink:href="#font_1_1" transform="matrix(9.963098,0,0,-9.962799,.2163086,115.51904)"/>
<use data-text="2" xlink:href="#font_2_2" transform="matrix(9.963098,0,0,-9.962799,7.9656984,115.51904)"/>
<use data-text="0" xlink:href="#font_2_1" transform="matrix(9.963098,0,0,-9.962799,7.9656984,89.035518)"/>
<use data-text="2" xlink:href="#font_2_2" transform="matrix(9.963098,0,0,-9.962799,7.9656984,62.13697)"/>
<use data-text="4" xlink:href="#font_2_3" transform="matrix(9.963098,0,0,-9.962799,7.9656984,35.237443)"/>
<use data-text="6" xlink:href="#font_2_4" transform="matrix(9.963098,0,0,-9.962799,7.9656984,8.338898)"/>
<g clip-path="url(#clip_3)">
<path transform="matrix(1.00005,0,0,-1.00002,32.905946,166.52207)" stroke-width=".79701" stroke-linecap="butt" stroke-miterlimit="10" stroke-linejoin="miter" fill="none" stroke="#0000ff" d="M134.4919 107.59352 134.43648 109.29941 134.27481 110.99803 134.00502 112.68321 133.62845 114.34795 133.14859 115.98607 132.56407 117.58975 131.87952 119.15308 131.09812 120.67096 130.22097 122.13477 129.25316 123.54048 128.1982 124.88324 127.06013 126.1542 125.84352 127.35144 124.55429 128.4696 123.19537 129.50305 121.77487 130.44879 120.29652 131.302 118.76709 132.0592 117.19327 132.71956 115.58018 133.27742 113.9348 133.73255 112.26468 134.08304 110.57492 134.32485 108.8736 134.46042 107.16743 134.48786 105.46288 134.40608 103.76668 134.21698 102.08578 133.92058 100.42725 133.51789 98.79694 133.0122 97.20293 132.4027 95.6501 131.6931 94.14566 130.8883 92.69557 129.98777 91.30493 128.99788 89.9799 127.92195 88.72697 126.76346 87.54884 125.52827 86.45139 124.22101 85.43973 122.8465 84.51657 121.4112 83.68677 119.91942 82.95325 118.37868 82.31845 116.79436 81.78639 115.17212 81.35764 113.5203 81.03404 111.84451 80.81886 110.15154 80.70938 108.44806V106.74217L80.81886 105.03897 81.03377 103.34544 81.35709 101.66968 81.78558 100.01758 82.3171 98.3956 82.95218 96.81128 83.68568 95.27002 84.51497 93.77823 85.43813 92.34294 86.44977 90.96841 87.54695 89.66063 88.72484 88.42572 89.97803 87.26694 91.30276 86.191 92.69342 85.20088 94.1427 84.30003 95.64821 83.49472 97.20052 82.78593 98.79425 82.17561 100.42427 81.66992 102.0831 81.26698 103.76372 80.97057 105.45993 80.7812 107.16449 80.69916 108.87091 80.72713 110.57196 80.86217 112.26144 81.10344 113.93237 81.45392 115.57721 81.90878 117.1903 82.46664 118.76468 83.1262 120.29358 83.88338 121.77245 84.7366 123.19295 85.68236 124.55186 86.71553 125.84135 87.83395 127.05798 89.0304 128.19632 90.30188 129.25154 91.64384 130.21935 93.04956 131.09677 94.51363 131.87818 96.03096 132.56328 97.59456 133.14723 99.19853 133.6279 100.8361 134.00476 102.50084 134.27428 104.18602 134.43595 105.88492 134.49135 107.59082"/>
</g>
</svg>
