<svg xmlns="http://www.w3.org/2000/svg" xmlns:xlink="http://www.w3.org/1999/xlink" xmlns:inkscape="http://www.inkscape.org/namespaces/inkscape" version="1.1" width="212" height="178" viewBox="0 0 212 178">
<defs>
<path id="font_1_1" d="M.6589966 .23046875C.6759949 .23046875 .69400027 .23046875 .69400027 .25045777 .69400027 .27046205 .6759949 .27046205 .6589966 .27046205H.117996219C.100997928 .27046205 .08299255 .27046205 .08299255 .25045777 .08299255 .23046875 .100997928 .23046875 .117996219 .23046875H.6589966Z"/>
<path id="font_2_4" d="M.2899933 .35191346C.37199403 .37893678 .42999269 .4490509 .42999269 .52809146 .42999269 .6100464 .34199525 .6660156 .24598694 .6660156 .14498902 .6660156 .068984989 .60606387 .068984989 .53009036 .068984989 .49710084 .09098816 .47808839 .11999512 .47808839 .15098572 .47808839 .17098999 .50009158 .17098999 .5290985 .17098999 .57910159 .12399292 .57910159 .10899353 .57910159 .13999939 .62802127 .20599365 .64100649 .24198914 .64100649 .2829895 .64100649 .33799745 .6190338 .33799745 .5290985 .33799745 .51708987 .33599855 .45906068 .30999757 .4149933 .27999879 .36691285 .24598694 .36390687 .22099304 .36291505 .21299744 .36190797 .18899536 .35990907 .18199158 .35990907 .17399597 .35890199 .16699219 .35791017 .16699219 .3479004 .16699219 .33691407 .17399597 .33691407 .19099427 .33691407H.23498535C.31698609 .33691407 .35398866 .2686615 .35398866 .17037964 .35398866 .034469606 .2849884 .0055389406 .24099732 .0055389406 .19799805 .0055389406 .12298584 .022491456 .08799744 .08137512 .12298584 .07637024 .1539917 .09837341 .1539917 .1363678 .1539917 .17237854 .1269989 .19238281 .09799194 .19238281 .07398987 .19238281 .041992189 .17837525 .041992189 .1343689 .041992189 .043441774 .1349945-.022460938 .24398804-.022460938 .3659973-.022460938 .45700074 .06838989 .45700074 .17037964 .45700074 .252594 .3939972 .33088685 .2899933 .35191346Z"/>
<path id="font_2_3" d="M.1269989 .07699585 .23298645 .18003845C.3889923 .31811524 .44898988 .3721466 .44898988 .47216798 .44898988 .5860901 .35899354 .6660156 .23699951 .6660156 .12399292 .6660156 .049987794 .57411196 .049987794 .48516847 .049987794 .4291687 .099990848 .4291687 .102996829 .4291687 .11999512 .4291687 .15499878 .44117738 .15499878 .48217774 .15499878 .5081787 .13699341 .5341797 .101989749 .5341797 .09399414 .5341797 .09199524 .5341797 .08898926 .5331726 .11199951 .59806826 .1659851 .63500979 .22399903 .63500979 .31498719 .63500979 .35798646 .5541382 .35798646 .47216798 .35798646 .39215089 .30799867 .31311036 .25299073 .25108338L.06098938 .036987306C.049987794 .025985718 .049987794 .023986817 .049987794 0H.42099L.44898988 .17404175H.42399598C.4189911 .14402771 .4119873 .1000061 .4019928 .084991458 .394989 .07699585 .32899476 .07699585 .30699159 .07699585H.1269989Z"/>
<path id="font_2_2" d="M.2939911 .64004519C.2939911 .66400149 .2939911 .6660156 .2709961 .6660156 .20899964 .60227969 .12098694 .60227969 .08898926 .60227969V.57128909C.10899353 .57128909 .16799927 .57128909 .21998596 .5972748V.07902527C.21998596 .042999269 .21699524 .0309906 .1269989 .0309906H.09498596V0C.12998963 .0029907227 .21699524 .0029907227 .25698854 .0029907227 .29699708 .0029907227 .38398744 .0029907227 .4189911 0V.0309906H.3869934C.29699708 .0309906 .2939911 .041992189 .2939911 .07902527V.64004519Z"/>
<path id="font_2_1" d="M.45999146 .31976319C.45999146 .39982606 .45498658 .47988893 .41999818 .5539398 .37399293 .65000918 .2919922 .6660156 .25 .6660156 .18998719 .6660156 .116989139 .64001467 .07598877 .54693606 .04399109 .47789 .038986207 .39982606 .038986207 .31976319 .038986207 .24472046 .042999269 .15464783 .083999637 .07859802 .1269989-.0024719239 .19999695-.022460938 .24899292-.022460938 .30299378-.022460938 .3789978-.0014648438 .4229889 .09359741 .45498658 .16265869 .45999146 .2407074 .45999146 .31976319M.24899292-.00047302247C.20999146-.00047302247 .15098572 .024551392 .1329956 .12062073 .12199402 .18066406 .12199402 .2727356 .12199402 .3317871 .12199402 .39582826 .12199402 .46188355 .12998963 .5159149 .14898682 .63500979 .22399903 .64401248 .24899292 .64401248 .28199769 .64401248 .34799195 .6259918 .36698915 .52693179 .3769989 .47088624 .3769989 .39482118 .3769989 .3317871 .3769989 .25672914 .3769989 .18867493 .3659973 .12461853 .35099793 .029556275 .2939911-.00047302247 .24899292-.00047302247Z"/>
<clipPath id="clip_3">
<path transform="matrix(1.00005,0,0,-1.00003,-666.482,166.52463)" d="M682.92379 0H877.1911V161.39119H682.92379Z"/>
</clipPath>
</defs>
<path transform="matrix(1.00005,0,0,-1.00003,-666.482,166.52463)" stroke-width=".3985" stroke-linecap="butt" stroke-miterlimit="10" stroke-linejoin="miter" fill="none" stroke="#bfbfbf" d="M699.3619 0V161.39119M726.2604 0V161.39119M753.1589 0V161.39119M780.05746 0V161.39119M806.95596 0V161.39119M833.8545 0V161.39119M860.75308 0V161.39119"/>
<path transform="matrix(1.00005,0,0,-1.00003,-666.482,166.52463)" stroke-width=".3985" stroke-linecap="butt" stroke-miterlimit="10" stroke-linejoin="miter" fill="none" stroke="#bfbfbf" d="M682.92379 0H877.1911M682.92379 26.89853H877.1911M682.92379 53.79706H877.1911M682.92379 80.69559H877.1911M682.92379 107.59412H877.1911M682.92379 134.49266H877.1911M682.92379 161.39119H877.1911"/>
<path transform="matrix(1.00005,0,0,-1.00003,-666.482,166.52463)" stroke-width=".19925" stroke-linecap="butt" stroke-miterlimit="10" stroke-linejoin="miter" fill="none" stroke="#7f807f" d="M699.3619 0V4.25172M726.2604 0V4.25172M753.1589 0V4.25172M780.05746 0V4.25172M806.95596 0V4.25172M833.8545 0V4.25172M860.75308 0V4.25172M699.3619 161.39119V157.13944M726.2604 161.39119V157.13944M753.1589 161.39119V157.13944M780.05746 161.39119V157.13944M806.95596 161.39119V157.13944M833.8545 161.39119V157.13944M860.75308 161.39119V157.13944"/>
<path transform="matrix(1.00005,0,0,-1.00003,-666.482,166.52463)" stroke-width=".19925" stroke-linecap="butt" stroke-miterlimit="10" stroke-linejoin="miter" fill="none" stroke="#7f807f" d="M682.92379 0H687.1755M682.92379 26.89853H687.1755M682.92379 53.79706H687.1755M682.92379 80.69559H687.1755M682.92379 107.59412H687.1755M682.92379 134.49266H687.1755M682.92379 161.39119H687.1755M877.1911 0H872.93936M877.1911 26.89853H872.93936M877.1911 53.79706H872.93936M877.1911 80.69559H872.93936M877.1911 107.59412H872.93936M877.1911 134.49266H872.93936M877.1911 161.39119H872.93936"/>
<path transform="matrix(1.00005,0,0,-1.00003,-666.482,166.52463)" stroke-width=".3985" stroke-linecap="butt" stroke-miterlimit="10" stroke-linejoin="miter" fill="none" stroke="#000000" d="M682.92379 0V161.39119H877.1911V0H682.92379Z"/>
<use data-text="&#x2212;" xlink:href="#font_1_1" transform="matrix(9.963098,0,0,-9.962899,26.549622,176.46494)"/>
<use data-text="3" xlink:href="#font_2_4" transform="matrix(9.963098,0,0,-9.962899,34.29901,176.46494)"/>
<use data-text="&#x2212;" xlink:href="#font_1_1" transform="matrix(9.963098,0,0,-9.962899,53.448976,176.46494)"/>
<use data-text="2" xlink:href="#font_2_3" transform="matrix(9.963098,0,0,-9.962899,61.198366,176.46494)"/>
<use data-text="&#x2212;" xlink:href="#font_1_1" transform="matrix(9.963098,0,0,-9.962899,80.349308,176.46494)"/>
<use data-text="1" xlink:href="#font_2_2" transform="matrix(9.963098,0,0,-9.962899,88.098697,176.46494)"/>
<use data-text="0" xlink:href="#font_2_1" transform="matrix(9.963098,0,0,-9.962899,111.12384,176.46494)"/>
<use data-text="1" xlink:href="#font_2_2" transform="matrix(9.963098,0,0,-9.962899,138.0232,176.46494)"/>
<use data-text="2" xlink:href="#font_2_3" transform="matrix(9.963098,0,0,-9.962899,164.92353,176.46494)"/>
<use data-text="3" xlink:href="#font_2_4" transform="matrix(9.963098,0,0,-9.962899,191.82288,176.46494)"/>
<use data-text="&#x2212;" xlink:href="#font_1_1" transform="matrix(9.963098,0,0,-9.962899,.2253418,169.31972)"/>
<use data-text="3" xlink:href="#font_2_4" transform="matrix(9.963098,0,0,-9.962899,7.9747316,169.31972)"/>
<use data-text="&#x2212;" xlink:href="#font_1_1" transform="matrix(9.963098,0,0,-9.962899,.2253418,142.4209)"/>
<use data-text="2" xlink:href="#font_2_3" transform="matrix(9.963098,0,0,-9.962899,7.9747316,142.4209)"/>
<use data-text="&#x2212;" xlink:href="#font_1_1" transform="matrix(9.963098,0,0,-9.962899,.2253418,115.521099)"/>
<use data-text="1" xlink:href="#font_2_2" transform="matrix(9.963098,0,0,-9.962899,7.9747316,115.521099)"/>
<use data-text="0" xlink:href="#font_2_1" transform="matrix(9.963098,0,0,-9.962899,7.9746706,89.0373)"/>
<use data-text="1" xlink:href="#font_2_2" transform="matrix(9.963098,0,0,-9.962899,7.9746706,62.13749)"/>
<use data-text="2" xlink:href="#font_2_3" transform="matrix(9.963098,0,0,-9.962899,7.9746706,35.238695)"/>
<use data-text="3" xlink:href="#font_2_4" transform="matrix(9.963098,0,0,-9.962899,7.9746706,8.338882)"/>
<g clip-path="url(#clip_3)">
<path transform="matrix(1.00005,0,0,-1.00003,-666.482,166.52463)" stroke-width=".79701" stroke-linecap="butt" stroke-miterlimit="10" stroke-linejoin="miter" fill="none" stroke="#0000ff" d="M0-430.3765 16.30127-419.509 32.60268-408.64137 48.90408-397.77378 65.20549-386.90617 81.5069-376.03858 97.8083-365.17097 114.10971-354.30335 130.41112-343.43577 146.71253-332.56816 163.01393-321.70054 179.31522-310.833 195.61663-299.96543 211.91803-289.0978 228.21944-278.23023 244.52085-267.3626 260.82225-256.495 277.12367-245.62738 293.42506-234.75978 309.72648-223.89218 326.0279-213.02457 342.32917-202.15706 358.63059-191.28945 374.93199-180.42185 391.23338-169.55425 407.5348-158.68663 423.8362-147.81903 440.13764-136.95142 456.439-126.08382 472.74043-115.21622 489.0418-104.3486 505.3431-93.4811 521.64456-82.61348 537.9459-71.74588 554.2473-60.87828 570.54879-50.01067 586.85018-39.14307 603.15158-28.27547 619.45297-17.40785 635.7544-6.54025 652.0558 4.32733 668.35708 15.19484 684.6585 26.06244 700.9599 36.93005 717.2613 47.79765 733.5626 58.66527 749.8641 69.53287 766.16549 80.40042 782.467 91.26813 798.7684 102.13568 815.0697 113.0033 831.37118 123.8709 847.67257 134.7385 863.97396 145.60611 880.2753 156.47371 896.5767 167.34133 912.87808 178.20883 929.17947 189.07643 945.4809 199.94405 961.7823 210.81165 978.0837 221.67926 994.3851 232.54686 1010.68649 243.41446 1026.9879 254.28208 1043.2893 265.14967 1059.5906 276.0172 1075.892 286.8848 1092.1934 297.7524 1108.4948 308.62 1124.7963 319.4876 1141.0977 330.35523 1157.399 341.2228 1173.7005 352.09043 1190.0018 362.95805 1206.3032 373.82566 1222.6046 384.69325 1238.9059 395.5608 1255.2074 406.42839 1271.5088 417.29597 1287.8102 428.16358 1304.1116 439.0312 1320.413 449.8988 1336.7144 460.7664 1353.0158 471.634 1369.3173 482.5016 1385.6185 493.36915 1401.9199 504.23674 1418.2213 515.1044 1434.5227 525.9719 1450.8241 536.83956 1467.1255 547.70718 1483.4269 558.57479 1499.7283 569.4423 1516.0298 580.31 1532.3312 591.17758 1548.6325 602.0451 1564.9338 612.9127 1581.2352 623.7803 1597.5366 634.64797 1613.838 645.5155"/>
</g>
</svg>
