<svg xmlns="http://www.w3.org/2000/svg" xmlns:xlink="http://www.w3.org/1999/xlink" xmlns:inkscape="http://www.inkscape.org/namespaces/inkscape" version="1.1" width="212" height="178" viewBox="0 0 212 178">
<defs>
<path id="font_1_1" d="M.6589966 .23046875C.6759949 .23046875 .69400027 .23046875 .69400027 .25045777 .69400027 .27046205 .6759949 .27046205 .6589966 .27046205H.117996219C.100997928 .27046205 .08299255 .27046205 .08299255 .25045777 .08299255 .23046875 .100997928 .23046875 .117996219 .23046875H.6589966Z"/>
<path id="font_2_4" d="M.13198853 .327713V.35173036C.13198853 .6047821 .2559967 .64100649 .30699159 .64100649 .33099366 .64100649 .37298585 .634964 .394989 .6007538 .37998963 .6007538 .33999635 .6007538 .33999635 .5557556 .33999635 .524765 .3639984 .5097656 .38598634 .5097656 .4019928 .5097656 .43199159 .51875308 .43199159 .5577545 .43199159 .6178589 .3880005 .6660156 .30499269 .6660156 .1769867 .6660156 .041992189 .5367584 .041992189 .31570436 .041992189 .048553468 .1579895-.022460938 .25099183-.022460938 .3619995-.022460938 .45700074 .07156372 .45700074 .2036438 .45700074 .33070375 .36799623 .4267578 .25698854 .4267578 .18899536 .4267578 .1519928 .37573243 .13198853 .327713M.25099183 .0055389406C.18798828 .0055389406 .1579895 .06556702 .1519928 .080566409 .13398743 .127594 .13398743 .2076416 .13398743 .22564698 .13398743 .30369569 .1659851 .40374757 .2559967 .40374757 .27198792 .40374757 .31799317 .40374757 .34899903 .34172059 .36698915 .30470277 .36698915 .2536621 .36698915 .20463562 .36698915 .15661621 .36698915 .10658264 .34999085 .0705719 .31999208 .010528564 .27398683 .0055389406 .25099183 .0055389406Z"/>
<path id="font_2_3" d="M.2939911 .16503906V.07800293C.2939911 .041992189 .2919922 .0309906 .21798706 .0309906H.19699097V0C.23799134 .0029907227 .2899933 .0029907227 .33198548 .0029907227 .37399293 .0029907227 .4269867 .0029907227 .46798707 0V.0309906H.44699098C.37298585 .0309906 .37098695 .041992189 .37098695 .07800293V.16503906H.47099305V.19602967H.37098695V.65075686C.37098695 .67074587 .37098695 .6767578 .35499574 .6767578 .34599305 .6767578 .34298707 .6767578 .33499146 .66474917L.027999878 .19602967V.16503906H.2939911M.2999878 .19602967H.055999757L.2999878 .5688019V.19602967Z"/>
<path id="font_2_2" d="M.1269989 .07699585 .23298645 .18003845C.3889923 .31811524 .44898988 .3721466 .44898988 .47216798 .44898988 .5860901 .35899354 .6660156 .23699951 .6660156 .12399292 .6660156 .049987794 .57411196 .049987794 .48516847 .049987794 .4291687 .099990848 .4291687 .102996829 .4291687 .11999512 .4291687 .15499878 .44117738 .15499878 .48217774 .15499878 .5081787 .13699341 .5341797 .101989749 .5341797 .09399414 .5341797 .09199524 .5341797 .08898926 .5331726 .11199951 .59806826 .1659851 .63500979 .22399903 .63500979 .31498719 .63500979 .35798646 .5541382 .35798646 .47216798 .35798646 .39215089 .30799867 .31311036 .25299073 .25108338L.06098938 .036987306C.049987794 .025985718 .049987794 .023986817 .049987794 0H.42099L.44898988 .17404175H.42399598C.4189911 .14402771 .4119873 .1000061 .4019928 .084991458 .394989 .07699585 .32899476 .07699585 .30699159 .07699585H.1269989Z"/>
<path id="font_2_1" d="M.45999146 .31976319C.45999146 .39982606 .45498658 .47988893 .41999818 .5539398 .37399293 .65000918 .2919922 .6660156 .25 .6660156 .18998719 .6660156 .116989139 .64001467 .07598877 .54693606 .04399109 .47789 .038986207 .39982606 .038986207 .31976319 .038986207 .24472046 .042999269 .15464783 .083999637 .07859802 .1269989-.0024719239 .19999695-.022460938 .24899292-.022460938 .30299378-.022460938 .3789978-.0014648438 .4229889 .09359741 .45498658 .16265869 .45999146 .2407074 .45999146 .31976319M.24899292-.00047302247C.20999146-.00047302247 .15098572 .024551392 .1329956 .12062073 .12199402 .18066406 .12199402 .2727356 .12199402 .3317871 .12199402 .39582826 .12199402 .46188355 .12998963 .5159149 .14898682 .63500979 .22399903 .64401248 .24899292 .64401248 .28199769 .64401248 .34799195 .6259918 .36698915 .52693179 .3769989 .47088624 .3769989 .39482118 .3769989 .3317871 .3769989 .25672914 .3769989 .18867493 .3659973 .12461853 .35099793 .029556275 .2939911-.00047302247 .24899292-.00047302247Z"/>
<clipPath id="clip_3">
<path transform="matrix(1.00005,0,0,-1.00002,32.905946,166.52207)" d="M-16.43797 0H177.82825V161.39028H-16.43797Z"/>
</clipPath>
</defs>
<path transform="matrix(1.00005,0,0,-1.00002,32.905946,166.52207)" stroke-width=".3985" stroke-linecap="butt" stroke-miterlimit="10" stroke-linejoin="miter" fill="none" stroke="#bfbfbf" d="M0 0V161.39028M26.89838 0V161.39028M53.79675 0V161.39028M80.69513 0V161.39028M107.59352 0V161.39028M134.4919 0V161.39028M161.39028 0V161.39028"/>
<path transform="matrix(1.00005,0,0,-1.00002,32.905946,166.52207)" stroke-width=".3985" stroke-linecap="butt" stroke-miterlimit="10" stroke-linejoin="miter" fill="none" stroke="#bfbfbf" d="M-16.43797 0H177.82825M-16.43797 26.89838H177.82825M-16.43797 53.79675H177.82825M-16.43797 80.69513H177.82825M-16.43797 107.59352H177.82825M-16.43797 134.4919H177.82825M-16.43797 161.39028H177.82825"/>
<path transform="matrix(1.00005,0,0,-1.00002,32.905946,166.52207)" stroke-width=".19925" stroke-linecap="butt" stroke-miterlimit="10" stroke-linejoin="miter" fill="none" stroke="#7f807f" d="M0 0V4.2517M26.89838 0V4.2517M53.79675 0V4.2517M80.69513 0V4.2517M107.59352 0V4.2517M134.4919 0V4.2517M161.39028 0V4.2517M0 161.39028V157.13855M26.89838 161.39028V157.13855M53.79675 161.39028V157.13855M80.69513 161.39028V157.13855M107.59352 161.39028V157.13855M134.4919 161.39028V157.13855M161.39028 161.39028V157.13855"/>
<path transform="matrix(1.00005,0,0,-1.00002,32.905946,166.52207)" stroke-width=".19925" stroke-linecap="butt" stroke-miterlimit="10" stroke-linejoin="miter" fill="none" stroke="#7f807f" d="M-16.43797 0H-12.18626M-16.43797 26.89838H-12.18626M-16.43797 53.79675H-12.18626M-16.43797 80.69513H-12.18626M-16.43797 107.59352H-12.18626M-16.43797 134.4919H-12.18626M-16.43797 161.39028H-12.18626M177.82825 0H173.57656M177.82825 26.89838H173.57656M177.82825 53.79675H173.57656M177.82825 80.69513H173.57656M177.82825 107.59352H173.57656M177.82825 134.4919H173.57656M177.82825 161.39028H173.57656"/>
<path transform="matrix(1.00005,0,0,-1.00002,32.905946,166.52207)" stroke-width=".3985" stroke-linecap="butt" stroke-miterlimit="10" stroke-linejoin="miter" fill="none" stroke="#000000" d="M-16.43797 0V161.39028H177.82825V0H-16.43797Z"/>
<use data-text="&#x2212;" xlink:href="#font_1_1" transform="matrix(9.963098,0,0,-9.962799,26.540627,176.46227)"/>
<use data-text="6" xlink:href="#font_2_4" transform="matrix(9.963098,0,0,-9.962799,34.290018,176.46227)"/>
<use data-text="&#x2212;" xlink:href="#font_1_1" transform="matrix(9.963098,0,0,-9.962799,53.439973,176.46227)"/>
<use data-text="4" xlink:href="#font_2_3" transform="matrix(9.963098,0,0,-9.962799,61.18936,176.46227)"/>
<use data-text="&#x2212;" xlink:href="#font_1_1" transform="matrix(9.963098,0,0,-9.962799,80.34032,176.46227)"/>
<use data-text="2" xlink:href="#font_2_2" transform="matrix(9.963098,0,0,-9.962799,88.08971,176.46227)"/>
<use data-text="0" xlink:href="#font_2_1" transform="matrix(9.963098,0,0,-9.962799,111.11385,176.46227)"/>
<use data-text="2" xlink:href="#font_2_2" transform="matrix(9.963098,0,0,-9.962799,138.01419,176.46227)"/>
<use data-text="4" xlink:href="#font_2_3" transform="matrix(9.963098,0,0,-9.962799,164.91355,176.46227)"/>
<use data-text="6" xlink:href="#font_2_4" transform="matrix(9.963098,0,0,-9.962799,191.81388,176.46227)"/>
<use data-text="&#x2212;" xlink:href="#font_1_1" transform="matrix(9.963098,0,0,-9.962799,.2163086,169.31713)"/>
<use data-text="6" xlink:href="#font_2_4" transform="matrix(9.963098,0,0,-9.962799,7.9656984,169.31713)"/>
<use data-text="&#x2212;" xlink:href="#font_1_1" transform="matrix(9.963098,0,0,-9.962799,.2163086,142.41858)"/>
<use data-text="4" xlink:href="#font_2_3" transform="matrix(9.963098,0,0,-9.962799,7.9656984,142.41858)"/>
<use data-text="&#x2212;" xlink:href="#font_1_1" transform="matrix(9.963098,0,0,-9.962799,.2163086,115.51904)"/>
<use data-text="2" xlink:href="#font_2_2" transform="matrix(9.963098,0,0,-9.962799,7.9656984,115.51904)"/>
<use data-text="0" xlink:href="#font_2_1" transform="matrix(9.963098,0,0,-9.962799,7.9656984,89.035518)"/>
<use data-text="2" xlink:href="#font_2_2" transform="matrix(9.963098,0,0,-9.962799,7.9656984,62.13697)"/>
<use data-text="4" xlink:href="#font_2_3" transform="matrix(9.963098,0,0,-9.962799,7.9656984,35.237443)"/>
<use data-text="6" xlink:href="#font_2_4" transform="matrix(9.963098,0,0,-9.962799,7.9656984,8.338898)"/>
<g clip-path="url(#clip_3)">
<path transform="matrix(1.00005,0,0,-1.00002,32.905946,166.52207)" stroke-width=".79701" stroke-linecap="butt" stroke-miterlimit="10" stroke-linejoin="miter" fill="none" stroke="#0000ff" d="M121.04271 80.69513 120.98729 82.40103 120.82562 84.09964 120.55583 85.78484 120.17926 87.44957 119.6994 89.08769 119.11488 90.69138 118.43033 92.2547 117.64893 93.77257 116.77177 95.23639 115.80397 96.6421 114.74901 97.98486 113.61095 99.25583 112.39433 100.45305 111.1051 101.57123 109.74619 102.60466 108.32568 103.55042 106.84734 104.40363 105.3179 105.16081 103.74408 105.82118 102.13098 106.37904 100.4856 106.83417 98.81548 107.18466 97.12573 107.42645 95.42441 107.56203 93.71825 107.58948 92.01369 107.5077 90.31749 107.3186 88.6366 107.02219 86.97806 106.6195 85.34775 106.11383 83.75374 105.5043 82.20091 104.79472 80.69647 103.98993 79.24638 103.08939 77.85574 102.0995 76.53072 101.02357 75.27779 99.86507 74.09966 98.6299 73.00218 97.32263 71.99054 95.94812 71.06738 94.51282 70.23756 93.02104 69.50406 91.4803 68.86926 89.89598 68.3372 88.27374 67.90845 86.62192 67.58485 84.94614 67.36967 83.25316 67.2602 81.54968V79.8438L67.36967 78.1406 67.58458 76.44707 67.9079 74.7713 68.3364 73.1192 68.8679 71.49722 69.50298 69.9129 70.2365 68.37163 71.06578 66.87985 71.98894 65.44455 73.00058 64.07004 74.09776 62.76224 75.27565 61.52734 76.52884 60.36856 77.85358 59.29262 79.24423 58.3025 80.69351 57.40166 82.19902 56.59633 83.75133 55.88756 85.34505 55.27722 86.97508 54.77153 88.63391 54.3686 90.31451 54.07219 92.01074 53.88283 93.7153 53.80078 95.42172 53.82875 97.12277 53.96379 98.81226 54.20506 100.48318 54.55554 102.12802 55.0104 103.74112 55.56827 105.31548 56.22783 106.84439 56.985 108.32326 57.83823 109.74376 58.78398 111.10268 59.81715 112.39217 60.93558 113.6088 62.13202 114.74713 63.4035 115.80235 64.74547 116.77016 66.15117 117.64758 67.61525 118.42899 69.13258 119.11409 70.69618 119.69804 72.30014 120.17871 73.93771 120.55557 75.60246 120.82509 77.28764 120.98674 78.98654 121.04216 80.69244"/>
</g>
</svg>
