<svg xmlns="http://www.w3.org/2000/svg" xmlns:xlink="http://www.w3.org/1999/xlink" xmlns:inkscape="http://www.inkscape.org/namespaces/inkscape" version="1.1" width="212" height="178" viewBox="0 0 212 178">
<defs>
<path id="font_1_1" d="M.6589966 .23046875C.6759949 .23046875 .69400027 .23046875 .69400027 .25045777 .69400027 .27046205 .6759949 .27046205 .6589966 .27046205H.117996219C.100997928 .27046205 .08299255 .27046205 .08299255 .25045777 .08299255 .23046875 .100997928 .23046875 .117996219 .23046875H.6589966Z"/>
<path id="font_2_4" d="M.13198853 .327713V.35173036C.13198853 .6047821 .2559967 .64100649 .30699159 .64100649 .33099366 .64100649 .37298585 .634964 .394989 .6007538 .37998963 .6007538 .33999635 .6007538 .33999635 .5557556 .33999635 .524765 .3639984 .5097656 .38598634 .5097656 .4019928 .5097656 .43199159 .51875308 .43199159 .5577545 .43199159 .6178589 .3880005 .6660156 .30499269 .6660156 .1769867 .6660156 .041992189 .5367584 .041992189 .31570436 .041992189 .048553468 .1579895-.022460938 .25099183-.022460938 .3619995-.022460938 .45700074 .07156372 .45700074 .2036438 .45700074 .33070375 .36799623 .4267578 .25698854 .4267578 .18899536 .4267578 .1519928 .37573243 .13198853 .327713M.25099183 .0055389406C.18798828 .0055389406 .1579895 .06556702 .1519928 .080566409 .13398743 .127594 .13398743 .2076416 .13398743 .22564698 .13398743 .30369569 .1659851 .40374757 .2559967 .40374757 .27198792 .40374757 .31799317 .40374757 .34899903 .34172059 .36698915 .30470277 .36698915 .2536621 .36698915 .20463562 .36698915 .15661621 .36698915 .10658264 .34999085 .0705719 .31999208 .010528564 .27398683 .0055389406 .25099183 .0055389406Z"/>
<path id="font_2_3" d="M.2939911 .16503906V.07800293C.2939911 .041992189 .2919922 .0309906 .21798706 .0309906H.19699097V0C.23799134 .0029907227 .2899933 .0029907227 .33198548 .0029907227 .37399293 .0029907227 .4269867 .0029907227 .46798707 0V.0309906H.44699098C.37298585 .0309906 .37098695 .041992189 .37098695 .07800293V.16503906H.47099305V.19602967H.37098695V.65075686C.37098695 .67074587 .37098695 .6767578 .35499574 .6767578 .34599305 .6767578 .34298707 .6767578 .33499146 .66474917L.027999878 .19602967V.16503906H.2939911M.2999878 .19602967H.055999757L.2999878 .5688019V.19602967Z"/>
<path id="font_2_2" d="M.1269989 .07699585 .23298645 .18003845C.3889923 .31811524 .44898988 .3721466 .44898988 .47216798 .44898988 .5860901 .35899354 .6660156 .23699951 .6660156 .12399292 .6660156 .049987794 .57411196 .049987794 .48516847 .049987794 .4291687 .099990848 .4291687 .102996829 .4291687 .11999512 .4291687 .15499878 .44117738 .15499878 .48217774 .15499878 .5081787 .13699341 .5341797 .101989749 .5341797 .09399414 .5341797 .09199524 .5341797 .08898926 .5331726 .11199951 .59806826 .1659851 .63500979 .22399903 .63500979 .31498719 .63500979 .35798646 .5541382 .35798646 .47216798 .35798646 .39215089 .30799867 .31311036 .25299073 .25108338L.06098938 .036987306C.049987794 .025985718 .049987794 .023986817 .049987794 0H.42099L.44898988 .17404175H.42399598C.4189911 .14402771 .4119873 .1000061 .4019928 .084991458 .394989 .07699585 .32899476 .07699585 .30699159 .07699585H.1269989Z"/>
<path id="font_2_1" d="M.45999146 .31976319C.45999146 .39982606 .45498658 .47988893 .41999818 .5539398 .37399293 .65000918 .2919922 .6660156 .25 .6660156 .18998719 .6660156 .116989139 .64001467 .07598877 .54693606 .04399109 .47789 .038986207 .39982606 .038986207 .31976319 .038986207 .24472046 .042999269 .15464783 .083999637 .07859802 .1269989-.0024719239 .19999695-.022460938 .24899292-.022460938 .30299378-.022460938 .3789978-.0014648438 .4229889 .09359741 .45498658 .16265869 .45999146 .2407074 .45999146 .31976319M.24899292-.00047302247C.20999146-.00047302247 .15098572 .024551392 .1329956 .12062073 .12199402 .18066406 .12199402 .2727356 .12199402 .3317871 .12199402 .39582826 .12199402 .46188355 .12998963 .5159149 .14898682 .63500979 .22399903 .64401248 .24899292 .64401248 .28199769 .64401248 .34799195 .6259918 .36698915 .52693179 .3769989 .47088624 .3769989 .39482118 .3769989 .3317871 .3769989 .25672914 .3769989 .18867493 .3659973 .12461853 .35099793 .029556275 .2939911-.00047302247 .24899292-.00047302247Z"/>
<clipPath id="clip_3">
<path transform="matrix(1.00005,0,0,-1.00002,32.905946,166.52207)" d="M-16.43797 0H177.82825V161.39028H-16.43797Z"/>
</clipPath>
</defs>
<path transform="matrix(1.00005,0,0,-1.00002,32.905946,166.52207)" stroke-width=".3985" stroke-linecap="butt" stroke-miterlimit="10" stroke-linejoin="miter" fill="none" stroke="#bfbfbf" d="M0 0V161.39028M26.89838 0V161.39028M53.79675 0V161.39028M80.69513 0V161.39028M107.59352 0V161.39028M134.4919 0V161.39028M161.39028 0V161.39028"/>
<path transform="matrix(1.00005,0,0,-1.00002,32.905946,166.52207)" stroke-width=".3985" stroke-linecap="butt" stroke-miterlimit="10" stroke-linejoin="miter" fill="none" stroke="#bfbfbf" d="M-16.43797 0H177.82825M-16.43797 26.89838H177.82825M-16.43797 53.79675H177.82825M-16.43797 80.69513H177.82825M-16.43797 107.59352H177.82825M-16.43797 134.4919H177.82825M-16.43797 161.39028H177.82825"/>
<path transform="matrix(1.00005,0,0,-1.00002,32.905946,166.52207)" stroke-width=".19925" stroke-linecap="butt" stroke-miterlimit="10" stroke-linejoin="miter" fill="none" stroke="#7f807f" d="M0 0V4.2517M26.89838 0V4.2517M53.79675 0V4.2517M80.69513 0V4.2517M107.59352 0V4.2517M134.4919 0V4.2517M161.39028 0V4.2517M0 161.39028V157.13855M26.89838 161.39028V157.13855M53.79675 161.39028V157.13855M80.69513 161.39028V157.13855M107.59352 161.39028V157.13855M134.4919 161.39028V157.13855M161.39028 161.39028V157.13855"/>
<path transform="matrix(1.00005,0,0,-1.00002,32.905946,166.52207)" stroke-width=".19925" stroke-linecap="butt" stroke-miterlimit="10" stroke-linejoin="miter" fill="none" stroke="#7f807f" d="M-16.43797 0H-12.18626M-16.43797 26.89838H-12.18626M-16.43797 53.79675H-12.18626M-16.43797 80.69513H-12.18626M-16.43797 107.59352H-12.18626M-16.43797 134.4919H-12.18626M-16.43797 161.39028H-12.18626M177.82825 0H173.57656M177.82825 26.89838H173.57656M177.82825 53.79675H173.57656M177.82825 80.69513H173.57656M177.82825 107.59352H173.57656M177.82825 134.4919H173.57656M177.82825 161.39028H173.57656"/>
<path transform="matrix(1.00005,0,0,-1.00002,32.905946,166.52207)" stroke-width=".3985" stroke-linecap="butt" stroke-miterlimit="10" stroke-linejoin="miter" fill="none" stroke="#000000" d="M-16.43797 0V161.39028H177.82825V0H-16.43797Z"/>
<use data-text="&#x2212;" xlink:href="#font_1_1" transform="matrix(9.963098,0,0,-9.962799,26.540627,176.46227)"/>
<use data-text="6" xlink:href="#font_2_4" transform="matrix(9.963098,0,0,-9.962799,34.290018,176.46227)"/>
<use data-text="&#x2212;" xlink:href="#font_1_1" transform="matrix(9.963098,0,0,-9.962799,53.439973,176.46227)"/>
<use data-text="4" xlink:href="#font_2_3" transform="matrix(9.963098,0,0,-9.962799,61.18936,176.46227)"/>
<use data-text="&#x2212;" xlink:href="#font_1_1" transform="matrix(9.963098,0,0,-9.962799,80.34032,176.46227)"/>
<use data-text="2" xlink:href="#font_2_2" transform="matrix(9.963098,0,0,-9.962799,88.08971,176.46227)"/>
<use data-text="0" xlink:href="#font_2_1" transform="matrix(9.963098,0,0,-9.962799,111.11385,176.46227)"/>
<use data-text="2" xlink:href="#font_2_2" transform="matrix(9.963098,0,0,-9.962799,138.01419,176.46227)"/>
<use data-text="4" xlink:href="#font_2_3" transform="matrix(9.963098,0,0,-9.962799,164.91355,176.46227)"/>
<use data-text="6" xlink:href="#font_2_4" transform="matrix(9.963098,0,0,-9.962799,191.81388,176.46227)"/>
<use data-text="&#x2212;" xlink:href="#font_1_1" transform="matrix(9.963098,0,0,-9.962799,.2163086,169.31713)"/>
<use data-text="6" xlink:href="#font_2_4" transform="matrix(9.963098,0,0,-9.962799,7.9656984,169.31713)"/>
<use data-text="&#x2212;" xlink:href="#font_1_1" transform="matrix(9.963098,0,0,-9.962799,.2163086,142.41858)"/>
<use data-text="4" xlink:href="#font_2_3" transform="matrix(9.963098,0,0,-9.962799,7.9656984,142.41858)"/>
<use data-text="&#x2212;" xlink:href="#font_1_1" transform="matrix(9.963098,0,0,-9.962799,.2163086,115.51904)"/>
<use data-text="2" xlink:href="#font_2_2" transform="matrix(9.963098,0,0,-9.962799,7.9656984,115.51904)"/>
<use data-text="0" xlink:href="#font_2_1" transform="matrix(9.963098,0,0,-9.962799,7.9656984,89.035518)"/>
<use data-text="2" xlink:href="#font_2_2" transform="matrix(9.963098,0,0,-9.962799,7.9656984,62.13697)"/>
<use data-text="4" xlink:href="#font_2_3" transform="matrix(9.963098,0,0,-9.962799,7.9656984,35.237443)"/>
<use data-text="6" xlink:href="#font_2_4" transform="matrix(9.963098,0,0,-9.962799,7.9656984,8.338898)"/>
<g clip-path="url(#clip_3)">
<path transform="matrix(1.00005,0,0,-1.00002,32.905946,166.52207)" stroke-width=".79701" stroke-linecap="butt" stroke-miterlimit="10" stroke-linejoin="miter" fill="none" stroke="#0000ff" d="M121.04271 80.69513 120.95958 83.25398 120.71709 85.80193 120.31241 88.3297 119.74754 90.8268 119.02774 93.28397 118.15099 95.6895 117.12413 98.0345 115.95204 100.31131 114.6363 102.50702 113.1846 104.61559 111.60217 106.62975 109.89507 108.53616 108.07014 110.33203 106.13628 112.00928 104.09793 113.55943 101.96718 114.97806 99.74968 116.25789 97.45549 117.39366 95.09477 118.3842 92.67513 119.22101 90.20706 119.90369 87.70187 120.42941 85.16725 120.79213 82.61526 120.99548 80.05603 121.03664 77.49919 120.91399 74.95488 120.63036 72.43356 120.18573 69.94572 119.58171 67.50026 118.82317 65.10925 117.9089 62.78 116.84453 60.52336 115.63734 58.34822 114.2865 56.26225 112.8017 54.27473 111.18779 52.39534 109.45004 50.62811 107.59727 48.98193 105.63638 47.46446 103.57462 46.07974 101.42168 44.835 99.18399 43.73473 96.87288 42.78255 94.49641 41.98447 92.06305 41.34132 89.58531 40.85593 87.07166 40.53316 84.53218 40.36894 81.97696V79.41812L40.53316 76.86333 40.85553 74.32304 41.34052 71.80939 41.98325 69.33122 42.78052 66.89827 43.73312 64.52179 44.83339 62.2099 46.07732 59.97221 47.46204 57.81926 48.97952 55.7575 50.6253 53.79579 52.39212 51.94345 54.27191 50.20528 56.25902 48.59137 58.34499 47.10619 60.51892 45.75494 62.77718 44.54692 65.10562 43.48378 67.49623 42.56828 69.94128 41.80975 72.42953 41.20535 74.95044 40.76073 77.49475 40.47667 80.05159 40.3536 82.61124 40.39557 85.16281 40.59813 87.69704 40.96004 90.20345 41.48576 92.67068 42.16803 95.09033 43.00484 97.45187 43.99417 99.74524 45.12996 101.96353 46.40977 104.0943 47.8284 106.13266 49.37814 108.06693 51.05579 109.89185 52.85046 111.59933 54.75769 113.18219 56.77063 114.63388 58.87918 115.95003 61.0753 117.12213 63.35132 118.14978 65.69673 119.02573 68.10265 119.74673 70.55902 120.31201 73.05612 120.7163 75.5839 120.95877 78.13225 121.04189 80.69109"/>
</g>
</svg>
