<svg xmlns="http://www.w3.org/2000/svg" xmlns:xlink="http://www.w3.org/1999/xlink" xmlns:inkscape="http://www.inkscape.org/namespaces/inkscape" version="1.1" width="212" height="178" viewBox="0 0 212 178">
<defs>
<path id="font_1_1" d="M.6589966 .23046875C.6759949 .23046875 .69400027 .23046875 .69400027 .25045777 .69400027 .27046205 .6759949 .27046205 .6589966 .27046205H.117996219C.100997928 .27046205 .08299255 .27046205 .08299255 .25045777 .08299255 .23046875 .100997928 .23046875 .117996219 .23046875H.6589966Z"/>
<path id="font_2_4" d="M.2899933 .35191346C.37199403 .37893678 .42999269 .4490509 .42999269 .52809146 .42999269 .6100464 .34199525 .6660156 .24598694 .6660156 .14498902 .6660156 .068984989 .60606387 .068984989 .53009036 .068984989 .49710084 .09098816 .47808839 .11999512 .47808839 .15098572 .47808839 .17098999 .50009158 .17098999 .5290985 .17098999 .57910159 .12399292 .57910159 .10899353 .57910159 .13999939 .62802127 .20599365 .64100649 .24198914 .64100649 .2829895 .64100649 .33799745 .6190338 .33799745 .5290985 .33799745 .51708987 .33599855 .45906068 .30999757 .4149933 .27999879 .36691285 .24598694 .36390687 .22099304 .36291505 .21299744 .36190797 .18899536 .35990907 .18199158 .35990907 .17399597 .35890199 .16699219 .35791017 .16699219 .3479004 .16699219 .33691407 .17399597 .33691407 .19099427 .33691407H.23498535C.31698609 .33691407 .35398866 .2686615 .35398866 .17037964 .35398866 .034469606 .2849884 .0055389406 .24099732 .0055389406 .19799805 .0055389406 .12298584 .022491456 .08799744 .08137512 .12298584 .07637024 .1539917 .09837341 .1539917 .1363678 .1539917 .17237854 .1269989 .19238281 .09799194 .19238281 .07398987 .19238281 .041992189 .17837525 .041992189 .1343689 .041992189 .043441774 .1349945-.022460938 .24398804-.022460938 .3659973-.022460938 .45700074 .06838989 .45700074 .17037964 .45700074 .252594 .3939972 .33088685 .2899933 .35191346Z"/>
<path id="font_2_3" d="M.1269989 .07699585 .23298645 .18003845C.3889923 .31811524 .44898988 .3721466 .44898988 .47216798 .44898988 .5860901 .35899354 .6660156 .23699951 .6660156 .12399292 .6660156 .049987794 .57411196 .049987794 .48516847 .049987794 .4291687 .099990848 .4291687 .102996829 .4291687 .11999512 .4291687 .15499878 .44117738 .15499878 .48217774 .15499878 .5081787 .13699341 .5341797 .101989749 .5341797 .09399414 .5341797 .09199524 .5341797 .08898926 .5331726 .11199951 .59806826 .1659851 .63500979 .22399903 .63500979 .31498719 .63500979 .35798646 .5541382 .35798646 .47216798 .35798646 .39215089 .30799867 .31311036 .25299073 .25108338L.06098938 .036987306C.049987794 .025985718 .049987794 .023986817 .049987794 0H.42099L.44898988 .17404175H.42399598C.4189911 .14402771 .4119873 .1000061 .4019928 .084991458 .394989 .07699585 .32899476 .07699585 .30699159 .07699585H.1269989Z"/>
<path id="font_2_2" d="M.2939911 .64004519C.2939911 .66400149 .2939911 .6660156 .2709961 .6660156 .20899964 .60227969 .12098694 .60227969 .08898926 .60227969V.57128909C.10899353 .57128909 .16799927 .57128909 .21998596 .5972748V.07902527C.21998596 .042999269 .21699524 .0309906 .1269989 .0309906H.09498596V0C.12998963 .0029907227 .21699524 .0029907227 .25698854 .0029907227 .29699708 .0029907227 .38398744 .0029907227 .4189911 0V.0309906H.3869934C.29699708 .0309906 .2939911 .041992189 .2939911 .07902527V.64004519Z"/>
<path id="font_2_1" d="M.45999146 .31976319C.45999146 .39982606 .45498658 .47988893 .41999818 .5539398 .37399293 .65000918 .2919922 .6660156 .25 .6660156 .18998719 .6660156 .116989139 .64001467 .07598877 .54693606 .04399109 .47789 .038986207 .39982606 .038986207 .31976319 .038986207 .24472046 .042999269 .15464783 .083999637 .07859802 .1269989-.0024719239 .19999695-.022460938 .24899292-.022460938 .30299378-.022460938 .3789978-.0014648438 .4229889 .09359741 .45498658 .16265869 .45999146 .2407074 .45999146 .31976319M.24899292-.00047302247C.20999146-.00047302247 .15098572 .024551392 .1329956 .12062073 .12199402 .18066406 .12199402 .2727356 .12199402 .3317871 .12199402 .39582826 .12199402 .46188355 .12998963 .5159149 .14898682 .63500979 .22399903 .64401248 .24899292 .64401248 .28199769 .64401248 .34799195 .6259918 .36698915 .52693179 .3769989 .47088624 .3769989 .39482118 .3769989 .3317871 .3769989 .25672914 .3769989 .18867493 .3659973 .12461853 .35099793 .029556275 .2939911-.00047302247 .24899292-.00047302247Z"/>
<clipPath id="clip_3">
<path transform="matrix(1.00005,0,0,-1.00003,-666.482,166.52463)" d="M682.92379 0H877.1911V161.39119H682.92379Z"/>
</clipPath>
</defs>
<path transform="matrix(1.00005,0,0,-1.00003,-666.482,166.52463)" stroke-width=".3985" stroke-linecap="butt" stroke-miterlimit="10" stroke-linejoin="miter" fill="none" stroke="#bfbfbf" d="M699.3619 0V161.39119M726.2604 0V161.39119M753.1589 0V161.39119M780.05746 0V161.39119M806.95596 0V161.39119M833.8545 0V161.39119M860.75308 0V161.39119"/>
<path transform="matrix(1.00005,0,0,-1.00003,-666.482,166.52463)" stroke-width=".3985" stroke-linecap="butt" stroke-miterlimit="10" stroke-linejoin="miter" fill="none" stroke="#bfbfbf" d="M682.92379 0H877.1911M682.92379 26.89853H877.1911M682.92379 53.79706H877.1911M682.92379 80.69559H877.1911M682.92379 107.59412H877.1911M682.92379 134.49266H877.1911M682.92379 161.39119H877.1911"/>
<path transform="matrix(1.00005,0,0,-1.00003,-666.482,166.52463)" stroke-width=".19925" stroke-linecap="butt" stroke-miterlimit="10" stroke-linejoin="miter" fill="none" stroke="#7f807f" d="M699.3619 0V4.25172M726.2604 0V4.25172M753.1589 0V4.25172M780.05746 0V4.25172M806.95596 0V4.25172M833.8545 0V4.25172M860.75308 0V4.25172M699.3619 161.39119V157.13944M726.2604 161.39119V157.13944M753.1589 161.39119V157.13944M780.05746 161.39119V157.13944M806.95596 161.39119V157.13944M833.8545 161.39119V157.13944M860.75308 161.39119V157.13944"/>
<path transform="matrix(1.00005,0,0,-1.00003,-666.482,166.52463)" stroke-width=".19925" stroke-linecap="butt" stroke-miterlimit="10" stroke-linejoin="miter" fill="none" stroke="#7f807f" d="M682.92379 0H687.1755M682.92379 26.89853H687.1755M682.92379 53.79706H687.1755M682.92379 80.69559H687.1755M682.92379 107.59412H687.1755M682.92379 134.49266H687.1755M682.92379 161.39119H687.1755M877.1911 0H872.93936M877.1911 26.89853H872.93936M877.1911 53.79706H872.93936M877.1911 80.69559H872.93936M877.1911 107.59412H872.93936M877.1911 134.49266H872.93936M877.1911 161.39119H872.93936"/>
<path transform="matrix(1.00005,0,0,-1.00003,-666.482,166.52463)" stroke-width=".3985" stroke-linecap="butt" stroke-miterlimit="10" stroke-linejoin="miter" fill="none" stroke="#000000" d="M682.92379 0V161.39119H877.1911V0H682.92379Z"/>
<use data-text="&#x2212;" xlink:href="#font_1_1" transform="matrix(9.963098,0,0,-9.962899,26.549622,176.46494)"/>
<use data-text="3" xlink:href="#font_2_4" transform="matrix(9.963098,0,0,-9.962899,34.29901,176.46494)"/>
<use data-text="&#x2212;" xlink:href="#font_1_1" transform="matrix(9.963098,0,0,-9.962899,53.448976,176.46494)"/>
<use data-text="2" xlink:href="#font_2_3" transform="matrix(9.963098,0,0,-9.962899,61.198366,176.46494)"/>
<use data-text="&#x2212;" xlink:href="#font_1_1" transform="matrix(9.963098,0,0,-9.962899,80.349308,176.46494)"/>
<use data-text="1" xlink:href="#font_2_2" transform="matrix(9.963098,0,0,-9.962899,88.098697,176.46494)"/>
<use data-text="0" xlink:href="#font_2_1" transform="matrix(9.963098,0,0,-9.962899,111.12384,176.46494)"/>
<use data-text="1" xlink:href="#font_2_2" transform="matrix(9.963098,0,0,-9.962899,138.0232,176.46494)"/>
<use data-text="2" xlink:href="#font_2_3" transform="matrix(9.963098,0,0,-9.962899,164.92353,176.46494)"/>
<use data-text="3" xlink:href="#font_2_4" transform="matrix(9.963098,0,0,-9.962899,191.82288,176.46494)"/>
<use data-text="&#x2212;" xlink:href="#font_1_1" transform="matrix(9.963098,0,0,-9.962899,.2253418,169.31972)"/>
<use data-text="3" xlink:href="#font_2_4" transform="matrix(9.963098,0,0,-9.962899,7.9747316,169.31972)"/>
<use data-text="&#x2212;" xlink:href="#font_1_1" transform="matrix(9.963098,0,0,-9.962899,.2253418,142.4209)"/>
<use data-text="2" xlink:href="#font_2_3" transform="matrix(9.963098,0,0,-9.962899,7.9747316,142.4209)"/>
<use data-text="&#x2212;" xlink:href="#font_1_1" transform="matrix(9.963098,0,0,-9.962899,.2253418,115.521099)"/>
<use data-text="1" xlink:href="#font_2_2" transform="matrix(9.963098,0,0,-9.962899,7.9747316,115.521099)"/>
<use data-text="0" xlink:href="#font_2_1" transform="matrix(9.963098,0,0,-9.962899,7.9746706,89.0373)"/>
<use data-text="1" xlink:href="#font_2_2" transform="matrix(9.963098,0,0,-9.962899,7.9746706,62.13749)"/>
<use data-text="2" xlink:href="#font_2_3" transform="matrix(9.963098,0,0,-9.962899,7.9746706,35.238695)"/>
<use data-text="3" xlink:href="#font_2_4" transform="matrix(9.963098,0,0,-9.962899,7.9746706,8.338882)"/>
<g clip-path="url(#clip_3)">
<path transform="matrix(1.00005,0,0,-1.00003,-666.482,166.52463)" stroke-width=".79701" stroke-linecap="butt" stroke-miterlimit="10" stroke-linejoin="miter" fill="none" stroke="#0000ff" d="M0 618.66629 16.30127 607.7987 32.60268 596.9311 48.90408 586.0635 65.20549 575.19589 81.5069 564.3283 97.8083 553.4607 114.10971 542.5931 130.41112 531.72549 146.71253 520.85787 163.01393 509.99028 179.31522 499.12275 195.61663 488.25514 211.91803 477.38755 228.21944 466.51994 244.52085 455.65235 260.82225 444.7847 277.12367 433.9171 293.42506 423.0495 309.72648 412.1819 326.0279 401.3143 342.32917 390.44679 358.63059 379.5792 374.93199 368.71159 391.23338 357.84397 407.5348 346.97636 423.8362 336.10877 440.13764 325.24116 456.439 314.37355 472.74043 303.50596 489.0418 292.63835 505.3431 281.7708 521.64456 270.9032 537.9459 260.0356 554.2473 249.168 570.54879 238.3004 586.85018 227.4328 603.15158 216.56519 619.45297 205.69759 635.7544 194.82997 652.0558 183.96237 668.35708 173.09487 684.6585 162.22725 700.9599 151.35965 717.2613 140.49204 733.5626 129.62444 749.8641 118.75684 766.16549 107.88927 782.467 97.02158 798.7684 86.154 815.0697 75.2864 831.37118 64.41881 847.67257 53.5512 863.97396 42.6836 880.2753 31.81598 896.5767 20.94838 912.87808 10.08087 929.17947-.78671 945.4809-11.65431 961.7823-22.52193 978.0837-33.38953 994.3851-44.25713 1010.68649-55.12474 1026.9879-65.99234 1043.2893-76.85995 1059.5906-87.72746 1075.892-98.59506 1092.1934-109.46268 1108.4948-120.33028 1124.7963-131.19789 1141.0977-142.06549 1157.399-152.93309 1173.7005-163.8007 1190.0018-174.6683 1206.3032-185.53592 1222.6046-196.40352 1238.9059-207.27104 1255.2074-218.13864 1271.5088-229.00624 1287.8102-239.87386 1304.1116-250.74146 1320.413-261.60905 1336.7144-272.47669 1353.0158-283.34428 1369.3173-294.21189 1385.6185-305.0794 1401.9199-315.947 1418.2213-326.8146 1434.5227-337.68223 1450.8241-348.54985 1467.1255-359.41743 1483.4269-370.28504 1499.7283-381.15263 1516.0298-392.02024 1532.3312-402.88783 1548.6325-413.75538 1564.9338-424.62297 1581.2352-435.4906 1597.5366-446.3582 1613.838-457.22578"/>
</g>
</svg>
