<svg xmlns="http://www.w3.org/2000/svg" xmlns:xlink="http://www.w3.org/1999/xlink" xmlns:inkscape="http://www.inkscape.org/namespaces/inkscape" version="1.1" width="212" height="178" viewBox="0 0 212 178">
<defs>
<path id="font_1_1" d="M.6589966 .23046875C.6759949 .23046875 .69400027 .23046875 .69400027 .25045777 .69400027 .27046205 .6759949 .27046205 .6589966 .27046205H.117996219C.100997928 .27046205 .08299255 .27046205 .08299255 .25045777 .08299255 .23046875 .100997928 .23046875 .117996219 .23046875H.6589966Z"/>
<path id="font_2_4" d="M.13198853 .327713V.35173036C.13198853 .6047821 .2559967 .64100649 .30699159 .64100649 .33099366 .64100649 .37298585 .634964 .394989 .6007538 .37998963 .6007538 .33999635 .6007538 .33999635 .5557556 .33999635 .524765 .3639984 .5097656 .38598634 .5097656 .4019928 .5097656 .43199159 .51875308 .43199159 .5577545 .43199159 .6178589 .3880005 .6660156 .30499269 .6660156 .1769867 .6660156 .041992189 .5367584 .041992189 .31570436 .041992189 .048553468 .1579895-.022460938 .25099183-.022460938 .3619995-.022460938 .45700074 .07156372 .45700074 .2036438 .45700074 .33070375 .36799623 .4267578 .25698854 .4267578 .18899536 .4267578 .1519928 .37573243 .13198853 .327713M.25099183 .0055389406C.18798828 .0055389406 .1579895 .06556702 .1519928 .080566409 .13398743 .127594 .13398743 .2076416 .13398743 .22564698 .13398743 .30369569 .1659851 .40374757 .2559967 .40374757 .27198792 .40374757 .31799317 .40374757 .34899903 .34172059 .36698915 .30470277 .36698915 .2536621 .36698915 .20463562 .36698915 .15661621 .36698915 .10658264 .34999085 .0705719 .31999208 .010528564 .27398683 .0055389406 .25099183 .0055389406Z"/>
<path id="font_2_3" d="M.2939911 .16503906V.07800293C.2939911 .041992189 .2919922 .0309906 .21798706 .0309906H.19699097V0C.23799134 .0029907227 .2899933 .0029907227 .33198548 .0029907227 .37399293 .0029907227 .4269867 .0029907227 .46798707 0V.0309906H.44699098C.37298585 .0309906 .37098695 .041992189 .37098695 .07800293V.16503906H.47099305V.19602967H.37098695V.65075686C.37098695 .67074587 .37098695 .6767578 .35499574 .6767578 .34599305 .6767578 .34298707 .6767578 .33499146 .66474917L.027999878 .19602967V.16503906H.2939911M.2999878 .19602967H.055999757L.2999878 .5688019V.19602967Z"/>
<path id="font_2_2" d="M.1269989 .07699585 .23298645 .18003845C.3889923 .31811524 .44898988 .3721466 .44898988 .47216798 .44898988 .5860901 .35899354 .6660156 .23699951 .6660156 .12399292 .6660156 .049987794 .57411196 .049987794 .48516847 .049987794 .4291687 .099990848 .4291687 .102996829 .4291687 .11999512 .4291687 .15499878 .44117738 .15499878 .48217774 .15499878 .5081787 .13699341 .5341797 .101989749 .5341797 .09399414 .5341797 .09199524 .5341797 .08898926 .5331726 .11199951 .59806826 .1659851 .63500979 .22399903 .63500979 .31498719 .63500979 .35798646 .5541382 .35798646 .47216798 .35798646 .39215089 .30799867 .31311036 .25299073 .25108338L.06098938 .036987306C.049987794 .025985718 .049987794 .023986817 .049987794 0H.42099L.44898988 .17404175H.42399598C.4189911 .14402771 .4119873 .1000061 .4019928 .084991458 .394989 .07699585 .32899476 .07699585 .30699159 .07699585H.1269989Z"/>
<path id="font_2_1" d="M.45999146 .31976319C.45999146 .39982606 .45498658 .47988893 .41999818 .5539398 .37399293 .65000918 .2919922 .6660156 .25 .6660156 .18998719 .6660156 .116989139 .64001467 .07598877 .54693606 .04399109 .47789 .038986207 .39982606 .038986207 .31976319 .038986207 .24472046 .042999269 .15464783 .083999637 .07859802 .1269989-.0024719239 .19999695-.022460938 .24899292-.022460938 .30299378-.022460938 .3789978-.0014648438 .4229889 .09359741 .45498658 .16265869 .45999146 .2407074 .45999146 .31976319M.24899292-.00047302247C.20999146-.00047302247 .15098572 .024551392 .1329956 .12062073 .12199402 .18066406 .12199402 .2727356 .12199402 .3317871 .12199402 .39582826 .12199402 .46188355 .12998963 .5159149 .14898682 .63500979 .22399903 .64401248 .24899292 .64401248 .28199769 .64401248 .34799195 .6259918 .36698915 .52693179 .3769989 .47088624 .3769989 .39482118 .3769989 .3317871 .3769989 .25672914 .3769989 .18867493 .3659973 .12461853 .35099793 .029556275 .2939911-.00047302247 .24899292-.00047302247Z"/>
<clipPath id="clip_3">
<path transform="matrix(1.00005,0,0,-1.00002,32.905946,166.52207)" d="M-16.43797 0H177.82825V161.39028H-16.43797Z"/>
</clipPath>
</defs>
<path transform="matrix(1.00005,0,0,-1.00002,32.905946,166.52207)" stroke-width=".3985" stroke-linecap="butt" stroke-miterlimit="10" stroke-linejoin="miter" fill="none" stroke="#bfbfbf" d="M0 0V161.39028M26.89838 0V161.39028M53.79675 0V161.39028M80.69513 0V161.39028M107.59352 0V161.39028M134.4919 0V161.39028M161.39028 0V161.39028"/>
<path transform="matrix(1.00005,0,0,-1.00002,32.905946,166.52207)" stroke-width=".3985" stroke-linecap="butt" stroke-miterlimit="10" stroke-linejoin="miter" fill="none" stroke="#bfbfbf" d="M-16.43797 0H177.82825M-16.43797 26.89838H177.82825M-16.43797 53.79675H177.82825M-16.43797 80.69513H177.82825M-16.43797 107.59352H177.82825M-16.43797 134.4919H177.82825M-16.43797 161.39028H177.82825"/>
<path transform="matrix(1.00005,0,0,-1.00002,32.905946,166.52207)" stroke-width=".19925" stroke-linecap="butt" stroke-miterlimit="10" stroke-linejoin="miter" fill="none" stroke="#7f807f" d="M0 0V4.2517M26.89838 0V4.2517M53.79675 0V4.2517M80.69513 0V4.2517M107.59352 0V4.2517M134.4919 0V4.2517M161.39028 0V4.2517M0 161.39028V157.13855M26.89838 161.39028V157.13855M53.79675 161.39028V157.13855M80.69513 161.39028V157.13855M107.59352 161.39028V157.13855M134.4919 161.39028V157.13855M161.39028 161.39028V157.13855"/>
<path transform="matrix(1.00005,0,0,-1.00002,32.905946,166.52207)" stroke-width=".19925" stroke-linecap="butt" stroke-miterlimit="10" stroke-linejoin="miter" fill="none" stroke="#7f807f" d="M-16.43797 0H-12.18626M-16.43797 26.89838H-12.18626M-16.43797 53.79675H-12.18626M-16.43797 80.69513H-12.18626M-16.43797 107.59352H-12.18626M-16.43797 134.4919H-12.18626M-16.43797 161.39028H-12.18626M177.82825 0H173.57656M177.82825 26.89838H173.57656M177.82825 53.79675H173.57656M177.82825 80.69513H173.57656M177.82825 107.59352H173.57656M177.82825 134.4919H173.57656M177.82825 161.39028H173.57656"/>
<path transform="matrix(1.00005,0,0,-1.00002,32.905946,166.52207)" stroke-width=".3985" stroke-linecap="butt" stroke-miterlimit="10" stroke-linejoin="miter" fill="none" stroke="#000000" d="M-16.43797 0V161.39028H177.82825V0H-16.43797Z"/>
<use data-text="&#x2212;" xlink:href="#font_1_1" transform="matrix(9.963098,0,0,-9.962799,26.540627,176.46227)"/>
<use data-text="6" xlink:href="#font_2_4" transform="matrix(9.963098,0,0,-9.962799,34.290018,176.46227)"/>
<use data-text="&#x2212;" xlink:href="#font_1_1" transform="matrix(9.963098,0,0,-9.962799,53.439973,176.46227)"/>
<use data-text="4" xlink:href="#font_2_3" transform="matrix(9.963098,0,0,-9.962799,61.18936,176.46227)"/>
<use data-text="&#x2212;" xlink:href="#font_1_1" transform="matrix(9.963098,0,0,-9.962799,80.34032,176.46227)"/>
<use data-text="2" xlink:href="#font_2_2" transform="matrix(9.963098,0,0,-9.962799,88.08971,176.46227)"/>
<use data-text="0" xlink:href="#font_2_1" transform="matrix(9.963098,0,0,-9.962799,111.11385,176.46227)"/>
<use data-text="2" xlink:href="#font_2_2" transform="matrix(9.963098,0,0,-9.962799,138.01419,176.46227)"/>
<use data-text="4" xlink:href="#font_2_3" transform="matrix(9.963098,0,0,-9.962799,164.91355,176.46227)"/>
<use data-text="6" xlink:href="#font_2_4" transform="matrix(9.963098,0,0,-9.962799,191.81388,176.46227)"/>
<use data-text="&#x2212;" xlink:href="#font_1_1" transform="matrix(9.963098,0,0,-9.962799,.2163086,169.31713)"/>
<use data-text="6" xlink:href="#font_2_4" transform="matrix(9.963098,0,0,-9.962799,7.9656984,169.31713)"/>
<use data-text="&#x2212;" xlink:href="#font_1_1" transform="matrix(9.963098,0,0,-9.962799,.2163086,142.41858)"/>
<use data-text="4" xlink:href="#font_2_3" transform="matrix(9.963098,0,0,-9.962799,7.9656984,142.41858)"/>
<use data-text="&#x2212;" xlink:href="#font_1_1" transform="matrix(9.963098,0,0,-9.962799,.2163086,115.51904)"/>
<use data-text="2" xlink:href="#font_2_2" transform="matrix(9.963098,0,0,-9.962799,7.9656984,115.51904)"/>
<use data-text="0" xlink:href="#font_2_1" transform="matrix(9.963098,0,0,-9.962799,7.9656984,89.035518)"/>
<use data-text="2" xlink:href="#font_2_2" transform="matrix(9.963098,0,0,-9.962799,7.9656984,62.13697)"/>
<use data-text="4" xlink:href="#font_2_3" transform="matrix(9.963098,0,0,-9.962799,7.9656984,35.237443)"/>
<use data-text="6" xlink:href="#font_2_4" transform="matrix(9.963098,0,0,-9.962799,7.9656984,8.338898)"/>
<g clip-path="url(#clip_3)">
<path transform="matrix(1.00005,0,0,-1.00002,32.905946,166.52207)" stroke-width=".79701" stroke-linecap="butt" stroke-miterlimit="10" stroke-linejoin="miter" fill="none" stroke="#0000ff" d="M147.94109 107.59352 147.85796 110.15234 147.61548 112.7003 147.21079 115.22807 146.64592 117.72517 145.92612 120.18234 145.04936 122.58788 144.02252 124.93288 142.85044 127.20969 141.53469 129.40541 140.083 131.51396 138.50055 133.52812 136.79344 135.43454 134.96852 137.23041 133.03467 138.90766 130.9963 140.45783 128.86556 141.87644 126.64806 143.15627 124.35388 144.29206 121.99315 145.28258 119.57352 146.11939 117.10544 146.80207 114.60027 147.32779 112.06563 147.6905 109.51364 147.89388 106.9544 147.93502 104.39757 147.81237 101.85326 147.52873 99.33194 147.0841 96.8441 146.48009 94.39864 145.72156 92.00764 144.80728 89.67838 143.7429 87.42174 142.53572 85.24661 141.18489 83.16063 139.70008 81.17311 138.08618 79.29373 136.34842 77.52649 134.49565 75.88033 132.53476 74.36284 130.47299 72.97812 128.32006 71.73338 126.08237 70.63312 123.77126 69.68092 121.39479 68.88284 118.96143 68.2397 116.48369 67.75432 113.97003 67.43155 111.43056 67.26732 108.87535V106.3165L67.43155 103.7617 67.75392 101.22142 68.23889 98.70776 68.88164 96.22961 69.6789 93.79666 70.6315 91.42018 71.73178 89.10828 72.9757 86.87059 74.36043 84.71764 75.8779 82.65588 77.52368 80.69418 79.2905 78.84183 81.17029 77.10365 83.1574 75.48975 85.24336 74.00456 87.4173 72.65332 89.67555 71.44531 92.00401 70.38216 94.3946 69.46666 96.83966 68.70813 99.32791 68.10373 101.84883 67.6591 104.39313 67.37506 106.94997 67.252 109.50961 67.29395 112.06119 67.4965 114.59543 67.85841 117.10182 68.38414 119.56908 69.0664 121.98871 69.90321 124.35027 70.89255 126.64362 72.02834 128.86193 73.30815 130.99268 74.72678 133.03105 76.27652 134.9653 77.95418 136.79022 79.74884 138.49773 81.65607 140.08057 83.669 141.53227 85.77757 142.8484 87.9737 144.02051 90.2497 145.04816 92.59511 145.9241 95.00104 146.64511 97.4574 147.21039 99.9545 147.61467 102.48227 147.85717 105.03062 147.94026 107.58948"/>
</g>
</svg>
