<svg xmlns="http://www.w3.org/2000/svg" xmlns:xlink="http://www.w3.org/1999/xlink" xmlns:inkscape="http://www.inkscape.org/namespaces/inkscape" version="1.1" width="259" height="174" viewBox="0 0 259 174">
<defs>
<path id="font_1_1" d="M.33099366-.2400055C.33099366-.23701477 .33099366-.23500061 .31399537-.21800232 .18899536-.0920105 .15699768 .09700012 .15699768 .25 .15699768 .42399598 .19499207 .59799197 .31799317 .72299197 .33099366 .73498538 .33099366 .7369995 .33099366 .73999026 .33099366 .746994 .32699586 .75 .32099916 .75 .31098939 .75 .22099304 .6819916 .1619873 .5549927 .11099243 .44499208 .09899902 .33399964 .09899902 .25 .09899902 .17199707 .10998535 .050994874 .16499329-.06201172 .22499085-.18501282 .31098939-.25 .32099916-.25 .32699586-.25 .33099366-.24700928 .33099366-.2400055Z"/>
<path id="font_2_2" d="M.33399964 .30233766C.33999635 .32835389 .36299134 .42037965 .43299867 .42037965 .43798829 .42037965 .46199037 .42037965 .48298646 .40734864 .45498658 .402359 .43499757 .37734986 .43499757 .35334779 .43499757 .33735658 .44599916 .31835938 .47299195 .31835938 .49499513 .31835938 .5269928 .3363495 .5269928 .37635804 .5269928 .42837525 .46798707 .4423828 .43399049 .4423828 .37599183 .4423828 .34098817 .38935853 .32899476 .36634828 .3039856 .43237306 .25 .4423828 .22099304 .4423828 .116989139 .4423828 .05999756 .3133545 .05999756 .28834535 .05999756 .27833558 .069992069 .27833558 .07199097 .27833558 .07998657 .27833558 .08299255 .28033448 .084991458 .28933717 .11898804 .39535523 .18499756 .42037965 .21899414 .42037965 .23799134 .42037965 .272995 .4113617 .272995 .35334779 .272995 .32235719 .2559967 .25532533 .21899414 .11528015 .20298767 .053268434 .16799927 .011245728 .12399292 .011245728 .117996219 .011245728 .09498596 .011245728 .07398987 .024276734 .09899902 .029266358 .12098694 .05027771 .12098694 .07827759 .12098694 .105270389 .09899902 .11328125 .083999637 .11328125 .053985597 .11328125 .0289917 .08728027 .0289917 .055267335 .0289917 .009246826 .07899475-.0107421879 .12298584-.0107421879 .18899536-.0107421879 .22499085 .059280397 .22799683 .0652771 .23999024 .028274537 .27598573-.0107421879 .33599855-.0107421879 .43899537-.0107421879 .49598695 .118270877 .49598695 .14328003 .49598695 .1532898 .4869995 .1532898 .48399354 .1532898 .47499085 .1532898 .47299195 .14929199 .47099305 .14228821 .43798829 .03527832 .36999513 .011245728 .33799745 .011245728 .29899598 .011245728 .2829895 .043273927 .2829895 .07727051 .2829895 .09927368 .2889862 .121276859 .2999878 .16529846L.33399964 .30233766Z"/>
<path id="font_3_1" d="M.32299806 .24900818C.40499879 .28497315 .44198609 .29896546 .46699525 .31095887 .48599244 .3189392 .49499513 .322937 .49499513 .34191896 .49499513 .35891725 .48199464 .37390138 .46398927 .37390138 .45700074 .37390138 .45498658 .37390138 .44299317 .36489869L.30699159 .27398683 .32199098 .42185975C.32398988 .4398346 .32199098 .46484376 .2919922 .46484376 .27999879 .46484376 .26098634 .4568329 .26098634 .43484498 .26098634 .42585755 .2649994 .39587403 .2659912 .38587953 .2679901 .36889649 .2749939 .29696656 .2769928 .27398683L.14199829 .36489869C.13198853 .3708954 .1289978 .37390138 .11999512 .37390138 .101989749 .37390138 .08898926 .35891725 .08898926 .34191896 .08898926 .3219452 .100997928 .3169403 .10998535 .3129425L.26098634 .25C.1789856 .21403504 .14199829 .20004273 .116989139 .18806458 .09799194 .18006897 .08898926 .17607117 .08898926 .15708924 .08898926 .1401062 .101989749 .12510681 .11999512 .12510681 .1269989 .12510681 .1289978 .12510681 .14099121 .1341095L.2769928 .22502136 .26098634 .06416321C.26098634 .042175294 .27999879 .034179689 .2919922 .034179689 .3039856 .034179689 .32299806 .042175294 .32299806 .06416321 .32299806 .073150638 .31900025 .103134158 .31799317 .11312866 .31599427 .1301117 .30899049 .20204163 .30699159 .22502136L.4269867 .14509583C.45298768 .12510681 .45498658 .12510681 .46398927 .12510681 .48199464 .12510681 .49499513 .1401062 .49499513 .15708924 .49499513 .17706299 .48298646 .18206787 .47399903 .18606568L.32299806 .24900818Z"/>
<path id="font_4_2" d="M.5289917 .1640625V.20005799H.41799928V.64582827C.41799928 .66682437 .41799928 .6738281 .3959961 .6738281 .38398744 .6738281 .37998963 .6738281 .36999513 .65982058L.038986207 .20005799V.1640625H.33299256V.08201599C.33299256 .04800415 .33299256 .035995485 .2519989 .035995485H.22499085V0C.2749939 .0019989014 .33898927 .0039978029 .375 .0039978029 .4119873 .0039978029 .47599793 .0019989014 .526001 0V.035995485H.49899293C.41799928 .035995485 .41799928 .04800415 .41799928 .08201599V.1640625H.5289917M.33999635 .5658722V.20005799H.07598877L.33999635 .5658722Z"/>
<path id="font_4_1" d="M.272995 .33428956C.35099793 .33428956 .40699769 .2803192 .40699769 .1733551 .40699769 .04940796 .33499146 .012466431 .2769928 .012466431 .23699951 .012466431 .14898682 .0234375 .10699463 .082351688 .1539917 .084350589 .16499329 .11735535 .16499329 .13835144 .16499329 .17034912 .14099121 .19335938 .10998535 .19335938 .08198547 .19335938 .053985597 .17634583 .053985597 .13534546 .053985597 .041412355 .1579895-.01953125 .2789917-.01953125 .41799928-.01953125 .5139923 .07336426 .5139923 .1733551 .5139923 .2513275 .44999696 .32929994 .33999635 .35229493 .44499208 .39024354 .48298646 .4650879 .48298646 .5260773 .48298646 .60505679 .3919983 .6640625 .2809906 .6640625 .16999817 .6640625 .084991458 .61006167 .084991458 .5300751 .084991458 .49606324 .10699463 .47706605 .13699341 .47706605 .16799927 .47706605 .18798828 .5000763 .18798828 .5280762 .18798828 .5570679 .16799927 .57806399 .13699341 .5800781 .17199707 .62405398 .24099732 .63505557 .27799989 .63505557 .32299806 .63505557 .38598634 .6130676 .38598634 .5260773 .38598634 .48406983 .37199403 .43814088 .34599305 .4072113 .31298829 .36927796 .2849884 .3672943 .23498535 .36428834 .20999146 .3623047 .20799256 .3623047 .20298767 .3612976 .20098877 .3612976 .19299317 .3592987 .19299317 .34829713 .19299317 .33428956 .20199585 .33428956 .21899414 .33428956H.272995Z"/>
<path id="font_2_1" d="M.20298767 .0009918213C.20298767 .066986087 .17799378 .10598755 .13899231 .10598755 .10598755 .10598755 .085998538 .08099365 .085998538 .052993776 .085998538 .025985718 .10598755 0 .13899231 0 .15098572 0 .1639862 .0039978029 .17399597 .0129852299 .1769867 .01499939 .17799378 .015991211 .1789856 .015991211 .17999268 .015991211 .18099976 .01499939 .18099976 .0009918213 .18099976-.07316589 .1459961-.13328552 .11299133-.16635132 .101989749-.17736817 .101989749-.17936707 .101989749-.18237305 .101989749-.18936157 .10699463-.19335938 .11199951-.19335938 .12298584-.19335938 .20298767-.116256717 .20298767 .0009918213Z"/>
<path id="font_2_3" d="M.48599244 .38136292C.48999024 .39537049 .48999024 .39736939 .48999024 .40437318 .48999024 .42237855 .47599793 .43138124 .46099855 .43138124 .45098878 .43138124 .43499757 .42536927 .42599488 .41036988 .42399598 .405365 .41600038 .37435914 .4119873 .35635377 .40499879 .33035279 .397995 .30334474 .3919983 .27633668L.34700013 .09628296C.34298707 .08126831 .2999878 .011245728 .23399353 .011245728 .18299866 .011245728 .17199707 .055267335 .17199707 .0922699 .17199707 .1382904 .18899536 .20030213 .22299195 .28833009 .23899842 .3293457 .24299622 .3403473 .24299622 .36035157 .24299622 .405365 .21099854 .4423828 .16099549 .4423828 .06599426 .4423828 .0289917 .29733277 .0289917 .28833009 .0289917 .27833558 .038986207 .27833558 .040985109 .27833558 .050994874 .27833558 .051986696 .28033448 .056991579 .29634095 .083999637 .3903656 .12399292 .42037965 .1579895 .42037965 .1659851 .42037965 .18299866 .42037965 .18299866 .3883667 .18299866 .36335755 .17298889 .3373413 .1659851 .31834413 .12599182 .21231079 .10798645 .1552887 .10798645 .10827637 .10798645 .019256592 .17098999-.0107421879 .22999573-.0107421879 .2689972-.0107421879 .30299378 .0062561037 .33099366 .03425598 .31799317-.017745972 .30599977-.06674194 .2659912-.11973572 .23999024-.15385437 .20199585-.18309021 .1559906-.18309021 .14199829-.18309021 .09700012-.18005371 .07998657-.14074707 .09599304-.14074707 .10899353-.14074707 .12298584-.1287384 .1329956-.11973572 .14299011-.10673523 .14299011-.08773804 .14299011-.056747438 .115997318-.052734376 .10598755-.052734376 .08299255-.052734376 .049987794-.068740848 .049987794-.11773682 .049987794-.16796875 .09399414-.20507813 .1559906-.20507813 .25898744-.20507813 .3619995-.11373901 .3899994-.00074768069L.48599244 .38136292Z"/>
<path id="font_1_2" d="M.2889862 .25C.2889862 .32798768 .27799989 .44898988 .22299195 .56199648 .16299439 .68499758 .07699585 .75 .066986087 .75 .06098938 .75 .056991579 .74598696 .056991579 .73999026 .056991579 .7369995 .056991579 .73498538 .07598877 .71699526 .17399597 .6179962 .23098755 .45899964 .23098755 .25 .23098755 .07899475 .19400025-.09700012 .069992069-.2230072 .056991579-.23500061 .056991579-.23701477 .056991579-.2400055 .056991579-.2460022 .06098938-.25 .066986087-.25 .07699585-.25 .16699219-.18200684 .22599793-.055007936 .2769928 .054992677 .2889862 .16600037 .2889862 .25Z"/>
</defs>
<path transform="matrix(1.00003,0,0,-1.00003,2.0964967,171.88268)" stroke-width=".3985" stroke-linecap="butt" stroke-miterlimit="10" stroke-linejoin="miter" fill="none" stroke="#bfbfbf" d="M0 0H255.12128M0 42.5202H255.12128M0 85.04042H255.12128M0 127.56062H255.12128M0 170.0659H255.12128M0 0V170.08086M42.5202 0V170.08086M85.04042 0V170.08086M127.56062 0V170.08086M170.08086 0V170.08086M212.60106 0V170.08086M255.10634 0V170.08086M255.12128 170.08086"/>
<path transform="matrix(1.00003,0,0,-1.00003,2.0964967,171.88268)" d="M17.81773 17.29262C17.81773 18.11797 17.14867 18.78703 16.32332 18.78703 15.49797 18.78703 14.8289 18.11797 14.8289 17.29262 14.8289 16.46727 15.49797 15.7982 16.32332 15.7982 17.14867 15.7982 17.81773 16.46727 17.81773 17.29262ZM16.32332 17.29262" fill="#8080ff"/>
<path transform="matrix(1.00003,0,0,-1.00003,2.0964967,171.88268)" stroke-width=".3985" stroke-linecap="butt" stroke-miterlimit="10" stroke-linejoin="miter" fill="none" stroke="#8080ff" d="M17.81773 17.29262C17.81773 18.11797 17.14867 18.78703 16.32332 18.78703 15.49797 18.78703 14.8289 18.11797 14.8289 17.29262 14.8289 16.46727 15.49797 15.7982 16.32332 15.7982 17.14867 15.7982 17.81773 16.46727 17.81773 17.29262ZM16.32332 17.29262"/>
<path transform="matrix(1.00003,0,0,-1.00003,2.0964967,171.88268)" d="M14.42447 65.23428C14.42447 66.05963 13.7554 66.7287 12.93005 66.7287 12.1047 66.7287 11.43564 66.05963 11.43564 65.23428 11.43564 64.40894 12.1047 63.73987 12.93005 63.73987 13.7554 63.73987 14.42447 64.40894 14.42447 65.23428ZM12.93005 65.23428" fill="#8080ff"/>
<path transform="matrix(1.00003,0,0,-1.00003,2.0964967,171.88268)" stroke-width=".3985" stroke-linecap="butt" stroke-miterlimit="10" stroke-linejoin="miter" fill="none" stroke="#8080ff" d="M14.42447 65.23428C14.42447 66.05963 13.7554 66.7287 12.93005 66.7287 12.1047 66.7287 11.43564 66.05963 11.43564 65.23428 11.43564 64.40894 12.1047 63.73987 12.93005 63.73987 13.7554 63.73987 14.42447 64.40894 14.42447 65.23428ZM12.93005 65.23428"/>
<path transform="matrix(1.00003,0,0,-1.00003,2.0964967,171.88268)" d="M14.92209 107.7506C14.92209 108.57594 14.25302 109.24501 13.42767 109.24501 12.60233 109.24501 11.93326 108.57594 11.93326 107.7506 11.93326 106.92525 12.60233 106.25618 13.42767 106.25618 14.25302 106.25618 14.92209 106.92525 14.92209 107.7506ZM13.42767 107.7506" fill="#8080ff"/>
<path transform="matrix(1.00003,0,0,-1.00003,2.0964967,171.88268)" stroke-width=".3985" stroke-linecap="butt" stroke-miterlimit="10" stroke-linejoin="miter" fill="none" stroke="#8080ff" d="M14.92209 107.7506C14.92209 108.57594 14.25302 109.24501 13.42767 109.24501 12.60233 109.24501 11.93326 108.57594 11.93326 107.7506 11.93326 106.92525 12.60233 106.25618 13.42767 106.25618 14.25302 106.25618 14.92209 106.92525 14.92209 107.7506ZM13.42767 107.7506"/>
<path transform="matrix(1.00003,0,0,-1.00003,2.0964967,171.88268)" d="M27.2741 140.36742C27.2741 141.19277 26.60503 141.86183 25.77968 141.86183 24.95433 141.86183 24.28526 141.19277 24.28526 140.36742 24.28526 139.54207 24.95433 138.873 25.77968 138.873 26.60503 138.873 27.2741 139.54207 27.2741 140.36742ZM25.77968 140.36742" fill="#8080ff"/>
<path transform="matrix(1.00003,0,0,-1.00003,2.0964967,171.88268)" stroke-width=".3985" stroke-linecap="butt" stroke-miterlimit="10" stroke-linejoin="miter" fill="none" stroke="#8080ff" d="M27.2741 140.36742C27.2741 141.19277 26.60503 141.86183 25.77968 141.86183 24.95433 141.86183 24.28526 141.19277 24.28526 140.36742 24.28526 139.54207 24.95433 138.873 25.77968 138.873 26.60503 138.873 27.2741 139.54207 27.2741 140.36742ZM25.77968 140.36742"/>
<path transform="matrix(1.00003,0,0,-1.00003,2.0964967,171.88268)" d="M67.9108 16.8975C67.9108 17.72285 67.24173 18.39192 66.41638 18.39192 65.59103 18.39192 64.92197 17.72285 64.92197 16.8975 64.92197 16.07216 65.59103 15.40309 66.41638 15.40309 67.24173 15.40309 67.9108 16.07216 67.9108 16.8975ZM66.41638 16.8975" fill="#8080ff"/>
<path transform="matrix(1.00003,0,0,-1.00003,2.0964967,171.88268)" stroke-width=".3985" stroke-linecap="butt" stroke-miterlimit="10" stroke-linejoin="miter" fill="none" stroke="#8080ff" d="M67.9108 16.8975C67.9108 17.72285 67.24173 18.39192 66.41638 18.39192 65.59103 18.39192 64.92197 17.72285 64.92197 16.8975 64.92197 16.07216 65.59103 15.40309 66.41638 15.40309 67.24173 15.40309 67.9108 16.07216 67.9108 16.8975ZM66.41638 16.8975"/>
<path transform="matrix(1.00003,0,0,-1.00003,2.0964967,171.88268)" d="M68.32344 69.05705C68.32344 69.88239 67.65437 70.55147 66.82903 70.55147 66.00368 70.55147 65.33461 69.88239 65.33461 69.05705 65.33461 68.2317 66.00368 67.56264 66.82903 67.56264 67.65437 67.56264 68.32344 68.2317 68.32344 69.05705ZM66.82903 69.05705" fill="#8080ff"/>
<path transform="matrix(1.00003,0,0,-1.00003,2.0964967,171.88268)" stroke-width=".3985" stroke-linecap="butt" stroke-miterlimit="10" stroke-linejoin="miter" fill="none" stroke="#8080ff" d="M68.32344 69.05705C68.32344 69.88239 67.65437 70.55147 66.82903 70.55147 66.00368 70.55147 65.33461 69.88239 65.33461 69.05705 65.33461 68.2317 66.00368 67.56264 66.82903 67.56264 67.65437 67.56264 68.32344 68.2317 68.32344 69.05705ZM66.82903 69.05705"/>
<path transform="matrix(1.00003,0,0,-1.00003,2.0964967,171.88268)" d="M63.86292 113.0695C63.86292 113.89485 63.19385 114.56392 62.3685 114.56392 61.54315 114.56392 60.87408 113.89485 60.87408 113.0695 60.87408 112.24417 61.54315 111.57509 62.3685 111.57509 63.19385 111.57509 63.86292 112.24417 63.86292 113.0695ZM62.3685 113.0695" fill="#8080ff"/>
<path transform="matrix(1.00003,0,0,-1.00003,2.0964967,171.88268)" stroke-width=".3985" stroke-linecap="butt" stroke-miterlimit="10" stroke-linejoin="miter" fill="none" stroke="#8080ff" d="M63.86292 113.0695C63.86292 113.89485 63.19385 114.56392 62.3685 114.56392 61.54315 114.56392 60.87408 113.89485 60.87408 113.0695 60.87408 112.24417 61.54315 111.57509 62.3685 111.57509 63.19385 111.57509 63.86292 112.24417 63.86292 113.0695ZM62.3685 113.0695"/>
<path transform="matrix(1.00003,0,0,-1.00003,2.0964967,171.88268)" d="M61.74586 158.75331C61.74586 159.57866 61.0768 160.24773 60.25145 160.24773 59.4261 160.24773 58.75703 159.57866 58.75703 158.75331 58.75703 157.92797 59.4261 157.2589 60.25145 157.2589 61.0768 157.2589 61.74586 157.92797 61.74586 158.75331ZM60.25145 158.75331" fill="#8080ff"/>
<path transform="matrix(1.00003,0,0,-1.00003,2.0964967,171.88268)" stroke-width=".3985" stroke-linecap="butt" stroke-miterlimit="10" stroke-linejoin="miter" fill="none" stroke="#8080ff" d="M61.74586 158.75331C61.74586 159.57866 61.0768 160.24773 60.25145 160.24773 59.4261 160.24773 58.75703 159.57866 58.75703 158.75331 58.75703 157.92797 59.4261 157.2589 60.25145 157.2589 61.0768 157.2589 61.74586 157.92797 61.74586 158.75331ZM60.25145 158.75331"/>
<path transform="matrix(1.00003,0,0,-1.00003,2.0964967,171.88268)" d="M112.70576 14.53325C112.70576 15.3586 112.03668 16.02766 111.21135 16.02766 110.386 16.02766 109.71693 15.3586 109.71693 14.53325 109.71693 13.7079 110.386 13.03883 111.21135 13.03883 112.03668 13.03883 112.70576 13.7079 112.70576 14.53325ZM111.21135 14.53325" fill="#8080ff"/>
<path transform="matrix(1.00003,0,0,-1.00003,2.0964967,171.88268)" stroke-width=".3985" stroke-linecap="butt" stroke-miterlimit="10" stroke-linejoin="miter" fill="none" stroke="#8080ff" d="M112.70576 14.53325C112.70576 15.3586 112.03668 16.02766 111.21135 16.02766 110.386 16.02766 109.71693 15.3586 109.71693 14.53325 109.71693 13.7079 110.386 13.03883 111.21135 13.03883 112.03668 13.03883 112.70576 13.7079 112.70576 14.53325ZM111.21135 14.53325"/>
<path transform="matrix(1.00003,0,0,-1.00003,2.0964967,171.88268)" d="M113.78146 68.32585C113.78146 69.1512 113.1124 69.82027 112.28705 69.82027 111.4617 69.82027 110.79263 69.1512 110.79263 68.32585 110.79263 67.5005 111.4617 66.83144 112.28705 66.83144 113.1124 66.83144 113.78146 67.5005 113.78146 68.32585ZM112.28705 68.32585" fill="#8080ff"/>
<path transform="matrix(1.00003,0,0,-1.00003,2.0964967,171.88268)" stroke-width=".3985" stroke-linecap="butt" stroke-miterlimit="10" stroke-linejoin="miter" fill="none" stroke="#8080ff" d="M113.78146 68.32585C113.78146 69.1512 113.1124 69.82027 112.28705 69.82027 111.4617 69.82027 110.79263 69.1512 110.79263 68.32585 110.79263 67.5005 111.4617 66.83144 112.28705 66.83144 113.1124 66.83144 113.78146 67.5005 113.78146 68.32585ZM112.28705 68.32585"/>
<path transform="matrix(1.00003,0,0,-1.00003,2.0964967,171.88268)" d="M108.67535 111.79396C108.67535 112.61931 108.00627 113.28838 107.18094 113.28838 106.35559 113.28838 105.68652 112.61931 105.68652 111.79396 105.68652 110.96861 106.35559 110.29955 107.18094 110.29955 108.00627 110.29955 108.67535 110.96861 108.67535 111.79396ZM107.18094 111.79396" fill="#8080ff"/>
<path transform="matrix(1.00003,0,0,-1.00003,2.0964967,171.88268)" stroke-width=".3985" stroke-linecap="butt" stroke-miterlimit="10" stroke-linejoin="miter" fill="none" stroke="#8080ff" d="M108.67535 111.79396C108.67535 112.61931 108.00627 113.28838 107.18094 113.28838 106.35559 113.28838 105.68652 112.61931 105.68652 111.79396 105.68652 110.96861 106.35559 110.29955 107.18094 110.29955 108.00627 110.29955 108.67535 110.96861 108.67535 111.79396ZM107.18094 111.79396"/>
<path transform="matrix(1.00003,0,0,-1.00003,2.0964967,171.88268)" d="M100.98312 145.65714C100.98312 146.48249 100.31404 147.15155 99.48871 147.15155 98.66336 147.15155 97.9943 146.48249 97.9943 145.65714 97.9943 144.83179 98.66336 144.16272 99.48871 144.16272 100.31404 144.16272 100.98312 144.83179 100.98312 145.65714ZM99.48871 145.65714" fill="#8080ff"/>
<path transform="matrix(1.00003,0,0,-1.00003,2.0964967,171.88268)" stroke-width=".3985" stroke-linecap="butt" stroke-miterlimit="10" stroke-linejoin="miter" fill="none" stroke="#8080ff" d="M100.98312 145.65714C100.98312 146.48249 100.31404 147.15155 99.48871 147.15155 98.66336 147.15155 97.9943 146.48249 97.9943 145.65714 97.9943 144.83179 98.66336 144.16272 99.48871 144.16272 100.31404 144.16272 100.98312 144.83179 100.98312 145.65714ZM99.48871 145.65714"/>
<path transform="matrix(1.00003,0,0,-1.00003,2.0964967,171.88268)" d="M158.39798 22.79517C158.39798 23.62051 157.72891 24.28958 156.90357 24.28958 156.07822 24.28958 155.40915 23.62051 155.40915 22.79517 155.40915 21.96982 156.07822 21.30075 156.90357 21.30075 157.72891 21.30075 158.39798 21.96982 158.39798 22.79517ZM156.90357 22.79517" fill="#8080ff"/>
<path transform="matrix(1.00003,0,0,-1.00003,2.0964967,171.88268)" stroke-width=".3985" stroke-linecap="butt" stroke-miterlimit="10" stroke-linejoin="miter" fill="none" stroke="#8080ff" d="M158.39798 22.79517C158.39798 23.62051 157.72891 24.28958 156.90357 24.28958 156.07822 24.28958 155.40915 23.62051 155.40915 22.79517 155.40915 21.96982 156.07822 21.30075 156.90357 21.30075 157.72891 21.30075 158.39798 21.96982 158.39798 22.79517ZM156.90357 22.79517"/>
<path transform="matrix(1.00003,0,0,-1.00003,2.0964967,171.88268)" d="M147.24109 56.15617C147.24109 56.98152 146.57202 57.65059 145.74668 57.65059 144.92134 57.65059 144.25226 56.98152 144.25226 56.15617 144.25226 55.33083 144.92134 54.66176 145.74668 54.66176 146.57202 54.66176 147.24109 55.33083 147.24109 56.15617ZM145.74668 56.15617" fill="#8080ff"/>
<path transform="matrix(1.00003,0,0,-1.00003,2.0964967,171.88268)" stroke-width=".3985" stroke-linecap="butt" stroke-miterlimit="10" stroke-linejoin="miter" fill="none" stroke="#8080ff" d="M147.24109 56.15617C147.24109 56.98152 146.57202 57.65059 145.74668 57.65059 144.92134 57.65059 144.25226 56.98152 144.25226 56.15617 144.25226 55.33083 144.92134 54.66176 145.74668 54.66176 146.57202 54.66176 147.24109 55.33083 147.24109 56.15617ZM145.74668 56.15617"/>
<path transform="matrix(1.00003,0,0,-1.00003,2.0964967,171.88268)" d="M145.2045 109.49393C145.2045 110.31927 144.53543 110.98834 143.71009 110.98834 142.88474 110.98834 142.21567 110.31927 142.21567 109.49393 142.21567 108.66858 142.88474 107.99951 143.71009 107.99951 144.53543 107.99951 145.2045 108.66858 145.2045 109.49393ZM143.71009 109.49393" fill="#8080ff"/>
<path transform="matrix(1.00003,0,0,-1.00003,2.0964967,171.88268)" stroke-width=".3985" stroke-linecap="butt" stroke-miterlimit="10" stroke-linejoin="miter" fill="none" stroke="#8080ff" d="M145.2045 109.49393C145.2045 110.31927 144.53543 110.98834 143.71009 110.98834 142.88474 110.98834 142.21567 110.31927 142.21567 109.49393 142.21567 108.66858 142.88474 107.99951 143.71009 107.99951 144.53543 107.99951 145.2045 108.66858 145.2045 109.49393ZM143.71009 109.49393"/>
<use data-text="(" xlink:href="#font_1_1" transform="matrix(9.962899,0,0,-9.962899,126.00922,76.88482)"/>
<use data-text="x" xlink:href="#font_2_2" transform="matrix(9.962899,0,0,-9.962899,129.88333,76.88482)"/>
<use data-text="&#x2217;" xlink:href="#font_3_1" transform="matrix(6.9740097,0,0,-6.9740097,135.57752,73.26971)"/>
<use data-text="4" xlink:href="#font_4_2" transform="matrix(6.9740097,0,0,-6.9740097,135.57752,79.35789)"/>
<use data-text="3" xlink:href="#font_4_1" transform="matrix(6.9740097,0,0,-6.9740097,139.54572,79.35789)"/>
<use data-text="," xlink:href="#font_2_1" transform="matrix(9.962899,0,0,-9.962899,144.01877,76.8848)"/>
<use data-text="y" xlink:href="#font_2_3" transform="matrix(9.962899,0,0,-9.962899,148.43233,76.8848)"/>
<use data-text="&#x2217;" xlink:href="#font_3_1" transform="matrix(6.9740097,0,0,-6.9740097,153.68906,73.26969)"/>
<use data-text="4" xlink:href="#font_4_2" transform="matrix(6.9740097,0,0,-6.9740097,153.33104,79.35787)"/>
<use data-text="3" xlink:href="#font_4_1" transform="matrix(6.9740097,0,0,-6.9740097,157.29926,79.35787)"/>
<use data-text=")" xlink:href="#font_1_2" transform="matrix(9.962899,0,0,-9.962899,161.7723,76.88479)"/>
<path transform="matrix(1.00003,0,0,-1.00003,2.0964967,171.88268)" d="M148.45696 143.91834C148.45696 144.74369 147.78787 145.41275 146.96254 145.41275 146.13719 145.41275 145.46813 144.74369 145.46813 143.91834 145.46813 143.09299 146.13719 142.42392 146.96254 142.42392 147.78787 142.42392 148.45696 143.09299 148.45696 143.91834ZM146.96254 143.91834" fill="#8080ff"/>
<path transform="matrix(1.00003,0,0,-1.00003,2.0964967,171.88268)" stroke-width=".3985" stroke-linecap="butt" stroke-miterlimit="10" stroke-linejoin="miter" fill="none" stroke="#8080ff" d="M148.45696 143.91834C148.45696 144.74369 147.78787 145.41275 146.96254 145.41275 146.13719 145.41275 145.46813 144.74369 145.46813 143.91834 145.46813 143.09299 146.13719 142.42392 146.96254 142.42392 147.78787 142.42392 148.45696 143.09299 148.45696 143.91834ZM146.96254 143.91834"/>
<path transform="matrix(1.00003,0,0,-1.00003,2.0964967,171.88268)" d="M198.63957 20.50748C198.63957 21.33282 197.9705 22.00189 197.14516 22.00189 196.31981 22.00189 195.65074 21.33282 195.65074 20.50748 195.65074 19.68213 196.31981 19.01306 197.14516 19.01306 197.9705 19.01306 198.63957 19.68213 198.63957 20.50748ZM197.14516 20.50748" fill="#8080ff"/>
<path transform="matrix(1.00003,0,0,-1.00003,2.0964967,171.88268)" stroke-width=".3985" stroke-linecap="butt" stroke-miterlimit="10" stroke-linejoin="miter" fill="none" stroke="#8080ff" d="M198.63957 20.50748C198.63957 21.33282 197.9705 22.00189 197.14516 22.00189 196.31981 22.00189 195.65074 21.33282 195.65074 20.50748 195.65074 19.68213 196.31981 19.01306 197.14516 19.01306 197.9705 19.01306 198.63957 19.68213 198.63957 20.50748ZM197.14516 20.50748"/>
<path transform="matrix(1.00003,0,0,-1.00003,2.0964967,171.88268)" d="M200.2123 59.79208C200.2123 60.61743 199.54323 61.2865 198.71788 61.2865 197.89253 61.2865 197.22347 60.61743 197.22347 59.79208 197.22347 58.96674 197.89253 58.29767 198.71788 58.29767 199.54323 58.29767 200.2123 58.96674 200.2123 59.79208ZM198.71788 59.79208" fill="#8080ff"/>
<path transform="matrix(1.00003,0,0,-1.00003,2.0964967,171.88268)" stroke-width=".3985" stroke-linecap="butt" stroke-miterlimit="10" stroke-linejoin="miter" fill="none" stroke="#8080ff" d="M200.2123 59.79208C200.2123 60.61743 199.54323 61.2865 198.71788 61.2865 197.89253 61.2865 197.22347 60.61743 197.22347 59.79208 197.22347 58.96674 197.89253 58.29767 198.71788 58.29767 199.54323 58.29767 200.2123 58.96674 200.2123 59.79208ZM198.71788 59.79208"/>
<path transform="matrix(1.00003,0,0,-1.00003,2.0964967,171.88268)" d="M187.87328 102.28635C187.87328 103.1117 187.20421 103.78076 186.37886 103.78076 185.55352 103.78076 184.88445 103.1117 184.88445 102.28635 184.88445 101.461 185.55352 100.79193 186.37886 100.79193 187.20421 100.79193 187.87328 101.461 187.87328 102.28635ZM186.37886 102.28635" fill="#8080ff"/>
<path transform="matrix(1.00003,0,0,-1.00003,2.0964967,171.88268)" stroke-width=".3985" stroke-linecap="butt" stroke-miterlimit="10" stroke-linejoin="miter" fill="none" stroke="#8080ff" d="M187.87328 102.28635C187.87328 103.1117 187.20421 103.78076 186.37886 103.78076 185.55352 103.78076 184.88445 103.1117 184.88445 102.28635 184.88445 101.461 185.55352 100.79193 186.37886 100.79193 187.20421 100.79193 187.87328 101.461 187.87328 102.28635ZM186.37886 102.28635"/>
<path transform="matrix(1.00003,0,0,-1.00003,2.0964967,171.88268)" d="M192.82239 153.11974C192.82239 153.94509 192.15332 154.61415 191.32798 154.61415 190.50263 154.61415 189.83356 153.94509 189.83356 153.11974 189.83356 152.29439 190.50263 151.62532 191.32798 151.62532 192.15332 151.62532 192.82239 152.29439 192.82239 153.11974ZM191.32798 153.11974" fill="#8080ff"/>
<path transform="matrix(1.00003,0,0,-1.00003,2.0964967,171.88268)" stroke-width=".3985" stroke-linecap="butt" stroke-miterlimit="10" stroke-linejoin="miter" fill="none" stroke="#8080ff" d="M192.82239 153.11974C192.82239 153.94509 192.15332 154.61415 191.32798 154.61415 190.50263 154.61415 189.83356 153.94509 189.83356 153.11974 189.83356 152.29439 190.50263 151.62532 191.32798 151.62532 192.15332 151.62532 192.82239 152.29439 192.82239 153.11974ZM191.32798 153.11974"/>
<path transform="matrix(1.00003,0,0,-1.00003,2.0964967,171.88268)" d="M233.02117 19.55891C233.02117 20.38426 232.3521 21.05333 231.52675 21.05333 230.7014 21.05333 230.03234 20.38426 230.03234 19.55891 230.03234 18.73357 230.7014 18.0645 231.52675 18.0645 232.3521 18.0645 233.02117 18.73357 233.02117 19.55891ZM231.52675 19.55891" fill="#8080ff"/>
<path transform="matrix(1.00003,0,0,-1.00003,2.0964967,171.88268)" stroke-width=".3985" stroke-linecap="butt" stroke-miterlimit="10" stroke-linejoin="miter" fill="none" stroke="#8080ff" d="M233.02117 19.55891C233.02117 20.38426 232.3521 21.05333 231.52675 21.05333 230.7014 21.05333 230.03234 20.38426 230.03234 19.55891 230.03234 18.73357 230.7014 18.0645 231.52675 18.0645 232.3521 18.0645 233.02117 18.73357 233.02117 19.55891ZM231.52675 19.55891"/>
<path transform="matrix(1.00003,0,0,-1.00003,2.0964967,171.88268)" d="M237.80872 61.27135C237.80872 62.0967 237.13965 62.76576 236.3143 62.76576 235.48896 62.76576 234.81989 62.0967 234.81989 61.27135 234.81989 60.44601 235.48896 59.77693 236.3143 59.77693 237.13965 59.77693 237.80872 60.44601 237.80872 61.27135ZM236.3143 61.27135" fill="#8080ff"/>
<path transform="matrix(1.00003,0,0,-1.00003,2.0964967,171.88268)" stroke-width=".3985" stroke-linecap="butt" stroke-miterlimit="10" stroke-linejoin="miter" fill="none" stroke="#8080ff" d="M237.80872 61.27135C237.80872 62.0967 237.13965 62.76576 236.3143 62.76576 235.48896 62.76576 234.81989 62.0967 234.81989 61.27135 234.81989 60.44601 235.48896 59.77693 236.3143 59.77693 237.13965 59.77693 237.80872 60.44601 237.80872 61.27135ZM236.3143 61.27135"/>
<path transform="matrix(1.00003,0,0,-1.00003,2.0964967,171.88268)" d="M231.4478 109.77032C231.4478 110.59567 230.77873 111.26474 229.95339 111.26474 229.12804 111.26474 228.45897 110.59567 228.45897 109.77032 228.45897 108.94499 229.12804 108.27591 229.95339 108.27591 230.77873 108.27591 231.4478 108.94499 231.4478 109.77032ZM229.95339 109.77032" fill="#8080ff"/>
<path transform="matrix(1.00003,0,0,-1.00003,2.0964967,171.88268)" stroke-width=".3985" stroke-linecap="butt" stroke-miterlimit="10" stroke-linejoin="miter" fill="none" stroke="#8080ff" d="M231.4478 109.77032C231.4478 110.59567 230.77873 111.26474 229.95339 111.26474 229.12804 111.26474 228.45897 110.59567 228.45897 109.77032 228.45897 108.94499 229.12804 108.27591 229.95339 108.27591 230.77873 108.27591 231.4478 108.94499 231.4478 109.77032ZM229.95339 109.77032"/>
<path transform="matrix(1.00003,0,0,-1.00003,2.0964967,171.88268)" d="M245.32254 143.66272C245.32254 144.48807 244.65348 145.15714 243.82813 145.15714 243.00278 145.15714 242.33371 144.48807 242.33371 143.66272 242.33371 142.83737 243.00278 142.1683 243.82813 142.1683 244.65348 142.1683 245.32254 142.83737 245.32254 143.66272ZM243.82813 143.66272" fill="#8080ff"/>
<path transform="matrix(1.00003,0,0,-1.00003,2.0964967,171.88268)" stroke-width=".3985" stroke-linecap="butt" stroke-miterlimit="10" stroke-linejoin="miter" fill="none" stroke="#8080ff" d="M245.32254 143.66272C245.32254 144.48807 244.65348 145.15714 243.82813 145.15714 243.00278 145.15714 242.33371 144.48807 242.33371 143.66272 242.33371 142.83737 243.00278 142.1683 243.82813 142.1683 244.65348 142.1683 245.32254 142.83737 245.32254 143.66272ZM243.82813 143.66272"/>
</svg>
