<?xml version="1.0" encoding="utf-8" standalone="no"?>
<!DOCTYPE svg PUBLIC "-//W3C//DTD SVG 1.1//EN"
  "http://www.w3.org/Graphics/SVG/1.1/DTD/svg11.dtd">
<svg xmlns:xlink="http://www.w3.org/1999/xlink" width="343.062187pt" height="337.998125pt" viewBox="0 0 343.062187 337.998125" xmlns="http://www.w3.org/2000/svg" version="1.1">
 <metadata>
  <rdf:RDF xmlns:dc="http://purl.org/dc/elements/1.1/" xmlns:cc="http://creativecommons.org/ns#" xmlns:rdf="http://www.w3.org/1999/02/22-rdf-syntax-ns#">
   <cc:Work>
    <dc:type rdf:resource="http://purl.org/dc/dcmitype/StillImage"/>
    <dc:date>2025-04-08T16:54:49.661543</dc:date>
    <dc:format>image/svg+xml</dc:format>
    <dc:creator>
     <cc:Agent>
      <dc:title>Matplotlib v3.6.3, https://matplotlib.org/</dc:title>
     </cc:Agent>
    </dc:creator>
   </cc:Work>
  </rdf:RDF>
 </metadata>
 <defs>
  <style type="text/css">*{stroke-linejoin: round; stroke-linecap: butt}</style>
 </defs>
 <g id="figure_1">
  <g id="patch_1">
   <path d="M 0 337.998125 
L 343.062187 337.998125 
L 343.062187 0 
L 0 0 
z
" style="fill: #ffffff"/>
  </g>
  <g id="axes_1">
   <g id="patch_2">
    <path d="M 28.942188 314.12 
L 335.862187 314.12 
L 335.862187 7.2 
L 28.942188 7.2 
z
" style="fill: #ffffff"/>
   </g>
   <g id="matplotlib.axis_1">
    <g id="xtick_1">
     <g id="line2d_1">
      <defs>
       <path id="mdf388981b3" d="M 0 0 
L 0 3.5 
" style="stroke: #000000; stroke-width: 0.8"/>
      </defs>
      <g>
       <use xlink:href="#mdf388981b3" x="34.844495" y="314.12" style="stroke: #000000; stroke-width: 0.8"/>
      </g>
     </g>
     <g id="text_1">
      <!-- −8 -->
      <g transform="translate(27.473401 328.718437) scale(0.1 -0.1)">
       <defs>
        <path id="DejaVuSans-2212" d="M 678 2272 
L 4684 2272 
L 4684 1741 
L 678 1741 
L 678 2272 
z
" transform="scale(0.015625)"/>
        <path id="DejaVuSans-38" d="M 2034 2216 
Q 1584 2216 1326 1975 
Q 1069 1734 1069 1313 
Q 1069 891 1326 650 
Q 1584 409 2034 409 
Q 2484 409 2743 651 
Q 3003 894 3003 1313 
Q 3003 1734 2745 1975 
Q 2488 2216 2034 2216 
z
M 1403 2484 
Q 997 2584 770 2862 
Q 544 3141 544 3541 
Q 544 4100 942 4425 
Q 1341 4750 2034 4750 
Q 2731 4750 3128 4425 
Q 3525 4100 3525 3541 
Q 3525 3141 3298 2862 
Q 3072 2584 2669 2484 
Q 3125 2378 3379 2068 
Q 3634 1759 3634 1313 
Q 3634 634 3220 271 
Q 2806 -91 2034 -91 
Q 1263 -91 848 271 
Q 434 634 434 1313 
Q 434 1759 690 2068 
Q 947 2378 1403 2484 
z
M 1172 3481 
Q 1172 3119 1398 2916 
Q 1625 2713 2034 2713 
Q 2441 2713 2670 2916 
Q 2900 3119 2900 3481 
Q 2900 3844 2670 4047 
Q 2441 4250 2034 4250 
Q 1625 4250 1398 4047 
Q 1172 3844 1172 3481 
z
" transform="scale(0.015625)"/>
       </defs>
       <use xlink:href="#DejaVuSans-2212"/>
       <use xlink:href="#DejaVuSans-38" x="83.789062"/>
      </g>
     </g>
    </g>
    <g id="xtick_2">
     <g id="line2d_2">
      <g>
       <use xlink:href="#mdf388981b3" x="71.733918" y="314.12" style="stroke: #000000; stroke-width: 0.8"/>
      </g>
     </g>
     <g id="text_2">
      <!-- −6 -->
      <g transform="translate(64.362825 328.718437) scale(0.1 -0.1)">
       <defs>
        <path id="DejaVuSans-36" d="M 2113 2584 
Q 1688 2584 1439 2293 
Q 1191 2003 1191 1497 
Q 1191 994 1439 701 
Q 1688 409 2113 409 
Q 2538 409 2786 701 
Q 3034 994 3034 1497 
Q 3034 2003 2786 2293 
Q 2538 2584 2113 2584 
z
M 3366 4563 
L 3366 3988 
Q 3128 4100 2886 4159 
Q 2644 4219 2406 4219 
Q 1781 4219 1451 3797 
Q 1122 3375 1075 2522 
Q 1259 2794 1537 2939 
Q 1816 3084 2150 3084 
Q 2853 3084 3261 2657 
Q 3669 2231 3669 1497 
Q 3669 778 3244 343 
Q 2819 -91 2113 -91 
Q 1303 -91 875 529 
Q 447 1150 447 2328 
Q 447 3434 972 4092 
Q 1497 4750 2381 4750 
Q 2619 4750 2861 4703 
Q 3103 4656 3366 4563 
z
" transform="scale(0.015625)"/>
       </defs>
       <use xlink:href="#DejaVuSans-2212"/>
       <use xlink:href="#DejaVuSans-36" x="83.789062"/>
      </g>
     </g>
    </g>
    <g id="xtick_3">
     <g id="line2d_3">
      <g>
       <use xlink:href="#mdf388981b3" x="108.623341" y="314.12" style="stroke: #000000; stroke-width: 0.8"/>
      </g>
     </g>
     <g id="text_3">
      <!-- −4 -->
      <g transform="translate(101.252248 328.718437) scale(0.1 -0.1)">
       <defs>
        <path id="DejaVuSans-34" d="M 2419 4116 
L 825 1625 
L 2419 1625 
L 2419 4116 
z
M 2253 4666 
L 3047 4666 
L 3047 1625 
L 3713 1625 
L 3713 1100 
L 3047 1100 
L 3047 0 
L 2419 0 
L 2419 1100 
L 313 1100 
L 313 1709 
L 2253 4666 
z
" transform="scale(0.015625)"/>
       </defs>
       <use xlink:href="#DejaVuSans-2212"/>
       <use xlink:href="#DejaVuSans-34" x="83.789062"/>
      </g>
     </g>
    </g>
    <g id="xtick_4">
     <g id="line2d_4">
      <g>
       <use xlink:href="#mdf388981b3" x="145.512764" y="314.12" style="stroke: #000000; stroke-width: 0.8"/>
      </g>
     </g>
     <g id="text_4">
      <!-- −2 -->
      <g transform="translate(138.141671 328.718437) scale(0.1 -0.1)">
       <defs>
        <path id="DejaVuSans-32" d="M 1228 531 
L 3431 531 
L 3431 0 
L 469 0 
L 469 531 
Q 828 903 1448 1529 
Q 2069 2156 2228 2338 
Q 2531 2678 2651 2914 
Q 2772 3150 2772 3378 
Q 2772 3750 2511 3984 
Q 2250 4219 1831 4219 
Q 1534 4219 1204 4116 
Q 875 4013 500 3803 
L 500 4441 
Q 881 4594 1212 4672 
Q 1544 4750 1819 4750 
Q 2544 4750 2975 4387 
Q 3406 4025 3406 3419 
Q 3406 3131 3298 2873 
Q 3191 2616 2906 2266 
Q 2828 2175 2409 1742 
Q 1991 1309 1228 531 
z
" transform="scale(0.015625)"/>
       </defs>
       <use xlink:href="#DejaVuSans-2212"/>
       <use xlink:href="#DejaVuSans-32" x="83.789062"/>
      </g>
     </g>
    </g>
    <g id="xtick_5">
     <g id="line2d_5">
      <g>
       <use xlink:href="#mdf388981b3" x="182.402187" y="314.12" style="stroke: #000000; stroke-width: 0.8"/>
      </g>
     </g>
     <g id="text_5">
      <!-- 0 -->
      <g transform="translate(179.220937 328.718437) scale(0.1 -0.1)">
       <defs>
        <path id="DejaVuSans-30" d="M 2034 4250 
Q 1547 4250 1301 3770 
Q 1056 3291 1056 2328 
Q 1056 1369 1301 889 
Q 1547 409 2034 409 
Q 2525 409 2770 889 
Q 3016 1369 3016 2328 
Q 3016 3291 2770 3770 
Q 2525 4250 2034 4250 
z
M 2034 4750 
Q 2819 4750 3233 4129 
Q 3647 3509 3647 2328 
Q 3647 1150 3233 529 
Q 2819 -91 2034 -91 
Q 1250 -91 836 529 
Q 422 1150 422 2328 
Q 422 3509 836 4129 
Q 1250 4750 2034 4750 
z
" transform="scale(0.015625)"/>
       </defs>
       <use xlink:href="#DejaVuSans-30"/>
      </g>
     </g>
    </g>
    <g id="xtick_6">
     <g id="line2d_6">
      <g>
       <use xlink:href="#mdf388981b3" x="219.291611" y="314.12" style="stroke: #000000; stroke-width: 0.8"/>
      </g>
     </g>
     <g id="text_6">
      <!-- 2 -->
      <g transform="translate(216.110361 328.718437) scale(0.1 -0.1)">
       <use xlink:href="#DejaVuSans-32"/>
      </g>
     </g>
    </g>
    <g id="xtick_7">
     <g id="line2d_7">
      <g>
       <use xlink:href="#mdf388981b3" x="256.181034" y="314.12" style="stroke: #000000; stroke-width: 0.8"/>
      </g>
     </g>
     <g id="text_7">
      <!-- 4 -->
      <g transform="translate(252.999784 328.718437) scale(0.1 -0.1)">
       <use xlink:href="#DejaVuSans-34"/>
      </g>
     </g>
    </g>
    <g id="xtick_8">
     <g id="line2d_8">
      <g>
       <use xlink:href="#mdf388981b3" x="293.070457" y="314.12" style="stroke: #000000; stroke-width: 0.8"/>
      </g>
     </g>
     <g id="text_8">
      <!-- 6 -->
      <g transform="translate(289.889207 328.718437) scale(0.1 -0.1)">
       <use xlink:href="#DejaVuSans-36"/>
      </g>
     </g>
    </g>
    <g id="xtick_9">
     <g id="line2d_9">
      <g>
       <use xlink:href="#mdf388981b3" x="329.95988" y="314.12" style="stroke: #000000; stroke-width: 0.8"/>
      </g>
     </g>
     <g id="text_9">
      <!-- 8 -->
      <g transform="translate(326.77863 328.718437) scale(0.1 -0.1)">
       <use xlink:href="#DejaVuSans-38"/>
      </g>
     </g>
    </g>
    <g id="xtick_10">
     <g id="line2d_10">
      <defs>
       <path id="ma504808de9" d="M 0 0 
L 0 2 
" style="stroke: #000000; stroke-width: 0.6"/>
      </defs>
      <g>
       <use xlink:href="#ma504808de9" x="44.066851" y="314.12" style="stroke: #000000; stroke-width: 0.6"/>
      </g>
     </g>
    </g>
    <g id="xtick_11">
     <g id="line2d_11">
      <g>
       <use xlink:href="#ma504808de9" x="53.289207" y="314.12" style="stroke: #000000; stroke-width: 0.6"/>
      </g>
     </g>
    </g>
    <g id="xtick_12">
     <g id="line2d_12">
      <g>
       <use xlink:href="#ma504808de9" x="62.511562" y="314.12" style="stroke: #000000; stroke-width: 0.6"/>
      </g>
     </g>
    </g>
    <g id="xtick_13">
     <g id="line2d_13">
      <g>
       <use xlink:href="#ma504808de9" x="80.956274" y="314.12" style="stroke: #000000; stroke-width: 0.6"/>
      </g>
     </g>
    </g>
    <g id="xtick_14">
     <g id="line2d_14">
      <g>
       <use xlink:href="#ma504808de9" x="90.17863" y="314.12" style="stroke: #000000; stroke-width: 0.6"/>
      </g>
     </g>
    </g>
    <g id="xtick_15">
     <g id="line2d_15">
      <g>
       <use xlink:href="#ma504808de9" x="99.400986" y="314.12" style="stroke: #000000; stroke-width: 0.6"/>
      </g>
     </g>
    </g>
    <g id="xtick_16">
     <g id="line2d_16">
      <g>
       <use xlink:href="#ma504808de9" x="117.845697" y="314.12" style="stroke: #000000; stroke-width: 0.6"/>
      </g>
     </g>
    </g>
    <g id="xtick_17">
     <g id="line2d_17">
      <g>
       <use xlink:href="#ma504808de9" x="127.068053" y="314.12" style="stroke: #000000; stroke-width: 0.6"/>
      </g>
     </g>
    </g>
    <g id="xtick_18">
     <g id="line2d_18">
      <g>
       <use xlink:href="#ma504808de9" x="136.290409" y="314.12" style="stroke: #000000; stroke-width: 0.6"/>
      </g>
     </g>
    </g>
    <g id="xtick_19">
     <g id="line2d_19">
      <g>
       <use xlink:href="#ma504808de9" x="154.73512" y="314.12" style="stroke: #000000; stroke-width: 0.6"/>
      </g>
     </g>
    </g>
    <g id="xtick_20">
     <g id="line2d_20">
      <g>
       <use xlink:href="#ma504808de9" x="163.957476" y="314.12" style="stroke: #000000; stroke-width: 0.6"/>
      </g>
     </g>
    </g>
    <g id="xtick_21">
     <g id="line2d_21">
      <g>
       <use xlink:href="#ma504808de9" x="173.179832" y="314.12" style="stroke: #000000; stroke-width: 0.6"/>
      </g>
     </g>
    </g>
    <g id="xtick_22">
     <g id="line2d_22">
      <g>
       <use xlink:href="#ma504808de9" x="191.624543" y="314.12" style="stroke: #000000; stroke-width: 0.6"/>
      </g>
     </g>
    </g>
    <g id="xtick_23">
     <g id="line2d_23">
      <g>
       <use xlink:href="#ma504808de9" x="200.846899" y="314.12" style="stroke: #000000; stroke-width: 0.6"/>
      </g>
     </g>
    </g>
    <g id="xtick_24">
     <g id="line2d_24">
      <g>
       <use xlink:href="#ma504808de9" x="210.069255" y="314.12" style="stroke: #000000; stroke-width: 0.6"/>
      </g>
     </g>
    </g>
    <g id="xtick_25">
     <g id="line2d_25">
      <g>
       <use xlink:href="#ma504808de9" x="228.513966" y="314.12" style="stroke: #000000; stroke-width: 0.6"/>
      </g>
     </g>
    </g>
    <g id="xtick_26">
     <g id="line2d_26">
      <g>
       <use xlink:href="#ma504808de9" x="237.736322" y="314.12" style="stroke: #000000; stroke-width: 0.6"/>
      </g>
     </g>
    </g>
    <g id="xtick_27">
     <g id="line2d_27">
      <g>
       <use xlink:href="#ma504808de9" x="246.958678" y="314.12" style="stroke: #000000; stroke-width: 0.6"/>
      </g>
     </g>
    </g>
    <g id="xtick_28">
     <g id="line2d_28">
      <g>
       <use xlink:href="#ma504808de9" x="265.403389" y="314.12" style="stroke: #000000; stroke-width: 0.6"/>
      </g>
     </g>
    </g>
    <g id="xtick_29">
     <g id="line2d_29">
      <g>
       <use xlink:href="#ma504808de9" x="274.625745" y="314.12" style="stroke: #000000; stroke-width: 0.6"/>
      </g>
     </g>
    </g>
    <g id="xtick_30">
     <g id="line2d_30">
      <g>
       <use xlink:href="#ma504808de9" x="283.848101" y="314.12" style="stroke: #000000; stroke-width: 0.6"/>
      </g>
     </g>
    </g>
    <g id="xtick_31">
     <g id="line2d_31">
      <g>
       <use xlink:href="#ma504808de9" x="302.292812" y="314.12" style="stroke: #000000; stroke-width: 0.6"/>
      </g>
     </g>
    </g>
    <g id="xtick_32">
     <g id="line2d_32">
      <g>
       <use xlink:href="#ma504808de9" x="311.515168" y="314.12" style="stroke: #000000; stroke-width: 0.6"/>
      </g>
     </g>
    </g>
    <g id="xtick_33">
     <g id="line2d_33">
      <g>
       <use xlink:href="#ma504808de9" x="320.737524" y="314.12" style="stroke: #000000; stroke-width: 0.6"/>
      </g>
     </g>
    </g>
   </g>
   <g id="matplotlib.axis_2">
    <g id="ytick_1">
     <g id="line2d_34">
      <defs>
       <path id="m06118ca044" d="M 0 0 
L -3.5 0 
" style="stroke: #000000; stroke-width: 0.8"/>
      </defs>
      <g>
       <use xlink:href="#m06118ca044" x="28.942188" y="308.217692" style="stroke: #000000; stroke-width: 0.8"/>
      </g>
     </g>
     <g id="text_10">
      <!-- −8 -->
      <g transform="translate(7.2 312.016911) scale(0.1 -0.1)">
       <use xlink:href="#DejaVuSans-2212"/>
       <use xlink:href="#DejaVuSans-38" x="83.789062"/>
      </g>
     </g>
    </g>
    <g id="ytick_2">
     <g id="line2d_35">
      <g>
       <use xlink:href="#m06118ca044" x="28.942188" y="271.328269" style="stroke: #000000; stroke-width: 0.8"/>
      </g>
     </g>
     <g id="text_11">
      <!-- −6 -->
      <g transform="translate(7.2 275.127488) scale(0.1 -0.1)">
       <use xlink:href="#DejaVuSans-2212"/>
       <use xlink:href="#DejaVuSans-36" x="83.789062"/>
      </g>
     </g>
    </g>
    <g id="ytick_3">
     <g id="line2d_36">
      <g>
       <use xlink:href="#m06118ca044" x="28.942188" y="234.438846" style="stroke: #000000; stroke-width: 0.8"/>
      </g>
     </g>
     <g id="text_12">
      <!-- −4 -->
      <g transform="translate(7.2 238.238065) scale(0.1 -0.1)">
       <use xlink:href="#DejaVuSans-2212"/>
       <use xlink:href="#DejaVuSans-34" x="83.789062"/>
      </g>
     </g>
    </g>
    <g id="ytick_4">
     <g id="line2d_37">
      <g>
       <use xlink:href="#m06118ca044" x="28.942188" y="197.549423" style="stroke: #000000; stroke-width: 0.8"/>
      </g>
     </g>
     <g id="text_13">
      <!-- −2 -->
      <g transform="translate(7.2 201.348642) scale(0.1 -0.1)">
       <use xlink:href="#DejaVuSans-2212"/>
       <use xlink:href="#DejaVuSans-32" x="83.789062"/>
      </g>
     </g>
    </g>
    <g id="ytick_5">
     <g id="line2d_38">
      <g>
       <use xlink:href="#m06118ca044" x="28.942188" y="160.66" style="stroke: #000000; stroke-width: 0.8"/>
      </g>
     </g>
     <g id="text_14">
      <!-- 0 -->
      <g transform="translate(15.579688 164.459219) scale(0.1 -0.1)">
       <use xlink:href="#DejaVuSans-30"/>
      </g>
     </g>
    </g>
    <g id="ytick_6">
     <g id="line2d_39">
      <g>
       <use xlink:href="#m06118ca044" x="28.942188" y="123.770577" style="stroke: #000000; stroke-width: 0.8"/>
      </g>
     </g>
     <g id="text_15">
      <!-- 2 -->
      <g transform="translate(15.579688 127.569796) scale(0.1 -0.1)">
       <use xlink:href="#DejaVuSans-32"/>
      </g>
     </g>
    </g>
    <g id="ytick_7">
     <g id="line2d_40">
      <g>
       <use xlink:href="#m06118ca044" x="28.942188" y="86.881154" style="stroke: #000000; stroke-width: 0.8"/>
      </g>
     </g>
     <g id="text_16">
      <!-- 4 -->
      <g transform="translate(15.579688 90.680373) scale(0.1 -0.1)">
       <use xlink:href="#DejaVuSans-34"/>
      </g>
     </g>
    </g>
    <g id="ytick_8">
     <g id="line2d_41">
      <g>
       <use xlink:href="#m06118ca044" x="28.942188" y="49.991731" style="stroke: #000000; stroke-width: 0.8"/>
      </g>
     </g>
     <g id="text_17">
      <!-- 6 -->
      <g transform="translate(15.579688 53.79095) scale(0.1 -0.1)">
       <use xlink:href="#DejaVuSans-36"/>
      </g>
     </g>
    </g>
    <g id="ytick_9">
     <g id="line2d_42">
      <g>
       <use xlink:href="#m06118ca044" x="28.942188" y="13.102308" style="stroke: #000000; stroke-width: 0.8"/>
      </g>
     </g>
     <g id="text_18">
      <!-- 8 -->
      <g transform="translate(15.579688 16.901526) scale(0.1 -0.1)">
       <use xlink:href="#DejaVuSans-38"/>
      </g>
     </g>
    </g>
    <g id="ytick_10">
     <g id="line2d_43">
      <defs>
       <path id="mfa32c30405" d="M 0 0 
L -2 0 
" style="stroke: #000000; stroke-width: 0.6"/>
      </defs>
      <g>
       <use xlink:href="#mfa32c30405" x="28.942188" y="298.995337" style="stroke: #000000; stroke-width: 0.6"/>
      </g>
     </g>
    </g>
    <g id="ytick_11">
     <g id="line2d_44">
      <g>
       <use xlink:href="#mfa32c30405" x="28.942188" y="289.772981" style="stroke: #000000; stroke-width: 0.6"/>
      </g>
     </g>
    </g>
    <g id="ytick_12">
     <g id="line2d_45">
      <g>
       <use xlink:href="#mfa32c30405" x="28.942188" y="280.550625" style="stroke: #000000; stroke-width: 0.6"/>
      </g>
     </g>
    </g>
    <g id="ytick_13">
     <g id="line2d_46">
      <g>
       <use xlink:href="#mfa32c30405" x="28.942188" y="262.105913" style="stroke: #000000; stroke-width: 0.6"/>
      </g>
     </g>
    </g>
    <g id="ytick_14">
     <g id="line2d_47">
      <g>
       <use xlink:href="#mfa32c30405" x="28.942188" y="252.883558" style="stroke: #000000; stroke-width: 0.6"/>
      </g>
     </g>
    </g>
    <g id="ytick_15">
     <g id="line2d_48">
      <g>
       <use xlink:href="#mfa32c30405" x="28.942188" y="243.661202" style="stroke: #000000; stroke-width: 0.6"/>
      </g>
     </g>
    </g>
    <g id="ytick_16">
     <g id="line2d_49">
      <g>
       <use xlink:href="#mfa32c30405" x="28.942188" y="225.21649" style="stroke: #000000; stroke-width: 0.6"/>
      </g>
     </g>
    </g>
    <g id="ytick_17">
     <g id="line2d_50">
      <g>
       <use xlink:href="#mfa32c30405" x="28.942188" y="215.994135" style="stroke: #000000; stroke-width: 0.6"/>
      </g>
     </g>
    </g>
    <g id="ytick_18">
     <g id="line2d_51">
      <g>
       <use xlink:href="#mfa32c30405" x="28.942188" y="206.771779" style="stroke: #000000; stroke-width: 0.6"/>
      </g>
     </g>
    </g>
    <g id="ytick_19">
     <g id="line2d_52">
      <g>
       <use xlink:href="#mfa32c30405" x="28.942188" y="188.327067" style="stroke: #000000; stroke-width: 0.6"/>
      </g>
     </g>
    </g>
    <g id="ytick_20">
     <g id="line2d_53">
      <g>
       <use xlink:href="#mfa32c30405" x="28.942188" y="179.104712" style="stroke: #000000; stroke-width: 0.6"/>
      </g>
     </g>
    </g>
    <g id="ytick_21">
     <g id="line2d_54">
      <g>
       <use xlink:href="#mfa32c30405" x="28.942188" y="169.882356" style="stroke: #000000; stroke-width: 0.6"/>
      </g>
     </g>
    </g>
    <g id="ytick_22">
     <g id="line2d_55">
      <g>
       <use xlink:href="#mfa32c30405" x="28.942188" y="151.437644" style="stroke: #000000; stroke-width: 0.6"/>
      </g>
     </g>
    </g>
    <g id="ytick_23">
     <g id="line2d_56">
      <g>
       <use xlink:href="#mfa32c30405" x="28.942188" y="142.215288" style="stroke: #000000; stroke-width: 0.6"/>
      </g>
     </g>
    </g>
    <g id="ytick_24">
     <g id="line2d_57">
      <g>
       <use xlink:href="#mfa32c30405" x="28.942188" y="132.992933" style="stroke: #000000; stroke-width: 0.6"/>
      </g>
     </g>
    </g>
    <g id="ytick_25">
     <g id="line2d_58">
      <g>
       <use xlink:href="#mfa32c30405" x="28.942188" y="114.548221" style="stroke: #000000; stroke-width: 0.6"/>
      </g>
     </g>
    </g>
    <g id="ytick_26">
     <g id="line2d_59">
      <g>
       <use xlink:href="#mfa32c30405" x="28.942188" y="105.325865" style="stroke: #000000; stroke-width: 0.6"/>
      </g>
     </g>
    </g>
    <g id="ytick_27">
     <g id="line2d_60">
      <g>
       <use xlink:href="#mfa32c30405" x="28.942188" y="96.10351" style="stroke: #000000; stroke-width: 0.6"/>
      </g>
     </g>
    </g>
    <g id="ytick_28">
     <g id="line2d_61">
      <g>
       <use xlink:href="#mfa32c30405" x="28.942188" y="77.658798" style="stroke: #000000; stroke-width: 0.6"/>
      </g>
     </g>
    </g>
    <g id="ytick_29">
     <g id="line2d_62">
      <g>
       <use xlink:href="#mfa32c30405" x="28.942188" y="68.436442" style="stroke: #000000; stroke-width: 0.6"/>
      </g>
     </g>
    </g>
    <g id="ytick_30">
     <g id="line2d_63">
      <g>
       <use xlink:href="#mfa32c30405" x="28.942188" y="59.214087" style="stroke: #000000; stroke-width: 0.6"/>
      </g>
     </g>
    </g>
    <g id="ytick_31">
     <g id="line2d_64">
      <g>
       <use xlink:href="#mfa32c30405" x="28.942188" y="40.769375" style="stroke: #000000; stroke-width: 0.6"/>
      </g>
     </g>
    </g>
    <g id="ytick_32">
     <g id="line2d_65">
      <g>
       <use xlink:href="#mfa32c30405" x="28.942188" y="31.547019" style="stroke: #000000; stroke-width: 0.6"/>
      </g>
     </g>
    </g>
    <g id="ytick_33">
     <g id="line2d_66">
      <g>
       <use xlink:href="#mfa32c30405" x="28.942188" y="22.324663" style="stroke: #000000; stroke-width: 0.6"/>
      </g>
     </g>
    </g>
   </g>
   <g id="PathCollection_1"/>
   <g id="PathCollection_2">
    <path d="M 145.52635 308.217692 
L 148.121107 307.582241 
L 151.102071 306.913046 
L 154.083034 306.304686 
L 157.063998 305.757162 
L 160.044961 305.270474 
L 160.281176 305.236729 
L 163.025925 304.836453 
L 166.006888 304.463833 
L 168.987852 304.153316 
L 171.968815 303.904902 
L 174.949779 303.718592 
L 177.930742 303.594385 
L 180.911706 303.532281 
L 183.892669 303.532281 
L 186.873633 303.594385 
L 189.854596 303.718592 
L 192.83556 303.904902 
L 195.816523 304.153316 
L 198.797487 304.463833 
L 201.77845 304.836453 
L 204.523199 305.236729 
L 204.759414 305.270474 
L 207.740377 305.757162 
L 210.721341 306.304686 
L 213.702304 306.913046 
L 216.683268 307.582241 
L 219.278025 308.217692 
" clip-path="url(#p09860f283b)" style="fill: none; stroke: #ffbd00; stroke-width: 1.5"/>
    <path d="M 219.278025 13.102308 
L 216.683268 13.737759 
L 213.702304 14.406954 
L 210.721341 15.015314 
L 207.740377 15.562838 
L 204.759414 16.049526 
L 204.523199 16.083271 
L 201.77845 16.483547 
L 198.797487 16.856167 
L 195.816523 17.166684 
L 192.83556 17.415098 
L 189.854596 17.601408 
L 186.873633 17.725615 
L 183.892669 17.787719 
L 180.911706 17.787719 
L 177.930742 17.725615 
L 174.949779 17.601408 
L 171.968815 17.415098 
L 168.987852 17.166684 
L 166.006888 16.856167 
L 163.025925 16.483547 
L 160.281176 16.083271 
L 160.044961 16.049526 
L 157.063998 15.562838 
L 154.083034 15.015314 
L 151.102071 14.406954 
L 148.121107 13.737759 
L 145.52635 13.102308 
" clip-path="url(#p09860f283b)" style="fill: none; stroke: #ffbd00; stroke-width: 1.5"/>
   </g>
   <g id="PathCollection_3">
    <path d="M 92.049495 308.217692 
L 94.463765 306.739568 
L 97.003045 305.236729 
L 97.444728 304.969878 
L 100.425692 303.230983 
L 102.159412 302.255765 
L 103.406655 301.539264 
L 106.387619 299.89022 
L 107.544605 299.274802 
L 109.368582 298.28351 
L 112.349546 296.728225 
L 113.218318 296.293838 
L 115.330509 295.214274 
L 118.311473 293.756914 
L 119.262986 293.312875 
L 121.292436 292.344273 
L 124.2734 290.98929 
L 125.79575 290.331911 
L 127.254363 289.687408 
L 130.235327 288.439563 
L 132.988882 287.350948 
L 133.21629 287.258902 
L 136.197254 286.123297 
L 139.178217 285.058667 
L 141.244264 284.369984 
L 142.159181 284.057574 
L 145.140144 283.11239 
L 148.121107 282.239913 
L 151.102071 281.440143 
L 151.31167 281.389021 
L 154.083034 280.69618 
L 157.063998 280.025463 
L 160.044961 279.42927 
L 163.025925 278.907602 
L 166.006888 278.460457 
L 166.426086 278.408057 
L 168.987852 278.079626 
L 171.968815 277.773886 
L 174.949779 277.544581 
L 177.930742 277.391711 
L 180.911706 277.315276 
L 183.892669 277.315276 
L 186.873633 277.391711 
L 189.854596 277.544581 
L 192.83556 277.773886 
L 195.816523 278.079626 
L 198.378289 278.408057 
L 198.797487 278.460457 
L 201.77845 278.907602 
L 204.759414 279.42927 
L 207.740377 280.025463 
L 210.721341 280.69618 
L 213.492705 281.389021 
L 213.702304 281.440143 
L 216.683268 282.239913 
L 219.664231 283.11239 
L 222.645194 284.057574 
L 223.560111 284.369984 
L 225.626158 285.058667 
L 228.607121 286.123297 
L 231.588085 287.258902 
L 231.815493 287.350948 
L 234.569048 288.439563 
L 237.550012 289.687408 
L 239.008625 290.331911 
L 240.530975 290.98929 
L 243.511939 292.344273 
L 245.541389 293.312875 
L 246.492902 293.756914 
L 249.473866 295.214274 
L 251.586057 296.293838 
L 252.454829 296.728225 
L 255.435793 298.28351 
L 257.25977 299.274802 
L 258.416756 299.89022 
L 261.39772 301.539264 
L 262.644963 302.255765 
L 264.378683 303.230983 
L 267.359647 304.969878 
L 267.80133 305.236729 
L 270.34061 306.739568 
L 272.75488 308.217692 
" clip-path="url(#p09860f283b)" style="fill: none; stroke: #84ff00; stroke-width: 1.5"/>
    <path d="M 272.75488 13.102308 
L 270.34061 14.580432 
L 267.80133 16.083271 
L 267.359647 16.350122 
L 264.378683 18.089017 
L 262.644963 19.064235 
L 261.39772 19.780736 
L 258.416756 21.42978 
L 257.25977 22.045198 
L 255.435793 23.03649 
L 252.454829 24.591775 
L 251.586057 25.026162 
L 249.473866 26.105726 
L 246.492902 27.563086 
L 245.541389 28.007125 
L 243.511939 28.975727 
L 240.530975 30.33071 
L 239.008625 30.988089 
L 237.550012 31.632592 
L 234.569048 32.880437 
L 231.815493 33.969052 
L 231.588085 34.061098 
L 228.607121 35.196703 
L 225.626158 36.261333 
L 223.560111 36.950016 
L 222.645194 37.262426 
L 219.664231 38.20761 
L 216.683268 39.080087 
L 213.702304 39.879857 
L 213.492705 39.930979 
L 210.721341 40.62382 
L 207.740377 41.294537 
L 204.759414 41.89073 
L 201.77845 42.412398 
L 198.797487 42.859543 
L 198.378289 42.911943 
L 195.816523 43.240374 
L 192.83556 43.546114 
L 189.854596 43.775419 
L 186.873633 43.928289 
L 183.892669 44.004724 
L 180.911706 44.004724 
L 177.930742 43.928289 
L 174.949779 43.775419 
L 171.968815 43.546114 
L 168.987852 43.240374 
L 166.426086 42.911943 
L 166.006888 42.859543 
L 163.025925 42.412398 
L 160.044961 41.89073 
L 157.063998 41.294537 
L 154.083034 40.62382 
L 151.31167 39.930979 
L 151.102071 39.879857 
L 148.121107 39.080087 
L 145.140144 38.20761 
L 142.159181 37.262426 
L 141.244264 36.950016 
L 139.178217 36.261333 
L 136.197254 35.196703 
L 133.21629 34.061098 
L 132.988882 33.969052 
L 130.235327 32.880437 
L 127.254363 31.632592 
L 125.79575 30.988089 
L 124.2734 30.33071 
L 121.292436 28.975727 
L 119.262986 28.007125 
L 118.311473 27.563086 
L 115.330509 26.105726 
L 113.218318 25.026162 
L 112.349546 24.591775 
L 109.368582 23.03649 
L 107.544605 22.045198 
L 106.387619 21.42978 
L 103.406655 19.780736 
L 102.159412 19.064235 
L 100.425692 18.089017 
L 97.444728 16.350122 
L 97.003045 16.083271 
L 94.463765 14.580432 
L 92.049495 13.102308 
" clip-path="url(#p09860f283b)" style="fill: none; stroke: #84ff00; stroke-width: 1.5"/>
   </g>
   <g id="PathCollection_4">
    <path d="M 60.062833 308.217692 
L 61.673167 306.87027 
L 63.674255 305.236729 
L 64.65413 304.420166 
L 67.318008 302.255765 
L 67.635093 301.992652 
L 70.616057 299.582511 
L 71.006931 299.274802 
L 73.59702 297.191469 
L 74.743993 296.293838 
L 76.577984 294.826645 
L 78.52426 293.312875 
L 79.558947 292.489828 
L 82.351546 290.331911 
L 82.539911 290.182972 
L 85.520874 287.895255 
L 86.252288 287.350948 
L 88.501838 285.637005 
L 90.218446 284.369984 
L 91.482801 283.414009 
L 94.250284 281.389021 
L 94.463765 281.228911 
L 97.444728 279.067712 
L 98.387092 278.408057 
L 100.425692 276.944447 
L 102.617424 275.427094 
L 103.406655 274.866325 
L 106.387619 272.826718 
L 106.966112 272.446131 
L 109.368582 270.82284 
L 111.461661 269.465167 
L 112.349546 268.873244 
L 115.330509 266.96874 
L 116.123386 266.484204 
L 118.311473 265.108835 
L 120.987464 263.50324 
L 121.292436 263.314875 
L 124.2734 261.561367 
L 126.132825 260.522277 
L 127.254363 259.876542 
L 130.235327 258.250562 
L 131.612104 257.541313 
L 133.21629 256.689089 
L 136.197254 255.198608 
L 137.558871 254.56035 
L 139.178217 253.776795 
L 142.159181 252.430553 
L 144.188887 251.579386 
L 145.140144 251.167175 
L 148.121107 249.974789 
L 151.102071 248.881769 
L 151.952111 248.598423 
L 154.083034 247.863622 
L 157.063998 246.938495 
L 160.044961 246.11616 
L 162.111009 245.617459 
L 163.025925 245.38873 
L 166.006888 244.749952 
L 168.987852 244.217637 
L 171.968815 243.791785 
L 174.949779 243.472396 
L 177.930742 243.259471 
L 180.911706 243.153008 
L 183.892669 243.153008 
L 186.873633 243.259471 
L 189.854596 243.472396 
L 192.83556 243.791785 
L 195.816523 244.217637 
L 198.797487 244.749952 
L 201.77845 245.38873 
L 202.693366 245.617459 
L 204.759414 246.11616 
L 207.740377 246.938495 
L 210.721341 247.863622 
L 212.852264 248.598423 
L 213.702304 248.881769 
L 216.683268 249.974789 
L 219.664231 251.167175 
L 220.615488 251.579386 
L 222.645194 252.430553 
L 225.626158 253.776795 
L 227.245504 254.56035 
L 228.607121 255.198608 
L 231.588085 256.689089 
L 233.192271 257.541313 
L 234.569048 258.250562 
L 237.550012 259.876542 
L 238.67155 260.522277 
L 240.530975 261.561367 
L 243.511939 263.314875 
L 243.816911 263.50324 
L 246.492902 265.108835 
L 248.680989 266.484204 
L 249.473866 266.96874 
L 252.454829 268.873244 
L 253.342714 269.465167 
L 255.435793 270.82284 
L 257.838263 272.446131 
L 258.416756 272.826718 
L 261.39772 274.866325 
L 262.186951 275.427094 
L 264.378683 276.944447 
L 266.417283 278.408057 
L 267.359647 279.067712 
L 270.34061 281.228911 
L 270.554091 281.389021 
L 273.321574 283.414009 
L 274.585929 284.369984 
L 276.302537 285.637005 
L 278.552087 287.350948 
L 279.283501 287.895255 
L 282.264464 290.182972 
L 282.452829 290.331911 
L 285.245428 292.489828 
L 286.280115 293.312875 
L 288.226391 294.826645 
L 290.060382 296.293838 
L 291.207355 297.191469 
L 293.797444 299.274802 
L 294.188318 299.582511 
L 297.169282 301.992652 
L 297.486367 302.255765 
L 300.150245 304.420166 
L 301.13012 305.236729 
L 303.131208 306.87027 
L 304.741542 308.217692 
" clip-path="url(#p09860f283b)" style="fill: none; stroke: #00ff39; stroke-width: 1.5"/>
    <path d="M 304.741542 13.102308 
L 303.131208 14.44973 
L 301.13012 16.083271 
L 300.150245 16.899834 
L 297.486367 19.064235 
L 297.169282 19.327348 
L 294.188318 21.737489 
L 293.797444 22.045198 
L 291.207355 24.128531 
L 290.060382 25.026162 
L 288.226391 26.493355 
L 286.280115 28.007125 
L 285.245428 28.830172 
L 282.452829 30.988089 
L 282.264464 31.137028 
L 279.283501 33.424745 
L 278.552087 33.969052 
L 276.302537 35.682995 
L 274.585929 36.950016 
L 273.321574 37.905991 
L 270.554091 39.930979 
L 270.34061 40.091089 
L 267.359647 42.252288 
L 266.417283 42.911943 
L 264.378683 44.375553 
L 262.186951 45.892906 
L 261.39772 46.453675 
L 258.416756 48.493282 
L 257.838263 48.873869 
L 255.435793 50.49716 
L 253.342714 51.854833 
L 252.454829 52.446756 
L 249.473866 54.35126 
L 248.680989 54.835796 
L 246.492902 56.211165 
L 243.816911 57.81676 
L 243.511939 58.005125 
L 240.530975 59.758633 
L 238.67155 60.797723 
L 237.550012 61.443458 
L 234.569048 63.069438 
L 233.192271 63.778687 
L 231.588085 64.630911 
L 228.607121 66.121392 
L 227.245504 66.75965 
L 225.626158 67.543205 
L 222.645194 68.889447 
L 220.615488 69.740614 
L 219.664231 70.152825 
L 216.683268 71.345211 
L 213.702304 72.438231 
L 212.852264 72.721577 
L 210.721341 73.456378 
L 207.740377 74.381505 
L 204.759414 75.20384 
L 202.693366 75.702541 
L 201.77845 75.93127 
L 198.797487 76.570048 
L 195.816523 77.102363 
L 192.83556 77.528215 
L 189.854596 77.847604 
L 186.873633 78.060529 
L 183.892669 78.166992 
L 180.911706 78.166992 
L 177.930742 78.060529 
L 174.949779 77.847604 
L 171.968815 77.528215 
L 168.987852 77.102363 
L 166.006888 76.570048 
L 163.025925 75.93127 
L 162.111009 75.702541 
L 160.044961 75.20384 
L 157.063998 74.381505 
L 154.083034 73.456378 
L 151.952111 72.721577 
L 151.102071 72.438231 
L 148.121107 71.345211 
L 145.140144 70.152825 
L 144.188887 69.740614 
L 142.159181 68.889447 
L 139.178217 67.543205 
L 137.558871 66.75965 
L 136.197254 66.121392 
L 133.21629 64.630911 
L 131.612104 63.778687 
L 130.235327 63.069438 
L 127.254363 61.443458 
L 126.132825 60.797723 
L 124.2734 59.758633 
L 121.292436 58.005125 
L 120.987464 57.81676 
L 118.311473 56.211165 
L 116.123386 54.835796 
L 115.330509 54.35126 
L 112.349546 52.446756 
L 111.461661 51.854833 
L 109.368582 50.49716 
L 106.966112 48.873869 
L 106.387619 48.493282 
L 103.406655 46.453675 
L 102.617424 45.892906 
L 100.425692 44.375553 
L 98.387092 42.911943 
L 97.444728 42.252288 
L 94.463765 40.091089 
L 94.250284 39.930979 
L 91.482801 37.905991 
L 90.218446 36.950016 
L 88.501838 35.682995 
L 86.252288 33.969052 
L 85.520874 33.424745 
L 82.539911 31.137028 
L 82.351546 30.988089 
L 79.558947 28.830172 
L 78.52426 28.007125 
L 76.577984 26.493355 
L 74.743993 25.026162 
L 73.59702 24.128531 
L 71.006931 22.045198 
L 70.616057 21.737489 
L 67.635093 19.327348 
L 67.318008 19.064235 
L 64.65413 16.899834 
L 63.674255 16.083271 
L 61.673167 14.44973 
L 60.062833 13.102308 
" clip-path="url(#p09860f283b)" style="fill: none; stroke: #00ff39; stroke-width: 1.5"/>
   </g>
   <g id="PathCollection_5">
    <path d="M 34.844495 308.217692 
L 180.911706 162.150482 
L 180.911706 159.169518 
L 34.844495 13.102308 
L 34.844495 13.102308 
" clip-path="url(#p09860f283b)" style="fill: none; stroke: #00fff6; stroke-width: 1.5"/>
    <path d="M 329.95988 13.102308 
L 180.911706 162.150482 
L 183.892669 162.150482 
L 329.95988 308.217692 
L 329.95988 308.217692 
" clip-path="url(#p09860f283b)" style="fill: none; stroke: #00fff6; stroke-width: 1.5"/>
   </g>
   <g id="PathCollection_6">
    <path d="M 34.844495 282.999355 
L 36.191917 281.389021 
L 37.825459 279.387933 
L 38.642021 278.408057 
L 40.806422 275.74418 
L 41.069536 275.427094 
L 43.479676 272.446131 
L 43.787386 272.055257 
L 45.870719 269.465167 
L 46.768349 268.318195 
L 48.235542 266.484204 
L 49.749313 264.537927 
L 50.572359 263.50324 
L 52.730276 260.710642 
L 52.879216 260.522277 
L 55.166932 257.541313 
L 55.71124 256.8099 
L 57.425183 254.56035 
L 58.692203 252.843741 
L 59.648179 251.579386 
L 61.673167 248.811903 
L 61.833277 248.598423 
L 63.994475 245.617459 
L 64.65413 244.675095 
L 66.11774 242.636496 
L 67.635093 240.444763 
L 68.195863 239.655532 
L 70.235469 236.674569 
L 70.616057 236.096076 
L 72.239348 233.693605 
L 73.59702 231.600526 
L 74.188944 230.712642 
L 76.093448 227.731678 
L 76.577984 226.938801 
L 77.953353 224.750715 
L 79.558947 222.074723 
L 79.747313 221.769751 
L 81.50082 218.788788 
L 82.539911 216.929363 
L 83.185645 215.807824 
L 84.811625 212.826861 
L 85.520874 211.450083 
L 86.373098 209.845897 
L 87.86358 206.864934 
L 88.501838 205.503317 
L 89.285393 203.88397 
L 90.631634 200.903007 
L 91.482801 198.8733 
L 91.895013 197.922044 
L 93.087398 194.94108 
L 94.180418 191.960117 
L 94.463765 191.110076 
L 95.198566 188.979153 
L 96.123692 185.99819 
L 96.946027 183.017226 
L 97.444728 180.951179 
L 97.673457 180.036263 
L 98.312235 177.055299 
L 98.84455 174.074336 
L 99.270402 171.093372 
L 99.589791 168.112409 
L 99.802717 165.131445 
L 99.90918 162.150482 
L 99.90918 159.169518 
L 99.802717 156.188555 
L 99.589791 153.207591 
L 99.270402 150.226628 
L 98.84455 147.245664 
L 98.312235 144.264701 
L 97.673457 141.283737 
L 97.444728 140.368821 
L 96.946027 138.302774 
L 96.123692 135.32181 
L 95.198566 132.340847 
L 94.463765 130.209924 
L 94.180418 129.359883 
L 93.087398 126.37892 
L 91.895013 123.397956 
L 91.482801 122.4467 
L 90.631634 120.416993 
L 89.285393 117.43603 
L 88.501838 115.816683 
L 87.86358 114.455066 
L 86.373098 111.474103 
L 85.520874 109.869917 
L 84.811625 108.493139 
L 83.185645 105.512176 
L 82.539911 104.390637 
L 81.50082 102.531212 
L 79.747313 99.550249 
L 79.558947 99.245277 
L 77.953353 96.569285 
L 76.577984 94.381199 
L 76.093448 93.588322 
L 74.188944 90.607358 
L 73.59702 89.719474 
L 72.239348 87.626395 
L 70.616057 85.223924 
L 70.235469 84.645431 
L 68.195863 81.664468 
L 67.635093 80.875237 
L 66.11774 78.683504 
L 64.65413 76.644905 
L 63.994475 75.702541 
L 61.833277 72.721577 
L 61.673167 72.508097 
L 59.648179 69.740614 
L 58.692203 68.476259 
L 57.425183 66.75965 
L 55.71124 64.5101 
L 55.166932 63.778687 
L 52.879216 60.797723 
L 52.730276 60.609358 
L 50.572359 57.81676 
L 49.749313 56.782073 
L 48.235542 54.835796 
L 46.768349 53.001805 
L 45.870719 51.854833 
L 43.787386 49.264743 
L 43.479676 48.873869 
L 41.069536 45.892906 
L 40.806422 45.57582 
L 38.642021 42.911943 
L 37.825459 41.932067 
L 36.191917 39.930979 
L 34.844495 38.320645 
" clip-path="url(#p09860f283b)" style="fill: none; stroke: #004bff; stroke-width: 1.5"/>
    <path d="M 329.95988 38.320645 
L 328.612458 39.930979 
L 326.978916 41.932067 
L 326.162354 42.911943 
L 323.997953 45.57582 
L 323.734839 45.892906 
L 321.324699 48.873869 
L 321.016989 49.264743 
L 318.933656 51.854833 
L 318.036026 53.001805 
L 316.568833 54.835796 
L 315.055062 56.782073 
L 314.232016 57.81676 
L 312.074099 60.609358 
L 311.925159 60.797723 
L 309.637443 63.778687 
L 309.093135 64.5101 
L 307.379192 66.75965 
L 306.112172 68.476259 
L 305.156196 69.740614 
L 303.131208 72.508097 
L 302.971098 72.721577 
L 300.8099 75.702541 
L 300.150245 76.644905 
L 298.686635 78.683504 
L 297.169282 80.875237 
L 296.608512 81.664468 
L 294.568906 84.645431 
L 294.188318 85.223924 
L 292.565027 87.626395 
L 291.207355 89.719474 
L 290.615431 90.607358 
L 288.710927 93.588322 
L 288.226391 94.381199 
L 286.851022 96.569285 
L 285.245428 99.245277 
L 285.057062 99.550249 
L 283.303555 102.531212 
L 282.264464 104.390637 
L 281.61873 105.512176 
L 279.99275 108.493139 
L 279.283501 109.869917 
L 278.431277 111.474103 
L 276.940795 114.455066 
L 276.302537 115.816683 
L 275.518982 117.43603 
L 274.172741 120.416993 
L 273.321574 122.4467 
L 272.909362 123.397956 
L 271.716977 126.37892 
L 270.623957 129.359883 
L 270.34061 130.209924 
L 269.605809 132.340847 
L 268.680683 135.32181 
L 267.858348 138.302774 
L 267.359647 140.368821 
L 267.130918 141.283737 
L 266.49214 144.264701 
L 265.959825 147.245664 
L 265.533973 150.226628 
L 265.214584 153.207591 
L 265.001658 156.188555 
L 264.895195 159.169518 
L 264.895195 162.150482 
L 265.001658 165.131445 
L 265.214584 168.112409 
L 265.533973 171.093372 
L 265.959825 174.074336 
L 266.49214 177.055299 
L 267.130918 180.036263 
L 267.359647 180.951179 
L 267.858348 183.017226 
L 268.680683 185.99819 
L 269.605809 188.979153 
L 270.34061 191.110076 
L 270.623957 191.960117 
L 271.716977 194.94108 
L 272.909362 197.922044 
L 273.321574 198.8733 
L 274.172741 200.903007 
L 275.518982 203.88397 
L 276.302537 205.503317 
L 276.940795 206.864934 
L 278.431277 209.845897 
L 279.283501 211.450083 
L 279.99275 212.826861 
L 281.61873 215.807824 
L 282.264464 216.929363 
L 283.303555 218.788788 
L 285.057062 221.769751 
L 285.245428 222.074723 
L 286.851022 224.750715 
L 288.226391 226.938801 
L 288.710927 227.731678 
L 290.615431 230.712642 
L 291.207355 231.600526 
L 292.565027 233.693605 
L 294.188318 236.096076 
L 294.568906 236.674569 
L 296.608512 239.655532 
L 297.169282 240.444763 
L 298.686635 242.636496 
L 300.150245 244.675095 
L 300.8099 245.617459 
L 302.971098 248.598423 
L 303.131208 248.811903 
L 305.156196 251.579386 
L 306.112172 252.843741 
L 307.379192 254.56035 
L 309.093135 256.8099 
L 309.637443 257.541313 
L 311.925159 260.522277 
L 312.074099 260.710642 
L 314.232016 263.50324 
L 315.055062 264.537927 
L 316.568833 266.484204 
L 318.036026 268.318195 
L 318.933656 269.465167 
L 321.016989 272.055257 
L 321.324699 272.446131 
L 323.734839 275.427094 
L 323.997953 275.74418 
L 326.162354 278.408057 
L 326.978916 279.387933 
L 328.612458 281.389021 
L 329.95988 282.999355 
" clip-path="url(#p09860f283b)" style="fill: none; stroke: #004bff; stroke-width: 1.5"/>
   </g>
   <g id="PathCollection_7">
    <path d="M 34.844495 251.012693 
L 36.32262 248.598423 
L 37.825459 246.059143 
L 38.092309 245.617459 
L 39.831205 242.636496 
L 40.806422 240.902776 
L 41.522924 239.655532 
L 43.171967 236.674569 
L 43.787386 235.517582 
L 44.778677 233.693605 
L 46.333963 230.712642 
L 46.768349 229.843869 
L 47.847913 227.731678 
L 49.305273 224.750715 
L 49.749313 223.799202 
L 50.717914 221.769751 
L 52.072897 218.788788 
L 52.730276 217.266437 
L 53.374779 215.807824 
L 54.622625 212.826861 
L 55.71124 210.073305 
L 55.803286 209.845897 
L 56.938891 206.864934 
L 58.003521 203.88397 
L 58.692203 201.817923 
L 59.004613 200.903007 
L 59.949797 197.922044 
L 60.822274 194.94108 
L 61.622045 191.960117 
L 61.673167 191.750518 
L 62.366008 188.979153 
L 63.036724 185.99819 
L 63.632917 183.017226 
L 64.154586 180.036263 
L 64.60173 177.055299 
L 64.65413 176.636101 
L 64.982561 174.074336 
L 65.288301 171.093372 
L 65.517606 168.112409 
L 65.670476 165.131445 
L 65.746911 162.150482 
L 65.746911 159.169518 
L 65.670476 156.188555 
L 65.517606 153.207591 
L 65.288301 150.226628 
L 64.982561 147.245664 
L 64.65413 144.683899 
L 64.60173 144.264701 
L 64.154586 141.283737 
L 63.632917 138.302774 
L 63.036724 135.32181 
L 62.366008 132.340847 
L 61.673167 129.569482 
L 61.622045 129.359883 
L 60.822274 126.37892 
L 59.949797 123.397956 
L 59.004613 120.416993 
L 58.692203 119.502077 
L 58.003521 117.43603 
L 56.938891 114.455066 
L 55.803286 111.474103 
L 55.71124 111.246695 
L 54.622625 108.493139 
L 53.374779 105.512176 
L 52.730276 104.053563 
L 52.072897 102.531212 
L 50.717914 99.550249 
L 49.749313 97.520798 
L 49.305273 96.569285 
L 47.847913 93.588322 
L 46.768349 91.476131 
L 46.333963 90.607358 
L 44.778677 87.626395 
L 43.787386 85.802418 
L 43.171967 84.645431 
L 41.522924 81.664468 
L 40.806422 80.417224 
L 39.831205 78.683504 
L 38.092309 75.702541 
L 37.825459 75.260857 
L 36.32262 72.721577 
L 34.844495 70.307307 
" clip-path="url(#p09860f283b)" style="fill: none; stroke: #7200ff; stroke-width: 1.5"/>
    <path d="M 329.95988 70.307307 
L 328.481755 72.721577 
L 326.978916 75.260857 
L 326.712066 75.702541 
L 324.97317 78.683504 
L 323.997953 80.417224 
L 323.281451 81.664468 
L 321.632408 84.645431 
L 321.016989 85.802418 
L 320.025698 87.626395 
L 318.470412 90.607358 
L 318.036026 91.476131 
L 316.956462 93.588322 
L 315.499102 96.569285 
L 315.055062 97.520798 
L 314.086461 99.550249 
L 312.731478 102.531212 
L 312.074099 104.053563 
L 311.429596 105.512176 
L 310.18175 108.493139 
L 309.093135 111.246695 
L 309.001089 111.474103 
L 307.865484 114.455066 
L 306.800854 117.43603 
L 306.112172 119.502077 
L 305.799762 120.416993 
L 304.854578 123.397956 
L 303.982101 126.37892 
L 303.18233 129.359883 
L 303.131208 129.569482 
L 302.438367 132.340847 
L 301.767651 135.32181 
L 301.171458 138.302774 
L 300.649789 141.283737 
L 300.202645 144.264701 
L 300.150245 144.683899 
L 299.821814 147.245664 
L 299.516074 150.226628 
L 299.286769 153.207591 
L 299.133899 156.188555 
L 299.057464 159.169518 
L 299.057464 162.150482 
L 299.133899 165.131445 
L 299.286769 168.112409 
L 299.516074 171.093372 
L 299.821814 174.074336 
L 300.150245 176.636101 
L 300.202645 177.055299 
L 300.649789 180.036263 
L 301.171458 183.017226 
L 301.767651 185.99819 
L 302.438367 188.979153 
L 303.131208 191.750518 
L 303.18233 191.960117 
L 303.982101 194.94108 
L 304.854578 197.922044 
L 305.799762 200.903007 
L 306.112172 201.817923 
L 306.800854 203.88397 
L 307.865484 206.864934 
L 309.001089 209.845897 
L 309.093135 210.073305 
L 310.18175 212.826861 
L 311.429596 215.807824 
L 312.074099 217.266437 
L 312.731478 218.788788 
L 314.086461 221.769751 
L 315.055062 223.799202 
L 315.499102 224.750715 
L 316.956462 227.731678 
L 318.036026 229.843869 
L 318.470412 230.712642 
L 320.025698 233.693605 
L 321.016989 235.517582 
L 321.632408 236.674569 
L 323.281451 239.655532 
L 323.997953 240.902776 
L 324.97317 242.636496 
L 326.712066 245.617459 
L 326.978916 246.059143 
L 328.481755 248.598423 
L 329.95988 251.012693 
" clip-path="url(#p09860f283b)" style="fill: none; stroke: #7200ff; stroke-width: 1.5"/>
   </g>
   <g id="PathCollection_8">
    <path d="M 34.844495 197.535838 
L 35.479946 194.94108 
L 36.149142 191.960117 
L 36.757502 188.979153 
L 37.305026 185.99819 
L 37.791714 183.017226 
L 37.825459 182.781011 
L 38.225735 180.036263 
L 38.598355 177.055299 
L 38.908872 174.074336 
L 39.157286 171.093372 
L 39.343596 168.112409 
L 39.467803 165.131445 
L 39.529906 162.150482 
L 39.529906 159.169518 
L 39.467803 156.188555 
L 39.343596 153.207591 
L 39.157286 150.226628 
L 38.908872 147.245664 
L 38.598355 144.264701 
L 38.225735 141.283737 
L 37.825459 138.538989 
L 37.791714 138.302774 
L 37.305026 135.32181 
L 36.757502 132.340847 
L 36.149142 129.359883 
L 35.479946 126.37892 
L 34.844495 123.784162 
" clip-path="url(#p09860f283b)" style="fill: none; stroke: #ff00cf; stroke-width: 1.5"/>
    <path d="M 329.95988 123.784162 
L 329.324429 126.37892 
L 328.655233 129.359883 
L 328.046873 132.340847 
L 327.499349 135.32181 
L 327.012661 138.302774 
L 326.978916 138.538989 
L 326.57864 141.283737 
L 326.20602 144.264701 
L 325.895503 147.245664 
L 325.647089 150.226628 
L 325.460779 153.207591 
L 325.336572 156.188555 
L 325.274469 159.169518 
L 325.274469 162.150482 
L 325.336572 165.131445 
L 325.460779 168.112409 
L 325.647089 171.093372 
L 325.895503 174.074336 
L 326.20602 177.055299 
L 326.57864 180.036263 
L 326.978916 182.781011 
L 327.012661 183.017226 
L 327.499349 185.99819 
L 328.046873 188.979153 
L 328.655233 191.960117 
L 329.324429 194.94108 
L 329.95988 197.535838 
" clip-path="url(#p09860f283b)" style="fill: none; stroke: #ff00cf; stroke-width: 1.5"/>
   </g>
   <g id="PathCollection_9"/>
   <g id="patch_3">
    <path d="M 28.942188 314.12 
L 28.942188 7.2 
" style="fill: none; stroke: #000000; stroke-width: 0.8; stroke-linejoin: miter; stroke-linecap: square"/>
   </g>
   <g id="patch_4">
    <path d="M 335.862187 314.12 
L 335.862187 7.2 
" style="fill: none; stroke: #000000; stroke-width: 0.8; stroke-linejoin: miter; stroke-linecap: square"/>
   </g>
   <g id="patch_5">
    <path d="M 28.942188 314.12 
L 335.862187 314.12 
" style="fill: none; stroke: #000000; stroke-width: 0.8; stroke-linejoin: miter; stroke-linecap: square"/>
   </g>
   <g id="patch_6">
    <path d="M 28.942188 7.2 
L 335.862187 7.2 
" style="fill: none; stroke: #000000; stroke-width: 0.8; stroke-linejoin: miter; stroke-linecap: square"/>
   </g>
   <g id="text_19">
    <g clip-path="url(#p09860f283b)">
     <!-- -60.00 -->
     <g style="fill: #0000ff" transform="translate(169.367699 305.903296) rotate(-359.556246) scale(0.09 -0.09)">
      <defs>
       <path id="DejaVuSans-2d" d="M 313 2009 
L 1997 2009 
L 1997 1497 
L 313 1497 
L 313 2009 
z
" transform="scale(0.015625)"/>
       <path id="DejaVuSans-2e" d="M 684 794 
L 1344 794 
L 1344 0 
L 684 0 
L 684 794 
z
" transform="scale(0.015625)"/>
      </defs>
      <use xlink:href="#DejaVuSans-2d"/>
      <use xlink:href="#DejaVuSans-36" x="36.083984"/>
      <use xlink:href="#DejaVuSans-30" x="99.707031"/>
      <use xlink:href="#DejaVuSans-2e" x="163.330078"/>
      <use xlink:href="#DejaVuSans-30" x="195.117188"/>
      <use xlink:href="#DejaVuSans-30" x="258.740234"/>
     </g>
    </g>
   </g>
   <g id="text_20">
    <g clip-path="url(#p09860f283b)">
     <!-- -60.00 -->
     <g style="fill: #0000ff" transform="translate(166.386735 20.158733) rotate(-359.556246) scale(0.09 -0.09)">
      <use xlink:href="#DejaVuSans-2d"/>
      <use xlink:href="#DejaVuSans-36" x="36.083984"/>
      <use xlink:href="#DejaVuSans-30" x="99.707031"/>
      <use xlink:href="#DejaVuSans-2e" x="163.330078"/>
      <use xlink:href="#DejaVuSans-30" x="195.117188"/>
      <use xlink:href="#DejaVuSans-30" x="258.740234"/>
     </g>
    </g>
   </g>
   <g id="text_21">
    <g clip-path="url(#p09860f283b)">
     <!-- -40.00 -->
     <g style="fill: #0000ff" transform="translate(119.743188 293.765625) rotate(-16.125381) scale(0.09 -0.09)">
      <use xlink:href="#DejaVuSans-2d"/>
      <use xlink:href="#DejaVuSans-34" x="36.083984"/>
      <use xlink:href="#DejaVuSans-30" x="99.707031"/>
      <use xlink:href="#DejaVuSans-2e" x="163.330078"/>
      <use xlink:href="#DejaVuSans-30" x="195.117188"/>
      <use xlink:href="#DejaVuSans-30" x="258.740234"/>
     </g>
    </g>
   </g>
   <g id="text_22">
    <g clip-path="url(#p09860f283b)">
     <!-- -40.00 -->
     <g style="fill: #0000ff" transform="translate(218.569799 40.383729) rotate(-16.125381) scale(0.09 -0.09)">
      <use xlink:href="#DejaVuSans-2d"/>
      <use xlink:href="#DejaVuSans-34" x="36.083984"/>
      <use xlink:href="#DejaVuSans-30" x="99.707031"/>
      <use xlink:href="#DejaVuSans-2e" x="163.330078"/>
      <use xlink:href="#DejaVuSans-30" x="195.117188"/>
      <use xlink:href="#DejaVuSans-30" x="258.740234"/>
     </g>
    </g>
   </g>
   <g id="text_23">
    <g clip-path="url(#p09860f283b)">
     <!-- -20.00 -->
     <g style="fill: #0000ff" transform="translate(82.686886 290.493103) rotate(-28.499245) scale(0.09 -0.09)">
      <use xlink:href="#DejaVuSans-2d"/>
      <use xlink:href="#DejaVuSans-32" x="36.083984"/>
      <use xlink:href="#DejaVuSans-30" x="99.707031"/>
      <use xlink:href="#DejaVuSans-2e" x="163.330078"/>
      <use xlink:href="#DejaVuSans-30" x="195.117188"/>
      <use xlink:href="#DejaVuSans-30" x="258.740234"/>
     </g>
    </g>
   </g>
   <g id="text_24">
    <g clip-path="url(#p09860f283b)">
     <!-- -20.00 -->
     <g style="fill: #0000ff" transform="translate(258.990693 49.035061) rotate(-28.499245) scale(0.09 -0.09)">
      <use xlink:href="#DejaVuSans-2d"/>
      <use xlink:href="#DejaVuSans-32" x="36.083984"/>
      <use xlink:href="#DejaVuSans-30" x="99.707031"/>
      <use xlink:href="#DejaVuSans-2e" x="163.330078"/>
      <use xlink:href="#DejaVuSans-30" x="195.117188"/>
      <use xlink:href="#DejaVuSans-30" x="258.740234"/>
     </g>
    </g>
   </g>
   <g id="text_25">
    <g clip-path="url(#p09860f283b)">
     <!-- 0.00 -->
     <g style="fill: #0000ff" transform="translate(49.160881 295.329123) rotate(-36.692053) scale(0.09 -0.09)">
      <use xlink:href="#DejaVuSans-30"/>
      <use xlink:href="#DejaVuSans-2e" x="63.623047"/>
      <use xlink:href="#DejaVuSans-30" x="95.410156"/>
      <use xlink:href="#DejaVuSans-30" x="159.033203"/>
     </g>
    </g>
   </g>
   <g id="text_26">
    <g clip-path="url(#p09860f283b)">
     <!-- 0.00 -->
     <g style="fill: #0000ff" transform="translate(260.809289 83.680716) rotate(-36.692053) scale(0.09 -0.09)">
      <use xlink:href="#DejaVuSans-30"/>
      <use xlink:href="#DejaVuSans-2e" x="63.623047"/>
      <use xlink:href="#DejaVuSans-30" x="95.410156"/>
      <use xlink:href="#DejaVuSans-30" x="159.033203"/>
     </g>
    </g>
   </g>
   <g id="text_27">
    <g clip-path="url(#p09860f283b)">
     <!-- 20.00 -->
     <g style="fill: #0000ff" transform="translate(51.347645 263.715161) rotate(-45.04639) scale(0.09 -0.09)">
      <use xlink:href="#DejaVuSans-32"/>
      <use xlink:href="#DejaVuSans-30" x="63.623047"/>
      <use xlink:href="#DejaVuSans-2e" x="127.246094"/>
      <use xlink:href="#DejaVuSans-30" x="159.033203"/>
      <use xlink:href="#DejaVuSans-30" x="222.65625"/>
     </g>
    </g>
   </g>
   <g id="text_28">
    <g clip-path="url(#p09860f283b)">
     <!-- 20.00 -->
     <g style="fill: #0000ff" transform="translate(298.767614 79.347678) rotate(-45.04639) scale(0.09 -0.09)">
      <use xlink:href="#DejaVuSans-32"/>
      <use xlink:href="#DejaVuSans-30" x="63.623047"/>
      <use xlink:href="#DejaVuSans-2e" x="127.246094"/>
      <use xlink:href="#DejaVuSans-30" x="159.033203"/>
      <use xlink:href="#DejaVuSans-30" x="222.65625"/>
     </g>
    </g>
   </g>
   <g id="text_29">
    <g clip-path="url(#p09860f283b)">
     <!-- 40.00 -->
     <g style="fill: #0000ff" transform="translate(49.166567 228.234459) rotate(-60.380335) scale(0.09 -0.09)">
      <use xlink:href="#DejaVuSans-34"/>
      <use xlink:href="#DejaVuSans-30" x="63.623047"/>
      <use xlink:href="#DejaVuSans-2e" x="127.246094"/>
      <use xlink:href="#DejaVuSans-30" x="159.033203"/>
      <use xlink:href="#DejaVuSans-30" x="222.65625"/>
     </g>
    </g>
   </g>
   <g id="text_30">
    <g clip-path="url(#p09860f283b)">
     <!-- 40.00 -->
     <g style="fill: #0000ff" transform="translate(307.221383 117.93881) rotate(-60.380335) scale(0.09 -0.09)">
      <use xlink:href="#DejaVuSans-34"/>
      <use xlink:href="#DejaVuSans-30" x="63.623047"/>
      <use xlink:href="#DejaVuSans-2e" x="127.246094"/>
      <use xlink:href="#DejaVuSans-30" x="159.033203"/>
      <use xlink:href="#DejaVuSans-30" x="222.65625"/>
     </g>
    </g>
   </g>
   <g id="text_31">
    <g clip-path="url(#p09860f283b)">
     <!-- 60.00 -->
     <g style="fill: #0000ff" transform="translate(36.86815 146.322521) rotate(-270.79416) scale(0.09 -0.09)">
      <use xlink:href="#DejaVuSans-36"/>
      <use xlink:href="#DejaVuSans-30" x="63.623047"/>
      <use xlink:href="#DejaVuSans-2e" x="127.246094"/>
      <use xlink:href="#DejaVuSans-30" x="159.033203"/>
      <use xlink:href="#DejaVuSans-30" x="222.65625"/>
     </g>
    </g>
   </g>
   <g id="text_32">
    <g clip-path="url(#p09860f283b)">
     <!-- 60.00 -->
     <g style="fill: #0000ff" transform="translate(322.612713 149.303484) rotate(-270.79416) scale(0.09 -0.09)">
      <use xlink:href="#DejaVuSans-36"/>
      <use xlink:href="#DejaVuSans-30" x="63.623047"/>
      <use xlink:href="#DejaVuSans-2e" x="127.246094"/>
      <use xlink:href="#DejaVuSans-30" x="159.033203"/>
      <use xlink:href="#DejaVuSans-30" x="222.65625"/>
     </g>
    </g>
   </g>
  </g>
 </g>
 <defs>
  <clipPath id="p09860f283b">
   <rect x="28.942188" y="7.2" width="306.92" height="306.92"/>
  </clipPath>
 </defs>
</svg>
