<?xml version="1.0" encoding="utf-8" standalone="no"?>
<!DOCTYPE svg PUBLIC "-//W3C//DTD SVG 1.1//EN"
  "http://www.w3.org/Graphics/SVG/1.1/DTD/svg11.dtd">
<svg xmlns:xlink="http://www.w3.org/1999/xlink" width="341.987187pt" height="336.923125pt" viewBox="0 0 341.987187 336.923125" xmlns="http://www.w3.org/2000/svg" version="1.1">
 <metadata>
  <rdf:RDF xmlns:dc="http://purl.org/dc/elements/1.1/" xmlns:cc="http://creativecommons.org/ns#" xmlns:rdf="http://www.w3.org/1999/02/22-rdf-syntax-ns#">
   <cc:Work>
    <dc:type rdf:resource="http://purl.org/dc/dcmitype/StillImage"/>
    <dc:date>2025-04-08T16:54:33.652968</dc:date>
    <dc:format>image/svg+xml</dc:format>
    <dc:creator>
     <cc:Agent>
      <dc:title>Matplotlib v3.6.3, https://matplotlib.org/</dc:title>
     </cc:Agent>
    </dc:creator>
   </cc:Work>
  </rdf:RDF>
 </metadata>
 <defs>
  <style type="text/css">*{stroke-linejoin: round; stroke-linecap: butt}</style>
 </defs>
 <g id="figure_1">
  <g id="patch_1">
   <path d="M 0 336.923125 
L 341.987187 336.923125 
L 341.987187 0 
L 0 0 
z
" style="fill: #ffffff"/>
  </g>
  <g id="axes_1">
   <g id="patch_2">
    <path d="M 48.427188 293.56 
L 334.787187 293.56 
L 334.787187 7.2 
L 48.427188 7.2 
z
" style="fill: #ffffff"/>
   </g>
   <g id="matplotlib.axis_1">
    <g id="xtick_1">
     <g id="line2d_1">
      <defs>
       <path id="m4f421facb6" d="M 0 0 
L 0 3.5 
" style="stroke: #000000; stroke-width: 0.8"/>
      </defs>
      <g>
       <use xlink:href="#m4f421facb6" x="53.934111" y="293.56" style="stroke: #000000; stroke-width: 0.8"/>
      </g>
     </g>
     <g id="text_1">
      <!-- −4 -->
      <g transform="translate(46.563017 308.158437) scale(0.1 -0.1)">
       <defs>
        <path id="DejaVuSans-2212" d="M 678 2272 
L 4684 2272 
L 4684 1741 
L 678 1741 
L 678 2272 
z
" transform="scale(0.015625)"/>
        <path id="DejaVuSans-34" d="M 2419 4116 
L 825 1625 
L 2419 1625 
L 2419 4116 
z
M 2253 4666 
L 3047 4666 
L 3047 1625 
L 3713 1625 
L 3713 1100 
L 3047 1100 
L 3047 0 
L 2419 0 
L 2419 1100 
L 313 1100 
L 313 1709 
L 2253 4666 
z
" transform="scale(0.015625)"/>
       </defs>
       <use xlink:href="#DejaVuSans-2212"/>
       <use xlink:href="#DejaVuSans-34" x="83.789062"/>
      </g>
     </g>
    </g>
    <g id="xtick_2">
     <g id="line2d_2">
      <g>
       <use xlink:href="#m4f421facb6" x="88.35238" y="293.56" style="stroke: #000000; stroke-width: 0.8"/>
      </g>
     </g>
     <g id="text_2">
      <!-- −3 -->
      <g transform="translate(80.981286 308.158437) scale(0.1 -0.1)">
       <defs>
        <path id="DejaVuSans-33" d="M 2597 2516 
Q 3050 2419 3304 2112 
Q 3559 1806 3559 1356 
Q 3559 666 3084 287 
Q 2609 -91 1734 -91 
Q 1441 -91 1130 -33 
Q 819 25 488 141 
L 488 750 
Q 750 597 1062 519 
Q 1375 441 1716 441 
Q 2309 441 2620 675 
Q 2931 909 2931 1356 
Q 2931 1769 2642 2001 
Q 2353 2234 1838 2234 
L 1294 2234 
L 1294 2753 
L 1863 2753 
Q 2328 2753 2575 2939 
Q 2822 3125 2822 3475 
Q 2822 3834 2567 4026 
Q 2313 4219 1838 4219 
Q 1578 4219 1281 4162 
Q 984 4106 628 3988 
L 628 4550 
Q 988 4650 1302 4700 
Q 1616 4750 1894 4750 
Q 2613 4750 3031 4423 
Q 3450 4097 3450 3541 
Q 3450 3153 3228 2886 
Q 3006 2619 2597 2516 
z
" transform="scale(0.015625)"/>
       </defs>
       <use xlink:href="#DejaVuSans-2212"/>
       <use xlink:href="#DejaVuSans-33" x="83.789062"/>
      </g>
     </g>
    </g>
    <g id="xtick_3">
     <g id="line2d_3">
      <g>
       <use xlink:href="#m4f421facb6" x="122.770649" y="293.56" style="stroke: #000000; stroke-width: 0.8"/>
      </g>
     </g>
     <g id="text_3">
      <!-- −2 -->
      <g transform="translate(115.399555 308.158437) scale(0.1 -0.1)">
       <defs>
        <path id="DejaVuSans-32" d="M 1228 531 
L 3431 531 
L 3431 0 
L 469 0 
L 469 531 
Q 828 903 1448 1529 
Q 2069 2156 2228 2338 
Q 2531 2678 2651 2914 
Q 2772 3150 2772 3378 
Q 2772 3750 2511 3984 
Q 2250 4219 1831 4219 
Q 1534 4219 1204 4116 
Q 875 4013 500 3803 
L 500 4441 
Q 881 4594 1212 4672 
Q 1544 4750 1819 4750 
Q 2544 4750 2975 4387 
Q 3406 4025 3406 3419 
Q 3406 3131 3298 2873 
Q 3191 2616 2906 2266 
Q 2828 2175 2409 1742 
Q 1991 1309 1228 531 
z
" transform="scale(0.015625)"/>
       </defs>
       <use xlink:href="#DejaVuSans-2212"/>
       <use xlink:href="#DejaVuSans-32" x="83.789062"/>
      </g>
     </g>
    </g>
    <g id="xtick_4">
     <g id="line2d_4">
      <g>
       <use xlink:href="#m4f421facb6" x="157.188918" y="293.56" style="stroke: #000000; stroke-width: 0.8"/>
      </g>
     </g>
     <g id="text_4">
      <!-- −1 -->
      <g transform="translate(149.817825 308.158437) scale(0.1 -0.1)">
       <defs>
        <path id="DejaVuSans-31" d="M 794 531 
L 1825 531 
L 1825 4091 
L 703 3866 
L 703 4441 
L 1819 4666 
L 2450 4666 
L 2450 531 
L 3481 531 
L 3481 0 
L 794 0 
L 794 531 
z
" transform="scale(0.015625)"/>
       </defs>
       <use xlink:href="#DejaVuSans-2212"/>
       <use xlink:href="#DejaVuSans-31" x="83.789062"/>
      </g>
     </g>
    </g>
    <g id="xtick_5">
     <g id="line2d_5">
      <g>
       <use xlink:href="#m4f421facb6" x="191.607187" y="293.56" style="stroke: #000000; stroke-width: 0.8"/>
      </g>
     </g>
     <g id="text_5">
      <!-- 0 -->
      <g transform="translate(188.425937 308.158437) scale(0.1 -0.1)">
       <defs>
        <path id="DejaVuSans-30" d="M 2034 4250 
Q 1547 4250 1301 3770 
Q 1056 3291 1056 2328 
Q 1056 1369 1301 889 
Q 1547 409 2034 409 
Q 2525 409 2770 889 
Q 3016 1369 3016 2328 
Q 3016 3291 2770 3770 
Q 2525 4250 2034 4250 
z
M 2034 4750 
Q 2819 4750 3233 4129 
Q 3647 3509 3647 2328 
Q 3647 1150 3233 529 
Q 2819 -91 2034 -91 
Q 1250 -91 836 529 
Q 422 1150 422 2328 
Q 422 3509 836 4129 
Q 1250 4750 2034 4750 
z
" transform="scale(0.015625)"/>
       </defs>
       <use xlink:href="#DejaVuSans-30"/>
      </g>
     </g>
    </g>
    <g id="xtick_6">
     <g id="line2d_6">
      <g>
       <use xlink:href="#m4f421facb6" x="226.025457" y="293.56" style="stroke: #000000; stroke-width: 0.8"/>
      </g>
     </g>
     <g id="text_6">
      <!-- 1 -->
      <g transform="translate(222.844207 308.158437) scale(0.1 -0.1)">
       <use xlink:href="#DejaVuSans-31"/>
      </g>
     </g>
    </g>
    <g id="xtick_7">
     <g id="line2d_7">
      <g>
       <use xlink:href="#m4f421facb6" x="260.443726" y="293.56" style="stroke: #000000; stroke-width: 0.8"/>
      </g>
     </g>
     <g id="text_7">
      <!-- 2 -->
      <g transform="translate(257.262476 308.158437) scale(0.1 -0.1)">
       <use xlink:href="#DejaVuSans-32"/>
      </g>
     </g>
    </g>
    <g id="xtick_8">
     <g id="line2d_8">
      <g>
       <use xlink:href="#m4f421facb6" x="294.861995" y="293.56" style="stroke: #000000; stroke-width: 0.8"/>
      </g>
     </g>
     <g id="text_8">
      <!-- 3 -->
      <g transform="translate(291.680745 308.158437) scale(0.1 -0.1)">
       <use xlink:href="#DejaVuSans-33"/>
      </g>
     </g>
    </g>
    <g id="xtick_9">
     <g id="line2d_9">
      <g>
       <use xlink:href="#m4f421facb6" x="329.280264" y="293.56" style="stroke: #000000; stroke-width: 0.8"/>
      </g>
     </g>
     <g id="text_9">
      <!-- 4 -->
      <g transform="translate(326.099014 308.158437) scale(0.1 -0.1)">
       <use xlink:href="#DejaVuSans-34"/>
      </g>
     </g>
    </g>
    <g id="xtick_10">
     <g id="line2d_10">
      <defs>
       <path id="m48583ba992" d="M 0 0 
L 0 2 
" style="stroke: #000000; stroke-width: 0.6"/>
      </defs>
      <g>
       <use xlink:href="#m48583ba992" x="60.817764" y="293.56" style="stroke: #000000; stroke-width: 0.6"/>
      </g>
     </g>
    </g>
    <g id="xtick_11">
     <g id="line2d_11">
      <g>
       <use xlink:href="#m48583ba992" x="67.701418" y="293.56" style="stroke: #000000; stroke-width: 0.6"/>
      </g>
     </g>
    </g>
    <g id="xtick_12">
     <g id="line2d_12">
      <g>
       <use xlink:href="#m48583ba992" x="74.585072" y="293.56" style="stroke: #000000; stroke-width: 0.6"/>
      </g>
     </g>
    </g>
    <g id="xtick_13">
     <g id="line2d_13">
      <g>
       <use xlink:href="#m48583ba992" x="81.468726" y="293.56" style="stroke: #000000; stroke-width: 0.6"/>
      </g>
     </g>
    </g>
    <g id="xtick_14">
     <g id="line2d_14">
      <g>
       <use xlink:href="#m48583ba992" x="95.236034" y="293.56" style="stroke: #000000; stroke-width: 0.6"/>
      </g>
     </g>
    </g>
    <g id="xtick_15">
     <g id="line2d_15">
      <g>
       <use xlink:href="#m48583ba992" x="102.119687" y="293.56" style="stroke: #000000; stroke-width: 0.6"/>
      </g>
     </g>
    </g>
    <g id="xtick_16">
     <g id="line2d_16">
      <g>
       <use xlink:href="#m48583ba992" x="109.003341" y="293.56" style="stroke: #000000; stroke-width: 0.6"/>
      </g>
     </g>
    </g>
    <g id="xtick_17">
     <g id="line2d_17">
      <g>
       <use xlink:href="#m48583ba992" x="115.886995" y="293.56" style="stroke: #000000; stroke-width: 0.6"/>
      </g>
     </g>
    </g>
    <g id="xtick_18">
     <g id="line2d_18">
      <g>
       <use xlink:href="#m48583ba992" x="129.654303" y="293.56" style="stroke: #000000; stroke-width: 0.6"/>
      </g>
     </g>
    </g>
    <g id="xtick_19">
     <g id="line2d_19">
      <g>
       <use xlink:href="#m48583ba992" x="136.537957" y="293.56" style="stroke: #000000; stroke-width: 0.6"/>
      </g>
     </g>
    </g>
    <g id="xtick_20">
     <g id="line2d_20">
      <g>
       <use xlink:href="#m48583ba992" x="143.421611" y="293.56" style="stroke: #000000; stroke-width: 0.6"/>
      </g>
     </g>
    </g>
    <g id="xtick_21">
     <g id="line2d_21">
      <g>
       <use xlink:href="#m48583ba992" x="150.305264" y="293.56" style="stroke: #000000; stroke-width: 0.6"/>
      </g>
     </g>
    </g>
    <g id="xtick_22">
     <g id="line2d_22">
      <g>
       <use xlink:href="#m48583ba992" x="164.072572" y="293.56" style="stroke: #000000; stroke-width: 0.6"/>
      </g>
     </g>
    </g>
    <g id="xtick_23">
     <g id="line2d_23">
      <g>
       <use xlink:href="#m48583ba992" x="170.956226" y="293.56" style="stroke: #000000; stroke-width: 0.6"/>
      </g>
     </g>
    </g>
    <g id="xtick_24">
     <g id="line2d_24">
      <g>
       <use xlink:href="#m48583ba992" x="177.83988" y="293.56" style="stroke: #000000; stroke-width: 0.6"/>
      </g>
     </g>
    </g>
    <g id="xtick_25">
     <g id="line2d_25">
      <g>
       <use xlink:href="#m48583ba992" x="184.723534" y="293.56" style="stroke: #000000; stroke-width: 0.6"/>
      </g>
     </g>
    </g>
    <g id="xtick_26">
     <g id="line2d_26">
      <g>
       <use xlink:href="#m48583ba992" x="198.490841" y="293.56" style="stroke: #000000; stroke-width: 0.6"/>
      </g>
     </g>
    </g>
    <g id="xtick_27">
     <g id="line2d_27">
      <g>
       <use xlink:href="#m48583ba992" x="205.374495" y="293.56" style="stroke: #000000; stroke-width: 0.6"/>
      </g>
     </g>
    </g>
    <g id="xtick_28">
     <g id="line2d_28">
      <g>
       <use xlink:href="#m48583ba992" x="212.258149" y="293.56" style="stroke: #000000; stroke-width: 0.6"/>
      </g>
     </g>
    </g>
    <g id="xtick_29">
     <g id="line2d_29">
      <g>
       <use xlink:href="#m48583ba992" x="219.141803" y="293.56" style="stroke: #000000; stroke-width: 0.6"/>
      </g>
     </g>
    </g>
    <g id="xtick_30">
     <g id="line2d_30">
      <g>
       <use xlink:href="#m48583ba992" x="232.909111" y="293.56" style="stroke: #000000; stroke-width: 0.6"/>
      </g>
     </g>
    </g>
    <g id="xtick_31">
     <g id="line2d_31">
      <g>
       <use xlink:href="#m48583ba992" x="239.792764" y="293.56" style="stroke: #000000; stroke-width: 0.6"/>
      </g>
     </g>
    </g>
    <g id="xtick_32">
     <g id="line2d_32">
      <g>
       <use xlink:href="#m48583ba992" x="246.676418" y="293.56" style="stroke: #000000; stroke-width: 0.6"/>
      </g>
     </g>
    </g>
    <g id="xtick_33">
     <g id="line2d_33">
      <g>
       <use xlink:href="#m48583ba992" x="253.560072" y="293.56" style="stroke: #000000; stroke-width: 0.6"/>
      </g>
     </g>
    </g>
    <g id="xtick_34">
     <g id="line2d_34">
      <g>
       <use xlink:href="#m48583ba992" x="267.32738" y="293.56" style="stroke: #000000; stroke-width: 0.6"/>
      </g>
     </g>
    </g>
    <g id="xtick_35">
     <g id="line2d_35">
      <g>
       <use xlink:href="#m48583ba992" x="274.211034" y="293.56" style="stroke: #000000; stroke-width: 0.6"/>
      </g>
     </g>
    </g>
    <g id="xtick_36">
     <g id="line2d_36">
      <g>
       <use xlink:href="#m48583ba992" x="281.094687" y="293.56" style="stroke: #000000; stroke-width: 0.6"/>
      </g>
     </g>
    </g>
    <g id="xtick_37">
     <g id="line2d_37">
      <g>
       <use xlink:href="#m48583ba992" x="287.978341" y="293.56" style="stroke: #000000; stroke-width: 0.6"/>
      </g>
     </g>
    </g>
    <g id="xtick_38">
     <g id="line2d_38">
      <g>
       <use xlink:href="#m48583ba992" x="301.745649" y="293.56" style="stroke: #000000; stroke-width: 0.6"/>
      </g>
     </g>
    </g>
    <g id="xtick_39">
     <g id="line2d_39">
      <g>
       <use xlink:href="#m48583ba992" x="308.629303" y="293.56" style="stroke: #000000; stroke-width: 0.6"/>
      </g>
     </g>
    </g>
    <g id="xtick_40">
     <g id="line2d_40">
      <g>
       <use xlink:href="#m48583ba992" x="315.512957" y="293.56" style="stroke: #000000; stroke-width: 0.6"/>
      </g>
     </g>
    </g>
    <g id="xtick_41">
     <g id="line2d_41">
      <g>
       <use xlink:href="#m48583ba992" x="322.396611" y="293.56" style="stroke: #000000; stroke-width: 0.6"/>
      </g>
     </g>
    </g>
    <g id="text_10">
     <!-- $x$ -->
     <g transform="translate(186.967187 326.395625) scale(0.16 -0.16)">
      <defs>
       <path id="Cmmi10-78" d="M 500 184 
Q 613 97 819 97 
Q 1019 97 1172 289 
Q 1325 481 1381 709 
L 1672 1844 
Q 1741 2153 1741 2266 
Q 1741 2425 1652 2544 
Q 1563 2663 1403 2663 
Q 1200 2663 1022 2536 
Q 844 2409 722 2214 
Q 600 2019 550 1819 
Q 538 1778 500 1778 
L 422 1778 
Q 372 1778 372 1838 
L 372 1856 
Q 434 2094 584 2320 
Q 734 2547 951 2687 
Q 1169 2828 1416 2828 
Q 1650 2828 1839 2703 
Q 2028 2578 2106 2363 
Q 2216 2559 2386 2693 
Q 2556 2828 2759 2828 
Q 2897 2828 3040 2779 
Q 3184 2731 3275 2631 
Q 3366 2531 3366 2381 
Q 3366 2219 3261 2101 
Q 3156 1984 2994 1984 
Q 2891 1984 2822 2050 
Q 2753 2116 2753 2216 
Q 2753 2350 2845 2451 
Q 2938 2553 3066 2572 
Q 2950 2663 2747 2663 
Q 2541 2663 2389 2472 
Q 2238 2281 2175 2047 
L 1894 916 
Q 1825 659 1825 494 
Q 1825 331 1917 214 
Q 2009 97 2163 97 
Q 2463 97 2698 361 
Q 2934 625 3009 941 
Q 3022 978 3059 978 
L 3138 978 
Q 3163 978 3178 961 
Q 3194 944 3194 922 
Q 3194 916 3188 903 
Q 3097 522 2806 225 
Q 2516 -72 2150 -72 
Q 1916 -72 1727 54 
Q 1538 181 1459 397 
Q 1359 209 1182 68 
Q 1006 -72 806 -72 
Q 669 -72 523 -23 
Q 378 25 287 125 
Q 197 225 197 378 
Q 197 528 301 651 
Q 406 775 563 775 
Q 669 775 741 711 
Q 813 647 813 544 
Q 813 409 723 309 
Q 634 209 500 184 
z
" transform="scale(0.015625)"/>
      </defs>
      <use xlink:href="#Cmmi10-78" transform="translate(0 0.8125)"/>
     </g>
    </g>
   </g>
   <g id="matplotlib.axis_2">
    <g id="ytick_1">
     <g id="line2d_42">
      <defs>
       <path id="mcc4e5b68d3" d="M 0 0 
L -3.5 0 
" style="stroke: #000000; stroke-width: 0.8"/>
      </defs>
      <g>
       <use xlink:href="#mcc4e5b68d3" x="48.427188" y="288.053077" style="stroke: #000000; stroke-width: 0.8"/>
      </g>
     </g>
     <g id="text_11">
      <!-- −4 -->
      <g transform="translate(26.685 291.852296) scale(0.1 -0.1)">
       <use xlink:href="#DejaVuSans-2212"/>
       <use xlink:href="#DejaVuSans-34" x="83.789062"/>
      </g>
     </g>
    </g>
    <g id="ytick_2">
     <g id="line2d_43">
      <g>
       <use xlink:href="#mcc4e5b68d3" x="48.427188" y="253.634808" style="stroke: #000000; stroke-width: 0.8"/>
      </g>
     </g>
     <g id="text_12">
      <!-- −3 -->
      <g transform="translate(26.685 257.434026) scale(0.1 -0.1)">
       <use xlink:href="#DejaVuSans-2212"/>
       <use xlink:href="#DejaVuSans-33" x="83.789062"/>
      </g>
     </g>
    </g>
    <g id="ytick_3">
     <g id="line2d_44">
      <g>
       <use xlink:href="#mcc4e5b68d3" x="48.427188" y="219.216538" style="stroke: #000000; stroke-width: 0.8"/>
      </g>
     </g>
     <g id="text_13">
      <!-- −2 -->
      <g transform="translate(26.685 223.015757) scale(0.1 -0.1)">
       <use xlink:href="#DejaVuSans-2212"/>
       <use xlink:href="#DejaVuSans-32" x="83.789062"/>
      </g>
     </g>
    </g>
    <g id="ytick_4">
     <g id="line2d_45">
      <g>
       <use xlink:href="#mcc4e5b68d3" x="48.427188" y="184.798269" style="stroke: #000000; stroke-width: 0.8"/>
      </g>
     </g>
     <g id="text_14">
      <!-- −1 -->
      <g transform="translate(26.685 188.597488) scale(0.1 -0.1)">
       <use xlink:href="#DejaVuSans-2212"/>
       <use xlink:href="#DejaVuSans-31" x="83.789062"/>
      </g>
     </g>
    </g>
    <g id="ytick_5">
     <g id="line2d_46">
      <g>
       <use xlink:href="#mcc4e5b68d3" x="48.427188" y="150.38" style="stroke: #000000; stroke-width: 0.8"/>
      </g>
     </g>
     <g id="text_15">
      <!-- 0 -->
      <g transform="translate(35.064688 154.179219) scale(0.1 -0.1)">
       <use xlink:href="#DejaVuSans-30"/>
      </g>
     </g>
    </g>
    <g id="ytick_6">
     <g id="line2d_47">
      <g>
       <use xlink:href="#mcc4e5b68d3" x="48.427188" y="115.961731" style="stroke: #000000; stroke-width: 0.8"/>
      </g>
     </g>
     <g id="text_16">
      <!-- 1 -->
      <g transform="translate(35.064688 119.76095) scale(0.1 -0.1)">
       <use xlink:href="#DejaVuSans-31"/>
      </g>
     </g>
    </g>
    <g id="ytick_7">
     <g id="line2d_48">
      <g>
       <use xlink:href="#mcc4e5b68d3" x="48.427188" y="81.543462" style="stroke: #000000; stroke-width: 0.8"/>
      </g>
     </g>
     <g id="text_17">
      <!-- 2 -->
      <g transform="translate(35.064688 85.34268) scale(0.1 -0.1)">
       <use xlink:href="#DejaVuSans-32"/>
      </g>
     </g>
    </g>
    <g id="ytick_8">
     <g id="line2d_49">
      <g>
       <use xlink:href="#mcc4e5b68d3" x="48.427188" y="47.125192" style="stroke: #000000; stroke-width: 0.8"/>
      </g>
     </g>
     <g id="text_18">
      <!-- 3 -->
      <g transform="translate(35.064688 50.924411) scale(0.1 -0.1)">
       <use xlink:href="#DejaVuSans-33"/>
      </g>
     </g>
    </g>
    <g id="ytick_9">
     <g id="line2d_50">
      <g>
       <use xlink:href="#mcc4e5b68d3" x="48.427188" y="12.706923" style="stroke: #000000; stroke-width: 0.8"/>
      </g>
     </g>
     <g id="text_19">
      <!-- 4 -->
      <g transform="translate(35.064688 16.506142) scale(0.1 -0.1)">
       <use xlink:href="#DejaVuSans-34"/>
      </g>
     </g>
    </g>
    <g id="ytick_10">
     <g id="line2d_51">
      <defs>
       <path id="m6ad2cccb57" d="M 0 0 
L -2 0 
" style="stroke: #000000; stroke-width: 0.6"/>
      </defs>
      <g>
       <use xlink:href="#m6ad2cccb57" x="48.427188" y="281.169423" style="stroke: #000000; stroke-width: 0.6"/>
      </g>
     </g>
    </g>
    <g id="ytick_11">
     <g id="line2d_52">
      <g>
       <use xlink:href="#m6ad2cccb57" x="48.427188" y="274.285769" style="stroke: #000000; stroke-width: 0.6"/>
      </g>
     </g>
    </g>
    <g id="ytick_12">
     <g id="line2d_53">
      <g>
       <use xlink:href="#m6ad2cccb57" x="48.427188" y="267.402115" style="stroke: #000000; stroke-width: 0.6"/>
      </g>
     </g>
    </g>
    <g id="ytick_13">
     <g id="line2d_54">
      <g>
       <use xlink:href="#m6ad2cccb57" x="48.427188" y="260.518462" style="stroke: #000000; stroke-width: 0.6"/>
      </g>
     </g>
    </g>
    <g id="ytick_14">
     <g id="line2d_55">
      <g>
       <use xlink:href="#m6ad2cccb57" x="48.427188" y="246.751154" style="stroke: #000000; stroke-width: 0.6"/>
      </g>
     </g>
    </g>
    <g id="ytick_15">
     <g id="line2d_56">
      <g>
       <use xlink:href="#m6ad2cccb57" x="48.427188" y="239.8675" style="stroke: #000000; stroke-width: 0.6"/>
      </g>
     </g>
    </g>
    <g id="ytick_16">
     <g id="line2d_57">
      <g>
       <use xlink:href="#m6ad2cccb57" x="48.427188" y="232.983846" style="stroke: #000000; stroke-width: 0.6"/>
      </g>
     </g>
    </g>
    <g id="ytick_17">
     <g id="line2d_58">
      <g>
       <use xlink:href="#m6ad2cccb57" x="48.427188" y="226.100192" style="stroke: #000000; stroke-width: 0.6"/>
      </g>
     </g>
    </g>
    <g id="ytick_18">
     <g id="line2d_59">
      <g>
       <use xlink:href="#m6ad2cccb57" x="48.427188" y="212.332885" style="stroke: #000000; stroke-width: 0.6"/>
      </g>
     </g>
    </g>
    <g id="ytick_19">
     <g id="line2d_60">
      <g>
       <use xlink:href="#m6ad2cccb57" x="48.427188" y="205.449231" style="stroke: #000000; stroke-width: 0.6"/>
      </g>
     </g>
    </g>
    <g id="ytick_20">
     <g id="line2d_61">
      <g>
       <use xlink:href="#m6ad2cccb57" x="48.427188" y="198.565577" style="stroke: #000000; stroke-width: 0.6"/>
      </g>
     </g>
    </g>
    <g id="ytick_21">
     <g id="line2d_62">
      <g>
       <use xlink:href="#m6ad2cccb57" x="48.427188" y="191.681923" style="stroke: #000000; stroke-width: 0.6"/>
      </g>
     </g>
    </g>
    <g id="ytick_22">
     <g id="line2d_63">
      <g>
       <use xlink:href="#m6ad2cccb57" x="48.427188" y="177.914615" style="stroke: #000000; stroke-width: 0.6"/>
      </g>
     </g>
    </g>
    <g id="ytick_23">
     <g id="line2d_64">
      <g>
       <use xlink:href="#m6ad2cccb57" x="48.427188" y="171.030962" style="stroke: #000000; stroke-width: 0.6"/>
      </g>
     </g>
    </g>
    <g id="ytick_24">
     <g id="line2d_65">
      <g>
       <use xlink:href="#m6ad2cccb57" x="48.427188" y="164.147308" style="stroke: #000000; stroke-width: 0.6"/>
      </g>
     </g>
    </g>
    <g id="ytick_25">
     <g id="line2d_66">
      <g>
       <use xlink:href="#m6ad2cccb57" x="48.427188" y="157.263654" style="stroke: #000000; stroke-width: 0.6"/>
      </g>
     </g>
    </g>
    <g id="ytick_26">
     <g id="line2d_67">
      <g>
       <use xlink:href="#m6ad2cccb57" x="48.427188" y="143.496346" style="stroke: #000000; stroke-width: 0.6"/>
      </g>
     </g>
    </g>
    <g id="ytick_27">
     <g id="line2d_68">
      <g>
       <use xlink:href="#m6ad2cccb57" x="48.427188" y="136.612692" style="stroke: #000000; stroke-width: 0.6"/>
      </g>
     </g>
    </g>
    <g id="ytick_28">
     <g id="line2d_69">
      <g>
       <use xlink:href="#m6ad2cccb57" x="48.427188" y="129.729038" style="stroke: #000000; stroke-width: 0.6"/>
      </g>
     </g>
    </g>
    <g id="ytick_29">
     <g id="line2d_70">
      <g>
       <use xlink:href="#m6ad2cccb57" x="48.427188" y="122.845385" style="stroke: #000000; stroke-width: 0.6"/>
      </g>
     </g>
    </g>
    <g id="ytick_30">
     <g id="line2d_71">
      <g>
       <use xlink:href="#m6ad2cccb57" x="48.427188" y="109.078077" style="stroke: #000000; stroke-width: 0.6"/>
      </g>
     </g>
    </g>
    <g id="ytick_31">
     <g id="line2d_72">
      <g>
       <use xlink:href="#m6ad2cccb57" x="48.427188" y="102.194423" style="stroke: #000000; stroke-width: 0.6"/>
      </g>
     </g>
    </g>
    <g id="ytick_32">
     <g id="line2d_73">
      <g>
       <use xlink:href="#m6ad2cccb57" x="48.427188" y="95.310769" style="stroke: #000000; stroke-width: 0.6"/>
      </g>
     </g>
    </g>
    <g id="ytick_33">
     <g id="line2d_74">
      <g>
       <use xlink:href="#m6ad2cccb57" x="48.427188" y="88.427115" style="stroke: #000000; stroke-width: 0.6"/>
      </g>
     </g>
    </g>
    <g id="ytick_34">
     <g id="line2d_75">
      <g>
       <use xlink:href="#m6ad2cccb57" x="48.427188" y="74.659808" style="stroke: #000000; stroke-width: 0.6"/>
      </g>
     </g>
    </g>
    <g id="ytick_35">
     <g id="line2d_76">
      <g>
       <use xlink:href="#m6ad2cccb57" x="48.427188" y="67.776154" style="stroke: #000000; stroke-width: 0.6"/>
      </g>
     </g>
    </g>
    <g id="ytick_36">
     <g id="line2d_77">
      <g>
       <use xlink:href="#m6ad2cccb57" x="48.427188" y="60.8925" style="stroke: #000000; stroke-width: 0.6"/>
      </g>
     </g>
    </g>
    <g id="ytick_37">
     <g id="line2d_78">
      <g>
       <use xlink:href="#m6ad2cccb57" x="48.427188" y="54.008846" style="stroke: #000000; stroke-width: 0.6"/>
      </g>
     </g>
    </g>
    <g id="ytick_38">
     <g id="line2d_79">
      <g>
       <use xlink:href="#m6ad2cccb57" x="48.427188" y="40.241538" style="stroke: #000000; stroke-width: 0.6"/>
      </g>
     </g>
    </g>
    <g id="ytick_39">
     <g id="line2d_80">
      <g>
       <use xlink:href="#m6ad2cccb57" x="48.427188" y="33.357885" style="stroke: #000000; stroke-width: 0.6"/>
      </g>
     </g>
    </g>
    <g id="ytick_40">
     <g id="line2d_81">
      <g>
       <use xlink:href="#m6ad2cccb57" x="48.427188" y="26.474231" style="stroke: #000000; stroke-width: 0.6"/>
      </g>
     </g>
    </g>
    <g id="ytick_41">
     <g id="line2d_82">
      <g>
       <use xlink:href="#m6ad2cccb57" x="48.427188" y="19.590577" style="stroke: #000000; stroke-width: 0.6"/>
      </g>
     </g>
    </g>
    <g id="text_20">
     <!-- $y$ -->
     <g transform="translate(19.325 154.38) rotate(-90) scale(0.16 -0.16)">
      <defs>
       <path id="Cmmi10-79" d="M 538 -916 
Q 672 -1147 1006 -1147 
Q 1309 -1147 1531 -934 
Q 1753 -722 1889 -420 
Q 2025 -119 2100 197 
Q 1816 -72 1484 -72 
Q 1231 -72 1053 15 
Q 875 103 776 276 
Q 678 450 678 697 
Q 678 906 734 1126 
Q 791 1347 892 1617 
Q 994 1888 1069 2088 
Q 1153 2322 1153 2472 
Q 1153 2663 1013 2663 
Q 759 2663 595 2402 
Q 431 2141 353 1819 
Q 341 1778 300 1778 
L 225 1778 
Q 172 1778 172 1838 
L 172 1856 
Q 275 2238 487 2533 
Q 700 2828 1025 2828 
Q 1253 2828 1411 2678 
Q 1569 2528 1569 2297 
Q 1569 2178 1516 2047 
Q 1488 1969 1388 1706 
Q 1288 1444 1234 1272 
Q 1181 1100 1147 934 
Q 1113 769 1113 603 
Q 1113 391 1203 244 
Q 1294 97 1491 97 
Q 1888 97 2203 581 
L 2688 2553 
Q 2709 2638 2787 2698 
Q 2866 2759 2956 2759 
Q 3034 2759 3092 2709 
Q 3150 2659 3150 2578 
Q 3150 2541 3144 2528 
L 2509 -19 
Q 2425 -347 2200 -647 
Q 1975 -947 1658 -1130 
Q 1341 -1313 997 -1313 
Q 831 -1313 668 -1248 
Q 506 -1184 406 -1056 
Q 306 -928 306 -756 
Q 306 -581 409 -453 
Q 513 -325 684 -325 
Q 788 -325 858 -389 
Q 928 -453 928 -556 
Q 928 -703 818 -812 
Q 709 -922 563 -922 
Q 556 -919 550 -917 
Q 544 -916 538 -916 
z
" transform="scale(0.015625)"/>
      </defs>
      <use xlink:href="#Cmmi10-79" transform="translate(0 0.8125)"/>
     </g>
    </g>
   </g>
   <g id="PathCollection_1"/>
   <g id="PathCollection_2">
    <path d="M 179.595443 218.15677 
L 177.871229 217.830568 
L 177.747482 217.806506 
L 175.899521 217.395848 
L 174.05156 216.933858 
L 172.203599 216.420535 
L 170.77038 215.982607 
L 170.355639 215.85226 
L 168.507678 215.218673 
L 166.659717 214.532288 
L 165.665613 214.134646 
L 164.811756 213.783058 
L 162.963796 212.967781 
L 161.516467 212.286686 
L 161.115835 212.09244 
L 159.267874 211.14046 
L 157.98136 210.438725 
L 157.419913 210.122911 
L 155.571953 209.025685 
L 154.87608 208.590764 
L 153.723992 207.847481 
L 152.093276 206.742803 
L 151.876031 206.590732 
L 150.02807 205.23556 
L 149.583656 204.894843 
L 148.18011 203.781685 
L 147.292222 203.046882 
L 146.332149 202.223962 
L 145.184103 201.198921 
L 144.484188 200.550851 
L 143.238147 199.35096 
L 142.636227 198.74904 
L 141.436336 197.502999 
L 140.788266 196.803084 
L 139.763226 195.655039 
L 138.940306 194.694965 
L 138.205502 193.807078 
L 137.092345 192.403532 
L 136.751627 191.959117 
L 135.396456 190.111156 
L 135.244384 189.893911 
L 134.139706 188.263196 
L 133.396423 187.111108 
L 132.961503 186.415235 
L 131.864276 184.567274 
L 131.548463 184.005828 
L 130.846728 182.719313 
L 129.894748 180.871353 
L 129.700502 180.47072 
L 129.019406 179.023392 
L 128.204129 177.175431 
L 127.852541 176.321574 
L 127.4549 175.32747 
L 126.768514 173.47951 
L 126.134928 171.631549 
L 126.00458 171.216808 
L 125.566652 169.783588 
L 125.05333 167.935627 
L 124.59134 166.087666 
L 124.180682 164.239706 
L 124.15662 164.115958 
L 123.830417 162.391745 
L 123.530748 160.543784 
L 123.281023 158.695823 
L 123.081244 156.847863 
L 122.931409 154.999902 
L 122.831519 153.151941 
L 122.781574 151.30398 
L 122.781574 149.45602 
L 122.831519 147.608059 
L 122.931409 145.760098 
L 123.081244 143.912137 
L 123.281023 142.064177 
L 123.530748 140.216216 
L 123.830417 138.368255 
L 124.15662 136.644042 
L 124.180682 136.520294 
L 124.59134 134.672334 
L 125.05333 132.824373 
L 125.566652 130.976412 
L 126.00458 129.543192 
L 126.134928 129.128451 
L 126.768514 127.28049 
L 127.4549 125.43253 
L 127.852541 124.438426 
L 128.204129 123.584569 
L 129.019406 121.736608 
L 129.700502 120.28928 
L 129.894748 119.888647 
L 130.846728 118.040687 
L 131.548463 116.754172 
L 131.864276 116.192726 
L 132.961503 114.344765 
L 133.396423 113.648892 
L 134.139706 112.496804 
L 135.244384 110.866089 
L 135.396456 110.648844 
L 136.751627 108.800883 
L 137.092345 108.356468 
L 138.205502 106.952922 
L 138.940306 106.065035 
L 139.763226 105.104961 
L 140.788266 103.956916 
L 141.436336 103.257001 
L 142.636227 102.01096 
L 143.238147 101.40904 
L 144.484188 100.209149 
L 145.184103 99.561079 
L 146.332149 98.536038 
L 147.292222 97.713118 
L 148.18011 96.978315 
L 149.583656 95.865157 
L 150.02807 95.52444 
L 151.876031 94.169268 
L 152.093276 94.017197 
L 153.723992 92.912519 
L 154.87608 92.169236 
L 155.571953 91.734315 
L 157.419913 90.637089 
L 157.98136 90.321275 
L 159.267874 89.61954 
L 161.115835 88.66756 
L 161.516467 88.473314 
L 162.963796 87.792219 
L 164.811756 86.976942 
L 165.665613 86.625354 
L 166.659717 86.227712 
L 168.507678 85.541327 
L 170.355639 84.90774 
L 170.77038 84.777393 
L 172.203599 84.339465 
L 174.05156 83.826142 
L 175.899521 83.364152 
L 177.747482 82.953494 
L 177.871229 82.929432 
L 179.595443 82.60323 
L 181.443403 82.30356 
L 183.291364 82.053836 
L 185.139325 81.854056 
L 186.987286 81.704222 
L 188.835246 81.604332 
L 190.683207 81.554387 
L 192.531168 81.554387 
L 194.379129 81.604332 
L 196.227089 81.704222 
L 198.07505 81.854056 
L 199.923011 82.053836 
L 201.770972 82.30356 
L 203.618932 82.60323 
L 205.343146 82.929432 
L 205.466893 82.953494 
L 207.314854 83.364152 
L 209.162815 83.826142 
L 211.010776 84.339465 
L 212.443995 84.777393 
L 212.858736 84.90774 
L 214.706697 85.541327 
L 216.554658 86.227712 
L 217.548762 86.625354 
L 218.402619 86.976942 
L 220.250579 87.792219 
L 221.697908 88.473314 
L 222.09854 88.66756 
L 223.946501 89.61954 
L 225.233015 90.321275 
L 225.794462 90.637089 
L 227.642422 91.734315 
L 228.338295 92.169236 
L 229.490383 92.912519 
L 231.121099 94.017197 
L 231.338344 94.169268 
L 233.186305 95.52444 
L 233.630719 95.865157 
L 235.034265 96.978315 
L 235.922153 97.713118 
L 236.882226 98.536038 
L 238.030272 99.561079 
L 238.730187 100.209149 
L 239.976228 101.40904 
L 240.578148 102.01096 
L 241.778039 103.257001 
L 242.426109 103.956916 
L 243.451149 105.104961 
L 244.274069 106.065035 
L 245.008873 106.952922 
L 246.12203 108.356468 
L 246.462748 108.800883 
L 247.817919 110.648844 
L 247.969991 110.866089 
L 249.074669 112.496804 
L 249.817952 113.648892 
L 250.252872 114.344765 
L 251.350099 116.192726 
L 251.665912 116.754172 
L 252.367647 118.040687 
L 253.319627 119.888647 
L 253.513873 120.28928 
L 254.194969 121.736608 
L 255.010246 123.584569 
L 255.361834 124.438426 
L 255.759475 125.43253 
L 256.445861 127.28049 
L 257.079447 129.128451 
L 257.209795 129.543192 
L 257.647723 130.976412 
L 258.161045 132.824373 
L 258.623035 134.672334 
L 259.033693 136.520294 
L 259.057755 136.644042 
L 259.383958 138.368255 
L 259.683627 140.216216 
L 259.933352 142.064177 
L 260.133131 143.912137 
L 260.282966 145.760098 
L 260.382856 147.608059 
L 260.432801 149.45602 
L 260.432801 151.30398 
L 260.382856 153.151941 
L 260.282966 154.999902 
L 260.133131 156.847863 
L 259.933352 158.695823 
L 259.683627 160.543784 
L 259.383958 162.391745 
L 259.057755 164.115958 
L 259.033693 164.239706 
L 258.623035 166.087666 
L 258.161045 167.935627 
L 257.647723 169.783588 
L 257.209795 171.216808 
L 257.079447 171.631549 
L 256.445861 173.47951 
L 255.759475 175.32747 
L 255.361834 176.321574 
L 255.010246 177.175431 
L 254.194969 179.023392 
L 253.513873 180.47072 
L 253.319627 180.871353 
L 252.367647 182.719313 
L 251.665912 184.005828 
L 251.350099 184.567274 
L 250.252872 186.415235 
L 249.817952 187.111108 
L 249.074669 188.263196 
L 247.969991 189.893911 
L 247.817919 190.111156 
L 246.462748 191.959117 
L 246.12203 192.403532 
L 245.008873 193.807078 
L 244.274069 194.694965 
L 243.451149 195.655039 
L 242.426109 196.803084 
L 241.778039 197.502999 
L 240.578148 198.74904 
L 239.976228 199.35096 
L 238.730187 200.550851 
L 238.030272 201.198921 
L 236.882226 202.223962 
L 235.922153 203.046882 
L 235.034265 203.781685 
L 233.630719 204.894843 
L 233.186305 205.23556 
L 231.338344 206.590732 
L 231.121099 206.742803 
L 229.490383 207.847481 
L 228.338295 208.590764 
L 227.642422 209.025685 
L 225.794462 210.122911 
L 225.233015 210.438725 
L 223.946501 211.14046 
L 222.09854 212.09244 
L 221.697908 212.286686 
L 220.250579 212.967781 
L 218.402619 213.783058 
L 217.548762 214.134646 
L 216.554658 214.532288 
L 214.706697 215.218673 
L 212.858736 215.85226 
L 212.443995 215.982607 
L 211.010776 216.420535 
L 209.162815 216.933858 
L 207.314854 217.395848 
L 205.466893 217.806506 
L 205.343146 217.830568 
L 203.618932 218.15677 
L 201.770972 218.45644 
L 199.923011 218.706164 
L 198.07505 218.905944 
L 196.227089 219.055778 
L 194.379129 219.155668 
L 192.531168 219.205613 
L 190.683207 219.205613 
L 188.835246 219.155668 
L 186.987286 219.055778 
L 185.139325 218.905944 
L 183.291364 218.706164 
L 181.443403 218.45644 
L 179.595443 218.15677 
z
" clip-path="url(#p36941ea116)" style="fill: none; stroke: #202020; stroke-width: 1.5"/>
   </g>
   <g id="PathCollection_3">
    <path d="M 185.139325 247.513438 
L 181.443403 247.195819 
L 175.899521 246.449528 
L 170.355639 245.38013 
L 164.811756 243.966984 
L 161.115835 242.826547 
L 157.419913 241.526422 
L 153.608494 240.006097 
L 149.520885 238.158136 
L 145.865539 236.310176 
L 142.546396 234.462215 
L 138.940306 232.249387 
L 135.244384 229.748303 
L 131.548463 226.994312 
L 127.202455 223.37445 
L 123.242004 219.678529 
L 119.687753 215.982607 
L 116.480258 212.286686 
L 113.068855 207.894053 
L 110.955775 204.894843 
L 108.57985 201.198921 
L 106.427746 197.502999 
L 104.485176 193.807078 
L 102.739043 190.111156 
L 101.177322 186.415235 
L 99.788947 182.719313 
L 98.020204 177.175431 
L 96.607057 171.631549 
L 95.857499 167.935627 
L 95.004594 162.391745 
L 94.47375 156.847863 
L 94.264547 151.30398 
L 94.369148 145.760098 
L 94.791368 140.216216 
L 95.53766 134.672334 
L 96.607057 129.128451 
L 98.020204 123.584569 
L 99.16064 119.888647 
L 100.460766 116.192726 
L 101.98109 112.381307 
L 103.829051 108.293698 
L 105.677012 104.638351 
L 107.524973 101.319208 
L 109.737801 97.713118 
L 112.238884 94.017197 
L 114.992875 90.321275 
L 118.612737 85.975267 
L 122.308659 82.014816 
L 126.00458 78.460565 
L 129.700502 75.253071 
L 134.093134 71.841668 
L 137.092345 69.728587 
L 140.788266 67.352663 
L 144.484188 65.200559 
L 148.18011 63.257988 
L 151.876031 61.511856 
L 155.571953 59.950134 
L 159.267874 58.561759 
L 164.811756 56.793016 
L 170.355639 55.37987 
L 174.05156 54.630312 
L 179.595443 53.777407 
L 185.139325 53.246562 
L 190.683207 53.037359 
L 196.227089 53.141961 
L 201.770972 53.564181 
L 207.314854 54.310472 
L 212.858736 55.37987 
L 218.402619 56.793016 
L 222.09854 57.933453 
L 225.794462 59.233578 
L 229.605881 60.753903 
L 233.69349 62.601864 
L 237.348836 64.449824 
L 240.667979 66.297785 
L 244.274069 68.510613 
L 247.969991 71.011697 
L 251.665912 73.765688 
L 256.01192 77.38555 
L 259.972371 81.081471 
L 263.526622 84.777393 
L 266.734117 88.473314 
L 270.14552 92.865947 
L 272.2586 95.865157 
L 274.634525 99.561079 
L 276.786629 103.257001 
L 278.729199 106.952922 
L 280.475332 110.648844 
L 282.037053 114.344765 
L 283.425428 118.040687 
L 285.194171 123.584569 
L 286.607318 129.128451 
L 287.356876 132.824373 
L 288.209781 138.368255 
L 288.740625 143.912137 
L 288.949828 149.45602 
L 288.845227 154.999902 
L 288.423007 160.543784 
L 287.676715 166.087666 
L 286.607318 171.631549 
L 285.194171 177.175431 
L 284.053735 180.871353 
L 282.753609 184.567274 
L 281.233285 188.378693 
L 279.385324 192.466302 
L 277.537363 196.121649 
L 275.689402 199.440792 
L 273.476574 203.046882 
L 270.975491 206.742803 
L 268.2215 210.438725 
L 264.601638 214.784733 
L 260.905716 218.745184 
L 257.209795 222.299435 
L 253.513873 225.506929 
L 249.121241 228.918332 
L 246.12203 231.031413 
L 242.426109 233.407337 
L 238.730187 235.559441 
L 235.034265 237.502012 
L 231.338344 239.248144 
L 227.642422 240.809866 
L 223.946501 242.198241 
L 218.402619 243.966984 
L 212.858736 245.38013 
L 209.162815 246.129688 
L 203.618932 246.982593 
L 198.07505 247.513438 
L 192.531168 247.722641 
L 186.987286 247.618039 
L 185.139325 247.513438 
L 185.139325 247.513438 
" clip-path="url(#p36941ea116)" style="fill: none; stroke: #404040; stroke-width: 1.5"/>
   </g>
   <g id="PathCollection_4">
    <path d="M 188.835246 269.576135 
L 188.748623 269.573469 
L 186.987286 269.518427 
L 185.139325 269.431804 
L 183.291364 269.316307 
L 181.443403 269.171935 
L 179.595443 268.998689 
L 177.747482 268.796568 
L 175.899521 268.565573 
L 174.05156 268.305703 
L 172.203599 268.016959 
L 170.507885 267.725509 
L 170.355639 267.698926 
L 168.507678 267.346933 
L 166.659717 266.965608 
L 164.811756 266.55495 
L 162.963796 266.114959 
L 162.028987 265.877548 
L 161.115835 265.641895 
L 159.267874 265.135197 
L 157.419913 264.598692 
L 155.571953 264.032381 
L 155.56329 264.029587 
L 153.723992 263.426538 
L 151.876031 262.790355 
L 150.188192 262.181626 
L 150.02807 262.122915 
L 148.18011 261.41453 
L 146.332149 260.675346 
L 145.512116 260.333665 
L 144.484188 259.898103 
L 142.636227 259.083747 
L 141.329394 258.485705 
L 140.788266 258.233801 
L 138.940306 257.341682 
L 137.53243 256.637744 
L 137.092345 256.413841 
L 135.244384 255.44123 
L 134.046563 254.789783 
L 133.396423 254.429885 
L 131.548463 253.373907 
L 130.815228 252.941822 
L 129.700502 252.272987 
L 127.852541 251.130611 
L 127.794792 251.093862 
L 126.00458 249.933539 
L 124.973123 249.245901 
L 124.15662 248.691295 
L 122.308659 247.401209 
L 122.3041 247.39794 
L 120.460698 246.050839 
L 119.792885 245.549979 
L 118.612737 244.647513 
L 117.407232 243.702019 
L 116.764777 243.188054 
L 115.137951 241.854058 
L 114.916816 241.669026 
L 113.068855 240.08506 
L 112.978874 240.006097 
L 111.220894 238.43124 
L 110.922963 238.158136 
L 109.372933 236.707045 
L 108.958426 236.310176 
L 107.524973 234.907885 
L 107.079303 234.462215 
L 105.677012 233.028762 
L 105.280143 232.614254 
L 103.829051 231.064224 
L 103.555948 230.766293 
L 101.98109 229.008313 
L 101.902128 228.918332 
L 100.318161 227.070372 
L 100.13313 226.849236 
L 98.799133 225.222411 
L 98.285169 224.579956 
L 97.339674 223.37445 
L 96.437208 222.194302 
L 95.936349 221.526489 
L 94.589247 219.683088 
L 94.585979 219.678529 
L 93.295893 217.830568 
L 92.741287 217.014064 
L 92.053648 215.982607 
L 90.893326 214.192395 
L 90.856577 214.134646 
L 89.714201 212.286686 
L 89.045365 211.171959 
L 88.613281 210.438725 
L 87.557303 208.590764 
L 87.197404 207.940625 
L 86.545958 206.742803 
L 85.573347 204.894843 
L 85.349444 204.454757 
L 84.645506 203.046882 
L 83.753387 201.198921 
L 83.501483 200.657794 
L 82.90344 199.35096 
L 82.089085 197.502999 
L 81.653522 196.475071 
L 81.311842 195.655039 
L 80.572657 193.807078 
L 79.864273 191.959117 
L 79.805561 191.798996 
L 79.196832 190.111156 
L 78.560649 188.263196 
L 77.957601 186.423897 
L 77.954806 186.415235 
L 77.388496 184.567274 
L 76.851991 182.719313 
L 76.345292 180.871353 
L 76.10964 179.9582 
L 75.872228 179.023392 
L 75.432237 177.175431 
L 75.02158 175.32747 
L 74.640254 173.47951 
L 74.288262 171.631549 
L 74.261679 171.479302 
L 73.970228 169.783588 
L 73.681484 167.935627 
L 73.421615 166.087666 
L 73.19062 164.239706 
L 72.988499 162.391745 
L 72.815253 160.543784 
L 72.670881 158.695823 
L 72.555383 156.847863 
L 72.46876 154.999902 
L 72.413718 153.238564 
L 72.411053 153.151941 
L 72.382623 151.30398 
L 72.382623 149.45602 
L 72.411053 147.608059 
L 72.413718 147.521436 
L 72.46876 145.760098 
L 72.555383 143.912137 
L 72.670881 142.064177 
L 72.815253 140.216216 
L 72.988499 138.368255 
L 73.19062 136.520294 
L 73.421615 134.672334 
L 73.681484 132.824373 
L 73.970228 130.976412 
L 74.261679 129.280698 
L 74.288262 129.128451 
L 74.640254 127.28049 
L 75.02158 125.43253 
L 75.432237 123.584569 
L 75.872228 121.736608 
L 76.10964 120.8018 
L 76.345292 119.888647 
L 76.851991 118.040687 
L 77.388496 116.192726 
L 77.954806 114.344765 
L 77.957601 114.336103 
L 78.560649 112.496804 
L 79.196832 110.648844 
L 79.805561 108.961004 
L 79.864273 108.800883 
L 80.572657 106.952922 
L 81.311842 105.104961 
L 81.653522 104.284929 
L 82.089085 103.257001 
L 82.90344 101.40904 
L 83.501483 100.102206 
L 83.753387 99.561079 
L 84.645506 97.713118 
L 85.349444 96.305243 
L 85.573347 95.865157 
L 86.545958 94.017197 
L 87.197404 92.819375 
L 87.557303 92.169236 
L 88.613281 90.321275 
L 89.045365 89.588041 
L 89.714201 88.473314 
L 90.856577 86.625354 
L 90.893326 86.567605 
L 92.053648 84.777393 
L 92.741287 83.745936 
L 93.295893 82.929432 
L 94.585979 81.081471 
L 94.589247 81.076912 
L 95.936349 79.233511 
L 96.437208 78.565698 
L 97.339674 77.38555 
L 98.285169 76.180044 
L 98.799133 75.537589 
L 100.13313 73.910764 
L 100.318161 73.689628 
L 101.902128 71.841668 
L 101.98109 71.751687 
L 103.555948 69.993707 
L 103.829051 69.695776 
L 105.280143 68.145746 
L 105.677012 67.731238 
L 107.079303 66.297785 
L 107.524973 65.852115 
L 108.958426 64.449824 
L 109.372933 64.052955 
L 110.922963 62.601864 
L 111.220894 62.32876 
L 112.978874 60.753903 
L 113.068855 60.67494 
L 114.916816 59.090974 
L 115.137951 58.905942 
L 116.764777 57.571946 
L 117.407232 57.057981 
L 118.612737 56.112487 
L 119.792885 55.210021 
L 120.460698 54.709161 
L 122.3041 53.36206 
L 122.308659 53.358791 
L 124.15662 52.068705 
L 124.973123 51.514099 
L 126.00458 50.826461 
L 127.794792 49.666138 
L 127.852541 49.629389 
L 129.700502 48.487013 
L 130.815228 47.818178 
L 131.548463 47.386093 
L 133.396423 46.330115 
L 134.046563 45.970217 
L 135.244384 45.31877 
L 137.092345 44.346159 
L 137.53243 44.122256 
L 138.940306 43.418318 
L 140.788266 42.526199 
L 141.329394 42.274295 
L 142.636227 41.676253 
L 144.484188 40.861897 
L 145.512116 40.426335 
L 146.332149 40.084654 
L 148.18011 39.34547 
L 150.02807 38.637085 
L 150.188192 38.578374 
L 151.876031 37.969645 
L 153.723992 37.333462 
L 155.56329 36.730413 
L 155.571953 36.727619 
L 157.419913 36.161308 
L 159.267874 35.624803 
L 161.115835 35.118105 
L 162.028987 34.882452 
L 162.963796 34.645041 
L 164.811756 34.20505 
L 166.659717 33.794392 
L 168.507678 33.413067 
L 170.355639 33.061074 
L 170.507885 33.034491 
L 172.203599 32.743041 
L 174.05156 32.454297 
L 175.899521 32.194427 
L 177.747482 31.963432 
L 179.595443 31.761311 
L 181.443403 31.588065 
L 183.291364 31.443693 
L 185.139325 31.328196 
L 186.987286 31.241573 
L 188.748623 31.186531 
L 188.835246 31.183865 
L 190.683207 31.155435 
L 192.531168 31.155435 
L 194.379129 31.183865 
L 194.465752 31.186531 
L 196.227089 31.241573 
L 198.07505 31.328196 
L 199.923011 31.443693 
L 201.770972 31.588065 
L 203.618932 31.761311 
L 205.466893 31.963432 
L 207.314854 32.194427 
L 209.162815 32.454297 
L 211.010776 32.743041 
L 212.70649 33.034491 
L 212.858736 33.061074 
L 214.706697 33.413067 
L 216.554658 33.794392 
L 218.402619 34.20505 
L 220.250579 34.645041 
L 221.185388 34.882452 
L 222.09854 35.118105 
L 223.946501 35.624803 
L 225.794462 36.161308 
L 227.642422 36.727619 
L 227.651085 36.730413 
L 229.490383 37.333462 
L 231.338344 37.969645 
L 233.026183 38.578374 
L 233.186305 38.637085 
L 235.034265 39.34547 
L 236.882226 40.084654 
L 237.702259 40.426335 
L 238.730187 40.861897 
L 240.578148 41.676253 
L 241.884981 42.274295 
L 242.426109 42.526199 
L 244.274069 43.418318 
L 245.681945 44.122256 
L 246.12203 44.346159 
L 247.969991 45.31877 
L 249.167812 45.970217 
L 249.817952 46.330115 
L 251.665912 47.386093 
L 252.399147 47.818178 
L 253.513873 48.487013 
L 255.361834 49.629389 
L 255.419583 49.666138 
L 257.209795 50.826461 
L 258.241252 51.514099 
L 259.057755 52.068705 
L 260.905716 53.358791 
L 260.910275 53.36206 
L 262.753677 54.709161 
L 263.42149 55.210021 
L 264.601638 56.112487 
L 265.807143 57.057981 
L 266.449598 57.571946 
L 268.076424 58.905942 
L 268.297559 59.090974 
L 270.14552 60.67494 
L 270.235501 60.753903 
L 271.993481 62.32876 
L 272.291412 62.601864 
L 273.841442 64.052955 
L 274.255949 64.449824 
L 275.689402 65.852115 
L 276.135072 66.297785 
L 277.537363 67.731238 
L 277.934232 68.145746 
L 279.385324 69.695776 
L 279.658427 69.993707 
L 281.233285 71.751687 
L 281.312247 71.841668 
L 282.896214 73.689628 
L 283.081245 73.910764 
L 284.415242 75.537589 
L 284.929206 76.180044 
L 285.874701 77.38555 
L 286.777167 78.565698 
L 287.278026 79.233511 
L 288.625128 81.076912 
L 288.628396 81.081471 
L 289.918482 82.929432 
L 290.473088 83.745936 
L 291.160727 84.777393 
L 292.321049 86.567605 
L 292.357798 86.625354 
L 293.500174 88.473314 
L 294.16901 89.588041 
L 294.601094 90.321275 
L 295.657072 92.169236 
L 296.016971 92.819375 
L 296.668417 94.017197 
L 297.641028 95.865157 
L 297.864931 96.305243 
L 298.568869 97.713118 
L 299.460988 99.561079 
L 299.712892 100.102206 
L 300.310935 101.40904 
L 301.12529 103.257001 
L 301.560853 104.284929 
L 301.902533 105.104961 
L 302.641718 106.952922 
L 303.350102 108.800883 
L 303.408814 108.961004 
L 304.017543 110.648844 
L 304.653726 112.496804 
L 305.256774 114.336103 
L 305.259569 114.344765 
L 305.825879 116.192726 
L 306.362384 118.040687 
L 306.869083 119.888647 
L 307.104735 120.8018 
L 307.342147 121.736608 
L 307.782138 123.584569 
L 308.192795 125.43253 
L 308.574121 127.28049 
L 308.926113 129.128451 
L 308.952696 129.280698 
L 309.244147 130.976412 
L 309.532891 132.824373 
L 309.79276 134.672334 
L 310.023755 136.520294 
L 310.225876 138.368255 
L 310.399122 140.216216 
L 310.543494 142.064177 
L 310.658992 143.912137 
L 310.745615 145.760098 
L 310.800657 147.521436 
L 310.803322 147.608059 
L 310.831752 149.45602 
L 310.831752 151.30398 
L 310.803322 153.151941 
L 310.800657 153.238564 
L 310.745615 154.999902 
L 310.658992 156.847863 
L 310.543494 158.695823 
L 310.399122 160.543784 
L 310.225876 162.391745 
L 310.023755 164.239706 
L 309.79276 166.087666 
L 309.532891 167.935627 
L 309.244147 169.783588 
L 308.952696 171.479302 
L 308.926113 171.631549 
L 308.574121 173.47951 
L 308.192795 175.32747 
L 307.782138 177.175431 
L 307.342147 179.023392 
L 307.104735 179.9582 
L 306.869083 180.871353 
L 306.362384 182.719313 
L 305.825879 184.567274 
L 305.259569 186.415235 
L 305.256774 186.423897 
L 304.653726 188.263196 
L 304.017543 190.111156 
L 303.408814 191.798996 
L 303.350102 191.959117 
L 302.641718 193.807078 
L 301.902533 195.655039 
L 301.560853 196.475071 
L 301.12529 197.502999 
L 300.310935 199.35096 
L 299.712892 200.657794 
L 299.460988 201.198921 
L 298.568869 203.046882 
L 297.864931 204.454757 
L 297.641028 204.894843 
L 296.668417 206.742803 
L 296.016971 207.940625 
L 295.657072 208.590764 
L 294.601094 210.438725 
L 294.16901 211.171959 
L 293.500174 212.286686 
L 292.357798 214.134646 
L 292.321049 214.192395 
L 291.160727 215.982607 
L 290.473088 217.014064 
L 289.918482 217.830568 
L 288.628396 219.678529 
L 288.625128 219.683088 
L 287.278026 221.526489 
L 286.777167 222.194302 
L 285.874701 223.37445 
L 284.929206 224.579956 
L 284.415242 225.222411 
L 283.081245 226.849236 
L 282.896214 227.070372 
L 281.312247 228.918332 
L 281.233285 229.008313 
L 279.658427 230.766293 
L 279.385324 231.064224 
L 277.934232 232.614254 
L 277.537363 233.028762 
L 276.135072 234.462215 
L 275.689402 234.907885 
L 274.255949 236.310176 
L 273.841442 236.707045 
L 272.291412 238.158136 
L 271.993481 238.43124 
L 270.235501 240.006097 
L 270.14552 240.08506 
L 268.297559 241.669026 
L 268.076424 241.854058 
L 266.449598 243.188054 
L 265.807143 243.702019 
L 264.601638 244.647513 
L 263.42149 245.549979 
L 262.753677 246.050839 
L 260.910275 247.39794 
L 260.905716 247.401209 
L 259.057755 248.691295 
L 258.241252 249.245901 
L 257.209795 249.933539 
L 255.419583 251.093862 
L 255.361834 251.130611 
L 253.513873 252.272987 
L 252.399147 252.941822 
L 251.665912 253.373907 
L 249.817952 254.429885 
L 249.167812 254.789783 
L 247.969991 255.44123 
L 246.12203 256.413841 
L 245.681945 256.637744 
L 244.274069 257.341682 
L 242.426109 258.233801 
L 241.884981 258.485705 
L 240.578148 259.083747 
L 238.730187 259.898103 
L 237.702259 260.333665 
L 236.882226 260.675346 
L 235.034265 261.41453 
L 233.186305 262.122915 
L 233.026183 262.181626 
L 231.338344 262.790355 
L 229.490383 263.426538 
L 227.651085 264.029587 
L 227.642422 264.032381 
L 225.794462 264.598692 
L 223.946501 265.135197 
L 222.09854 265.641895 
L 221.185388 265.877548 
L 220.250579 266.114959 
L 218.402619 266.55495 
L 216.554658 266.965608 
L 214.706697 267.346933 
L 212.858736 267.698926 
L 212.70649 267.725509 
L 211.010776 268.016959 
L 209.162815 268.305703 
L 207.314854 268.565573 
L 205.466893 268.796568 
L 203.618932 268.998689 
L 201.770972 269.171935 
L 199.923011 269.316307 
L 198.07505 269.431804 
L 196.227089 269.518427 
L 194.465752 269.573469 
L 194.379129 269.576135 
L 192.531168 269.604565 
L 190.683207 269.604565 
L 188.835246 269.576135 
z
" clip-path="url(#p36941ea116)" style="fill: none; stroke: #606060; stroke-width: 1.5"/>
   </g>
   <g id="PathCollection_5">
    <path d="M 170.355639 286.401774 
L 169.142914 286.205116 
L 168.507678 286.100694 
L 166.659717 285.771605 
L 164.811756 285.417201 
L 162.963796 285.037483 
L 161.115835 284.632451 
L 159.933684 284.357155 
L 159.267874 284.19995 
L 157.419913 283.73796 
L 155.571953 283.250304 
L 153.723992 282.736981 
L 152.943008 282.509195 
L 151.876031 282.19361 
L 150.02807 281.621002 
L 148.18011 281.022367 
L 147.111757 280.661234 
L 146.332149 280.39394 
L 144.484188 279.733954 
L 142.636227 279.047568 
L 142.028796 278.813273 
L 140.788266 278.327849 
L 138.940306 277.577952 
L 137.482647 276.965312 
L 137.092345 276.79886 
L 135.244384 275.983583 
L 133.396423 275.14113 
L 133.345893 275.117352 
L 131.548463 274.258877 
L 129.700502 273.348688 
L 129.544241 273.269391 
L 127.852541 272.397909 
L 126.01118 271.42143 
L 126.00458 271.417876 
L 124.15662 270.39439 
L 122.714461 269.573469 
L 122.308659 269.338865 
L 120.460698 268.241638 
L 119.613716 267.725509 
L 118.612737 267.105855 
L 116.764777 265.932547 
L 116.680266 265.877548 
L 114.916816 264.711395 
L 113.910337 264.029587 
L 113.068855 263.450206 
L 111.269242 262.181626 
L 111.220894 262.146977 
L 109.372933 260.791806 
L 108.76208 260.333665 
L 107.524973 259.390109 
L 106.364976 258.485705 
L 105.677012 257.940078 
L 104.069876 256.637744 
L 103.829051 256.439169 
L 101.98109 254.882992 
L 101.872664 254.789783 
L 100.13313 253.26769 
L 99.768157 252.941822 
L 98.285169 251.593651 
L 97.74618 251.093862 
L 96.437208 249.85761 
L 95.801972 249.245901 
L 94.589247 248.056058 
L 93.931129 247.39794 
L 92.741287 246.185216 
L 92.129577 245.549979 
L 90.893326 244.241007 
L 90.393536 243.702019 
L 89.045365 242.21903 
L 88.719497 241.854058 
L 87.197404 240.114523 
L 87.104196 240.006097 
L 85.548018 238.158136 
L 85.349444 237.917312 
L 84.047109 236.310176 
L 83.501483 235.622212 
L 82.597078 234.462215 
L 81.653522 233.225108 
L 81.195382 232.614254 
L 79.840211 230.766293 
L 79.805561 230.717945 
L 78.536982 228.918332 
L 77.957601 228.07685 
L 77.275792 227.070372 
L 76.10964 225.306921 
L 76.054641 225.222411 
L 74.881332 223.37445 
L 74.261679 222.373471 
L 73.745549 221.526489 
L 72.648323 219.678529 
L 72.413718 219.272726 
L 71.592797 217.830568 
L 70.569311 215.982607 
L 70.565757 215.976007 
L 69.589278 214.134646 
L 68.717797 212.442947 
L 68.6385 212.286686 
L 67.72831 210.438725 
L 66.869836 208.641294 
L 66.846057 208.590764 
L 66.003604 206.742803 
L 65.188328 204.894843 
L 65.021875 204.50454 
L 64.409236 203.046882 
L 63.659339 201.198921 
L 63.173914 199.958392 
L 62.939619 199.35096 
L 62.253234 197.502999 
L 61.593248 195.655039 
L 61.325954 194.87543 
L 60.96482 193.807078 
L 60.366185 191.959117 
L 59.793578 190.111156 
L 59.477993 189.044179 
L 59.250206 188.263196 
L 58.736884 186.415235 
L 58.249227 184.567274 
L 57.787237 182.719313 
L 57.630032 182.053504 
L 57.354737 180.871353 
L 56.949704 179.023392 
L 56.569986 177.175431 
L 56.215583 175.32747 
L 55.886494 173.47951 
L 55.782071 172.844273 
L 55.585413 171.631549 
L 55.310716 169.783588 
L 55.060992 167.935627 
L 54.83624 166.087666 
L 54.636461 164.239706 
L 54.461653 162.391745 
L 54.311819 160.543784 
L 54.186957 158.695823 
L 54.087067 156.847863 
L 54.012149 154.999902 
L 53.962205 153.151941 
L 53.937232 151.30398 
L 53.937232 149.45602 
L 53.962205 147.608059 
L 54.012149 145.760098 
L 54.087067 143.912137 
L 54.186957 142.064177 
L 54.311819 140.216216 
L 54.461653 138.368255 
L 54.636461 136.520294 
L 54.83624 134.672334 
L 55.060992 132.824373 
L 55.310716 130.976412 
L 55.585413 129.128451 
L 55.782071 127.915727 
L 55.886494 127.28049 
L 56.215583 125.43253 
L 56.569986 123.584569 
L 56.949704 121.736608 
L 57.354737 119.888647 
L 57.630032 118.706496 
L 57.787237 118.040687 
L 58.249227 116.192726 
L 58.736884 114.344765 
L 59.250206 112.496804 
L 59.477993 111.715821 
L 59.793578 110.648844 
L 60.366185 108.800883 
L 60.96482 106.952922 
L 61.325954 105.88457 
L 61.593248 105.104961 
L 62.253234 103.257001 
L 62.939619 101.40904 
L 63.173914 100.801608 
L 63.659339 99.561079 
L 64.409236 97.713118 
L 65.021875 96.25546 
L 65.188328 95.865157 
L 66.003604 94.017197 
L 66.846057 92.169236 
L 66.869836 92.118706 
L 67.72831 90.321275 
L 68.6385 88.473314 
L 68.717797 88.317053 
L 69.589278 86.625354 
L 70.565757 84.783993 
L 70.569311 84.777393 
L 71.592797 82.929432 
L 72.413718 81.487274 
L 72.648323 81.081471 
L 73.745549 79.233511 
L 74.261679 78.386529 
L 74.881332 77.38555 
L 76.054641 75.537589 
L 76.10964 75.453079 
L 77.275792 73.689628 
L 77.957601 72.68315 
L 78.536982 71.841668 
L 79.805561 70.042055 
L 79.840211 69.993707 
L 81.195382 68.145746 
L 81.653522 67.534892 
L 82.597078 66.297785 
L 83.501483 65.137788 
L 84.047109 64.449824 
L 85.349444 62.842688 
L 85.548018 62.601864 
L 87.104196 60.753903 
L 87.197404 60.645477 
L 88.719497 58.905942 
L 89.045365 58.54097 
L 90.393536 57.057981 
L 90.893326 56.518993 
L 92.129577 55.210021 
L 92.741287 54.574784 
L 93.931129 53.36206 
L 94.589247 52.703942 
L 95.801972 51.514099 
L 96.437208 50.90239 
L 97.74618 49.666138 
L 98.285169 49.166349 
L 99.768157 47.818178 
L 100.13313 47.49231 
L 101.872664 45.970217 
L 101.98109 45.877008 
L 103.829051 44.320831 
L 104.069876 44.122256 
L 105.677012 42.819922 
L 106.364976 42.274295 
L 107.524973 41.369891 
L 108.76208 40.426335 
L 109.372933 39.968194 
L 111.220894 38.613023 
L 111.269242 38.578374 
L 113.068855 37.309794 
L 113.910337 36.730413 
L 114.916816 36.048605 
L 116.680266 34.882452 
L 116.764777 34.827453 
L 118.612737 33.654145 
L 119.613716 33.034491 
L 120.460698 32.518362 
L 122.308659 31.421135 
L 122.714461 31.186531 
L 124.15662 30.36561 
L 126.00458 29.342124 
L 126.01118 29.33857 
L 127.852541 28.362091 
L 129.544241 27.490609 
L 129.700502 27.411312 
L 131.548463 26.501123 
L 133.345893 25.642648 
L 133.396423 25.61887 
L 135.244384 24.776417 
L 137.092345 23.96114 
L 137.482647 23.794688 
L 138.940306 23.182048 
L 140.788266 22.432151 
L 142.028796 21.946727 
L 142.636227 21.712432 
L 144.484188 21.026046 
L 146.332149 20.36606 
L 147.111757 20.098766 
L 148.18011 19.737633 
L 150.02807 19.138998 
L 151.876031 18.56639 
L 152.943008 18.250805 
L 153.723992 18.023019 
L 155.571953 17.509696 
L 157.419913 17.02204 
L 159.267874 16.56005 
L 159.933684 16.402845 
L 161.115835 16.127549 
L 162.963796 15.722517 
L 164.811756 15.342799 
L 166.659717 14.988395 
L 168.507678 14.659306 
L 169.142914 14.554884 
L 170.355639 14.358226 
L 172.203599 14.083529 
L 174.05156 13.833805 
L 175.899521 13.609053 
L 177.747482 13.409273 
L 179.595443 13.234466 
L 181.443403 13.084631 
L 183.291364 12.959769 
L 185.139325 12.859879 
L 186.987286 12.784962 
L 188.835246 12.735017 
L 190.683207 12.710045 
L 192.531168 12.710045 
L 194.379129 12.735017 
L 196.227089 12.784962 
L 198.07505 12.859879 
L 199.923011 12.959769 
L 201.770972 13.084631 
L 203.618932 13.234466 
L 205.466893 13.409273 
L 207.314854 13.609053 
L 209.162815 13.833805 
L 211.010776 14.083529 
L 212.858736 14.358226 
L 214.071461 14.554884 
L 214.706697 14.659306 
L 216.554658 14.988395 
L 218.402619 15.342799 
L 220.250579 15.722517 
L 222.09854 16.127549 
L 223.280691 16.402845 
L 223.946501 16.56005 
L 225.794462 17.02204 
L 227.642422 17.509696 
L 229.490383 18.023019 
L 230.271367 18.250805 
L 231.338344 18.56639 
L 233.186305 19.138998 
L 235.034265 19.737633 
L 236.102618 20.098766 
L 236.882226 20.36606 
L 238.730187 21.026046 
L 240.578148 21.712432 
L 241.185579 21.946727 
L 242.426109 22.432151 
L 244.274069 23.182048 
L 245.731728 23.794688 
L 246.12203 23.96114 
L 247.969991 24.776417 
L 249.817952 25.61887 
L 249.868482 25.642648 
L 251.665912 26.501123 
L 253.513873 27.411312 
L 253.670134 27.490609 
L 255.361834 28.362091 
L 257.203195 29.33857 
L 257.209795 29.342124 
L 259.057755 30.36561 
L 260.499914 31.186531 
L 260.905716 31.421135 
L 262.753677 32.518362 
L 263.600659 33.034491 
L 264.601638 33.654145 
L 266.449598 34.827453 
L 266.534109 34.882452 
L 268.297559 36.048605 
L 269.304038 36.730413 
L 270.14552 37.309794 
L 271.945133 38.578374 
L 271.993481 38.613023 
L 273.841442 39.968194 
L 274.452295 40.426335 
L 275.689402 41.369891 
L 276.849399 42.274295 
L 277.537363 42.819922 
L 279.144499 44.122256 
L 279.385324 44.320831 
L 281.233285 45.877008 
L 281.341711 45.970217 
L 283.081245 47.49231 
L 283.446218 47.818178 
L 284.929206 49.166349 
L 285.468195 49.666138 
L 286.777167 50.90239 
L 287.412403 51.514099 
L 288.625128 52.703942 
L 289.283246 53.36206 
L 290.473088 54.574784 
L 291.084798 55.210021 
L 292.321049 56.518993 
L 292.820839 57.057981 
L 294.16901 58.54097 
L 294.494878 58.905942 
L 296.016971 60.645477 
L 296.110179 60.753903 
L 297.666357 62.601864 
L 297.864931 62.842688 
L 299.167266 64.449824 
L 299.712892 65.137788 
L 300.617297 66.297785 
L 301.560853 67.534892 
L 302.018993 68.145746 
L 303.374164 69.993707 
L 303.408814 70.042055 
L 304.677393 71.841668 
L 305.256774 72.68315 
L 305.938583 73.689628 
L 307.104735 75.453079 
L 307.159734 75.537589 
L 308.333043 77.38555 
L 308.952696 78.386529 
L 309.468826 79.233511 
L 310.566052 81.081471 
L 310.800657 81.487274 
L 311.621578 82.929432 
L 312.645064 84.777393 
L 312.648618 84.783993 
L 313.625097 86.625354 
L 314.496578 88.317053 
L 314.575875 88.473314 
L 315.486065 90.321275 
L 316.344539 92.118706 
L 316.368318 92.169236 
L 317.210771 94.017197 
L 318.026047 95.865157 
L 318.1925 96.25546 
L 318.805139 97.713118 
L 319.555036 99.561079 
L 320.040461 100.801608 
L 320.274756 101.40904 
L 320.961141 103.257001 
L 321.621127 105.104961 
L 321.888421 105.88457 
L 322.249555 106.952922 
L 322.84819 108.800883 
L 323.420797 110.648844 
L 323.736382 111.715821 
L 323.964169 112.496804 
L 324.477491 114.344765 
L 324.965148 116.192726 
L 325.427138 118.040687 
L 325.584343 118.706496 
L 325.859638 119.888647 
L 326.264671 121.736608 
L 326.644389 123.584569 
L 326.998792 125.43253 
L 327.327881 127.28049 
L 327.432304 127.915727 
L 327.628962 129.128451 
L 327.903659 130.976412 
L 328.153383 132.824373 
L 328.378135 134.672334 
L 328.577914 136.520294 
L 328.752722 138.368255 
L 328.902556 140.216216 
L 329.027418 142.064177 
L 329.127308 143.912137 
L 329.202226 145.760098 
L 329.25217 147.608059 
L 329.277143 149.45602 
L 329.277143 151.30398 
L 329.25217 153.151941 
L 329.202226 154.999902 
L 329.127308 156.847863 
L 329.027418 158.695823 
L 328.902556 160.543784 
L 328.752722 162.391745 
L 328.577914 164.239706 
L 328.378135 166.087666 
L 328.153383 167.935627 
L 327.903659 169.783588 
L 327.628962 171.631549 
L 327.432304 172.844273 
L 327.327881 173.47951 
L 326.998792 175.32747 
L 326.644389 177.175431 
L 326.264671 179.023392 
L 325.859638 180.871353 
L 325.584343 182.053504 
L 325.427138 182.719313 
L 324.965148 184.567274 
L 324.477491 186.415235 
L 323.964169 188.263196 
L 323.736382 189.044179 
L 323.420797 190.111156 
L 322.84819 191.959117 
L 322.249555 193.807078 
L 321.888421 194.87543 
L 321.621127 195.655039 
L 320.961141 197.502999 
L 320.274756 199.35096 
L 320.040461 199.958392 
L 319.555036 201.198921 
L 318.805139 203.046882 
L 318.1925 204.50454 
L 318.026047 204.894843 
L 317.210771 206.742803 
L 316.368318 208.590764 
L 316.344539 208.641294 
L 315.486065 210.438725 
L 314.575875 212.286686 
L 314.496578 212.442947 
L 313.625097 214.134646 
L 312.648618 215.976007 
L 312.645064 215.982607 
L 311.621578 217.830568 
L 310.800657 219.272726 
L 310.566052 219.678529 
L 309.468826 221.526489 
L 308.952696 222.373471 
L 308.333043 223.37445 
L 307.159734 225.222411 
L 307.104735 225.306921 
L 305.938583 227.070372 
L 305.256774 228.07685 
L 304.677393 228.918332 
L 303.408814 230.717945 
L 303.374164 230.766293 
L 302.018993 232.614254 
L 301.560853 233.225108 
L 300.617297 234.462215 
L 299.712892 235.622212 
L 299.167266 236.310176 
L 297.864931 237.917312 
L 297.666357 238.158136 
L 296.110179 240.006097 
L 296.016971 240.114523 
L 294.494878 241.854058 
L 294.16901 242.21903 
L 292.820839 243.702019 
L 292.321049 244.241007 
L 291.084798 245.549979 
L 290.473088 246.185216 
L 289.283246 247.39794 
L 288.625128 248.056058 
L 287.412403 249.245901 
L 286.777167 249.85761 
L 285.468195 251.093862 
L 284.929206 251.593651 
L 283.446218 252.941822 
L 283.081245 253.26769 
L 281.341711 254.789783 
L 281.233285 254.882992 
L 279.385324 256.439169 
L 279.144499 256.637744 
L 277.537363 257.940078 
L 276.849399 258.485705 
L 275.689402 259.390109 
L 274.452295 260.333665 
L 273.841442 260.791806 
L 271.993481 262.146977 
L 271.945133 262.181626 
L 270.14552 263.450206 
L 269.304038 264.029587 
L 268.297559 264.711395 
L 266.534109 265.877548 
L 266.449598 265.932547 
L 264.601638 267.105855 
L 263.600659 267.725509 
L 262.753677 268.241638 
L 260.905716 269.338865 
L 260.499914 269.573469 
L 259.057755 270.39439 
L 257.209795 271.417876 
L 257.203195 271.42143 
L 255.361834 272.397909 
L 253.670134 273.269391 
L 253.513873 273.348688 
L 251.665912 274.258877 
L 249.868482 275.117352 
L 249.817952 275.14113 
L 247.969991 275.983583 
L 246.12203 276.79886 
L 245.731728 276.965312 
L 244.274069 277.577952 
L 242.426109 278.327849 
L 241.185579 278.813273 
L 240.578148 279.047568 
L 238.730187 279.733954 
L 236.882226 280.39394 
L 236.102618 280.661234 
L 235.034265 281.022367 
L 233.186305 281.621002 
L 231.338344 282.19361 
L 230.271367 282.509195 
L 229.490383 282.736981 
L 227.642422 283.250304 
L 225.794462 283.73796 
L 223.946501 284.19995 
L 223.280691 284.357155 
L 222.09854 284.632451 
L 220.250579 285.037483 
L 218.402619 285.417201 
L 216.554658 285.771605 
L 214.706697 286.100694 
L 214.071461 286.205116 
L 212.858736 286.401774 
L 211.010776 286.676471 
L 209.162815 286.926195 
L 207.314854 287.150947 
L 205.466893 287.350727 
L 203.618932 287.525534 
L 201.770972 287.675369 
L 199.923011 287.800231 
L 198.07505 287.900121 
L 196.227089 287.975038 
L 194.379129 288.024983 
L 192.531168 288.049955 
L 190.683207 288.049955 
L 188.835246 288.024983 
L 186.987286 287.975038 
L 185.139325 287.900121 
L 183.291364 287.800231 
L 181.443403 287.675369 
L 179.595443 287.525534 
L 177.747482 287.350727 
L 175.899521 287.150947 
L 174.05156 286.926195 
L 172.203599 286.676471 
L 170.355639 286.401774 
z
" clip-path="url(#p36941ea116)" style="fill: none; stroke: #808080; stroke-width: 1.5"/>
   </g>
   <g id="PathCollection_6">
    <path d="M 122.775331 288.053077 
L 122.308659 287.819741 
L 120.460698 286.870788 
L 119.197629 286.205116 
L 118.612737 285.89264 
L 116.764777 284.880059 
L 115.833754 284.357155 
L 114.916816 283.83501 
L 113.068855 282.757033 
L 112.65387 282.509195 
L 111.220894 281.641336 
L 109.639365 280.661234 
L 109.372933 280.493762 
L 107.524973 279.305788 
L 106.775494 278.813273 
L 105.677012 278.080952 
L 104.039158 276.965312 
L 103.829051 276.820091 
L 101.98109 275.515648 
L 101.428352 275.117352 
L 100.13313 274.170099 
L 98.92618 273.269391 
L 98.285169 272.783776 
L 96.522133 271.42143 
L 96.437208 271.354797 
L 94.589247 269.876428 
L 94.217694 269.573469 
L 92.741287 268.350819 
L 92.000177 267.725509 
L 90.893326 266.776779 
L 89.863298 265.877548 
L 89.045365 265.151962 
L 87.802735 264.029587 
L 87.197404 263.473873 
L 85.814473 262.181626 
L 85.349444 261.739848 
L 83.894772 260.333665 
L 83.501483 259.947042 
L 82.040145 258.485705 
L 81.653522 258.092416 
L 80.247339 256.637744 
L 79.805561 256.172714 
L 78.513314 254.789783 
L 77.957601 254.184452 
L 76.835225 252.941822 
L 76.10964 252.12389 
L 75.210409 251.093862 
L 74.261679 249.98701 
L 73.636368 249.245901 
L 72.413718 247.769494 
L 72.110759 247.39794 
L 70.632391 245.549979 
L 70.565757 245.465055 
L 69.203411 243.702019 
L 68.717797 243.061007 
L 67.817088 241.854058 
L 66.869836 240.558835 
L 66.471539 240.006097 
L 65.167096 238.158136 
L 65.021875 237.948029 
L 63.906236 236.310176 
L 63.173914 235.211693 
L 62.6814 234.462215 
L 61.493425 232.614254 
L 61.325954 232.347822 
L 60.345851 230.766293 
L 59.477993 229.333318 
L 59.230154 228.918332 
L 58.152177 227.070372 
L 57.630032 226.153434 
L 57.107129 225.222411 
L 56.094548 223.37445 
L 55.782071 222.789559 
L 55.1164 221.526489 
L 54.167447 219.678529 
L 53.934111 219.211856 
" clip-path="url(#p36941ea116)" style="fill: none; stroke: #a0a0a0; stroke-width: 1.5"/>
    <path d="M 329.280264 219.211856 
L 329.046928 219.678529 
L 328.097975 221.526489 
L 327.432304 222.789559 
L 327.119827 223.37445 
L 326.107246 225.222411 
L 325.584343 226.153434 
L 325.062198 227.070372 
L 323.984221 228.918332 
L 323.736382 229.333318 
L 322.868524 230.766293 
L 321.888421 232.347822 
L 321.72095 232.614254 
L 320.532975 234.462215 
L 320.040461 235.211693 
L 319.308139 236.310176 
L 318.1925 237.948029 
L 318.047279 238.158136 
L 316.742836 240.006097 
L 316.344539 240.558835 
L 315.397287 241.854058 
L 314.496578 243.061007 
L 314.010964 243.702019 
L 312.648618 245.465055 
L 312.581984 245.549979 
L 311.103616 247.39794 
L 310.800657 247.769494 
L 309.578007 249.245901 
L 308.952696 249.98701 
L 308.003966 251.093862 
L 307.104735 252.12389 
L 306.37915 252.941822 
L 305.256774 254.184452 
L 304.701061 254.789783 
L 303.408814 256.172714 
L 302.967036 256.637744 
L 301.560853 258.092416 
L 301.17423 258.485705 
L 299.712892 259.947042 
L 299.319603 260.333665 
L 297.864931 261.739848 
L 297.399902 262.181626 
L 296.016971 263.473873 
L 295.41164 264.029587 
L 294.16901 265.151962 
L 293.351077 265.877548 
L 292.321049 266.776779 
L 291.214198 267.725509 
L 290.473088 268.350819 
L 288.996681 269.573469 
L 288.625128 269.876428 
L 286.777167 271.354797 
L 286.692242 271.42143 
L 284.929206 272.783776 
L 284.288195 273.269391 
L 283.081245 274.170099 
L 281.786023 275.117352 
L 281.233285 275.515648 
L 279.385324 276.820091 
L 279.175217 276.965312 
L 277.537363 278.080952 
L 276.438881 278.813273 
L 275.689402 279.305788 
L 273.841442 280.493762 
L 273.57501 280.661234 
L 271.993481 281.641336 
L 270.560505 282.509195 
L 270.14552 282.757033 
L 268.297559 283.83501 
L 267.380621 284.357155 
L 266.449598 284.880059 
L 264.601638 285.89264 
L 264.016746 286.205116 
L 262.753677 286.870788 
L 260.905716 287.819741 
L 260.439044 288.053077 
" clip-path="url(#p36941ea116)" style="fill: none; stroke: #a0a0a0; stroke-width: 1.5"/>
    <path d="M 53.934111 81.548144 
L 54.167447 81.081471 
L 55.1164 79.233511 
L 55.782071 77.970441 
L 56.094548 77.38555 
L 57.107129 75.537589 
L 57.630032 74.606566 
L 58.152177 73.689628 
L 59.230154 71.841668 
L 59.477993 71.426682 
L 60.345851 69.993707 
L 61.325954 68.412178 
L 61.493425 68.145746 
L 62.6814 66.297785 
L 63.173914 65.548307 
L 63.906236 64.449824 
L 65.021875 62.811971 
L 65.167096 62.601864 
L 66.471539 60.753903 
L 66.869836 60.201165 
L 67.817088 58.905942 
L 68.717797 57.698993 
L 69.203411 57.057981 
L 70.565757 55.294945 
L 70.632391 55.210021 
L 72.110759 53.36206 
L 72.413718 52.990506 
L 73.636368 51.514099 
L 74.261679 50.77299 
L 75.210409 49.666138 
L 76.10964 48.63611 
L 76.835225 47.818178 
L 77.957601 46.575548 
L 78.513314 45.970217 
L 79.805561 44.587286 
L 80.247339 44.122256 
L 81.653522 42.667584 
L 82.040145 42.274295 
L 83.501483 40.812958 
L 83.894772 40.426335 
L 85.349444 39.020152 
L 85.814473 38.578374 
L 87.197404 37.286127 
L 87.802735 36.730413 
L 89.045365 35.608038 
L 89.863298 34.882452 
L 90.893326 33.983221 
L 92.000177 33.034491 
L 92.741287 32.409181 
L 94.217694 31.186531 
L 94.589247 30.883572 
L 96.437208 29.405203 
L 96.522133 29.33857 
L 98.285169 27.976224 
L 98.92618 27.490609 
L 100.13313 26.589901 
L 101.428352 25.642648 
L 101.98109 25.244352 
L 103.829051 23.939909 
L 104.039158 23.794688 
L 105.677012 22.679048 
L 106.775494 21.946727 
L 107.524973 21.454212 
L 109.372933 20.266238 
L 109.639365 20.098766 
L 111.220894 19.118664 
L 112.65387 18.250805 
L 113.068855 18.002967 
L 114.916816 16.92499 
L 115.833754 16.402845 
L 116.764777 15.879941 
L 118.612737 14.86736 
L 119.197629 14.554884 
L 120.460698 13.889212 
L 122.308659 12.940259 
L 122.775331 12.706923 
" clip-path="url(#p36941ea116)" style="fill: none; stroke: #a0a0a0; stroke-width: 1.5"/>
    <path d="M 260.439044 12.706923 
L 260.905716 12.940259 
L 262.753677 13.889212 
L 264.016746 14.554884 
L 264.601638 14.86736 
L 266.449598 15.879941 
L 267.380621 16.402845 
L 268.297559 16.92499 
L 270.14552 18.002967 
L 270.560505 18.250805 
L 271.993481 19.118664 
L 273.57501 20.098766 
L 273.841442 20.266238 
L 275.689402 21.454212 
L 276.438881 21.946727 
L 277.537363 22.679048 
L 279.175217 23.794688 
L 279.385324 23.939909 
L 281.233285 25.244352 
L 281.786023 25.642648 
L 283.081245 26.589901 
L 284.288195 27.490609 
L 284.929206 27.976224 
L 286.692242 29.33857 
L 286.777167 29.405203 
L 288.625128 30.883572 
L 288.996681 31.186531 
L 290.473088 32.409181 
L 291.214198 33.034491 
L 292.321049 33.983221 
L 293.351077 34.882452 
L 294.16901 35.608038 
L 295.41164 36.730413 
L 296.016971 37.286127 
L 297.399902 38.578374 
L 297.864931 39.020152 
L 299.319603 40.426335 
L 299.712892 40.812958 
L 301.17423 42.274295 
L 301.560853 42.667584 
L 302.967036 44.122256 
L 303.408814 44.587286 
L 304.701061 45.970217 
L 305.256774 46.575548 
L 306.37915 47.818178 
L 307.104735 48.63611 
L 308.003966 49.666138 
L 308.952696 50.77299 
L 309.578007 51.514099 
L 310.800657 52.990506 
L 311.103616 53.36206 
L 312.581984 55.210021 
L 312.648618 55.294945 
L 314.010964 57.057981 
L 314.496578 57.698993 
L 315.397287 58.905942 
L 316.344539 60.201165 
L 316.742836 60.753903 
L 318.047279 62.601864 
L 318.1925 62.811971 
L 319.308139 64.449824 
L 320.040461 65.548307 
L 320.532975 66.297785 
L 321.72095 68.145746 
L 321.888421 68.412178 
L 322.868524 69.993707 
L 323.736382 71.426682 
L 323.984221 71.841668 
L 325.062198 73.689628 
L 325.584343 74.606566 
L 326.107246 75.537589 
L 327.119827 77.38555 
L 327.432304 77.970441 
L 328.097975 79.233511 
L 329.046928 81.081471 
L 329.280264 81.548144 
" clip-path="url(#p36941ea116)" style="fill: none; stroke: #a0a0a0; stroke-width: 1.5"/>
   </g>
   <g id="PathCollection_7">
    <path d="M 94.260188 288.053077 
L 92.741287 286.965215 
L 91.69967 286.205116 
L 90.893326 285.608643 
L 89.232261 284.357155 
L 89.045365 284.214388 
L 87.197404 282.777085 
L 86.859017 282.509195 
L 85.349444 281.297284 
L 84.570831 280.661234 
L 83.501483 279.775203 
L 82.36021 278.813273 
L 81.653522 278.209003 
L 80.223277 276.965312 
L 79.805561 276.596739 
L 78.156408 275.117352 
L 77.957601 274.936348 
L 76.156211 273.269391 
L 76.10964 273.225642 
L 74.261679 271.461679 
L 74.220172 271.42143 
L 72.413718 269.642768 
L 72.34442 269.573469 
L 70.565757 267.767015 
L 70.525508 267.725509 
L 68.761546 265.877548 
L 68.717797 265.830976 
L 67.05084 264.029587 
L 66.869836 263.83078 
L 65.390448 262.181626 
L 65.021875 261.76391 
L 63.778184 260.333665 
L 63.173914 259.626977 
L 62.211985 258.485705 
L 61.325954 257.416357 
L 60.689904 256.637744 
L 59.477993 255.128171 
L 59.210103 254.789783 
L 57.7728 252.941822 
L 57.630032 252.754926 
L 56.378545 251.093862 
L 55.782071 250.287518 
L 55.021973 249.245901 
L 53.934111 247.726999 
" clip-path="url(#p36941ea116)" style="fill: none; stroke: #c0c0c0; stroke-width: 1.5"/>
    <path d="M 329.280264 247.726999 
L 328.192402 249.245901 
L 327.432304 250.287518 
L 326.83583 251.093862 
L 325.584343 252.754926 
L 325.441575 252.941822 
L 324.004272 254.789783 
L 323.736382 255.128171 
L 322.524471 256.637744 
L 321.888421 257.416357 
L 321.00239 258.485705 
L 320.040461 259.626977 
L 319.436191 260.333665 
L 318.1925 261.76391 
L 317.823927 262.181626 
L 316.344539 263.83078 
L 316.163535 264.029587 
L 314.496578 265.830976 
L 314.452829 265.877548 
L 312.688867 267.725509 
L 312.648618 267.767015 
L 310.869955 269.573469 
L 310.800657 269.642768 
L 308.994203 271.42143 
L 308.952696 271.461679 
L 307.104735 273.225642 
L 307.058164 273.269391 
L 305.256774 274.936348 
L 305.057967 275.117352 
L 303.408814 276.596739 
L 302.991098 276.965312 
L 301.560853 278.209003 
L 300.854165 278.813273 
L 299.712892 279.775203 
L 298.643544 280.661234 
L 297.864931 281.297284 
L 296.355358 282.509195 
L 296.016971 282.777085 
L 294.16901 284.214388 
L 293.982114 284.357155 
L 292.321049 285.608643 
L 291.514705 286.205116 
L 290.473088 286.965215 
L 288.954187 288.053077 
" clip-path="url(#p36941ea116)" style="fill: none; stroke: #c0c0c0; stroke-width: 1.5"/>
    <path d="M 53.934111 53.033001 
L 55.021973 51.514099 
L 55.782071 50.472482 
L 56.378545 49.666138 
L 57.630032 48.005074 
L 57.7728 47.818178 
L 59.210103 45.970217 
L 59.477993 45.631829 
L 60.689904 44.122256 
L 61.325954 43.343643 
L 62.211985 42.274295 
L 63.173914 41.133023 
L 63.778184 40.426335 
L 65.021875 38.99609 
L 65.390448 38.578374 
L 66.869836 36.92922 
L 67.05084 36.730413 
L 68.717797 34.929024 
L 68.761546 34.882452 
L 70.525508 33.034491 
L 70.565757 32.992985 
L 72.34442 31.186531 
L 72.413718 31.117232 
L 74.220172 29.33857 
L 74.261679 29.298321 
L 76.10964 27.534358 
L 76.156211 27.490609 
L 77.957601 25.823652 
L 78.156408 25.642648 
L 79.805561 24.163261 
L 80.223277 23.794688 
L 81.653522 22.550997 
L 82.36021 21.946727 
L 83.501483 20.984797 
L 84.570831 20.098766 
L 85.349444 19.462716 
L 86.859017 18.250805 
L 87.197404 17.982915 
L 89.045365 16.545612 
L 89.232261 16.402845 
L 90.893326 15.151357 
L 91.69967 14.554884 
L 92.741287 13.794785 
L 94.260188 12.706923 
" clip-path="url(#p36941ea116)" style="fill: none; stroke: #c0c0c0; stroke-width: 1.5"/>
    <path d="M 288.954187 12.706923 
L 290.473088 13.794785 
L 291.514705 14.554884 
L 292.321049 15.151357 
L 293.982114 16.402845 
L 294.16901 16.545612 
L 296.016971 17.982915 
L 296.355358 18.250805 
L 297.864931 19.462716 
L 298.643544 20.098766 
L 299.712892 20.984797 
L 300.854165 21.946727 
L 301.560853 22.550997 
L 302.991098 23.794688 
L 303.408814 24.163261 
L 305.057967 25.642648 
L 305.256774 25.823652 
L 307.058164 27.490609 
L 307.104735 27.534358 
L 308.952696 29.298321 
L 308.994203 29.33857 
L 310.800657 31.117232 
L 310.869955 31.186531 
L 312.648618 32.992985 
L 312.688867 33.034491 
L 314.452829 34.882452 
L 314.496578 34.929024 
L 316.163535 36.730413 
L 316.344539 36.92922 
L 317.823927 38.578374 
L 318.1925 38.99609 
L 319.436191 40.426335 
L 320.040461 41.133023 
L 321.00239 42.274295 
L 321.888421 43.343643 
L 322.524471 44.122256 
L 323.736382 45.631829 
L 324.004272 45.970217 
L 325.441575 47.818178 
L 325.584343 48.005074 
L 326.83583 49.666138 
L 327.432304 50.472482 
L 328.192402 51.514099 
L 329.280264 53.033001 
" clip-path="url(#p36941ea116)" style="fill: none; stroke: #c0c0c0; stroke-width: 1.5"/>
   </g>
   <g id="PathCollection_8">
    <path d="M 72.379069 288.053077 
L 70.565757 286.460303 
L 70.279639 286.205116 
L 68.717797 284.79304 
L 68.242878 284.357155 
L 66.869836 283.079464 
L 66.266022 282.509195 
L 65.021875 281.317618 
L 64.346466 280.661234 
L 63.173914 279.505433 
L 62.481754 278.813273 
L 61.325954 277.640722 
L 60.66957 276.965312 
L 59.477993 275.721166 
L 58.907724 275.117352 
L 57.630032 273.74431 
L 57.194148 273.269391 
L 55.782071 271.707549 
L 55.526884 271.42143 
L 53.934111 269.608119 
" clip-path="url(#p36941ea116)" style="fill: none; stroke: #e0e0e0; stroke-width: 1.5"/>
    <path d="M 329.280264 269.608119 
L 327.687491 271.42143 
L 327.432304 271.707549 
L 326.020227 273.269391 
L 325.584343 273.74431 
L 324.306651 275.117352 
L 323.736382 275.721166 
L 322.544805 276.965312 
L 321.888421 277.640722 
L 320.732621 278.813273 
L 320.040461 279.505433 
L 318.867909 280.661234 
L 318.1925 281.317618 
L 316.948353 282.509195 
L 316.344539 283.079464 
L 314.971497 284.357155 
L 314.496578 284.79304 
L 312.934736 286.205116 
L 312.648618 286.460303 
L 310.835306 288.053077 
" clip-path="url(#p36941ea116)" style="fill: none; stroke: #e0e0e0; stroke-width: 1.5"/>
    <path d="M 53.934111 31.151881 
L 55.526884 29.33857 
L 55.782071 29.052451 
L 57.194148 27.490609 
L 57.630032 27.01569 
L 58.907724 25.642648 
L 59.477993 25.038834 
L 60.66957 23.794688 
L 61.325954 23.119278 
L 62.481754 21.946727 
L 63.173914 21.254567 
L 64.346466 20.098766 
L 65.021875 19.442382 
L 66.266022 18.250805 
L 66.869836 17.680536 
L 68.242878 16.402845 
L 68.717797 15.96696 
L 70.279639 14.554884 
L 70.565757 14.299697 
L 72.379069 12.706923 
" clip-path="url(#p36941ea116)" style="fill: none; stroke: #e0e0e0; stroke-width: 1.5"/>
    <path d="M 310.835306 12.706923 
L 312.648618 14.299697 
L 312.934736 14.554884 
L 314.496578 15.96696 
L 314.971497 16.402845 
L 316.344539 17.680536 
L 316.948353 18.250805 
L 318.1925 19.442382 
L 318.867909 20.098766 
L 320.040461 21.254567 
L 320.732621 21.946727 
L 321.888421 23.119278 
L 322.544805 23.794688 
L 323.736382 25.038834 
L 324.306651 25.642648 
L 325.584343 27.01569 
L 326.020227 27.490609 
L 327.432304 29.052451 
L 327.687491 29.33857 
L 329.280264 31.151881 
" clip-path="url(#p36941ea116)" style="fill: none; stroke: #e0e0e0; stroke-width: 1.5"/>
   </g>
   <g id="PathCollection_9"/>
   <g id="patch_3">
    <path d="M 48.427188 293.56 
L 48.427188 7.2 
" style="fill: none; stroke: #000000; stroke-width: 0.8; stroke-linejoin: miter; stroke-linecap: square"/>
   </g>
   <g id="patch_4">
    <path d="M 334.787187 293.56 
L 334.787187 7.2 
" style="fill: none; stroke: #000000; stroke-width: 0.8; stroke-linejoin: miter; stroke-linecap: square"/>
   </g>
   <g id="patch_5">
    <path d="M 48.427188 293.56 
L 334.787187 293.56 
" style="fill: none; stroke: #000000; stroke-width: 0.8; stroke-linejoin: miter; stroke-linecap: square"/>
   </g>
   <g id="patch_6">
    <path d="M 48.427188 7.2 
L 334.787187 7.2 
" style="fill: none; stroke: #000000; stroke-width: 0.8; stroke-linejoin: miter; stroke-linecap: square"/>
   </g>
  </g>
 </g>
 <defs>
  <clipPath id="p36941ea116">
   <rect x="48.427188" y="7.2" width="286.36" height="286.36"/>
  </clipPath>
 </defs>
</svg>
