<?xml version="1.0" encoding="utf-8" standalone="no"?>
<!DOCTYPE svg PUBLIC "-//W3C//DTD SVG 1.1//EN"
  "http://www.w3.org/Graphics/SVG/1.1/DTD/svg11.dtd">
<svg xmlns:xlink="http://www.w3.org/1999/xlink" width="387.387949pt" height="337.390987pt" viewBox="0 0 387.387949 337.390987" xmlns="http://www.w3.org/2000/svg" version="1.1">
 <metadata>
  <rdf:RDF xmlns:dc="http://purl.org/dc/elements/1.1/" xmlns:cc="http://creativecommons.org/ns#" xmlns:rdf="http://www.w3.org/1999/02/22-rdf-syntax-ns#">
   <cc:Work>
    <dc:type rdf:resource="http://purl.org/dc/dcmitype/StillImage"/>
    <dc:date>2025-04-10T13:38:51.289545</dc:date>
    <dc:format>image/svg+xml</dc:format>
    <dc:creator>
     <cc:Agent>
      <dc:title>Matplotlib v3.6.3, https://matplotlib.org/</dc:title>
     </cc:Agent>
    </dc:creator>
   </cc:Work>
  </rdf:RDF>
 </metadata>
 <defs>
  <style type="text/css">*{stroke-linejoin: round; stroke-linecap: butt}</style>
 </defs>
 <g id="figure_1">
  <g id="patch_1">
   <path d="M 0 337.390987 
L 387.387949 337.390987 
L 387.387949 0 
L 0 0 
z
" style="fill: #ffffff"/>
  </g>
  <g id="axes_1">
   <g id="patch_2">
    <path d="M 7.2 330.190987 
L 380.187949 330.190987 
L 380.187949 7.2 
L 7.2 7.2 
z
" style="fill: #ffffff"/>
   </g>
   <g id="matplotlib.axis_1">
    <g id="xtick_1">
     <g id="line2d_1">
      <defs>
       <path id="m6f6a71be6d" d="M 0 0 
L 0 3.5 
" style="stroke: #000000; stroke-width: 0.8"/>
      </defs>
      <g>
       <use xlink:href="#m6f6a71be6d" x="55.648312" y="47.894728" style="stroke: #000000; stroke-width: 0.8"/>
      </g>
     </g>
     <g id="text_1">
      <!-- −1.0 -->
      <g transform="translate(43.506905 62.493166) scale(0.1 -0.1)">
       <defs>
        <path id="DejaVuSans-2212" d="M 678 2272 
L 4684 2272 
L 4684 1741 
L 678 1741 
L 678 2272 
z
" transform="scale(0.015625)"/>
        <path id="DejaVuSans-31" d="M 794 531 
L 1825 531 
L 1825 4091 
L 703 3866 
L 703 4441 
L 1819 4666 
L 2450 4666 
L 2450 531 
L 3481 531 
L 3481 0 
L 794 0 
L 794 531 
z
" transform="scale(0.015625)"/>
        <path id="DejaVuSans-2e" d="M 684 794 
L 1344 794 
L 1344 0 
L 684 0 
L 684 794 
z
" transform="scale(0.015625)"/>
        <path id="DejaVuSans-30" d="M 2034 4250 
Q 1547 4250 1301 3770 
Q 1056 3291 1056 2328 
Q 1056 1369 1301 889 
Q 1547 409 2034 409 
Q 2525 409 2770 889 
Q 3016 1369 3016 2328 
Q 3016 3291 2770 3770 
Q 2525 4250 2034 4250 
z
M 2034 4750 
Q 2819 4750 3233 4129 
Q 3647 3509 3647 2328 
Q 3647 1150 3233 529 
Q 2819 -91 2034 -91 
Q 1250 -91 836 529 
Q 422 1150 422 2328 
Q 422 3509 836 4129 
Q 1250 4750 2034 4750 
z
" transform="scale(0.015625)"/>
       </defs>
       <use xlink:href="#DejaVuSans-2212"/>
       <use xlink:href="#DejaVuSans-31" x="83.789062"/>
       <use xlink:href="#DejaVuSans-2e" x="147.412109"/>
       <use xlink:href="#DejaVuSans-30" x="179.199219"/>
      </g>
     </g>
    </g>
    <g id="xtick_2">
     <g id="line2d_2">
      <g>
       <use xlink:href="#m6f6a71be6d" x="124.671523" y="47.894728" style="stroke: #000000; stroke-width: 0.8"/>
      </g>
     </g>
     <g id="text_2">
      <!-- −0.5 -->
      <g transform="translate(112.530117 62.493166) scale(0.1 -0.1)">
       <defs>
        <path id="DejaVuSans-35" d="M 691 4666 
L 3169 4666 
L 3169 4134 
L 1269 4134 
L 1269 2991 
Q 1406 3038 1543 3061 
Q 1681 3084 1819 3084 
Q 2600 3084 3056 2656 
Q 3513 2228 3513 1497 
Q 3513 744 3044 326 
Q 2575 -91 1722 -91 
Q 1428 -91 1123 -41 
Q 819 9 494 109 
L 494 744 
Q 775 591 1075 516 
Q 1375 441 1709 441 
Q 2250 441 2565 725 
Q 2881 1009 2881 1497 
Q 2881 1984 2565 2268 
Q 2250 2553 1709 2553 
Q 1456 2553 1204 2497 
Q 953 2441 691 2322 
L 691 4666 
z
" transform="scale(0.015625)"/>
       </defs>
       <use xlink:href="#DejaVuSans-2212"/>
       <use xlink:href="#DejaVuSans-30" x="83.789062"/>
       <use xlink:href="#DejaVuSans-2e" x="147.412109"/>
       <use xlink:href="#DejaVuSans-35" x="179.199219"/>
      </g>
     </g>
    </g>
    <g id="xtick_3">
     <g id="line2d_3">
      <g>
       <use xlink:href="#m6f6a71be6d" x="193.694734" y="47.894728" style="stroke: #000000; stroke-width: 0.8"/>
      </g>
     </g>
    </g>
    <g id="xtick_4">
     <g id="line2d_4">
      <g>
       <use xlink:href="#m6f6a71be6d" x="262.717946" y="47.894728" style="stroke: #000000; stroke-width: 0.8"/>
      </g>
     </g>
     <g id="text_3">
      <!-- 0.5 -->
      <g transform="translate(254.766383 62.493166) scale(0.1 -0.1)">
       <use xlink:href="#DejaVuSans-30"/>
       <use xlink:href="#DejaVuSans-2e" x="63.623047"/>
       <use xlink:href="#DejaVuSans-35" x="95.410156"/>
      </g>
     </g>
    </g>
    <g id="xtick_5">
     <g id="line2d_5">
      <g>
       <use xlink:href="#m6f6a71be6d" x="331.741157" y="47.894728" style="stroke: #000000; stroke-width: 0.8"/>
      </g>
     </g>
     <g id="text_4">
      <!-- 1.0 -->
      <g transform="translate(323.789594 62.493166) scale(0.1 -0.1)">
       <use xlink:href="#DejaVuSans-31"/>
       <use xlink:href="#DejaVuSans-2e" x="63.623047"/>
       <use xlink:href="#DejaVuSans-30" x="95.410156"/>
      </g>
     </g>
    </g>
    <g id="xtick_6">
     <g id="line2d_6">
      <defs>
       <path id="md6dc9e77a7" d="M 0 0 
L 0 2 
" style="stroke: #000000; stroke-width: 0.6"/>
      </defs>
      <g>
       <use xlink:href="#md6dc9e77a7" x="14.234385" y="47.894728" style="stroke: #000000; stroke-width: 0.6"/>
      </g>
     </g>
    </g>
    <g id="xtick_7">
     <g id="line2d_7">
      <g>
       <use xlink:href="#md6dc9e77a7" x="28.039027" y="47.894728" style="stroke: #000000; stroke-width: 0.6"/>
      </g>
     </g>
    </g>
    <g id="xtick_8">
     <g id="line2d_8">
      <g>
       <use xlink:href="#md6dc9e77a7" x="41.843669" y="47.894728" style="stroke: #000000; stroke-width: 0.6"/>
      </g>
     </g>
    </g>
    <g id="xtick_9">
     <g id="line2d_9">
      <g>
       <use xlink:href="#md6dc9e77a7" x="69.452954" y="47.894728" style="stroke: #000000; stroke-width: 0.6"/>
      </g>
     </g>
    </g>
    <g id="xtick_10">
     <g id="line2d_10">
      <g>
       <use xlink:href="#md6dc9e77a7" x="83.257596" y="47.894728" style="stroke: #000000; stroke-width: 0.6"/>
      </g>
     </g>
    </g>
    <g id="xtick_11">
     <g id="line2d_11">
      <g>
       <use xlink:href="#md6dc9e77a7" x="97.062238" y="47.894728" style="stroke: #000000; stroke-width: 0.6"/>
      </g>
     </g>
    </g>
    <g id="xtick_12">
     <g id="line2d_12">
      <g>
       <use xlink:href="#md6dc9e77a7" x="110.866881" y="47.894728" style="stroke: #000000; stroke-width: 0.6"/>
      </g>
     </g>
    </g>
    <g id="xtick_13">
     <g id="line2d_13">
      <g>
       <use xlink:href="#md6dc9e77a7" x="138.476165" y="47.894728" style="stroke: #000000; stroke-width: 0.6"/>
      </g>
     </g>
    </g>
    <g id="xtick_14">
     <g id="line2d_14">
      <g>
       <use xlink:href="#md6dc9e77a7" x="152.280807" y="47.894728" style="stroke: #000000; stroke-width: 0.6"/>
      </g>
     </g>
    </g>
    <g id="xtick_15">
     <g id="line2d_15">
      <g>
       <use xlink:href="#md6dc9e77a7" x="166.08545" y="47.894728" style="stroke: #000000; stroke-width: 0.6"/>
      </g>
     </g>
    </g>
    <g id="xtick_16">
     <g id="line2d_16">
      <g>
       <use xlink:href="#md6dc9e77a7" x="179.890092" y="47.894728" style="stroke: #000000; stroke-width: 0.6"/>
      </g>
     </g>
    </g>
    <g id="xtick_17">
     <g id="line2d_17">
      <g>
       <use xlink:href="#md6dc9e77a7" x="207.499377" y="47.894728" style="stroke: #000000; stroke-width: 0.6"/>
      </g>
     </g>
    </g>
    <g id="xtick_18">
     <g id="line2d_18">
      <g>
       <use xlink:href="#md6dc9e77a7" x="221.304019" y="47.894728" style="stroke: #000000; stroke-width: 0.6"/>
      </g>
     </g>
    </g>
    <g id="xtick_19">
     <g id="line2d_19">
      <g>
       <use xlink:href="#md6dc9e77a7" x="235.108661" y="47.894728" style="stroke: #000000; stroke-width: 0.6"/>
      </g>
     </g>
    </g>
    <g id="xtick_20">
     <g id="line2d_20">
      <g>
       <use xlink:href="#md6dc9e77a7" x="248.913303" y="47.894728" style="stroke: #000000; stroke-width: 0.6"/>
      </g>
     </g>
    </g>
    <g id="xtick_21">
     <g id="line2d_21">
      <g>
       <use xlink:href="#md6dc9e77a7" x="276.522588" y="47.894728" style="stroke: #000000; stroke-width: 0.6"/>
      </g>
     </g>
    </g>
    <g id="xtick_22">
     <g id="line2d_22">
      <g>
       <use xlink:href="#md6dc9e77a7" x="290.32723" y="47.894728" style="stroke: #000000; stroke-width: 0.6"/>
      </g>
     </g>
    </g>
    <g id="xtick_23">
     <g id="line2d_23">
      <g>
       <use xlink:href="#md6dc9e77a7" x="304.131872" y="47.894728" style="stroke: #000000; stroke-width: 0.6"/>
      </g>
     </g>
    </g>
    <g id="xtick_24">
     <g id="line2d_24">
      <g>
       <use xlink:href="#md6dc9e77a7" x="317.936515" y="47.894728" style="stroke: #000000; stroke-width: 0.6"/>
      </g>
     </g>
    </g>
    <g id="xtick_25">
     <g id="line2d_25">
      <g>
       <use xlink:href="#md6dc9e77a7" x="345.545799" y="47.894728" style="stroke: #000000; stroke-width: 0.6"/>
      </g>
     </g>
    </g>
    <g id="xtick_26">
     <g id="line2d_26">
      <g>
       <use xlink:href="#md6dc9e77a7" x="359.350441" y="47.894728" style="stroke: #000000; stroke-width: 0.6"/>
      </g>
     </g>
    </g>
    <g id="xtick_27">
     <g id="line2d_27">
      <g>
       <use xlink:href="#md6dc9e77a7" x="373.155084" y="47.894728" style="stroke: #000000; stroke-width: 0.6"/>
      </g>
     </g>
    </g>
   </g>
   <g id="matplotlib.axis_2">
    <g id="ytick_1">
     <g id="line2d_28">
      <defs>
       <path id="meb70e3fd1a" d="M 0 0 
L -3.5 0 
" style="stroke: #000000; stroke-width: 0.8"/>
      </defs>
      <g>
       <use xlink:href="#meb70e3fd1a" x="193.694734" y="323.987574" style="stroke: #000000; stroke-width: 0.8"/>
      </g>
     </g>
     <g id="text_5">
      <!-- −2.0 -->
      <g transform="translate(162.411922 327.786792) scale(0.1 -0.1)">
       <defs>
        <path id="DejaVuSans-32" d="M 1228 531 
L 3431 531 
L 3431 0 
L 469 0 
L 469 531 
Q 828 903 1448 1529 
Q 2069 2156 2228 2338 
Q 2531 2678 2651 2914 
Q 2772 3150 2772 3378 
Q 2772 3750 2511 3984 
Q 2250 4219 1831 4219 
Q 1534 4219 1204 4116 
Q 875 4013 500 3803 
L 500 4441 
Q 881 4594 1212 4672 
Q 1544 4750 1819 4750 
Q 2544 4750 2975 4387 
Q 3406 4025 3406 3419 
Q 3406 3131 3298 2873 
Q 3191 2616 2906 2266 
Q 2828 2175 2409 1742 
Q 1991 1309 1228 531 
z
" transform="scale(0.015625)"/>
       </defs>
       <use xlink:href="#DejaVuSans-2212"/>
       <use xlink:href="#DejaVuSans-32" x="83.789062"/>
       <use xlink:href="#DejaVuSans-2e" x="147.412109"/>
       <use xlink:href="#DejaVuSans-30" x="179.199219"/>
      </g>
     </g>
    </g>
    <g id="ytick_2">
     <g id="line2d_29">
      <g>
       <use xlink:href="#meb70e3fd1a" x="193.694734" y="254.964362" style="stroke: #000000; stroke-width: 0.8"/>
      </g>
     </g>
     <g id="text_6">
      <!-- −1.5 -->
      <g transform="translate(162.411922 258.763581) scale(0.1 -0.1)">
       <use xlink:href="#DejaVuSans-2212"/>
       <use xlink:href="#DejaVuSans-31" x="83.789062"/>
       <use xlink:href="#DejaVuSans-2e" x="147.412109"/>
       <use xlink:href="#DejaVuSans-35" x="179.199219"/>
      </g>
     </g>
    </g>
    <g id="ytick_3">
     <g id="line2d_30">
      <g>
       <use xlink:href="#meb70e3fd1a" x="193.694734" y="185.941151" style="stroke: #000000; stroke-width: 0.8"/>
      </g>
     </g>
     <g id="text_7">
      <!-- −1.0 -->
      <g transform="translate(162.411922 189.74037) scale(0.1 -0.1)">
       <use xlink:href="#DejaVuSans-2212"/>
       <use xlink:href="#DejaVuSans-31" x="83.789062"/>
       <use xlink:href="#DejaVuSans-2e" x="147.412109"/>
       <use xlink:href="#DejaVuSans-30" x="179.199219"/>
      </g>
     </g>
    </g>
    <g id="ytick_4">
     <g id="line2d_31">
      <g>
       <use xlink:href="#meb70e3fd1a" x="193.694734" y="116.91794" style="stroke: #000000; stroke-width: 0.8"/>
      </g>
     </g>
     <g id="text_8">
      <!-- −0.5 -->
      <g transform="translate(162.411922 120.717159) scale(0.1 -0.1)">
       <use xlink:href="#DejaVuSans-2212"/>
       <use xlink:href="#DejaVuSans-30" x="83.789062"/>
       <use xlink:href="#DejaVuSans-2e" x="147.412109"/>
       <use xlink:href="#DejaVuSans-35" x="179.199219"/>
      </g>
     </g>
    </g>
    <g id="ytick_5">
     <g id="line2d_32">
      <g>
       <use xlink:href="#meb70e3fd1a" x="193.694734" y="47.894728" style="stroke: #000000; stroke-width: 0.8"/>
      </g>
     </g>
    </g>
    <g id="ytick_6">
     <g id="line2d_33">
      <defs>
       <path id="m1af88aa23d" d="M 0 0 
L -2 0 
" style="stroke: #000000; stroke-width: 0.6"/>
      </defs>
      <g>
       <use xlink:href="#m1af88aa23d" x="193.694734" y="310.182931" style="stroke: #000000; stroke-width: 0.6"/>
      </g>
     </g>
    </g>
    <g id="ytick_7">
     <g id="line2d_34">
      <g>
       <use xlink:href="#m1af88aa23d" x="193.694734" y="296.378289" style="stroke: #000000; stroke-width: 0.6"/>
      </g>
     </g>
    </g>
    <g id="ytick_8">
     <g id="line2d_35">
      <g>
       <use xlink:href="#m1af88aa23d" x="193.694734" y="282.573647" style="stroke: #000000; stroke-width: 0.6"/>
      </g>
     </g>
    </g>
    <g id="ytick_9">
     <g id="line2d_36">
      <g>
       <use xlink:href="#m1af88aa23d" x="193.694734" y="268.769005" style="stroke: #000000; stroke-width: 0.6"/>
      </g>
     </g>
    </g>
    <g id="ytick_10">
     <g id="line2d_37">
      <g>
       <use xlink:href="#m1af88aa23d" x="193.694734" y="241.15972" style="stroke: #000000; stroke-width: 0.6"/>
      </g>
     </g>
    </g>
    <g id="ytick_11">
     <g id="line2d_38">
      <g>
       <use xlink:href="#m1af88aa23d" x="193.694734" y="227.355078" style="stroke: #000000; stroke-width: 0.6"/>
      </g>
     </g>
    </g>
    <g id="ytick_12">
     <g id="line2d_39">
      <g>
       <use xlink:href="#m1af88aa23d" x="193.694734" y="213.550436" style="stroke: #000000; stroke-width: 0.6"/>
      </g>
     </g>
    </g>
    <g id="ytick_13">
     <g id="line2d_40">
      <g>
       <use xlink:href="#m1af88aa23d" x="193.694734" y="199.745793" style="stroke: #000000; stroke-width: 0.6"/>
      </g>
     </g>
    </g>
    <g id="ytick_14">
     <g id="line2d_41">
      <g>
       <use xlink:href="#m1af88aa23d" x="193.694734" y="172.136509" style="stroke: #000000; stroke-width: 0.6"/>
      </g>
     </g>
    </g>
    <g id="ytick_15">
     <g id="line2d_42">
      <g>
       <use xlink:href="#m1af88aa23d" x="193.694734" y="158.331867" style="stroke: #000000; stroke-width: 0.6"/>
      </g>
     </g>
    </g>
    <g id="ytick_16">
     <g id="line2d_43">
      <g>
       <use xlink:href="#m1af88aa23d" x="193.694734" y="144.527224" style="stroke: #000000; stroke-width: 0.6"/>
      </g>
     </g>
    </g>
    <g id="ytick_17">
     <g id="line2d_44">
      <g>
       <use xlink:href="#m1af88aa23d" x="193.694734" y="130.722582" style="stroke: #000000; stroke-width: 0.6"/>
      </g>
     </g>
    </g>
    <g id="ytick_18">
     <g id="line2d_45">
      <g>
       <use xlink:href="#m1af88aa23d" x="193.694734" y="103.113297" style="stroke: #000000; stroke-width: 0.6"/>
      </g>
     </g>
    </g>
    <g id="ytick_19">
     <g id="line2d_46">
      <g>
       <use xlink:href="#m1af88aa23d" x="193.694734" y="89.308655" style="stroke: #000000; stroke-width: 0.6"/>
      </g>
     </g>
    </g>
    <g id="ytick_20">
     <g id="line2d_47">
      <g>
       <use xlink:href="#m1af88aa23d" x="193.694734" y="75.504013" style="stroke: #000000; stroke-width: 0.6"/>
      </g>
     </g>
    </g>
    <g id="ytick_21">
     <g id="line2d_48">
      <g>
       <use xlink:href="#m1af88aa23d" x="193.694734" y="61.699371" style="stroke: #000000; stroke-width: 0.6"/>
      </g>
     </g>
    </g>
    <g id="ytick_22">
     <g id="line2d_49">
      <g>
       <use xlink:href="#m1af88aa23d" x="193.694734" y="34.090086" style="stroke: #000000; stroke-width: 0.6"/>
      </g>
     </g>
    </g>
    <g id="ytick_23">
     <g id="line2d_50">
      <g>
       <use xlink:href="#m1af88aa23d" x="193.694734" y="20.285444" style="stroke: #000000; stroke-width: 0.6"/>
      </g>
     </g>
    </g>
   </g>
   <g id="line2d_51">
    <path d="M 331.741157 47.894728 
L 329.064032 45.293546 
L 322.643882 39.627332 
L 317.419455 35.548549 
L 312.981269 32.419408 
L 309.16106 29.954152 
L 304.137553 27.012692 
L 297.902966 23.806442 
L 293.754412 21.930548 
L 290.33933 20.534305 
L 284.159482 18.335994 
L 277.895504 16.526424 
L 271.284588 15.062748 
L 264.752053 14.061568 
L 259.536507 13.580779 
L 255.944595 13.416212 
L 250.751006 13.423546 
L 245.062361 13.775155 
L 240.834582 14.279774 
L 233.044327 15.793269 
L 228.429886 17.07954 
L 223.385288 18.859432 
L 218.471376 21.020677 
L 214.067736 23.379239 
L 210.706424 25.501496 
L 208.361527 27.17999 
L 204.764546 30.147183 
L 202.992725 31.827278 
L 200.190109 34.886127 
L 198.002409 37.764333 
L 196.05616 40.945215 
L 195.228072 42.621982 
L 194.360731 44.825879 
L 193.776337 47.126597 
L 193.694732 47.894108 
L 193.672955 47.575434 
L 193.328342 45.82111 
L 192.587592 43.622169 
L 191.088462 40.496763 
L 189.65713 38.162074 
L 187.878623 35.723147 
L 186.869058 34.494518 
L 185.049902 32.491421 
L 181.649968 29.289374 
L 178.580898 26.845988 
L 174.711774 24.219718 
L 171.890771 22.56434 
L 168.332148 20.738547 
L 163.448521 18.642764 
L 161.041079 17.764075 
L 157.474778 16.631789 
L 151.156322 15.078345 
L 143.631486 13.908172 
L 136.9372 13.432949 
L 129.45164 13.490616 
L 124.896814 13.818377 
L 117.561283 14.801258 
L 109.953815 16.409878 
L 104.428034 17.957683 
L 101.394258 18.945582 
L 97.156349 20.492981 
L 88.253461 24.403009 
L 83.586313 26.828501 
L 73.691245 32.905119 
L 63.766224 40.44293 
L 56.515678 47.035469 
L 54.000567 49.572456 
L 47.817232 56.449568 
L 43.809755 61.469995 
L 39.718658 67.148891 
L 35.197283 74.225555 
L 29.711018 84.319679 
L 27.083095 89.96105 
L 24.618642 95.917208 
L 21.517494 104.721294 
L 19.522819 111.570514 
L 17.271073 121.337222 
L 15.544863 132.166471 
L 14.76104 140.256455 
L 14.372845 152.774881 
L 14.578727 159.652748 
L 15.035274 166.050687 
L 16.630027 178.334075 
L 19.333459 191.215085 
L 21.994083 200.614012 
L 26.244932 212.532883 
L 29.682608 220.538374 
L 31.183275 223.714323 
L 35.200922 231.485724 
L 41.69936 242.34804 
L 46.320724 249.115831 
L 51.729974 256.258748 
L 54.923481 260.144278 
L 60.607306 266.541185 
L 65.040125 271.125545 
L 73.600849 279.122531 
L 80.803017 285.095967 
L 85.514629 288.676606 
L 96.678873 296.248606 
L 99.757316 298.130268 
L 107.404242 302.452394 
L 115.8819 306.696634 
L 120.934921 308.970734 
L 127.838015 311.78623 
L 137.262947 315.114938 
L 149.978518 318.717838 
L 156.594865 320.20837 
L 168.520833 322.257642 
L 174.661233 323.00072 
L 179.211585 323.416843 
L 191.983796 323.979622 
L 197.825161 323.941223 
L 207.576458 323.463328 
L 218.292833 322.336242 
L 226.588911 321.023518 
L 238.782857 318.376416 
L 243.803512 317.030389 
L 251.615053 314.627491 
L 261.766367 310.918578 
L 265.802645 309.250781 
L 276.161785 304.435081 
L 283.023654 300.793388 
L 290.389901 296.44858 
L 300.469401 289.698245 
L 307.731475 284.188103 
L 314.510141 278.48814 
L 321.61431 271.854635 
L 330.5063 262.420866 
L 333.633504 258.749866 
L 337.290294 254.184009 
L 343.320552 245.903325 
L 348.026304 238.64669 
L 351.08968 233.454477 
L 356.888328 222.291555 
L 360.756196 213.496594 
L 363.368665 206.649695 
L 365.258917 201.045405 
L 367.193637 194.499254 
L 370.00435 182.488038 
L 371.615088 172.651639 
L 372.496847 164.394864 
L 372.922824 157.066414 
L 373.015104 149.915609 
L 372.750185 142.137199 
L 371.989859 133.38457 
L 371.167746 127.30838 
L 369.18634 116.930576 
L 368.17047 112.732821 
L 365.768412 104.396156 
L 363.118832 96.822527 
L 360.23846 89.80691 
L 356.616177 82.206423 
L 355.199398 79.516002 
L 352.789947 75.235819 
L 349.313542 69.612521 
L 343.268231 61.061789 
L 341.67936 59.02809 
L 336.507902 52.920641 
L 331.741157 47.894728 
L 331.741157 47.894728 
" clip-path="url(#p20c520cc92)" style="fill: none; stroke: #0000ff; stroke-width: 2; stroke-linecap: square"/>
   </g>
   <g id="patch_3">
    <path d="M 193.694734 330.190987 
L 193.694734 7.2 
" style="fill: none; stroke: #000000; stroke-width: 0.8; stroke-linejoin: miter; stroke-linecap: square"/>
   </g>
   <g id="patch_4">
    <path d="M 7.2 47.894728 
L 380.187949 47.894728 
" style="fill: none; stroke: #000000; stroke-width: 0.8; stroke-linejoin: miter; stroke-linecap: square"/>
   </g>
  </g>
 </g>
 <defs>
  <clipPath id="p20c520cc92">
   <rect x="7.2" y="7.2" width="372.987949" height="322.990987"/>
  </clipPath>
 </defs>
</svg>
