<?xml version="1.0" encoding="utf-8" standalone="no"?>
<!DOCTYPE svg PUBLIC "-//W3C//DTD SVG 1.1//EN"
  "http://www.w3.org/Graphics/SVG/1.1/DTD/svg11.dtd">
<svg xmlns:xlink="http://www.w3.org/1999/xlink" width="354.652067pt" height="337.998125pt" viewBox="0 0 354.652067 337.998125" xmlns="http://www.w3.org/2000/svg" version="1.1">
 <metadata>
  <rdf:RDF xmlns:dc="http://purl.org/dc/elements/1.1/" xmlns:cc="http://creativecommons.org/ns#" xmlns:rdf="http://www.w3.org/1999/02/22-rdf-syntax-ns#">
   <cc:Work>
    <dc:type rdf:resource="http://purl.org/dc/dcmitype/StillImage"/>
    <dc:date>2025-04-10T13:38:48.056848</dc:date>
    <dc:format>image/svg+xml</dc:format>
    <dc:creator>
     <cc:Agent>
      <dc:title>Matplotlib v3.6.3, https://matplotlib.org/</dc:title>
     </cc:Agent>
    </dc:creator>
   </cc:Work>
  </rdf:RDF>
 </metadata>
 <defs>
  <style type="text/css">*{stroke-linejoin: round; stroke-linecap: butt}</style>
 </defs>
 <g id="figure_1">
  <g id="patch_1">
   <path d="M 0 337.998125 
L 354.652067 337.998125 
L 354.652067 0 
L 0 0 
z
" style="fill: #ffffff"/>
  </g>
  <g id="axes_1">
   <g id="patch_2">
    <path d="M 38.482813 314.12 
L 345.402812 314.12 
L 345.402812 7.2 
L 38.482813 7.2 
z
" style="fill: #ffffff"/>
   </g>
   <g id="matplotlib.axis_1">
    <g id="xtick_1">
     <g id="line2d_1">
      <defs>
       <path id="mda74c591b7" d="M 0 0 
L 0 3.5 
" style="stroke: #000000; stroke-width: 0.8"/>
      </defs>
      <g>
       <use xlink:href="#mda74c591b7" x="44.38512" y="314.12" style="stroke: #000000; stroke-width: 0.8"/>
      </g>
     </g>
     <g id="text_1">
      <!-- −1.0 -->
      <g transform="translate(32.243714 328.718437) scale(0.1 -0.1)">
       <defs>
        <path id="DejaVuSans-2212" d="M 678 2272 
L 4684 2272 
L 4684 1741 
L 678 1741 
L 678 2272 
z
" transform="scale(0.015625)"/>
        <path id="DejaVuSans-31" d="M 794 531 
L 1825 531 
L 1825 4091 
L 703 3866 
L 703 4441 
L 1819 4666 
L 2450 4666 
L 2450 531 
L 3481 531 
L 3481 0 
L 794 0 
L 794 531 
z
" transform="scale(0.015625)"/>
        <path id="DejaVuSans-2e" d="M 684 794 
L 1344 794 
L 1344 0 
L 684 0 
L 684 794 
z
" transform="scale(0.015625)"/>
        <path id="DejaVuSans-30" d="M 2034 4250 
Q 1547 4250 1301 3770 
Q 1056 3291 1056 2328 
Q 1056 1369 1301 889 
Q 1547 409 2034 409 
Q 2525 409 2770 889 
Q 3016 1369 3016 2328 
Q 3016 3291 2770 3770 
Q 2525 4250 2034 4250 
z
M 2034 4750 
Q 2819 4750 3233 4129 
Q 3647 3509 3647 2328 
Q 3647 1150 3233 529 
Q 2819 -91 2034 -91 
Q 1250 -91 836 529 
Q 422 1150 422 2328 
Q 422 3509 836 4129 
Q 1250 4750 2034 4750 
z
" transform="scale(0.015625)"/>
       </defs>
       <use xlink:href="#DejaVuSans-2212"/>
       <use xlink:href="#DejaVuSans-31" x="83.789062"/>
       <use xlink:href="#DejaVuSans-2e" x="147.412109"/>
       <use xlink:href="#DejaVuSans-30" x="179.199219"/>
      </g>
     </g>
    </g>
    <g id="xtick_2">
     <g id="line2d_2">
      <g>
       <use xlink:href="#mda74c591b7" x="118.163966" y="314.12" style="stroke: #000000; stroke-width: 0.8"/>
      </g>
     </g>
     <g id="text_2">
      <!-- −0.5 -->
      <g transform="translate(106.02256 328.718437) scale(0.1 -0.1)">
       <defs>
        <path id="DejaVuSans-35" d="M 691 4666 
L 3169 4666 
L 3169 4134 
L 1269 4134 
L 1269 2991 
Q 1406 3038 1543 3061 
Q 1681 3084 1819 3084 
Q 2600 3084 3056 2656 
Q 3513 2228 3513 1497 
Q 3513 744 3044 326 
Q 2575 -91 1722 -91 
Q 1428 -91 1123 -41 
Q 819 9 494 109 
L 494 744 
Q 775 591 1075 516 
Q 1375 441 1709 441 
Q 2250 441 2565 725 
Q 2881 1009 2881 1497 
Q 2881 1984 2565 2268 
Q 2250 2553 1709 2553 
Q 1456 2553 1204 2497 
Q 953 2441 691 2322 
L 691 4666 
z
" transform="scale(0.015625)"/>
       </defs>
       <use xlink:href="#DejaVuSans-2212"/>
       <use xlink:href="#DejaVuSans-30" x="83.789062"/>
       <use xlink:href="#DejaVuSans-2e" x="147.412109"/>
       <use xlink:href="#DejaVuSans-35" x="179.199219"/>
      </g>
     </g>
    </g>
    <g id="xtick_3">
     <g id="line2d_3">
      <g>
       <use xlink:href="#mda74c591b7" x="191.942812" y="314.12" style="stroke: #000000; stroke-width: 0.8"/>
      </g>
     </g>
     <g id="text_3">
      <!-- 0.0 -->
      <g transform="translate(183.99125 328.718437) scale(0.1 -0.1)">
       <use xlink:href="#DejaVuSans-30"/>
       <use xlink:href="#DejaVuSans-2e" x="63.623047"/>
       <use xlink:href="#DejaVuSans-30" x="95.410156"/>
      </g>
     </g>
    </g>
    <g id="xtick_4">
     <g id="line2d_4">
      <g>
       <use xlink:href="#mda74c591b7" x="265.721659" y="314.12" style="stroke: #000000; stroke-width: 0.8"/>
      </g>
     </g>
     <g id="text_4">
      <!-- 0.5 -->
      <g transform="translate(257.770096 328.718437) scale(0.1 -0.1)">
       <use xlink:href="#DejaVuSans-30"/>
       <use xlink:href="#DejaVuSans-2e" x="63.623047"/>
       <use xlink:href="#DejaVuSans-35" x="95.410156"/>
      </g>
     </g>
    </g>
    <g id="xtick_5">
     <g id="line2d_5">
      <g>
       <use xlink:href="#mda74c591b7" x="339.500505" y="314.12" style="stroke: #000000; stroke-width: 0.8"/>
      </g>
     </g>
     <g id="text_5">
      <!-- 1.0 -->
      <g transform="translate(331.548942 328.718437) scale(0.1 -0.1)">
       <use xlink:href="#DejaVuSans-31"/>
       <use xlink:href="#DejaVuSans-2e" x="63.623047"/>
       <use xlink:href="#DejaVuSans-30" x="95.410156"/>
      </g>
     </g>
    </g>
    <g id="xtick_6">
     <g id="line2d_6">
      <defs>
       <path id="me98bfd1222" d="M 0 0 
L 0 2 
" style="stroke: #000000; stroke-width: 0.6"/>
      </defs>
      <g>
       <use xlink:href="#me98bfd1222" x="59.140889" y="314.12" style="stroke: #000000; stroke-width: 0.6"/>
      </g>
     </g>
    </g>
    <g id="xtick_7">
     <g id="line2d_7">
      <g>
       <use xlink:href="#me98bfd1222" x="73.896659" y="314.12" style="stroke: #000000; stroke-width: 0.6"/>
      </g>
     </g>
    </g>
    <g id="xtick_8">
     <g id="line2d_8">
      <g>
       <use xlink:href="#me98bfd1222" x="88.652428" y="314.12" style="stroke: #000000; stroke-width: 0.6"/>
      </g>
     </g>
    </g>
    <g id="xtick_9">
     <g id="line2d_9">
      <g>
       <use xlink:href="#me98bfd1222" x="103.408197" y="314.12" style="stroke: #000000; stroke-width: 0.6"/>
      </g>
     </g>
    </g>
    <g id="xtick_10">
     <g id="line2d_10">
      <g>
       <use xlink:href="#me98bfd1222" x="132.919736" y="314.12" style="stroke: #000000; stroke-width: 0.6"/>
      </g>
     </g>
    </g>
    <g id="xtick_11">
     <g id="line2d_11">
      <g>
       <use xlink:href="#me98bfd1222" x="147.675505" y="314.12" style="stroke: #000000; stroke-width: 0.6"/>
      </g>
     </g>
    </g>
    <g id="xtick_12">
     <g id="line2d_12">
      <g>
       <use xlink:href="#me98bfd1222" x="162.431274" y="314.12" style="stroke: #000000; stroke-width: 0.6"/>
      </g>
     </g>
    </g>
    <g id="xtick_13">
     <g id="line2d_13">
      <g>
       <use xlink:href="#me98bfd1222" x="177.187043" y="314.12" style="stroke: #000000; stroke-width: 0.6"/>
      </g>
     </g>
    </g>
    <g id="xtick_14">
     <g id="line2d_14">
      <g>
       <use xlink:href="#me98bfd1222" x="206.698582" y="314.12" style="stroke: #000000; stroke-width: 0.6"/>
      </g>
     </g>
    </g>
    <g id="xtick_15">
     <g id="line2d_15">
      <g>
       <use xlink:href="#me98bfd1222" x="221.454351" y="314.12" style="stroke: #000000; stroke-width: 0.6"/>
      </g>
     </g>
    </g>
    <g id="xtick_16">
     <g id="line2d_16">
      <g>
       <use xlink:href="#me98bfd1222" x="236.21012" y="314.12" style="stroke: #000000; stroke-width: 0.6"/>
      </g>
     </g>
    </g>
    <g id="xtick_17">
     <g id="line2d_17">
      <g>
       <use xlink:href="#me98bfd1222" x="250.965889" y="314.12" style="stroke: #000000; stroke-width: 0.6"/>
      </g>
     </g>
    </g>
    <g id="xtick_18">
     <g id="line2d_18">
      <g>
       <use xlink:href="#me98bfd1222" x="280.477428" y="314.12" style="stroke: #000000; stroke-width: 0.6"/>
      </g>
     </g>
    </g>
    <g id="xtick_19">
     <g id="line2d_19">
      <g>
       <use xlink:href="#me98bfd1222" x="295.233197" y="314.12" style="stroke: #000000; stroke-width: 0.6"/>
      </g>
     </g>
    </g>
    <g id="xtick_20">
     <g id="line2d_20">
      <g>
       <use xlink:href="#me98bfd1222" x="309.988966" y="314.12" style="stroke: #000000; stroke-width: 0.6"/>
      </g>
     </g>
    </g>
    <g id="xtick_21">
     <g id="line2d_21">
      <g>
       <use xlink:href="#me98bfd1222" x="324.744736" y="314.12" style="stroke: #000000; stroke-width: 0.6"/>
      </g>
     </g>
    </g>
   </g>
   <g id="matplotlib.axis_2">
    <g id="ytick_1">
     <g id="line2d_22">
      <defs>
       <path id="m094ae34e0d" d="M 0 0 
L -3.5 0 
" style="stroke: #000000; stroke-width: 0.8"/>
      </defs>
      <g>
       <use xlink:href="#m094ae34e0d" x="38.482813" y="308.217692" style="stroke: #000000; stroke-width: 0.8"/>
      </g>
     </g>
     <g id="text_6">
      <!-- −1.0 -->
      <g transform="translate(7.2 312.016911) scale(0.1 -0.1)">
       <use xlink:href="#DejaVuSans-2212"/>
       <use xlink:href="#DejaVuSans-31" x="83.789062"/>
       <use xlink:href="#DejaVuSans-2e" x="147.412109"/>
       <use xlink:href="#DejaVuSans-30" x="179.199219"/>
      </g>
     </g>
    </g>
    <g id="ytick_2">
     <g id="line2d_23">
      <g>
       <use xlink:href="#m094ae34e0d" x="38.482813" y="234.438846" style="stroke: #000000; stroke-width: 0.8"/>
      </g>
     </g>
     <g id="text_7">
      <!-- −0.5 -->
      <g transform="translate(7.2 238.238065) scale(0.1 -0.1)">
       <use xlink:href="#DejaVuSans-2212"/>
       <use xlink:href="#DejaVuSans-30" x="83.789062"/>
       <use xlink:href="#DejaVuSans-2e" x="147.412109"/>
       <use xlink:href="#DejaVuSans-35" x="179.199219"/>
      </g>
     </g>
    </g>
    <g id="ytick_3">
     <g id="line2d_24">
      <g>
       <use xlink:href="#m094ae34e0d" x="38.482813" y="160.66" style="stroke: #000000; stroke-width: 0.8"/>
      </g>
     </g>
     <g id="text_8">
      <!-- 0.0 -->
      <g transform="translate(15.579688 164.459219) scale(0.1 -0.1)">
       <use xlink:href="#DejaVuSans-30"/>
       <use xlink:href="#DejaVuSans-2e" x="63.623047"/>
       <use xlink:href="#DejaVuSans-30" x="95.410156"/>
      </g>
     </g>
    </g>
    <g id="ytick_4">
     <g id="line2d_25">
      <g>
       <use xlink:href="#m094ae34e0d" x="38.482813" y="86.881154" style="stroke: #000000; stroke-width: 0.8"/>
      </g>
     </g>
     <g id="text_9">
      <!-- 0.5 -->
      <g transform="translate(15.579688 90.680373) scale(0.1 -0.1)">
       <use xlink:href="#DejaVuSans-30"/>
       <use xlink:href="#DejaVuSans-2e" x="63.623047"/>
       <use xlink:href="#DejaVuSans-35" x="95.410156"/>
      </g>
     </g>
    </g>
    <g id="ytick_5">
     <g id="line2d_26">
      <g>
       <use xlink:href="#m094ae34e0d" x="38.482813" y="13.102308" style="stroke: #000000; stroke-width: 0.8"/>
      </g>
     </g>
     <g id="text_10">
      <!-- 1.0 -->
      <g transform="translate(15.579688 16.901526) scale(0.1 -0.1)">
       <use xlink:href="#DejaVuSans-31"/>
       <use xlink:href="#DejaVuSans-2e" x="63.623047"/>
       <use xlink:href="#DejaVuSans-30" x="95.410156"/>
      </g>
     </g>
    </g>
    <g id="ytick_6">
     <g id="line2d_27">
      <defs>
       <path id="m97444d3a38" d="M 0 0 
L -2 0 
" style="stroke: #000000; stroke-width: 0.6"/>
      </defs>
      <g>
       <use xlink:href="#m97444d3a38" x="38.482813" y="293.461923" style="stroke: #000000; stroke-width: 0.6"/>
      </g>
     </g>
    </g>
    <g id="ytick_7">
     <g id="line2d_28">
      <g>
       <use xlink:href="#m97444d3a38" x="38.482813" y="278.706154" style="stroke: #000000; stroke-width: 0.6"/>
      </g>
     </g>
    </g>
    <g id="ytick_8">
     <g id="line2d_29">
      <g>
       <use xlink:href="#m97444d3a38" x="38.482813" y="263.950385" style="stroke: #000000; stroke-width: 0.6"/>
      </g>
     </g>
    </g>
    <g id="ytick_9">
     <g id="line2d_30">
      <g>
       <use xlink:href="#m97444d3a38" x="38.482813" y="249.194615" style="stroke: #000000; stroke-width: 0.6"/>
      </g>
     </g>
    </g>
    <g id="ytick_10">
     <g id="line2d_31">
      <g>
       <use xlink:href="#m97444d3a38" x="38.482813" y="219.683077" style="stroke: #000000; stroke-width: 0.6"/>
      </g>
     </g>
    </g>
    <g id="ytick_11">
     <g id="line2d_32">
      <g>
       <use xlink:href="#m97444d3a38" x="38.482813" y="204.927308" style="stroke: #000000; stroke-width: 0.6"/>
      </g>
     </g>
    </g>
    <g id="ytick_12">
     <g id="line2d_33">
      <g>
       <use xlink:href="#m97444d3a38" x="38.482813" y="190.171538" style="stroke: #000000; stroke-width: 0.6"/>
      </g>
     </g>
    </g>
    <g id="ytick_13">
     <g id="line2d_34">
      <g>
       <use xlink:href="#m97444d3a38" x="38.482813" y="175.415769" style="stroke: #000000; stroke-width: 0.6"/>
      </g>
     </g>
    </g>
    <g id="ytick_14">
     <g id="line2d_35">
      <g>
       <use xlink:href="#m97444d3a38" x="38.482813" y="145.904231" style="stroke: #000000; stroke-width: 0.6"/>
      </g>
     </g>
    </g>
    <g id="ytick_15">
     <g id="line2d_36">
      <g>
       <use xlink:href="#m97444d3a38" x="38.482813" y="131.148462" style="stroke: #000000; stroke-width: 0.6"/>
      </g>
     </g>
    </g>
    <g id="ytick_16">
     <g id="line2d_37">
      <g>
       <use xlink:href="#m97444d3a38" x="38.482813" y="116.392692" style="stroke: #000000; stroke-width: 0.6"/>
      </g>
     </g>
    </g>
    <g id="ytick_17">
     <g id="line2d_38">
      <g>
       <use xlink:href="#m97444d3a38" x="38.482813" y="101.636923" style="stroke: #000000; stroke-width: 0.6"/>
      </g>
     </g>
    </g>
    <g id="ytick_18">
     <g id="line2d_39">
      <g>
       <use xlink:href="#m97444d3a38" x="38.482813" y="72.125385" style="stroke: #000000; stroke-width: 0.6"/>
      </g>
     </g>
    </g>
    <g id="ytick_19">
     <g id="line2d_40">
      <g>
       <use xlink:href="#m97444d3a38" x="38.482813" y="57.369615" style="stroke: #000000; stroke-width: 0.6"/>
      </g>
     </g>
    </g>
    <g id="ytick_20">
     <g id="line2d_41">
      <g>
       <use xlink:href="#m97444d3a38" x="38.482813" y="42.613846" style="stroke: #000000; stroke-width: 0.6"/>
      </g>
     </g>
    </g>
    <g id="ytick_21">
     <g id="line2d_42">
      <g>
       <use xlink:href="#m97444d3a38" x="38.482813" y="27.858077" style="stroke: #000000; stroke-width: 0.6"/>
      </g>
     </g>
    </g>
   </g>
   <g id="PathCollection_1"/>
   <g id="PathCollection_2">
    <path d="M 118.175145 308.217692 
L 118.909207 307.843171 
L 121.890171 306.383107 
L 124.332455 305.236729 
L 124.871134 304.978612 
L 127.852098 303.612337 
L 130.833061 302.308165 
L 130.958821 302.255765 
L 133.814025 301.040785 
L 136.794988 299.835715 
L 138.259593 299.274802 
L 139.775952 298.681444 
L 142.756915 297.579784 
L 145.737879 296.542927 
L 146.50175 296.293838 
L 148.718842 295.554808 
L 151.699806 294.627397 
L 154.680769 293.76623 
L 156.38085 293.312875 
L 157.661732 292.963543 
L 160.642696 292.218302 
L 163.623659 291.540811 
L 166.604623 290.931068 
L 169.585586 290.389075 
L 169.944899 290.331911 
L 172.56655 289.905131 
L 175.547513 289.489183 
L 178.528477 289.142559 
L 181.50944 288.86526 
L 184.490404 288.657286 
L 187.471367 288.518636 
L 190.452331 288.449312 
L 193.433294 288.449312 
L 196.414258 288.518636 
L 199.395221 288.657286 
L 202.376185 288.86526 
L 205.357148 289.142559 
L 208.338112 289.489183 
L 211.319075 289.905131 
L 213.940726 290.331911 
L 214.300039 290.389075 
L 217.281002 290.931068 
L 220.261966 291.540811 
L 223.242929 292.218302 
L 226.223893 292.963543 
L 227.504775 293.312875 
L 229.204856 293.76623 
L 232.185819 294.627397 
L 235.166783 295.554808 
L 237.383875 296.293838 
L 238.147746 296.542927 
L 241.12871 297.579784 
L 244.109673 298.681444 
L 245.626032 299.274802 
L 247.090637 299.835715 
L 250.0716 301.040785 
L 252.926804 302.255765 
L 253.052564 302.308165 
L 256.033527 303.612337 
L 259.014491 304.978612 
L 259.55317 305.236729 
L 261.995454 306.383107 
L 264.976418 307.843171 
L 265.71048 308.217692 
" clip-path="url(#p719add10f6)" style="fill: none; stroke: #ffbd00; stroke-width: 1.5"/>
    <path d="M 265.71048 13.102308 
L 264.976418 13.476829 
L 261.995454 14.936893 
L 259.55317 16.083271 
L 259.014491 16.341388 
L 256.033527 17.707663 
L 253.052564 19.011835 
L 252.926804 19.064235 
L 250.0716 20.279215 
L 247.090637 21.484285 
L 245.626032 22.045198 
L 244.109673 22.638556 
L 241.12871 23.740216 
L 238.147746 24.777073 
L 237.383875 25.026162 
L 235.166783 25.765192 
L 232.185819 26.692603 
L 229.204856 27.55377 
L 227.504775 28.007125 
L 226.223893 28.356457 
L 223.242929 29.101698 
L 220.261966 29.779189 
L 217.281002 30.388932 
L 214.300039 30.930925 
L 213.940726 30.988089 
L 211.319075 31.414869 
L 208.338112 31.830817 
L 205.357148 32.177441 
L 202.376185 32.45474 
L 199.395221 32.662714 
L 196.414258 32.801364 
L 193.433294 32.870688 
L 190.452331 32.870688 
L 187.471367 32.801364 
L 184.490404 32.662714 
L 181.50944 32.45474 
L 178.528477 32.177441 
L 175.547513 31.830817 
L 172.56655 31.414869 
L 169.944899 30.988089 
L 169.585586 30.930925 
L 166.604623 30.388932 
L 163.623659 29.779189 
L 160.642696 29.101698 
L 157.661732 28.356457 
L 156.38085 28.007125 
L 154.680769 27.55377 
L 151.699806 26.692603 
L 148.718842 25.765192 
L 146.50175 25.026162 
L 145.737879 24.777073 
L 142.756915 23.740216 
L 139.775952 22.638556 
L 138.259593 22.045198 
L 136.794988 21.484285 
L 133.814025 20.279215 
L 130.958821 19.064235 
L 130.833061 19.011835 
L 127.852098 17.707663 
L 124.871134 16.341388 
L 124.332455 16.083271 
L 121.890171 14.936893 
L 118.909207 13.476829 
L 118.175145 13.102308 
" clip-path="url(#p719add10f6)" style="fill: none; stroke: #ffbd00; stroke-width: 1.5"/>
   </g>
   <g id="PathCollection_3">
    <path d="M 87.614414 308.217692 
L 89.099572 307.156865 
L 91.866827 305.236729 
L 92.080536 305.085352 
L 95.061499 303.035939 
L 96.23176 302.255765 
L 98.042463 301.022947 
L 100.692876 299.274802 
L 101.023426 299.05204 
L 104.00439 297.107933 
L 105.295712 296.293838 
L 106.985353 295.204959 
L 109.966317 293.350137 
L 110.02842 293.312875 
L 112.94728 291.521756 
L 114.960864 290.331911 
L 115.928244 289.746984 
L 118.909207 288.013866 
L 120.096935 287.350948 
L 121.890171 286.326242 
L 124.871134 284.693809 
L 125.489345 284.369984 
L 127.852098 283.102166 
L 130.833061 281.575331 
L 131.214997 281.389021 
L 133.814025 280.089507 
L 136.794988 278.67355 
L 137.38497 278.408057 
L 139.775952 277.304528 
L 142.756915 276.005133 
L 144.165886 275.427094 
L 145.737879 274.765202 
L 148.718842 273.588506 
L 151.699806 272.490257 
L 151.82879 272.446131 
L 154.680769 271.444084 
L 157.661732 270.477285 
L 160.642696 269.591052 
L 161.108471 269.465167 
L 163.623659 268.766504 
L 166.604623 268.021263 
L 169.585586 267.358827 
L 172.56655 266.779195 
L 174.336497 266.484204 
L 175.547513 266.276601 
L 178.528477 265.850749 
L 181.50944 265.510067 
L 184.490404 265.254556 
L 187.471367 265.084215 
L 190.452331 264.999045 
L 193.433294 264.999045 
L 196.414258 265.084215 
L 199.395221 265.254556 
L 202.376185 265.510067 
L 205.357148 265.850749 
L 208.338112 266.276601 
L 209.549128 266.484204 
L 211.319075 266.779195 
L 214.300039 267.358827 
L 217.281002 268.021263 
L 220.261966 268.766504 
L 222.777154 269.465167 
L 223.242929 269.591052 
L 226.223893 270.477285 
L 229.204856 271.444084 
L 232.056835 272.446131 
L 232.185819 272.490257 
L 235.166783 273.588506 
L 238.147746 274.765202 
L 239.719739 275.427094 
L 241.12871 276.005133 
L 244.109673 277.304528 
L 246.500655 278.408057 
L 247.090637 278.67355 
L 250.0716 280.089507 
L 252.670628 281.389021 
L 253.052564 281.575331 
L 256.033527 283.102166 
L 258.39628 284.369984 
L 259.014491 284.693809 
L 261.995454 286.326242 
L 263.78869 287.350948 
L 264.976418 288.013866 
L 267.957381 289.746984 
L 268.924761 290.331911 
L 270.938345 291.521756 
L 273.857205 293.312875 
L 273.919308 293.350137 
L 276.900272 295.204959 
L 278.589913 296.293838 
L 279.881235 297.107933 
L 282.862199 299.05204 
L 283.192749 299.274802 
L 285.843162 301.022947 
L 287.653865 302.255765 
L 288.824126 303.035939 
L 291.805089 305.085352 
L 292.018798 305.236729 
L 294.786053 307.156865 
L 296.271211 308.217692 
" clip-path="url(#p719add10f6)" style="fill: none; stroke: #84ff00; stroke-width: 1.5"/>
    <path d="M 296.271211 13.102308 
L 294.786053 14.163135 
L 292.018798 16.083271 
L 291.805089 16.234648 
L 288.824126 18.284061 
L 287.653865 19.064235 
L 285.843162 20.297053 
L 283.192749 22.045198 
L 282.862199 22.26796 
L 279.881235 24.212067 
L 278.589913 25.026162 
L 276.900272 26.115041 
L 273.919308 27.969863 
L 273.857205 28.007125 
L 270.938345 29.798244 
L 268.924761 30.988089 
L 267.957381 31.573016 
L 264.976418 33.306134 
L 263.78869 33.969052 
L 261.995454 34.993758 
L 259.014491 36.626191 
L 258.39628 36.950016 
L 256.033527 38.217834 
L 253.052564 39.744669 
L 252.670628 39.930979 
L 250.0716 41.230493 
L 247.090637 42.64645 
L 246.500655 42.911943 
L 244.109673 44.015472 
L 241.12871 45.314867 
L 239.719739 45.892906 
L 238.147746 46.554798 
L 235.166783 47.731494 
L 232.185819 48.829743 
L 232.056835 48.873869 
L 229.204856 49.875916 
L 226.223893 50.842715 
L 223.242929 51.728948 
L 222.777154 51.854833 
L 220.261966 52.553496 
L 217.281002 53.298737 
L 214.300039 53.961173 
L 211.319075 54.540805 
L 209.549128 54.835796 
L 208.338112 55.043399 
L 205.357148 55.469251 
L 202.376185 55.809933 
L 199.395221 56.065444 
L 196.414258 56.235785 
L 193.433294 56.320955 
L 190.452331 56.320955 
L 187.471367 56.235785 
L 184.490404 56.065444 
L 181.50944 55.809933 
L 178.528477 55.469251 
L 175.547513 55.043399 
L 174.336497 54.835796 
L 172.56655 54.540805 
L 169.585586 53.961173 
L 166.604623 53.298737 
L 163.623659 52.553496 
L 161.108471 51.854833 
L 160.642696 51.728948 
L 157.661732 50.842715 
L 154.680769 49.875916 
L 151.82879 48.873869 
L 151.699806 48.829743 
L 148.718842 47.731494 
L 145.737879 46.554798 
L 144.165886 45.892906 
L 142.756915 45.314867 
L 139.775952 44.015472 
L 137.38497 42.911943 
L 136.794988 42.64645 
L 133.814025 41.230493 
L 131.214997 39.930979 
L 130.833061 39.744669 
L 127.852098 38.217834 
L 125.489345 36.950016 
L 124.871134 36.626191 
L 121.890171 34.993758 
L 120.096935 33.969052 
L 118.909207 33.306134 
L 115.928244 31.573016 
L 114.960864 30.988089 
L 112.94728 29.798244 
L 110.02842 28.007125 
L 109.966317 27.969863 
L 106.985353 26.115041 
L 105.295712 25.026162 
L 104.00439 24.212067 
L 101.023426 22.26796 
L 100.692876 22.045198 
L 98.042463 20.297053 
L 96.23176 19.064235 
L 95.061499 18.284061 
L 92.080536 16.234648 
L 91.866827 16.083271 
L 89.099572 14.163135 
L 87.614414 13.102308 
" clip-path="url(#p719add10f6)" style="fill: none; stroke: #84ff00; stroke-width: 1.5"/>
   </g>
   <g id="PathCollection_4">
    <path d="M 64.162166 308.217692 
L 71.213792 302.146754 
L 83.137645 292.112444 
L 96.391871 281.389021 
L 101.023426 277.74164 
L 109.966317 270.938025 
L 120.310415 263.50324 
L 124.871134 260.367018 
L 130.833061 256.449652 
L 138.828875 251.579386 
L 142.756915 249.321927 
L 149.843357 245.617459 
L 154.680769 243.305216 
L 160.642696 240.790644 
L 166.604623 238.655906 
L 172.56655 236.93612 
L 178.528477 235.634958 
L 181.50944 235.158004 
L 184.490404 234.800288 
L 187.471367 234.561811 
L 190.452331 234.442572 
L 193.433294 234.442572 
L 196.414258 234.561811 
L 199.395221 234.800288 
L 202.376185 235.158004 
L 205.357148 235.634958 
L 211.319075 236.93612 
L 217.281002 238.655906 
L 223.242929 240.790644 
L 229.204856 243.305216 
L 235.166783 246.160329 
L 241.12871 249.321927 
L 247.090637 252.760353 
L 254.716048 257.541313 
L 259.237253 260.522277 
L 264.976418 264.464069 
L 273.919308 270.938025 
L 285.843162 280.068547 
L 300.74798 292.112444 
L 318.63376 307.261427 
L 319.723459 308.217692 
L 319.723459 308.217692 
" clip-path="url(#p719add10f6)" style="fill: none; stroke: #00ff39; stroke-width: 1.5"/>
    <path d="M 319.723459 13.102308 
L 312.671833 19.173246 
L 300.74798 29.207556 
L 287.493754 39.930979 
L 282.862199 43.57836 
L 273.919308 50.381975 
L 263.57521 57.81676 
L 259.014491 60.952982 
L 253.052564 64.870348 
L 245.05675 69.740614 
L 241.12871 71.998073 
L 234.042268 75.702541 
L 229.204856 78.014784 
L 223.242929 80.529356 
L 217.281002 82.664094 
L 211.319075 84.38388 
L 205.357148 85.685042 
L 202.376185 86.161996 
L 199.395221 86.519712 
L 196.414258 86.758189 
L 193.433294 86.877428 
L 190.452331 86.877428 
L 187.471367 86.758189 
L 184.490404 86.519712 
L 181.50944 86.161996 
L 178.528477 85.685042 
L 172.56655 84.38388 
L 166.604623 82.664094 
L 160.642696 80.529356 
L 154.680769 78.014784 
L 148.718842 75.159671 
L 142.756915 71.998073 
L 136.794988 68.559647 
L 129.169577 63.778687 
L 124.648372 60.797723 
L 118.909207 56.855931 
L 109.966317 50.381975 
L 98.042463 41.251453 
L 83.137645 29.207556 
L 65.251865 14.058573 
L 64.162166 13.102308 
L 64.162166 13.102308 
" clip-path="url(#p719add10f6)" style="fill: none; stroke: #00ff39; stroke-width: 1.5"/>
   </g>
   <g id="PathCollection_5">
    <path d="M 44.38512 308.217692 
L 190.452331 162.150482 
L 190.452331 159.169518 
L 44.38512 13.102308 
L 44.38512 13.102308 
" clip-path="url(#p719add10f6)" style="fill: none; stroke: #00fff6; stroke-width: 1.5"/>
    <path d="M 339.500505 13.102308 
L 190.452331 162.150482 
L 193.433294 162.150482 
L 339.500505 308.217692 
L 339.500505 308.217692 
" clip-path="url(#p719add10f6)" style="fill: none; stroke: #00fff6; stroke-width: 1.5"/>
   </g>
   <g id="PathCollection_6">
    <path d="M 44.38512 288.440646 
L 50.456058 281.389021 
L 60.490368 269.465167 
L 71.213792 256.210942 
L 74.861172 251.579386 
L 81.664788 242.636496 
L 89.099572 232.292397 
L 92.235794 227.731678 
L 96.153161 221.769751 
L 101.023426 213.773938 
L 103.280885 209.845897 
L 106.985353 202.759455 
L 109.297596 197.922044 
L 111.812168 191.960117 
L 113.946906 185.99819 
L 115.666693 180.036263 
L 116.967855 174.074336 
L 117.444809 171.093372 
L 117.802525 168.112409 
L 118.041002 165.131445 
L 118.16024 162.150482 
L 118.16024 159.169518 
L 118.041002 156.188555 
L 117.802525 153.207591 
L 117.444809 150.226628 
L 116.967855 147.245664 
L 115.666693 141.283737 
L 113.946906 135.32181 
L 111.812168 129.359883 
L 109.297596 123.397956 
L 106.442484 117.43603 
L 103.280885 111.474103 
L 99.84246 105.512176 
L 95.061499 97.886765 
L 92.080536 93.365559 
L 88.138744 87.626395 
L 81.664788 78.683504 
L 72.534265 66.75965 
L 60.490368 51.854833 
L 45.341386 33.969052 
L 44.38512 32.879354 
L 44.38512 32.879354 
" clip-path="url(#p719add10f6)" style="fill: none; stroke: #004bff; stroke-width: 1.5"/>
    <path d="M 339.500505 32.879354 
L 333.429567 39.930979 
L 323.395257 51.854833 
L 312.671833 65.109058 
L 309.024453 69.740614 
L 302.220837 78.683504 
L 294.786053 89.027603 
L 291.649831 93.588322 
L 287.732464 99.550249 
L 282.862199 107.546062 
L 280.60474 111.474103 
L 276.900272 118.560545 
L 274.588029 123.397956 
L 272.073457 129.359883 
L 269.938719 135.32181 
L 268.218932 141.283737 
L 266.91777 147.245664 
L 266.440816 150.226628 
L 266.0831 153.207591 
L 265.844623 156.188555 
L 265.725385 159.169518 
L 265.725385 162.150482 
L 265.844623 165.131445 
L 266.0831 168.112409 
L 266.440816 171.093372 
L 266.91777 174.074336 
L 268.218932 180.036263 
L 269.938719 185.99819 
L 272.073457 191.960117 
L 274.588029 197.922044 
L 277.443141 203.88397 
L 280.60474 209.845897 
L 284.043165 215.807824 
L 288.824126 223.433235 
L 291.805089 227.954441 
L 295.746881 233.693605 
L 302.220837 242.636496 
L 311.35136 254.56035 
L 323.395257 269.465167 
L 338.544239 287.350948 
L 339.500505 288.440646 
L 339.500505 288.440646 
" clip-path="url(#p719add10f6)" style="fill: none; stroke: #004bff; stroke-width: 1.5"/>
   </g>
   <g id="PathCollection_7">
    <path d="M 44.38512 264.988399 
L 45.445948 263.50324 
L 47.366084 260.735985 
L 47.517461 260.522277 
L 49.566873 257.541313 
L 50.347047 256.371052 
L 51.579866 254.56035 
L 53.328011 251.909937 
L 53.550773 251.579386 
L 55.494879 248.598423 
L 56.308974 247.3071 
L 57.397854 245.617459 
L 59.252676 242.636496 
L 59.289938 242.574392 
L 61.081056 239.655532 
L 62.270901 237.641949 
L 62.855829 236.674569 
L 64.588947 233.693605 
L 65.251865 232.505878 
L 66.276571 230.712642 
L 67.909003 227.731678 
L 68.232828 227.113467 
L 69.500646 224.750715 
L 71.027481 221.769751 
L 71.213792 221.387815 
L 72.513305 218.788788 
L 73.929263 215.807824 
L 74.194755 215.217842 
L 75.298285 212.826861 
L 76.597679 209.845897 
L 77.175718 208.436926 
L 77.83761 206.864934 
L 79.014306 203.88397 
L 80.112556 200.903007 
L 80.156682 200.774023 
L 81.158729 197.922044 
L 82.125528 194.94108 
L 83.01176 191.960117 
L 83.137645 191.494341 
L 83.836309 188.979153 
L 84.58155 185.99819 
L 85.243986 183.017226 
L 85.823618 180.036263 
L 86.118609 178.266316 
L 86.326212 177.055299 
L 86.752064 174.074336 
L 87.092745 171.093372 
L 87.348256 168.112409 
L 87.518597 165.131445 
L 87.603768 162.150482 
L 87.603768 159.169518 
L 87.518597 156.188555 
L 87.348256 153.207591 
L 87.092745 150.226628 
L 86.752064 147.245664 
L 86.326212 144.264701 
L 86.118609 143.053684 
L 85.823618 141.283737 
L 85.243986 138.302774 
L 84.58155 135.32181 
L 83.836309 132.340847 
L 83.137645 129.825659 
L 83.01176 129.359883 
L 82.125528 126.37892 
L 81.158729 123.397956 
L 80.156682 120.545977 
L 80.112556 120.416993 
L 79.014306 117.43603 
L 77.83761 114.455066 
L 77.175718 112.883074 
L 76.597679 111.474103 
L 75.298285 108.493139 
L 74.194755 106.102158 
L 73.929263 105.512176 
L 72.513305 102.531212 
L 71.213792 99.932185 
L 71.027481 99.550249 
L 69.500646 96.569285 
L 68.232828 94.206533 
L 67.909003 93.588322 
L 66.276571 90.607358 
L 65.251865 88.814122 
L 64.588947 87.626395 
L 62.855829 84.645431 
L 62.270901 83.678051 
L 61.081056 81.664468 
L 59.289938 78.745608 
L 59.252676 78.683504 
L 57.397854 75.702541 
L 56.308974 74.0129 
L 55.494879 72.721577 
L 53.550773 69.740614 
L 53.328011 69.410063 
L 51.579866 66.75965 
L 50.347047 64.948948 
L 49.566873 63.778687 
L 47.517461 60.797723 
L 47.366084 60.584015 
L 45.445948 57.81676 
L 44.38512 56.331601 
" clip-path="url(#p719add10f6)" style="fill: none; stroke: #7200ff; stroke-width: 1.5"/>
    <path d="M 339.500505 56.331601 
L 338.439677 57.81676 
L 336.519541 60.584015 
L 336.368164 60.797723 
L 334.318752 63.778687 
L 333.538578 64.948948 
L 332.305759 66.75965 
L 330.557614 69.410063 
L 330.334852 69.740614 
L 328.390746 72.721577 
L 327.576651 74.0129 
L 326.487771 75.702541 
L 324.632949 78.683504 
L 324.595687 78.745608 
L 322.804569 81.664468 
L 321.614724 83.678051 
L 321.029796 84.645431 
L 319.296678 87.626395 
L 318.63376 88.814122 
L 317.609054 90.607358 
L 315.976622 93.588322 
L 315.652797 94.206533 
L 314.384979 96.569285 
L 312.858144 99.550249 
L 312.671833 99.932185 
L 311.37232 102.531212 
L 309.956362 105.512176 
L 309.69087 106.102158 
L 308.58734 108.493139 
L 307.287946 111.474103 
L 306.709907 112.883074 
L 306.048015 114.455066 
L 304.871319 117.43603 
L 303.773069 120.416993 
L 303.728943 120.545977 
L 302.726896 123.397956 
L 301.760097 126.37892 
L 300.873865 129.359883 
L 300.74798 129.825659 
L 300.049316 132.340847 
L 299.304075 135.32181 
L 298.641639 138.302774 
L 298.062007 141.283737 
L 297.767016 143.053684 
L 297.559413 144.264701 
L 297.133561 147.245664 
L 296.79288 150.226628 
L 296.537369 153.207591 
L 296.367028 156.188555 
L 296.281857 159.169518 
L 296.281857 162.150482 
L 296.367028 165.131445 
L 296.537369 168.112409 
L 296.79288 171.093372 
L 297.133561 174.074336 
L 297.559413 177.055299 
L 297.767016 178.266316 
L 298.062007 180.036263 
L 298.641639 183.017226 
L 299.304075 185.99819 
L 300.049316 188.979153 
L 300.74798 191.494341 
L 300.873865 191.960117 
L 301.760097 194.94108 
L 302.726896 197.922044 
L 303.728943 200.774023 
L 303.773069 200.903007 
L 304.871319 203.88397 
L 306.048015 206.864934 
L 306.709907 208.436926 
L 307.287946 209.845897 
L 308.58734 212.826861 
L 309.69087 215.217842 
L 309.956362 215.807824 
L 311.37232 218.788788 
L 312.671833 221.387815 
L 312.858144 221.769751 
L 314.384979 224.750715 
L 315.652797 227.113467 
L 315.976622 227.731678 
L 317.609054 230.712642 
L 318.63376 232.505878 
L 319.296678 233.693605 
L 321.029796 236.674569 
L 321.614724 237.641949 
L 322.804569 239.655532 
L 324.595687 242.574392 
L 324.632949 242.636496 
L 326.487771 245.617459 
L 327.576651 247.3071 
L 328.390746 248.598423 
L 330.334852 251.579386 
L 330.557614 251.909937 
L 332.305759 254.56035 
L 333.538578 256.371052 
L 334.318752 257.541313 
L 336.368164 260.522277 
L 336.519541 260.735985 
L 338.439677 263.50324 
L 339.500505 264.988399 
" clip-path="url(#p719add10f6)" style="fill: none; stroke: #7200ff; stroke-width: 1.5"/>
   </g>
   <g id="PathCollection_8">
    <path d="M 44.38512 234.427668 
L 44.759642 233.693605 
L 46.219705 230.712642 
L 47.366084 228.270358 
L 47.624201 227.731678 
L 48.990476 224.750715 
L 50.294647 221.769751 
L 50.347047 221.643992 
L 51.562028 218.788788 
L 52.767098 215.807824 
L 53.328011 214.343219 
L 53.921368 212.826861 
L 55.023029 209.845897 
L 56.059885 206.864934 
L 56.308974 206.101062 
L 57.048005 203.88397 
L 57.975416 200.903007 
L 58.836583 197.922044 
L 59.289938 196.221963 
L 59.639269 194.94108 
L 60.38451 191.960117 
L 61.062002 188.979153 
L 61.671744 185.99819 
L 62.213738 183.017226 
L 62.270901 182.657914 
L 62.697681 180.036263 
L 63.11363 177.055299 
L 63.460254 174.074336 
L 63.737552 171.093372 
L 63.945527 168.112409 
L 64.084176 165.131445 
L 64.153501 162.150482 
L 64.153501 159.169518 
L 64.084176 156.188555 
L 63.945527 153.207591 
L 63.737552 150.226628 
L 63.460254 147.245664 
L 63.11363 144.264701 
L 62.697681 141.283737 
L 62.270901 138.662086 
L 62.213738 138.302774 
L 61.671744 135.32181 
L 61.062002 132.340847 
L 60.38451 129.359883 
L 59.639269 126.37892 
L 59.289938 125.098037 
L 58.836583 123.397956 
L 57.975416 120.416993 
L 57.048005 117.43603 
L 56.308974 115.218938 
L 56.059885 114.455066 
L 55.023029 111.474103 
L 53.921368 108.493139 
L 53.328011 106.976781 
L 52.767098 105.512176 
L 51.562028 102.531212 
L 50.347047 99.676008 
L 50.294647 99.550249 
L 48.990476 96.569285 
L 47.624201 93.588322 
L 47.366084 93.049642 
L 46.219705 90.607358 
L 44.759642 87.626395 
L 44.38512 86.892332 
" clip-path="url(#p719add10f6)" style="fill: none; stroke: #ff00cf; stroke-width: 1.5"/>
    <path d="M 339.500505 86.892332 
L 339.125983 87.626395 
L 337.66592 90.607358 
L 336.519541 93.049642 
L 336.261424 93.588322 
L 334.895149 96.569285 
L 333.590978 99.550249 
L 333.538578 99.676008 
L 332.323597 102.531212 
L 331.118527 105.512176 
L 330.557614 106.976781 
L 329.964257 108.493139 
L 328.862596 111.474103 
L 327.82574 114.455066 
L 327.576651 115.218938 
L 326.83762 117.43603 
L 325.910209 120.416993 
L 325.049042 123.397956 
L 324.595687 125.098037 
L 324.246356 126.37892 
L 323.501115 129.359883 
L 322.823623 132.340847 
L 322.213881 135.32181 
L 321.671887 138.302774 
L 321.614724 138.662086 
L 321.187944 141.283737 
L 320.771995 144.264701 
L 320.425371 147.245664 
L 320.148073 150.226628 
L 319.940098 153.207591 
L 319.801449 156.188555 
L 319.732124 159.169518 
L 319.732124 162.150482 
L 319.801449 165.131445 
L 319.940098 168.112409 
L 320.148073 171.093372 
L 320.425371 174.074336 
L 320.771995 177.055299 
L 321.187944 180.036263 
L 321.614724 182.657914 
L 321.671887 183.017226 
L 322.213881 185.99819 
L 322.823623 188.979153 
L 323.501115 191.960117 
L 324.246356 194.94108 
L 324.595687 196.221963 
L 325.049042 197.922044 
L 325.910209 200.903007 
L 326.83762 203.88397 
L 327.576651 206.101062 
L 327.82574 206.864934 
L 328.862596 209.845897 
L 329.964257 212.826861 
L 330.557614 214.343219 
L 331.118527 215.807824 
L 332.323597 218.788788 
L 333.538578 221.643992 
L 333.590978 221.769751 
L 334.895149 224.750715 
L 336.261424 227.731678 
L 336.519541 228.270358 
L 337.66592 230.712642 
L 339.125983 233.693605 
L 339.500505 234.427668 
" clip-path="url(#p719add10f6)" style="fill: none; stroke: #ff00cf; stroke-width: 1.5"/>
   </g>
   <g id="PathCollection_9"/>
   <g id="patch_3">
    <path d="M 38.482813 314.12 
L 38.482813 7.2 
" style="fill: none; stroke: #000000; stroke-width: 0.8; stroke-linejoin: miter; stroke-linecap: square"/>
   </g>
   <g id="patch_4">
    <path d="M 345.402812 314.12 
L 345.402812 7.2 
" style="fill: none; stroke: #000000; stroke-width: 0.8; stroke-linejoin: miter; stroke-linecap: square"/>
   </g>
   <g id="patch_5">
    <path d="M 38.482813 314.12 
L 345.402812 314.12 
" style="fill: none; stroke: #000000; stroke-width: 0.8; stroke-linejoin: miter; stroke-linecap: square"/>
   </g>
   <g id="patch_6">
    <path d="M 38.482813 7.2 
L 345.402812 7.2 
" style="fill: none; stroke: #000000; stroke-width: 0.8; stroke-linejoin: miter; stroke-linecap: square"/>
   </g>
   <g id="text_11">
    <g clip-path="url(#p719add10f6)">
     <!-- -0.75 -->
     <g style="fill: #0000ff" transform="translate(223.265107 295.275309) rotate(-346.61408) scale(0.09 -0.09)">
      <defs>
       <path id="DejaVuSans-2d" d="M 313 2009 
L 1997 2009 
L 1997 1497 
L 313 1497 
L 313 2009 
z
" transform="scale(0.015625)"/>
       <path id="DejaVuSans-37" d="M 525 4666 
L 3525 4666 
L 3525 4397 
L 1831 0 
L 1172 0 
L 2766 4134 
L 525 4134 
L 525 4666 
z
" transform="scale(0.015625)"/>
      </defs>
      <use xlink:href="#DejaVuSans-2d"/>
      <use xlink:href="#DejaVuSans-30" x="36.083984"/>
      <use xlink:href="#DejaVuSans-2e" x="99.707031"/>
      <use xlink:href="#DejaVuSans-37" x="131.494141"/>
      <use xlink:href="#DejaVuSans-35" x="195.117188"/>
     </g>
    </g>
   </g>
   <g id="text_12">
    <g clip-path="url(#p719add10f6)">
     <!-- -0.75 -->
     <g style="fill: #0000ff" transform="translate(221.362653 31.651138) rotate(-12.573819) scale(0.09 -0.09)">
      <use xlink:href="#DejaVuSans-2d"/>
      <use xlink:href="#DejaVuSans-30" x="36.083984"/>
      <use xlink:href="#DejaVuSans-2e" x="99.707031"/>
      <use xlink:href="#DejaVuSans-37" x="131.494141"/>
      <use xlink:href="#DejaVuSans-35" x="195.117188"/>
     </g>
    </g>
   </g>
   <g id="text_13">
    <g clip-path="url(#p719add10f6)">
     <!-- -0.50 -->
     <g style="fill: #0000ff" transform="translate(106.258345 296.691123) rotate(-23.642215) scale(0.09 -0.09)">
      <use xlink:href="#DejaVuSans-2d"/>
      <use xlink:href="#DejaVuSans-30" x="36.083984"/>
      <use xlink:href="#DejaVuSans-2e" x="99.707031"/>
      <use xlink:href="#DejaVuSans-35" x="131.494141"/>
      <use xlink:href="#DejaVuSans-30" x="195.117188"/>
     </g>
    </g>
   </g>
   <g id="text_14">
    <g clip-path="url(#p719add10f6)">
     <!-- -0.50 -->
     <g style="fill: #0000ff" transform="translate(258.287483 38.517155) rotate(-23.642215) scale(0.09 -0.09)">
      <use xlink:href="#DejaVuSans-2d"/>
      <use xlink:href="#DejaVuSans-30" x="36.083984"/>
      <use xlink:href="#DejaVuSans-2e" x="99.707031"/>
      <use xlink:href="#DejaVuSans-35" x="131.494141"/>
      <use xlink:href="#DejaVuSans-30" x="195.117188"/>
     </g>
    </g>
   </g>
   <g id="text_15">
    <g clip-path="url(#p719add10f6)">
     <!-- -0.25 -->
     <g style="fill: #0000ff" transform="translate(80.423418 295.38079) rotate(-31.174732) scale(0.09 -0.09)">
      <defs>
       <path id="DejaVuSans-32" d="M 1228 531 
L 3431 531 
L 3431 0 
L 469 0 
L 469 531 
Q 828 903 1448 1529 
Q 2069 2156 2228 2338 
Q 2531 2678 2651 2914 
Q 2772 3150 2772 3378 
Q 2772 3750 2511 3984 
Q 2250 4219 1831 4219 
Q 1534 4219 1204 4116 
Q 875 4013 500 3803 
L 500 4441 
Q 881 4594 1212 4672 
Q 1544 4750 1819 4750 
Q 2544 4750 2975 4387 
Q 3406 4025 3406 3419 
Q 3406 3131 3298 2873 
Q 3191 2616 2906 2266 
Q 2828 2175 2409 1742 
Q 1991 1309 1228 531 
z
" transform="scale(0.015625)"/>
      </defs>
      <use xlink:href="#DejaVuSans-2d"/>
      <use xlink:href="#DejaVuSans-30" x="36.083984"/>
      <use xlink:href="#DejaVuSans-2e" x="99.707031"/>
      <use xlink:href="#DejaVuSans-32" x="131.494141"/>
      <use xlink:href="#DejaVuSans-35" x="195.117188"/>
     </g>
    </g>
   </g>
   <g id="text_16">
    <g clip-path="url(#p719add10f6)">
     <!-- -0.25 -->
     <g style="fill: #0000ff" transform="translate(286.109898 42.242872) rotate(-31.174732) scale(0.09 -0.09)">
      <use xlink:href="#DejaVuSans-2d"/>
      <use xlink:href="#DejaVuSans-30" x="36.083984"/>
      <use xlink:href="#DejaVuSans-2e" x="99.707031"/>
      <use xlink:href="#DejaVuSans-32" x="131.494141"/>
      <use xlink:href="#DejaVuSans-35" x="195.117188"/>
     </g>
    </g>
   </g>
   <g id="text_17">
    <g clip-path="url(#p719add10f6)">
     <!-- 0.00 -->
     <g style="fill: #0000ff" transform="translate(58.701506 295.329123) rotate(-36.692053) scale(0.09 -0.09)">
      <use xlink:href="#DejaVuSans-30"/>
      <use xlink:href="#DejaVuSans-2e" x="63.623047"/>
      <use xlink:href="#DejaVuSans-30" x="95.410156"/>
      <use xlink:href="#DejaVuSans-30" x="159.033203"/>
     </g>
    </g>
   </g>
   <g id="text_18">
    <g clip-path="url(#p719add10f6)">
     <!-- 0.00 -->
     <g style="fill: #0000ff" transform="translate(270.349914 83.680716) rotate(-36.692053) scale(0.09 -0.09)">
      <use xlink:href="#DejaVuSans-30"/>
      <use xlink:href="#DejaVuSans-2e" x="63.623047"/>
      <use xlink:href="#DejaVuSans-30" x="95.410156"/>
      <use xlink:href="#DejaVuSans-30" x="159.033203"/>
     </g>
    </g>
   </g>
   <g id="text_19">
    <g clip-path="url(#p719add10f6)">
     <!-- 0.25 -->
     <g style="fill: #0000ff" transform="translate(83.686781 87.802749) rotate(-311.99093) scale(0.09 -0.09)">
      <use xlink:href="#DejaVuSans-30"/>
      <use xlink:href="#DejaVuSans-2e" x="63.623047"/>
      <use xlink:href="#DejaVuSans-32" x="95.410156"/>
      <use xlink:href="#DejaVuSans-35" x="159.033203"/>
     </g>
    </g>
   </g>
   <g id="text_20">
    <g clip-path="url(#p719add10f6)">
     <!-- 0.25 -->
     <g style="fill: #0000ff" transform="translate(315.19658 63.412532) rotate(-42.266457) scale(0.09 -0.09)">
      <use xlink:href="#DejaVuSans-30"/>
      <use xlink:href="#DejaVuSans-2e" x="63.623047"/>
      <use xlink:href="#DejaVuSans-32" x="95.410156"/>
      <use xlink:href="#DejaVuSans-35" x="159.033203"/>
     </g>
    </g>
   </g>
   <g id="text_21">
    <g clip-path="url(#p719add10f6)">
     <!-- 0.50 -->
     <g style="fill: #0000ff" transform="translate(56.712957 249.008509) rotate(-51.045355) scale(0.09 -0.09)">
      <use xlink:href="#DejaVuSans-30"/>
      <use xlink:href="#DejaVuSans-2e" x="63.623047"/>
      <use xlink:href="#DejaVuSans-35" x="95.410156"/>
      <use xlink:href="#DejaVuSans-30" x="159.033203"/>
     </g>
    </g>
   </g>
   <g id="text_22">
    <g clip-path="url(#p719add10f6)">
     <!-- 0.50 -->
     <g style="fill: #0000ff" transform="translate(318.436469 91.017445) rotate(-51.045355) scale(0.09 -0.09)">
      <use xlink:href="#DejaVuSans-30"/>
      <use xlink:href="#DejaVuSans-2e" x="63.623047"/>
      <use xlink:href="#DejaVuSans-35" x="95.410156"/>
      <use xlink:href="#DejaVuSans-30" x="159.033203"/>
     </g>
    </g>
   </g>
   <g id="text_23">
    <g clip-path="url(#p719add10f6)">
     <!-- 0.75 -->
     <g style="fill: #0000ff" transform="translate(54.491403 216.262504) rotate(-65.938018) scale(0.09 -0.09)">
      <use xlink:href="#DejaVuSans-30"/>
      <use xlink:href="#DejaVuSans-2e" x="63.623047"/>
      <use xlink:href="#DejaVuSans-37" x="95.410156"/>
      <use xlink:href="#DejaVuSans-35" x="159.033203"/>
     </g>
    </g>
   </g>
   <g id="text_24">
    <g clip-path="url(#p719add10f6)">
     <!-- 0.75 -->
     <g style="fill: #0000ff" transform="translate(325.75908 125.38038) rotate(-65.938018) scale(0.09 -0.09)">
      <use xlink:href="#DejaVuSans-30"/>
      <use xlink:href="#DejaVuSans-2e" x="63.623047"/>
      <use xlink:href="#DejaVuSans-37" x="95.410156"/>
      <use xlink:href="#DejaVuSans-35" x="159.033203"/>
     </g>
    </g>
   </g>
  </g>
 </g>
 <defs>
  <clipPath id="p719add10f6">
   <rect x="38.482813" y="7.2" width="306.92" height="306.92"/>
  </clipPath>
 </defs>
</svg>
