<?xml version="1.0" encoding="utf-8" standalone="no"?>
<!DOCTYPE svg PUBLIC "-//W3C//DTD SVG 1.1//EN"
  "http://www.w3.org/Graphics/SVG/1.1/DTD/svg11.dtd">
<svg xmlns:xlink="http://www.w3.org/1999/xlink" width="341.987187pt" height="336.923125pt" viewBox="0 0 341.987187 336.923125" xmlns="http://www.w3.org/2000/svg" version="1.1">
 <metadata>
  <rdf:RDF xmlns:dc="http://purl.org/dc/elements/1.1/" xmlns:cc="http://creativecommons.org/ns#" xmlns:rdf="http://www.w3.org/1999/02/22-rdf-syntax-ns#">
   <cc:Work>
    <dc:type rdf:resource="http://purl.org/dc/dcmitype/StillImage"/>
    <dc:date>2025-04-08T16:54:36.113795</dc:date>
    <dc:format>image/svg+xml</dc:format>
    <dc:creator>
     <cc:Agent>
      <dc:title>Matplotlib v3.6.3, https://matplotlib.org/</dc:title>
     </cc:Agent>
    </dc:creator>
   </cc:Work>
  </rdf:RDF>
 </metadata>
 <defs>
  <style type="text/css">*{stroke-linejoin: round; stroke-linecap: butt}</style>
 </defs>
 <g id="figure_1">
  <g id="patch_1">
   <path d="M 0 336.923125 
L 341.987187 336.923125 
L 341.987187 0 
L 0 0 
z
" style="fill: #ffffff"/>
  </g>
  <g id="axes_1">
   <g id="patch_2">
    <path d="M 48.427188 293.56 
L 334.787187 293.56 
L 334.787187 7.2 
L 48.427188 7.2 
z
" style="fill: #ffffff"/>
   </g>
   <g id="matplotlib.axis_1">
    <g id="xtick_1">
     <g id="line2d_1">
      <defs>
       <path id="mf8ca3ef76d" d="M 0 0 
L 0 3.5 
" style="stroke: #000000; stroke-width: 0.8"/>
      </defs>
      <g>
       <use xlink:href="#mf8ca3ef76d" x="53.934111" y="293.56" style="stroke: #000000; stroke-width: 0.8"/>
      </g>
     </g>
     <g id="text_1">
      <!-- −4 -->
      <g transform="translate(46.563017 308.158437) scale(0.1 -0.1)">
       <defs>
        <path id="DejaVuSans-2212" d="M 678 2272 
L 4684 2272 
L 4684 1741 
L 678 1741 
L 678 2272 
z
" transform="scale(0.015625)"/>
        <path id="DejaVuSans-34" d="M 2419 4116 
L 825 1625 
L 2419 1625 
L 2419 4116 
z
M 2253 4666 
L 3047 4666 
L 3047 1625 
L 3713 1625 
L 3713 1100 
L 3047 1100 
L 3047 0 
L 2419 0 
L 2419 1100 
L 313 1100 
L 313 1709 
L 2253 4666 
z
" transform="scale(0.015625)"/>
       </defs>
       <use xlink:href="#DejaVuSans-2212"/>
       <use xlink:href="#DejaVuSans-34" x="83.789062"/>
      </g>
     </g>
    </g>
    <g id="xtick_2">
     <g id="line2d_2">
      <g>
       <use xlink:href="#mf8ca3ef76d" x="88.35238" y="293.56" style="stroke: #000000; stroke-width: 0.8"/>
      </g>
     </g>
     <g id="text_2">
      <!-- −3 -->
      <g transform="translate(80.981286 308.158437) scale(0.1 -0.1)">
       <defs>
        <path id="DejaVuSans-33" d="M 2597 2516 
Q 3050 2419 3304 2112 
Q 3559 1806 3559 1356 
Q 3559 666 3084 287 
Q 2609 -91 1734 -91 
Q 1441 -91 1130 -33 
Q 819 25 488 141 
L 488 750 
Q 750 597 1062 519 
Q 1375 441 1716 441 
Q 2309 441 2620 675 
Q 2931 909 2931 1356 
Q 2931 1769 2642 2001 
Q 2353 2234 1838 2234 
L 1294 2234 
L 1294 2753 
L 1863 2753 
Q 2328 2753 2575 2939 
Q 2822 3125 2822 3475 
Q 2822 3834 2567 4026 
Q 2313 4219 1838 4219 
Q 1578 4219 1281 4162 
Q 984 4106 628 3988 
L 628 4550 
Q 988 4650 1302 4700 
Q 1616 4750 1894 4750 
Q 2613 4750 3031 4423 
Q 3450 4097 3450 3541 
Q 3450 3153 3228 2886 
Q 3006 2619 2597 2516 
z
" transform="scale(0.015625)"/>
       </defs>
       <use xlink:href="#DejaVuSans-2212"/>
       <use xlink:href="#DejaVuSans-33" x="83.789062"/>
      </g>
     </g>
    </g>
    <g id="xtick_3">
     <g id="line2d_3">
      <g>
       <use xlink:href="#mf8ca3ef76d" x="122.770649" y="293.56" style="stroke: #000000; stroke-width: 0.8"/>
      </g>
     </g>
     <g id="text_3">
      <!-- −2 -->
      <g transform="translate(115.399555 308.158437) scale(0.1 -0.1)">
       <defs>
        <path id="DejaVuSans-32" d="M 1228 531 
L 3431 531 
L 3431 0 
L 469 0 
L 469 531 
Q 828 903 1448 1529 
Q 2069 2156 2228 2338 
Q 2531 2678 2651 2914 
Q 2772 3150 2772 3378 
Q 2772 3750 2511 3984 
Q 2250 4219 1831 4219 
Q 1534 4219 1204 4116 
Q 875 4013 500 3803 
L 500 4441 
Q 881 4594 1212 4672 
Q 1544 4750 1819 4750 
Q 2544 4750 2975 4387 
Q 3406 4025 3406 3419 
Q 3406 3131 3298 2873 
Q 3191 2616 2906 2266 
Q 2828 2175 2409 1742 
Q 1991 1309 1228 531 
z
" transform="scale(0.015625)"/>
       </defs>
       <use xlink:href="#DejaVuSans-2212"/>
       <use xlink:href="#DejaVuSans-32" x="83.789062"/>
      </g>
     </g>
    </g>
    <g id="xtick_4">
     <g id="line2d_4">
      <g>
       <use xlink:href="#mf8ca3ef76d" x="157.188918" y="293.56" style="stroke: #000000; stroke-width: 0.8"/>
      </g>
     </g>
     <g id="text_4">
      <!-- −1 -->
      <g transform="translate(149.817825 308.158437) scale(0.1 -0.1)">
       <defs>
        <path id="DejaVuSans-31" d="M 794 531 
L 1825 531 
L 1825 4091 
L 703 3866 
L 703 4441 
L 1819 4666 
L 2450 4666 
L 2450 531 
L 3481 531 
L 3481 0 
L 794 0 
L 794 531 
z
" transform="scale(0.015625)"/>
       </defs>
       <use xlink:href="#DejaVuSans-2212"/>
       <use xlink:href="#DejaVuSans-31" x="83.789062"/>
      </g>
     </g>
    </g>
    <g id="xtick_5">
     <g id="line2d_5">
      <g>
       <use xlink:href="#mf8ca3ef76d" x="191.607187" y="293.56" style="stroke: #000000; stroke-width: 0.8"/>
      </g>
     </g>
     <g id="text_5">
      <!-- 0 -->
      <g transform="translate(188.425937 308.158437) scale(0.1 -0.1)">
       <defs>
        <path id="DejaVuSans-30" d="M 2034 4250 
Q 1547 4250 1301 3770 
Q 1056 3291 1056 2328 
Q 1056 1369 1301 889 
Q 1547 409 2034 409 
Q 2525 409 2770 889 
Q 3016 1369 3016 2328 
Q 3016 3291 2770 3770 
Q 2525 4250 2034 4250 
z
M 2034 4750 
Q 2819 4750 3233 4129 
Q 3647 3509 3647 2328 
Q 3647 1150 3233 529 
Q 2819 -91 2034 -91 
Q 1250 -91 836 529 
Q 422 1150 422 2328 
Q 422 3509 836 4129 
Q 1250 4750 2034 4750 
z
" transform="scale(0.015625)"/>
       </defs>
       <use xlink:href="#DejaVuSans-30"/>
      </g>
     </g>
    </g>
    <g id="xtick_6">
     <g id="line2d_6">
      <g>
       <use xlink:href="#mf8ca3ef76d" x="226.025457" y="293.56" style="stroke: #000000; stroke-width: 0.8"/>
      </g>
     </g>
     <g id="text_6">
      <!-- 1 -->
      <g transform="translate(222.844207 308.158437) scale(0.1 -0.1)">
       <use xlink:href="#DejaVuSans-31"/>
      </g>
     </g>
    </g>
    <g id="xtick_7">
     <g id="line2d_7">
      <g>
       <use xlink:href="#mf8ca3ef76d" x="260.443726" y="293.56" style="stroke: #000000; stroke-width: 0.8"/>
      </g>
     </g>
     <g id="text_7">
      <!-- 2 -->
      <g transform="translate(257.262476 308.158437) scale(0.1 -0.1)">
       <use xlink:href="#DejaVuSans-32"/>
      </g>
     </g>
    </g>
    <g id="xtick_8">
     <g id="line2d_8">
      <g>
       <use xlink:href="#mf8ca3ef76d" x="294.861995" y="293.56" style="stroke: #000000; stroke-width: 0.8"/>
      </g>
     </g>
     <g id="text_8">
      <!-- 3 -->
      <g transform="translate(291.680745 308.158437) scale(0.1 -0.1)">
       <use xlink:href="#DejaVuSans-33"/>
      </g>
     </g>
    </g>
    <g id="xtick_9">
     <g id="line2d_9">
      <g>
       <use xlink:href="#mf8ca3ef76d" x="329.280264" y="293.56" style="stroke: #000000; stroke-width: 0.8"/>
      </g>
     </g>
     <g id="text_9">
      <!-- 4 -->
      <g transform="translate(326.099014 308.158437) scale(0.1 -0.1)">
       <use xlink:href="#DejaVuSans-34"/>
      </g>
     </g>
    </g>
    <g id="xtick_10">
     <g id="line2d_10">
      <defs>
       <path id="m44a3ad7002" d="M 0 0 
L 0 2 
" style="stroke: #000000; stroke-width: 0.6"/>
      </defs>
      <g>
       <use xlink:href="#m44a3ad7002" x="60.817764" y="293.56" style="stroke: #000000; stroke-width: 0.6"/>
      </g>
     </g>
    </g>
    <g id="xtick_11">
     <g id="line2d_11">
      <g>
       <use xlink:href="#m44a3ad7002" x="67.701418" y="293.56" style="stroke: #000000; stroke-width: 0.6"/>
      </g>
     </g>
    </g>
    <g id="xtick_12">
     <g id="line2d_12">
      <g>
       <use xlink:href="#m44a3ad7002" x="74.585072" y="293.56" style="stroke: #000000; stroke-width: 0.6"/>
      </g>
     </g>
    </g>
    <g id="xtick_13">
     <g id="line2d_13">
      <g>
       <use xlink:href="#m44a3ad7002" x="81.468726" y="293.56" style="stroke: #000000; stroke-width: 0.6"/>
      </g>
     </g>
    </g>
    <g id="xtick_14">
     <g id="line2d_14">
      <g>
       <use xlink:href="#m44a3ad7002" x="95.236034" y="293.56" style="stroke: #000000; stroke-width: 0.6"/>
      </g>
     </g>
    </g>
    <g id="xtick_15">
     <g id="line2d_15">
      <g>
       <use xlink:href="#m44a3ad7002" x="102.119687" y="293.56" style="stroke: #000000; stroke-width: 0.6"/>
      </g>
     </g>
    </g>
    <g id="xtick_16">
     <g id="line2d_16">
      <g>
       <use xlink:href="#m44a3ad7002" x="109.003341" y="293.56" style="stroke: #000000; stroke-width: 0.6"/>
      </g>
     </g>
    </g>
    <g id="xtick_17">
     <g id="line2d_17">
      <g>
       <use xlink:href="#m44a3ad7002" x="115.886995" y="293.56" style="stroke: #000000; stroke-width: 0.6"/>
      </g>
     </g>
    </g>
    <g id="xtick_18">
     <g id="line2d_18">
      <g>
       <use xlink:href="#m44a3ad7002" x="129.654303" y="293.56" style="stroke: #000000; stroke-width: 0.6"/>
      </g>
     </g>
    </g>
    <g id="xtick_19">
     <g id="line2d_19">
      <g>
       <use xlink:href="#m44a3ad7002" x="136.537957" y="293.56" style="stroke: #000000; stroke-width: 0.6"/>
      </g>
     </g>
    </g>
    <g id="xtick_20">
     <g id="line2d_20">
      <g>
       <use xlink:href="#m44a3ad7002" x="143.421611" y="293.56" style="stroke: #000000; stroke-width: 0.6"/>
      </g>
     </g>
    </g>
    <g id="xtick_21">
     <g id="line2d_21">
      <g>
       <use xlink:href="#m44a3ad7002" x="150.305264" y="293.56" style="stroke: #000000; stroke-width: 0.6"/>
      </g>
     </g>
    </g>
    <g id="xtick_22">
     <g id="line2d_22">
      <g>
       <use xlink:href="#m44a3ad7002" x="164.072572" y="293.56" style="stroke: #000000; stroke-width: 0.6"/>
      </g>
     </g>
    </g>
    <g id="xtick_23">
     <g id="line2d_23">
      <g>
       <use xlink:href="#m44a3ad7002" x="170.956226" y="293.56" style="stroke: #000000; stroke-width: 0.6"/>
      </g>
     </g>
    </g>
    <g id="xtick_24">
     <g id="line2d_24">
      <g>
       <use xlink:href="#m44a3ad7002" x="177.83988" y="293.56" style="stroke: #000000; stroke-width: 0.6"/>
      </g>
     </g>
    </g>
    <g id="xtick_25">
     <g id="line2d_25">
      <g>
       <use xlink:href="#m44a3ad7002" x="184.723534" y="293.56" style="stroke: #000000; stroke-width: 0.6"/>
      </g>
     </g>
    </g>
    <g id="xtick_26">
     <g id="line2d_26">
      <g>
       <use xlink:href="#m44a3ad7002" x="198.490841" y="293.56" style="stroke: #000000; stroke-width: 0.6"/>
      </g>
     </g>
    </g>
    <g id="xtick_27">
     <g id="line2d_27">
      <g>
       <use xlink:href="#m44a3ad7002" x="205.374495" y="293.56" style="stroke: #000000; stroke-width: 0.6"/>
      </g>
     </g>
    </g>
    <g id="xtick_28">
     <g id="line2d_28">
      <g>
       <use xlink:href="#m44a3ad7002" x="212.258149" y="293.56" style="stroke: #000000; stroke-width: 0.6"/>
      </g>
     </g>
    </g>
    <g id="xtick_29">
     <g id="line2d_29">
      <g>
       <use xlink:href="#m44a3ad7002" x="219.141803" y="293.56" style="stroke: #000000; stroke-width: 0.6"/>
      </g>
     </g>
    </g>
    <g id="xtick_30">
     <g id="line2d_30">
      <g>
       <use xlink:href="#m44a3ad7002" x="232.909111" y="293.56" style="stroke: #000000; stroke-width: 0.6"/>
      </g>
     </g>
    </g>
    <g id="xtick_31">
     <g id="line2d_31">
      <g>
       <use xlink:href="#m44a3ad7002" x="239.792764" y="293.56" style="stroke: #000000; stroke-width: 0.6"/>
      </g>
     </g>
    </g>
    <g id="xtick_32">
     <g id="line2d_32">
      <g>
       <use xlink:href="#m44a3ad7002" x="246.676418" y="293.56" style="stroke: #000000; stroke-width: 0.6"/>
      </g>
     </g>
    </g>
    <g id="xtick_33">
     <g id="line2d_33">
      <g>
       <use xlink:href="#m44a3ad7002" x="253.560072" y="293.56" style="stroke: #000000; stroke-width: 0.6"/>
      </g>
     </g>
    </g>
    <g id="xtick_34">
     <g id="line2d_34">
      <g>
       <use xlink:href="#m44a3ad7002" x="267.32738" y="293.56" style="stroke: #000000; stroke-width: 0.6"/>
      </g>
     </g>
    </g>
    <g id="xtick_35">
     <g id="line2d_35">
      <g>
       <use xlink:href="#m44a3ad7002" x="274.211034" y="293.56" style="stroke: #000000; stroke-width: 0.6"/>
      </g>
     </g>
    </g>
    <g id="xtick_36">
     <g id="line2d_36">
      <g>
       <use xlink:href="#m44a3ad7002" x="281.094687" y="293.56" style="stroke: #000000; stroke-width: 0.6"/>
      </g>
     </g>
    </g>
    <g id="xtick_37">
     <g id="line2d_37">
      <g>
       <use xlink:href="#m44a3ad7002" x="287.978341" y="293.56" style="stroke: #000000; stroke-width: 0.6"/>
      </g>
     </g>
    </g>
    <g id="xtick_38">
     <g id="line2d_38">
      <g>
       <use xlink:href="#m44a3ad7002" x="301.745649" y="293.56" style="stroke: #000000; stroke-width: 0.6"/>
      </g>
     </g>
    </g>
    <g id="xtick_39">
     <g id="line2d_39">
      <g>
       <use xlink:href="#m44a3ad7002" x="308.629303" y="293.56" style="stroke: #000000; stroke-width: 0.6"/>
      </g>
     </g>
    </g>
    <g id="xtick_40">
     <g id="line2d_40">
      <g>
       <use xlink:href="#m44a3ad7002" x="315.512957" y="293.56" style="stroke: #000000; stroke-width: 0.6"/>
      </g>
     </g>
    </g>
    <g id="xtick_41">
     <g id="line2d_41">
      <g>
       <use xlink:href="#m44a3ad7002" x="322.396611" y="293.56" style="stroke: #000000; stroke-width: 0.6"/>
      </g>
     </g>
    </g>
    <g id="text_10">
     <!-- $x$ -->
     <g transform="translate(186.967187 326.395625) scale(0.16 -0.16)">
      <defs>
       <path id="Cmmi10-78" d="M 500 184 
Q 613 97 819 97 
Q 1019 97 1172 289 
Q 1325 481 1381 709 
L 1672 1844 
Q 1741 2153 1741 2266 
Q 1741 2425 1652 2544 
Q 1563 2663 1403 2663 
Q 1200 2663 1022 2536 
Q 844 2409 722 2214 
Q 600 2019 550 1819 
Q 538 1778 500 1778 
L 422 1778 
Q 372 1778 372 1838 
L 372 1856 
Q 434 2094 584 2320 
Q 734 2547 951 2687 
Q 1169 2828 1416 2828 
Q 1650 2828 1839 2703 
Q 2028 2578 2106 2363 
Q 2216 2559 2386 2693 
Q 2556 2828 2759 2828 
Q 2897 2828 3040 2779 
Q 3184 2731 3275 2631 
Q 3366 2531 3366 2381 
Q 3366 2219 3261 2101 
Q 3156 1984 2994 1984 
Q 2891 1984 2822 2050 
Q 2753 2116 2753 2216 
Q 2753 2350 2845 2451 
Q 2938 2553 3066 2572 
Q 2950 2663 2747 2663 
Q 2541 2663 2389 2472 
Q 2238 2281 2175 2047 
L 1894 916 
Q 1825 659 1825 494 
Q 1825 331 1917 214 
Q 2009 97 2163 97 
Q 2463 97 2698 361 
Q 2934 625 3009 941 
Q 3022 978 3059 978 
L 3138 978 
Q 3163 978 3178 961 
Q 3194 944 3194 922 
Q 3194 916 3188 903 
Q 3097 522 2806 225 
Q 2516 -72 2150 -72 
Q 1916 -72 1727 54 
Q 1538 181 1459 397 
Q 1359 209 1182 68 
Q 1006 -72 806 -72 
Q 669 -72 523 -23 
Q 378 25 287 125 
Q 197 225 197 378 
Q 197 528 301 651 
Q 406 775 563 775 
Q 669 775 741 711 
Q 813 647 813 544 
Q 813 409 723 309 
Q 634 209 500 184 
z
" transform="scale(0.015625)"/>
      </defs>
      <use xlink:href="#Cmmi10-78" transform="translate(0 0.8125)"/>
     </g>
    </g>
   </g>
   <g id="matplotlib.axis_2">
    <g id="ytick_1">
     <g id="line2d_42">
      <defs>
       <path id="m9e7f7d8dfd" d="M 0 0 
L -3.5 0 
" style="stroke: #000000; stroke-width: 0.8"/>
      </defs>
      <g>
       <use xlink:href="#m9e7f7d8dfd" x="48.427188" y="288.053077" style="stroke: #000000; stroke-width: 0.8"/>
      </g>
     </g>
     <g id="text_11">
      <!-- −4 -->
      <g transform="translate(26.685 291.852296) scale(0.1 -0.1)">
       <use xlink:href="#DejaVuSans-2212"/>
       <use xlink:href="#DejaVuSans-34" x="83.789062"/>
      </g>
     </g>
    </g>
    <g id="ytick_2">
     <g id="line2d_43">
      <g>
       <use xlink:href="#m9e7f7d8dfd" x="48.427188" y="253.634808" style="stroke: #000000; stroke-width: 0.8"/>
      </g>
     </g>
     <g id="text_12">
      <!-- −3 -->
      <g transform="translate(26.685 257.434026) scale(0.1 -0.1)">
       <use xlink:href="#DejaVuSans-2212"/>
       <use xlink:href="#DejaVuSans-33" x="83.789062"/>
      </g>
     </g>
    </g>
    <g id="ytick_3">
     <g id="line2d_44">
      <g>
       <use xlink:href="#m9e7f7d8dfd" x="48.427188" y="219.216538" style="stroke: #000000; stroke-width: 0.8"/>
      </g>
     </g>
     <g id="text_13">
      <!-- −2 -->
      <g transform="translate(26.685 223.015757) scale(0.1 -0.1)">
       <use xlink:href="#DejaVuSans-2212"/>
       <use xlink:href="#DejaVuSans-32" x="83.789062"/>
      </g>
     </g>
    </g>
    <g id="ytick_4">
     <g id="line2d_45">
      <g>
       <use xlink:href="#m9e7f7d8dfd" x="48.427188" y="184.798269" style="stroke: #000000; stroke-width: 0.8"/>
      </g>
     </g>
     <g id="text_14">
      <!-- −1 -->
      <g transform="translate(26.685 188.597488) scale(0.1 -0.1)">
       <use xlink:href="#DejaVuSans-2212"/>
       <use xlink:href="#DejaVuSans-31" x="83.789062"/>
      </g>
     </g>
    </g>
    <g id="ytick_5">
     <g id="line2d_46">
      <g>
       <use xlink:href="#m9e7f7d8dfd" x="48.427188" y="150.38" style="stroke: #000000; stroke-width: 0.8"/>
      </g>
     </g>
     <g id="text_15">
      <!-- 0 -->
      <g transform="translate(35.064688 154.179219) scale(0.1 -0.1)">
       <use xlink:href="#DejaVuSans-30"/>
      </g>
     </g>
    </g>
    <g id="ytick_6">
     <g id="line2d_47">
      <g>
       <use xlink:href="#m9e7f7d8dfd" x="48.427188" y="115.961731" style="stroke: #000000; stroke-width: 0.8"/>
      </g>
     </g>
     <g id="text_16">
      <!-- 1 -->
      <g transform="translate(35.064688 119.76095) scale(0.1 -0.1)">
       <use xlink:href="#DejaVuSans-31"/>
      </g>
     </g>
    </g>
    <g id="ytick_7">
     <g id="line2d_48">
      <g>
       <use xlink:href="#m9e7f7d8dfd" x="48.427188" y="81.543462" style="stroke: #000000; stroke-width: 0.8"/>
      </g>
     </g>
     <g id="text_17">
      <!-- 2 -->
      <g transform="translate(35.064688 85.34268) scale(0.1 -0.1)">
       <use xlink:href="#DejaVuSans-32"/>
      </g>
     </g>
    </g>
    <g id="ytick_8">
     <g id="line2d_49">
      <g>
       <use xlink:href="#m9e7f7d8dfd" x="48.427188" y="47.125192" style="stroke: #000000; stroke-width: 0.8"/>
      </g>
     </g>
     <g id="text_18">
      <!-- 3 -->
      <g transform="translate(35.064688 50.924411) scale(0.1 -0.1)">
       <use xlink:href="#DejaVuSans-33"/>
      </g>
     </g>
    </g>
    <g id="ytick_9">
     <g id="line2d_50">
      <g>
       <use xlink:href="#m9e7f7d8dfd" x="48.427188" y="12.706923" style="stroke: #000000; stroke-width: 0.8"/>
      </g>
     </g>
     <g id="text_19">
      <!-- 4 -->
      <g transform="translate(35.064688 16.506142) scale(0.1 -0.1)">
       <use xlink:href="#DejaVuSans-34"/>
      </g>
     </g>
    </g>
    <g id="ytick_10">
     <g id="line2d_51">
      <defs>
       <path id="m715831f777" d="M 0 0 
L -2 0 
" style="stroke: #000000; stroke-width: 0.6"/>
      </defs>
      <g>
       <use xlink:href="#m715831f777" x="48.427188" y="281.169423" style="stroke: #000000; stroke-width: 0.6"/>
      </g>
     </g>
    </g>
    <g id="ytick_11">
     <g id="line2d_52">
      <g>
       <use xlink:href="#m715831f777" x="48.427188" y="274.285769" style="stroke: #000000; stroke-width: 0.6"/>
      </g>
     </g>
    </g>
    <g id="ytick_12">
     <g id="line2d_53">
      <g>
       <use xlink:href="#m715831f777" x="48.427188" y="267.402115" style="stroke: #000000; stroke-width: 0.6"/>
      </g>
     </g>
    </g>
    <g id="ytick_13">
     <g id="line2d_54">
      <g>
       <use xlink:href="#m715831f777" x="48.427188" y="260.518462" style="stroke: #000000; stroke-width: 0.6"/>
      </g>
     </g>
    </g>
    <g id="ytick_14">
     <g id="line2d_55">
      <g>
       <use xlink:href="#m715831f777" x="48.427188" y="246.751154" style="stroke: #000000; stroke-width: 0.6"/>
      </g>
     </g>
    </g>
    <g id="ytick_15">
     <g id="line2d_56">
      <g>
       <use xlink:href="#m715831f777" x="48.427188" y="239.8675" style="stroke: #000000; stroke-width: 0.6"/>
      </g>
     </g>
    </g>
    <g id="ytick_16">
     <g id="line2d_57">
      <g>
       <use xlink:href="#m715831f777" x="48.427188" y="232.983846" style="stroke: #000000; stroke-width: 0.6"/>
      </g>
     </g>
    </g>
    <g id="ytick_17">
     <g id="line2d_58">
      <g>
       <use xlink:href="#m715831f777" x="48.427188" y="226.100192" style="stroke: #000000; stroke-width: 0.6"/>
      </g>
     </g>
    </g>
    <g id="ytick_18">
     <g id="line2d_59">
      <g>
       <use xlink:href="#m715831f777" x="48.427188" y="212.332885" style="stroke: #000000; stroke-width: 0.6"/>
      </g>
     </g>
    </g>
    <g id="ytick_19">
     <g id="line2d_60">
      <g>
       <use xlink:href="#m715831f777" x="48.427188" y="205.449231" style="stroke: #000000; stroke-width: 0.6"/>
      </g>
     </g>
    </g>
    <g id="ytick_20">
     <g id="line2d_61">
      <g>
       <use xlink:href="#m715831f777" x="48.427188" y="198.565577" style="stroke: #000000; stroke-width: 0.6"/>
      </g>
     </g>
    </g>
    <g id="ytick_21">
     <g id="line2d_62">
      <g>
       <use xlink:href="#m715831f777" x="48.427188" y="191.681923" style="stroke: #000000; stroke-width: 0.6"/>
      </g>
     </g>
    </g>
    <g id="ytick_22">
     <g id="line2d_63">
      <g>
       <use xlink:href="#m715831f777" x="48.427188" y="177.914615" style="stroke: #000000; stroke-width: 0.6"/>
      </g>
     </g>
    </g>
    <g id="ytick_23">
     <g id="line2d_64">
      <g>
       <use xlink:href="#m715831f777" x="48.427188" y="171.030962" style="stroke: #000000; stroke-width: 0.6"/>
      </g>
     </g>
    </g>
    <g id="ytick_24">
     <g id="line2d_65">
      <g>
       <use xlink:href="#m715831f777" x="48.427188" y="164.147308" style="stroke: #000000; stroke-width: 0.6"/>
      </g>
     </g>
    </g>
    <g id="ytick_25">
     <g id="line2d_66">
      <g>
       <use xlink:href="#m715831f777" x="48.427188" y="157.263654" style="stroke: #000000; stroke-width: 0.6"/>
      </g>
     </g>
    </g>
    <g id="ytick_26">
     <g id="line2d_67">
      <g>
       <use xlink:href="#m715831f777" x="48.427188" y="143.496346" style="stroke: #000000; stroke-width: 0.6"/>
      </g>
     </g>
    </g>
    <g id="ytick_27">
     <g id="line2d_68">
      <g>
       <use xlink:href="#m715831f777" x="48.427188" y="136.612692" style="stroke: #000000; stroke-width: 0.6"/>
      </g>
     </g>
    </g>
    <g id="ytick_28">
     <g id="line2d_69">
      <g>
       <use xlink:href="#m715831f777" x="48.427188" y="129.729038" style="stroke: #000000; stroke-width: 0.6"/>
      </g>
     </g>
    </g>
    <g id="ytick_29">
     <g id="line2d_70">
      <g>
       <use xlink:href="#m715831f777" x="48.427188" y="122.845385" style="stroke: #000000; stroke-width: 0.6"/>
      </g>
     </g>
    </g>
    <g id="ytick_30">
     <g id="line2d_71">
      <g>
       <use xlink:href="#m715831f777" x="48.427188" y="109.078077" style="stroke: #000000; stroke-width: 0.6"/>
      </g>
     </g>
    </g>
    <g id="ytick_31">
     <g id="line2d_72">
      <g>
       <use xlink:href="#m715831f777" x="48.427188" y="102.194423" style="stroke: #000000; stroke-width: 0.6"/>
      </g>
     </g>
    </g>
    <g id="ytick_32">
     <g id="line2d_73">
      <g>
       <use xlink:href="#m715831f777" x="48.427188" y="95.310769" style="stroke: #000000; stroke-width: 0.6"/>
      </g>
     </g>
    </g>
    <g id="ytick_33">
     <g id="line2d_74">
      <g>
       <use xlink:href="#m715831f777" x="48.427188" y="88.427115" style="stroke: #000000; stroke-width: 0.6"/>
      </g>
     </g>
    </g>
    <g id="ytick_34">
     <g id="line2d_75">
      <g>
       <use xlink:href="#m715831f777" x="48.427188" y="74.659808" style="stroke: #000000; stroke-width: 0.6"/>
      </g>
     </g>
    </g>
    <g id="ytick_35">
     <g id="line2d_76">
      <g>
       <use xlink:href="#m715831f777" x="48.427188" y="67.776154" style="stroke: #000000; stroke-width: 0.6"/>
      </g>
     </g>
    </g>
    <g id="ytick_36">
     <g id="line2d_77">
      <g>
       <use xlink:href="#m715831f777" x="48.427188" y="60.8925" style="stroke: #000000; stroke-width: 0.6"/>
      </g>
     </g>
    </g>
    <g id="ytick_37">
     <g id="line2d_78">
      <g>
       <use xlink:href="#m715831f777" x="48.427188" y="54.008846" style="stroke: #000000; stroke-width: 0.6"/>
      </g>
     </g>
    </g>
    <g id="ytick_38">
     <g id="line2d_79">
      <g>
       <use xlink:href="#m715831f777" x="48.427188" y="40.241538" style="stroke: #000000; stroke-width: 0.6"/>
      </g>
     </g>
    </g>
    <g id="ytick_39">
     <g id="line2d_80">
      <g>
       <use xlink:href="#m715831f777" x="48.427188" y="33.357885" style="stroke: #000000; stroke-width: 0.6"/>
      </g>
     </g>
    </g>
    <g id="ytick_40">
     <g id="line2d_81">
      <g>
       <use xlink:href="#m715831f777" x="48.427188" y="26.474231" style="stroke: #000000; stroke-width: 0.6"/>
      </g>
     </g>
    </g>
    <g id="ytick_41">
     <g id="line2d_82">
      <g>
       <use xlink:href="#m715831f777" x="48.427188" y="19.590577" style="stroke: #000000; stroke-width: 0.6"/>
      </g>
     </g>
    </g>
    <g id="text_20">
     <!-- $y$ -->
     <g transform="translate(19.325 154.38) rotate(-90) scale(0.16 -0.16)">
      <defs>
       <path id="Cmmi10-79" d="M 538 -916 
Q 672 -1147 1006 -1147 
Q 1309 -1147 1531 -934 
Q 1753 -722 1889 -420 
Q 2025 -119 2100 197 
Q 1816 -72 1484 -72 
Q 1231 -72 1053 15 
Q 875 103 776 276 
Q 678 450 678 697 
Q 678 906 734 1126 
Q 791 1347 892 1617 
Q 994 1888 1069 2088 
Q 1153 2322 1153 2472 
Q 1153 2663 1013 2663 
Q 759 2663 595 2402 
Q 431 2141 353 1819 
Q 341 1778 300 1778 
L 225 1778 
Q 172 1778 172 1838 
L 172 1856 
Q 275 2238 487 2533 
Q 700 2828 1025 2828 
Q 1253 2828 1411 2678 
Q 1569 2528 1569 2297 
Q 1569 2178 1516 2047 
Q 1488 1969 1388 1706 
Q 1288 1444 1234 1272 
Q 1181 1100 1147 934 
Q 1113 769 1113 603 
Q 1113 391 1203 244 
Q 1294 97 1491 97 
Q 1888 97 2203 581 
L 2688 2553 
Q 2709 2638 2787 2698 
Q 2866 2759 2956 2759 
Q 3034 2759 3092 2709 
Q 3150 2659 3150 2578 
Q 3150 2541 3144 2528 
L 2509 -19 
Q 2425 -347 2200 -647 
Q 1975 -947 1658 -1130 
Q 1341 -1313 997 -1313 
Q 831 -1313 668 -1248 
Q 506 -1184 406 -1056 
Q 306 -928 306 -756 
Q 306 -581 409 -453 
Q 513 -325 684 -325 
Q 788 -325 858 -389 
Q 928 -453 928 -556 
Q 928 -703 818 -812 
Q 709 -922 563 -922 
Q 556 -919 550 -917 
Q 544 -916 538 -916 
z
" transform="scale(0.015625)"/>
      </defs>
      <use xlink:href="#Cmmi10-79" transform="translate(0 0.8125)"/>
     </g>
    </g>
   </g>
   <g id="PathCollection_1"/>
   <g id="PathCollection_2">
    <path d="M 186.987286 177.524012 
L 185.2893 177.175431 
L 185.139325 177.144126 
L 183.291364 176.627578 
L 181.443403 175.968064 
L 179.974755 175.32747 
L 179.595443 175.155295 
L 177.747482 174.167898 
L 176.641043 173.47951 
L 175.899521 172.989773 
L 174.100854 171.631549 
L 174.05156 171.591411 
L 172.203599 169.913292 
L 172.073895 169.783588 
L 170.395776 167.935627 
L 170.355639 167.886333 
L 168.997414 166.087666 
L 168.507678 165.346144 
L 167.819289 164.239706 
L 166.831892 162.391745 
L 166.659717 162.012433 
L 166.019123 160.543784 
L 165.359609 158.695823 
L 164.843061 156.847863 
L 164.811756 156.697888 
L 164.463175 154.999902 
L 164.21259 153.151941 
L 164.088096 151.30398 
L 164.088096 149.45602 
L 164.21259 147.608059 
L 164.463175 145.760098 
L 164.811756 144.062112 
L 164.843061 143.912137 
L 165.359609 142.064177 
L 166.019123 140.216216 
L 166.659717 138.747567 
L 166.831892 138.368255 
L 167.819289 136.520294 
L 168.507678 135.413856 
L 168.997414 134.672334 
L 170.355639 132.873667 
L 170.395776 132.824373 
L 172.073895 130.976412 
L 172.203599 130.846708 
L 174.05156 129.168589 
L 174.100854 129.128451 
L 175.899521 127.770227 
L 176.641043 127.28049 
L 177.747482 126.592102 
L 179.595443 125.604705 
L 179.974755 125.43253 
L 181.443403 124.791936 
L 183.291364 124.132422 
L 185.139325 123.615874 
L 185.2893 123.584569 
L 186.987286 123.235988 
L 188.835246 122.985403 
L 190.683207 122.860908 
L 192.531168 122.860908 
L 194.379129 122.985403 
L 196.227089 123.235988 
L 197.925075 123.584569 
L 198.07505 123.615874 
L 199.923011 124.132422 
L 201.770972 124.791936 
L 203.23962 125.43253 
L 203.618932 125.604705 
L 205.466893 126.592102 
L 206.573332 127.28049 
L 207.314854 127.770227 
L 209.113521 129.128451 
L 209.162815 129.168589 
L 211.010776 130.846708 
L 211.14048 130.976412 
L 212.818599 132.824373 
L 212.858736 132.873667 
L 214.216961 134.672334 
L 214.706697 135.413856 
L 215.395086 136.520294 
L 216.382483 138.368255 
L 216.554658 138.747567 
L 217.195252 140.216216 
L 217.854766 142.064177 
L 218.371314 143.912137 
L 218.402619 144.062112 
L 218.7512 145.760098 
L 219.001785 147.608059 
L 219.126279 149.45602 
L 219.126279 151.30398 
L 219.001785 153.151941 
L 218.7512 154.999902 
L 218.402619 156.697888 
L 218.371314 156.847863 
L 217.854766 158.695823 
L 217.195252 160.543784 
L 216.554658 162.012433 
L 216.382483 162.391745 
L 215.395086 164.239706 
L 214.706697 165.346144 
L 214.216961 166.087666 
L 212.858736 167.886333 
L 212.818599 167.935627 
L 211.14048 169.783588 
L 211.010776 169.913292 
L 209.162815 171.591411 
L 209.113521 171.631549 
L 207.314854 172.989773 
L 206.573332 173.47951 
L 205.466893 174.167898 
L 203.618932 175.155295 
L 203.23962 175.32747 
L 201.770972 175.968064 
L 199.923011 176.627578 
L 198.07505 177.144126 
L 197.925075 177.175431 
L 196.227089 177.524012 
L 194.379129 177.774597 
L 192.531168 177.899092 
L 190.683207 177.899092 
L 188.835246 177.774597 
L 186.987286 177.524012 
z
" clip-path="url(#pf5fa69955a)" style="fill: none; stroke: #202020; stroke-width: 1.5"/>
   </g>
   <g id="PathCollection_3">
    <path d="M 185.139325 205.068052 
L 183.858725 204.894843 
L 183.291364 204.817708 
L 181.443403 204.502988 
L 179.595443 204.122892 
L 177.747482 203.67616 
L 175.899521 203.161376 
L 175.534614 203.046882 
L 174.05156 202.575336 
L 172.203599 201.916598 
L 170.394042 201.198921 
L 170.355639 201.18342 
L 168.507678 200.368835 
L 166.659717 199.473803 
L 166.424483 199.35096 
L 164.811756 198.488454 
L 163.114145 197.502999 
L 162.963796 197.413313 
L 161.115835 196.234928 
L 160.266822 195.655039 
L 159.267874 194.950273 
L 157.748744 193.807078 
L 157.419913 193.550476 
L 155.571953 192.021749 
L 155.500044 191.959117 
L 153.723992 190.346328 
L 153.477756 190.111156 
L 151.876031 188.509431 
L 151.64086 188.263196 
L 150.02807 186.487144 
L 149.965439 186.415235 
L 148.436711 184.567274 
L 148.18011 184.238444 
L 147.036914 182.719313 
L 146.332149 181.720365 
L 145.752259 180.871353 
L 144.573875 179.023392 
L 144.484188 178.873042 
L 143.498733 177.175431 
L 142.636227 175.562705 
L 142.513384 175.32747 
L 141.618352 173.47951 
L 140.803767 171.631549 
L 140.788266 171.593145 
L 140.07059 169.783588 
L 139.411851 167.935627 
L 138.940306 166.452574 
L 138.825811 166.087666 
L 138.311028 164.239706 
L 137.864296 162.391745 
L 137.484199 160.543784 
L 137.16948 158.695823 
L 137.092345 158.128463 
L 136.919135 156.847863 
L 136.73212 154.999902 
L 136.60778 153.151941 
L 136.545711 151.30398 
L 136.545711 149.45602 
L 136.60778 147.608059 
L 136.73212 145.760098 
L 136.919135 143.912137 
L 137.092345 142.631537 
L 137.16948 142.064177 
L 137.484199 140.216216 
L 137.864296 138.368255 
L 138.311028 136.520294 
L 138.825811 134.672334 
L 138.940306 134.307426 
L 139.411851 132.824373 
L 140.07059 130.976412 
L 140.788266 129.166855 
L 140.803767 129.128451 
L 141.618352 127.28049 
L 142.513384 125.43253 
L 142.636227 125.197295 
L 143.498733 123.584569 
L 144.484188 121.886958 
L 144.573875 121.736608 
L 145.752259 119.888647 
L 146.332149 119.039635 
L 147.036914 118.040687 
L 148.18011 116.521556 
L 148.436711 116.192726 
L 149.965439 114.344765 
L 150.02807 114.272856 
L 151.64086 112.496804 
L 151.876031 112.250569 
L 153.477756 110.648844 
L 153.723992 110.413672 
L 155.500044 108.800883 
L 155.571953 108.738251 
L 157.419913 107.209524 
L 157.748744 106.952922 
L 159.267874 105.809727 
L 160.266822 105.104961 
L 161.115835 104.525072 
L 162.963796 103.346687 
L 163.114145 103.257001 
L 164.811756 102.271546 
L 166.424483 101.40904 
L 166.659717 101.286197 
L 168.507678 100.391165 
L 170.355639 99.57658 
L 170.394042 99.561079 
L 172.203599 98.843402 
L 174.05156 98.184664 
L 175.534614 97.713118 
L 175.899521 97.598624 
L 177.747482 97.08384 
L 179.595443 96.637108 
L 181.443403 96.257012 
L 183.291364 95.942292 
L 183.858725 95.865157 
L 185.139325 95.691948 
L 186.987286 95.504933 
L 188.835246 95.380592 
L 190.683207 95.318523 
L 192.531168 95.318523 
L 194.379129 95.380592 
L 196.227089 95.504933 
L 198.07505 95.691948 
L 199.35565 95.865157 
L 199.923011 95.942292 
L 201.770972 96.257012 
L 203.618932 96.637108 
L 205.466893 97.08384 
L 207.314854 97.598624 
L 207.679761 97.713118 
L 209.162815 98.184664 
L 211.010776 98.843402 
L 212.820333 99.561079 
L 212.858736 99.57658 
L 214.706697 100.391165 
L 216.554658 101.286197 
L 216.789892 101.40904 
L 218.402619 102.271546 
L 220.10023 103.257001 
L 220.250579 103.346687 
L 222.09854 104.525072 
L 222.947553 105.104961 
L 223.946501 105.809727 
L 225.465631 106.952922 
L 225.794462 107.209524 
L 227.642422 108.738251 
L 227.714331 108.800883 
L 229.490383 110.413672 
L 229.736619 110.648844 
L 231.338344 112.250569 
L 231.573515 112.496804 
L 233.186305 114.272856 
L 233.248936 114.344765 
L 234.777664 116.192726 
L 235.034265 116.521556 
L 236.177461 118.040687 
L 236.882226 119.039635 
L 237.462116 119.888647 
L 238.6405 121.736608 
L 238.730187 121.886958 
L 239.715642 123.584569 
L 240.578148 125.197295 
L 240.700991 125.43253 
L 241.596023 127.28049 
L 242.410608 129.128451 
L 242.426109 129.166855 
L 243.143785 130.976412 
L 243.802524 132.824373 
L 244.274069 134.307426 
L 244.388564 134.672334 
L 244.903347 136.520294 
L 245.350079 138.368255 
L 245.730176 140.216216 
L 246.044895 142.064177 
L 246.12203 142.631537 
L 246.29524 143.912137 
L 246.482255 145.760098 
L 246.606595 147.608059 
L 246.668664 149.45602 
L 246.668664 151.30398 
L 246.606595 153.151941 
L 246.482255 154.999902 
L 246.29524 156.847863 
L 246.12203 158.128463 
L 246.044895 158.695823 
L 245.730176 160.543784 
L 245.350079 162.391745 
L 244.903347 164.239706 
L 244.388564 166.087666 
L 244.274069 166.452574 
L 243.802524 167.935627 
L 243.143785 169.783588 
L 242.426109 171.593145 
L 242.410608 171.631549 
L 241.596023 173.47951 
L 240.700991 175.32747 
L 240.578148 175.562705 
L 239.715642 177.175431 
L 238.730187 178.873042 
L 238.6405 179.023392 
L 237.462116 180.871353 
L 236.882226 181.720365 
L 236.177461 182.719313 
L 235.034265 184.238444 
L 234.777664 184.567274 
L 233.248936 186.415235 
L 233.186305 186.487144 
L 231.573515 188.263196 
L 231.338344 188.509431 
L 229.736619 190.111156 
L 229.490383 190.346328 
L 227.714331 191.959117 
L 227.642422 192.021749 
L 225.794462 193.550476 
L 225.465631 193.807078 
L 223.946501 194.950273 
L 222.947553 195.655039 
L 222.09854 196.234928 
L 220.250579 197.413313 
L 220.10023 197.502999 
L 218.402619 198.488454 
L 216.789892 199.35096 
L 216.554658 199.473803 
L 214.706697 200.368835 
L 212.858736 201.18342 
L 212.820333 201.198921 
L 211.010776 201.916598 
L 209.162815 202.575336 
L 207.679761 203.046882 
L 207.314854 203.161376 
L 205.466893 203.67616 
L 203.618932 204.122892 
L 201.770972 204.502988 
L 199.923011 204.817708 
L 199.35565 204.894843 
L 198.07505 205.068052 
L 196.227089 205.255067 
L 194.379129 205.379408 
L 192.531168 205.441477 
L 190.683207 205.441477 
L 188.835246 205.379408 
L 186.987286 205.255067 
L 185.139325 205.068052 
z
" clip-path="url(#pf5fa69955a)" style="fill: none; stroke: #404040; stroke-width: 1.5"/>
   </g>
   <g id="PathCollection_4">
    <path d="M 185.139325 232.730233 
L 181.443403 232.356134 
L 177.747482 231.812673 
L 172.610279 230.766293 
L 170.355639 230.203047 
L 166.025334 228.918332 
L 162.963796 227.85807 
L 159.267874 226.389485 
L 155.571953 224.708498 
L 151.876031 222.800025 
L 148.18011 220.645558 
L 143.927638 217.830568 
L 140.788266 215.499744 
L 136.919012 212.286686 
L 133.001557 208.590764 
L 129.547411 204.894843 
L 126.00458 200.571715 
L 123.764469 197.502999 
L 121.34163 193.807078 
L 119.187162 190.111156 
L 117.27869 186.415235 
L 115.597703 182.719313 
L 114.129117 179.023392 
L 112.860832 175.32747 
L 111.784141 171.631549 
L 110.890566 167.935627 
L 110.174514 164.239706 
L 109.631053 160.543784 
L 109.256954 156.847863 
L 109.049867 153.151941 
L 109.00851 149.45602 
L 109.132642 145.760098 
L 109.422995 142.064177 
L 109.881434 138.368255 
L 110.510729 134.672334 
L 111.314679 130.976412 
L 112.299285 127.28049 
L 113.470523 123.584569 
L 114.916816 119.692785 
L 116.764777 115.432452 
L 118.612737 111.720499 
L 120.460698 108.413874 
L 122.516941 105.104961 
L 125.086962 101.40904 
L 127.971426 97.713118 
L 131.548463 93.669579 
L 135.244384 89.994565 
L 139.084888 86.625354 
L 142.636227 83.859774 
L 146.654317 81.081471 
L 150.02807 79.004375 
L 153.723992 76.976074 
L 157.419913 75.18335 
L 161.115835 73.609863 
L 166.025334 71.841668 
L 168.507678 71.072098 
L 172.610279 69.993707 
L 175.899521 69.283542 
L 179.595443 68.654246 
L 183.847673 68.145746 
L 186.987286 67.905454 
L 190.683207 67.781322 
L 194.379129 67.822679 
L 199.366702 68.145746 
L 201.770972 68.403866 
L 205.466893 68.947327 
L 210.604096 69.993707 
L 212.858736 70.556953 
L 217.189041 71.841668 
L 220.250579 72.90193 
L 223.946501 74.370515 
L 227.642422 76.051502 
L 231.338344 77.959975 
L 235.034265 80.114442 
L 239.286737 82.929432 
L 242.426109 85.260256 
L 246.295363 88.473314 
L 250.212818 92.169236 
L 253.666964 95.865157 
L 257.209795 100.188285 
L 259.449906 103.257001 
L 261.872745 106.952922 
L 264.027213 110.648844 
L 265.935685 114.344765 
L 267.616672 118.040687 
L 269.085258 121.736608 
L 270.353543 125.43253 
L 271.430234 129.128451 
L 272.323809 132.824373 
L 273.039861 136.520294 
L 273.583322 140.216216 
L 273.957421 143.912137 
L 274.164508 147.608059 
L 274.205865 151.30398 
L 274.081733 154.999902 
L 273.79138 158.695823 
L 273.332941 162.391745 
L 272.703646 166.087666 
L 271.899696 169.783588 
L 270.91509 173.47951 
L 269.743852 177.175431 
L 268.297559 181.067215 
L 266.449598 185.327548 
L 264.601638 189.039501 
L 262.753677 192.346126 
L 260.697434 195.655039 
L 258.127413 199.35096 
L 255.242949 203.046882 
L 251.665912 207.090421 
L 247.969991 210.765435 
L 244.129487 214.134646 
L 240.578148 216.900226 
L 236.560058 219.678529 
L 233.186305 221.755625 
L 229.490383 223.783926 
L 225.794462 225.57665 
L 222.09854 227.150137 
L 217.189041 228.918332 
L 214.706697 229.687902 
L 210.604096 230.766293 
L 207.314854 231.476458 
L 203.618932 232.105754 
L 199.366702 232.614254 
L 196.227089 232.854546 
L 192.531168 232.978678 
L 188.835246 232.937321 
L 185.139325 232.730233 
L 185.139325 232.730233 
" clip-path="url(#pf5fa69955a)" style="fill: none; stroke: #606060; stroke-width: 1.5"/>
   </g>
   <g id="PathCollection_5">
    <path d="M 186.987286 260.421524 
L 181.443403 260.048475 
L 175.899521 259.392534 
L 170.355639 258.448727 
L 164.811756 257.209035 
L 159.267874 255.663314 
L 153.723992 253.797812 
L 148.18011 251.594947 
L 143.073536 249.245901 
L 138.940306 247.109397 
L 135.244384 245.003082 
L 130.268176 241.854058 
L 127.596443 240.006097 
L 124.15662 237.446626 
L 120.460698 234.455278 
L 116.319779 230.766293 
L 112.558226 227.070372 
L 109.132206 223.37445 
L 105.677012 219.27214 
L 103.139701 215.982607 
L 100.13313 211.719011 
L 98.109025 208.590764 
L 95.907435 204.894843 
L 93.894609 201.198921 
L 92.059417 197.502999 
L 90.392241 193.807078 
L 88.189375 188.263196 
L 86.323874 182.719313 
L 84.778153 177.175431 
L 83.501483 171.435265 
L 82.594654 166.087666 
L 81.938713 160.543784 
L 81.565664 154.999902 
L 81.472602 149.45602 
L 81.658802 143.912137 
L 82.125724 138.368255 
L 82.876965 132.824373 
L 83.918437 127.28049 
L 85.258581 121.736608 
L 86.909202 116.192726 
L 88.189375 112.496804 
L 90.392241 106.952922 
L 92.741287 101.846349 
L 94.87779 97.713118 
L 96.984105 94.017197 
L 100.13313 89.040989 
L 101.98109 86.369256 
L 104.540561 82.929432 
L 107.53191 79.233511 
L 111.220894 75.092591 
L 114.916816 71.331039 
L 118.612737 67.905019 
L 122.715048 64.449824 
L 126.00458 61.912513 
L 130.268176 58.905942 
L 133.396423 56.881838 
L 137.092345 54.680248 
L 140.788266 52.667421 
L 144.484188 50.832229 
L 148.18011 49.165053 
L 153.723992 46.962188 
L 159.267874 45.096686 
L 164.811756 43.550965 
L 170.551922 42.274295 
L 175.899521 41.367466 
L 181.443403 40.711525 
L 186.987286 40.338476 
L 192.531168 40.245414 
L 198.07505 40.431615 
L 203.618932 40.898536 
L 209.162815 41.649777 
L 214.706697 42.69125 
L 220.250579 44.031393 
L 225.794462 45.682015 
L 229.490383 46.962188 
L 235.034265 49.165053 
L 240.140839 51.514099 
L 244.274069 53.650603 
L 247.969991 55.756918 
L 252.946199 58.905942 
L 255.617932 60.753903 
L 259.057755 63.313374 
L 262.753677 66.304722 
L 266.894596 69.993707 
L 270.656149 73.689628 
L 274.082169 77.38555 
L 277.537363 81.48786 
L 280.074674 84.777393 
L 283.081245 89.040989 
L 285.10535 92.169236 
L 287.30694 95.865157 
L 289.319766 99.561079 
L 291.154958 103.257001 
L 292.822134 106.952922 
L 295.025 112.496804 
L 296.890501 118.040687 
L 298.436222 123.584569 
L 299.712892 129.324735 
L 300.619721 134.672334 
L 301.275662 140.216216 
L 301.648711 145.760098 
L 301.741773 151.30398 
L 301.555573 156.847863 
L 301.088651 162.391745 
L 300.33741 167.935627 
L 299.295938 173.47951 
L 297.955794 179.023392 
L 296.305173 184.567274 
L 295.025 188.263196 
L 292.822134 193.807078 
L 290.473088 198.913651 
L 288.336585 203.046882 
L 286.23027 206.742803 
L 283.081245 211.719011 
L 281.233285 214.390744 
L 278.673814 217.830568 
L 275.682465 221.526489 
L 271.993481 225.667409 
L 268.297559 229.428961 
L 264.601638 232.854981 
L 260.499327 236.310176 
L 257.209795 238.847487 
L 252.946199 241.854058 
L 249.817952 243.878162 
L 246.12203 246.079752 
L 242.426109 248.092579 
L 238.730187 249.927771 
L 235.034265 251.594947 
L 229.490383 253.797812 
L 223.946501 255.663314 
L 218.402619 257.209035 
L 212.662453 258.485705 
L 207.314854 259.392534 
L 201.770972 260.048475 
L 196.227089 260.421524 
L 190.683207 260.514586 
L 186.987286 260.421524 
L 186.987286 260.421524 
" clip-path="url(#pf5fa69955a)" style="fill: none; stroke: #808080; stroke-width: 1.5"/>
   </g>
   <g id="PathCollection_6">
    <path d="M 170.355639 286.40294 
L 169.142464 286.205116 
L 168.507678 286.101345 
L 166.659717 285.773795 
L 164.811756 285.420177 
L 162.963796 285.040306 
L 161.115835 284.633985 
L 159.933031 284.357155 
L 159.267874 284.200888 
L 157.419913 283.740637 
L 155.571953 283.253179 
L 153.723992 282.738271 
L 152.942156 282.509195 
L 151.876031 282.195291 
L 150.02807 281.623954 
L 148.18011 281.024218 
L 147.110782 280.661234 
L 146.332149 280.395388 
L 144.484188 279.736867 
L 142.636227 279.048852 
L 142.027805 278.813273 
L 140.788266 278.33008 
L 138.940306 277.580492 
L 137.481841 276.965312 
L 137.092345 276.799793 
L 135.244384 275.986401 
L 133.396423 275.141273 
L 133.345752 275.117352 
L 131.548463 274.261653 
L 129.700502 273.349143 
L 129.543803 273.269391 
L 127.852541 272.400648 
L 126.011159 271.42143 
L 126.00458 271.417897 
L 124.15662 270.39706 
L 122.713403 269.573469 
L 122.308659 269.340051 
L 120.460698 268.243777 
L 119.612105 267.725509 
L 118.612737 267.108197 
L 116.764777 265.932848 
L 116.679969 265.877548 
L 114.916816 264.713795 
L 113.908602 264.029587 
L 113.068855 263.452396 
L 111.269059 262.181626 
L 111.220894 262.147162 
L 109.372933 260.793663 
L 108.760424 260.333665 
L 107.524973 259.392563 
L 106.363184 258.485705 
L 105.677012 257.942092 
L 104.068986 256.637744 
L 103.829051 256.440083 
L 101.98109 254.883444 
L 101.872215 254.789783 
L 100.13313 253.26904 
L 99.766842 252.941822 
L 98.285169 251.595454 
L 97.74443 251.093862 
L 96.437208 249.859598 
L 95.800022 249.245901 
L 94.589247 248.058079 
L 93.929109 247.39794 
L 92.741287 246.187166 
L 92.12759 245.549979 
L 90.893326 244.242758 
L 90.391734 243.702019 
L 89.045365 242.220346 
L 88.718147 241.854058 
L 87.197404 240.114972 
L 87.103743 240.006097 
L 85.547104 238.158136 
L 85.349444 237.918201 
L 84.045096 236.310176 
L 83.501483 235.624003 
L 82.594624 234.462215 
L 81.653522 233.226763 
L 81.193524 232.614254 
L 79.840026 230.766293 
L 79.805561 230.718128 
L 78.534791 228.918332 
L 77.957601 228.078585 
L 77.273393 227.070372 
L 76.10964 225.307218 
L 76.05434 225.222411 
L 74.878991 223.37445 
L 74.261679 222.375083 
L 73.74341 221.526489 
L 72.647137 219.678529 
L 72.413718 219.273784 
L 71.590127 217.830568 
L 70.56929 215.982607 
L 70.565757 215.976028 
L 69.586539 214.134646 
L 68.717797 212.443384 
L 68.638044 212.286686 
L 67.725535 210.438725 
L 66.869836 208.641436 
L 66.845914 208.590764 
L 66.000786 206.742803 
L 65.187395 204.894843 
L 65.021875 204.505346 
L 64.406696 203.046882 
L 63.657107 201.198921 
L 63.173914 199.959383 
L 62.938335 199.35096 
L 62.250321 197.502999 
L 61.5918 195.655039 
L 61.325954 194.876405 
L 60.962969 193.807078 
L 60.363234 191.959117 
L 59.791897 190.111156 
L 59.477993 189.045032 
L 59.248917 188.263196 
L 58.734008 186.415235 
L 58.246551 184.567274 
L 57.786299 182.719313 
L 57.630032 182.054157 
L 57.353203 180.871353 
L 56.946882 179.023392 
L 56.567011 177.175431 
L 56.213393 175.32747 
L 55.885842 173.47951 
L 55.782071 172.844724 
L 55.584248 171.631549 
L 55.308383 169.783588 
L 55.058065 167.935627 
L 54.833161 166.087666 
L 54.633553 164.239706 
L 54.459133 162.391745 
L 54.309807 160.543784 
L 54.185494 158.695823 
L 54.086126 156.847863 
L 54.011648 154.999902 
L 53.962019 153.151941 
L 53.937211 151.30398 
L 53.937211 149.45602 
L 53.962019 147.608059 
L 54.011648 145.760098 
L 54.086126 143.912137 
L 54.185494 142.064177 
L 54.309807 140.216216 
L 54.459133 138.368255 
L 54.633553 136.520294 
L 54.833161 134.672334 
L 55.058065 132.824373 
L 55.308383 130.976412 
L 55.584248 129.128451 
L 55.782071 127.915276 
L 55.885842 127.28049 
L 56.213393 125.43253 
L 56.567011 123.584569 
L 56.946882 121.736608 
L 57.353203 119.888647 
L 57.630032 118.705843 
L 57.786299 118.040687 
L 58.246551 116.192726 
L 58.734008 114.344765 
L 59.248917 112.496804 
L 59.477993 111.714968 
L 59.791897 110.648844 
L 60.363234 108.800883 
L 60.962969 106.952922 
L 61.325954 105.883595 
L 61.5918 105.104961 
L 62.250321 103.257001 
L 62.938335 101.40904 
L 63.173914 100.800617 
L 63.657107 99.561079 
L 64.406696 97.713118 
L 65.021875 96.254654 
L 65.187395 95.865157 
L 66.000786 94.017197 
L 66.845914 92.169236 
L 66.869836 92.118564 
L 67.725535 90.321275 
L 68.638044 88.473314 
L 68.717797 88.316616 
L 69.586539 86.625354 
L 70.565757 84.783972 
L 70.56929 84.777393 
L 71.590127 82.929432 
L 72.413718 81.486216 
L 72.647137 81.081471 
L 73.74341 79.233511 
L 74.261679 78.384917 
L 74.878991 77.38555 
L 76.05434 75.537589 
L 76.10964 75.452782 
L 77.273393 73.689628 
L 77.957601 72.681415 
L 78.534791 71.841668 
L 79.805561 70.041872 
L 79.840026 69.993707 
L 81.193524 68.145746 
L 81.653522 67.533237 
L 82.594624 66.297785 
L 83.501483 65.135997 
L 84.045096 64.449824 
L 85.349444 62.841799 
L 85.547104 62.601864 
L 87.103743 60.753903 
L 87.197404 60.645028 
L 88.718147 58.905942 
L 89.045365 58.539654 
L 90.391734 57.057981 
L 90.893326 56.517242 
L 92.12759 55.210021 
L 92.741287 54.572834 
L 93.929109 53.36206 
L 94.589247 52.701921 
L 95.800022 51.514099 
L 96.437208 50.900402 
L 97.74443 49.666138 
L 98.285169 49.164546 
L 99.766842 47.818178 
L 100.13313 47.49096 
L 101.872215 45.970217 
L 101.98109 45.876556 
L 103.829051 44.319917 
L 104.068986 44.122256 
L 105.677012 42.817908 
L 106.363184 42.274295 
L 107.524973 41.367437 
L 108.760424 40.426335 
L 109.372933 39.966337 
L 111.220894 38.612838 
L 111.269059 38.578374 
L 113.068855 37.307604 
L 113.908602 36.730413 
L 114.916816 36.046205 
L 116.679969 34.882452 
L 116.764777 34.827152 
L 118.612737 33.651803 
L 119.612105 33.034491 
L 120.460698 32.516223 
L 122.308659 31.419949 
L 122.713403 31.186531 
L 124.15662 30.36294 
L 126.00458 29.342103 
L 126.011159 29.33857 
L 127.852541 28.359352 
L 129.543803 27.490609 
L 129.700502 27.410857 
L 131.548463 26.498347 
L 133.345752 25.642648 
L 133.396423 25.618727 
L 135.244384 24.773599 
L 137.092345 23.960207 
L 137.481841 23.794688 
L 138.940306 23.179508 
L 140.788266 22.42992 
L 142.027805 21.946727 
L 142.636227 21.711148 
L 144.484188 21.023133 
L 146.332149 20.364612 
L 147.110782 20.098766 
L 148.18011 19.735782 
L 150.02807 19.136046 
L 151.876031 18.564709 
L 152.942156 18.250805 
L 153.723992 18.021729 
L 155.571953 17.506821 
L 157.419913 17.019363 
L 159.267874 16.559112 
L 159.933031 16.402845 
L 161.115835 16.126015 
L 162.963796 15.719694 
L 164.811756 15.339823 
L 166.659717 14.986205 
L 168.507678 14.658655 
L 169.142464 14.554884 
L 170.355639 14.35706 
L 172.203599 14.081196 
L 174.05156 13.830877 
L 175.899521 13.605974 
L 177.747482 13.406366 
L 179.595443 13.231946 
L 181.443403 13.08262 
L 183.291364 12.958307 
L 185.139325 12.858939 
L 186.987286 12.784461 
L 188.835246 12.734831 
L 190.683207 12.710024 
L 192.531168 12.710024 
L 194.379129 12.734831 
L 196.227089 12.784461 
L 198.07505 12.858939 
L 199.923011 12.958307 
L 201.770972 13.08262 
L 203.618932 13.231946 
L 205.466893 13.406366 
L 207.314854 13.605974 
L 209.162815 13.830877 
L 211.010776 14.081196 
L 212.858736 14.35706 
L 214.071911 14.554884 
L 214.706697 14.658655 
L 216.554658 14.986205 
L 218.402619 15.339823 
L 220.250579 15.719694 
L 222.09854 16.126015 
L 223.281344 16.402845 
L 223.946501 16.559112 
L 225.794462 17.019363 
L 227.642422 17.506821 
L 229.490383 18.021729 
L 230.272219 18.250805 
L 231.338344 18.564709 
L 233.186305 19.136046 
L 235.034265 19.735782 
L 236.103593 20.098766 
L 236.882226 20.364612 
L 238.730187 21.023133 
L 240.578148 21.711148 
L 241.18657 21.946727 
L 242.426109 22.42992 
L 244.274069 23.179508 
L 245.732534 23.794688 
L 246.12203 23.960207 
L 247.969991 24.773599 
L 249.817952 25.618727 
L 249.868623 25.642648 
L 251.665912 26.498347 
L 253.513873 27.410857 
L 253.670572 27.490609 
L 255.361834 28.359352 
L 257.203216 29.33857 
L 257.209795 29.342103 
L 259.057755 30.36294 
L 260.500972 31.186531 
L 260.905716 31.419949 
L 262.753677 32.516223 
L 263.60227 33.034491 
L 264.601638 33.651803 
L 266.449598 34.827152 
L 266.534406 34.882452 
L 268.297559 36.046205 
L 269.305773 36.730413 
L 270.14552 37.307604 
L 271.945316 38.578374 
L 271.993481 38.612838 
L 273.841442 39.966337 
L 274.453951 40.426335 
L 275.689402 41.367437 
L 276.851191 42.274295 
L 277.537363 42.817908 
L 279.145389 44.122256 
L 279.385324 44.319917 
L 281.233285 45.876556 
L 281.34216 45.970217 
L 283.081245 47.49096 
L 283.447533 47.818178 
L 284.929206 49.164546 
L 285.469945 49.666138 
L 286.777167 50.900402 
L 287.414353 51.514099 
L 288.625128 52.701921 
L 289.285266 53.36206 
L 290.473088 54.572834 
L 291.086785 55.210021 
L 292.321049 56.517242 
L 292.822641 57.057981 
L 294.16901 58.539654 
L 294.496228 58.905942 
L 296.016971 60.645028 
L 296.110632 60.753903 
L 297.667271 62.601864 
L 297.864931 62.841799 
L 299.169279 64.449824 
L 299.712892 65.135997 
L 300.619751 66.297785 
L 301.560853 67.533237 
L 302.020851 68.145746 
L 303.374349 69.993707 
L 303.408814 70.041872 
L 304.679584 71.841668 
L 305.256774 72.681415 
L 305.940982 73.689628 
L 307.104735 75.452782 
L 307.160035 75.537589 
L 308.335384 77.38555 
L 308.952696 78.384917 
L 309.470965 79.233511 
L 310.567238 81.081471 
L 310.800657 81.486216 
L 311.624248 82.929432 
L 312.645085 84.777393 
L 312.648618 84.783972 
L 313.627836 86.625354 
L 314.496578 88.316616 
L 314.576331 88.473314 
L 315.48884 90.321275 
L 316.344539 92.118564 
L 316.368461 92.169236 
L 317.213589 94.017197 
L 318.02698 95.865157 
L 318.1925 96.254654 
L 318.807679 97.713118 
L 319.557268 99.561079 
L 320.040461 100.800617 
L 320.27604 101.40904 
L 320.964054 103.257001 
L 321.622575 105.104961 
L 321.888421 105.883595 
L 322.251406 106.952922 
L 322.851141 108.800883 
L 323.422478 110.648844 
L 323.736382 111.714968 
L 323.965458 112.496804 
L 324.480367 114.344765 
L 324.967824 116.192726 
L 325.428076 118.040687 
L 325.584343 118.705843 
L 325.861172 119.888647 
L 326.267493 121.736608 
L 326.647364 123.584569 
L 327.000982 125.43253 
L 327.328533 127.28049 
L 327.432304 127.915276 
L 327.630127 129.128451 
L 327.905992 130.976412 
L 328.15631 132.824373 
L 328.381214 134.672334 
L 328.580822 136.520294 
L 328.755242 138.368255 
L 328.904568 140.216216 
L 329.028881 142.064177 
L 329.128249 143.912137 
L 329.202727 145.760098 
L 329.252356 147.608059 
L 329.277164 149.45602 
L 329.277164 151.30398 
L 329.252356 153.151941 
L 329.202727 154.999902 
L 329.128249 156.847863 
L 329.028881 158.695823 
L 328.904568 160.543784 
L 328.755242 162.391745 
L 328.580822 164.239706 
L 328.381214 166.087666 
L 328.15631 167.935627 
L 327.905992 169.783588 
L 327.630127 171.631549 
L 327.432304 172.844724 
L 327.328533 173.47951 
L 327.000982 175.32747 
L 326.647364 177.175431 
L 326.267493 179.023392 
L 325.861172 180.871353 
L 325.584343 182.054157 
L 325.428076 182.719313 
L 324.967824 184.567274 
L 324.480367 186.415235 
L 323.965458 188.263196 
L 323.736382 189.045032 
L 323.422478 190.111156 
L 322.851141 191.959117 
L 322.251406 193.807078 
L 321.888421 194.876405 
L 321.622575 195.655039 
L 320.964054 197.502999 
L 320.27604 199.35096 
L 320.040461 199.959383 
L 319.557268 201.198921 
L 318.807679 203.046882 
L 318.1925 204.505346 
L 318.02698 204.894843 
L 317.213589 206.742803 
L 316.368461 208.590764 
L 316.344539 208.641436 
L 315.48884 210.438725 
L 314.576331 212.286686 
L 314.496578 212.443384 
L 313.627836 214.134646 
L 312.648618 215.976028 
L 312.645085 215.982607 
L 311.624248 217.830568 
L 310.800657 219.273784 
L 310.567238 219.678529 
L 309.470965 221.526489 
L 308.952696 222.375083 
L 308.335384 223.37445 
L 307.160035 225.222411 
L 307.104735 225.307218 
L 305.940982 227.070372 
L 305.256774 228.078585 
L 304.679584 228.918332 
L 303.408814 230.718128 
L 303.374349 230.766293 
L 302.020851 232.614254 
L 301.560853 233.226763 
L 300.619751 234.462215 
L 299.712892 235.624003 
L 299.169279 236.310176 
L 297.864931 237.918201 
L 297.667271 238.158136 
L 296.110632 240.006097 
L 296.016971 240.114972 
L 294.496228 241.854058 
L 294.16901 242.220346 
L 292.822641 243.702019 
L 292.321049 244.242758 
L 291.086785 245.549979 
L 290.473088 246.187166 
L 289.285266 247.39794 
L 288.625128 248.058079 
L 287.414353 249.245901 
L 286.777167 249.859598 
L 285.469945 251.093862 
L 284.929206 251.595454 
L 283.447533 252.941822 
L 283.081245 253.26904 
L 281.34216 254.789783 
L 281.233285 254.883444 
L 279.385324 256.440083 
L 279.145389 256.637744 
L 277.537363 257.942092 
L 276.851191 258.485705 
L 275.689402 259.392563 
L 274.453951 260.333665 
L 273.841442 260.793663 
L 271.993481 262.147162 
L 271.945316 262.181626 
L 270.14552 263.452396 
L 269.305773 264.029587 
L 268.297559 264.713795 
L 266.534406 265.877548 
L 266.449598 265.932848 
L 264.601638 267.108197 
L 263.60227 267.725509 
L 262.753677 268.243777 
L 260.905716 269.340051 
L 260.500972 269.573469 
L 259.057755 270.39706 
L 257.209795 271.417897 
L 257.203216 271.42143 
L 255.361834 272.400648 
L 253.670572 273.269391 
L 253.513873 273.349143 
L 251.665912 274.261653 
L 249.868623 275.117352 
L 249.817952 275.141273 
L 247.969991 275.986401 
L 246.12203 276.799793 
L 245.732534 276.965312 
L 244.274069 277.580492 
L 242.426109 278.33008 
L 241.18657 278.813273 
L 240.578148 279.048852 
L 238.730187 279.736867 
L 236.882226 280.395388 
L 236.103593 280.661234 
L 235.034265 281.024218 
L 233.186305 281.623954 
L 231.338344 282.195291 
L 230.272219 282.509195 
L 229.490383 282.738271 
L 227.642422 283.253179 
L 225.794462 283.740637 
L 223.946501 284.200888 
L 223.281344 284.357155 
L 222.09854 284.633985 
L 220.250579 285.040306 
L 218.402619 285.420177 
L 216.554658 285.773795 
L 214.706697 286.101345 
L 214.071911 286.205116 
L 212.858736 286.40294 
L 211.010776 286.678804 
L 209.162815 286.929123 
L 207.314854 287.154026 
L 205.466893 287.353634 
L 203.618932 287.528054 
L 201.770972 287.67738 
L 199.923011 287.801693 
L 198.07505 287.901061 
L 196.227089 287.975539 
L 194.379129 288.025169 
L 192.531168 288.049976 
L 190.683207 288.049976 
L 188.835246 288.025169 
L 186.987286 287.975539 
L 185.139325 287.901061 
L 183.291364 287.801693 
L 181.443403 287.67738 
L 179.595443 287.528054 
L 177.747482 287.353634 
L 175.899521 287.154026 
L 174.05156 286.929123 
L 172.203599 286.678804 
L 170.355639 286.40294 
z
" clip-path="url(#pf5fa69955a)" style="fill: none; stroke: #a0a0a0; stroke-width: 1.5"/>
   </g>
   <g id="PathCollection_7">
    <path d="M 100.286191 288.053077 
L 100.13313 287.951886 
L 98.285169 286.704497 
L 97.561612 286.205116 
L 96.437208 285.420658 
L 94.946171 284.357155 
L 94.589247 284.099702 
L 92.741287 282.739294 
L 92.434829 282.509195 
L 90.893326 281.338031 
L 90.020512 280.661234 
L 89.045365 279.895769 
L 87.693428 278.813273 
L 87.197404 278.411033 
L 85.448637 276.965312 
L 85.349444 276.882223 
L 83.501483 275.306398 
L 83.283721 275.117352 
L 81.653522 273.682521 
L 81.192394 273.269391 
L 79.805561 272.009107 
L 79.169911 271.42143 
L 77.957601 270.284008 
L 77.21282 269.573469 
L 76.10964 268.504898 
L 75.317928 267.725509 
L 74.261679 266.669259 
L 73.48229 265.877548 
L 72.413718 264.774368 
L 71.703179 264.029587 
L 70.565757 262.817276 
L 69.97808 262.181626 
L 68.717797 260.794794 
L 68.304667 260.333665 
L 66.869836 258.703467 
L 66.68079 258.485705 
L 65.104965 256.637744 
L 65.021875 256.53855 
L 63.576155 254.789783 
L 63.173914 254.293759 
L 62.091419 252.941822 
L 61.325954 251.966675 
L 60.649157 251.093862 
L 59.477993 249.552359 
L 59.247893 249.245901 
L 57.887485 247.39794 
L 57.630032 247.041016 
L 56.566529 245.549979 
L 55.782071 244.425575 
L 55.282691 243.702019 
L 54.035302 241.854058 
L 53.934111 241.700996 
" clip-path="url(#pf5fa69955a)" style="fill: none; stroke: #c0c0c0; stroke-width: 1.5"/>
    <path d="M 329.280264 241.700996 
L 329.179073 241.854058 
L 327.931684 243.702019 
L 327.432304 244.425575 
L 326.647846 245.549979 
L 325.584343 247.041016 
L 325.32689 247.39794 
L 323.966482 249.245901 
L 323.736382 249.552359 
L 322.565218 251.093862 
L 321.888421 251.966675 
L 321.122956 252.941822 
L 320.040461 254.293759 
L 319.63822 254.789783 
L 318.1925 256.53855 
L 318.10941 256.637744 
L 316.533585 258.485705 
L 316.344539 258.703467 
L 314.909708 260.333665 
L 314.496578 260.794794 
L 313.236295 262.181626 
L 312.648618 262.817276 
L 311.511196 264.029587 
L 310.800657 264.774368 
L 309.732085 265.877548 
L 308.952696 266.669259 
L 307.896447 267.725509 
L 307.104735 268.504898 
L 306.001555 269.573469 
L 305.256774 270.284008 
L 304.044464 271.42143 
L 303.408814 272.009107 
L 302.021981 273.269391 
L 301.560853 273.682521 
L 299.930654 275.117352 
L 299.712892 275.306398 
L 297.864931 276.882223 
L 297.765738 276.965312 
L 296.016971 278.411033 
L 295.520947 278.813273 
L 294.16901 279.895769 
L 293.193863 280.661234 
L 292.321049 281.338031 
L 290.779546 282.509195 
L 290.473088 282.739294 
L 288.625128 284.099702 
L 288.268204 284.357155 
L 286.777167 285.420658 
L 285.652763 286.205116 
L 284.929206 286.704497 
L 283.081245 287.951886 
L 282.928184 288.053077 
" clip-path="url(#pf5fa69955a)" style="fill: none; stroke: #c0c0c0; stroke-width: 1.5"/>
    <path d="M 53.934111 59.059004 
L 54.035302 58.905942 
L 55.282691 57.057981 
L 55.782071 56.334425 
L 56.566529 55.210021 
L 57.630032 53.718984 
L 57.887485 53.36206 
L 59.247893 51.514099 
L 59.477993 51.207641 
L 60.649157 49.666138 
L 61.325954 48.793325 
L 62.091419 47.818178 
L 63.173914 46.466241 
L 63.576155 45.970217 
L 65.021875 44.22145 
L 65.104965 44.122256 
L 66.68079 42.274295 
L 66.869836 42.056533 
L 68.304667 40.426335 
L 68.717797 39.965206 
L 69.97808 38.578374 
L 70.565757 37.942724 
L 71.703179 36.730413 
L 72.413718 35.985632 
L 73.48229 34.882452 
L 74.261679 34.090741 
L 75.317928 33.034491 
L 76.10964 32.255102 
L 77.21282 31.186531 
L 77.957601 30.475992 
L 79.169911 29.33857 
L 79.805561 28.750893 
L 81.192394 27.490609 
L 81.653522 27.077479 
L 83.283721 25.642648 
L 83.501483 25.453602 
L 85.349444 23.877777 
L 85.448637 23.794688 
L 87.197404 22.348967 
L 87.693428 21.946727 
L 89.045365 20.864231 
L 90.020512 20.098766 
L 90.893326 19.421969 
L 92.434829 18.250805 
L 92.741287 18.020706 
L 94.589247 16.660298 
L 94.946171 16.402845 
L 96.437208 15.339342 
L 97.561612 14.554884 
L 98.285169 14.055503 
L 100.13313 12.808114 
L 100.286191 12.706923 
" clip-path="url(#pf5fa69955a)" style="fill: none; stroke: #c0c0c0; stroke-width: 1.5"/>
    <path d="M 282.928184 12.706923 
L 283.081245 12.808114 
L 284.929206 14.055503 
L 285.652763 14.554884 
L 286.777167 15.339342 
L 288.268204 16.402845 
L 288.625128 16.660298 
L 290.473088 18.020706 
L 290.779546 18.250805 
L 292.321049 19.421969 
L 293.193863 20.098766 
L 294.16901 20.864231 
L 295.520947 21.946727 
L 296.016971 22.348967 
L 297.765738 23.794688 
L 297.864931 23.877777 
L 299.712892 25.453602 
L 299.930654 25.642648 
L 301.560853 27.077479 
L 302.021981 27.490609 
L 303.408814 28.750893 
L 304.044464 29.33857 
L 305.256774 30.475992 
L 306.001555 31.186531 
L 307.104735 32.255102 
L 307.896447 33.034491 
L 308.952696 34.090741 
L 309.732085 34.882452 
L 310.800657 35.985632 
L 311.511196 36.730413 
L 312.648618 37.942724 
L 313.236295 38.578374 
L 314.496578 39.965206 
L 314.909708 40.426335 
L 316.344539 42.056533 
L 316.533585 42.274295 
L 318.10941 44.122256 
L 318.1925 44.22145 
L 319.63822 45.970217 
L 320.040461 46.466241 
L 321.122956 47.818178 
L 321.888421 48.793325 
L 322.565218 49.666138 
L 323.736382 51.207641 
L 323.966482 51.514099 
L 325.32689 53.36206 
L 325.584343 53.718984 
L 326.647846 55.210021 
L 327.432304 56.334425 
L 327.931684 57.057981 
L 329.179073 58.905942 
L 329.280264 59.059004 
" clip-path="url(#pf5fa69955a)" style="fill: none; stroke: #c0c0c0; stroke-width: 1.5"/>
   </g>
   <g id="PathCollection_8">
    <path d="M 56.717286 288.053077 
L 55.782071 287.130543 
L 54.856644 286.205116 
L 53.934111 285.269902 
" clip-path="url(#pf5fa69955a)" style="fill: none; stroke: #e0e0e0; stroke-width: 1.5"/>
    <path d="M 329.280264 285.269902 
L 328.357731 286.205116 
L 327.432304 287.130543 
L 326.497089 288.053077 
" clip-path="url(#pf5fa69955a)" style="fill: none; stroke: #e0e0e0; stroke-width: 1.5"/>
    <path d="M 53.934111 15.490098 
L 54.856644 14.554884 
L 55.782071 13.629457 
L 56.717286 12.706923 
" clip-path="url(#pf5fa69955a)" style="fill: none; stroke: #e0e0e0; stroke-width: 1.5"/>
    <path d="M 326.497089 12.706923 
L 327.432304 13.629457 
L 328.357731 14.554884 
L 329.280264 15.490098 
" clip-path="url(#pf5fa69955a)" style="fill: none; stroke: #e0e0e0; stroke-width: 1.5"/>
   </g>
   <g id="PathCollection_9"/>
   <g id="patch_3">
    <path d="M 48.427188 293.56 
L 48.427188 7.2 
" style="fill: none; stroke: #000000; stroke-width: 0.8; stroke-linejoin: miter; stroke-linecap: square"/>
   </g>
   <g id="patch_4">
    <path d="M 334.787187 293.56 
L 334.787187 7.2 
" style="fill: none; stroke: #000000; stroke-width: 0.8; stroke-linejoin: miter; stroke-linecap: square"/>
   </g>
   <g id="patch_5">
    <path d="M 48.427188 293.56 
L 334.787187 293.56 
" style="fill: none; stroke: #000000; stroke-width: 0.8; stroke-linejoin: miter; stroke-linecap: square"/>
   </g>
   <g id="patch_6">
    <path d="M 48.427188 7.2 
L 334.787187 7.2 
" style="fill: none; stroke: #000000; stroke-width: 0.8; stroke-linejoin: miter; stroke-linecap: square"/>
   </g>
  </g>
 </g>
 <defs>
  <clipPath id="pf5fa69955a">
   <rect x="48.427188" y="7.2" width="286.36" height="286.36"/>
  </clipPath>
 </defs>
</svg>
