<?xml version="1.0" encoding="utf-8" standalone="no"?>
<!DOCTYPE svg PUBLIC "-//W3C//DTD SVG 1.1//EN"
  "http://www.w3.org/Graphics/SVG/1.1/DTD/svg11.dtd">
<svg xmlns:xlink="http://www.w3.org/1999/xlink" width="343.062187pt" height="337.998125pt" viewBox="0 0 343.062187 337.998125" xmlns="http://www.w3.org/2000/svg" version="1.1">
 <metadata>
  <rdf:RDF xmlns:dc="http://purl.org/dc/elements/1.1/" xmlns:cc="http://creativecommons.org/ns#" xmlns:rdf="http://www.w3.org/1999/02/22-rdf-syntax-ns#">
   <cc:Work>
    <dc:type rdf:resource="http://purl.org/dc/dcmitype/StillImage"/>
    <dc:date>2025-04-08T16:54:54.195447</dc:date>
    <dc:format>image/svg+xml</dc:format>
    <dc:creator>
     <cc:Agent>
      <dc:title>Matplotlib v3.6.3, https://matplotlib.org/</dc:title>
     </cc:Agent>
    </dc:creator>
   </cc:Work>
  </rdf:RDF>
 </metadata>
 <defs>
  <style type="text/css">*{stroke-linejoin: round; stroke-linecap: butt}</style>
 </defs>
 <g id="figure_1">
  <g id="patch_1">
   <path d="M 0 337.998125 
L 343.062187 337.998125 
L 343.062187 0 
L 0 0 
z
" style="fill: #ffffff"/>
  </g>
  <g id="axes_1">
   <g id="patch_2">
    <path d="M 28.942188 314.12 
L 335.862187 314.12 
L 335.862187 7.2 
L 28.942188 7.2 
z
" style="fill: #ffffff"/>
   </g>
   <g id="matplotlib.axis_1">
    <g id="xtick_1">
     <g id="line2d_1">
      <defs>
       <path id="me7aa8f4ae6" d="M 0 0 
L 0 3.5 
" style="stroke: #000000; stroke-width: 0.8"/>
      </defs>
      <g>
       <use xlink:href="#me7aa8f4ae6" x="34.844495" y="314.12" style="stroke: #000000; stroke-width: 0.8"/>
      </g>
     </g>
     <g id="text_1">
      <!-- −8 -->
      <g transform="translate(27.473401 328.718437) scale(0.1 -0.1)">
       <defs>
        <path id="DejaVuSans-2212" d="M 678 2272 
L 4684 2272 
L 4684 1741 
L 678 1741 
L 678 2272 
z
" transform="scale(0.015625)"/>
        <path id="DejaVuSans-38" d="M 2034 2216 
Q 1584 2216 1326 1975 
Q 1069 1734 1069 1313 
Q 1069 891 1326 650 
Q 1584 409 2034 409 
Q 2484 409 2743 651 
Q 3003 894 3003 1313 
Q 3003 1734 2745 1975 
Q 2488 2216 2034 2216 
z
M 1403 2484 
Q 997 2584 770 2862 
Q 544 3141 544 3541 
Q 544 4100 942 4425 
Q 1341 4750 2034 4750 
Q 2731 4750 3128 4425 
Q 3525 4100 3525 3541 
Q 3525 3141 3298 2862 
Q 3072 2584 2669 2484 
Q 3125 2378 3379 2068 
Q 3634 1759 3634 1313 
Q 3634 634 3220 271 
Q 2806 -91 2034 -91 
Q 1263 -91 848 271 
Q 434 634 434 1313 
Q 434 1759 690 2068 
Q 947 2378 1403 2484 
z
M 1172 3481 
Q 1172 3119 1398 2916 
Q 1625 2713 2034 2713 
Q 2441 2713 2670 2916 
Q 2900 3119 2900 3481 
Q 2900 3844 2670 4047 
Q 2441 4250 2034 4250 
Q 1625 4250 1398 4047 
Q 1172 3844 1172 3481 
z
" transform="scale(0.015625)"/>
       </defs>
       <use xlink:href="#DejaVuSans-2212"/>
       <use xlink:href="#DejaVuSans-38" x="83.789062"/>
      </g>
     </g>
    </g>
    <g id="xtick_2">
     <g id="line2d_2">
      <g>
       <use xlink:href="#me7aa8f4ae6" x="71.733918" y="314.12" style="stroke: #000000; stroke-width: 0.8"/>
      </g>
     </g>
     <g id="text_2">
      <!-- −6 -->
      <g transform="translate(64.362825 328.718437) scale(0.1 -0.1)">
       <defs>
        <path id="DejaVuSans-36" d="M 2113 2584 
Q 1688 2584 1439 2293 
Q 1191 2003 1191 1497 
Q 1191 994 1439 701 
Q 1688 409 2113 409 
Q 2538 409 2786 701 
Q 3034 994 3034 1497 
Q 3034 2003 2786 2293 
Q 2538 2584 2113 2584 
z
M 3366 4563 
L 3366 3988 
Q 3128 4100 2886 4159 
Q 2644 4219 2406 4219 
Q 1781 4219 1451 3797 
Q 1122 3375 1075 2522 
Q 1259 2794 1537 2939 
Q 1816 3084 2150 3084 
Q 2853 3084 3261 2657 
Q 3669 2231 3669 1497 
Q 3669 778 3244 343 
Q 2819 -91 2113 -91 
Q 1303 -91 875 529 
Q 447 1150 447 2328 
Q 447 3434 972 4092 
Q 1497 4750 2381 4750 
Q 2619 4750 2861 4703 
Q 3103 4656 3366 4563 
z
" transform="scale(0.015625)"/>
       </defs>
       <use xlink:href="#DejaVuSans-2212"/>
       <use xlink:href="#DejaVuSans-36" x="83.789062"/>
      </g>
     </g>
    </g>
    <g id="xtick_3">
     <g id="line2d_3">
      <g>
       <use xlink:href="#me7aa8f4ae6" x="108.623341" y="314.12" style="stroke: #000000; stroke-width: 0.8"/>
      </g>
     </g>
     <g id="text_3">
      <!-- −4 -->
      <g transform="translate(101.252248 328.718437) scale(0.1 -0.1)">
       <defs>
        <path id="DejaVuSans-34" d="M 2419 4116 
L 825 1625 
L 2419 1625 
L 2419 4116 
z
M 2253 4666 
L 3047 4666 
L 3047 1625 
L 3713 1625 
L 3713 1100 
L 3047 1100 
L 3047 0 
L 2419 0 
L 2419 1100 
L 313 1100 
L 313 1709 
L 2253 4666 
z
" transform="scale(0.015625)"/>
       </defs>
       <use xlink:href="#DejaVuSans-2212"/>
       <use xlink:href="#DejaVuSans-34" x="83.789062"/>
      </g>
     </g>
    </g>
    <g id="xtick_4">
     <g id="line2d_4">
      <g>
       <use xlink:href="#me7aa8f4ae6" x="145.512764" y="314.12" style="stroke: #000000; stroke-width: 0.8"/>
      </g>
     </g>
     <g id="text_4">
      <!-- −2 -->
      <g transform="translate(138.141671 328.718437) scale(0.1 -0.1)">
       <defs>
        <path id="DejaVuSans-32" d="M 1228 531 
L 3431 531 
L 3431 0 
L 469 0 
L 469 531 
Q 828 903 1448 1529 
Q 2069 2156 2228 2338 
Q 2531 2678 2651 2914 
Q 2772 3150 2772 3378 
Q 2772 3750 2511 3984 
Q 2250 4219 1831 4219 
Q 1534 4219 1204 4116 
Q 875 4013 500 3803 
L 500 4441 
Q 881 4594 1212 4672 
Q 1544 4750 1819 4750 
Q 2544 4750 2975 4387 
Q 3406 4025 3406 3419 
Q 3406 3131 3298 2873 
Q 3191 2616 2906 2266 
Q 2828 2175 2409 1742 
Q 1991 1309 1228 531 
z
" transform="scale(0.015625)"/>
       </defs>
       <use xlink:href="#DejaVuSans-2212"/>
       <use xlink:href="#DejaVuSans-32" x="83.789062"/>
      </g>
     </g>
    </g>
    <g id="xtick_5">
     <g id="line2d_5">
      <g>
       <use xlink:href="#me7aa8f4ae6" x="182.402187" y="314.12" style="stroke: #000000; stroke-width: 0.8"/>
      </g>
     </g>
     <g id="text_5">
      <!-- 0 -->
      <g transform="translate(179.220937 328.718437) scale(0.1 -0.1)">
       <defs>
        <path id="DejaVuSans-30" d="M 2034 4250 
Q 1547 4250 1301 3770 
Q 1056 3291 1056 2328 
Q 1056 1369 1301 889 
Q 1547 409 2034 409 
Q 2525 409 2770 889 
Q 3016 1369 3016 2328 
Q 3016 3291 2770 3770 
Q 2525 4250 2034 4250 
z
M 2034 4750 
Q 2819 4750 3233 4129 
Q 3647 3509 3647 2328 
Q 3647 1150 3233 529 
Q 2819 -91 2034 -91 
Q 1250 -91 836 529 
Q 422 1150 422 2328 
Q 422 3509 836 4129 
Q 1250 4750 2034 4750 
z
" transform="scale(0.015625)"/>
       </defs>
       <use xlink:href="#DejaVuSans-30"/>
      </g>
     </g>
    </g>
    <g id="xtick_6">
     <g id="line2d_6">
      <g>
       <use xlink:href="#me7aa8f4ae6" x="219.291611" y="314.12" style="stroke: #000000; stroke-width: 0.8"/>
      </g>
     </g>
     <g id="text_6">
      <!-- 2 -->
      <g transform="translate(216.110361 328.718437) scale(0.1 -0.1)">
       <use xlink:href="#DejaVuSans-32"/>
      </g>
     </g>
    </g>
    <g id="xtick_7">
     <g id="line2d_7">
      <g>
       <use xlink:href="#me7aa8f4ae6" x="256.181034" y="314.12" style="stroke: #000000; stroke-width: 0.8"/>
      </g>
     </g>
     <g id="text_7">
      <!-- 4 -->
      <g transform="translate(252.999784 328.718437) scale(0.1 -0.1)">
       <use xlink:href="#DejaVuSans-34"/>
      </g>
     </g>
    </g>
    <g id="xtick_8">
     <g id="line2d_8">
      <g>
       <use xlink:href="#me7aa8f4ae6" x="293.070457" y="314.12" style="stroke: #000000; stroke-width: 0.8"/>
      </g>
     </g>
     <g id="text_8">
      <!-- 6 -->
      <g transform="translate(289.889207 328.718437) scale(0.1 -0.1)">
       <use xlink:href="#DejaVuSans-36"/>
      </g>
     </g>
    </g>
    <g id="xtick_9">
     <g id="line2d_9">
      <g>
       <use xlink:href="#me7aa8f4ae6" x="329.95988" y="314.12" style="stroke: #000000; stroke-width: 0.8"/>
      </g>
     </g>
     <g id="text_9">
      <!-- 8 -->
      <g transform="translate(326.77863 328.718437) scale(0.1 -0.1)">
       <use xlink:href="#DejaVuSans-38"/>
      </g>
     </g>
    </g>
    <g id="xtick_10">
     <g id="line2d_10">
      <defs>
       <path id="mfa327d4777" d="M 0 0 
L 0 2 
" style="stroke: #000000; stroke-width: 0.6"/>
      </defs>
      <g>
       <use xlink:href="#mfa327d4777" x="44.066851" y="314.12" style="stroke: #000000; stroke-width: 0.6"/>
      </g>
     </g>
    </g>
    <g id="xtick_11">
     <g id="line2d_11">
      <g>
       <use xlink:href="#mfa327d4777" x="53.289207" y="314.12" style="stroke: #000000; stroke-width: 0.6"/>
      </g>
     </g>
    </g>
    <g id="xtick_12">
     <g id="line2d_12">
      <g>
       <use xlink:href="#mfa327d4777" x="62.511562" y="314.12" style="stroke: #000000; stroke-width: 0.6"/>
      </g>
     </g>
    </g>
    <g id="xtick_13">
     <g id="line2d_13">
      <g>
       <use xlink:href="#mfa327d4777" x="80.956274" y="314.12" style="stroke: #000000; stroke-width: 0.6"/>
      </g>
     </g>
    </g>
    <g id="xtick_14">
     <g id="line2d_14">
      <g>
       <use xlink:href="#mfa327d4777" x="90.17863" y="314.12" style="stroke: #000000; stroke-width: 0.6"/>
      </g>
     </g>
    </g>
    <g id="xtick_15">
     <g id="line2d_15">
      <g>
       <use xlink:href="#mfa327d4777" x="99.400986" y="314.12" style="stroke: #000000; stroke-width: 0.6"/>
      </g>
     </g>
    </g>
    <g id="xtick_16">
     <g id="line2d_16">
      <g>
       <use xlink:href="#mfa327d4777" x="117.845697" y="314.12" style="stroke: #000000; stroke-width: 0.6"/>
      </g>
     </g>
    </g>
    <g id="xtick_17">
     <g id="line2d_17">
      <g>
       <use xlink:href="#mfa327d4777" x="127.068053" y="314.12" style="stroke: #000000; stroke-width: 0.6"/>
      </g>
     </g>
    </g>
    <g id="xtick_18">
     <g id="line2d_18">
      <g>
       <use xlink:href="#mfa327d4777" x="136.290409" y="314.12" style="stroke: #000000; stroke-width: 0.6"/>
      </g>
     </g>
    </g>
    <g id="xtick_19">
     <g id="line2d_19">
      <g>
       <use xlink:href="#mfa327d4777" x="154.73512" y="314.12" style="stroke: #000000; stroke-width: 0.6"/>
      </g>
     </g>
    </g>
    <g id="xtick_20">
     <g id="line2d_20">
      <g>
       <use xlink:href="#mfa327d4777" x="163.957476" y="314.12" style="stroke: #000000; stroke-width: 0.6"/>
      </g>
     </g>
    </g>
    <g id="xtick_21">
     <g id="line2d_21">
      <g>
       <use xlink:href="#mfa327d4777" x="173.179832" y="314.12" style="stroke: #000000; stroke-width: 0.6"/>
      </g>
     </g>
    </g>
    <g id="xtick_22">
     <g id="line2d_22">
      <g>
       <use xlink:href="#mfa327d4777" x="191.624543" y="314.12" style="stroke: #000000; stroke-width: 0.6"/>
      </g>
     </g>
    </g>
    <g id="xtick_23">
     <g id="line2d_23">
      <g>
       <use xlink:href="#mfa327d4777" x="200.846899" y="314.12" style="stroke: #000000; stroke-width: 0.6"/>
      </g>
     </g>
    </g>
    <g id="xtick_24">
     <g id="line2d_24">
      <g>
       <use xlink:href="#mfa327d4777" x="210.069255" y="314.12" style="stroke: #000000; stroke-width: 0.6"/>
      </g>
     </g>
    </g>
    <g id="xtick_25">
     <g id="line2d_25">
      <g>
       <use xlink:href="#mfa327d4777" x="228.513966" y="314.12" style="stroke: #000000; stroke-width: 0.6"/>
      </g>
     </g>
    </g>
    <g id="xtick_26">
     <g id="line2d_26">
      <g>
       <use xlink:href="#mfa327d4777" x="237.736322" y="314.12" style="stroke: #000000; stroke-width: 0.6"/>
      </g>
     </g>
    </g>
    <g id="xtick_27">
     <g id="line2d_27">
      <g>
       <use xlink:href="#mfa327d4777" x="246.958678" y="314.12" style="stroke: #000000; stroke-width: 0.6"/>
      </g>
     </g>
    </g>
    <g id="xtick_28">
     <g id="line2d_28">
      <g>
       <use xlink:href="#mfa327d4777" x="265.403389" y="314.12" style="stroke: #000000; stroke-width: 0.6"/>
      </g>
     </g>
    </g>
    <g id="xtick_29">
     <g id="line2d_29">
      <g>
       <use xlink:href="#mfa327d4777" x="274.625745" y="314.12" style="stroke: #000000; stroke-width: 0.6"/>
      </g>
     </g>
    </g>
    <g id="xtick_30">
     <g id="line2d_30">
      <g>
       <use xlink:href="#mfa327d4777" x="283.848101" y="314.12" style="stroke: #000000; stroke-width: 0.6"/>
      </g>
     </g>
    </g>
    <g id="xtick_31">
     <g id="line2d_31">
      <g>
       <use xlink:href="#mfa327d4777" x="302.292812" y="314.12" style="stroke: #000000; stroke-width: 0.6"/>
      </g>
     </g>
    </g>
    <g id="xtick_32">
     <g id="line2d_32">
      <g>
       <use xlink:href="#mfa327d4777" x="311.515168" y="314.12" style="stroke: #000000; stroke-width: 0.6"/>
      </g>
     </g>
    </g>
    <g id="xtick_33">
     <g id="line2d_33">
      <g>
       <use xlink:href="#mfa327d4777" x="320.737524" y="314.12" style="stroke: #000000; stroke-width: 0.6"/>
      </g>
     </g>
    </g>
   </g>
   <g id="matplotlib.axis_2">
    <g id="ytick_1">
     <g id="line2d_34">
      <defs>
       <path id="m1e0ff2dd79" d="M 0 0 
L -3.5 0 
" style="stroke: #000000; stroke-width: 0.8"/>
      </defs>
      <g>
       <use xlink:href="#m1e0ff2dd79" x="28.942188" y="308.217692" style="stroke: #000000; stroke-width: 0.8"/>
      </g>
     </g>
     <g id="text_10">
      <!-- −8 -->
      <g transform="translate(7.2 312.016911) scale(0.1 -0.1)">
       <use xlink:href="#DejaVuSans-2212"/>
       <use xlink:href="#DejaVuSans-38" x="83.789062"/>
      </g>
     </g>
    </g>
    <g id="ytick_2">
     <g id="line2d_35">
      <g>
       <use xlink:href="#m1e0ff2dd79" x="28.942188" y="271.328269" style="stroke: #000000; stroke-width: 0.8"/>
      </g>
     </g>
     <g id="text_11">
      <!-- −6 -->
      <g transform="translate(7.2 275.127488) scale(0.1 -0.1)">
       <use xlink:href="#DejaVuSans-2212"/>
       <use xlink:href="#DejaVuSans-36" x="83.789062"/>
      </g>
     </g>
    </g>
    <g id="ytick_3">
     <g id="line2d_36">
      <g>
       <use xlink:href="#m1e0ff2dd79" x="28.942188" y="234.438846" style="stroke: #000000; stroke-width: 0.8"/>
      </g>
     </g>
     <g id="text_12">
      <!-- −4 -->
      <g transform="translate(7.2 238.238065) scale(0.1 -0.1)">
       <use xlink:href="#DejaVuSans-2212"/>
       <use xlink:href="#DejaVuSans-34" x="83.789062"/>
      </g>
     </g>
    </g>
    <g id="ytick_4">
     <g id="line2d_37">
      <g>
       <use xlink:href="#m1e0ff2dd79" x="28.942188" y="197.549423" style="stroke: #000000; stroke-width: 0.8"/>
      </g>
     </g>
     <g id="text_13">
      <!-- −2 -->
      <g transform="translate(7.2 201.348642) scale(0.1 -0.1)">
       <use xlink:href="#DejaVuSans-2212"/>
       <use xlink:href="#DejaVuSans-32" x="83.789062"/>
      </g>
     </g>
    </g>
    <g id="ytick_5">
     <g id="line2d_38">
      <g>
       <use xlink:href="#m1e0ff2dd79" x="28.942188" y="160.66" style="stroke: #000000; stroke-width: 0.8"/>
      </g>
     </g>
     <g id="text_14">
      <!-- 0 -->
      <g transform="translate(15.579688 164.459219) scale(0.1 -0.1)">
       <use xlink:href="#DejaVuSans-30"/>
      </g>
     </g>
    </g>
    <g id="ytick_6">
     <g id="line2d_39">
      <g>
       <use xlink:href="#m1e0ff2dd79" x="28.942188" y="123.770577" style="stroke: #000000; stroke-width: 0.8"/>
      </g>
     </g>
     <g id="text_15">
      <!-- 2 -->
      <g transform="translate(15.579688 127.569796) scale(0.1 -0.1)">
       <use xlink:href="#DejaVuSans-32"/>
      </g>
     </g>
    </g>
    <g id="ytick_7">
     <g id="line2d_40">
      <g>
       <use xlink:href="#m1e0ff2dd79" x="28.942188" y="86.881154" style="stroke: #000000; stroke-width: 0.8"/>
      </g>
     </g>
     <g id="text_16">
      <!-- 4 -->
      <g transform="translate(15.579688 90.680373) scale(0.1 -0.1)">
       <use xlink:href="#DejaVuSans-34"/>
      </g>
     </g>
    </g>
    <g id="ytick_8">
     <g id="line2d_41">
      <g>
       <use xlink:href="#m1e0ff2dd79" x="28.942188" y="49.991731" style="stroke: #000000; stroke-width: 0.8"/>
      </g>
     </g>
     <g id="text_17">
      <!-- 6 -->
      <g transform="translate(15.579688 53.79095) scale(0.1 -0.1)">
       <use xlink:href="#DejaVuSans-36"/>
      </g>
     </g>
    </g>
    <g id="ytick_9">
     <g id="line2d_42">
      <g>
       <use xlink:href="#m1e0ff2dd79" x="28.942188" y="13.102308" style="stroke: #000000; stroke-width: 0.8"/>
      </g>
     </g>
     <g id="text_18">
      <!-- 8 -->
      <g transform="translate(15.579688 16.901526) scale(0.1 -0.1)">
       <use xlink:href="#DejaVuSans-38"/>
      </g>
     </g>
    </g>
    <g id="ytick_10">
     <g id="line2d_43">
      <defs>
       <path id="m76b1b053b0" d="M 0 0 
L -2 0 
" style="stroke: #000000; stroke-width: 0.6"/>
      </defs>
      <g>
       <use xlink:href="#m76b1b053b0" x="28.942188" y="298.995337" style="stroke: #000000; stroke-width: 0.6"/>
      </g>
     </g>
    </g>
    <g id="ytick_11">
     <g id="line2d_44">
      <g>
       <use xlink:href="#m76b1b053b0" x="28.942188" y="289.772981" style="stroke: #000000; stroke-width: 0.6"/>
      </g>
     </g>
    </g>
    <g id="ytick_12">
     <g id="line2d_45">
      <g>
       <use xlink:href="#m76b1b053b0" x="28.942188" y="280.550625" style="stroke: #000000; stroke-width: 0.6"/>
      </g>
     </g>
    </g>
    <g id="ytick_13">
     <g id="line2d_46">
      <g>
       <use xlink:href="#m76b1b053b0" x="28.942188" y="262.105913" style="stroke: #000000; stroke-width: 0.6"/>
      </g>
     </g>
    </g>
    <g id="ytick_14">
     <g id="line2d_47">
      <g>
       <use xlink:href="#m76b1b053b0" x="28.942188" y="252.883558" style="stroke: #000000; stroke-width: 0.6"/>
      </g>
     </g>
    </g>
    <g id="ytick_15">
     <g id="line2d_48">
      <g>
       <use xlink:href="#m76b1b053b0" x="28.942188" y="243.661202" style="stroke: #000000; stroke-width: 0.6"/>
      </g>
     </g>
    </g>
    <g id="ytick_16">
     <g id="line2d_49">
      <g>
       <use xlink:href="#m76b1b053b0" x="28.942188" y="225.21649" style="stroke: #000000; stroke-width: 0.6"/>
      </g>
     </g>
    </g>
    <g id="ytick_17">
     <g id="line2d_50">
      <g>
       <use xlink:href="#m76b1b053b0" x="28.942188" y="215.994135" style="stroke: #000000; stroke-width: 0.6"/>
      </g>
     </g>
    </g>
    <g id="ytick_18">
     <g id="line2d_51">
      <g>
       <use xlink:href="#m76b1b053b0" x="28.942188" y="206.771779" style="stroke: #000000; stroke-width: 0.6"/>
      </g>
     </g>
    </g>
    <g id="ytick_19">
     <g id="line2d_52">
      <g>
       <use xlink:href="#m76b1b053b0" x="28.942188" y="188.327067" style="stroke: #000000; stroke-width: 0.6"/>
      </g>
     </g>
    </g>
    <g id="ytick_20">
     <g id="line2d_53">
      <g>
       <use xlink:href="#m76b1b053b0" x="28.942188" y="179.104712" style="stroke: #000000; stroke-width: 0.6"/>
      </g>
     </g>
    </g>
    <g id="ytick_21">
     <g id="line2d_54">
      <g>
       <use xlink:href="#m76b1b053b0" x="28.942188" y="169.882356" style="stroke: #000000; stroke-width: 0.6"/>
      </g>
     </g>
    </g>
    <g id="ytick_22">
     <g id="line2d_55">
      <g>
       <use xlink:href="#m76b1b053b0" x="28.942188" y="151.437644" style="stroke: #000000; stroke-width: 0.6"/>
      </g>
     </g>
    </g>
    <g id="ytick_23">
     <g id="line2d_56">
      <g>
       <use xlink:href="#m76b1b053b0" x="28.942188" y="142.215288" style="stroke: #000000; stroke-width: 0.6"/>
      </g>
     </g>
    </g>
    <g id="ytick_24">
     <g id="line2d_57">
      <g>
       <use xlink:href="#m76b1b053b0" x="28.942188" y="132.992933" style="stroke: #000000; stroke-width: 0.6"/>
      </g>
     </g>
    </g>
    <g id="ytick_25">
     <g id="line2d_58">
      <g>
       <use xlink:href="#m76b1b053b0" x="28.942188" y="114.548221" style="stroke: #000000; stroke-width: 0.6"/>
      </g>
     </g>
    </g>
    <g id="ytick_26">
     <g id="line2d_59">
      <g>
       <use xlink:href="#m76b1b053b0" x="28.942188" y="105.325865" style="stroke: #000000; stroke-width: 0.6"/>
      </g>
     </g>
    </g>
    <g id="ytick_27">
     <g id="line2d_60">
      <g>
       <use xlink:href="#m76b1b053b0" x="28.942188" y="96.10351" style="stroke: #000000; stroke-width: 0.6"/>
      </g>
     </g>
    </g>
    <g id="ytick_28">
     <g id="line2d_61">
      <g>
       <use xlink:href="#m76b1b053b0" x="28.942188" y="77.658798" style="stroke: #000000; stroke-width: 0.6"/>
      </g>
     </g>
    </g>
    <g id="ytick_29">
     <g id="line2d_62">
      <g>
       <use xlink:href="#m76b1b053b0" x="28.942188" y="68.436442" style="stroke: #000000; stroke-width: 0.6"/>
      </g>
     </g>
    </g>
    <g id="ytick_30">
     <g id="line2d_63">
      <g>
       <use xlink:href="#m76b1b053b0" x="28.942188" y="59.214087" style="stroke: #000000; stroke-width: 0.6"/>
      </g>
     </g>
    </g>
    <g id="ytick_31">
     <g id="line2d_64">
      <g>
       <use xlink:href="#m76b1b053b0" x="28.942188" y="40.769375" style="stroke: #000000; stroke-width: 0.6"/>
      </g>
     </g>
    </g>
    <g id="ytick_32">
     <g id="line2d_65">
      <g>
       <use xlink:href="#m76b1b053b0" x="28.942188" y="31.547019" style="stroke: #000000; stroke-width: 0.6"/>
      </g>
     </g>
    </g>
    <g id="ytick_33">
     <g id="line2d_66">
      <g>
       <use xlink:href="#m76b1b053b0" x="28.942188" y="22.324663" style="stroke: #000000; stroke-width: 0.6"/>
      </g>
     </g>
    </g>
   </g>
   <g id="PathCollection_1"/>
   <g id="PathCollection_2">
    <path d="M 307.491478 308.217692 
L 309.093135 306.844843 
L 310.925637 305.236729 
L 312.074099 304.207899 
L 314.203699 302.255765 
L 315.055062 301.458744 
L 317.336069 299.274802 
L 318.036026 298.590061 
L 320.332249 296.293838 
L 321.016989 295.593881 
L 323.200932 293.312875 
L 323.997953 292.461511 
L 325.950086 290.331911 
L 326.978916 289.18345 
L 328.58703 287.350948 
L 329.95988 285.74929 
" clip-path="url(#pda184e710c)" style="fill: none; stroke: #ffd500; stroke-width: 1.5"/>
    <path d="M 34.844495 285.74929 
L 36.217345 287.350948 
L 37.825459 289.18345 
L 38.854289 290.331911 
L 40.806422 292.461511 
L 41.603443 293.312875 
L 43.787386 295.593881 
L 44.472126 296.293838 
L 46.768349 298.590061 
L 47.468306 299.274802 
L 49.749313 301.458744 
L 50.600676 302.255765 
L 52.730276 304.207899 
L 53.878738 305.236729 
L 55.71124 306.844843 
L 57.312897 308.217692 
" clip-path="url(#pda184e710c)" style="fill: none; stroke: #ffd500; stroke-width: 1.5"/>
    <path d="M 329.95988 35.57071 
L 328.58703 33.969052 
L 326.978916 32.13655 
L 325.950086 30.988089 
L 323.997953 28.858489 
L 323.200932 28.007125 
L 321.016989 25.726119 
L 320.332249 25.026162 
L 318.036026 22.729939 
L 317.336069 22.045198 
L 315.055062 19.861256 
L 314.203699 19.064235 
L 312.074099 17.112101 
L 310.925637 16.083271 
L 309.093135 14.475157 
L 307.491478 13.102308 
" clip-path="url(#pda184e710c)" style="fill: none; stroke: #ffd500; stroke-width: 1.5"/>
    <path d="M 57.312897 13.102308 
L 55.71124 14.475157 
L 53.878738 16.083271 
L 52.730276 17.112101 
L 50.600676 19.064235 
L 49.749313 19.861256 
L 47.468306 22.045198 
L 46.768349 22.729939 
L 44.472126 25.026162 
L 43.787386 25.726119 
L 41.603443 28.007125 
L 40.806422 28.858489 
L 38.854289 30.988089 
L 37.825459 32.13655 
L 36.217345 33.969052 
L 34.844495 35.57071 
" clip-path="url(#pda184e710c)" style="fill: none; stroke: #ffd500; stroke-width: 1.5"/>
   </g>
   <g id="PathCollection_3">
    <path d="M 276.449911 308.217692 
L 279.283501 306.367185 
L 280.962057 305.236729 
L 282.264464 304.341324 
L 285.208782 302.255765 
L 285.245428 302.229256 
L 288.226391 300.009389 
L 289.185436 299.274802 
L 291.207355 297.692431 
L 292.946145 296.293838 
L 294.188318 295.272496 
L 296.508922 293.312875 
L 297.169282 292.742565 
L 299.888993 290.331911 
L 300.150245 290.094962 
L 303.10006 287.350948 
L 303.131208 287.321282 
L 306.112172 284.411294 
L 306.153482 284.369984 
L 309.06347 281.389021 
L 309.093135 281.357872 
L 311.837149 278.408057 
L 312.074099 278.146805 
L 314.484752 275.427094 
L 315.055062 274.766735 
L 317.014684 272.446131 
L 318.036026 271.203958 
L 319.434618 269.465167 
L 321.016989 267.443248 
L 321.751577 266.484204 
L 323.971443 263.50324 
L 323.997953 263.466595 
L 326.083511 260.522277 
L 326.978916 259.219869 
L 328.109373 257.541313 
L 329.95988 254.707724 
" clip-path="url(#pda184e710c)" style="fill: none; stroke: #4fff00; stroke-width: 1.5"/>
    <path d="M 34.844495 254.707724 
L 36.695002 257.541313 
L 37.825459 259.219869 
L 38.720864 260.522277 
L 40.806422 263.466595 
L 40.832932 263.50324 
L 43.052798 266.484204 
L 43.787386 267.443248 
L 45.369757 269.465167 
L 46.768349 271.203958 
L 47.789691 272.446131 
L 49.749313 274.766735 
L 50.319623 275.427094 
L 52.730276 278.146805 
L 52.967226 278.408057 
L 55.71124 281.357872 
L 55.740905 281.389021 
L 58.650893 284.369984 
L 58.692203 284.411294 
L 61.673167 287.321282 
L 61.704315 287.350948 
L 64.65413 290.094962 
L 64.915382 290.331911 
L 67.635093 292.742565 
L 68.295453 293.312875 
L 70.616057 295.272496 
L 71.85823 296.293838 
L 73.59702 297.692431 
L 75.618939 299.274802 
L 76.577984 300.009389 
L 79.558947 302.229256 
L 79.595593 302.255765 
L 82.539911 304.341324 
L 83.842318 305.236729 
L 85.520874 306.367185 
L 88.354464 308.217692 
" clip-path="url(#pda184e710c)" style="fill: none; stroke: #4fff00; stroke-width: 1.5"/>
    <path d="M 329.95988 66.612276 
L 328.109373 63.778687 
L 326.978916 62.100131 
L 326.083511 60.797723 
L 323.997953 57.853405 
L 323.971443 57.81676 
L 321.751577 54.835796 
L 321.016989 53.876752 
L 319.434618 51.854833 
L 318.036026 50.116042 
L 317.014684 48.873869 
L 315.055062 46.553265 
L 314.484752 45.892906 
L 312.074099 43.173195 
L 311.837149 42.911943 
L 309.093135 39.962128 
L 309.06347 39.930979 
L 306.153482 36.950016 
L 306.112172 36.908706 
L 303.131208 33.998718 
L 303.10006 33.969052 
L 300.150245 31.225038 
L 299.888993 30.988089 
L 297.169282 28.577435 
L 296.508922 28.007125 
L 294.188318 26.047504 
L 292.946145 25.026162 
L 291.207355 23.627569 
L 289.185436 22.045198 
L 288.226391 21.310611 
L 285.245428 19.090744 
L 285.208782 19.064235 
L 282.264464 16.978676 
L 280.962057 16.083271 
L 279.283501 14.952815 
L 276.449911 13.102308 
" clip-path="url(#pda184e710c)" style="fill: none; stroke: #4fff00; stroke-width: 1.5"/>
    <path d="M 88.354464 13.102308 
L 85.520874 14.952815 
L 83.842318 16.083271 
L 82.539911 16.978676 
L 79.595593 19.064235 
L 79.558947 19.090744 
L 76.577984 21.310611 
L 75.618939 22.045198 
L 73.59702 23.627569 
L 71.85823 25.026162 
L 70.616057 26.047504 
L 68.295453 28.007125 
L 67.635093 28.577435 
L 64.915382 30.988089 
L 64.65413 31.225038 
L 61.704315 33.969052 
L 61.673167 33.998718 
L 58.692203 36.908706 
L 58.650893 36.950016 
L 55.740905 39.930979 
L 55.71124 39.962128 
L 52.967226 42.911943 
L 52.730276 43.173195 
L 50.319623 45.892906 
L 49.749313 46.553265 
L 47.789691 48.873869 
L 46.768349 50.116042 
L 45.369757 51.854833 
L 43.787386 53.876752 
L 43.052798 54.835796 
L 40.832932 57.81676 
L 40.806422 57.853405 
L 38.720864 60.797723 
L 37.825459 62.100131 
L 36.695002 63.778687 
L 34.844495 66.612276 
" clip-path="url(#pda184e710c)" style="fill: none; stroke: #4fff00; stroke-width: 1.5"/>
   </g>
   <g id="PathCollection_4">
    <path d="M 227.559903 308.217692 
L 228.607121 307.897115 
L 231.588085 306.923739 
L 234.569048 305.889528 
L 236.346111 305.236729 
L 237.550012 304.785266 
L 240.530975 303.605301 
L 243.511939 302.363233 
L 243.75758 302.255765 
L 246.492902 301.0336 
L 249.473866 299.638255 
L 250.216575 299.274802 
L 252.454829 298.155675 
L 255.435793 296.60039 
L 255.999847 296.293838 
L 258.416756 294.951111 
L 261.252165 293.312875 
L 261.39772 293.226865 
L 264.378683 291.397638 
L 266.053396 290.331911 
L 267.359647 289.481329 
L 270.34061 287.470912 
L 270.512559 287.350948 
L 273.321574 285.344509 
L 274.641897 284.369984 
L 276.302537 283.114379 
L 278.513152 281.389021 
L 279.283501 280.772742 
L 282.149785 278.408057 
L 282.264464 278.311021 
L 285.245428 275.712232 
L 285.563153 275.427094 
L 288.226391 272.974112 
L 288.783704 272.446131 
L 291.207355 270.087984 
L 291.830172 269.465167 
L 294.188318 267.041517 
L 294.716299 266.484204 
L 297.169282 263.820966 
L 297.45442 263.50324 
L 300.053208 260.522277 
L 300.150245 260.407597 
L 302.514929 257.541313 
L 303.131208 256.770964 
L 304.856566 254.56035 
L 306.112172 252.89971 
L 307.086696 251.579386 
L 309.093135 248.770371 
L 309.2131 248.598423 
L 311.223517 245.617459 
L 312.074099 244.311208 
L 313.139825 242.636496 
L 314.969053 239.655532 
L 315.055062 239.509977 
L 316.693298 236.674569 
L 318.036026 234.257659 
L 318.342577 233.693605 
L 319.897862 230.712642 
L 321.016989 228.474388 
L 321.380443 227.731678 
L 322.775788 224.750715 
L 323.997953 222.015393 
L 324.105421 221.769751 
L 325.347489 218.788788 
L 326.527454 215.807824 
L 326.978916 214.603924 
L 327.631715 212.826861 
L 328.665927 209.845897 
L 329.639303 206.864934 
L 329.95988 205.817715 
" clip-path="url(#pda184e710c)" style="fill: none; stroke: #00ff86; stroke-width: 1.5"/>
    <path d="M 34.844495 205.817715 
L 35.165072 206.864934 
L 36.138448 209.845897 
L 37.17266 212.826861 
L 37.825459 214.603924 
L 38.276921 215.807824 
L 39.456886 218.788788 
L 40.698954 221.769751 
L 40.806422 222.015393 
L 42.028587 224.750715 
L 43.423932 227.731678 
L 43.787386 228.474388 
L 44.906513 230.712642 
L 46.461798 233.693605 
L 46.768349 234.257659 
L 48.111077 236.674569 
L 49.749313 239.509977 
L 49.835322 239.655532 
L 51.66455 242.636496 
L 52.730276 244.311208 
L 53.580858 245.617459 
L 55.591275 248.598423 
L 55.71124 248.770371 
L 57.717679 251.579386 
L 58.692203 252.89971 
L 59.947809 254.56035 
L 61.673167 256.770964 
L 62.289446 257.541313 
L 64.65413 260.407597 
L 64.751167 260.522277 
L 67.349955 263.50324 
L 67.635093 263.820966 
L 70.088076 266.484204 
L 70.616057 267.041517 
L 72.974203 269.465167 
L 73.59702 270.087984 
L 76.020671 272.446131 
L 76.577984 272.974112 
L 79.241222 275.427094 
L 79.558947 275.712232 
L 82.539911 278.311021 
L 82.65459 278.408057 
L 85.520874 280.772742 
L 86.291223 281.389021 
L 88.501838 283.114379 
L 90.162478 284.369984 
L 91.482801 285.344509 
L 94.291816 287.350948 
L 94.463765 287.470912 
L 97.444728 289.481329 
L 98.750979 290.331911 
L 100.425692 291.397638 
L 103.406655 293.226865 
L 103.55221 293.312875 
L 106.387619 294.951111 
L 108.804528 296.293838 
L 109.368582 296.60039 
L 112.349546 298.155675 
L 114.5878 299.274802 
L 115.330509 299.638255 
L 118.311473 301.0336 
L 121.046795 302.255765 
L 121.292436 302.363233 
L 124.2734 303.605301 
L 127.254363 304.785266 
L 128.458264 305.236729 
L 130.235327 305.889528 
L 133.21629 306.923739 
L 136.197254 307.897115 
L 137.244472 308.217692 
" clip-path="url(#pda184e710c)" style="fill: none; stroke: #00ff86; stroke-width: 1.5"/>
    <path d="M 329.95988 115.502285 
L 329.639303 114.455066 
L 328.665927 111.474103 
L 327.631715 108.493139 
L 326.978916 106.716076 
L 326.527454 105.512176 
L 325.347489 102.531212 
L 324.105421 99.550249 
L 323.997953 99.304607 
L 322.775788 96.569285 
L 321.380443 93.588322 
L 321.016989 92.845612 
L 319.897862 90.607358 
L 318.342577 87.626395 
L 318.036026 87.062341 
L 316.693298 84.645431 
L 315.055062 81.810023 
L 314.969053 81.664468 
L 313.139825 78.683504 
L 312.074099 77.008792 
L 311.223517 75.702541 
L 309.2131 72.721577 
L 309.093135 72.549629 
L 307.086696 69.740614 
L 306.112172 68.42029 
L 304.856566 66.75965 
L 303.131208 64.549036 
L 302.514929 63.778687 
L 300.150245 60.912403 
L 300.053208 60.797723 
L 297.45442 57.81676 
L 297.169282 57.499034 
L 294.716299 54.835796 
L 294.188318 54.278483 
L 291.830172 51.854833 
L 291.207355 51.232016 
L 288.783704 48.873869 
L 288.226391 48.345888 
L 285.563153 45.892906 
L 285.245428 45.607768 
L 282.264464 43.008979 
L 282.149785 42.911943 
L 279.283501 40.547258 
L 278.513152 39.930979 
L 276.302537 38.205621 
L 274.641897 36.950016 
L 273.321574 35.975491 
L 270.512559 33.969052 
L 270.34061 33.849088 
L 267.359647 31.838671 
L 266.053396 30.988089 
L 264.378683 29.922362 
L 261.39772 28.093135 
L 261.252165 28.007125 
L 258.416756 26.368889 
L 255.999847 25.026162 
L 255.435793 24.71961 
L 252.454829 23.164325 
L 250.216575 22.045198 
L 249.473866 21.681745 
L 246.492902 20.2864 
L 243.75758 19.064235 
L 243.511939 18.956767 
L 240.530975 17.714699 
L 237.550012 16.534734 
L 236.346111 16.083271 
L 234.569048 15.430472 
L 231.588085 14.396261 
L 228.607121 13.422885 
L 227.559903 13.102308 
" clip-path="url(#pda184e710c)" style="fill: none; stroke: #00ff86; stroke-width: 1.5"/>
    <path d="M 137.244472 13.102308 
L 136.197254 13.422885 
L 133.21629 14.396261 
L 130.235327 15.430472 
L 128.458264 16.083271 
L 127.254363 16.534734 
L 124.2734 17.714699 
L 121.292436 18.956767 
L 121.046795 19.064235 
L 118.311473 20.2864 
L 115.330509 21.681745 
L 114.5878 22.045198 
L 112.349546 23.164325 
L 109.368582 24.71961 
L 108.804528 25.026162 
L 106.387619 26.368889 
L 103.55221 28.007125 
L 103.406655 28.093135 
L 100.425692 29.922362 
L 98.750979 30.988089 
L 97.444728 31.838671 
L 94.463765 33.849088 
L 94.291816 33.969052 
L 91.482801 35.975491 
L 90.162478 36.950016 
L 88.501838 38.205621 
L 86.291223 39.930979 
L 85.520874 40.547258 
L 82.65459 42.911943 
L 82.539911 43.008979 
L 79.558947 45.607768 
L 79.241222 45.892906 
L 76.577984 48.345888 
L 76.020671 48.873869 
L 73.59702 51.232016 
L 72.974203 51.854833 
L 70.616057 54.278483 
L 70.088076 54.835796 
L 67.635093 57.499034 
L 67.349955 57.81676 
L 64.751167 60.797723 
L 64.65413 60.912403 
L 62.289446 63.778687 
L 61.673167 64.549036 
L 59.947809 66.75965 
L 58.692203 68.42029 
L 57.717679 69.740614 
L 55.71124 72.549629 
L 55.591275 72.721577 
L 53.580858 75.702541 
L 52.730276 77.008792 
L 51.66455 78.683504 
L 49.835322 81.664468 
L 49.749313 81.810023 
L 48.111077 84.645431 
L 46.768349 87.062341 
L 46.461798 87.626395 
L 44.906513 90.607358 
L 43.787386 92.845612 
L 43.423932 93.588322 
L 42.028587 96.569285 
L 40.806422 99.304607 
L 40.698954 99.550249 
L 39.456886 102.531212 
L 38.276921 105.512176 
L 37.825459 106.716076 
L 37.17266 108.493139 
L 36.138448 111.474103 
L 35.165072 114.455066 
L 34.844495 115.502285 
" clip-path="url(#pda184e710c)" style="fill: none; stroke: #00ff86; stroke-width: 1.5"/>
   </g>
   <g id="PathCollection_5">
    <path d="M 168.987852 290.391457 
L 171.968815 290.662453 
L 174.949779 290.865701 
L 177.930742 291.001199 
L 180.911706 291.068948 
L 183.892669 291.068948 
L 186.873633 291.001199 
L 189.854596 290.865701 
L 192.83556 290.662453 
L 195.816523 290.391457 
L 196.340521 290.331911 
L 198.797487 290.046218 
L 201.77845 289.630269 
L 204.759414 289.144996 
L 207.740377 288.590398 
L 210.721341 287.966476 
L 213.36811 287.350948 
L 213.702304 287.271378 
L 216.683268 286.490649 
L 219.664231 285.638946 
L 222.645194 284.716266 
L 223.68404 284.369984 
L 225.626158 283.706822 
L 228.607121 282.616226 
L 231.588085 281.452923 
L 231.742202 281.389021 
L 234.569048 280.187611 
L 237.550012 278.846178 
L 238.47237 278.408057 
L 240.530975 277.405147 
L 243.511939 275.876448 
L 244.346453 275.427094 
L 246.492902 274.240899 
L 249.473866 272.515078 
L 249.587778 272.446131 
L 252.454829 270.66391 
L 254.302891 269.465167 
L 255.435793 268.709899 
L 258.416756 266.639786 
L 258.632177 266.484204 
L 261.39772 264.429801 
L 262.598817 263.50324 
L 264.378683 262.089817 
L 266.282125 260.522277 
L 267.359647 259.608016 
L 269.711412 257.541313 
L 270.34061 256.971102 
L 272.912079 254.56035 
L 273.321574 254.164065 
L 275.906252 251.579386 
L 276.302537 251.169892 
L 278.713289 248.598423 
L 279.283501 247.969224 
L 281.350203 245.617459 
L 282.264464 244.539937 
L 283.832004 242.636496 
L 285.245428 240.856629 
L 286.171988 239.655532 
L 288.226391 236.88999 
L 288.381973 236.674569 
L 290.452087 233.693605 
L 291.207355 232.560703 
L 292.406097 230.712642 
L 294.188318 227.845591 
L 294.257265 227.731678 
L 295.983086 224.750715 
L 297.169282 222.604266 
L 297.618635 221.769751 
L 299.147335 218.788788 
L 300.150245 216.730183 
L 300.588365 215.807824 
L 301.929799 212.826861 
L 303.131208 210.000014 
L 303.195111 209.845897 
L 304.358413 206.864934 
L 305.44901 203.88397 
L 306.112172 201.941853 
L 306.458454 200.903007 
L 307.381133 197.922044 
L 308.232837 194.94108 
L 309.013565 191.960117 
L 309.093135 191.625923 
L 309.708663 188.979153 
L 310.332586 185.99819 
L 310.887184 183.017226 
L 311.372457 180.036263 
L 311.788405 177.055299 
L 312.074099 174.598333 
L 312.133644 174.074336 
L 312.404641 171.093372 
L 312.607888 168.112409 
L 312.743387 165.131445 
L 312.811136 162.150482 
L 312.811136 159.169518 
L 312.743387 156.188555 
L 312.607888 153.207591 
L 312.404641 150.226628 
L 312.133644 147.245664 
L 312.074099 146.721667 
L 311.788405 144.264701 
L 311.372457 141.283737 
L 310.887184 138.302774 
L 310.332586 135.32181 
L 309.708663 132.340847 
L 309.093135 129.694077 
L 309.013565 129.359883 
L 308.232837 126.37892 
L 307.381133 123.397956 
L 306.458454 120.416993 
L 306.112172 119.378147 
L 305.44901 117.43603 
L 304.358413 114.455066 
L 303.195111 111.474103 
L 303.131208 111.319986 
L 301.929799 108.493139 
L 300.588365 105.512176 
L 300.150245 104.589817 
L 299.147335 102.531212 
L 297.618635 99.550249 
L 297.169282 98.715734 
L 295.983086 96.569285 
L 294.257265 93.588322 
L 294.188318 93.474409 
L 292.406097 90.607358 
L 291.207355 88.759297 
L 290.452087 87.626395 
L 288.381973 84.645431 
L 288.226391 84.43001 
L 286.171988 81.664468 
L 285.245428 80.463371 
L 283.832004 78.683504 
L 282.264464 76.780063 
L 281.350203 75.702541 
L 279.283501 73.350776 
L 278.713289 72.721577 
L 276.302537 70.150108 
L 275.906252 69.740614 
L 273.321574 67.155935 
L 272.912079 66.75965 
L 270.34061 64.348898 
L 269.711412 63.778687 
L 267.359647 61.711984 
L 266.282125 60.797723 
L 264.378683 59.230183 
L 262.598817 57.81676 
L 261.39772 56.890199 
L 258.632177 54.835796 
L 258.416756 54.680214 
L 255.435793 52.610101 
L 254.302891 51.854833 
L 252.454829 50.65609 
L 249.587778 48.873869 
L 249.473866 48.804922 
L 246.492902 47.079101 
L 244.346453 45.892906 
L 243.511939 45.443552 
L 240.530975 43.914853 
L 238.47237 42.911943 
L 237.550012 42.473822 
L 234.569048 41.132389 
L 231.742202 39.930979 
L 231.588085 39.867077 
L 228.607121 38.703774 
L 225.626158 37.613178 
L 223.68404 36.950016 
L 222.645194 36.603734 
L 219.664231 35.681054 
L 216.683268 34.829351 
L 213.702304 34.048622 
L 213.36811 33.969052 
L 210.721341 33.353524 
L 207.740377 32.729602 
L 204.759414 32.175004 
L 201.77845 31.689731 
L 198.797487 31.273782 
L 196.340521 30.988089 
L 195.816523 30.928543 
L 192.83556 30.657547 
L 189.854596 30.454299 
L 186.873633 30.318801 
L 183.892669 30.251052 
L 180.911706 30.251052 
L 177.930742 30.318801 
L 174.949779 30.454299 
L 171.968815 30.657547 
L 168.987852 30.928543 
L 168.463854 30.988089 
L 166.006888 31.273782 
L 163.025925 31.689731 
L 160.044961 32.175004 
L 157.063998 32.729602 
L 154.083034 33.353524 
L 151.436265 33.969052 
L 151.102071 34.048622 
L 148.121107 34.829351 
L 145.140144 35.681054 
L 142.159181 36.603734 
L 141.120335 36.950016 
L 139.178217 37.613178 
L 136.197254 38.703774 
L 133.21629 39.867077 
L 133.062173 39.930979 
L 130.235327 41.132389 
L 127.254363 42.473822 
L 126.332005 42.911943 
L 124.2734 43.914853 
L 121.292436 45.443552 
L 120.457922 45.892906 
L 118.311473 47.079101 
L 115.330509 48.804922 
L 115.216597 48.873869 
L 112.349546 50.65609 
L 110.501484 51.854833 
L 109.368582 52.610101 
L 106.387619 54.680214 
L 106.172198 54.835796 
L 103.406655 56.890199 
L 102.205558 57.81676 
L 100.425692 59.230183 
L 98.52225 60.797723 
L 97.444728 61.711984 
L 95.092963 63.778687 
L 94.463765 64.348898 
L 91.892296 66.75965 
L 91.482801 67.155935 
L 88.898123 69.740614 
L 88.501838 70.150108 
L 86.091086 72.721577 
L 85.520874 73.350776 
L 83.454172 75.702541 
L 82.539911 76.780063 
L 80.972371 78.683504 
L 79.558947 80.463371 
L 78.632387 81.664468 
L 76.577984 84.43001 
L 76.422402 84.645431 
L 74.352288 87.626395 
L 73.59702 88.759297 
L 72.398278 90.607358 
L 70.616057 93.474409 
L 70.54711 93.588322 
L 68.821289 96.569285 
L 67.635093 98.715734 
L 67.18574 99.550249 
L 65.65704 102.531212 
L 64.65413 104.589817 
L 64.21601 105.512176 
L 62.874576 108.493139 
L 61.673167 111.319986 
L 61.609264 111.474103 
L 60.445962 114.455066 
L 59.355365 117.43603 
L 58.692203 119.378147 
L 58.345921 120.416993 
L 57.423242 123.397956 
L 56.571538 126.37892 
L 55.79081 129.359883 
L 55.71124 129.694077 
L 55.095712 132.340847 
L 54.471789 135.32181 
L 53.917191 138.302774 
L 53.431918 141.283737 
L 53.01597 144.264701 
L 52.730276 146.721667 
L 52.670731 147.245664 
L 52.399734 150.226628 
L 52.196487 153.207591 
L 52.060988 156.188555 
L 51.993239 159.169518 
L 51.993239 162.150482 
L 52.060988 165.131445 
L 52.196487 168.112409 
L 52.399734 171.093372 
L 52.670731 174.074336 
L 52.730276 174.598333 
L 53.01597 177.055299 
L 53.431918 180.036263 
L 53.917191 183.017226 
L 54.471789 185.99819 
L 55.095712 188.979153 
L 55.71124 191.625923 
L 55.79081 191.960117 
L 56.571538 194.94108 
L 57.423242 197.922044 
L 58.345921 200.903007 
L 58.692203 201.941853 
L 59.355365 203.88397 
L 60.445962 206.864934 
L 61.609264 209.845897 
L 61.673167 210.000014 
L 62.874576 212.826861 
L 64.21601 215.807824 
L 64.65413 216.730183 
L 65.65704 218.788788 
L 67.18574 221.769751 
L 67.635093 222.604266 
L 68.821289 224.750715 
L 70.54711 227.731678 
L 70.616057 227.845591 
L 72.398278 230.712642 
L 73.59702 232.560703 
L 74.352288 233.693605 
L 76.422402 236.674569 
L 76.577984 236.88999 
L 78.632387 239.655532 
L 79.558947 240.856629 
L 80.972371 242.636496 
L 82.539911 244.539937 
L 83.454172 245.617459 
L 85.520874 247.969224 
L 86.091086 248.598423 
L 88.501838 251.169892 
L 88.898123 251.579386 
L 91.482801 254.164065 
L 91.892296 254.56035 
L 94.463765 256.971102 
L 95.092963 257.541313 
L 97.444728 259.608016 
L 98.52225 260.522277 
L 100.425692 262.089817 
L 102.205558 263.50324 
L 103.406655 264.429801 
L 106.172198 266.484204 
L 106.387619 266.639786 
L 109.368582 268.709899 
L 110.501484 269.465167 
L 112.349546 270.66391 
L 115.216597 272.446131 
L 115.330509 272.515078 
L 118.311473 274.240899 
L 120.457922 275.427094 
L 121.292436 275.876448 
L 124.2734 277.405147 
L 126.332005 278.408057 
L 127.254363 278.846178 
L 130.235327 280.187611 
L 133.062173 281.389021 
L 133.21629 281.452923 
L 136.197254 282.616226 
L 139.178217 283.706822 
L 141.120335 284.369984 
L 142.159181 284.716266 
L 145.140144 285.638946 
L 148.121107 286.490649 
L 151.102071 287.271378 
L 151.436265 287.350948 
L 154.083034 287.966476 
L 157.063998 288.590398 
L 160.044961 289.144996 
L 163.025925 289.630269 
L 166.006888 290.046218 
L 168.463854 290.331911 
L 168.987852 290.391457 
z
" clip-path="url(#pda184e710c)" style="fill: none; stroke: #009eff; stroke-width: 1.5"/>
   </g>
   <g id="PathCollection_6">
    <path d="M 168.987852 260.7877 
L 171.968815 261.138402 
L 174.949779 261.401428 
L 177.930742 261.576779 
L 180.911706 261.664454 
L 183.892669 261.664454 
L 186.873633 261.576779 
L 189.854596 261.401428 
L 192.83556 261.138402 
L 195.816523 260.7877 
L 197.621403 260.522277 
L 198.797487 260.344082 
L 201.77845 259.802089 
L 204.759414 259.169763 
L 207.740377 258.447105 
L 210.721341 257.634115 
L 211.027588 257.541313 
L 213.702304 256.705464 
L 216.683268 255.680758 
L 219.664231 254.562897 
L 219.670501 254.56035 
L 222.645194 253.312898 
L 225.626158 251.966656 
L 226.426516 251.579386 
L 228.607121 250.489083 
L 231.588085 248.899236 
L 232.118932 248.598423 
L 234.569048 247.162148 
L 237.057713 245.617459 
L 237.550012 245.300981 
L 240.530975 243.278185 
L 241.42934 242.636496 
L 243.511939 241.09383 
L 245.361179 239.655532 
L 246.492902 238.741448 
L 248.935577 236.674569 
L 249.473866 236.200875 
L 252.199159 233.693605 
L 252.454829 233.448588 
L 255.190775 230.712642 
L 255.435793 230.456972 
L 257.943063 227.731678 
L 258.416756 227.19339 
L 260.483635 224.750715 
L 261.39772 223.618991 
L 262.836017 221.769751 
L 264.378683 219.687152 
L 265.020372 218.788788 
L 267.043169 215.807824 
L 267.359647 215.315526 
L 268.904335 212.826861 
L 270.34061 210.376745 
L 270.641424 209.845897 
L 272.231271 206.864934 
L 273.321574 204.684328 
L 273.708843 203.88397 
L 275.055085 200.903007 
L 276.302537 197.928314 
L 276.305084 197.922044 
L 277.422946 194.94108 
L 278.447652 191.960117 
L 279.283501 189.2854 
L 279.376303 188.979153 
L 280.189293 185.99819 
L 280.911951 183.017226 
L 281.544276 180.036263 
L 282.08627 177.055299 
L 282.264464 175.879216 
L 282.529888 174.074336 
L 282.880589 171.093372 
L 283.143615 168.112409 
L 283.318966 165.131445 
L 283.406642 162.150482 
L 283.406642 159.169518 
L 283.318966 156.188555 
L 283.143615 153.207591 
L 282.880589 150.226628 
L 282.529888 147.245664 
L 282.264464 145.440784 
L 282.08627 144.264701 
L 281.544276 141.283737 
L 280.911951 138.302774 
L 280.189293 135.32181 
L 279.376303 132.340847 
L 279.283501 132.0346 
L 278.447652 129.359883 
L 277.422946 126.37892 
L 276.305084 123.397956 
L 276.302537 123.391686 
L 275.055085 120.416993 
L 273.708843 117.43603 
L 273.321574 116.635672 
L 272.231271 114.455066 
L 270.641424 111.474103 
L 270.34061 110.943255 
L 268.904335 108.493139 
L 267.359647 106.004474 
L 267.043169 105.512176 
L 265.020372 102.531212 
L 264.378683 101.632848 
L 262.836017 99.550249 
L 261.39772 97.701009 
L 260.483635 96.569285 
L 258.416756 94.12661 
L 257.943063 93.588322 
L 255.435793 90.863028 
L 255.190775 90.607358 
L 252.454829 87.871412 
L 252.199159 87.626395 
L 249.473866 85.119125 
L 248.935577 84.645431 
L 246.492902 82.578552 
L 245.361179 81.664468 
L 243.511939 80.22617 
L 241.42934 78.683504 
L 240.530975 78.041815 
L 237.550012 76.019019 
L 237.057713 75.702541 
L 234.569048 74.157852 
L 232.118932 72.721577 
L 231.588085 72.420764 
L 228.607121 70.830917 
L 226.426516 69.740614 
L 225.626158 69.353344 
L 222.645194 68.007102 
L 219.670501 66.75965 
L 219.664231 66.757103 
L 216.683268 65.639242 
L 213.702304 64.614536 
L 211.027588 63.778687 
L 210.721341 63.685885 
L 207.740377 62.872895 
L 204.759414 62.150237 
L 201.77845 61.517911 
L 198.797487 60.975918 
L 197.621403 60.797723 
L 195.816523 60.5323 
L 192.83556 60.181598 
L 189.854596 59.918572 
L 186.873633 59.743221 
L 183.892669 59.655546 
L 180.911706 59.655546 
L 177.930742 59.743221 
L 174.949779 59.918572 
L 171.968815 60.181598 
L 168.987852 60.5323 
L 167.182972 60.797723 
L 166.006888 60.975918 
L 163.025925 61.517911 
L 160.044961 62.150237 
L 157.063998 62.872895 
L 154.083034 63.685885 
L 153.776787 63.778687 
L 151.102071 64.614536 
L 148.121107 65.639242 
L 145.140144 66.757103 
L 145.133874 66.75965 
L 142.159181 68.007102 
L 139.178217 69.353344 
L 138.377859 69.740614 
L 136.197254 70.830917 
L 133.21629 72.420764 
L 132.685443 72.721577 
L 130.235327 74.157852 
L 127.746662 75.702541 
L 127.254363 76.019019 
L 124.2734 78.041815 
L 123.375035 78.683504 
L 121.292436 80.22617 
L 119.443196 81.664468 
L 118.311473 82.578552 
L 115.868798 84.645431 
L 115.330509 85.119125 
L 112.605216 87.626395 
L 112.349546 87.871412 
L 109.6136 90.607358 
L 109.368582 90.863028 
L 106.861312 93.588322 
L 106.387619 94.12661 
L 104.32074 96.569285 
L 103.406655 97.701009 
L 101.968358 99.550249 
L 100.425692 101.632848 
L 99.784003 102.531212 
L 97.761206 105.512176 
L 97.444728 106.004474 
L 95.90004 108.493139 
L 94.463765 110.943255 
L 94.162951 111.474103 
L 92.573104 114.455066 
L 91.482801 116.635672 
L 91.095532 117.43603 
L 89.74929 120.416993 
L 88.501838 123.391686 
L 88.499291 123.397956 
L 87.381429 126.37892 
L 86.356723 129.359883 
L 85.520874 132.0346 
L 85.428072 132.340847 
L 84.615082 135.32181 
L 83.892424 138.302774 
L 83.260099 141.283737 
L 82.718105 144.264701 
L 82.539911 145.440784 
L 82.274487 147.245664 
L 81.923786 150.226628 
L 81.66076 153.207591 
L 81.485409 156.188555 
L 81.397733 159.169518 
L 81.397733 162.150482 
L 81.485409 165.131445 
L 81.66076 168.112409 
L 81.923786 171.093372 
L 82.274487 174.074336 
L 82.539911 175.879216 
L 82.718105 177.055299 
L 83.260099 180.036263 
L 83.892424 183.017226 
L 84.615082 185.99819 
L 85.428072 188.979153 
L 85.520874 189.2854 
L 86.356723 191.960117 
L 87.381429 194.94108 
L 88.499291 197.922044 
L 88.501838 197.928314 
L 89.74929 200.903007 
L 91.095532 203.88397 
L 91.482801 204.684328 
L 92.573104 206.864934 
L 94.162951 209.845897 
L 94.463765 210.376745 
L 95.90004 212.826861 
L 97.444728 215.315526 
L 97.761206 215.807824 
L 99.784003 218.788788 
L 100.425692 219.687152 
L 101.968358 221.769751 
L 103.406655 223.618991 
L 104.32074 224.750715 
L 106.387619 227.19339 
L 106.861312 227.731678 
L 109.368582 230.456972 
L 109.6136 230.712642 
L 112.349546 233.448588 
L 112.605216 233.693605 
L 115.330509 236.200875 
L 115.868798 236.674569 
L 118.311473 238.741448 
L 119.443196 239.655532 
L 121.292436 241.09383 
L 123.375035 242.636496 
L 124.2734 243.278185 
L 127.254363 245.300981 
L 127.746662 245.617459 
L 130.235327 247.162148 
L 132.685443 248.598423 
L 133.21629 248.899236 
L 136.197254 250.489083 
L 138.377859 251.579386 
L 139.178217 251.966656 
L 142.159181 253.312898 
L 145.133874 254.56035 
L 145.140144 254.562897 
L 148.121107 255.680758 
L 151.102071 256.705464 
L 153.776787 257.541313 
L 154.083034 257.634115 
L 157.063998 258.447105 
L 160.044961 259.169763 
L 163.025925 259.802089 
L 166.006888 260.344082 
L 167.182972 260.522277 
L 168.987852 260.7877 
z
" clip-path="url(#pda184e710c)" style="fill: none; stroke: #3700ff; stroke-width: 1.5"/>
   </g>
   <g id="PathCollection_7">
    <path d="M 177.930742 218.814988 
L 180.911706 218.964036 
L 183.892669 218.964036 
L 186.873633 218.814988 
L 187.135631 218.788788 
L 189.854596 218.502581 
L 192.83556 218.031903 
L 195.816523 217.404331 
L 198.797487 216.619867 
L 201.368956 215.807824 
L 201.77845 215.671326 
L 204.759414 214.512063 
L 207.740377 213.18719 
L 208.461035 212.826861 
L 210.721341 211.630229 
L 213.702304 209.876721 
L 213.74994 209.845897 
L 216.683268 207.829235 
L 217.969002 206.864934 
L 219.664231 205.508751 
L 221.538978 203.88397 
L 222.645194 202.856769 
L 224.598957 200.903007 
L 225.626158 199.79679 
L 227.250938 197.922044 
L 228.607121 196.226815 
L 229.571422 194.94108 
L 231.588085 192.007753 
L 231.618908 191.960117 
L 233.372416 188.979153 
L 234.569048 186.718848 
L 234.929378 185.99819 
L 236.25425 183.017226 
L 237.413514 180.036263 
L 237.550012 179.626768 
L 238.362055 177.055299 
L 239.146519 174.074336 
L 239.77409 171.093372 
L 240.244769 168.112409 
L 240.530975 165.393444 
L 240.557175 165.131445 
L 240.706223 162.150482 
L 240.706223 159.169518 
L 240.557175 156.188555 
L 240.530975 155.926556 
L 240.244769 153.207591 
L 239.77409 150.226628 
L 239.146519 147.245664 
L 238.362055 144.264701 
L 237.550012 141.693232 
L 237.413514 141.283737 
L 236.25425 138.302774 
L 234.929378 135.32181 
L 234.569048 134.601152 
L 233.372416 132.340847 
L 231.618908 129.359883 
L 231.588085 129.312247 
L 229.571422 126.37892 
L 228.607121 125.093185 
L 227.250938 123.397956 
L 225.626158 121.52321 
L 224.598957 120.416993 
L 222.645194 118.463231 
L 221.538978 117.43603 
L 219.664231 115.811249 
L 217.969002 114.455066 
L 216.683268 113.490765 
L 213.74994 111.474103 
L 213.702304 111.443279 
L 210.721341 109.689771 
L 208.461035 108.493139 
L 207.740377 108.13281 
L 204.759414 106.807937 
L 201.77845 105.648674 
L 201.368956 105.512176 
L 198.797487 104.700133 
L 195.816523 103.915669 
L 192.83556 103.288097 
L 189.854596 102.817419 
L 187.135631 102.531212 
L 186.873633 102.505012 
L 183.892669 102.355964 
L 180.911706 102.355964 
L 177.930742 102.505012 
L 177.668744 102.531212 
L 174.949779 102.817419 
L 171.968815 103.288097 
L 168.987852 103.915669 
L 166.006888 104.700133 
L 163.435419 105.512176 
L 163.025925 105.648674 
L 160.044961 106.807937 
L 157.063998 108.13281 
L 156.34334 108.493139 
L 154.083034 109.689771 
L 151.102071 111.443279 
L 151.054435 111.474103 
L 148.121107 113.490765 
L 146.835373 114.455066 
L 145.140144 115.811249 
L 143.265397 117.43603 
L 142.159181 118.463231 
L 140.205418 120.416993 
L 139.178217 121.52321 
L 137.553437 123.397956 
L 136.197254 125.093185 
L 135.232953 126.37892 
L 133.21629 129.312247 
L 133.185467 129.359883 
L 131.431959 132.340847 
L 130.235327 134.601152 
L 129.874997 135.32181 
L 128.550125 138.302774 
L 127.390861 141.283737 
L 127.254363 141.693232 
L 126.44232 144.264701 
L 125.657856 147.245664 
L 125.030285 150.226628 
L 124.559606 153.207591 
L 124.2734 155.926556 
L 124.2472 156.188555 
L 124.098152 159.169518 
L 124.098152 162.150482 
L 124.2472 165.131445 
L 124.2734 165.393444 
L 124.559606 168.112409 
L 125.030285 171.093372 
L 125.657856 174.074336 
L 126.44232 177.055299 
L 127.254363 179.626768 
L 127.390861 180.036263 
L 128.550125 183.017226 
L 129.874997 185.99819 
L 130.235327 186.718848 
L 131.431959 188.979153 
L 133.185467 191.960117 
L 133.21629 192.007753 
L 135.232953 194.94108 
L 136.197254 196.226815 
L 137.553437 197.922044 
L 139.178217 199.79679 
L 140.205418 200.903007 
L 142.159181 202.856769 
L 143.265397 203.88397 
L 145.140144 205.508751 
L 146.835373 206.864934 
L 148.121107 207.829235 
L 151.054435 209.845897 
L 151.102071 209.876721 
L 154.083034 211.630229 
L 156.34334 212.826861 
L 157.063998 213.18719 
L 160.044961 214.512063 
L 163.025925 215.671326 
L 163.435419 215.807824 
L 166.006888 216.619867 
L 168.987852 217.404331 
L 171.968815 218.031903 
L 174.949779 218.502581 
L 177.668744 218.788788 
L 177.930742 218.814988 
z
" clip-path="url(#pda184e710c)" style="fill: none; stroke: #ff00ed; stroke-width: 1.5"/>
   </g>
   <g id="PathCollection_8"/>
   <g id="patch_3">
    <path d="M 28.942188 314.12 
L 28.942188 7.2 
" style="fill: none; stroke: #000000; stroke-width: 0.8; stroke-linejoin: miter; stroke-linecap: square"/>
   </g>
   <g id="patch_4">
    <path d="M 335.862187 314.12 
L 335.862187 7.2 
" style="fill: none; stroke: #000000; stroke-width: 0.8; stroke-linejoin: miter; stroke-linecap: square"/>
   </g>
   <g id="patch_5">
    <path d="M 28.942188 314.12 
L 335.862187 314.12 
" style="fill: none; stroke: #000000; stroke-width: 0.8; stroke-linejoin: miter; stroke-linecap: square"/>
   </g>
   <g id="patch_6">
    <path d="M 28.942188 7.2 
L 335.862187 7.2 
" style="fill: none; stroke: #000000; stroke-width: 0.8; stroke-linejoin: miter; stroke-linecap: square"/>
   </g>
   <g id="text_19">
    <g clip-path="url(#pda184e710c)">
     <!-- -80.00 -->
     <g style="fill: #0000ff" transform="translate(296.017046 295.039996) rotate(-36.754232) scale(0.09 -0.09)">
      <defs>
       <path id="DejaVuSans-2d" d="M 313 2009 
L 1997 2009 
L 1997 1497 
L 313 1497 
L 313 2009 
z
" transform="scale(0.015625)"/>
       <path id="DejaVuSans-2e" d="M 684 794 
L 1344 794 
L 1344 0 
L 684 0 
L 684 794 
z
" transform="scale(0.015625)"/>
      </defs>
      <use xlink:href="#DejaVuSans-2d"/>
      <use xlink:href="#DejaVuSans-38" x="36.083984"/>
      <use xlink:href="#DejaVuSans-30" x="99.707031"/>
      <use xlink:href="#DejaVuSans-2e" x="163.330078"/>
      <use xlink:href="#DejaVuSans-30" x="195.117188"/>
      <use xlink:href="#DejaVuSans-30" x="258.740234"/>
     </g>
    </g>
   </g>
   <g id="text_20">
    <g clip-path="url(#pda184e710c)">
     <!-- -80.00 -->
     <g style="fill: #0000ff" transform="translate(45.581363 277.725313) rotate(-323.265532) scale(0.09 -0.09)">
      <use xlink:href="#DejaVuSans-2d"/>
      <use xlink:href="#DejaVuSans-38" x="36.083984"/>
      <use xlink:href="#DejaVuSans-30" x="99.707031"/>
      <use xlink:href="#DejaVuSans-2e" x="163.330078"/>
      <use xlink:href="#DejaVuSans-30" x="195.117188"/>
      <use xlink:href="#DejaVuSans-30" x="258.740234"/>
     </g>
    </g>
   </g>
   <g id="text_21">
    <g clip-path="url(#pda184e710c)">
     <!-- -80.00 -->
     <g style="fill: #0000ff" transform="translate(293.001332 30.222724) rotate(-323.265532) scale(0.09 -0.09)">
      <use xlink:href="#DejaVuSans-2d"/>
      <use xlink:href="#DejaVuSans-38" x="36.083984"/>
      <use xlink:href="#DejaVuSans-30" x="99.707031"/>
      <use xlink:href="#DejaVuSans-2e" x="163.330078"/>
      <use xlink:href="#DejaVuSans-30" x="195.117188"/>
      <use xlink:href="#DejaVuSans-30" x="258.740234"/>
     </g>
    </g>
   </g>
   <g id="text_22">
    <g clip-path="url(#pda184e710c)">
     <!-- -80.00 -->
     <g style="fill: #0000ff" transform="translate(48.514458 47.620028) rotate(-36.754232) scale(0.09 -0.09)">
      <use xlink:href="#DejaVuSans-2d"/>
      <use xlink:href="#DejaVuSans-38" x="36.083984"/>
      <use xlink:href="#DejaVuSans-30" x="99.707031"/>
      <use xlink:href="#DejaVuSans-2e" x="163.330078"/>
      <use xlink:href="#DejaVuSans-30" x="195.117188"/>
      <use xlink:href="#DejaVuSans-30" x="258.740234"/>
     </g>
    </g>
   </g>
   <g id="text_23">
    <g clip-path="url(#pda184e710c)">
     <!-- -60.00 -->
     <g style="fill: #0000ff" transform="translate(255.442931 298.117785) rotate(-26.217358) scale(0.09 -0.09)">
      <use xlink:href="#DejaVuSans-2d"/>
      <use xlink:href="#DejaVuSans-36" x="36.083984"/>
      <use xlink:href="#DejaVuSans-30" x="99.707031"/>
      <use xlink:href="#DejaVuSans-2e" x="163.330078"/>
      <use xlink:href="#DejaVuSans-30" x="195.117188"/>
      <use xlink:href="#DejaVuSans-30" x="258.740234"/>
     </g>
    </g>
   </g>
   <g id="text_24">
    <g clip-path="url(#pda184e710c)">
     <!-- -60.00 -->
     <g style="fill: #0000ff" transform="translate(42.121735 236.382472) rotate(-311.419633) scale(0.09 -0.09)">
      <use xlink:href="#DejaVuSans-2d"/>
      <use xlink:href="#DejaVuSans-36" x="36.083984"/>
      <use xlink:href="#DejaVuSans-30" x="99.707031"/>
      <use xlink:href="#DejaVuSans-2e" x="163.330078"/>
      <use xlink:href="#DejaVuSans-30" x="195.117188"/>
      <use xlink:href="#DejaVuSans-30" x="258.740234"/>
     </g>
    </g>
   </g>
   <g id="text_25">
    <g clip-path="url(#pda184e710c)">
     <!-- -60.00 -->
     <g style="fill: #0000ff" transform="translate(299.764394 66.467553) rotate(-311.419633) scale(0.09 -0.09)">
      <use xlink:href="#DejaVuSans-2d"/>
      <use xlink:href="#DejaVuSans-36" x="36.083984"/>
      <use xlink:href="#DejaVuSans-30" x="99.707031"/>
      <use xlink:href="#DejaVuSans-2e" x="163.330078"/>
      <use xlink:href="#DejaVuSans-30" x="195.117188"/>
      <use xlink:href="#DejaVuSans-30" x="258.740234"/>
     </g>
    </g>
   </g>
   <g id="text_26">
    <g clip-path="url(#pda184e710c)">
     <!-- -60.00 -->
     <g style="fill: #0000ff" transform="translate(85.528012 40.475126) rotate(-26.217358) scale(0.09 -0.09)">
      <use xlink:href="#DejaVuSans-2d"/>
      <use xlink:href="#DejaVuSans-36" x="36.083984"/>
      <use xlink:href="#DejaVuSans-30" x="99.707031"/>
      <use xlink:href="#DejaVuSans-2e" x="163.330078"/>
      <use xlink:href="#DejaVuSans-30" x="195.117188"/>
      <use xlink:href="#DejaVuSans-30" x="258.740234"/>
     </g>
    </g>
   </g>
   <g id="text_27">
    <g clip-path="url(#pda184e710c)">
     <!-- -40.00 -->
     <g style="fill: #0000ff" transform="translate(256.291301 57.737402) rotate(-326.049537) scale(0.09 -0.09)">
      <use xlink:href="#DejaVuSans-2d"/>
      <use xlink:href="#DejaVuSans-34" x="36.083984"/>
      <use xlink:href="#DejaVuSans-30" x="99.707031"/>
      <use xlink:href="#DejaVuSans-2e" x="163.330078"/>
      <use xlink:href="#DejaVuSans-30" x="195.117188"/>
      <use xlink:href="#DejaVuSans-30" x="258.740234"/>
     </g>
    </g>
   </g>
   <g id="text_28">
    <g clip-path="url(#pda184e710c)">
     <!-- -20.00 -->
     <g style="fill: #0000ff" transform="translate(127.59635 251.186761) rotate(-341.978864) scale(0.09 -0.09)">
      <use xlink:href="#DejaVuSans-2d"/>
      <use xlink:href="#DejaVuSans-32" x="36.083984"/>
      <use xlink:href="#DejaVuSans-30" x="99.707031"/>
      <use xlink:href="#DejaVuSans-2e" x="163.330078"/>
      <use xlink:href="#DejaVuSans-30" x="195.117188"/>
      <use xlink:href="#DejaVuSans-30" x="258.740234"/>
     </g>
    </g>
   </g>
   <g id="text_29">
    <g clip-path="url(#pda184e710c)">
     <!-- 0.00 -->
     <g style="fill: #0000ff" transform="translate(153.113158 215.710924) rotate(-345.541387) scale(0.09 -0.09)">
      <use xlink:href="#DejaVuSans-30"/>
      <use xlink:href="#DejaVuSans-2e" x="63.623047"/>
      <use xlink:href="#DejaVuSans-30" x="95.410156"/>
      <use xlink:href="#DejaVuSans-30" x="159.033203"/>
     </g>
    </g>
   </g>
  </g>
 </g>
 <defs>
  <clipPath id="pda184e710c">
   <rect x="28.942188" y="7.2" width="306.92" height="306.92"/>
  </clipPath>
 </defs>
</svg>
