<?xml version="1.0" encoding="utf-8" standalone="no"?>
<!DOCTYPE svg PUBLIC "-//W3C//DTD SVG 1.1//EN"
  "http://www.w3.org/Graphics/SVG/1.1/DTD/svg11.dtd">
<svg xmlns:xlink="http://www.w3.org/1999/xlink" width="341.987187pt" height="336.923125pt" viewBox="0 0 341.987187 336.923125" xmlns="http://www.w3.org/2000/svg" version="1.1">
 <metadata>
  <rdf:RDF xmlns:dc="http://purl.org/dc/elements/1.1/" xmlns:cc="http://creativecommons.org/ns#" xmlns:rdf="http://www.w3.org/1999/02/22-rdf-syntax-ns#">
   <cc:Work>
    <dc:type rdf:resource="http://purl.org/dc/dcmitype/StillImage"/>
    <dc:date>2025-04-08T16:54:47.337240</dc:date>
    <dc:format>image/svg+xml</dc:format>
    <dc:creator>
     <cc:Agent>
      <dc:title>Matplotlib v3.6.3, https://matplotlib.org/</dc:title>
     </cc:Agent>
    </dc:creator>
   </cc:Work>
  </rdf:RDF>
 </metadata>
 <defs>
  <style type="text/css">*{stroke-linejoin: round; stroke-linecap: butt}</style>
 </defs>
 <g id="figure_1">
  <g id="patch_1">
   <path d="M 0 336.923125 
L 341.987187 336.923125 
L 341.987187 0 
L 0 0 
z
" style="fill: #ffffff"/>
  </g>
  <g id="axes_1">
   <g id="patch_2">
    <path d="M 48.427188 293.56 
L 334.787187 293.56 
L 334.787187 7.2 
L 48.427188 7.2 
z
" style="fill: #ffffff"/>
   </g>
   <g id="matplotlib.axis_1">
    <g id="xtick_1">
     <g id="line2d_1">
      <defs>
       <path id="meb6350ad3a" d="M 0 0 
L 0 3.5 
" style="stroke: #000000; stroke-width: 0.8"/>
      </defs>
      <g>
       <use xlink:href="#meb6350ad3a" x="53.934111" y="293.56" style="stroke: #000000; stroke-width: 0.8"/>
      </g>
     </g>
     <g id="text_1">
      <!-- −4 -->
      <g transform="translate(46.563017 308.158437) scale(0.1 -0.1)">
       <defs>
        <path id="DejaVuSans-2212" d="M 678 2272 
L 4684 2272 
L 4684 1741 
L 678 1741 
L 678 2272 
z
" transform="scale(0.015625)"/>
        <path id="DejaVuSans-34" d="M 2419 4116 
L 825 1625 
L 2419 1625 
L 2419 4116 
z
M 2253 4666 
L 3047 4666 
L 3047 1625 
L 3713 1625 
L 3713 1100 
L 3047 1100 
L 3047 0 
L 2419 0 
L 2419 1100 
L 313 1100 
L 313 1709 
L 2253 4666 
z
" transform="scale(0.015625)"/>
       </defs>
       <use xlink:href="#DejaVuSans-2212"/>
       <use xlink:href="#DejaVuSans-34" x="83.789062"/>
      </g>
     </g>
    </g>
    <g id="xtick_2">
     <g id="line2d_2">
      <g>
       <use xlink:href="#meb6350ad3a" x="88.35238" y="293.56" style="stroke: #000000; stroke-width: 0.8"/>
      </g>
     </g>
     <g id="text_2">
      <!-- −3 -->
      <g transform="translate(80.981286 308.158437) scale(0.1 -0.1)">
       <defs>
        <path id="DejaVuSans-33" d="M 2597 2516 
Q 3050 2419 3304 2112 
Q 3559 1806 3559 1356 
Q 3559 666 3084 287 
Q 2609 -91 1734 -91 
Q 1441 -91 1130 -33 
Q 819 25 488 141 
L 488 750 
Q 750 597 1062 519 
Q 1375 441 1716 441 
Q 2309 441 2620 675 
Q 2931 909 2931 1356 
Q 2931 1769 2642 2001 
Q 2353 2234 1838 2234 
L 1294 2234 
L 1294 2753 
L 1863 2753 
Q 2328 2753 2575 2939 
Q 2822 3125 2822 3475 
Q 2822 3834 2567 4026 
Q 2313 4219 1838 4219 
Q 1578 4219 1281 4162 
Q 984 4106 628 3988 
L 628 4550 
Q 988 4650 1302 4700 
Q 1616 4750 1894 4750 
Q 2613 4750 3031 4423 
Q 3450 4097 3450 3541 
Q 3450 3153 3228 2886 
Q 3006 2619 2597 2516 
z
" transform="scale(0.015625)"/>
       </defs>
       <use xlink:href="#DejaVuSans-2212"/>
       <use xlink:href="#DejaVuSans-33" x="83.789062"/>
      </g>
     </g>
    </g>
    <g id="xtick_3">
     <g id="line2d_3">
      <g>
       <use xlink:href="#meb6350ad3a" x="122.770649" y="293.56" style="stroke: #000000; stroke-width: 0.8"/>
      </g>
     </g>
     <g id="text_3">
      <!-- −2 -->
      <g transform="translate(115.399555 308.158437) scale(0.1 -0.1)">
       <defs>
        <path id="DejaVuSans-32" d="M 1228 531 
L 3431 531 
L 3431 0 
L 469 0 
L 469 531 
Q 828 903 1448 1529 
Q 2069 2156 2228 2338 
Q 2531 2678 2651 2914 
Q 2772 3150 2772 3378 
Q 2772 3750 2511 3984 
Q 2250 4219 1831 4219 
Q 1534 4219 1204 4116 
Q 875 4013 500 3803 
L 500 4441 
Q 881 4594 1212 4672 
Q 1544 4750 1819 4750 
Q 2544 4750 2975 4387 
Q 3406 4025 3406 3419 
Q 3406 3131 3298 2873 
Q 3191 2616 2906 2266 
Q 2828 2175 2409 1742 
Q 1991 1309 1228 531 
z
" transform="scale(0.015625)"/>
       </defs>
       <use xlink:href="#DejaVuSans-2212"/>
       <use xlink:href="#DejaVuSans-32" x="83.789062"/>
      </g>
     </g>
    </g>
    <g id="xtick_4">
     <g id="line2d_4">
      <g>
       <use xlink:href="#meb6350ad3a" x="157.188918" y="293.56" style="stroke: #000000; stroke-width: 0.8"/>
      </g>
     </g>
     <g id="text_4">
      <!-- −1 -->
      <g transform="translate(149.817825 308.158437) scale(0.1 -0.1)">
       <defs>
        <path id="DejaVuSans-31" d="M 794 531 
L 1825 531 
L 1825 4091 
L 703 3866 
L 703 4441 
L 1819 4666 
L 2450 4666 
L 2450 531 
L 3481 531 
L 3481 0 
L 794 0 
L 794 531 
z
" transform="scale(0.015625)"/>
       </defs>
       <use xlink:href="#DejaVuSans-2212"/>
       <use xlink:href="#DejaVuSans-31" x="83.789062"/>
      </g>
     </g>
    </g>
    <g id="xtick_5">
     <g id="line2d_5">
      <g>
       <use xlink:href="#meb6350ad3a" x="191.607187" y="293.56" style="stroke: #000000; stroke-width: 0.8"/>
      </g>
     </g>
     <g id="text_5">
      <!-- 0 -->
      <g transform="translate(188.425937 308.158437) scale(0.1 -0.1)">
       <defs>
        <path id="DejaVuSans-30" d="M 2034 4250 
Q 1547 4250 1301 3770 
Q 1056 3291 1056 2328 
Q 1056 1369 1301 889 
Q 1547 409 2034 409 
Q 2525 409 2770 889 
Q 3016 1369 3016 2328 
Q 3016 3291 2770 3770 
Q 2525 4250 2034 4250 
z
M 2034 4750 
Q 2819 4750 3233 4129 
Q 3647 3509 3647 2328 
Q 3647 1150 3233 529 
Q 2819 -91 2034 -91 
Q 1250 -91 836 529 
Q 422 1150 422 2328 
Q 422 3509 836 4129 
Q 1250 4750 2034 4750 
z
" transform="scale(0.015625)"/>
       </defs>
       <use xlink:href="#DejaVuSans-30"/>
      </g>
     </g>
    </g>
    <g id="xtick_6">
     <g id="line2d_6">
      <g>
       <use xlink:href="#meb6350ad3a" x="226.025457" y="293.56" style="stroke: #000000; stroke-width: 0.8"/>
      </g>
     </g>
     <g id="text_6">
      <!-- 1 -->
      <g transform="translate(222.844207 308.158437) scale(0.1 -0.1)">
       <use xlink:href="#DejaVuSans-31"/>
      </g>
     </g>
    </g>
    <g id="xtick_7">
     <g id="line2d_7">
      <g>
       <use xlink:href="#meb6350ad3a" x="260.443726" y="293.56" style="stroke: #000000; stroke-width: 0.8"/>
      </g>
     </g>
     <g id="text_7">
      <!-- 2 -->
      <g transform="translate(257.262476 308.158437) scale(0.1 -0.1)">
       <use xlink:href="#DejaVuSans-32"/>
      </g>
     </g>
    </g>
    <g id="xtick_8">
     <g id="line2d_8">
      <g>
       <use xlink:href="#meb6350ad3a" x="294.861995" y="293.56" style="stroke: #000000; stroke-width: 0.8"/>
      </g>
     </g>
     <g id="text_8">
      <!-- 3 -->
      <g transform="translate(291.680745 308.158437) scale(0.1 -0.1)">
       <use xlink:href="#DejaVuSans-33"/>
      </g>
     </g>
    </g>
    <g id="xtick_9">
     <g id="line2d_9">
      <g>
       <use xlink:href="#meb6350ad3a" x="329.280264" y="293.56" style="stroke: #000000; stroke-width: 0.8"/>
      </g>
     </g>
     <g id="text_9">
      <!-- 4 -->
      <g transform="translate(326.099014 308.158437) scale(0.1 -0.1)">
       <use xlink:href="#DejaVuSans-34"/>
      </g>
     </g>
    </g>
    <g id="xtick_10">
     <g id="line2d_10">
      <defs>
       <path id="m727084e586" d="M 0 0 
L 0 2 
" style="stroke: #000000; stroke-width: 0.6"/>
      </defs>
      <g>
       <use xlink:href="#m727084e586" x="60.817764" y="293.56" style="stroke: #000000; stroke-width: 0.6"/>
      </g>
     </g>
    </g>
    <g id="xtick_11">
     <g id="line2d_11">
      <g>
       <use xlink:href="#m727084e586" x="67.701418" y="293.56" style="stroke: #000000; stroke-width: 0.6"/>
      </g>
     </g>
    </g>
    <g id="xtick_12">
     <g id="line2d_12">
      <g>
       <use xlink:href="#m727084e586" x="74.585072" y="293.56" style="stroke: #000000; stroke-width: 0.6"/>
      </g>
     </g>
    </g>
    <g id="xtick_13">
     <g id="line2d_13">
      <g>
       <use xlink:href="#m727084e586" x="81.468726" y="293.56" style="stroke: #000000; stroke-width: 0.6"/>
      </g>
     </g>
    </g>
    <g id="xtick_14">
     <g id="line2d_14">
      <g>
       <use xlink:href="#m727084e586" x="95.236034" y="293.56" style="stroke: #000000; stroke-width: 0.6"/>
      </g>
     </g>
    </g>
    <g id="xtick_15">
     <g id="line2d_15">
      <g>
       <use xlink:href="#m727084e586" x="102.119687" y="293.56" style="stroke: #000000; stroke-width: 0.6"/>
      </g>
     </g>
    </g>
    <g id="xtick_16">
     <g id="line2d_16">
      <g>
       <use xlink:href="#m727084e586" x="109.003341" y="293.56" style="stroke: #000000; stroke-width: 0.6"/>
      </g>
     </g>
    </g>
    <g id="xtick_17">
     <g id="line2d_17">
      <g>
       <use xlink:href="#m727084e586" x="115.886995" y="293.56" style="stroke: #000000; stroke-width: 0.6"/>
      </g>
     </g>
    </g>
    <g id="xtick_18">
     <g id="line2d_18">
      <g>
       <use xlink:href="#m727084e586" x="129.654303" y="293.56" style="stroke: #000000; stroke-width: 0.6"/>
      </g>
     </g>
    </g>
    <g id="xtick_19">
     <g id="line2d_19">
      <g>
       <use xlink:href="#m727084e586" x="136.537957" y="293.56" style="stroke: #000000; stroke-width: 0.6"/>
      </g>
     </g>
    </g>
    <g id="xtick_20">
     <g id="line2d_20">
      <g>
       <use xlink:href="#m727084e586" x="143.421611" y="293.56" style="stroke: #000000; stroke-width: 0.6"/>
      </g>
     </g>
    </g>
    <g id="xtick_21">
     <g id="line2d_21">
      <g>
       <use xlink:href="#m727084e586" x="150.305264" y="293.56" style="stroke: #000000; stroke-width: 0.6"/>
      </g>
     </g>
    </g>
    <g id="xtick_22">
     <g id="line2d_22">
      <g>
       <use xlink:href="#m727084e586" x="164.072572" y="293.56" style="stroke: #000000; stroke-width: 0.6"/>
      </g>
     </g>
    </g>
    <g id="xtick_23">
     <g id="line2d_23">
      <g>
       <use xlink:href="#m727084e586" x="170.956226" y="293.56" style="stroke: #000000; stroke-width: 0.6"/>
      </g>
     </g>
    </g>
    <g id="xtick_24">
     <g id="line2d_24">
      <g>
       <use xlink:href="#m727084e586" x="177.83988" y="293.56" style="stroke: #000000; stroke-width: 0.6"/>
      </g>
     </g>
    </g>
    <g id="xtick_25">
     <g id="line2d_25">
      <g>
       <use xlink:href="#m727084e586" x="184.723534" y="293.56" style="stroke: #000000; stroke-width: 0.6"/>
      </g>
     </g>
    </g>
    <g id="xtick_26">
     <g id="line2d_26">
      <g>
       <use xlink:href="#m727084e586" x="198.490841" y="293.56" style="stroke: #000000; stroke-width: 0.6"/>
      </g>
     </g>
    </g>
    <g id="xtick_27">
     <g id="line2d_27">
      <g>
       <use xlink:href="#m727084e586" x="205.374495" y="293.56" style="stroke: #000000; stroke-width: 0.6"/>
      </g>
     </g>
    </g>
    <g id="xtick_28">
     <g id="line2d_28">
      <g>
       <use xlink:href="#m727084e586" x="212.258149" y="293.56" style="stroke: #000000; stroke-width: 0.6"/>
      </g>
     </g>
    </g>
    <g id="xtick_29">
     <g id="line2d_29">
      <g>
       <use xlink:href="#m727084e586" x="219.141803" y="293.56" style="stroke: #000000; stroke-width: 0.6"/>
      </g>
     </g>
    </g>
    <g id="xtick_30">
     <g id="line2d_30">
      <g>
       <use xlink:href="#m727084e586" x="232.909111" y="293.56" style="stroke: #000000; stroke-width: 0.6"/>
      </g>
     </g>
    </g>
    <g id="xtick_31">
     <g id="line2d_31">
      <g>
       <use xlink:href="#m727084e586" x="239.792764" y="293.56" style="stroke: #000000; stroke-width: 0.6"/>
      </g>
     </g>
    </g>
    <g id="xtick_32">
     <g id="line2d_32">
      <g>
       <use xlink:href="#m727084e586" x="246.676418" y="293.56" style="stroke: #000000; stroke-width: 0.6"/>
      </g>
     </g>
    </g>
    <g id="xtick_33">
     <g id="line2d_33">
      <g>
       <use xlink:href="#m727084e586" x="253.560072" y="293.56" style="stroke: #000000; stroke-width: 0.6"/>
      </g>
     </g>
    </g>
    <g id="xtick_34">
     <g id="line2d_34">
      <g>
       <use xlink:href="#m727084e586" x="267.32738" y="293.56" style="stroke: #000000; stroke-width: 0.6"/>
      </g>
     </g>
    </g>
    <g id="xtick_35">
     <g id="line2d_35">
      <g>
       <use xlink:href="#m727084e586" x="274.211034" y="293.56" style="stroke: #000000; stroke-width: 0.6"/>
      </g>
     </g>
    </g>
    <g id="xtick_36">
     <g id="line2d_36">
      <g>
       <use xlink:href="#m727084e586" x="281.094687" y="293.56" style="stroke: #000000; stroke-width: 0.6"/>
      </g>
     </g>
    </g>
    <g id="xtick_37">
     <g id="line2d_37">
      <g>
       <use xlink:href="#m727084e586" x="287.978341" y="293.56" style="stroke: #000000; stroke-width: 0.6"/>
      </g>
     </g>
    </g>
    <g id="xtick_38">
     <g id="line2d_38">
      <g>
       <use xlink:href="#m727084e586" x="301.745649" y="293.56" style="stroke: #000000; stroke-width: 0.6"/>
      </g>
     </g>
    </g>
    <g id="xtick_39">
     <g id="line2d_39">
      <g>
       <use xlink:href="#m727084e586" x="308.629303" y="293.56" style="stroke: #000000; stroke-width: 0.6"/>
      </g>
     </g>
    </g>
    <g id="xtick_40">
     <g id="line2d_40">
      <g>
       <use xlink:href="#m727084e586" x="315.512957" y="293.56" style="stroke: #000000; stroke-width: 0.6"/>
      </g>
     </g>
    </g>
    <g id="xtick_41">
     <g id="line2d_41">
      <g>
       <use xlink:href="#m727084e586" x="322.396611" y="293.56" style="stroke: #000000; stroke-width: 0.6"/>
      </g>
     </g>
    </g>
    <g id="text_10">
     <!-- $x$ -->
     <g transform="translate(186.967187 326.395625) scale(0.16 -0.16)">
      <defs>
       <path id="Cmmi10-78" d="M 500 184 
Q 613 97 819 97 
Q 1019 97 1172 289 
Q 1325 481 1381 709 
L 1672 1844 
Q 1741 2153 1741 2266 
Q 1741 2425 1652 2544 
Q 1563 2663 1403 2663 
Q 1200 2663 1022 2536 
Q 844 2409 722 2214 
Q 600 2019 550 1819 
Q 538 1778 500 1778 
L 422 1778 
Q 372 1778 372 1838 
L 372 1856 
Q 434 2094 584 2320 
Q 734 2547 951 2687 
Q 1169 2828 1416 2828 
Q 1650 2828 1839 2703 
Q 2028 2578 2106 2363 
Q 2216 2559 2386 2693 
Q 2556 2828 2759 2828 
Q 2897 2828 3040 2779 
Q 3184 2731 3275 2631 
Q 3366 2531 3366 2381 
Q 3366 2219 3261 2101 
Q 3156 1984 2994 1984 
Q 2891 1984 2822 2050 
Q 2753 2116 2753 2216 
Q 2753 2350 2845 2451 
Q 2938 2553 3066 2572 
Q 2950 2663 2747 2663 
Q 2541 2663 2389 2472 
Q 2238 2281 2175 2047 
L 1894 916 
Q 1825 659 1825 494 
Q 1825 331 1917 214 
Q 2009 97 2163 97 
Q 2463 97 2698 361 
Q 2934 625 3009 941 
Q 3022 978 3059 978 
L 3138 978 
Q 3163 978 3178 961 
Q 3194 944 3194 922 
Q 3194 916 3188 903 
Q 3097 522 2806 225 
Q 2516 -72 2150 -72 
Q 1916 -72 1727 54 
Q 1538 181 1459 397 
Q 1359 209 1182 68 
Q 1006 -72 806 -72 
Q 669 -72 523 -23 
Q 378 25 287 125 
Q 197 225 197 378 
Q 197 528 301 651 
Q 406 775 563 775 
Q 669 775 741 711 
Q 813 647 813 544 
Q 813 409 723 309 
Q 634 209 500 184 
z
" transform="scale(0.015625)"/>
      </defs>
      <use xlink:href="#Cmmi10-78" transform="translate(0 0.8125)"/>
     </g>
    </g>
   </g>
   <g id="matplotlib.axis_2">
    <g id="ytick_1">
     <g id="line2d_42">
      <defs>
       <path id="mcb249dd9ea" d="M 0 0 
L -3.5 0 
" style="stroke: #000000; stroke-width: 0.8"/>
      </defs>
      <g>
       <use xlink:href="#mcb249dd9ea" x="48.427188" y="288.053077" style="stroke: #000000; stroke-width: 0.8"/>
      </g>
     </g>
     <g id="text_11">
      <!-- −4 -->
      <g transform="translate(26.685 291.852296) scale(0.1 -0.1)">
       <use xlink:href="#DejaVuSans-2212"/>
       <use xlink:href="#DejaVuSans-34" x="83.789062"/>
      </g>
     </g>
    </g>
    <g id="ytick_2">
     <g id="line2d_43">
      <g>
       <use xlink:href="#mcb249dd9ea" x="48.427188" y="253.634808" style="stroke: #000000; stroke-width: 0.8"/>
      </g>
     </g>
     <g id="text_12">
      <!-- −3 -->
      <g transform="translate(26.685 257.434026) scale(0.1 -0.1)">
       <use xlink:href="#DejaVuSans-2212"/>
       <use xlink:href="#DejaVuSans-33" x="83.789062"/>
      </g>
     </g>
    </g>
    <g id="ytick_3">
     <g id="line2d_44">
      <g>
       <use xlink:href="#mcb249dd9ea" x="48.427188" y="219.216538" style="stroke: #000000; stroke-width: 0.8"/>
      </g>
     </g>
     <g id="text_13">
      <!-- −2 -->
      <g transform="translate(26.685 223.015757) scale(0.1 -0.1)">
       <use xlink:href="#DejaVuSans-2212"/>
       <use xlink:href="#DejaVuSans-32" x="83.789062"/>
      </g>
     </g>
    </g>
    <g id="ytick_4">
     <g id="line2d_45">
      <g>
       <use xlink:href="#mcb249dd9ea" x="48.427188" y="184.798269" style="stroke: #000000; stroke-width: 0.8"/>
      </g>
     </g>
     <g id="text_14">
      <!-- −1 -->
      <g transform="translate(26.685 188.597488) scale(0.1 -0.1)">
       <use xlink:href="#DejaVuSans-2212"/>
       <use xlink:href="#DejaVuSans-31" x="83.789062"/>
      </g>
     </g>
    </g>
    <g id="ytick_5">
     <g id="line2d_46">
      <g>
       <use xlink:href="#mcb249dd9ea" x="48.427188" y="150.38" style="stroke: #000000; stroke-width: 0.8"/>
      </g>
     </g>
     <g id="text_15">
      <!-- 0 -->
      <g transform="translate(35.064688 154.179219) scale(0.1 -0.1)">
       <use xlink:href="#DejaVuSans-30"/>
      </g>
     </g>
    </g>
    <g id="ytick_6">
     <g id="line2d_47">
      <g>
       <use xlink:href="#mcb249dd9ea" x="48.427188" y="115.961731" style="stroke: #000000; stroke-width: 0.8"/>
      </g>
     </g>
     <g id="text_16">
      <!-- 1 -->
      <g transform="translate(35.064688 119.76095) scale(0.1 -0.1)">
       <use xlink:href="#DejaVuSans-31"/>
      </g>
     </g>
    </g>
    <g id="ytick_7">
     <g id="line2d_48">
      <g>
       <use xlink:href="#mcb249dd9ea" x="48.427188" y="81.543462" style="stroke: #000000; stroke-width: 0.8"/>
      </g>
     </g>
     <g id="text_17">
      <!-- 2 -->
      <g transform="translate(35.064688 85.34268) scale(0.1 -0.1)">
       <use xlink:href="#DejaVuSans-32"/>
      </g>
     </g>
    </g>
    <g id="ytick_8">
     <g id="line2d_49">
      <g>
       <use xlink:href="#mcb249dd9ea" x="48.427188" y="47.125192" style="stroke: #000000; stroke-width: 0.8"/>
      </g>
     </g>
     <g id="text_18">
      <!-- 3 -->
      <g transform="translate(35.064688 50.924411) scale(0.1 -0.1)">
       <use xlink:href="#DejaVuSans-33"/>
      </g>
     </g>
    </g>
    <g id="ytick_9">
     <g id="line2d_50">
      <g>
       <use xlink:href="#mcb249dd9ea" x="48.427188" y="12.706923" style="stroke: #000000; stroke-width: 0.8"/>
      </g>
     </g>
     <g id="text_19">
      <!-- 4 -->
      <g transform="translate(35.064688 16.506142) scale(0.1 -0.1)">
       <use xlink:href="#DejaVuSans-34"/>
      </g>
     </g>
    </g>
    <g id="ytick_10">
     <g id="line2d_51">
      <defs>
       <path id="m85cce6ae9e" d="M 0 0 
L -2 0 
" style="stroke: #000000; stroke-width: 0.6"/>
      </defs>
      <g>
       <use xlink:href="#m85cce6ae9e" x="48.427188" y="281.169423" style="stroke: #000000; stroke-width: 0.6"/>
      </g>
     </g>
    </g>
    <g id="ytick_11">
     <g id="line2d_52">
      <g>
       <use xlink:href="#m85cce6ae9e" x="48.427188" y="274.285769" style="stroke: #000000; stroke-width: 0.6"/>
      </g>
     </g>
    </g>
    <g id="ytick_12">
     <g id="line2d_53">
      <g>
       <use xlink:href="#m85cce6ae9e" x="48.427188" y="267.402115" style="stroke: #000000; stroke-width: 0.6"/>
      </g>
     </g>
    </g>
    <g id="ytick_13">
     <g id="line2d_54">
      <g>
       <use xlink:href="#m85cce6ae9e" x="48.427188" y="260.518462" style="stroke: #000000; stroke-width: 0.6"/>
      </g>
     </g>
    </g>
    <g id="ytick_14">
     <g id="line2d_55">
      <g>
       <use xlink:href="#m85cce6ae9e" x="48.427188" y="246.751154" style="stroke: #000000; stroke-width: 0.6"/>
      </g>
     </g>
    </g>
    <g id="ytick_15">
     <g id="line2d_56">
      <g>
       <use xlink:href="#m85cce6ae9e" x="48.427188" y="239.8675" style="stroke: #000000; stroke-width: 0.6"/>
      </g>
     </g>
    </g>
    <g id="ytick_16">
     <g id="line2d_57">
      <g>
       <use xlink:href="#m85cce6ae9e" x="48.427188" y="232.983846" style="stroke: #000000; stroke-width: 0.6"/>
      </g>
     </g>
    </g>
    <g id="ytick_17">
     <g id="line2d_58">
      <g>
       <use xlink:href="#m85cce6ae9e" x="48.427188" y="226.100192" style="stroke: #000000; stroke-width: 0.6"/>
      </g>
     </g>
    </g>
    <g id="ytick_18">
     <g id="line2d_59">
      <g>
       <use xlink:href="#m85cce6ae9e" x="48.427188" y="212.332885" style="stroke: #000000; stroke-width: 0.6"/>
      </g>
     </g>
    </g>
    <g id="ytick_19">
     <g id="line2d_60">
      <g>
       <use xlink:href="#m85cce6ae9e" x="48.427188" y="205.449231" style="stroke: #000000; stroke-width: 0.6"/>
      </g>
     </g>
    </g>
    <g id="ytick_20">
     <g id="line2d_61">
      <g>
       <use xlink:href="#m85cce6ae9e" x="48.427188" y="198.565577" style="stroke: #000000; stroke-width: 0.6"/>
      </g>
     </g>
    </g>
    <g id="ytick_21">
     <g id="line2d_62">
      <g>
       <use xlink:href="#m85cce6ae9e" x="48.427188" y="191.681923" style="stroke: #000000; stroke-width: 0.6"/>
      </g>
     </g>
    </g>
    <g id="ytick_22">
     <g id="line2d_63">
      <g>
       <use xlink:href="#m85cce6ae9e" x="48.427188" y="177.914615" style="stroke: #000000; stroke-width: 0.6"/>
      </g>
     </g>
    </g>
    <g id="ytick_23">
     <g id="line2d_64">
      <g>
       <use xlink:href="#m85cce6ae9e" x="48.427188" y="171.030962" style="stroke: #000000; stroke-width: 0.6"/>
      </g>
     </g>
    </g>
    <g id="ytick_24">
     <g id="line2d_65">
      <g>
       <use xlink:href="#m85cce6ae9e" x="48.427188" y="164.147308" style="stroke: #000000; stroke-width: 0.6"/>
      </g>
     </g>
    </g>
    <g id="ytick_25">
     <g id="line2d_66">
      <g>
       <use xlink:href="#m85cce6ae9e" x="48.427188" y="157.263654" style="stroke: #000000; stroke-width: 0.6"/>
      </g>
     </g>
    </g>
    <g id="ytick_26">
     <g id="line2d_67">
      <g>
       <use xlink:href="#m85cce6ae9e" x="48.427188" y="143.496346" style="stroke: #000000; stroke-width: 0.6"/>
      </g>
     </g>
    </g>
    <g id="ytick_27">
     <g id="line2d_68">
      <g>
       <use xlink:href="#m85cce6ae9e" x="48.427188" y="136.612692" style="stroke: #000000; stroke-width: 0.6"/>
      </g>
     </g>
    </g>
    <g id="ytick_28">
     <g id="line2d_69">
      <g>
       <use xlink:href="#m85cce6ae9e" x="48.427188" y="129.729038" style="stroke: #000000; stroke-width: 0.6"/>
      </g>
     </g>
    </g>
    <g id="ytick_29">
     <g id="line2d_70">
      <g>
       <use xlink:href="#m85cce6ae9e" x="48.427188" y="122.845385" style="stroke: #000000; stroke-width: 0.6"/>
      </g>
     </g>
    </g>
    <g id="ytick_30">
     <g id="line2d_71">
      <g>
       <use xlink:href="#m85cce6ae9e" x="48.427188" y="109.078077" style="stroke: #000000; stroke-width: 0.6"/>
      </g>
     </g>
    </g>
    <g id="ytick_31">
     <g id="line2d_72">
      <g>
       <use xlink:href="#m85cce6ae9e" x="48.427188" y="102.194423" style="stroke: #000000; stroke-width: 0.6"/>
      </g>
     </g>
    </g>
    <g id="ytick_32">
     <g id="line2d_73">
      <g>
       <use xlink:href="#m85cce6ae9e" x="48.427188" y="95.310769" style="stroke: #000000; stroke-width: 0.6"/>
      </g>
     </g>
    </g>
    <g id="ytick_33">
     <g id="line2d_74">
      <g>
       <use xlink:href="#m85cce6ae9e" x="48.427188" y="88.427115" style="stroke: #000000; stroke-width: 0.6"/>
      </g>
     </g>
    </g>
    <g id="ytick_34">
     <g id="line2d_75">
      <g>
       <use xlink:href="#m85cce6ae9e" x="48.427188" y="74.659808" style="stroke: #000000; stroke-width: 0.6"/>
      </g>
     </g>
    </g>
    <g id="ytick_35">
     <g id="line2d_76">
      <g>
       <use xlink:href="#m85cce6ae9e" x="48.427188" y="67.776154" style="stroke: #000000; stroke-width: 0.6"/>
      </g>
     </g>
    </g>
    <g id="ytick_36">
     <g id="line2d_77">
      <g>
       <use xlink:href="#m85cce6ae9e" x="48.427188" y="60.8925" style="stroke: #000000; stroke-width: 0.6"/>
      </g>
     </g>
    </g>
    <g id="ytick_37">
     <g id="line2d_78">
      <g>
       <use xlink:href="#m85cce6ae9e" x="48.427188" y="54.008846" style="stroke: #000000; stroke-width: 0.6"/>
      </g>
     </g>
    </g>
    <g id="ytick_38">
     <g id="line2d_79">
      <g>
       <use xlink:href="#m85cce6ae9e" x="48.427188" y="40.241538" style="stroke: #000000; stroke-width: 0.6"/>
      </g>
     </g>
    </g>
    <g id="ytick_39">
     <g id="line2d_80">
      <g>
       <use xlink:href="#m85cce6ae9e" x="48.427188" y="33.357885" style="stroke: #000000; stroke-width: 0.6"/>
      </g>
     </g>
    </g>
    <g id="ytick_40">
     <g id="line2d_81">
      <g>
       <use xlink:href="#m85cce6ae9e" x="48.427188" y="26.474231" style="stroke: #000000; stroke-width: 0.6"/>
      </g>
     </g>
    </g>
    <g id="ytick_41">
     <g id="line2d_82">
      <g>
       <use xlink:href="#m85cce6ae9e" x="48.427188" y="19.590577" style="stroke: #000000; stroke-width: 0.6"/>
      </g>
     </g>
    </g>
    <g id="text_20">
     <!-- $y$ -->
     <g transform="translate(19.325 154.38) rotate(-90) scale(0.16 -0.16)">
      <defs>
       <path id="Cmmi10-79" d="M 538 -916 
Q 672 -1147 1006 -1147 
Q 1309 -1147 1531 -934 
Q 1753 -722 1889 -420 
Q 2025 -119 2100 197 
Q 1816 -72 1484 -72 
Q 1231 -72 1053 15 
Q 875 103 776 276 
Q 678 450 678 697 
Q 678 906 734 1126 
Q 791 1347 892 1617 
Q 994 1888 1069 2088 
Q 1153 2322 1153 2472 
Q 1153 2663 1013 2663 
Q 759 2663 595 2402 
Q 431 2141 353 1819 
Q 341 1778 300 1778 
L 225 1778 
Q 172 1778 172 1838 
L 172 1856 
Q 275 2238 487 2533 
Q 700 2828 1025 2828 
Q 1253 2828 1411 2678 
Q 1569 2528 1569 2297 
Q 1569 2178 1516 2047 
Q 1488 1969 1388 1706 
Q 1288 1444 1234 1272 
Q 1181 1100 1147 934 
Q 1113 769 1113 603 
Q 1113 391 1203 244 
Q 1294 97 1491 97 
Q 1888 97 2203 581 
L 2688 2553 
Q 2709 2638 2787 2698 
Q 2866 2759 2956 2759 
Q 3034 2759 3092 2709 
Q 3150 2659 3150 2578 
Q 3150 2541 3144 2528 
L 2509 -19 
Q 2425 -347 2200 -647 
Q 1975 -947 1658 -1130 
Q 1341 -1313 997 -1313 
Q 831 -1313 668 -1248 
Q 506 -1184 406 -1056 
Q 306 -928 306 -756 
Q 306 -581 409 -453 
Q 513 -325 684 -325 
Q 788 -325 858 -389 
Q 928 -453 928 -556 
Q 928 -703 818 -812 
Q 709 -922 563 -922 
Q 556 -919 550 -917 
Q 544 -916 538 -916 
z
" transform="scale(0.015625)"/>
      </defs>
      <use xlink:href="#Cmmi10-79" transform="translate(0 0.8125)"/>
     </g>
    </g>
   </g>
   <g id="PathCollection_1">
    <path d="M 53.934111 288.053077 
L 192.531168 149.45602 
L 192.531168 149.45602 
" clip-path="url(#pad511d7e4a)" style="fill: none; stroke: #000000; stroke-width: 1.5"/>
    <path d="M 53.934111 12.706923 
L 53.934111 12.706923 
z
" clip-path="url(#pad511d7e4a)" style="fill: none; stroke: #000000; stroke-width: 1.5"/>
    <path d="M 329.280264 12.706923 
L 192.531168 149.45602 
L 192.531168 149.45602 
" clip-path="url(#pad511d7e4a)" style="fill: none; stroke: #000000; stroke-width: 1.5"/>
   </g>
   <g id="PathCollection_2">
    <path d="M 53.934111 286.638495 
L 80.08255 260.333665 
L 116.764777 223.186762 
L 134.366983 204.894843 
L 150.02807 188.226374 
L 158.156121 179.023392 
L 162.963796 173.257618 
L 167.011226 167.935627 
L 169.49853 164.239706 
L 171.614566 160.543784 
L 172.491183 158.695823 
L 173.21953 156.847863 
L 173.787936 154.999902 
L 174.176062 153.151941 
L 174.373222 151.30398 
L 174.373222 149.45602 
L 174.05156 147.02259 
L 173.787936 145.760098 
L 173.21953 143.912137 
L 172.203599 141.470399 
L 171.614566 140.216216 
L 169.49853 136.520294 
L 166.659717 132.358094 
L 164.242476 129.128451 
L 161.115835 125.23278 
L 155.571953 118.773865 
L 151.657032 114.344765 
L 146.332149 108.545202 
L 135.244384 96.793956 
L 125.512159 86.625354 
L 105.677012 66.244001 
L 58.043898 18.250805 
L 53.934111 14.121505 
L 53.934111 14.121505 
" clip-path="url(#pad511d7e4a)" style="fill: none; stroke: #202020; stroke-width: 1.5"/>
    <path d="M 329.280264 14.121505 
L 303.131825 40.426335 
L 266.449598 77.573238 
L 248.847392 95.865157 
L 233.186305 112.533626 
L 225.058254 121.736608 
L 220.250579 127.502382 
L 216.203149 132.824373 
L 213.715845 136.520294 
L 211.599809 140.216216 
L 210.723192 142.064177 
L 209.994845 143.912137 
L 209.426439 145.760098 
L 209.038313 147.608059 
L 208.841153 149.45602 
L 208.841153 151.30398 
L 209.162815 153.73741 
L 209.426439 154.999902 
L 209.994845 156.847863 
L 211.010776 159.289601 
L 211.599809 160.543784 
L 213.715845 164.239706 
L 216.554658 168.401906 
L 218.971899 171.631549 
L 222.09854 175.52722 
L 227.642422 181.986135 
L 231.557343 186.415235 
L 236.882226 192.214798 
L 247.969991 203.966044 
L 257.702216 214.134646 
L 272.663656 229.588508 
L 272.663656 229.588508 
" clip-path="url(#pad511d7e4a)" style="fill: none; stroke: #202020; stroke-width: 1.5"/>
   </g>
   <g id="PathCollection_3">
    <path d="M 53.934111 283.6347 
L 74.601378 262.181626 
L 90.893326 244.999729 
L 104.14584 230.766293 
L 114.211567 219.678529 
L 125.554273 206.742803 
L 134.724881 195.655039 
L 140.788266 187.749634 
L 144.484188 182.558749 
L 147.986126 177.175431 
L 151.152871 171.631549 
L 152.967442 167.935627 
L 154.501325 164.239706 
L 155.719269 160.543784 
L 156.586048 156.847863 
L 157.07743 153.151941 
L 157.176514 149.45602 
L 156.880063 145.760098 
L 156.197928 142.064177 
L 155.152145 138.368255 
L 153.723992 134.559843 
L 151.876031 130.552504 
L 150.02807 127.06319 
L 147.986126 123.584569 
L 144.377939 118.040687 
L 140.417467 112.496804 
L 136.182587 106.952922 
L 129.700502 98.947489 
L 123.976549 92.169236 
L 115.861115 82.929432 
L 103.829051 69.653588 
L 90.380507 55.210021 
L 74.261679 38.226263 
L 53.934111 17.1253 
L 53.934111 17.1253 
" clip-path="url(#pad511d7e4a)" style="fill: none; stroke: #404040; stroke-width: 1.5"/>
    <path d="M 329.280264 17.1253 
L 308.612997 38.578374 
L 292.321049 55.760271 
L 279.068535 69.993707 
L 269.002808 81.081471 
L 257.660102 94.017197 
L 248.489494 105.104961 
L 242.426109 113.010366 
L 238.730187 118.201251 
L 235.228249 123.584569 
L 232.061504 129.128451 
L 230.246933 132.824373 
L 228.71305 136.520294 
L 227.495106 140.216216 
L 226.628327 143.912137 
L 226.136945 147.608059 
L 226.037861 151.30398 
L 226.334312 154.999902 
L 227.016447 158.695823 
L 228.06223 162.391745 
L 229.490383 166.200157 
L 231.338344 170.207496 
L 233.186305 173.69681 
L 235.228249 177.175431 
L 238.836436 182.719313 
L 242.796908 188.263196 
L 247.031788 193.807078 
L 253.513873 201.812511 
L 259.237826 208.590764 
L 267.35326 217.830568 
L 279.385324 231.106412 
L 292.833868 245.549979 
L 308.952696 262.533737 
L 329.280264 283.6347 
L 329.280264 283.6347 
" clip-path="url(#pad511d7e4a)" style="fill: none; stroke: #404040; stroke-width: 1.5"/>
   </g>
   <g id="PathCollection_4">
    <path d="M 53.934111 277.983033 
L 66.869836 263.927545 
L 80.065889 249.245901 
L 89.760388 238.158136 
L 99.148082 227.070372 
L 106.657703 217.830568 
L 113.793761 208.590764 
L 119.159581 201.198921 
L 122.935389 195.655039 
L 126.458608 190.111156 
L 129.700502 184.541117 
L 132.564051 179.023392 
L 134.266414 175.32747 
L 135.775855 171.631549 
L 137.092345 167.883606 
L 138.151223 164.239706 
L 138.988799 160.543784 
L 139.576098 156.847863 
L 139.905399 153.151941 
L 139.971513 149.45602 
L 139.773423 145.760098 
L 139.314202 142.064177 
L 138.600603 138.368255 
L 137.642507 134.672334 
L 136.452895 130.976412 
L 135.047136 127.28049 
L 133.396423 123.49326 
L 131.548463 119.700501 
L 128.644206 114.344765 
L 125.314471 108.800883 
L 121.703092 103.257001 
L 117.85054 97.713118 
L 112.401824 90.321275 
L 106.657703 82.929432 
L 99.148082 73.689628 
L 89.760388 62.601864 
L 77.957601 49.150538 
L 66.777929 36.730413 
L 53.934111 22.776967 
L 53.934111 22.776967 
" clip-path="url(#pad511d7e4a)" style="fill: none; stroke: #606060; stroke-width: 1.5"/>
    <path d="M 329.280264 22.776967 
L 316.344539 36.832455 
L 303.148486 51.514099 
L 293.453987 62.601864 
L 284.066293 73.689628 
L 276.556672 82.929432 
L 269.420614 92.169236 
L 264.054794 99.561079 
L 260.278986 105.104961 
L 256.755767 110.648844 
L 253.513873 116.218883 
L 250.650324 121.736608 
L 248.947961 125.43253 
L 247.43852 129.128451 
L 246.12203 132.876394 
L 245.063152 136.520294 
L 244.225576 140.216216 
L 243.638277 143.912137 
L 243.308976 147.608059 
L 243.242862 151.30398 
L 243.440952 154.999902 
L 243.900173 158.695823 
L 244.613772 162.391745 
L 245.571868 166.087666 
L 246.76148 169.783588 
L 248.167239 173.47951 
L 249.817952 177.26674 
L 251.665912 181.059499 
L 254.570169 186.415235 
L 257.899904 191.959117 
L 261.511283 197.502999 
L 265.363835 203.046882 
L 270.812551 210.438725 
L 276.556672 217.830568 
L 284.066293 227.070372 
L 293.453987 238.158136 
L 305.256774 251.609462 
L 316.436446 264.029587 
L 329.280264 277.983033 
L 329.280264 277.983033 
" clip-path="url(#pad511d7e4a)" style="fill: none; stroke: #606060; stroke-width: 1.5"/>
   </g>
   <g id="PathCollection_5">
    <path d="M 53.934111 269.607303 
L 60.304818 262.181626 
L 70.565757 249.92935 
L 77.119367 241.854058 
L 85.349444 231.315271 
L 89.917149 225.222411 
L 95.228772 217.830568 
L 100.252486 210.438725 
L 104.93108 203.046882 
L 108.184068 197.502999 
L 111.220894 191.892995 
L 113.90751 186.415235 
L 116.318992 180.871353 
L 118.389075 175.32747 
L 119.564293 171.631549 
L 120.567189 167.935627 
L 121.388991 164.239706 
L 122.02428 160.543784 
L 122.46744 156.847863 
L 122.714854 153.151941 
L 122.764447 149.45602 
L 122.615777 145.760098 
L 122.270163 142.064177 
L 121.730345 138.368255 
L 121.000976 134.672334 
L 120.087881 130.976412 
L 118.612737 126.114199 
L 117.738432 123.584569 
L 115.551472 118.040687 
L 113.034777 112.496804 
L 110.214815 106.952922 
L 107.126949 101.40904 
L 103.79847 95.865157 
L 99.024389 88.473314 
L 93.926366 81.081471 
L 88.550415 73.689628 
L 82.936344 66.297785 
L 75.638942 57.057981 
L 68.079516 47.818178 
L 58.727839 36.730413 
L 53.934111 31.152697 
L 53.934111 31.152697 
" clip-path="url(#pad511d7e4a)" style="fill: none; stroke: #808080; stroke-width: 1.5"/>
    <path d="M 329.280264 31.152697 
L 322.909557 38.578374 
L 312.648618 50.83065 
L 306.095008 58.905942 
L 297.864931 69.444729 
L 293.297226 75.537589 
L 287.985603 82.929432 
L 282.961889 90.321275 
L 278.283295 97.713118 
L 275.030307 103.257001 
L 271.993481 108.867005 
L 269.306865 114.344765 
L 266.895383 119.888647 
L 264.8253 125.43253 
L 263.650082 129.128451 
L 262.647186 132.824373 
L 261.825384 136.520294 
L 261.190095 140.216216 
L 260.746935 143.912137 
L 260.499521 147.608059 
L 260.449928 151.30398 
L 260.598598 154.999902 
L 260.944212 158.695823 
L 261.48403 162.391745 
L 262.213399 166.087666 
L 263.126494 169.783588 
L 264.601638 174.645801 
L 265.475943 177.175431 
L 267.662903 182.719313 
L 270.179598 188.263196 
L 272.99956 193.807078 
L 276.087426 199.35096 
L 279.415905 204.894843 
L 284.189986 212.286686 
L 289.288009 219.678529 
L 294.66396 227.070372 
L 300.278031 234.462215 
L 307.575433 243.702019 
L 315.134859 252.941822 
L 324.486536 264.029587 
L 329.280264 269.607303 
L 329.280264 269.607303 
" clip-path="url(#pad511d7e4a)" style="fill: none; stroke: #808080; stroke-width: 1.5"/>
   </g>
   <g id="PathCollection_6">
    <path d="M 53.934111 257.841852 
L 60.536893 249.245901 
L 67.359742 240.006097 
L 72.583671 232.614254 
L 77.957601 224.616557 
L 82.273254 217.830568 
L 86.672718 210.438725 
L 90.722285 203.046882 
L 93.501713 197.502999 
L 96.041434 191.959117 
L 98.320492 186.415235 
L 100.318525 180.871353 
L 102.017903 175.32747 
L 103.400682 169.783588 
L 104.45233 164.239706 
L 104.963252 160.543784 
L 105.318752 156.847863 
L 105.516876 153.151941 
L 105.556553 149.45602 
L 105.437573 145.760098 
L 105.160573 142.064177 
L 104.72706 138.368255 
L 103.829051 133.036908 
L 103.400682 130.976412 
L 102.017903 125.43253 
L 100.318525 119.888647 
L 98.285169 114.255829 
L 96.041434 108.800883 
L 93.501713 103.257001 
L 90.722285 97.713118 
L 87.197404 91.250583 
L 84.513882 86.625354 
L 79.956571 79.233511 
L 73.851847 69.993707 
L 68.688872 62.601864 
L 61.92565 53.36206 
L 53.934111 42.918148 
L 53.934111 42.918148 
" clip-path="url(#pad511d7e4a)" style="fill: none; stroke: #a0a0a0; stroke-width: 1.5"/>
    <path d="M 329.280264 42.918148 
L 322.677482 51.514099 
L 315.854633 60.753903 
L 310.630704 68.145746 
L 305.256774 76.143443 
L 300.941121 82.929432 
L 296.541657 90.321275 
L 292.49209 97.713118 
L 289.712662 103.257001 
L 287.172941 108.800883 
L 284.893883 114.344765 
L 282.89585 119.888647 
L 281.196472 125.43253 
L 279.813693 130.976412 
L 278.762045 136.520294 
L 278.251123 140.216216 
L 277.895623 143.912137 
L 277.697499 147.608059 
L 277.657822 151.30398 
L 277.776802 154.999902 
L 278.053802 158.695823 
L 278.487315 162.391745 
L 279.385324 167.723092 
L 279.813693 169.783588 
L 281.196472 175.32747 
L 282.89585 180.871353 
L 284.929206 186.504171 
L 287.172941 191.959117 
L 289.712662 197.502999 
L 292.49209 203.046882 
L 296.016971 209.509417 
L 298.700493 214.134646 
L 303.257804 221.526489 
L 309.362528 230.766293 
L 314.525503 238.158136 
L 321.288725 247.39794 
L 329.280264 257.841852 
L 329.280264 257.841852 
" clip-path="url(#pad511d7e4a)" style="fill: none; stroke: #a0a0a0; stroke-width: 1.5"/>
   </g>
   <g id="PathCollection_7">
    <path d="M 53.934111 241.4364 
L 58.445879 234.462215 
L 63.173914 226.752802 
L 67.252464 219.678529 
L 71.215018 212.286686 
L 74.261679 206.124364 
L 76.523464 201.198921 
L 78.861684 195.655039 
L 80.971582 190.111156 
L 82.839496 184.567274 
L 84.45279 179.023392 
L 85.799936 173.47951 
L 86.87052 167.935627 
L 87.656016 162.391745 
L 88.149989 156.847863 
L 88.348245 151.30398 
L 88.24907 145.760098 
L 87.853318 140.216216 
L 87.16444 134.672334 
L 86.187931 129.128451 
L 84.932025 123.584569 
L 83.406436 118.040687 
L 81.622191 112.496804 
L 79.591441 106.952922 
L 77.327348 101.40904 
L 74.261679 94.635636 
L 72.155345 90.321275 
L 68.272691 82.929432 
L 64.079189 75.537589 
L 59.477993 67.942059 
L 54.877398 60.753903 
L 53.934111 59.3236 
L 53.934111 59.3236 
" clip-path="url(#pad511d7e4a)" style="fill: none; stroke: #c0c0c0; stroke-width: 1.5"/>
    <path d="M 329.280264 59.3236 
L 324.768496 66.297785 
L 320.040461 74.007198 
L 315.961911 81.081471 
L 311.999357 88.473314 
L 308.952696 94.635636 
L 306.690911 99.561079 
L 304.352691 105.104961 
L 302.242793 110.648844 
L 300.374879 116.192726 
L 298.761585 121.736608 
L 297.414439 127.28049 
L 296.343855 132.824373 
L 295.558359 138.368255 
L 295.064386 143.912137 
L 294.86613 149.45602 
L 294.965305 154.999902 
L 295.361057 160.543784 
L 296.049935 166.087666 
L 297.026444 171.631549 
L 298.28235 177.175431 
L 299.807939 182.719313 
L 301.592184 188.263196 
L 303.622934 193.807078 
L 305.887027 199.35096 
L 308.952696 206.124364 
L 311.05903 210.438725 
L 314.941684 217.830568 
L 319.135186 225.222411 
L 323.736382 232.817941 
L 328.336977 240.006097 
L 329.280264 241.4364 
L 329.280264 241.4364 
" clip-path="url(#pad511d7e4a)" style="fill: none; stroke: #c0c0c0; stroke-width: 1.5"/>
   </g>
   <g id="PathCollection_8">
    <path d="M 53.934111 217.022467 
L 54.437709 215.982607 
L 55.311934 214.134646 
L 55.782071 213.116162 
L 56.166613 212.286686 
L 57.00109 210.438725 
L 57.630032 209.01081 
L 57.815829 208.590764 
L 58.609018 206.742803 
L 59.382139 204.894843 
L 59.477993 204.658044 
L 60.13281 203.046882 
L 60.862255 201.198921 
L 61.325954 199.985806 
L 61.569571 199.35096 
L 62.253915 197.502999 
L 62.915899 195.655039 
L 63.173914 194.906507 
L 63.554285 193.807078 
L 64.169025 191.959117 
L 64.76015 190.111156 
L 65.021875 189.255993 
L 65.326766 188.263196 
L 65.868667 186.415235 
L 66.385848 184.567274 
L 66.869836 182.749528 
L 66.877906 182.719313 
L 67.344055 180.871353 
L 67.784518 179.023392 
L 68.198961 177.175431 
L 68.587079 175.32747 
L 68.717797 174.657987 
L 68.948463 173.47951 
L 69.282977 171.631549 
L 69.590456 169.783588 
L 69.870675 167.935627 
L 70.123433 166.087666 
L 70.348549 164.239706 
L 70.545865 162.391745 
L 70.565757 162.17445 
L 70.715229 160.543784 
L 70.85655 158.695823 
L 70.969729 156.847863 
L 71.054685 154.999902 
L 71.111356 153.151941 
L 71.139702 151.30398 
L 71.139702 149.45602 
L 71.111356 147.608059 
L 71.054685 145.760098 
L 70.969729 143.912137 
L 70.85655 142.064177 
L 70.715229 140.216216 
L 70.565757 138.58555 
L 70.545865 138.368255 
L 70.348549 136.520294 
L 70.123433 134.672334 
L 69.870675 132.824373 
L 69.590456 130.976412 
L 69.282977 129.128451 
L 68.948463 127.28049 
L 68.717797 126.102013 
L 68.587079 125.43253 
L 68.198961 123.584569 
L 67.784518 121.736608 
L 67.344055 119.888647 
L 66.877906 118.040687 
L 66.869836 118.010472 
L 66.385848 116.192726 
L 65.868667 114.344765 
L 65.326766 112.496804 
L 65.021875 111.504007 
L 64.76015 110.648844 
L 64.169025 108.800883 
L 63.554285 106.952922 
L 63.173914 105.853493 
L 62.915899 105.104961 
L 62.253915 103.257001 
L 61.569571 101.40904 
L 61.325954 100.774194 
L 60.862255 99.561079 
L 60.13281 97.713118 
L 59.477993 96.101956 
L 59.382139 95.865157 
L 58.609018 94.017197 
L 57.815829 92.169236 
L 57.630032 91.74919 
L 57.00109 90.321275 
L 56.166613 88.473314 
L 55.782071 87.643838 
L 55.311934 86.625354 
L 54.437709 84.777393 
L 53.934111 83.737533 
" clip-path="url(#pad511d7e4a)" style="fill: none; stroke: #e0e0e0; stroke-width: 1.5"/>
    <path d="M 329.280264 83.737533 
L 328.776666 84.777393 
L 327.902441 86.625354 
L 327.432304 87.643838 
L 327.047762 88.473314 
L 326.213285 90.321275 
L 325.584343 91.74919 
L 325.398546 92.169236 
L 324.605357 94.017197 
L 323.832236 95.865157 
L 323.736382 96.101956 
L 323.081565 97.713118 
L 322.35212 99.561079 
L 321.888421 100.774194 
L 321.644804 101.40904 
L 320.96046 103.257001 
L 320.298476 105.104961 
L 320.040461 105.853493 
L 319.66009 106.952922 
L 319.04535 108.800883 
L 318.454225 110.648844 
L 318.1925 111.504007 
L 317.887609 112.496804 
L 317.345708 114.344765 
L 316.828527 116.192726 
L 316.344539 118.010472 
L 316.336469 118.040687 
L 315.87032 119.888647 
L 315.429857 121.736608 
L 315.015414 123.584569 
L 314.627296 125.43253 
L 314.496578 126.102013 
L 314.265912 127.28049 
L 313.931398 129.128451 
L 313.623919 130.976412 
L 313.3437 132.824373 
L 313.090942 134.672334 
L 312.865826 136.520294 
L 312.66851 138.368255 
L 312.648618 138.58555 
L 312.499146 140.216216 
L 312.357825 142.064177 
L 312.244646 143.912137 
L 312.15969 145.760098 
L 312.103019 147.608059 
L 312.074673 149.45602 
L 312.074673 151.30398 
L 312.103019 153.151941 
L 312.15969 154.999902 
L 312.244646 156.847863 
L 312.357825 158.695823 
L 312.499146 160.543784 
L 312.648618 162.17445 
L 312.66851 162.391745 
L 312.865826 164.239706 
L 313.090942 166.087666 
L 313.3437 167.935627 
L 313.623919 169.783588 
L 313.931398 171.631549 
L 314.265912 173.47951 
L 314.496578 174.657987 
L 314.627296 175.32747 
L 315.015414 177.175431 
L 315.429857 179.023392 
L 315.87032 180.871353 
L 316.336469 182.719313 
L 316.344539 182.749528 
L 316.828527 184.567274 
L 317.345708 186.415235 
L 317.887609 188.263196 
L 318.1925 189.255993 
L 318.454225 190.111156 
L 319.04535 191.959117 
L 319.66009 193.807078 
L 320.040461 194.906507 
L 320.298476 195.655039 
L 320.96046 197.502999 
L 321.644804 199.35096 
L 321.888421 199.985806 
L 322.35212 201.198921 
L 323.081565 203.046882 
L 323.736382 204.658044 
L 323.832236 204.894843 
L 324.605357 206.742803 
L 325.398546 208.590764 
L 325.584343 209.01081 
L 326.213285 210.438725 
L 327.047762 212.286686 
L 327.432304 213.116162 
L 327.902441 214.134646 
L 328.776666 215.982607 
L 329.280264 217.022467 
" clip-path="url(#pad511d7e4a)" style="fill: none; stroke: #e0e0e0; stroke-width: 1.5"/>
   </g>
   <g id="PathCollection_9"/>
   <g id="patch_3">
    <path d="M 48.427188 293.56 
L 48.427188 7.2 
" style="fill: none; stroke: #000000; stroke-width: 0.8; stroke-linejoin: miter; stroke-linecap: square"/>
   </g>
   <g id="patch_4">
    <path d="M 334.787187 293.56 
L 334.787187 7.2 
" style="fill: none; stroke: #000000; stroke-width: 0.8; stroke-linejoin: miter; stroke-linecap: square"/>
   </g>
   <g id="patch_5">
    <path d="M 48.427188 293.56 
L 334.787187 293.56 
" style="fill: none; stroke: #000000; stroke-width: 0.8; stroke-linejoin: miter; stroke-linecap: square"/>
   </g>
   <g id="patch_6">
    <path d="M 48.427188 7.2 
L 334.787187 7.2 
" style="fill: none; stroke: #000000; stroke-width: 0.8; stroke-linejoin: miter; stroke-linecap: square"/>
   </g>
  </g>
 </g>
 <defs>
  <clipPath id="pad511d7e4a">
   <rect x="48.427188" y="7.2" width="286.36" height="286.36"/>
  </clipPath>
 </defs>
</svg>
