<?xml version="1.0" encoding="utf-8" standalone="no"?>
<!DOCTYPE svg PUBLIC "-//W3C//DTD SVG 1.1//EN"
  "http://www.w3.org/Graphics/SVG/1.1/DTD/svg11.dtd">
<svg xmlns:xlink="http://www.w3.org/1999/xlink" width="343.062187pt" height="337.998125pt" viewBox="0 0 343.062187 337.998125" xmlns="http://www.w3.org/2000/svg" version="1.1">
 <metadata>
  <rdf:RDF xmlns:dc="http://purl.org/dc/elements/1.1/" xmlns:cc="http://creativecommons.org/ns#" xmlns:rdf="http://www.w3.org/1999/02/22-rdf-syntax-ns#">
   <cc:Work>
    <dc:type rdf:resource="http://purl.org/dc/dcmitype/StillImage"/>
    <dc:date>2025-04-08T16:54:40.882947</dc:date>
    <dc:format>image/svg+xml</dc:format>
    <dc:creator>
     <cc:Agent>
      <dc:title>Matplotlib v3.6.3, https://matplotlib.org/</dc:title>
     </cc:Agent>
    </dc:creator>
   </cc:Work>
  </rdf:RDF>
 </metadata>
 <defs>
  <style type="text/css">*{stroke-linejoin: round; stroke-linecap: butt}</style>
 </defs>
 <g id="figure_1">
  <g id="patch_1">
   <path d="M 0 337.998125 
L 343.062187 337.998125 
L 343.062187 0 
L 0 0 
z
" style="fill: #ffffff"/>
  </g>
  <g id="axes_1">
   <g id="patch_2">
    <path d="M 28.942188 314.12 
L 335.862187 314.12 
L 335.862187 7.2 
L 28.942188 7.2 
z
" style="fill: #ffffff"/>
   </g>
   <g id="matplotlib.axis_1">
    <g id="xtick_1">
     <g id="line2d_1">
      <defs>
       <path id="mccdbd03d01" d="M 0 0 
L 0 3.5 
" style="stroke: #000000; stroke-width: 0.8"/>
      </defs>
      <g>
       <use xlink:href="#mccdbd03d01" x="34.844495" y="314.12" style="stroke: #000000; stroke-width: 0.8"/>
      </g>
     </g>
     <g id="text_1">
      <!-- −8 -->
      <g transform="translate(27.473401 328.718437) scale(0.1 -0.1)">
       <defs>
        <path id="DejaVuSans-2212" d="M 678 2272 
L 4684 2272 
L 4684 1741 
L 678 1741 
L 678 2272 
z
" transform="scale(0.015625)"/>
        <path id="DejaVuSans-38" d="M 2034 2216 
Q 1584 2216 1326 1975 
Q 1069 1734 1069 1313 
Q 1069 891 1326 650 
Q 1584 409 2034 409 
Q 2484 409 2743 651 
Q 3003 894 3003 1313 
Q 3003 1734 2745 1975 
Q 2488 2216 2034 2216 
z
M 1403 2484 
Q 997 2584 770 2862 
Q 544 3141 544 3541 
Q 544 4100 942 4425 
Q 1341 4750 2034 4750 
Q 2731 4750 3128 4425 
Q 3525 4100 3525 3541 
Q 3525 3141 3298 2862 
Q 3072 2584 2669 2484 
Q 3125 2378 3379 2068 
Q 3634 1759 3634 1313 
Q 3634 634 3220 271 
Q 2806 -91 2034 -91 
Q 1263 -91 848 271 
Q 434 634 434 1313 
Q 434 1759 690 2068 
Q 947 2378 1403 2484 
z
M 1172 3481 
Q 1172 3119 1398 2916 
Q 1625 2713 2034 2713 
Q 2441 2713 2670 2916 
Q 2900 3119 2900 3481 
Q 2900 3844 2670 4047 
Q 2441 4250 2034 4250 
Q 1625 4250 1398 4047 
Q 1172 3844 1172 3481 
z
" transform="scale(0.015625)"/>
       </defs>
       <use xlink:href="#DejaVuSans-2212"/>
       <use xlink:href="#DejaVuSans-38" x="83.789062"/>
      </g>
     </g>
    </g>
    <g id="xtick_2">
     <g id="line2d_2">
      <g>
       <use xlink:href="#mccdbd03d01" x="71.733918" y="314.12" style="stroke: #000000; stroke-width: 0.8"/>
      </g>
     </g>
     <g id="text_2">
      <!-- −6 -->
      <g transform="translate(64.362825 328.718437) scale(0.1 -0.1)">
       <defs>
        <path id="DejaVuSans-36" d="M 2113 2584 
Q 1688 2584 1439 2293 
Q 1191 2003 1191 1497 
Q 1191 994 1439 701 
Q 1688 409 2113 409 
Q 2538 409 2786 701 
Q 3034 994 3034 1497 
Q 3034 2003 2786 2293 
Q 2538 2584 2113 2584 
z
M 3366 4563 
L 3366 3988 
Q 3128 4100 2886 4159 
Q 2644 4219 2406 4219 
Q 1781 4219 1451 3797 
Q 1122 3375 1075 2522 
Q 1259 2794 1537 2939 
Q 1816 3084 2150 3084 
Q 2853 3084 3261 2657 
Q 3669 2231 3669 1497 
Q 3669 778 3244 343 
Q 2819 -91 2113 -91 
Q 1303 -91 875 529 
Q 447 1150 447 2328 
Q 447 3434 972 4092 
Q 1497 4750 2381 4750 
Q 2619 4750 2861 4703 
Q 3103 4656 3366 4563 
z
" transform="scale(0.015625)"/>
       </defs>
       <use xlink:href="#DejaVuSans-2212"/>
       <use xlink:href="#DejaVuSans-36" x="83.789062"/>
      </g>
     </g>
    </g>
    <g id="xtick_3">
     <g id="line2d_3">
      <g>
       <use xlink:href="#mccdbd03d01" x="108.623341" y="314.12" style="stroke: #000000; stroke-width: 0.8"/>
      </g>
     </g>
     <g id="text_3">
      <!-- −4 -->
      <g transform="translate(101.252248 328.718437) scale(0.1 -0.1)">
       <defs>
        <path id="DejaVuSans-34" d="M 2419 4116 
L 825 1625 
L 2419 1625 
L 2419 4116 
z
M 2253 4666 
L 3047 4666 
L 3047 1625 
L 3713 1625 
L 3713 1100 
L 3047 1100 
L 3047 0 
L 2419 0 
L 2419 1100 
L 313 1100 
L 313 1709 
L 2253 4666 
z
" transform="scale(0.015625)"/>
       </defs>
       <use xlink:href="#DejaVuSans-2212"/>
       <use xlink:href="#DejaVuSans-34" x="83.789062"/>
      </g>
     </g>
    </g>
    <g id="xtick_4">
     <g id="line2d_4">
      <g>
       <use xlink:href="#mccdbd03d01" x="145.512764" y="314.12" style="stroke: #000000; stroke-width: 0.8"/>
      </g>
     </g>
     <g id="text_4">
      <!-- −2 -->
      <g transform="translate(138.141671 328.718437) scale(0.1 -0.1)">
       <defs>
        <path id="DejaVuSans-32" d="M 1228 531 
L 3431 531 
L 3431 0 
L 469 0 
L 469 531 
Q 828 903 1448 1529 
Q 2069 2156 2228 2338 
Q 2531 2678 2651 2914 
Q 2772 3150 2772 3378 
Q 2772 3750 2511 3984 
Q 2250 4219 1831 4219 
Q 1534 4219 1204 4116 
Q 875 4013 500 3803 
L 500 4441 
Q 881 4594 1212 4672 
Q 1544 4750 1819 4750 
Q 2544 4750 2975 4387 
Q 3406 4025 3406 3419 
Q 3406 3131 3298 2873 
Q 3191 2616 2906 2266 
Q 2828 2175 2409 1742 
Q 1991 1309 1228 531 
z
" transform="scale(0.015625)"/>
       </defs>
       <use xlink:href="#DejaVuSans-2212"/>
       <use xlink:href="#DejaVuSans-32" x="83.789062"/>
      </g>
     </g>
    </g>
    <g id="xtick_5">
     <g id="line2d_5">
      <g>
       <use xlink:href="#mccdbd03d01" x="182.402187" y="314.12" style="stroke: #000000; stroke-width: 0.8"/>
      </g>
     </g>
     <g id="text_5">
      <!-- 0 -->
      <g transform="translate(179.220937 328.718437) scale(0.1 -0.1)">
       <defs>
        <path id="DejaVuSans-30" d="M 2034 4250 
Q 1547 4250 1301 3770 
Q 1056 3291 1056 2328 
Q 1056 1369 1301 889 
Q 1547 409 2034 409 
Q 2525 409 2770 889 
Q 3016 1369 3016 2328 
Q 3016 3291 2770 3770 
Q 2525 4250 2034 4250 
z
M 2034 4750 
Q 2819 4750 3233 4129 
Q 3647 3509 3647 2328 
Q 3647 1150 3233 529 
Q 2819 -91 2034 -91 
Q 1250 -91 836 529 
Q 422 1150 422 2328 
Q 422 3509 836 4129 
Q 1250 4750 2034 4750 
z
" transform="scale(0.015625)"/>
       </defs>
       <use xlink:href="#DejaVuSans-30"/>
      </g>
     </g>
    </g>
    <g id="xtick_6">
     <g id="line2d_6">
      <g>
       <use xlink:href="#mccdbd03d01" x="219.291611" y="314.12" style="stroke: #000000; stroke-width: 0.8"/>
      </g>
     </g>
     <g id="text_6">
      <!-- 2 -->
      <g transform="translate(216.110361 328.718437) scale(0.1 -0.1)">
       <use xlink:href="#DejaVuSans-32"/>
      </g>
     </g>
    </g>
    <g id="xtick_7">
     <g id="line2d_7">
      <g>
       <use xlink:href="#mccdbd03d01" x="256.181034" y="314.12" style="stroke: #000000; stroke-width: 0.8"/>
      </g>
     </g>
     <g id="text_7">
      <!-- 4 -->
      <g transform="translate(252.999784 328.718437) scale(0.1 -0.1)">
       <use xlink:href="#DejaVuSans-34"/>
      </g>
     </g>
    </g>
    <g id="xtick_8">
     <g id="line2d_8">
      <g>
       <use xlink:href="#mccdbd03d01" x="293.070457" y="314.12" style="stroke: #000000; stroke-width: 0.8"/>
      </g>
     </g>
     <g id="text_8">
      <!-- 6 -->
      <g transform="translate(289.889207 328.718437) scale(0.1 -0.1)">
       <use xlink:href="#DejaVuSans-36"/>
      </g>
     </g>
    </g>
    <g id="xtick_9">
     <g id="line2d_9">
      <g>
       <use xlink:href="#mccdbd03d01" x="329.95988" y="314.12" style="stroke: #000000; stroke-width: 0.8"/>
      </g>
     </g>
     <g id="text_9">
      <!-- 8 -->
      <g transform="translate(326.77863 328.718437) scale(0.1 -0.1)">
       <use xlink:href="#DejaVuSans-38"/>
      </g>
     </g>
    </g>
    <g id="xtick_10">
     <g id="line2d_10">
      <defs>
       <path id="m5b96305606" d="M 0 0 
L 0 2 
" style="stroke: #000000; stroke-width: 0.6"/>
      </defs>
      <g>
       <use xlink:href="#m5b96305606" x="44.066851" y="314.12" style="stroke: #000000; stroke-width: 0.6"/>
      </g>
     </g>
    </g>
    <g id="xtick_11">
     <g id="line2d_11">
      <g>
       <use xlink:href="#m5b96305606" x="53.289207" y="314.12" style="stroke: #000000; stroke-width: 0.6"/>
      </g>
     </g>
    </g>
    <g id="xtick_12">
     <g id="line2d_12">
      <g>
       <use xlink:href="#m5b96305606" x="62.511562" y="314.12" style="stroke: #000000; stroke-width: 0.6"/>
      </g>
     </g>
    </g>
    <g id="xtick_13">
     <g id="line2d_13">
      <g>
       <use xlink:href="#m5b96305606" x="80.956274" y="314.12" style="stroke: #000000; stroke-width: 0.6"/>
      </g>
     </g>
    </g>
    <g id="xtick_14">
     <g id="line2d_14">
      <g>
       <use xlink:href="#m5b96305606" x="90.17863" y="314.12" style="stroke: #000000; stroke-width: 0.6"/>
      </g>
     </g>
    </g>
    <g id="xtick_15">
     <g id="line2d_15">
      <g>
       <use xlink:href="#m5b96305606" x="99.400986" y="314.12" style="stroke: #000000; stroke-width: 0.6"/>
      </g>
     </g>
    </g>
    <g id="xtick_16">
     <g id="line2d_16">
      <g>
       <use xlink:href="#m5b96305606" x="117.845697" y="314.12" style="stroke: #000000; stroke-width: 0.6"/>
      </g>
     </g>
    </g>
    <g id="xtick_17">
     <g id="line2d_17">
      <g>
       <use xlink:href="#m5b96305606" x="127.068053" y="314.12" style="stroke: #000000; stroke-width: 0.6"/>
      </g>
     </g>
    </g>
    <g id="xtick_18">
     <g id="line2d_18">
      <g>
       <use xlink:href="#m5b96305606" x="136.290409" y="314.12" style="stroke: #000000; stroke-width: 0.6"/>
      </g>
     </g>
    </g>
    <g id="xtick_19">
     <g id="line2d_19">
      <g>
       <use xlink:href="#m5b96305606" x="154.73512" y="314.12" style="stroke: #000000; stroke-width: 0.6"/>
      </g>
     </g>
    </g>
    <g id="xtick_20">
     <g id="line2d_20">
      <g>
       <use xlink:href="#m5b96305606" x="163.957476" y="314.12" style="stroke: #000000; stroke-width: 0.6"/>
      </g>
     </g>
    </g>
    <g id="xtick_21">
     <g id="line2d_21">
      <g>
       <use xlink:href="#m5b96305606" x="173.179832" y="314.12" style="stroke: #000000; stroke-width: 0.6"/>
      </g>
     </g>
    </g>
    <g id="xtick_22">
     <g id="line2d_22">
      <g>
       <use xlink:href="#m5b96305606" x="191.624543" y="314.12" style="stroke: #000000; stroke-width: 0.6"/>
      </g>
     </g>
    </g>
    <g id="xtick_23">
     <g id="line2d_23">
      <g>
       <use xlink:href="#m5b96305606" x="200.846899" y="314.12" style="stroke: #000000; stroke-width: 0.6"/>
      </g>
     </g>
    </g>
    <g id="xtick_24">
     <g id="line2d_24">
      <g>
       <use xlink:href="#m5b96305606" x="210.069255" y="314.12" style="stroke: #000000; stroke-width: 0.6"/>
      </g>
     </g>
    </g>
    <g id="xtick_25">
     <g id="line2d_25">
      <g>
       <use xlink:href="#m5b96305606" x="228.513966" y="314.12" style="stroke: #000000; stroke-width: 0.6"/>
      </g>
     </g>
    </g>
    <g id="xtick_26">
     <g id="line2d_26">
      <g>
       <use xlink:href="#m5b96305606" x="237.736322" y="314.12" style="stroke: #000000; stroke-width: 0.6"/>
      </g>
     </g>
    </g>
    <g id="xtick_27">
     <g id="line2d_27">
      <g>
       <use xlink:href="#m5b96305606" x="246.958678" y="314.12" style="stroke: #000000; stroke-width: 0.6"/>
      </g>
     </g>
    </g>
    <g id="xtick_28">
     <g id="line2d_28">
      <g>
       <use xlink:href="#m5b96305606" x="265.403389" y="314.12" style="stroke: #000000; stroke-width: 0.6"/>
      </g>
     </g>
    </g>
    <g id="xtick_29">
     <g id="line2d_29">
      <g>
       <use xlink:href="#m5b96305606" x="274.625745" y="314.12" style="stroke: #000000; stroke-width: 0.6"/>
      </g>
     </g>
    </g>
    <g id="xtick_30">
     <g id="line2d_30">
      <g>
       <use xlink:href="#m5b96305606" x="283.848101" y="314.12" style="stroke: #000000; stroke-width: 0.6"/>
      </g>
     </g>
    </g>
    <g id="xtick_31">
     <g id="line2d_31">
      <g>
       <use xlink:href="#m5b96305606" x="302.292812" y="314.12" style="stroke: #000000; stroke-width: 0.6"/>
      </g>
     </g>
    </g>
    <g id="xtick_32">
     <g id="line2d_32">
      <g>
       <use xlink:href="#m5b96305606" x="311.515168" y="314.12" style="stroke: #000000; stroke-width: 0.6"/>
      </g>
     </g>
    </g>
    <g id="xtick_33">
     <g id="line2d_33">
      <g>
       <use xlink:href="#m5b96305606" x="320.737524" y="314.12" style="stroke: #000000; stroke-width: 0.6"/>
      </g>
     </g>
    </g>
   </g>
   <g id="matplotlib.axis_2">
    <g id="ytick_1">
     <g id="line2d_34">
      <defs>
       <path id="m2ba8cd3ff0" d="M 0 0 
L -3.5 0 
" style="stroke: #000000; stroke-width: 0.8"/>
      </defs>
      <g>
       <use xlink:href="#m2ba8cd3ff0" x="28.942188" y="308.217692" style="stroke: #000000; stroke-width: 0.8"/>
      </g>
     </g>
     <g id="text_10">
      <!-- −8 -->
      <g transform="translate(7.2 312.016911) scale(0.1 -0.1)">
       <use xlink:href="#DejaVuSans-2212"/>
       <use xlink:href="#DejaVuSans-38" x="83.789062"/>
      </g>
     </g>
    </g>
    <g id="ytick_2">
     <g id="line2d_35">
      <g>
       <use xlink:href="#m2ba8cd3ff0" x="28.942188" y="271.328269" style="stroke: #000000; stroke-width: 0.8"/>
      </g>
     </g>
     <g id="text_11">
      <!-- −6 -->
      <g transform="translate(7.2 275.127488) scale(0.1 -0.1)">
       <use xlink:href="#DejaVuSans-2212"/>
       <use xlink:href="#DejaVuSans-36" x="83.789062"/>
      </g>
     </g>
    </g>
    <g id="ytick_3">
     <g id="line2d_36">
      <g>
       <use xlink:href="#m2ba8cd3ff0" x="28.942188" y="234.438846" style="stroke: #000000; stroke-width: 0.8"/>
      </g>
     </g>
     <g id="text_12">
      <!-- −4 -->
      <g transform="translate(7.2 238.238065) scale(0.1 -0.1)">
       <use xlink:href="#DejaVuSans-2212"/>
       <use xlink:href="#DejaVuSans-34" x="83.789062"/>
      </g>
     </g>
    </g>
    <g id="ytick_4">
     <g id="line2d_37">
      <g>
       <use xlink:href="#m2ba8cd3ff0" x="28.942188" y="197.549423" style="stroke: #000000; stroke-width: 0.8"/>
      </g>
     </g>
     <g id="text_13">
      <!-- −2 -->
      <g transform="translate(7.2 201.348642) scale(0.1 -0.1)">
       <use xlink:href="#DejaVuSans-2212"/>
       <use xlink:href="#DejaVuSans-32" x="83.789062"/>
      </g>
     </g>
    </g>
    <g id="ytick_5">
     <g id="line2d_38">
      <g>
       <use xlink:href="#m2ba8cd3ff0" x="28.942188" y="160.66" style="stroke: #000000; stroke-width: 0.8"/>
      </g>
     </g>
     <g id="text_14">
      <!-- 0 -->
      <g transform="translate(15.579688 164.459219) scale(0.1 -0.1)">
       <use xlink:href="#DejaVuSans-30"/>
      </g>
     </g>
    </g>
    <g id="ytick_6">
     <g id="line2d_39">
      <g>
       <use xlink:href="#m2ba8cd3ff0" x="28.942188" y="123.770577" style="stroke: #000000; stroke-width: 0.8"/>
      </g>
     </g>
     <g id="text_15">
      <!-- 2 -->
      <g transform="translate(15.579688 127.569796) scale(0.1 -0.1)">
       <use xlink:href="#DejaVuSans-32"/>
      </g>
     </g>
    </g>
    <g id="ytick_7">
     <g id="line2d_40">
      <g>
       <use xlink:href="#m2ba8cd3ff0" x="28.942188" y="86.881154" style="stroke: #000000; stroke-width: 0.8"/>
      </g>
     </g>
     <g id="text_16">
      <!-- 4 -->
      <g transform="translate(15.579688 90.680373) scale(0.1 -0.1)">
       <use xlink:href="#DejaVuSans-34"/>
      </g>
     </g>
    </g>
    <g id="ytick_8">
     <g id="line2d_41">
      <g>
       <use xlink:href="#m2ba8cd3ff0" x="28.942188" y="49.991731" style="stroke: #000000; stroke-width: 0.8"/>
      </g>
     </g>
     <g id="text_17">
      <!-- 6 -->
      <g transform="translate(15.579688 53.79095) scale(0.1 -0.1)">
       <use xlink:href="#DejaVuSans-36"/>
      </g>
     </g>
    </g>
    <g id="ytick_9">
     <g id="line2d_42">
      <g>
       <use xlink:href="#m2ba8cd3ff0" x="28.942188" y="13.102308" style="stroke: #000000; stroke-width: 0.8"/>
      </g>
     </g>
     <g id="text_18">
      <!-- 8 -->
      <g transform="translate(15.579688 16.901526) scale(0.1 -0.1)">
       <use xlink:href="#DejaVuSans-38"/>
      </g>
     </g>
    </g>
    <g id="ytick_10">
     <g id="line2d_43">
      <defs>
       <path id="mb9272d51b7" d="M 0 0 
L -2 0 
" style="stroke: #000000; stroke-width: 0.6"/>
      </defs>
      <g>
       <use xlink:href="#mb9272d51b7" x="28.942188" y="298.995337" style="stroke: #000000; stroke-width: 0.6"/>
      </g>
     </g>
    </g>
    <g id="ytick_11">
     <g id="line2d_44">
      <g>
       <use xlink:href="#mb9272d51b7" x="28.942188" y="289.772981" style="stroke: #000000; stroke-width: 0.6"/>
      </g>
     </g>
    </g>
    <g id="ytick_12">
     <g id="line2d_45">
      <g>
       <use xlink:href="#mb9272d51b7" x="28.942188" y="280.550625" style="stroke: #000000; stroke-width: 0.6"/>
      </g>
     </g>
    </g>
    <g id="ytick_13">
     <g id="line2d_46">
      <g>
       <use xlink:href="#mb9272d51b7" x="28.942188" y="262.105913" style="stroke: #000000; stroke-width: 0.6"/>
      </g>
     </g>
    </g>
    <g id="ytick_14">
     <g id="line2d_47">
      <g>
       <use xlink:href="#mb9272d51b7" x="28.942188" y="252.883558" style="stroke: #000000; stroke-width: 0.6"/>
      </g>
     </g>
    </g>
    <g id="ytick_15">
     <g id="line2d_48">
      <g>
       <use xlink:href="#mb9272d51b7" x="28.942188" y="243.661202" style="stroke: #000000; stroke-width: 0.6"/>
      </g>
     </g>
    </g>
    <g id="ytick_16">
     <g id="line2d_49">
      <g>
       <use xlink:href="#mb9272d51b7" x="28.942188" y="225.21649" style="stroke: #000000; stroke-width: 0.6"/>
      </g>
     </g>
    </g>
    <g id="ytick_17">
     <g id="line2d_50">
      <g>
       <use xlink:href="#mb9272d51b7" x="28.942188" y="215.994135" style="stroke: #000000; stroke-width: 0.6"/>
      </g>
     </g>
    </g>
    <g id="ytick_18">
     <g id="line2d_51">
      <g>
       <use xlink:href="#mb9272d51b7" x="28.942188" y="206.771779" style="stroke: #000000; stroke-width: 0.6"/>
      </g>
     </g>
    </g>
    <g id="ytick_19">
     <g id="line2d_52">
      <g>
       <use xlink:href="#mb9272d51b7" x="28.942188" y="188.327067" style="stroke: #000000; stroke-width: 0.6"/>
      </g>
     </g>
    </g>
    <g id="ytick_20">
     <g id="line2d_53">
      <g>
       <use xlink:href="#mb9272d51b7" x="28.942188" y="179.104712" style="stroke: #000000; stroke-width: 0.6"/>
      </g>
     </g>
    </g>
    <g id="ytick_21">
     <g id="line2d_54">
      <g>
       <use xlink:href="#mb9272d51b7" x="28.942188" y="169.882356" style="stroke: #000000; stroke-width: 0.6"/>
      </g>
     </g>
    </g>
    <g id="ytick_22">
     <g id="line2d_55">
      <g>
       <use xlink:href="#mb9272d51b7" x="28.942188" y="151.437644" style="stroke: #000000; stroke-width: 0.6"/>
      </g>
     </g>
    </g>
    <g id="ytick_23">
     <g id="line2d_56">
      <g>
       <use xlink:href="#mb9272d51b7" x="28.942188" y="142.215288" style="stroke: #000000; stroke-width: 0.6"/>
      </g>
     </g>
    </g>
    <g id="ytick_24">
     <g id="line2d_57">
      <g>
       <use xlink:href="#mb9272d51b7" x="28.942188" y="132.992933" style="stroke: #000000; stroke-width: 0.6"/>
      </g>
     </g>
    </g>
    <g id="ytick_25">
     <g id="line2d_58">
      <g>
       <use xlink:href="#mb9272d51b7" x="28.942188" y="114.548221" style="stroke: #000000; stroke-width: 0.6"/>
      </g>
     </g>
    </g>
    <g id="ytick_26">
     <g id="line2d_59">
      <g>
       <use xlink:href="#mb9272d51b7" x="28.942188" y="105.325865" style="stroke: #000000; stroke-width: 0.6"/>
      </g>
     </g>
    </g>
    <g id="ytick_27">
     <g id="line2d_60">
      <g>
       <use xlink:href="#mb9272d51b7" x="28.942188" y="96.10351" style="stroke: #000000; stroke-width: 0.6"/>
      </g>
     </g>
    </g>
    <g id="ytick_28">
     <g id="line2d_61">
      <g>
       <use xlink:href="#mb9272d51b7" x="28.942188" y="77.658798" style="stroke: #000000; stroke-width: 0.6"/>
      </g>
     </g>
    </g>
    <g id="ytick_29">
     <g id="line2d_62">
      <g>
       <use xlink:href="#mb9272d51b7" x="28.942188" y="68.436442" style="stroke: #000000; stroke-width: 0.6"/>
      </g>
     </g>
    </g>
    <g id="ytick_30">
     <g id="line2d_63">
      <g>
       <use xlink:href="#mb9272d51b7" x="28.942188" y="59.214087" style="stroke: #000000; stroke-width: 0.6"/>
      </g>
     </g>
    </g>
    <g id="ytick_31">
     <g id="line2d_64">
      <g>
       <use xlink:href="#mb9272d51b7" x="28.942188" y="40.769375" style="stroke: #000000; stroke-width: 0.6"/>
      </g>
     </g>
    </g>
    <g id="ytick_32">
     <g id="line2d_65">
      <g>
       <use xlink:href="#mb9272d51b7" x="28.942188" y="31.547019" style="stroke: #000000; stroke-width: 0.6"/>
      </g>
     </g>
    </g>
    <g id="ytick_33">
     <g id="line2d_66">
      <g>
       <use xlink:href="#mb9272d51b7" x="28.942188" y="22.324663" style="stroke: #000000; stroke-width: 0.6"/>
      </g>
     </g>
    </g>
   </g>
   <g id="PathCollection_1"/>
   <g id="PathCollection_2">
    <path d="M 171.968815 275.90123 
L 170.427875 275.427094 
L 168.987852 274.97235 
L 166.006888 273.795654 
L 163.157895 272.446131 
L 163.025925 272.381929 
L 160.044961 270.690031 
L 158.15663 269.465167 
L 157.063998 268.736746 
L 154.083034 266.501023 
L 154.062851 266.484204 
L 151.102071 263.946392 
L 150.632061 263.50324 
L 148.121107 261.066138 
L 147.607461 260.522277 
L 145.140144 257.830659 
L 144.895313 257.541313 
L 142.449394 254.56035 
L 142.159181 254.195242 
L 140.22843 251.579386 
L 139.178217 250.109088 
L 138.171107 248.598423 
L 136.250041 245.617459 
L 136.197254 245.532622 
L 134.507847 242.636496 
L 133.21629 240.340395 
L 132.853716 239.655532 
L 131.334009 236.674569 
L 130.235327 234.433257 
L 129.892895 233.693605 
L 128.568023 230.712642 
L 127.298353 227.731678 
L 127.254363 227.623703 
L 126.14549 224.750715 
L 125.047241 221.769751 
L 124.2734 219.564304 
L 124.014894 218.788788 
L 123.070922 215.807824 
L 122.176633 212.826861 
L 121.332027 209.845897 
L 121.292436 209.697431 
L 120.573072 206.864934 
L 119.863318 203.88397 
L 119.200882 200.903007 
L 118.585763 197.922044 
L 118.311473 196.482021 
L 118.031302 194.94108 
L 117.534474 191.960117 
L 117.082813 188.979153 
L 116.676318 185.99819 
L 116.314989 183.017226 
L 115.998827 180.036263 
L 115.72783 177.055299 
L 115.501999 174.074336 
L 115.330509 171.244749 
L 115.321734 171.093372 
L 115.192127 168.112409 
L 115.105722 165.131445 
L 115.062519 162.150482 
L 115.062519 159.169518 
L 115.105722 156.188555 
L 115.192127 153.207591 
L 115.321734 150.226628 
L 115.330509 150.075251 
L 115.501999 147.245664 
L 115.72783 144.264701 
L 115.998827 141.283737 
L 116.314989 138.302774 
L 116.676318 135.32181 
L 117.082813 132.340847 
L 117.534474 129.359883 
L 118.031302 126.37892 
L 118.311473 124.837979 
L 118.585763 123.397956 
L 119.200882 120.416993 
L 119.863318 117.43603 
L 120.573072 114.455066 
L 121.292436 111.622569 
L 121.332027 111.474103 
L 122.176633 108.493139 
L 123.070922 105.512176 
L 124.014894 102.531212 
L 124.2734 101.755696 
L 125.047241 99.550249 
L 126.14549 96.569285 
L 127.254363 93.696297 
L 127.298353 93.588322 
L 128.568023 90.607358 
L 129.892895 87.626395 
L 130.235327 86.886743 
L 131.334009 84.645431 
L 132.853716 81.664468 
L 133.21629 80.979605 
L 134.507847 78.683504 
L 136.197254 75.787378 
L 136.250041 75.702541 
L 138.171107 72.721577 
L 139.178217 71.210912 
L 140.22843 69.740614 
L 142.159181 67.124758 
L 142.449394 66.75965 
L 144.895313 63.778687 
L 145.140144 63.489341 
L 147.607461 60.797723 
L 148.121107 60.253862 
L 150.632061 57.81676 
L 151.102071 57.373608 
L 154.062851 54.835796 
L 154.083034 54.818977 
L 157.063998 52.583254 
L 158.15663 51.854833 
L 160.044961 50.629969 
L 163.025925 48.938071 
L 163.157895 48.873869 
L 166.006888 47.524346 
L 168.987852 46.34765 
L 170.427875 45.892906 
L 171.968815 45.41877 
L 174.949779 44.730856 
L 177.930742 44.272246 
L 180.911706 44.042941 
L 183.892669 44.042941 
L 186.873633 44.272246 
L 189.854596 44.730856 
L 192.83556 45.41877 
L 194.3765 45.892906 
L 195.816523 46.34765 
L 198.797487 47.524346 
L 201.64648 48.873869 
L 201.77845 48.938071 
L 204.759414 50.629969 
L 206.647745 51.854833 
L 207.740377 52.583254 
L 210.721341 54.818977 
L 210.741524 54.835796 
L 213.702304 57.373608 
L 214.172314 57.81676 
L 216.683268 60.253862 
L 217.196914 60.797723 
L 219.664231 63.489341 
L 219.909062 63.778687 
L 222.354981 66.75965 
L 222.645194 67.124758 
L 224.575945 69.740614 
L 225.626158 71.210912 
L 226.633268 72.721577 
L 228.554334 75.702541 
L 228.607121 75.787378 
L 230.296528 78.683504 
L 231.588085 80.979605 
L 231.950659 81.664468 
L 233.470366 84.645431 
L 234.569048 86.886743 
L 234.91148 87.626395 
L 236.236352 90.607358 
L 237.506022 93.588322 
L 237.550012 93.696297 
L 238.658885 96.569285 
L 239.757134 99.550249 
L 240.530975 101.755696 
L 240.789481 102.531212 
L 241.733453 105.512176 
L 242.627742 108.493139 
L 243.472348 111.474103 
L 243.511939 111.622569 
L 244.231303 114.455066 
L 244.941057 117.43603 
L 245.603493 120.416993 
L 246.218612 123.397956 
L 246.492902 124.837979 
L 246.773073 126.37892 
L 247.269901 129.359883 
L 247.721562 132.340847 
L 248.128057 135.32181 
L 248.489386 138.302774 
L 248.805548 141.283737 
L 249.076545 144.264701 
L 249.302376 147.245664 
L 249.473866 150.075251 
L 249.482641 150.226628 
L 249.612248 153.207591 
L 249.698653 156.188555 
L 249.741856 159.169518 
L 249.741856 162.150482 
L 249.698653 165.131445 
L 249.612248 168.112409 
L 249.482641 171.093372 
L 249.473866 171.244749 
L 249.302376 174.074336 
L 249.076545 177.055299 
L 248.805548 180.036263 
L 248.489386 183.017226 
L 248.128057 185.99819 
L 247.721562 188.979153 
L 247.269901 191.960117 
L 246.773073 194.94108 
L 246.492902 196.482021 
L 246.218612 197.922044 
L 245.603493 200.903007 
L 244.941057 203.88397 
L 244.231303 206.864934 
L 243.511939 209.697431 
L 243.472348 209.845897 
L 242.627742 212.826861 
L 241.733453 215.807824 
L 240.789481 218.788788 
L 240.530975 219.564304 
L 239.757134 221.769751 
L 238.658885 224.750715 
L 237.550012 227.623703 
L 237.506022 227.731678 
L 236.236352 230.712642 
L 234.91148 233.693605 
L 234.569048 234.433257 
L 233.470366 236.674569 
L 231.950659 239.655532 
L 231.588085 240.340395 
L 230.296528 242.636496 
L 228.607121 245.532622 
L 228.554334 245.617459 
L 226.633268 248.598423 
L 225.626158 250.109088 
L 224.575945 251.579386 
L 222.645194 254.195242 
L 222.354981 254.56035 
L 219.909062 257.541313 
L 219.664231 257.830659 
L 217.196914 260.522277 
L 216.683268 261.066138 
L 214.172314 263.50324 
L 213.702304 263.946392 
L 210.741524 266.484204 
L 210.721341 266.501023 
L 207.740377 268.736746 
L 206.647745 269.465167 
L 204.759414 270.690031 
L 201.77845 272.381929 
L 201.64648 272.446131 
L 198.797487 273.795654 
L 195.816523 274.97235 
L 194.3765 275.427094 
L 192.83556 275.90123 
L 189.854596 276.589144 
L 186.873633 277.047754 
L 183.892669 277.277059 
L 180.911706 277.277059 
L 177.930742 277.047754 
L 174.949779 276.589144 
L 171.968815 275.90123 
z
" clip-path="url(#pa90b8e282e)" style="fill: none; stroke: #ffd500; stroke-width: 1.5"/>
   </g>
   <g id="PathCollection_3">
    <path d="M 139.823649 308.217692 
L 139.178217 307.664465 
L 136.197254 304.92039 
L 133.21629 301.932696 
L 130.235327 298.685495 
L 125.794933 293.312875 
L 123.532817 290.331911 
L 121.292436 287.202343 
L 117.502717 281.389021 
L 113.995286 275.427094 
L 110.821543 269.465167 
L 107.941446 263.50324 
L 105.321112 257.541313 
L 102.931679 251.579386 
L 100.425692 244.649311 
L 97.873907 236.674569 
L 96.180174 230.712642 
L 94.463765 224.027654 
L 92.64517 215.807824 
L 91.482801 209.828431 
L 90.043405 200.903007 
L 88.889483 191.960117 
L 88.038973 183.017226 
L 87.480043 174.074336 
L 87.200577 165.131445 
L 87.200577 156.188555 
L 87.480043 147.245664 
L 88.038973 138.302774 
L 88.889483 129.359883 
L 90.043405 120.416993 
L 91.485907 111.474103 
L 93.274485 102.531212 
L 94.638297 96.569285 
L 97.002509 87.626395 
L 98.796586 81.664468 
L 100.76036 75.702541 
L 103.406655 68.499547 
L 106.387619 61.257853 
L 109.332562 54.835796 
L 110.821543 51.854833 
L 113.995286 45.892906 
L 115.696072 42.911943 
L 119.404197 36.950016 
L 121.396459 33.969052 
L 125.794933 28.007125 
L 128.19799 25.026162 
L 130.766859 22.045198 
L 133.532629 19.064235 
L 136.534682 16.083271 
L 139.823649 13.102308 
L 139.823649 13.102308 
" clip-path="url(#pa90b8e282e)" style="fill: none; stroke: #4fff00; stroke-width: 1.5"/>
    <path d="M 224.980726 13.102308 
L 225.626158 13.655535 
L 228.607121 16.39961 
L 231.588085 19.387304 
L 234.569048 22.634505 
L 239.009442 28.007125 
L 241.271558 30.988089 
L 243.511939 34.117657 
L 247.301658 39.930979 
L 250.809089 45.892906 
L 253.982832 51.854833 
L 256.862929 57.81676 
L 259.483263 63.778687 
L 261.872696 69.740614 
L 264.378683 76.670689 
L 266.930468 84.645431 
L 268.624201 90.607358 
L 270.34061 97.292346 
L 272.159205 105.512176 
L 273.321574 111.491569 
L 274.76097 120.416993 
L 275.914892 129.359883 
L 276.765402 138.302774 
L 277.324332 147.245664 
L 277.603798 156.188555 
L 277.603798 165.131445 
L 277.324332 174.074336 
L 276.765402 183.017226 
L 275.914892 191.960117 
L 274.76097 200.903007 
L 273.318468 209.845897 
L 271.52989 218.788788 
L 270.166078 224.750715 
L 267.801866 233.693605 
L 266.007789 239.655532 
L 264.044015 245.617459 
L 261.39772 252.820453 
L 258.416756 260.062147 
L 255.471813 266.484204 
L 253.982832 269.465167 
L 250.809089 275.427094 
L 249.108303 278.408057 
L 245.400178 284.369984 
L 243.407916 287.350948 
L 239.009442 293.312875 
L 236.606385 296.293838 
L 234.037516 299.274802 
L 231.271746 302.255765 
L 228.269693 305.236729 
L 224.980726 308.217692 
L 224.980726 308.217692 
" clip-path="url(#pa90b8e282e)" style="fill: none; stroke: #4fff00; stroke-width: 1.5"/>
   </g>
   <g id="PathCollection_4">
    <path d="M 102.721793 308.217692 
L 100.918494 305.236729 
L 100.425692 304.405125 
L 99.197486 302.255765 
L 97.529566 299.274802 
L 97.444728 299.119881 
L 95.950499 296.293838 
L 94.463765 293.419486 
L 94.410459 293.312875 
L 92.953099 290.331911 
L 91.528861 287.350948 
L 91.482801 287.252248 
L 90.181134 284.369984 
L 88.866946 281.389021 
L 88.501838 280.540145 
L 87.613468 278.408057 
L 86.402452 275.427094 
L 85.520874 273.199951 
L 85.231529 272.446131 
L 84.117431 269.465167 
L 83.033445 266.484204 
L 82.539911 265.088208 
L 81.996049 263.50324 
L 81.002395 260.522277 
L 80.037966 257.541313 
L 79.558947 256.014443 
L 79.115795 254.56035 
L 78.235701 251.579386 
L 77.383997 248.598423 
L 76.577984 245.680098 
L 76.561164 245.617459 
L 75.788322 242.636496 
L 75.043081 239.655532 
L 74.325442 236.674569 
L 73.635404 233.693605 
L 73.59702 233.52088 
L 72.989834 230.712642 
L 72.372157 227.731678 
L 71.781335 224.750715 
L 71.217369 221.769751 
L 70.680258 218.788788 
L 70.616057 218.413716 
L 70.181742 215.807824 
L 69.711063 212.826861 
L 69.266534 209.845897 
L 68.848153 206.864934 
L 68.455921 203.88397 
L 68.089838 200.903007 
L 67.749903 197.922044 
L 67.635093 196.831352 
L 67.441219 194.94108 
L 67.160958 191.960117 
L 66.906175 188.979153 
L 66.67687 185.99819 
L 66.473043 183.017226 
L 66.294695 180.036263 
L 66.141825 177.055299 
L 66.014433 174.074336 
L 65.91252 171.093372 
L 65.836085 168.112409 
L 65.785129 165.131445 
L 65.75965 162.150482 
L 65.75965 159.169518 
L 65.785129 156.188555 
L 65.836085 153.207591 
L 65.91252 150.226628 
L 66.014433 147.245664 
L 66.141825 144.264701 
L 66.294695 141.283737 
L 66.473043 138.302774 
L 66.67687 135.32181 
L 66.906175 132.340847 
L 67.160958 129.359883 
L 67.441219 126.37892 
L 67.635093 124.488648 
L 67.749903 123.397956 
L 68.089838 120.416993 
L 68.455921 117.43603 
L 68.848153 114.455066 
L 69.266534 111.474103 
L 69.711063 108.493139 
L 70.181742 105.512176 
L 70.616057 102.906284 
L 70.680258 102.531212 
L 71.217369 99.550249 
L 71.781335 96.569285 
L 72.372157 93.588322 
L 72.989834 90.607358 
L 73.59702 87.79912 
L 73.635404 87.626395 
L 74.325442 84.645431 
L 75.043081 81.664468 
L 75.788322 78.683504 
L 76.561164 75.702541 
L 76.577984 75.639902 
L 77.383997 72.721577 
L 78.235701 69.740614 
L 79.115795 66.75965 
L 79.558947 65.305557 
L 80.037966 63.778687 
L 81.002395 60.797723 
L 81.996049 57.81676 
L 82.539911 56.231792 
L 83.033445 54.835796 
L 84.117431 51.854833 
L 85.231529 48.873869 
L 85.520874 48.120049 
L 86.402452 45.892906 
L 87.613468 42.911943 
L 88.501838 40.779855 
L 88.866946 39.930979 
L 90.181134 36.950016 
L 91.482801 34.067752 
L 91.528861 33.969052 
L 92.953099 30.988089 
L 94.410459 28.007125 
L 94.463765 27.900514 
L 95.950499 25.026162 
L 97.444728 22.200119 
L 97.529566 22.045198 
L 99.197486 19.064235 
L 100.425692 16.914875 
L 100.918494 16.083271 
L 102.721793 13.102308 
" clip-path="url(#pa90b8e282e)" style="fill: none; stroke: #00ff86; stroke-width: 1.5"/>
    <path d="M 262.082582 13.102308 
L 263.885881 16.083271 
L 264.378683 16.914875 
L 265.606889 19.064235 
L 267.274809 22.045198 
L 267.359647 22.200119 
L 268.853876 25.026162 
L 270.34061 27.900514 
L 270.393916 28.007125 
L 271.851276 30.988089 
L 273.275514 33.969052 
L 273.321574 34.067752 
L 274.623241 36.950016 
L 275.937429 39.930979 
L 276.302537 40.779855 
L 277.190907 42.911943 
L 278.401923 45.892906 
L 279.283501 48.120049 
L 279.572846 48.873869 
L 280.686944 51.854833 
L 281.77093 54.835796 
L 282.264464 56.231792 
L 282.808326 57.81676 
L 283.80198 60.797723 
L 284.766409 63.778687 
L 285.245428 65.305557 
L 285.68858 66.75965 
L 286.568674 69.740614 
L 287.420378 72.721577 
L 288.226391 75.639902 
L 288.243211 75.702541 
L 289.016053 78.683504 
L 289.761294 81.664468 
L 290.478933 84.645431 
L 291.168971 87.626395 
L 291.207355 87.79912 
L 291.814541 90.607358 
L 292.432218 93.588322 
L 293.02304 96.569285 
L 293.587006 99.550249 
L 294.124117 102.531212 
L 294.188318 102.906284 
L 294.622633 105.512176 
L 295.093312 108.493139 
L 295.537841 111.474103 
L 295.956222 114.455066 
L 296.348454 117.43603 
L 296.714537 120.416993 
L 297.054472 123.397956 
L 297.169282 124.488648 
L 297.363156 126.37892 
L 297.643417 129.359883 
L 297.8982 132.340847 
L 298.127505 135.32181 
L 298.331332 138.302774 
L 298.50968 141.283737 
L 298.66255 144.264701 
L 298.789942 147.245664 
L 298.891855 150.226628 
L 298.96829 153.207591 
L 299.019246 156.188555 
L 299.044725 159.169518 
L 299.044725 162.150482 
L 299.019246 165.131445 
L 298.96829 168.112409 
L 298.891855 171.093372 
L 298.789942 174.074336 
L 298.66255 177.055299 
L 298.50968 180.036263 
L 298.331332 183.017226 
L 298.127505 185.99819 
L 297.8982 188.979153 
L 297.643417 191.960117 
L 297.363156 194.94108 
L 297.169282 196.831352 
L 297.054472 197.922044 
L 296.714537 200.903007 
L 296.348454 203.88397 
L 295.956222 206.864934 
L 295.537841 209.845897 
L 295.093312 212.826861 
L 294.622633 215.807824 
L 294.188318 218.413716 
L 294.124117 218.788788 
L 293.587006 221.769751 
L 293.02304 224.750715 
L 292.432218 227.731678 
L 291.814541 230.712642 
L 291.207355 233.52088 
L 291.168971 233.693605 
L 290.478933 236.674569 
L 289.761294 239.655532 
L 289.016053 242.636496 
L 288.243211 245.617459 
L 288.226391 245.680098 
L 287.420378 248.598423 
L 286.568674 251.579386 
L 285.68858 254.56035 
L 285.245428 256.014443 
L 284.766409 257.541313 
L 283.80198 260.522277 
L 282.808326 263.50324 
L 282.264464 265.088208 
L 281.77093 266.484204 
L 280.686944 269.465167 
L 279.572846 272.446131 
L 279.283501 273.199951 
L 278.401923 275.427094 
L 277.190907 278.408057 
L 276.302537 280.540145 
L 275.937429 281.389021 
L 274.623241 284.369984 
L 273.321574 287.252248 
L 273.275514 287.350948 
L 271.851276 290.331911 
L 270.393916 293.312875 
L 270.34061 293.419486 
L 268.853876 296.293838 
L 267.359647 299.119881 
L 267.274809 299.274802 
L 265.606889 302.255765 
L 264.378683 304.405125 
L 263.885881 305.236729 
L 262.082582 308.217692 
" clip-path="url(#pa90b8e282e)" style="fill: none; stroke: #00ff86; stroke-width: 1.5"/>
   </g>
   <g id="PathCollection_5">
    <path d="M 78.073789 308.217692 
L 76.682673 305.236729 
L 76.577984 305.007723 
L 75.354892 302.255765 
L 74.057621 299.274802 
L 73.59702 298.193393 
L 72.809818 296.293838 
L 71.601319 293.312875 
L 70.616057 290.827327 
L 70.424844 290.331911 
L 69.300445 287.350948 
L 68.202196 284.369984 
L 67.635093 282.793164 
L 67.143043 281.389021 
L 66.123911 278.408057 
L 65.130256 275.427094 
L 64.65413 273.961127 
L 64.174381 272.446131 
L 63.255251 269.465167 
L 62.360962 266.484204 
L 61.673167 264.126049 
L 61.495945 263.50324 
L 60.671938 260.522277 
L 59.872168 257.541313 
L 59.096633 254.56035 
L 58.692203 252.955678 
L 58.353592 251.579386 
L 57.643838 248.598423 
L 56.957744 245.617459 
L 56.295307 242.636496 
L 55.71124 239.910846 
L 55.657802 239.655532 
L 55.056987 236.674569 
L 54.479281 233.693605 
L 53.924683 230.712642 
L 53.393194 227.731678 
L 52.884812 224.750715 
L 52.730276 223.80142 
L 52.407056 221.769751 
L 51.955395 218.788788 
L 51.526317 215.807824 
L 51.119822 212.826861 
L 50.73591 209.845897 
L 50.374581 206.864934 
L 50.035835 203.88397 
L 49.749313 201.182472 
L 49.720331 200.903007 
L 49.433275 197.922044 
L 49.168301 194.94108 
L 48.925407 191.960117 
L 48.704595 188.979153 
L 48.505864 185.99819 
L 48.329215 183.017226 
L 48.174646 180.036263 
L 48.042159 177.055299 
L 47.931753 174.074336 
L 47.843428 171.093372 
L 47.777184 168.112409 
L 47.733022 165.131445 
L 47.710941 162.150482 
L 47.710941 159.169518 
L 47.733022 156.188555 
L 47.777184 153.207591 
L 47.843428 150.226628 
L 47.931753 147.245664 
L 48.042159 144.264701 
L 48.174646 141.283737 
L 48.329215 138.302774 
L 48.505864 135.32181 
L 48.704595 132.340847 
L 48.925407 129.359883 
L 49.168301 126.37892 
L 49.433275 123.397956 
L 49.720331 120.416993 
L 49.749313 120.137528 
L 50.035835 117.43603 
L 50.374581 114.455066 
L 50.73591 111.474103 
L 51.119822 108.493139 
L 51.526317 105.512176 
L 51.955395 102.531212 
L 52.407056 99.550249 
L 52.730276 97.51858 
L 52.884812 96.569285 
L 53.393194 93.588322 
L 53.924683 90.607358 
L 54.479281 87.626395 
L 55.056987 84.645431 
L 55.657802 81.664468 
L 55.71124 81.409154 
L 56.295307 78.683504 
L 56.957744 75.702541 
L 57.643838 72.721577 
L 58.353592 69.740614 
L 58.692203 68.364322 
L 59.096633 66.75965 
L 59.872168 63.778687 
L 60.671938 60.797723 
L 61.495945 57.81676 
L 61.673167 57.193951 
L 62.360962 54.835796 
L 63.255251 51.854833 
L 64.174381 48.873869 
L 64.65413 47.358873 
L 65.130256 45.892906 
L 66.123911 42.911943 
L 67.143043 39.930979 
L 67.635093 38.526836 
L 68.202196 36.950016 
L 69.300445 33.969052 
L 70.424844 30.988089 
L 70.616057 30.492673 
L 71.601319 28.007125 
L 72.809818 25.026162 
L 73.59702 23.126607 
L 74.057621 22.045198 
L 75.354892 19.064235 
L 76.577984 16.312277 
L 76.682673 16.083271 
L 78.073789 13.102308 
" clip-path="url(#pa90b8e282e)" style="fill: none; stroke: #009eff; stroke-width: 1.5"/>
    <path d="M 286.730586 13.102308 
L 288.121702 16.083271 
L 288.226391 16.312277 
L 289.449483 19.064235 
L 290.746754 22.045198 
L 291.207355 23.126607 
L 291.994557 25.026162 
L 293.203056 28.007125 
L 294.188318 30.492673 
L 294.379531 30.988089 
L 295.50393 33.969052 
L 296.602179 36.950016 
L 297.169282 38.526836 
L 297.661332 39.930979 
L 298.680464 42.911943 
L 299.674119 45.892906 
L 300.150245 47.358873 
L 300.629994 48.873869 
L 301.549124 51.854833 
L 302.443413 54.835796 
L 303.131208 57.193951 
L 303.30843 57.81676 
L 304.132437 60.797723 
L 304.932207 63.778687 
L 305.707742 66.75965 
L 306.112172 68.364322 
L 306.450783 69.740614 
L 307.160537 72.721577 
L 307.846631 75.702541 
L 308.509068 78.683504 
L 309.093135 81.409154 
L 309.146573 81.664468 
L 309.747388 84.645431 
L 310.325094 87.626395 
L 310.879692 90.607358 
L 311.411181 93.588322 
L 311.919563 96.569285 
L 312.074099 97.51858 
L 312.397319 99.550249 
L 312.84898 102.531212 
L 313.278058 105.512176 
L 313.684553 108.493139 
L 314.068465 111.474103 
L 314.429794 114.455066 
L 314.76854 117.43603 
L 315.055062 120.137528 
L 315.084044 120.416993 
L 315.3711 123.397956 
L 315.636074 126.37892 
L 315.878968 129.359883 
L 316.09978 132.340847 
L 316.298511 135.32181 
L 316.47516 138.302774 
L 316.629729 141.283737 
L 316.762216 144.264701 
L 316.872622 147.245664 
L 316.960947 150.226628 
L 317.027191 153.207591 
L 317.071353 156.188555 
L 317.093434 159.169518 
L 317.093434 162.150482 
L 317.071353 165.131445 
L 317.027191 168.112409 
L 316.960947 171.093372 
L 316.872622 174.074336 
L 316.762216 177.055299 
L 316.629729 180.036263 
L 316.47516 183.017226 
L 316.298511 185.99819 
L 316.09978 188.979153 
L 315.878968 191.960117 
L 315.636074 194.94108 
L 315.3711 197.922044 
L 315.084044 200.903007 
L 315.055062 201.182472 
L 314.76854 203.88397 
L 314.429794 206.864934 
L 314.068465 209.845897 
L 313.684553 212.826861 
L 313.278058 215.807824 
L 312.84898 218.788788 
L 312.397319 221.769751 
L 312.074099 223.80142 
L 311.919563 224.750715 
L 311.411181 227.731678 
L 310.879692 230.712642 
L 310.325094 233.693605 
L 309.747388 236.674569 
L 309.146573 239.655532 
L 309.093135 239.910846 
L 308.509068 242.636496 
L 307.846631 245.617459 
L 307.160537 248.598423 
L 306.450783 251.579386 
L 306.112172 252.955678 
L 305.707742 254.56035 
L 304.932207 257.541313 
L 304.132437 260.522277 
L 303.30843 263.50324 
L 303.131208 264.126049 
L 302.443413 266.484204 
L 301.549124 269.465167 
L 300.629994 272.446131 
L 300.150245 273.961127 
L 299.674119 275.427094 
L 298.680464 278.408057 
L 297.661332 281.389021 
L 297.169282 282.793164 
L 296.602179 284.369984 
L 295.50393 287.350948 
L 294.379531 290.331911 
L 294.188318 290.827327 
L 293.203056 293.312875 
L 291.994557 296.293838 
L 291.207355 298.193393 
L 290.746754 299.274802 
L 289.449483 302.255765 
L 288.226391 305.007723 
L 288.121702 305.236729 
L 286.730586 308.217692 
" clip-path="url(#pa90b8e282e)" style="fill: none; stroke: #009eff; stroke-width: 1.5"/>
   </g>
   <g id="PathCollection_6">
    <path d="M 58.218665 308.217692 
L 57.059401 305.236729 
L 55.923796 302.255765 
L 55.71124 301.685934 
L 54.832765 299.274802 
L 53.769786 296.293838 
L 52.730276 293.31391 
L 52.729923 293.312875 
L 51.736269 290.331911 
L 50.765197 287.350948 
L 49.816709 284.369984 
L 49.749313 284.153001 
L 48.909882 281.389021 
L 48.026633 278.408057 
L 47.165466 275.427094 
L 46.768349 274.016284 
L 46.335988 272.446131 
L 45.536744 269.465167 
L 44.759101 266.484204 
L 44.00306 263.50324 
L 43.787386 262.627856 
L 43.279657 260.522277 
L 42.581985 257.541313 
L 41.905454 254.56035 
L 41.250065 251.579386 
L 40.806422 249.494264 
L 40.619788 248.598423 
L 40.019456 245.617459 
L 39.439824 242.636496 
L 38.880893 239.655532 
L 38.342664 236.674569 
L 37.825459 233.695468 
L 37.825142 233.693605 
L 37.338454 230.712642 
L 36.872045 227.731678 
L 36.425914 224.750715 
L 36.000062 221.769751 
L 35.594489 218.788788 
L 35.209194 215.807824 
L 34.844495 212.829449 
" clip-path="url(#pa90b8e282e)" style="fill: none; stroke: #3700ff; stroke-width: 1.5"/>
    <path d="M 329.95988 212.829449 
L 329.595181 215.807824 
L 329.209886 218.788788 
L 328.804313 221.769751 
L 328.378461 224.750715 
L 327.93233 227.731678 
L 327.465921 230.712642 
L 326.979233 233.693605 
L 326.978916 233.695468 
L 326.461711 236.674569 
L 325.923482 239.655532 
L 325.364551 242.636496 
L 324.784919 245.617459 
L 324.184587 248.598423 
L 323.997953 249.494264 
L 323.55431 251.579386 
L 322.898921 254.56035 
L 322.22239 257.541313 
L 321.524718 260.522277 
L 321.016989 262.627856 
L 320.801315 263.50324 
L 320.045274 266.484204 
L 319.267631 269.465167 
L 318.468387 272.446131 
L 318.036026 274.016284 
L 317.638909 275.427094 
L 316.777742 278.408057 
L 315.894493 281.389021 
L 315.055062 284.153001 
L 314.987666 284.369984 
L 314.039178 287.350948 
L 313.068106 290.331911 
L 312.074452 293.312875 
L 312.074099 293.31391 
L 311.034589 296.293838 
L 309.97161 299.274802 
L 309.093135 301.685934 
L 308.880579 302.255765 
L 307.744974 305.236729 
L 306.58571 308.217692 
" clip-path="url(#pa90b8e282e)" style="fill: none; stroke: #3700ff; stroke-width: 1.5"/>
    <path d="M 34.844495 108.490551 
L 35.209194 105.512176 
L 35.594489 102.531212 
L 36.000062 99.550249 
L 36.425914 96.569285 
L 36.872045 93.588322 
L 37.338454 90.607358 
L 37.825142 87.626395 
L 37.825459 87.624532 
L 38.342664 84.645431 
L 38.880893 81.664468 
L 39.439824 78.683504 
L 40.019456 75.702541 
L 40.619788 72.721577 
L 40.806422 71.825736 
L 41.250065 69.740614 
L 41.905454 66.75965 
L 42.581985 63.778687 
L 43.279657 60.797723 
L 43.787386 58.692144 
L 44.00306 57.81676 
L 44.759101 54.835796 
L 45.536744 51.854833 
L 46.335988 48.873869 
L 46.768349 47.303716 
L 47.165466 45.892906 
L 48.026633 42.911943 
L 48.909882 39.930979 
L 49.749313 37.166999 
L 49.816709 36.950016 
L 50.765197 33.969052 
L 51.736269 30.988089 
L 52.729923 28.007125 
L 52.730276 28.00609 
L 53.769786 25.026162 
L 54.832765 22.045198 
L 55.71124 19.634066 
L 55.923796 19.064235 
L 57.059401 16.083271 
L 58.218665 13.102308 
" clip-path="url(#pa90b8e282e)" style="fill: none; stroke: #3700ff; stroke-width: 1.5"/>
    <path d="M 306.58571 13.102308 
L 307.744974 16.083271 
L 308.880579 19.064235 
L 309.093135 19.634066 
L 309.97161 22.045198 
L 311.034589 25.026162 
L 312.074099 28.00609 
L 312.074452 28.007125 
L 313.068106 30.988089 
L 314.039178 33.969052 
L 314.987666 36.950016 
L 315.055062 37.166999 
L 315.894493 39.930979 
L 316.777742 42.911943 
L 317.638909 45.892906 
L 318.036026 47.303716 
L 318.468387 48.873869 
L 319.267631 51.854833 
L 320.045274 54.835796 
L 320.801315 57.81676 
L 321.016989 58.692144 
L 321.524718 60.797723 
L 322.22239 63.778687 
L 322.898921 66.75965 
L 323.55431 69.740614 
L 323.997953 71.825736 
L 324.184587 72.721577 
L 324.784919 75.702541 
L 325.364551 78.683504 
L 325.923482 81.664468 
L 326.461711 84.645431 
L 326.978916 87.624532 
L 326.979233 87.626395 
L 327.465921 90.607358 
L 327.93233 93.588322 
L 328.378461 96.569285 
L 328.804313 99.550249 
L 329.209886 102.531212 
L 329.595181 105.512176 
L 329.95988 108.490551 
" clip-path="url(#pa90b8e282e)" style="fill: none; stroke: #3700ff; stroke-width: 1.5"/>
   </g>
   <g id="PathCollection_7">
    <path d="M 41.129492 308.217692 
L 40.806422 307.288042 
L 40.108406 305.236729 
L 39.114751 302.255765 
L 38.141798 299.274802 
L 37.825459 298.284523 
L 37.202523 296.293838 
L 36.289984 293.312875 
L 35.397722 290.331911 
L 34.844495 288.440646 
" clip-path="url(#pa90b8e282e)" style="fill: none; stroke: #ff00ed; stroke-width: 1.5"/>
    <path d="M 329.95988 288.440646 
L 329.406653 290.331911 
L 328.514391 293.312875 
L 327.601852 296.293838 
L 326.978916 298.284523 
L 326.662577 299.274802 
L 325.689624 302.255765 
L 324.695969 305.236729 
L 323.997953 307.288042 
L 323.674883 308.217692 
" clip-path="url(#pa90b8e282e)" style="fill: none; stroke: #ff00ed; stroke-width: 1.5"/>
    <path d="M 34.844495 32.879354 
L 35.397722 30.988089 
L 36.289984 28.007125 
L 37.202523 25.026162 
L 37.825459 23.035477 
L 38.141798 22.045198 
L 39.114751 19.064235 
L 40.108406 16.083271 
L 40.806422 14.031958 
L 41.129492 13.102308 
" clip-path="url(#pa90b8e282e)" style="fill: none; stroke: #ff00ed; stroke-width: 1.5"/>
    <path d="M 323.674883 13.102308 
L 323.997953 14.031958 
L 324.695969 16.083271 
L 325.689624 19.064235 
L 326.662577 22.045198 
L 326.978916 23.035477 
L 327.601852 25.026162 
L 328.514391 28.007125 
L 329.406653 30.988089 
L 329.95988 32.879354 
" clip-path="url(#pa90b8e282e)" style="fill: none; stroke: #ff00ed; stroke-width: 1.5"/>
   </g>
   <g id="PathCollection_8"/>
   <g id="patch_3">
    <path d="M 28.942188 314.12 
L 28.942188 7.2 
" style="fill: none; stroke: #000000; stroke-width: 0.8; stroke-linejoin: miter; stroke-linecap: square"/>
   </g>
   <g id="patch_4">
    <path d="M 335.862187 314.12 
L 335.862187 7.2 
" style="fill: none; stroke: #000000; stroke-width: 0.8; stroke-linejoin: miter; stroke-linecap: square"/>
   </g>
   <g id="patch_5">
    <path d="M 28.942188 314.12 
L 335.862187 314.12 
" style="fill: none; stroke: #000000; stroke-width: 0.8; stroke-linejoin: miter; stroke-linecap: square"/>
   </g>
   <g id="patch_6">
    <path d="M 28.942188 7.2 
L 335.862187 7.2 
" style="fill: none; stroke: #000000; stroke-width: 0.8; stroke-linejoin: miter; stroke-linecap: square"/>
   </g>
   <g id="text_19">
    <g clip-path="url(#pa90b8e282e)">
     <!-- 40.00 -->
     <g style="fill: #0000ff" transform="translate(235.643228 97.386976) rotate(-291.25395) scale(0.09 -0.09)">
      <defs>
       <path id="DejaVuSans-2e" d="M 684 794 
L 1344 794 
L 1344 0 
L 684 0 
L 684 794 
z
" transform="scale(0.015625)"/>
      </defs>
      <use xlink:href="#DejaVuSans-34"/>
      <use xlink:href="#DejaVuSans-30" x="63.623047"/>
      <use xlink:href="#DejaVuSans-2e" x="127.246094"/>
      <use xlink:href="#DejaVuSans-30" x="159.033203"/>
      <use xlink:href="#DejaVuSans-30" x="222.65625"/>
     </g>
    </g>
   </g>
   <g id="text_20">
    <g clip-path="url(#pa90b8e282e)">
     <!-- 80.00 -->
     <g style="fill: #0000ff" transform="translate(92.502451 112.591437) rotate(-72.811691) scale(0.09 -0.09)">
      <use xlink:href="#DejaVuSans-38"/>
      <use xlink:href="#DejaVuSans-30" x="63.623047"/>
      <use xlink:href="#DejaVuSans-2e" x="127.246094"/>
      <use xlink:href="#DejaVuSans-30" x="159.033203"/>
      <use xlink:href="#DejaVuSans-30" x="222.65625"/>
     </g>
    </g>
   </g>
   <g id="text_21">
    <g clip-path="url(#pa90b8e282e)">
     <!-- 80.00 -->
     <g style="fill: #0000ff" transform="translate(269.432984 234.81094) rotate(-72.811691) scale(0.09 -0.09)">
      <use xlink:href="#DejaVuSans-38"/>
      <use xlink:href="#DejaVuSans-30" x="63.623047"/>
      <use xlink:href="#DejaVuSans-2e" x="127.246094"/>
      <use xlink:href="#DejaVuSans-30" x="159.033203"/>
      <use xlink:href="#DejaVuSans-30" x="222.65625"/>
     </g>
    </g>
   </g>
   <g id="text_22">
    <g clip-path="url(#pa90b8e282e)">
     <!-- 120.00 -->
     <g style="fill: #0000ff" transform="translate(73.16976 250.229442) rotate(-294.658648) scale(0.09 -0.09)">
      <defs>
       <path id="DejaVuSans-31" d="M 794 531 
L 1825 531 
L 1825 4091 
L 703 3866 
L 703 4441 
L 1819 4666 
L 2450 4666 
L 2450 531 
L 3481 531 
L 3481 0 
L 794 0 
L 794 531 
z
" transform="scale(0.015625)"/>
      </defs>
      <use xlink:href="#DejaVuSans-31"/>
      <use xlink:href="#DejaVuSans-32" x="63.623047"/>
      <use xlink:href="#DejaVuSans-30" x="127.246094"/>
      <use xlink:href="#DejaVuSans-2e" x="190.869141"/>
      <use xlink:href="#DejaVuSans-30" x="222.65625"/>
      <use xlink:href="#DejaVuSans-30" x="286.279297"/>
     </g>
    </g>
   </g>
   <g id="text_23">
    <g clip-path="url(#pa90b8e282e)">
     <!-- 120.00 -->
     <g style="fill: #0000ff" transform="translate(273.982037 44.542962) rotate(-294.658648) scale(0.09 -0.09)">
      <use xlink:href="#DejaVuSans-31"/>
      <use xlink:href="#DejaVuSans-32" x="63.623047"/>
      <use xlink:href="#DejaVuSans-30" x="127.246094"/>
      <use xlink:href="#DejaVuSans-2e" x="190.869141"/>
      <use xlink:href="#DejaVuSans-30" x="222.65625"/>
      <use xlink:href="#DejaVuSans-30" x="286.279297"/>
     </g>
    </g>
   </g>
   <g id="text_24">
    <g clip-path="url(#pa90b8e282e)">
     <!-- 160.00 -->
     <g style="fill: #0000ff" transform="translate(49.639255 157.156734) rotate(-86.308875) scale(0.09 -0.09)">
      <use xlink:href="#DejaVuSans-31"/>
      <use xlink:href="#DejaVuSans-36" x="63.623047"/>
      <use xlink:href="#DejaVuSans-30" x="127.246094"/>
      <use xlink:href="#DejaVuSans-2e" x="190.869141"/>
      <use xlink:href="#DejaVuSans-30" x="222.65625"/>
      <use xlink:href="#DejaVuSans-30" x="286.279297"/>
     </g>
    </g>
   </g>
   <g id="text_25">
    <g clip-path="url(#pa90b8e282e)">
     <!-- 160.00 -->
     <g style="fill: #0000ff" transform="translate(318.094337 195.909259) rotate(-86.308875) scale(0.09 -0.09)">
      <use xlink:href="#DejaVuSans-31"/>
      <use xlink:href="#DejaVuSans-36" x="63.623047"/>
      <use xlink:href="#DejaVuSans-30" x="127.246094"/>
      <use xlink:href="#DejaVuSans-2e" x="190.869141"/>
      <use xlink:href="#DejaVuSans-30" x="222.65625"/>
      <use xlink:href="#DejaVuSans-30" x="286.279297"/>
     </g>
    </g>
   </g>
   <g id="text_26">
    <g clip-path="url(#pa90b8e282e)">
     <!-- 200.00 -->
     <g style="fill: #0000ff" transform="translate(36.500498 248.450467) rotate(-288.239332) scale(0.09 -0.09)">
      <use xlink:href="#DejaVuSans-32"/>
      <use xlink:href="#DejaVuSans-30" x="63.623047"/>
      <use xlink:href="#DejaVuSans-30" x="127.246094"/>
      <use xlink:href="#DejaVuSans-2e" x="190.869141"/>
      <use xlink:href="#DejaVuSans-30" x="222.65625"/>
      <use xlink:href="#DejaVuSans-30" x="286.279297"/>
     </g>
    </g>
   </g>
   <g id="text_27">
    <g clip-path="url(#pa90b8e282e)">
     <!-- 200.00 -->
     <g style="fill: #0000ff" transform="translate(318.184492 279.227404) rotate(-71.588497) scale(0.09 -0.09)">
      <use xlink:href="#DejaVuSans-32"/>
      <use xlink:href="#DejaVuSans-30" x="63.623047"/>
      <use xlink:href="#DejaVuSans-30" x="127.246094"/>
      <use xlink:href="#DejaVuSans-2e" x="190.869141"/>
      <use xlink:href="#DejaVuSans-30" x="222.65625"/>
      <use xlink:href="#DejaVuSans-30" x="286.279297"/>
     </g>
    </g>
   </g>
   <g id="text_28">
    <g clip-path="url(#pa90b8e282e)">
     <!-- 200.00 -->
     <g style="fill: #0000ff" transform="translate(41.386237 73.540924) rotate(-71.588497) scale(0.09 -0.09)">
      <use xlink:href="#DejaVuSans-32"/>
      <use xlink:href="#DejaVuSans-30" x="63.623047"/>
      <use xlink:href="#DejaVuSans-30" x="127.246094"/>
      <use xlink:href="#DejaVuSans-2e" x="190.869141"/>
      <use xlink:href="#DejaVuSans-30" x="222.65625"/>
      <use xlink:href="#DejaVuSans-30" x="286.279297"/>
     </g>
    </g>
   </g>
   <g id="text_29">
    <g clip-path="url(#pa90b8e282e)">
     <!-- 200.00 -->
     <g style="fill: #0000ff" transform="translate(313.730102 44.514755) rotate(-288.239332) scale(0.09 -0.09)">
      <use xlink:href="#DejaVuSans-32"/>
      <use xlink:href="#DejaVuSans-30" x="63.623047"/>
      <use xlink:href="#DejaVuSans-30" x="127.246094"/>
      <use xlink:href="#DejaVuSans-2e" x="190.869141"/>
      <use xlink:href="#DejaVuSans-30" x="222.65625"/>
      <use xlink:href="#DejaVuSans-30" x="286.279297"/>
     </g>
    </g>
   </g>
  </g>
 </g>
 <defs>
  <clipPath id="pa90b8e282e">
   <rect x="28.942188" y="7.2" width="306.92" height="306.92"/>
  </clipPath>
 </defs>
</svg>
