<?xml version="1.0" encoding="utf-8" standalone="no"?>
<!DOCTYPE svg PUBLIC "-//W3C//DTD SVG 1.1//EN"
  "http://www.w3.org/Graphics/SVG/1.1/DTD/svg11.dtd">
<svg xmlns:xlink="http://www.w3.org/1999/xlink" width="341.987187pt" height="336.923125pt" viewBox="0 0 341.987187 336.923125" xmlns="http://www.w3.org/2000/svg" version="1.1">
 <metadata>
  <rdf:RDF xmlns:dc="http://purl.org/dc/elements/1.1/" xmlns:cc="http://creativecommons.org/ns#" xmlns:rdf="http://www.w3.org/1999/02/22-rdf-syntax-ns#">
   <cc:Work>
    <dc:type rdf:resource="http://purl.org/dc/dcmitype/StillImage"/>
    <dc:date>2025-04-08T16:54:38.587109</dc:date>
    <dc:format>image/svg+xml</dc:format>
    <dc:creator>
     <cc:Agent>
      <dc:title>Matplotlib v3.6.3, https://matplotlib.org/</dc:title>
     </cc:Agent>
    </dc:creator>
   </cc:Work>
  </rdf:RDF>
 </metadata>
 <defs>
  <style type="text/css">*{stroke-linejoin: round; stroke-linecap: butt}</style>
 </defs>
 <g id="figure_1">
  <g id="patch_1">
   <path d="M 0 336.923125 
L 341.987187 336.923125 
L 341.987187 0 
L 0 0 
z
" style="fill: #ffffff"/>
  </g>
  <g id="axes_1">
   <g id="patch_2">
    <path d="M 48.427188 293.56 
L 334.787187 293.56 
L 334.787187 7.2 
L 48.427188 7.2 
z
" style="fill: #ffffff"/>
   </g>
   <g id="matplotlib.axis_1">
    <g id="xtick_1">
     <g id="line2d_1">
      <defs>
       <path id="m471ee532a1" d="M 0 0 
L 0 3.5 
" style="stroke: #000000; stroke-width: 0.8"/>
      </defs>
      <g>
       <use xlink:href="#m471ee532a1" x="53.934111" y="293.56" style="stroke: #000000; stroke-width: 0.8"/>
      </g>
     </g>
     <g id="text_1">
      <!-- −4 -->
      <g transform="translate(46.563017 308.158437) scale(0.1 -0.1)">
       <defs>
        <path id="DejaVuSans-2212" d="M 678 2272 
L 4684 2272 
L 4684 1741 
L 678 1741 
L 678 2272 
z
" transform="scale(0.015625)"/>
        <path id="DejaVuSans-34" d="M 2419 4116 
L 825 1625 
L 2419 1625 
L 2419 4116 
z
M 2253 4666 
L 3047 4666 
L 3047 1625 
L 3713 1625 
L 3713 1100 
L 3047 1100 
L 3047 0 
L 2419 0 
L 2419 1100 
L 313 1100 
L 313 1709 
L 2253 4666 
z
" transform="scale(0.015625)"/>
       </defs>
       <use xlink:href="#DejaVuSans-2212"/>
       <use xlink:href="#DejaVuSans-34" x="83.789062"/>
      </g>
     </g>
    </g>
    <g id="xtick_2">
     <g id="line2d_2">
      <g>
       <use xlink:href="#m471ee532a1" x="88.35238" y="293.56" style="stroke: #000000; stroke-width: 0.8"/>
      </g>
     </g>
     <g id="text_2">
      <!-- −3 -->
      <g transform="translate(80.981286 308.158437) scale(0.1 -0.1)">
       <defs>
        <path id="DejaVuSans-33" d="M 2597 2516 
Q 3050 2419 3304 2112 
Q 3559 1806 3559 1356 
Q 3559 666 3084 287 
Q 2609 -91 1734 -91 
Q 1441 -91 1130 -33 
Q 819 25 488 141 
L 488 750 
Q 750 597 1062 519 
Q 1375 441 1716 441 
Q 2309 441 2620 675 
Q 2931 909 2931 1356 
Q 2931 1769 2642 2001 
Q 2353 2234 1838 2234 
L 1294 2234 
L 1294 2753 
L 1863 2753 
Q 2328 2753 2575 2939 
Q 2822 3125 2822 3475 
Q 2822 3834 2567 4026 
Q 2313 4219 1838 4219 
Q 1578 4219 1281 4162 
Q 984 4106 628 3988 
L 628 4550 
Q 988 4650 1302 4700 
Q 1616 4750 1894 4750 
Q 2613 4750 3031 4423 
Q 3450 4097 3450 3541 
Q 3450 3153 3228 2886 
Q 3006 2619 2597 2516 
z
" transform="scale(0.015625)"/>
       </defs>
       <use xlink:href="#DejaVuSans-2212"/>
       <use xlink:href="#DejaVuSans-33" x="83.789062"/>
      </g>
     </g>
    </g>
    <g id="xtick_3">
     <g id="line2d_3">
      <g>
       <use xlink:href="#m471ee532a1" x="122.770649" y="293.56" style="stroke: #000000; stroke-width: 0.8"/>
      </g>
     </g>
     <g id="text_3">
      <!-- −2 -->
      <g transform="translate(115.399555 308.158437) scale(0.1 -0.1)">
       <defs>
        <path id="DejaVuSans-32" d="M 1228 531 
L 3431 531 
L 3431 0 
L 469 0 
L 469 531 
Q 828 903 1448 1529 
Q 2069 2156 2228 2338 
Q 2531 2678 2651 2914 
Q 2772 3150 2772 3378 
Q 2772 3750 2511 3984 
Q 2250 4219 1831 4219 
Q 1534 4219 1204 4116 
Q 875 4013 500 3803 
L 500 4441 
Q 881 4594 1212 4672 
Q 1544 4750 1819 4750 
Q 2544 4750 2975 4387 
Q 3406 4025 3406 3419 
Q 3406 3131 3298 2873 
Q 3191 2616 2906 2266 
Q 2828 2175 2409 1742 
Q 1991 1309 1228 531 
z
" transform="scale(0.015625)"/>
       </defs>
       <use xlink:href="#DejaVuSans-2212"/>
       <use xlink:href="#DejaVuSans-32" x="83.789062"/>
      </g>
     </g>
    </g>
    <g id="xtick_4">
     <g id="line2d_4">
      <g>
       <use xlink:href="#m471ee532a1" x="157.188918" y="293.56" style="stroke: #000000; stroke-width: 0.8"/>
      </g>
     </g>
     <g id="text_4">
      <!-- −1 -->
      <g transform="translate(149.817825 308.158437) scale(0.1 -0.1)">
       <defs>
        <path id="DejaVuSans-31" d="M 794 531 
L 1825 531 
L 1825 4091 
L 703 3866 
L 703 4441 
L 1819 4666 
L 2450 4666 
L 2450 531 
L 3481 531 
L 3481 0 
L 794 0 
L 794 531 
z
" transform="scale(0.015625)"/>
       </defs>
       <use xlink:href="#DejaVuSans-2212"/>
       <use xlink:href="#DejaVuSans-31" x="83.789062"/>
      </g>
     </g>
    </g>
    <g id="xtick_5">
     <g id="line2d_5">
      <g>
       <use xlink:href="#m471ee532a1" x="191.607187" y="293.56" style="stroke: #000000; stroke-width: 0.8"/>
      </g>
     </g>
     <g id="text_5">
      <!-- 0 -->
      <g transform="translate(188.425937 308.158437) scale(0.1 -0.1)">
       <defs>
        <path id="DejaVuSans-30" d="M 2034 4250 
Q 1547 4250 1301 3770 
Q 1056 3291 1056 2328 
Q 1056 1369 1301 889 
Q 1547 409 2034 409 
Q 2525 409 2770 889 
Q 3016 1369 3016 2328 
Q 3016 3291 2770 3770 
Q 2525 4250 2034 4250 
z
M 2034 4750 
Q 2819 4750 3233 4129 
Q 3647 3509 3647 2328 
Q 3647 1150 3233 529 
Q 2819 -91 2034 -91 
Q 1250 -91 836 529 
Q 422 1150 422 2328 
Q 422 3509 836 4129 
Q 1250 4750 2034 4750 
z
" transform="scale(0.015625)"/>
       </defs>
       <use xlink:href="#DejaVuSans-30"/>
      </g>
     </g>
    </g>
    <g id="xtick_6">
     <g id="line2d_6">
      <g>
       <use xlink:href="#m471ee532a1" x="226.025457" y="293.56" style="stroke: #000000; stroke-width: 0.8"/>
      </g>
     </g>
     <g id="text_6">
      <!-- 1 -->
      <g transform="translate(222.844207 308.158437) scale(0.1 -0.1)">
       <use xlink:href="#DejaVuSans-31"/>
      </g>
     </g>
    </g>
    <g id="xtick_7">
     <g id="line2d_7">
      <g>
       <use xlink:href="#m471ee532a1" x="260.443726" y="293.56" style="stroke: #000000; stroke-width: 0.8"/>
      </g>
     </g>
     <g id="text_7">
      <!-- 2 -->
      <g transform="translate(257.262476 308.158437) scale(0.1 -0.1)">
       <use xlink:href="#DejaVuSans-32"/>
      </g>
     </g>
    </g>
    <g id="xtick_8">
     <g id="line2d_8">
      <g>
       <use xlink:href="#m471ee532a1" x="294.861995" y="293.56" style="stroke: #000000; stroke-width: 0.8"/>
      </g>
     </g>
     <g id="text_8">
      <!-- 3 -->
      <g transform="translate(291.680745 308.158437) scale(0.1 -0.1)">
       <use xlink:href="#DejaVuSans-33"/>
      </g>
     </g>
    </g>
    <g id="xtick_9">
     <g id="line2d_9">
      <g>
       <use xlink:href="#m471ee532a1" x="329.280264" y="293.56" style="stroke: #000000; stroke-width: 0.8"/>
      </g>
     </g>
     <g id="text_9">
      <!-- 4 -->
      <g transform="translate(326.099014 308.158437) scale(0.1 -0.1)">
       <use xlink:href="#DejaVuSans-34"/>
      </g>
     </g>
    </g>
    <g id="xtick_10">
     <g id="line2d_10">
      <defs>
       <path id="mb446332c3d" d="M 0 0 
L 0 2 
" style="stroke: #000000; stroke-width: 0.6"/>
      </defs>
      <g>
       <use xlink:href="#mb446332c3d" x="60.817764" y="293.56" style="stroke: #000000; stroke-width: 0.6"/>
      </g>
     </g>
    </g>
    <g id="xtick_11">
     <g id="line2d_11">
      <g>
       <use xlink:href="#mb446332c3d" x="67.701418" y="293.56" style="stroke: #000000; stroke-width: 0.6"/>
      </g>
     </g>
    </g>
    <g id="xtick_12">
     <g id="line2d_12">
      <g>
       <use xlink:href="#mb446332c3d" x="74.585072" y="293.56" style="stroke: #000000; stroke-width: 0.6"/>
      </g>
     </g>
    </g>
    <g id="xtick_13">
     <g id="line2d_13">
      <g>
       <use xlink:href="#mb446332c3d" x="81.468726" y="293.56" style="stroke: #000000; stroke-width: 0.6"/>
      </g>
     </g>
    </g>
    <g id="xtick_14">
     <g id="line2d_14">
      <g>
       <use xlink:href="#mb446332c3d" x="95.236034" y="293.56" style="stroke: #000000; stroke-width: 0.6"/>
      </g>
     </g>
    </g>
    <g id="xtick_15">
     <g id="line2d_15">
      <g>
       <use xlink:href="#mb446332c3d" x="102.119687" y="293.56" style="stroke: #000000; stroke-width: 0.6"/>
      </g>
     </g>
    </g>
    <g id="xtick_16">
     <g id="line2d_16">
      <g>
       <use xlink:href="#mb446332c3d" x="109.003341" y="293.56" style="stroke: #000000; stroke-width: 0.6"/>
      </g>
     </g>
    </g>
    <g id="xtick_17">
     <g id="line2d_17">
      <g>
       <use xlink:href="#mb446332c3d" x="115.886995" y="293.56" style="stroke: #000000; stroke-width: 0.6"/>
      </g>
     </g>
    </g>
    <g id="xtick_18">
     <g id="line2d_18">
      <g>
       <use xlink:href="#mb446332c3d" x="129.654303" y="293.56" style="stroke: #000000; stroke-width: 0.6"/>
      </g>
     </g>
    </g>
    <g id="xtick_19">
     <g id="line2d_19">
      <g>
       <use xlink:href="#mb446332c3d" x="136.537957" y="293.56" style="stroke: #000000; stroke-width: 0.6"/>
      </g>
     </g>
    </g>
    <g id="xtick_20">
     <g id="line2d_20">
      <g>
       <use xlink:href="#mb446332c3d" x="143.421611" y="293.56" style="stroke: #000000; stroke-width: 0.6"/>
      </g>
     </g>
    </g>
    <g id="xtick_21">
     <g id="line2d_21">
      <g>
       <use xlink:href="#mb446332c3d" x="150.305264" y="293.56" style="stroke: #000000; stroke-width: 0.6"/>
      </g>
     </g>
    </g>
    <g id="xtick_22">
     <g id="line2d_22">
      <g>
       <use xlink:href="#mb446332c3d" x="164.072572" y="293.56" style="stroke: #000000; stroke-width: 0.6"/>
      </g>
     </g>
    </g>
    <g id="xtick_23">
     <g id="line2d_23">
      <g>
       <use xlink:href="#mb446332c3d" x="170.956226" y="293.56" style="stroke: #000000; stroke-width: 0.6"/>
      </g>
     </g>
    </g>
    <g id="xtick_24">
     <g id="line2d_24">
      <g>
       <use xlink:href="#mb446332c3d" x="177.83988" y="293.56" style="stroke: #000000; stroke-width: 0.6"/>
      </g>
     </g>
    </g>
    <g id="xtick_25">
     <g id="line2d_25">
      <g>
       <use xlink:href="#mb446332c3d" x="184.723534" y="293.56" style="stroke: #000000; stroke-width: 0.6"/>
      </g>
     </g>
    </g>
    <g id="xtick_26">
     <g id="line2d_26">
      <g>
       <use xlink:href="#mb446332c3d" x="198.490841" y="293.56" style="stroke: #000000; stroke-width: 0.6"/>
      </g>
     </g>
    </g>
    <g id="xtick_27">
     <g id="line2d_27">
      <g>
       <use xlink:href="#mb446332c3d" x="205.374495" y="293.56" style="stroke: #000000; stroke-width: 0.6"/>
      </g>
     </g>
    </g>
    <g id="xtick_28">
     <g id="line2d_28">
      <g>
       <use xlink:href="#mb446332c3d" x="212.258149" y="293.56" style="stroke: #000000; stroke-width: 0.6"/>
      </g>
     </g>
    </g>
    <g id="xtick_29">
     <g id="line2d_29">
      <g>
       <use xlink:href="#mb446332c3d" x="219.141803" y="293.56" style="stroke: #000000; stroke-width: 0.6"/>
      </g>
     </g>
    </g>
    <g id="xtick_30">
     <g id="line2d_30">
      <g>
       <use xlink:href="#mb446332c3d" x="232.909111" y="293.56" style="stroke: #000000; stroke-width: 0.6"/>
      </g>
     </g>
    </g>
    <g id="xtick_31">
     <g id="line2d_31">
      <g>
       <use xlink:href="#mb446332c3d" x="239.792764" y="293.56" style="stroke: #000000; stroke-width: 0.6"/>
      </g>
     </g>
    </g>
    <g id="xtick_32">
     <g id="line2d_32">
      <g>
       <use xlink:href="#mb446332c3d" x="246.676418" y="293.56" style="stroke: #000000; stroke-width: 0.6"/>
      </g>
     </g>
    </g>
    <g id="xtick_33">
     <g id="line2d_33">
      <g>
       <use xlink:href="#mb446332c3d" x="253.560072" y="293.56" style="stroke: #000000; stroke-width: 0.6"/>
      </g>
     </g>
    </g>
    <g id="xtick_34">
     <g id="line2d_34">
      <g>
       <use xlink:href="#mb446332c3d" x="267.32738" y="293.56" style="stroke: #000000; stroke-width: 0.6"/>
      </g>
     </g>
    </g>
    <g id="xtick_35">
     <g id="line2d_35">
      <g>
       <use xlink:href="#mb446332c3d" x="274.211034" y="293.56" style="stroke: #000000; stroke-width: 0.6"/>
      </g>
     </g>
    </g>
    <g id="xtick_36">
     <g id="line2d_36">
      <g>
       <use xlink:href="#mb446332c3d" x="281.094687" y="293.56" style="stroke: #000000; stroke-width: 0.6"/>
      </g>
     </g>
    </g>
    <g id="xtick_37">
     <g id="line2d_37">
      <g>
       <use xlink:href="#mb446332c3d" x="287.978341" y="293.56" style="stroke: #000000; stroke-width: 0.6"/>
      </g>
     </g>
    </g>
    <g id="xtick_38">
     <g id="line2d_38">
      <g>
       <use xlink:href="#mb446332c3d" x="301.745649" y="293.56" style="stroke: #000000; stroke-width: 0.6"/>
      </g>
     </g>
    </g>
    <g id="xtick_39">
     <g id="line2d_39">
      <g>
       <use xlink:href="#mb446332c3d" x="308.629303" y="293.56" style="stroke: #000000; stroke-width: 0.6"/>
      </g>
     </g>
    </g>
    <g id="xtick_40">
     <g id="line2d_40">
      <g>
       <use xlink:href="#mb446332c3d" x="315.512957" y="293.56" style="stroke: #000000; stroke-width: 0.6"/>
      </g>
     </g>
    </g>
    <g id="xtick_41">
     <g id="line2d_41">
      <g>
       <use xlink:href="#mb446332c3d" x="322.396611" y="293.56" style="stroke: #000000; stroke-width: 0.6"/>
      </g>
     </g>
    </g>
    <g id="text_10">
     <!-- $x$ -->
     <g transform="translate(186.967187 326.395625) scale(0.16 -0.16)">
      <defs>
       <path id="Cmmi10-78" d="M 500 184 
Q 613 97 819 97 
Q 1019 97 1172 289 
Q 1325 481 1381 709 
L 1672 1844 
Q 1741 2153 1741 2266 
Q 1741 2425 1652 2544 
Q 1563 2663 1403 2663 
Q 1200 2663 1022 2536 
Q 844 2409 722 2214 
Q 600 2019 550 1819 
Q 538 1778 500 1778 
L 422 1778 
Q 372 1778 372 1838 
L 372 1856 
Q 434 2094 584 2320 
Q 734 2547 951 2687 
Q 1169 2828 1416 2828 
Q 1650 2828 1839 2703 
Q 2028 2578 2106 2363 
Q 2216 2559 2386 2693 
Q 2556 2828 2759 2828 
Q 2897 2828 3040 2779 
Q 3184 2731 3275 2631 
Q 3366 2531 3366 2381 
Q 3366 2219 3261 2101 
Q 3156 1984 2994 1984 
Q 2891 1984 2822 2050 
Q 2753 2116 2753 2216 
Q 2753 2350 2845 2451 
Q 2938 2553 3066 2572 
Q 2950 2663 2747 2663 
Q 2541 2663 2389 2472 
Q 2238 2281 2175 2047 
L 1894 916 
Q 1825 659 1825 494 
Q 1825 331 1917 214 
Q 2009 97 2163 97 
Q 2463 97 2698 361 
Q 2934 625 3009 941 
Q 3022 978 3059 978 
L 3138 978 
Q 3163 978 3178 961 
Q 3194 944 3194 922 
Q 3194 916 3188 903 
Q 3097 522 2806 225 
Q 2516 -72 2150 -72 
Q 1916 -72 1727 54 
Q 1538 181 1459 397 
Q 1359 209 1182 68 
Q 1006 -72 806 -72 
Q 669 -72 523 -23 
Q 378 25 287 125 
Q 197 225 197 378 
Q 197 528 301 651 
Q 406 775 563 775 
Q 669 775 741 711 
Q 813 647 813 544 
Q 813 409 723 309 
Q 634 209 500 184 
z
" transform="scale(0.015625)"/>
      </defs>
      <use xlink:href="#Cmmi10-78" transform="translate(0 0.8125)"/>
     </g>
    </g>
   </g>
   <g id="matplotlib.axis_2">
    <g id="ytick_1">
     <g id="line2d_42">
      <defs>
       <path id="mfffe92f635" d="M 0 0 
L -3.5 0 
" style="stroke: #000000; stroke-width: 0.8"/>
      </defs>
      <g>
       <use xlink:href="#mfffe92f635" x="48.427188" y="288.053077" style="stroke: #000000; stroke-width: 0.8"/>
      </g>
     </g>
     <g id="text_11">
      <!-- −4 -->
      <g transform="translate(26.685 291.852296) scale(0.1 -0.1)">
       <use xlink:href="#DejaVuSans-2212"/>
       <use xlink:href="#DejaVuSans-34" x="83.789062"/>
      </g>
     </g>
    </g>
    <g id="ytick_2">
     <g id="line2d_43">
      <g>
       <use xlink:href="#mfffe92f635" x="48.427188" y="253.634808" style="stroke: #000000; stroke-width: 0.8"/>
      </g>
     </g>
     <g id="text_12">
      <!-- −3 -->
      <g transform="translate(26.685 257.434026) scale(0.1 -0.1)">
       <use xlink:href="#DejaVuSans-2212"/>
       <use xlink:href="#DejaVuSans-33" x="83.789062"/>
      </g>
     </g>
    </g>
    <g id="ytick_3">
     <g id="line2d_44">
      <g>
       <use xlink:href="#mfffe92f635" x="48.427188" y="219.216538" style="stroke: #000000; stroke-width: 0.8"/>
      </g>
     </g>
     <g id="text_13">
      <!-- −2 -->
      <g transform="translate(26.685 223.015757) scale(0.1 -0.1)">
       <use xlink:href="#DejaVuSans-2212"/>
       <use xlink:href="#DejaVuSans-32" x="83.789062"/>
      </g>
     </g>
    </g>
    <g id="ytick_4">
     <g id="line2d_45">
      <g>
       <use xlink:href="#mfffe92f635" x="48.427188" y="184.798269" style="stroke: #000000; stroke-width: 0.8"/>
      </g>
     </g>
     <g id="text_14">
      <!-- −1 -->
      <g transform="translate(26.685 188.597488) scale(0.1 -0.1)">
       <use xlink:href="#DejaVuSans-2212"/>
       <use xlink:href="#DejaVuSans-31" x="83.789062"/>
      </g>
     </g>
    </g>
    <g id="ytick_5">
     <g id="line2d_46">
      <g>
       <use xlink:href="#mfffe92f635" x="48.427188" y="150.38" style="stroke: #000000; stroke-width: 0.8"/>
      </g>
     </g>
     <g id="text_15">
      <!-- 0 -->
      <g transform="translate(35.064688 154.179219) scale(0.1 -0.1)">
       <use xlink:href="#DejaVuSans-30"/>
      </g>
     </g>
    </g>
    <g id="ytick_6">
     <g id="line2d_47">
      <g>
       <use xlink:href="#mfffe92f635" x="48.427188" y="115.961731" style="stroke: #000000; stroke-width: 0.8"/>
      </g>
     </g>
     <g id="text_16">
      <!-- 1 -->
      <g transform="translate(35.064688 119.76095) scale(0.1 -0.1)">
       <use xlink:href="#DejaVuSans-31"/>
      </g>
     </g>
    </g>
    <g id="ytick_7">
     <g id="line2d_48">
      <g>
       <use xlink:href="#mfffe92f635" x="48.427188" y="81.543462" style="stroke: #000000; stroke-width: 0.8"/>
      </g>
     </g>
     <g id="text_17">
      <!-- 2 -->
      <g transform="translate(35.064688 85.34268) scale(0.1 -0.1)">
       <use xlink:href="#DejaVuSans-32"/>
      </g>
     </g>
    </g>
    <g id="ytick_8">
     <g id="line2d_49">
      <g>
       <use xlink:href="#mfffe92f635" x="48.427188" y="47.125192" style="stroke: #000000; stroke-width: 0.8"/>
      </g>
     </g>
     <g id="text_18">
      <!-- 3 -->
      <g transform="translate(35.064688 50.924411) scale(0.1 -0.1)">
       <use xlink:href="#DejaVuSans-33"/>
      </g>
     </g>
    </g>
    <g id="ytick_9">
     <g id="line2d_50">
      <g>
       <use xlink:href="#mfffe92f635" x="48.427188" y="12.706923" style="stroke: #000000; stroke-width: 0.8"/>
      </g>
     </g>
     <g id="text_19">
      <!-- 4 -->
      <g transform="translate(35.064688 16.506142) scale(0.1 -0.1)">
       <use xlink:href="#DejaVuSans-34"/>
      </g>
     </g>
    </g>
    <g id="ytick_10">
     <g id="line2d_51">
      <defs>
       <path id="mc04791df45" d="M 0 0 
L -2 0 
" style="stroke: #000000; stroke-width: 0.6"/>
      </defs>
      <g>
       <use xlink:href="#mc04791df45" x="48.427188" y="281.169423" style="stroke: #000000; stroke-width: 0.6"/>
      </g>
     </g>
    </g>
    <g id="ytick_11">
     <g id="line2d_52">
      <g>
       <use xlink:href="#mc04791df45" x="48.427188" y="274.285769" style="stroke: #000000; stroke-width: 0.6"/>
      </g>
     </g>
    </g>
    <g id="ytick_12">
     <g id="line2d_53">
      <g>
       <use xlink:href="#mc04791df45" x="48.427188" y="267.402115" style="stroke: #000000; stroke-width: 0.6"/>
      </g>
     </g>
    </g>
    <g id="ytick_13">
     <g id="line2d_54">
      <g>
       <use xlink:href="#mc04791df45" x="48.427188" y="260.518462" style="stroke: #000000; stroke-width: 0.6"/>
      </g>
     </g>
    </g>
    <g id="ytick_14">
     <g id="line2d_55">
      <g>
       <use xlink:href="#mc04791df45" x="48.427188" y="246.751154" style="stroke: #000000; stroke-width: 0.6"/>
      </g>
     </g>
    </g>
    <g id="ytick_15">
     <g id="line2d_56">
      <g>
       <use xlink:href="#mc04791df45" x="48.427188" y="239.8675" style="stroke: #000000; stroke-width: 0.6"/>
      </g>
     </g>
    </g>
    <g id="ytick_16">
     <g id="line2d_57">
      <g>
       <use xlink:href="#mc04791df45" x="48.427188" y="232.983846" style="stroke: #000000; stroke-width: 0.6"/>
      </g>
     </g>
    </g>
    <g id="ytick_17">
     <g id="line2d_58">
      <g>
       <use xlink:href="#mc04791df45" x="48.427188" y="226.100192" style="stroke: #000000; stroke-width: 0.6"/>
      </g>
     </g>
    </g>
    <g id="ytick_18">
     <g id="line2d_59">
      <g>
       <use xlink:href="#mc04791df45" x="48.427188" y="212.332885" style="stroke: #000000; stroke-width: 0.6"/>
      </g>
     </g>
    </g>
    <g id="ytick_19">
     <g id="line2d_60">
      <g>
       <use xlink:href="#mc04791df45" x="48.427188" y="205.449231" style="stroke: #000000; stroke-width: 0.6"/>
      </g>
     </g>
    </g>
    <g id="ytick_20">
     <g id="line2d_61">
      <g>
       <use xlink:href="#mc04791df45" x="48.427188" y="198.565577" style="stroke: #000000; stroke-width: 0.6"/>
      </g>
     </g>
    </g>
    <g id="ytick_21">
     <g id="line2d_62">
      <g>
       <use xlink:href="#mc04791df45" x="48.427188" y="191.681923" style="stroke: #000000; stroke-width: 0.6"/>
      </g>
     </g>
    </g>
    <g id="ytick_22">
     <g id="line2d_63">
      <g>
       <use xlink:href="#mc04791df45" x="48.427188" y="177.914615" style="stroke: #000000; stroke-width: 0.6"/>
      </g>
     </g>
    </g>
    <g id="ytick_23">
     <g id="line2d_64">
      <g>
       <use xlink:href="#mc04791df45" x="48.427188" y="171.030962" style="stroke: #000000; stroke-width: 0.6"/>
      </g>
     </g>
    </g>
    <g id="ytick_24">
     <g id="line2d_65">
      <g>
       <use xlink:href="#mc04791df45" x="48.427188" y="164.147308" style="stroke: #000000; stroke-width: 0.6"/>
      </g>
     </g>
    </g>
    <g id="ytick_25">
     <g id="line2d_66">
      <g>
       <use xlink:href="#mc04791df45" x="48.427188" y="157.263654" style="stroke: #000000; stroke-width: 0.6"/>
      </g>
     </g>
    </g>
    <g id="ytick_26">
     <g id="line2d_67">
      <g>
       <use xlink:href="#mc04791df45" x="48.427188" y="143.496346" style="stroke: #000000; stroke-width: 0.6"/>
      </g>
     </g>
    </g>
    <g id="ytick_27">
     <g id="line2d_68">
      <g>
       <use xlink:href="#mc04791df45" x="48.427188" y="136.612692" style="stroke: #000000; stroke-width: 0.6"/>
      </g>
     </g>
    </g>
    <g id="ytick_28">
     <g id="line2d_69">
      <g>
       <use xlink:href="#mc04791df45" x="48.427188" y="129.729038" style="stroke: #000000; stroke-width: 0.6"/>
      </g>
     </g>
    </g>
    <g id="ytick_29">
     <g id="line2d_70">
      <g>
       <use xlink:href="#mc04791df45" x="48.427188" y="122.845385" style="stroke: #000000; stroke-width: 0.6"/>
      </g>
     </g>
    </g>
    <g id="ytick_30">
     <g id="line2d_71">
      <g>
       <use xlink:href="#mc04791df45" x="48.427188" y="109.078077" style="stroke: #000000; stroke-width: 0.6"/>
      </g>
     </g>
    </g>
    <g id="ytick_31">
     <g id="line2d_72">
      <g>
       <use xlink:href="#mc04791df45" x="48.427188" y="102.194423" style="stroke: #000000; stroke-width: 0.6"/>
      </g>
     </g>
    </g>
    <g id="ytick_32">
     <g id="line2d_73">
      <g>
       <use xlink:href="#mc04791df45" x="48.427188" y="95.310769" style="stroke: #000000; stroke-width: 0.6"/>
      </g>
     </g>
    </g>
    <g id="ytick_33">
     <g id="line2d_74">
      <g>
       <use xlink:href="#mc04791df45" x="48.427188" y="88.427115" style="stroke: #000000; stroke-width: 0.6"/>
      </g>
     </g>
    </g>
    <g id="ytick_34">
     <g id="line2d_75">
      <g>
       <use xlink:href="#mc04791df45" x="48.427188" y="74.659808" style="stroke: #000000; stroke-width: 0.6"/>
      </g>
     </g>
    </g>
    <g id="ytick_35">
     <g id="line2d_76">
      <g>
       <use xlink:href="#mc04791df45" x="48.427188" y="67.776154" style="stroke: #000000; stroke-width: 0.6"/>
      </g>
     </g>
    </g>
    <g id="ytick_36">
     <g id="line2d_77">
      <g>
       <use xlink:href="#mc04791df45" x="48.427188" y="60.8925" style="stroke: #000000; stroke-width: 0.6"/>
      </g>
     </g>
    </g>
    <g id="ytick_37">
     <g id="line2d_78">
      <g>
       <use xlink:href="#mc04791df45" x="48.427188" y="54.008846" style="stroke: #000000; stroke-width: 0.6"/>
      </g>
     </g>
    </g>
    <g id="ytick_38">
     <g id="line2d_79">
      <g>
       <use xlink:href="#mc04791df45" x="48.427188" y="40.241538" style="stroke: #000000; stroke-width: 0.6"/>
      </g>
     </g>
    </g>
    <g id="ytick_39">
     <g id="line2d_80">
      <g>
       <use xlink:href="#mc04791df45" x="48.427188" y="33.357885" style="stroke: #000000; stroke-width: 0.6"/>
      </g>
     </g>
    </g>
    <g id="ytick_40">
     <g id="line2d_81">
      <g>
       <use xlink:href="#mc04791df45" x="48.427188" y="26.474231" style="stroke: #000000; stroke-width: 0.6"/>
      </g>
     </g>
    </g>
    <g id="ytick_41">
     <g id="line2d_82">
      <g>
       <use xlink:href="#mc04791df45" x="48.427188" y="19.590577" style="stroke: #000000; stroke-width: 0.6"/>
      </g>
     </g>
    </g>
    <g id="text_20">
     <!-- $y$ -->
     <g transform="translate(19.325 154.38) rotate(-90) scale(0.16 -0.16)">
      <defs>
       <path id="Cmmi10-79" d="M 538 -916 
Q 672 -1147 1006 -1147 
Q 1309 -1147 1531 -934 
Q 1753 -722 1889 -420 
Q 2025 -119 2100 197 
Q 1816 -72 1484 -72 
Q 1231 -72 1053 15 
Q 875 103 776 276 
Q 678 450 678 697 
Q 678 906 734 1126 
Q 791 1347 892 1617 
Q 994 1888 1069 2088 
Q 1153 2322 1153 2472 
Q 1153 2663 1013 2663 
Q 759 2663 595 2402 
Q 431 2141 353 1819 
Q 341 1778 300 1778 
L 225 1778 
Q 172 1778 172 1838 
L 172 1856 
Q 275 2238 487 2533 
Q 700 2828 1025 2828 
Q 1253 2828 1411 2678 
Q 1569 2528 1569 2297 
Q 1569 2178 1516 2047 
Q 1488 1969 1388 1706 
Q 1288 1444 1234 1272 
Q 1181 1100 1147 934 
Q 1113 769 1113 603 
Q 1113 391 1203 244 
Q 1294 97 1491 97 
Q 1888 97 2203 581 
L 2688 2553 
Q 2709 2638 2787 2698 
Q 2866 2759 2956 2759 
Q 3034 2759 3092 2709 
Q 3150 2659 3150 2578 
Q 3150 2541 3144 2528 
L 2509 -19 
Q 2425 -347 2200 -647 
Q 1975 -947 1658 -1130 
Q 1341 -1313 997 -1313 
Q 831 -1313 668 -1248 
Q 506 -1184 406 -1056 
Q 306 -928 306 -756 
Q 306 -581 409 -453 
Q 513 -325 684 -325 
Q 788 -325 858 -389 
Q 928 -453 928 -556 
Q 928 -703 818 -812 
Q 709 -922 563 -922 
Q 556 -919 550 -917 
Q 544 -916 538 -916 
z
" transform="scale(0.015625)"/>
      </defs>
      <use xlink:href="#Cmmi10-79" transform="translate(0 0.8125)"/>
     </g>
    </g>
   </g>
   <g id="PathCollection_1"/>
   <g id="PathCollection_2">
    <path d="M 122.775331 288.053077 
L 124.15662 287.362433 
L 126.00458 286.463425 
L 126.550719 286.205116 
L 127.852541 285.580955 
L 129.700502 284.720261 
L 130.503735 284.357155 
L 131.548463 283.878322 
L 133.396423 283.057006 
L 134.668759 282.509195 
L 135.244384 282.257865 
L 137.092345 281.477037 
L 138.940306 280.722236 
L 139.09499 280.661234 
L 140.788266 279.983923 
L 142.636227 279.271138 
L 143.868941 278.813273 
L 144.484188 278.581441 
L 146.332149 277.91189 
L 148.18011 277.269121 
L 149.091536 276.965312 
L 150.02807 276.648543 
L 151.876031 276.050674 
L 153.723992 275.47998 
L 154.956928 275.117352 
L 155.571953 274.933762 
L 157.419913 274.409714 
L 159.267874 273.913247 
L 161.115835 273.444361 
L 161.848522 273.269391 
L 162.963796 272.999022 
L 164.811756 272.57903 
L 166.659717 272.187039 
L 168.507678 271.823047 
L 170.355639 271.487054 
L 170.74938 271.42143 
L 172.203599 271.175331 
L 174.05156 270.89103 
L 175.899521 270.635158 
L 177.747482 270.407717 
L 179.595443 270.208706 
L 181.443403 270.038125 
L 183.291364 269.895974 
L 185.139325 269.782253 
L 186.987286 269.696963 
L 188.835246 269.640102 
L 190.683207 269.611672 
L 192.531168 269.611672 
L 194.379129 269.640102 
L 196.227089 269.696963 
L 198.07505 269.782253 
L 199.923011 269.895974 
L 201.770972 270.038125 
L 203.618932 270.208706 
L 205.466893 270.407717 
L 207.314854 270.635158 
L 209.162815 270.89103 
L 211.010776 271.175331 
L 212.464995 271.42143 
L 212.858736 271.487054 
L 214.706697 271.823047 
L 216.554658 272.187039 
L 218.402619 272.57903 
L 220.250579 272.999022 
L 221.365853 273.269391 
L 222.09854 273.444361 
L 223.946501 273.913247 
L 225.794462 274.409714 
L 227.642422 274.933762 
L 228.257447 275.117352 
L 229.490383 275.47998 
L 231.338344 276.050674 
L 233.186305 276.648543 
L 234.122839 276.965312 
L 235.034265 277.269121 
L 236.882226 277.91189 
L 238.730187 278.581441 
L 239.345434 278.813273 
L 240.578148 279.271138 
L 242.426109 279.983923 
L 244.119385 280.661234 
L 244.274069 280.722236 
L 246.12203 281.477037 
L 247.969991 282.257865 
L 248.545616 282.509195 
L 249.817952 283.057006 
L 251.665912 283.878322 
L 252.71064 284.357155 
L 253.513873 284.720261 
L 255.361834 285.580955 
L 256.663656 286.205116 
L 257.209795 286.463425 
L 259.057755 287.362433 
L 260.439044 288.053077 
" clip-path="url(#pf5f72ee996)" style="fill: none; stroke: #202020; stroke-width: 1.5"/>
    <path d="M 260.439044 12.706923 
L 259.057755 13.397567 
L 257.209795 14.296575 
L 256.663656 14.554884 
L 255.361834 15.179045 
L 253.513873 16.039739 
L 252.71064 16.402845 
L 251.665912 16.881678 
L 249.817952 17.702994 
L 248.545616 18.250805 
L 247.969991 18.502135 
L 246.12203 19.282963 
L 244.274069 20.037764 
L 244.119385 20.098766 
L 242.426109 20.776077 
L 240.578148 21.488862 
L 239.345434 21.946727 
L 238.730187 22.178559 
L 236.882226 22.84811 
L 235.034265 23.490879 
L 234.122839 23.794688 
L 233.186305 24.111457 
L 231.338344 24.709326 
L 229.490383 25.28002 
L 228.257447 25.642648 
L 227.642422 25.826238 
L 225.794462 26.350286 
L 223.946501 26.846753 
L 222.09854 27.315639 
L 221.365853 27.490609 
L 220.250579 27.760978 
L 218.402619 28.18097 
L 216.554658 28.572961 
L 214.706697 28.936953 
L 212.858736 29.272946 
L 212.464995 29.33857 
L 211.010776 29.584669 
L 209.162815 29.86897 
L 207.314854 30.124842 
L 205.466893 30.352283 
L 203.618932 30.551294 
L 201.770972 30.721875 
L 199.923011 30.864026 
L 198.07505 30.977747 
L 196.227089 31.063037 
L 194.379129 31.119898 
L 192.531168 31.148328 
L 190.683207 31.148328 
L 188.835246 31.119898 
L 186.987286 31.063037 
L 185.139325 30.977747 
L 183.291364 30.864026 
L 181.443403 30.721875 
L 179.595443 30.551294 
L 177.747482 30.352283 
L 175.899521 30.124842 
L 174.05156 29.86897 
L 172.203599 29.584669 
L 170.74938 29.33857 
L 170.355639 29.272946 
L 168.507678 28.936953 
L 166.659717 28.572961 
L 164.811756 28.18097 
L 162.963796 27.760978 
L 161.848522 27.490609 
L 161.115835 27.315639 
L 159.267874 26.846753 
L 157.419913 26.350286 
L 155.571953 25.826238 
L 154.956928 25.642648 
L 153.723992 25.28002 
L 151.876031 24.709326 
L 150.02807 24.111457 
L 149.091536 23.794688 
L 148.18011 23.490879 
L 146.332149 22.84811 
L 144.484188 22.178559 
L 143.868941 21.946727 
L 142.636227 21.488862 
L 140.788266 20.776077 
L 139.09499 20.098766 
L 138.940306 20.037764 
L 137.092345 19.282963 
L 135.244384 18.502135 
L 134.668759 18.250805 
L 133.396423 17.702994 
L 131.548463 16.881678 
L 130.503735 16.402845 
L 129.700502 16.039739 
L 127.852541 15.179045 
L 126.550719 14.554884 
L 126.00458 14.296575 
L 124.15662 13.397567 
L 122.775331 12.706923 
" clip-path="url(#pf5f72ee996)" style="fill: none; stroke: #202020; stroke-width: 1.5"/>
   </g>
   <g id="PathCollection_3">
    <path d="M 94.260188 288.053077 
L 100.13313 283.960935 
L 107.835533 278.813273 
L 114.916816 274.305421 
L 122.836202 269.573469 
L 127.852541 266.744696 
L 135.244384 262.865145 
L 142.636227 259.349 
L 149.028765 256.637744 
L 153.868364 254.789783 
L 159.32902 252.941822 
L 164.811756 251.347956 
L 170.355639 250.018023 
L 175.899521 248.986576 
L 181.443403 248.254365 
L 186.987286 247.835959 
L 192.531168 247.731358 
L 198.07505 247.940561 
L 203.618932 248.463568 
L 209.162815 249.299372 
L 214.706697 250.428681 
L 220.250579 251.851946 
L 225.794462 253.554372 
L 231.338344 255.521268 
L 236.882226 257.738953 
L 242.718977 260.333665 
L 247.969991 262.865145 
L 255.361834 266.744696 
L 262.753677 270.954109 
L 271.993481 276.627312 
L 281.233285 282.703295 
L 288.954187 288.053077 
L 288.954187 288.053077 
" clip-path="url(#pf5f72ee996)" style="fill: none; stroke: #404040; stroke-width: 1.5"/>
    <path d="M 288.954187 12.706923 
L 283.081245 16.799065 
L 275.378842 21.946727 
L 268.297559 26.454579 
L 260.378173 31.186531 
L 255.361834 34.015304 
L 247.969991 37.894855 
L 240.578148 41.411 
L 234.18561 44.122256 
L 229.346011 45.970217 
L 223.885355 47.818178 
L 218.402619 49.412044 
L 212.858736 50.741977 
L 207.314854 51.773424 
L 201.770972 52.505635 
L 196.227089 52.924041 
L 190.683207 53.028642 
L 185.139325 52.819439 
L 179.595443 52.296432 
L 174.05156 51.460628 
L 168.507678 50.331319 
L 162.963796 48.908054 
L 157.419913 47.205628 
L 151.876031 45.238732 
L 146.332149 43.021047 
L 140.495398 40.426335 
L 135.244384 37.894855 
L 127.852541 34.015304 
L 120.460698 29.805891 
L 111.220894 24.132688 
L 101.98109 18.056705 
L 94.260188 12.706923 
L 94.260188 12.706923 
" clip-path="url(#pf5f72ee996)" style="fill: none; stroke: #404040; stroke-width: 1.5"/>
   </g>
   <g id="PathCollection_4">
    <path d="M 72.379069 288.053077 
L 79.805561 281.670617 
L 92.741287 270.846608 
L 103.829051 261.928494 
L 113.103229 254.789783 
L 120.644582 249.245901 
L 127.852541 244.201376 
L 135.244384 239.343189 
L 140.788266 235.93983 
L 146.623299 232.614254 
L 151.876031 229.8544 
L 157.808113 227.070372 
L 162.245545 225.222411 
L 164.811756 224.242126 
L 170.355639 222.416413 
L 174.05156 221.41859 
L 177.747482 220.591871 
L 181.443403 219.959674 
L 185.139325 219.517769 
L 188.835246 219.268044 
L 192.531168 219.218099 
L 196.227089 219.367934 
L 199.923011 219.716521 
L 203.618932 220.251457 
L 207.314854 220.980915 
L 211.010776 221.895193 
L 215.874999 223.37445 
L 218.402619 224.242126 
L 223.946501 226.429501 
L 229.490383 228.951907 
L 235.034265 231.765085 
L 240.578148 234.855158 
L 246.12203 238.188214 
L 251.846159 241.854058 
L 257.323688 245.549979 
L 264.601638 250.709939 
L 275.689402 259.042638 
L 284.929206 266.340455 
L 296.016971 275.437518 
L 308.952696 286.424405 
L 310.835306 288.053077 
L 310.835306 288.053077 
" clip-path="url(#pf5f72ee996)" style="fill: none; stroke: #606060; stroke-width: 1.5"/>
    <path d="M 310.835306 12.706923 
L 303.408814 19.089383 
L 290.473088 29.913392 
L 279.385324 38.831506 
L 270.111146 45.970217 
L 262.569793 51.514099 
L 255.361834 56.558624 
L 247.969991 61.416811 
L 242.426109 64.82017 
L 236.591076 68.145746 
L 231.338344 70.9056 
L 225.406262 73.689628 
L 220.96883 75.537589 
L 218.402619 76.517874 
L 212.858736 78.343587 
L 209.162815 79.34141 
L 205.466893 80.168129 
L 201.770972 80.800326 
L 198.07505 81.242231 
L 194.379129 81.491956 
L 190.683207 81.541901 
L 186.987286 81.392066 
L 183.291364 81.043479 
L 179.595443 80.508543 
L 175.899521 79.779085 
L 172.203599 78.864807 
L 167.339376 77.38555 
L 164.811756 76.517874 
L 159.267874 74.330499 
L 153.723992 71.808093 
L 148.18011 68.994915 
L 142.636227 65.904842 
L 137.092345 62.571786 
L 131.368216 58.905942 
L 125.890687 55.210021 
L 118.612737 50.050061 
L 107.524973 41.717362 
L 98.285169 34.419545 
L 87.197404 25.322482 
L 74.261679 14.335595 
L 72.379069 12.706923 
L 72.379069 12.706923 
" clip-path="url(#pf5f72ee996)" style="fill: none; stroke: #606060; stroke-width: 1.5"/>
   </g>
   <g id="PathCollection_5">
    <path d="M 53.934111 288.053077 
L 192.531168 149.45602 
L 190.683207 149.45602 
L 53.934111 12.706923 
L 53.934111 12.706923 
" clip-path="url(#pf5f72ee996)" style="fill: none; stroke: #808080; stroke-width: 1.5"/>
    <path d="M 329.280264 12.706923 
L 192.531168 149.45602 
L 192.531168 151.30398 
L 329.280264 288.053077 
L 329.280264 288.053077 
" clip-path="url(#pf5f72ee996)" style="fill: none; stroke: #808080; stroke-width: 1.5"/>
   </g>
   <g id="PathCollection_6">
    <path d="M 53.934111 269.608119 
L 60.31657 262.181626 
L 71.14058 249.245901 
L 80.058693 238.158136 
L 87.197404 228.883958 
L 92.741287 221.342605 
L 97.785812 214.134646 
L 102.643998 206.742803 
L 106.047357 201.198921 
L 109.372933 195.363889 
L 112.132788 190.111156 
L 114.916816 184.179074 
L 116.764777 179.741642 
L 117.745062 177.175431 
L 119.570775 171.631549 
L 120.568597 167.935627 
L 121.395316 164.239706 
L 122.027514 160.543784 
L 122.469419 156.847863 
L 122.719143 153.151941 
L 122.769088 149.45602 
L 122.619254 145.760098 
L 122.270666 142.064177 
L 121.73573 138.368255 
L 121.006272 134.672334 
L 120.091994 130.976412 
L 118.612737 126.112188 
L 117.745062 123.584569 
L 115.557686 118.040687 
L 113.03528 112.496804 
L 110.222103 106.952922 
L 107.13203 101.40904 
L 103.798974 95.865157 
L 100.13313 90.141029 
L 96.437208 84.663499 
L 91.277248 77.38555 
L 82.94455 66.297785 
L 75.646733 57.057981 
L 66.54967 45.970217 
L 55.562782 33.034491 
L 53.934111 31.151881 
L 53.934111 31.151881 
" clip-path="url(#pf5f72ee996)" style="fill: none; stroke: #a0a0a0; stroke-width: 1.5"/>
    <path d="M 329.280264 31.151881 
L 322.897805 38.578374 
L 312.073795 51.514099 
L 303.155682 62.601864 
L 296.016971 71.876042 
L 290.473088 79.417395 
L 285.428563 86.625354 
L 280.570377 94.017197 
L 277.167018 99.561079 
L 273.841442 105.396111 
L 271.081587 110.648844 
L 268.297559 116.580926 
L 266.449598 121.018358 
L 265.469313 123.584569 
L 263.6436 129.128451 
L 262.645778 132.824373 
L 261.819059 136.520294 
L 261.186861 140.216216 
L 260.744956 143.912137 
L 260.495232 147.608059 
L 260.445287 151.30398 
L 260.595121 154.999902 
L 260.943709 158.695823 
L 261.478645 162.391745 
L 262.208103 166.087666 
L 263.122381 169.783588 
L 264.601638 174.647812 
L 265.469313 177.175431 
L 267.656689 182.719313 
L 270.179095 188.263196 
L 272.992272 193.807078 
L 276.082345 199.35096 
L 279.415401 204.894843 
L 283.081245 210.618971 
L 286.777167 216.096501 
L 291.937127 223.37445 
L 300.269825 234.462215 
L 307.567642 243.702019 
L 316.664705 254.789783 
L 327.651593 267.725509 
L 329.280264 269.608119 
L 329.280264 269.608119 
" clip-path="url(#pf5f72ee996)" style="fill: none; stroke: #a0a0a0; stroke-width: 1.5"/>
   </g>
   <g id="PathCollection_7">
    <path d="M 53.934111 247.726999 
L 58.026253 241.854058 
L 63.173914 234.151655 
L 67.681766 227.070372 
L 72.413718 219.150986 
L 75.242491 214.134646 
L 79.122043 206.742803 
L 82.638188 199.35096 
L 85.349444 192.958422 
L 87.197404 188.118824 
L 89.045365 182.658168 
L 90.639231 177.175431 
L 91.969164 171.631549 
L 93.000611 166.087666 
L 93.732822 160.543784 
L 94.151228 154.999902 
L 94.25583 149.45602 
L 94.046627 143.912137 
L 93.523619 138.368255 
L 92.687816 132.824373 
L 91.558506 127.28049 
L 90.135242 121.736608 
L 88.432816 116.192726 
L 86.46592 110.648844 
L 84.248234 105.104961 
L 81.653522 99.26821 
L 79.122043 94.017197 
L 75.242491 86.625354 
L 71.033078 79.233511 
L 65.359875 69.993707 
L 59.283893 60.753903 
L 53.934111 53.033001 
L 53.934111 53.033001 
" clip-path="url(#pf5f72ee996)" style="fill: none; stroke: #c0c0c0; stroke-width: 1.5"/>
    <path d="M 329.280264 53.033001 
L 325.188122 58.905942 
L 320.040461 66.608345 
L 315.532609 73.689628 
L 310.800657 81.609014 
L 307.971884 86.625354 
L 304.092332 94.017197 
L 300.576187 101.40904 
L 297.864931 107.801578 
L 296.016971 112.641176 
L 294.16901 118.101832 
L 292.575144 123.584569 
L 291.245211 129.128451 
L 290.213764 134.672334 
L 289.481553 140.216216 
L 289.063147 145.760098 
L 288.958545 151.30398 
L 289.167748 156.847863 
L 289.690756 162.391745 
L 290.526559 167.935627 
L 291.655869 173.47951 
L 293.079133 179.023392 
L 294.781559 184.567274 
L 296.748455 190.111156 
L 298.966141 195.655039 
L 301.560853 201.49179 
L 304.092332 206.742803 
L 307.971884 214.134646 
L 312.181297 221.526489 
L 317.8545 230.766293 
L 323.930482 240.006097 
L 329.280264 247.726999 
L 329.280264 247.726999 
" clip-path="url(#pf5f72ee996)" style="fill: none; stroke: #c0c0c0; stroke-width: 1.5"/>
   </g>
   <g id="PathCollection_8">
    <path d="M 53.934111 219.211856 
L 54.624755 217.830568 
L 55.523763 215.982607 
L 55.782071 215.436469 
L 56.406233 214.134646 
L 57.266927 212.286686 
L 57.630032 211.483453 
L 58.108866 210.438725 
L 58.930182 208.590764 
L 59.477993 207.318428 
L 59.729322 206.742803 
L 60.510151 204.894843 
L 61.264951 203.046882 
L 61.325954 202.892198 
L 62.003264 201.198921 
L 62.716049 199.35096 
L 63.173914 198.118246 
L 63.405746 197.502999 
L 64.075297 195.655039 
L 64.718066 193.807078 
L 65.021875 192.895652 
L 65.338644 191.959117 
L 65.936514 190.111156 
L 66.507208 188.263196 
L 66.869836 187.030259 
L 67.053425 186.415235 
L 67.577474 184.567274 
L 68.073941 182.719313 
L 68.542827 180.871353 
L 68.717797 180.138665 
L 68.988166 179.023392 
L 69.408157 177.175431 
L 69.800149 175.32747 
L 70.164141 173.47951 
L 70.500134 171.631549 
L 70.565757 171.237807 
L 70.811856 169.783588 
L 71.096158 167.935627 
L 71.352029 166.087666 
L 71.579471 164.239706 
L 71.778482 162.391745 
L 71.949063 160.543784 
L 72.091214 158.695823 
L 72.204934 156.847863 
L 72.290225 154.999902 
L 72.347085 153.151941 
L 72.375515 151.30398 
L 72.375515 149.45602 
L 72.347085 147.608059 
L 72.290225 145.760098 
L 72.204934 143.912137 
L 72.091214 142.064177 
L 71.949063 140.216216 
L 71.778482 138.368255 
L 71.579471 136.520294 
L 71.352029 134.672334 
L 71.096158 132.824373 
L 70.811856 130.976412 
L 70.565757 129.522193 
L 70.500134 129.128451 
L 70.164141 127.28049 
L 69.800149 125.43253 
L 69.408157 123.584569 
L 68.988166 121.736608 
L 68.717797 120.621335 
L 68.542827 119.888647 
L 68.073941 118.040687 
L 67.577474 116.192726 
L 67.053425 114.344765 
L 66.869836 113.729741 
L 66.507208 112.496804 
L 65.936514 110.648844 
L 65.338644 108.800883 
L 65.021875 107.864348 
L 64.718066 106.952922 
L 64.075297 105.104961 
L 63.405746 103.257001 
L 63.173914 102.641754 
L 62.716049 101.40904 
L 62.003264 99.561079 
L 61.325954 97.867802 
L 61.264951 97.713118 
L 60.510151 95.865157 
L 59.729322 94.017197 
L 59.477993 93.441572 
L 58.930182 92.169236 
L 58.108866 90.321275 
L 57.630032 89.276547 
L 57.266927 88.473314 
L 56.406233 86.625354 
L 55.782071 85.323531 
L 55.523763 84.777393 
L 54.624755 82.929432 
L 53.934111 81.548144 
" clip-path="url(#pf5f72ee996)" style="fill: none; stroke: #e0e0e0; stroke-width: 1.5"/>
    <path d="M 329.280264 81.548144 
L 328.58962 82.929432 
L 327.690612 84.777393 
L 327.432304 85.323531 
L 326.808142 86.625354 
L 325.947448 88.473314 
L 325.584343 89.276547 
L 325.105509 90.321275 
L 324.284193 92.169236 
L 323.736382 93.441572 
L 323.485053 94.017197 
L 322.704224 95.865157 
L 321.949424 97.713118 
L 321.888421 97.867802 
L 321.211111 99.561079 
L 320.498326 101.40904 
L 320.040461 102.641754 
L 319.808629 103.257001 
L 319.139078 105.104961 
L 318.496309 106.952922 
L 318.1925 107.864348 
L 317.875731 108.800883 
L 317.277861 110.648844 
L 316.707167 112.496804 
L 316.344539 113.729741 
L 316.16095 114.344765 
L 315.636901 116.192726 
L 315.140434 118.040687 
L 314.671548 119.888647 
L 314.496578 120.621335 
L 314.226209 121.736608 
L 313.806218 123.584569 
L 313.414226 125.43253 
L 313.050234 127.28049 
L 312.714241 129.128451 
L 312.648618 129.522193 
L 312.402519 130.976412 
L 312.118217 132.824373 
L 311.862346 134.672334 
L 311.634904 136.520294 
L 311.435893 138.368255 
L 311.265312 140.216216 
L 311.123161 142.064177 
L 311.009441 143.912137 
L 310.92415 145.760098 
L 310.86729 147.608059 
L 310.83886 149.45602 
L 310.83886 151.30398 
L 310.86729 153.151941 
L 310.92415 154.999902 
L 311.009441 156.847863 
L 311.123161 158.695823 
L 311.265312 160.543784 
L 311.435893 162.391745 
L 311.634904 164.239706 
L 311.862346 166.087666 
L 312.118217 167.935627 
L 312.402519 169.783588 
L 312.648618 171.237807 
L 312.714241 171.631549 
L 313.050234 173.47951 
L 313.414226 175.32747 
L 313.806218 177.175431 
L 314.226209 179.023392 
L 314.496578 180.138665 
L 314.671548 180.871353 
L 315.140434 182.719313 
L 315.636901 184.567274 
L 316.16095 186.415235 
L 316.344539 187.030259 
L 316.707167 188.263196 
L 317.277861 190.111156 
L 317.875731 191.959117 
L 318.1925 192.895652 
L 318.496309 193.807078 
L 319.139078 195.655039 
L 319.808629 197.502999 
L 320.040461 198.118246 
L 320.498326 199.35096 
L 321.211111 201.198921 
L 321.888421 202.892198 
L 321.949424 203.046882 
L 322.704224 204.894843 
L 323.485053 206.742803 
L 323.736382 207.318428 
L 324.284193 208.590764 
L 325.105509 210.438725 
L 325.584343 211.483453 
L 325.947448 212.286686 
L 326.808142 214.134646 
L 327.432304 215.436469 
L 327.690612 215.982607 
L 328.58962 217.830568 
L 329.280264 219.211856 
" clip-path="url(#pf5f72ee996)" style="fill: none; stroke: #e0e0e0; stroke-width: 1.5"/>
   </g>
   <g id="PathCollection_9"/>
   <g id="patch_3">
    <path d="M 48.427188 293.56 
L 48.427188 7.2 
" style="fill: none; stroke: #000000; stroke-width: 0.8; stroke-linejoin: miter; stroke-linecap: square"/>
   </g>
   <g id="patch_4">
    <path d="M 334.787187 293.56 
L 334.787187 7.2 
" style="fill: none; stroke: #000000; stroke-width: 0.8; stroke-linejoin: miter; stroke-linecap: square"/>
   </g>
   <g id="patch_5">
    <path d="M 48.427188 293.56 
L 334.787187 293.56 
" style="fill: none; stroke: #000000; stroke-width: 0.8; stroke-linejoin: miter; stroke-linecap: square"/>
   </g>
   <g id="patch_6">
    <path d="M 48.427188 7.2 
L 334.787187 7.2 
" style="fill: none; stroke: #000000; stroke-width: 0.8; stroke-linejoin: miter; stroke-linecap: square"/>
   </g>
  </g>
 </g>
 <defs>
  <clipPath id="pf5f72ee996">
   <rect x="48.427188" y="7.2" width="286.36" height="286.36"/>
  </clipPath>
 </defs>
</svg>
