<svg xmlns="http://www.w3.org/2000/svg" xmlns:xlink="http://www.w3.org/1999/xlink" xmlns:inkscape="http://www.inkscape.org/namespaces/inkscape" version="1.1" width="197" height="170" viewBox="0 0 197 170">
<defs>
<clipPath id="clip_1">
<path transform="matrix(1.00005,0,0,-1.00006,17.535973,166.5352)" d="M-16.43858 0H177.83496V161.39636H-16.43858Z"/>
</clipPath>
<path id="font_2_1" d="M.6589966 .23046875C.6759949 .23046875 .69400027 .23046875 .69400027 .25045777 .69400027 .27046205 .6759949 .27046205 .6589966 .27046205H.117996219C.100997928 .27046205 .08299255 .27046205 .08299255 .25045777 .08299255 .23046875 .100997928 .23046875 .117996219 .23046875H.6589966Z"/>
<path id="font_3_2" d="M.1269989 .07699585 .23298645 .18003845C.3889923 .31811524 .44898988 .3721466 .44898988 .47216798 .44898988 .5860901 .35899354 .6660156 .23699951 .6660156 .12399292 .6660156 .049987794 .57411196 .049987794 .48516847 .049987794 .4291687 .099990848 .4291687 .102996829 .4291687 .11999512 .4291687 .15499878 .44117738 .15499878 .48217774 .15499878 .5081787 .13699341 .5341797 .101989749 .5341797 .09399414 .5341797 .09199524 .5341797 .08898926 .5331726 .11199951 .59806826 .1659851 .63500979 .22399903 .63500979 .31498719 .63500979 .35798646 .5541382 .35798646 .47216798 .35798646 .39215089 .30799867 .31311036 .25299073 .25108338L.06098938 .036987306C.049987794 .025985718 .049987794 .023986817 .049987794 0H.42099L.44898988 .17404175H.42399598C.4189911 .14402771 .4119873 .1000061 .4019928 .084991458 .394989 .07699585 .32899476 .07699585 .30699159 .07699585H.1269989Z"/>
<path id="font_3_1" d="M.2939911 .64004519C.2939911 .66400149 .2939911 .6660156 .2709961 .6660156 .20899964 .60227969 .12098694 .60227969 .08898926 .60227969V.57128909C.10899353 .57128909 .16799927 .57128909 .21998596 .5972748V.07902527C.21998596 .042999269 .21699524 .0309906 .1269989 .0309906H.09498596V0C.12998963 .0029907227 .21699524 .0029907227 .25698854 .0029907227 .29699708 .0029907227 .38398744 .0029907227 .4189911 0V.0309906H.3869934C.29699708 .0309906 .2939911 .041992189 .2939911 .07902527V.64004519Z"/>
</defs>
<g clip-path="url(#clip_1)">
<path transform="matrix(1.00005,0,0,-1.00006,17.535973,166.5352)" d="M40.34909 40.34909H121.04727V121.04727Z" fill="#ccccff"/>
<path transform="matrix(1.00005,0,0,-1.00006,17.535973,166.5352)" stroke-width=".3985" stroke-linecap="butt" stroke-miterlimit="10" stroke-linejoin="miter" fill="none" stroke="#ccccff" d="M40.34909 40.34909H121.04727V121.04727Z"/>
<path transform="matrix(1.00005,0,0,-1.00006,17.535973,166.5352)" stroke-width="1.59404" stroke-linecap="butt" stroke-miterlimit="10" stroke-linejoin="miter" fill="none" stroke="#3333ff" d="M40.34909 40.34909H121.04727"/>
<path transform="matrix(1.00005,0,0,-1.00006,17.535973,166.5352)" stroke-width="1.59404" stroke-linecap="butt" stroke-miterlimit="10" stroke-linejoin="miter" fill="none" stroke="#3333ff" d="M40.34909 40.34909 121.04727 121.04727"/>
</g>
<path transform="matrix(1.00005,0,0,-1.00006,17.535973,166.5352)" stroke-width=".3985" stroke-linecap="butt" stroke-miterlimit="10" stroke-linejoin="miter" fill="none" stroke="#bfbfbf" d="M0 0V161.39636M40.34909 0V161.39636M121.04727 0V161.39636M161.39636 0V161.39636"/>
<path transform="matrix(1.00005,0,0,-1.00006,17.535973,166.5352)" stroke-width=".3985" stroke-linecap="butt" stroke-miterlimit="10" stroke-linejoin="miter" fill="none" stroke="#bfbfbf" d="M-16.43858 0H177.83496M-16.43858 40.34909H177.83496M-16.43858 121.04727H177.83496M-16.43858 161.39636H177.83496"/>
<path transform="matrix(1.00005,0,0,-1.00006,17.535973,166.5352)" stroke-width=".19925" stroke-linecap="butt" stroke-miterlimit="10" stroke-linejoin="miter" fill="none" stroke="#7f807f" d="M0 78.57219V82.82414M40.34909 78.57219V82.82414M121.04727 78.57219V82.82414M161.39636 78.57219V82.82414"/>
<path transform="matrix(1.00005,0,0,-1.00006,17.535973,166.5352)" stroke-width=".19925" stroke-linecap="butt" stroke-miterlimit="10" stroke-linejoin="miter" fill="none" stroke="#7f807f" d="M78.57219 0H82.82414M78.57219 40.34909H82.82414M78.57219 121.04727H82.82414M78.57219 161.39636H82.82414"/>
<path transform="matrix(1.00005,0,0,-1.00006,17.535973,166.5352)" stroke-width=".3985" stroke-linecap="butt" stroke-miterlimit="10" stroke-linejoin="miter" fill="none" stroke="#000000" d="M-16.43858 80.69818H175.84244"/>
<path transform="matrix(1.00005,0,0,-1.00006,193.3872,85.832187)" d="M1.99252 0-1.19551 1.59401 0 0-1.19551-1.59401"/>
<path transform="matrix(1.00005,0,0,-1.00006,17.535973,166.5352)" stroke-width=".3985" stroke-linecap="butt" stroke-miterlimit="10" stroke-linejoin="miter" fill="none" stroke="#000000" d="M80.69818 0V159.40384"/>
<path transform="matrix(0,-1.00006,-1.00005,-0,98.23818,7.121811)" d="M1.99252 0-1.19551 1.59401 0 0-1.19551-1.59401"/>
<use data-text="&#x2212;" xlink:href="#font_2_1" transform="matrix(9.963098,0,0,-9.963197,11.170654,97.899089)"/>
<use data-text="2" xlink:href="#font_3_2" transform="matrix(9.963098,0,0,-9.963197,18.919045,97.899089)"/>
<use data-text="&#x2212;" xlink:href="#font_2_1" transform="matrix(9.963098,0,0,-9.963197,51.52167,97.899089)"/>
<use data-text="1" xlink:href="#font_3_1" transform="matrix(9.963098,0,0,-9.963197,59.27006,97.899089)"/>
<use data-text="1" xlink:href="#font_3_1" transform="matrix(9.963098,0,0,-9.963197,136.09889,97.899089)"/>
<use data-text="2" xlink:href="#font_3_2" transform="matrix(9.963098,0,0,-9.963197,176.44992,97.899089)"/>
<use data-text="&#x2212;" xlink:href="#font_2_1" transform="matrix(9.963098,0,0,-9.963197,79.861087,169.33037)"/>
<use data-text="2" xlink:href="#font_3_2" transform="matrix(9.963098,0,0,-9.963197,87.609477,169.33037)"/>
<use data-text="&#x2212;" xlink:href="#font_2_1" transform="matrix(9.963098,0,0,-9.963197,79.861087,128.97895)"/>
<use data-text="1" xlink:href="#font_3_1" transform="matrix(9.963098,0,0,-9.963197,87.609477,128.97895)"/>
<use data-text="1" xlink:href="#font_3_1" transform="matrix(9.963098,0,0,-9.963197,87.61047,48.69114)"/>
<use data-text="2" xlink:href="#font_3_2" transform="matrix(9.963098,0,0,-9.963197,87.61047,8.339706)"/>
</svg>
