<svg xmlns="http://www.w3.org/2000/svg" xmlns:xlink="http://www.w3.org/1999/xlink" xmlns:inkscape="http://www.inkscape.org/namespaces/inkscape" version="1.1" width="197" height="171" viewBox="0 0 197 171">
<defs>
<path id="font_1_1" d="M.6589966 .23046875C.6759949 .23046875 .69400027 .23046875 .69400027 .25045777 .69400027 .27046205 .6759949 .27046205 .6589966 .27046205H.117996219C.100997928 .27046205 .08299255 .27046205 .08299255 .25045777 .08299255 .23046875 .100997928 .23046875 .117996219 .23046875H.6589966Z"/>
<path id="font_2_3" d="M.2899933 .35191346C.37199403 .37893678 .42999269 .4490509 .42999269 .52809146 .42999269 .6100464 .34199525 .6660156 .24598694 .6660156 .14498902 .6660156 .068984989 .60606387 .068984989 .53009036 .068984989 .49710084 .09098816 .47808839 .11999512 .47808839 .15098572 .47808839 .17098999 .50009158 .17098999 .5290985 .17098999 .57910159 .12399292 .57910159 .10899353 .57910159 .13999939 .62802127 .20599365 .64100649 .24198914 .64100649 .2829895 .64100649 .33799745 .6190338 .33799745 .5290985 .33799745 .51708987 .33599855 .45906068 .30999757 .4149933 .27999879 .36691285 .24598694 .36390687 .22099304 .36291505 .21299744 .36190797 .18899536 .35990907 .18199158 .35990907 .17399597 .35890199 .16699219 .35791017 .16699219 .3479004 .16699219 .33691407 .17399597 .33691407 .19099427 .33691407H.23498535C.31698609 .33691407 .35398866 .2686615 .35398866 .17037964 .35398866 .034469606 .2849884 .0055389406 .24099732 .0055389406 .19799805 .0055389406 .12298584 .022491456 .08799744 .08137512 .12298584 .07637024 .1539917 .09837341 .1539917 .1363678 .1539917 .17237854 .1269989 .19238281 .09799194 .19238281 .07398987 .19238281 .041992189 .17837525 .041992189 .1343689 .041992189 .043441774 .1349945-.022460938 .24398804-.022460938 .3659973-.022460938 .45700074 .06838989 .45700074 .17037964 .45700074 .252594 .3939972 .33088685 .2899933 .35191346Z"/>
<path id="font_2_2" d="M.1269989 .07699585 .23298645 .18003845C.3889923 .31811524 .44898988 .3721466 .44898988 .47216798 .44898988 .5860901 .35899354 .6660156 .23699951 .6660156 .12399292 .6660156 .049987794 .57411196 .049987794 .48516847 .049987794 .4291687 .099990848 .4291687 .102996829 .4291687 .11999512 .4291687 .15499878 .44117738 .15499878 .48217774 .15499878 .5081787 .13699341 .5341797 .101989749 .5341797 .09399414 .5341797 .09199524 .5341797 .08898926 .5331726 .11199951 .59806826 .1659851 .63500979 .22399903 .63500979 .31498719 .63500979 .35798646 .5541382 .35798646 .47216798 .35798646 .39215089 .30799867 .31311036 .25299073 .25108338L.06098938 .036987306C.049987794 .025985718 .049987794 .023986817 .049987794 0H.42099L.44898988 .17404175H.42399598C.4189911 .14402771 .4119873 .1000061 .4019928 .084991458 .394989 .07699585 .32899476 .07699585 .30699159 .07699585H.1269989Z"/>
<path id="font_2_1" d="M.2939911 .64004519C.2939911 .66400149 .2939911 .6660156 .2709961 .6660156 .20899964 .60227969 .12098694 .60227969 .08898926 .60227969V.57128909C.10899353 .57128909 .16799927 .57128909 .21998596 .5972748V.07902527C.21998596 .042999269 .21699524 .0309906 .1269989 .0309906H.09498596V0C.12998963 .0029907227 .21699524 .0029907227 .25698854 .0029907227 .29699708 .0029907227 .38398744 .0029907227 .4189911 0V.0309906H.3869934C.29699708 .0309906 .2939911 .041992189 .2939911 .07902527V.64004519Z"/>
<clipPath id="clip_3">
<path transform="matrix(1.00002,0,0,-1.00002,-9.364548,166.52207)" d="M10.46039 0H204.72664V161.39028H10.46039Z"/>
</clipPath>
</defs>
<path transform="matrix(1.00002,0,0,-1.00002,-9.364548,166.52207)" stroke-width=".3985" stroke-linecap="butt" stroke-miterlimit="10" stroke-linejoin="miter" fill="none" stroke="#bfbfbf" d="M26.89838 0V161.39028M53.79675 0V161.39028M80.69513 0V161.39028M134.4919 0V161.39028M161.39028 0V161.39028M188.28865 0V161.39028"/>
<path transform="matrix(1.00002,0,0,-1.00002,-9.364548,166.52207)" stroke-width=".3985" stroke-linecap="butt" stroke-miterlimit="10" stroke-linejoin="miter" fill="none" stroke="#bfbfbf" d="M10.46039 0H204.72664M10.46039 26.89838H204.72664M10.46039 53.79675H204.72664M10.46039 107.59352H204.72664M10.46039 134.4919H204.72664M10.46039 161.39028H204.72664"/>
<path transform="matrix(1.00002,0,0,-1.00002,-9.364548,166.52207)" stroke-width=".19925" stroke-linecap="butt" stroke-miterlimit="10" stroke-linejoin="miter" fill="none" stroke="#7f807f" d="M26.89838 78.56915V82.8211M53.79675 78.56915V82.8211M80.69513 78.56915V82.8211M134.4919 78.56915V82.8211M161.39028 78.56915V82.8211M188.28865 78.56915V82.8211"/>
<path transform="matrix(1.00002,0,0,-1.00002,-9.364548,166.52207)" stroke-width=".19925" stroke-linecap="butt" stroke-miterlimit="10" stroke-linejoin="miter" fill="none" stroke="#7f807f" d="M105.46753 0H109.71948M105.46753 26.89838H109.71948M105.46753 53.79675H109.71948M105.46753 107.59352H109.71948M105.46753 134.4919H109.71948M105.46753 161.39028H109.71948"/>
<path transform="matrix(1.00002,0,0,-1.00002,-9.364548,166.52207)" stroke-width=".3985" stroke-linecap="butt" stroke-miterlimit="10" stroke-linejoin="miter" fill="none" stroke="#000000" d="M10.46039 80.69513H202.73412"/>
<path transform="matrix(1.00002,0,0,-1.00002,193.37363,85.82532)" d="M1.99252 0-1.19551 1.59401 0 0-1.19551-1.59401"/>
<path transform="matrix(1.00002,0,0,-1.00002,-9.364548,166.52207)" stroke-width=".3985" stroke-linecap="butt" stroke-miterlimit="10" stroke-linejoin="miter" fill="none" stroke="#000000" d="M107.59352 0V159.39775"/>
<path transform="matrix(0,-1.00002,-1.00002,-0,98.231128,7.1211245)" d="M1.99252 0-1.19551 1.59401 0 0-1.19551-1.59401"/>
<use data-text="&#x2212;" xlink:href="#font_1_1" transform="matrix(9.962799,0,0,-9.962799,11.168865,97.89169)"/>
<use data-text="3" xlink:href="#font_2_3" transform="matrix(9.962799,0,0,-9.962799,18.918026,97.89169)"/>
<use data-text="&#x2212;" xlink:href="#font_1_1" transform="matrix(9.962799,0,0,-9.962799,38.0684,97.89169)"/>
<use data-text="2" xlink:href="#font_2_2" transform="matrix(9.962799,0,0,-9.962799,45.817564,97.89169)"/>
<use data-text="&#x2212;" xlink:href="#font_1_1" transform="matrix(9.962799,0,0,-9.962799,64.96694,97.89169)"/>
<use data-text="1" xlink:href="#font_2_1" transform="matrix(9.962799,0,0,-9.962799,72.7161,97.89169)"/>
<use data-text="1" xlink:href="#font_2_1" transform="matrix(9.962799,0,0,-9.962799,122.6391,97.89169)"/>
<use data-text="2" xlink:href="#font_2_2" transform="matrix(9.962799,0,0,-9.962799,149.53864,97.89169)"/>
<use data-text="3" xlink:href="#font_2_3" transform="matrix(9.962799,0,0,-9.962799,176.43718,97.89169)"/>
<use data-text="&#x2212;" xlink:href="#font_1_1" transform="matrix(9.962799,0,0,-9.962799,79.85424,169.31713)"/>
<use data-text="3" xlink:href="#font_2_3" transform="matrix(9.962799,0,0,-9.962799,87.6034,169.31713)"/>
<use data-text="&#x2212;" xlink:href="#font_1_1" transform="matrix(9.962799,0,0,-9.962799,79.85424,142.41858)"/>
<use data-text="2" xlink:href="#font_2_2" transform="matrix(9.962799,0,0,-9.962799,87.6034,142.41858)"/>
<use data-text="&#x2212;" xlink:href="#font_1_1" transform="matrix(9.962799,0,0,-9.962799,79.85424,115.51904)"/>
<use data-text="1" xlink:href="#font_2_1" transform="matrix(9.962799,0,0,-9.962799,87.6034,115.51904)"/>
<use data-text="1" xlink:href="#font_2_1" transform="matrix(9.962799,0,0,-9.962799,87.6034,62.13697)"/>
<use data-text="2" xlink:href="#font_2_2" transform="matrix(9.962799,0,0,-9.962799,87.6034,35.237443)"/>
<use data-text="3" xlink:href="#font_2_3" transform="matrix(9.962799,0,0,-9.962799,87.6034,8.338898)"/>
<g clip-path="url(#clip_3)">
<path transform="matrix(1.00002,0,0,-1.00002,-9.364548,166.52207)" stroke-width=".79701" stroke-linecap="butt" stroke-miterlimit="10" stroke-linejoin="miter" fill="none" stroke="#0000ff" d="M0-83.92294 2.17355-63.13795 4.34714-43.5405 6.5207-25.10193 8.69427-7.79483 10.86786 8.40953 13.04143 23.53893 15.215 37.62144 17.38858 50.68518 19.56215 62.75835 21.73573 73.869 23.9093 84.04535 26.08287 93.31528 28.25645 101.70708 30.43004 109.24869 32.60359 115.96835 34.77718 121.89415 36.95076 127.05415 39.12433 131.47646 41.2979 135.18914 43.47148 138.22028 45.64505 140.5981 47.81862 142.35057 49.9922 143.50595 52.16577 144.09221 54.33936 144.1375 56.51294 143.66986 58.6865 142.71749 60.86008 141.30843 63.03366 139.47078 65.20721 137.23271 67.3808 134.62221 69.55438 131.66745 71.72794 128.39658 73.90152 124.83759 76.0751 121.0187 78.24867 116.9679 80.42226 112.71332 82.59583 108.28314 84.7694 103.7054 86.94298 99.0082 89.11655 94.21965 91.29012 89.36784 93.4637 84.4809 95.63727 79.58691 97.81084 74.71397 99.98442 69.89021 102.158 65.1437 104.33157 60.50258 106.50514 55.9949 108.67873 51.64879 110.8523 47.49236 113.02586 43.5537 115.19945 39.8609 117.37302 36.4421 119.54659 33.32536 121.72017 30.5388 123.89374 28.11053 126.06732 26.06865 128.2409 24.44125 130.41446 23.25644 132.58805 22.54231 134.76163 22.32698 136.93518 22.63853 139.10877 23.5051 141.28235 24.95477 143.45592 27.01558 145.62949 29.71579 147.80307 33.0833 149.97664 37.14641 152.15023 41.93312 154.32379 47.47145 156.49736 53.7897 158.67095 60.91585 160.84452 68.8779 163.01808 77.7042 165.19167 87.42256 167.36525 98.06146 169.5388 109.64873 171.71239 122.21234 173.88597 135.78069 176.05954 150.38175 178.23311 166.04373 180.4067 182.79465 182.58026 200.66236 184.75383 219.67555 186.92742 239.86191 189.10099 261.24934 191.27457 283.86665 193.44814 307.74067 195.6217 332.90147"/>
</g>
</svg>
