<svg xmlns="http://www.w3.org/2000/svg" xmlns:xlink="http://www.w3.org/1999/xlink" xmlns:inkscape="http://www.inkscape.org/namespaces/inkscape" version="1.1" width="212" height="178" viewBox="0 0 212 178">
<defs>
<path id="font_1_1" d="M.6589966 .23046875C.6759949 .23046875 .69400027 .23046875 .69400027 .25045777 .69400027 .27046205 .6759949 .27046205 .6589966 .27046205H.117996219C.100997928 .27046205 .08299255 .27046205 .08299255 .25045777 .08299255 .23046875 .100997928 .23046875 .117996219 .23046875H.6589966Z"/>
<path id="font_2_4" d="M.2899933 .35191346C.37199403 .37893678 .42999269 .4490509 .42999269 .52809146 .42999269 .6100464 .34199525 .6660156 .24598694 .6660156 .14498902 .6660156 .068984989 .60606387 .068984989 .53009036 .068984989 .49710084 .09098816 .47808839 .11999512 .47808839 .15098572 .47808839 .17098999 .50009158 .17098999 .5290985 .17098999 .57910159 .12399292 .57910159 .10899353 .57910159 .13999939 .62802127 .20599365 .64100649 .24198914 .64100649 .2829895 .64100649 .33799745 .6190338 .33799745 .5290985 .33799745 .51708987 .33599855 .45906068 .30999757 .4149933 .27999879 .36691285 .24598694 .36390687 .22099304 .36291505 .21299744 .36190797 .18899536 .35990907 .18199158 .35990907 .17399597 .35890199 .16699219 .35791017 .16699219 .3479004 .16699219 .33691407 .17399597 .33691407 .19099427 .33691407H.23498535C.31698609 .33691407 .35398866 .2686615 .35398866 .17037964 .35398866 .034469606 .2849884 .0055389406 .24099732 .0055389406 .19799805 .0055389406 .12298584 .022491456 .08799744 .08137512 .12298584 .07637024 .1539917 .09837341 .1539917 .1363678 .1539917 .17237854 .1269989 .19238281 .09799194 .19238281 .07398987 .19238281 .041992189 .17837525 .041992189 .1343689 .041992189 .043441774 .1349945-.022460938 .24398804-.022460938 .3659973-.022460938 .45700074 .06838989 .45700074 .17037964 .45700074 .252594 .3939972 .33088685 .2899933 .35191346Z"/>
<path id="font_2_3" d="M.1269989 .07699585 .23298645 .18003845C.3889923 .31811524 .44898988 .3721466 .44898988 .47216798 .44898988 .5860901 .35899354 .6660156 .23699951 .6660156 .12399292 .6660156 .049987794 .57411196 .049987794 .48516847 .049987794 .4291687 .099990848 .4291687 .102996829 .4291687 .11999512 .4291687 .15499878 .44117738 .15499878 .48217774 .15499878 .5081787 .13699341 .5341797 .101989749 .5341797 .09399414 .5341797 .09199524 .5341797 .08898926 .5331726 .11199951 .59806826 .1659851 .63500979 .22399903 .63500979 .31498719 .63500979 .35798646 .5541382 .35798646 .47216798 .35798646 .39215089 .30799867 .31311036 .25299073 .25108338L.06098938 .036987306C.049987794 .025985718 .049987794 .023986817 .049987794 0H.42099L.44898988 .17404175H.42399598C.4189911 .14402771 .4119873 .1000061 .4019928 .084991458 .394989 .07699585 .32899476 .07699585 .30699159 .07699585H.1269989Z"/>
<path id="font_2_2" d="M.2939911 .64004519C.2939911 .66400149 .2939911 .6660156 .2709961 .6660156 .20899964 .60227969 .12098694 .60227969 .08898926 .60227969V.57128909C.10899353 .57128909 .16799927 .57128909 .21998596 .5972748V.07902527C.21998596 .042999269 .21699524 .0309906 .1269989 .0309906H.09498596V0C.12998963 .0029907227 .21699524 .0029907227 .25698854 .0029907227 .29699708 .0029907227 .38398744 .0029907227 .4189911 0V.0309906H.3869934C.29699708 .0309906 .2939911 .041992189 .2939911 .07902527V.64004519Z"/>
<path id="font_2_1" d="M.45999146 .31976319C.45999146 .39982606 .45498658 .47988893 .41999818 .5539398 .37399293 .65000918 .2919922 .6660156 .25 .6660156 .18998719 .6660156 .116989139 .64001467 .07598877 .54693606 .04399109 .47789 .038986207 .39982606 .038986207 .31976319 .038986207 .24472046 .042999269 .15464783 .083999637 .07859802 .1269989-.0024719239 .19999695-.022460938 .24899292-.022460938 .30299378-.022460938 .3789978-.0014648438 .4229889 .09359741 .45498658 .16265869 .45999146 .2407074 .45999146 .31976319M.24899292-.00047302247C.20999146-.00047302247 .15098572 .024551392 .1329956 .12062073 .12199402 .18066406 .12199402 .2727356 .12199402 .3317871 .12199402 .39582826 .12199402 .46188355 .12998963 .5159149 .14898682 .63500979 .22399903 .64401248 .24899292 .64401248 .28199769 .64401248 .34799195 .6259918 .36698915 .52693179 .3769989 .47088624 .3769989 .39482118 .3769989 .3317871 .3769989 .25672914 .3769989 .18867493 .3659973 .12461853 .35099793 .029556275 .2939911-.00047302247 .24899292-.00047302247Z"/>
<clipPath id="clip_3">
<path transform="matrix(1.00003,0,0,-1.00002,32.905588,166.52207)" d="M-16.43797 0H177.82825V161.39028H-16.43797Z"/>
</clipPath>
</defs>
<path transform="matrix(1.00003,0,0,-1.00002,32.905588,166.52207)" stroke-width=".3985" stroke-linecap="butt" stroke-miterlimit="10" stroke-linejoin="miter" fill="none" stroke="#bfbfbf" d="M0 0V161.39028M26.89838 0V161.39028M53.79675 0V161.39028M80.69513 0V161.39028M107.59352 0V161.39028M134.4919 0V161.39028M161.39028 0V161.39028"/>
<path transform="matrix(1.00003,0,0,-1.00002,32.905588,166.52207)" stroke-width=".3985" stroke-linecap="butt" stroke-miterlimit="10" stroke-linejoin="miter" fill="none" stroke="#bfbfbf" d="M-16.43797 0H177.82825M-16.43797 26.89838H177.82825M-16.43797 53.79675H177.82825M-16.43797 80.69513H177.82825M-16.43797 107.59352H177.82825M-16.43797 134.4919H177.82825M-16.43797 161.39028H177.82825"/>
<path transform="matrix(1.00003,0,0,-1.00002,32.905588,166.52207)" stroke-width=".19925" stroke-linecap="butt" stroke-miterlimit="10" stroke-linejoin="miter" fill="none" stroke="#7f807f" d="M0 0V4.25195M26.89838 0V4.25195M53.79675 0V4.25195M80.69513 0V4.25195M107.59352 0V4.25195M134.4919 0V4.25195M161.39028 0V4.25195M0 161.39028V157.13829M26.89838 161.39028V157.13829M53.79675 161.39028V157.13829M80.69513 161.39028V157.13829M107.59352 161.39028V157.13829M134.4919 161.39028V157.13829M161.39028 161.39028V157.13829"/>
<path transform="matrix(1.00003,0,0,-1.00002,32.905588,166.52207)" stroke-width=".19925" stroke-linecap="butt" stroke-miterlimit="10" stroke-linejoin="miter" fill="none" stroke="#7f807f" d="M-16.43797 0H-12.186M-16.43797 26.89838H-12.186M-16.43797 53.79675H-12.186M-16.43797 80.69513H-12.186M-16.43797 107.59352H-12.186M-16.43797 134.4919H-12.186M-16.43797 161.39028H-12.186M177.82825 0H173.5763M177.82825 26.89838H173.5763M177.82825 53.79675H173.5763M177.82825 80.69513H173.5763M177.82825 107.59352H173.5763M177.82825 134.4919H173.5763M177.82825 161.39028H173.5763"/>
<path transform="matrix(1.00003,0,0,-1.00002,32.905588,166.52207)" stroke-width=".3985" stroke-linecap="butt" stroke-miterlimit="10" stroke-linejoin="miter" fill="none" stroke="#000000" d="M-16.43797 0V161.39028H177.82825V0H-16.43797Z"/>
<use data-text="&#x2212;" xlink:href="#font_1_1" transform="matrix(9.962899,0,0,-9.962799,26.540398,176.46227)"/>
<use data-text="3" xlink:href="#font_2_4" transform="matrix(9.962899,0,0,-9.962799,34.28962,176.46227)"/>
<use data-text="&#x2212;" xlink:href="#font_1_1" transform="matrix(9.962899,0,0,-9.962799,53.4392,176.46227)"/>
<use data-text="2" xlink:href="#font_2_3" transform="matrix(9.962899,0,0,-9.962799,61.188425,176.46227)"/>
<use data-text="&#x2212;" xlink:href="#font_1_1" transform="matrix(9.962899,0,0,-9.962799,80.33901,176.46227)"/>
<use data-text="1" xlink:href="#font_2_2" transform="matrix(9.962899,0,0,-9.962799,88.088237,176.46227)"/>
<use data-text="0" xlink:href="#font_2_1" transform="matrix(9.962899,0,0,-9.962799,111.11194,176.46227)"/>
<use data-text="1" xlink:href="#font_2_2" transform="matrix(9.962899,0,0,-9.962799,138.01175,176.46227)"/>
<use data-text="2" xlink:href="#font_2_3" transform="matrix(9.962899,0,0,-9.962799,164.91056,176.46227)"/>
<use data-text="3" xlink:href="#font_2_4" transform="matrix(9.962899,0,0,-9.962799,191.81037,176.46227)"/>
<use data-text="&#x2212;" xlink:href="#font_1_1" transform="matrix(9.962899,0,0,-9.962799,.21659851,169.31713)"/>
<use data-text="3" xlink:href="#font_2_4" transform="matrix(9.962899,0,0,-9.962799,7.9658205,169.31713)"/>
<use data-text="&#x2212;" xlink:href="#font_1_1" transform="matrix(9.962899,0,0,-9.962799,.21659851,142.41858)"/>
<use data-text="2" xlink:href="#font_2_3" transform="matrix(9.962899,0,0,-9.962799,7.9658205,142.41858)"/>
<use data-text="&#x2212;" xlink:href="#font_1_1" transform="matrix(9.962899,0,0,-9.962799,.21659851,115.51904)"/>
<use data-text="1" xlink:href="#font_2_2" transform="matrix(9.962899,0,0,-9.962799,7.9658205,115.51904)"/>
<use data-text="0" xlink:href="#font_2_1" transform="matrix(9.962899,0,0,-9.962799,7.9658358,89.035518)"/>
<use data-text="1" xlink:href="#font_2_2" transform="matrix(9.962899,0,0,-9.962799,7.9658358,62.13697)"/>
<use data-text="2" xlink:href="#font_2_3" transform="matrix(9.962899,0,0,-9.962799,7.9658358,35.237443)"/>
<use data-text="3" xlink:href="#font_2_4" transform="matrix(9.962899,0,0,-9.962799,7.9658358,8.338898)"/>
<g clip-path="url(#clip_3)">
<path transform="matrix(1.00003,0,0,-1.00002,32.905588,166.52207)" stroke-width=".79701" stroke-linecap="butt" stroke-miterlimit="10" stroke-linejoin="miter" fill="none" stroke="#0000ff" d="M80.69513 80.69513 80.63971 82.40103 80.47804 84.09964 80.20827 85.78484 79.8317 87.44957 79.35182 89.08769 78.7673 90.69138 78.08275 92.2547 77.30135 93.77257 76.4242 95.23639 75.45639 96.6421 74.40144 97.98486 73.26337 99.25583 72.04675 100.45305 70.75752 101.57123 69.3986 102.60466 67.97812 103.55042 66.49977 104.40363 64.97032 105.16081 63.39651 105.82118 61.78342 106.37904 60.13803 106.83417 58.46791 107.18466 56.77817 107.42645 55.07684 107.56203 53.37067 107.58948 51.66614 107.5077 49.96991 107.3186 48.28903 107.02219 46.63048 106.6195 45.00017 106.11383 43.40617 105.5043 41.85333 104.79472 40.3489 103.98993 38.89882 103.08939 37.50816 102.0995 36.18315 101.02357 34.93022 99.86507 33.75208 98.6299 32.65462 97.32263 31.64297 95.94812 30.71982 94.51282 29.89 93.02104 29.1565 91.4803 28.52168 89.89598 27.98964 88.27374 27.56088 86.62192 27.23729 84.94614 27.0221 83.25316 26.91261 81.54968V79.8438L27.0221 78.1406 27.23701 76.44707 27.56035 74.7713 27.98883 73.1192 28.52036 71.49722 29.15541 69.9129 29.88893 68.37163 30.7182 66.87985 31.64136 65.44455 32.653 64.07004 33.7502 62.76224 34.92807 61.52734 36.18126 60.36856 37.50601 59.29262 38.89665 58.3025 40.34593 57.40166 41.85146 56.59633 43.40375 55.88756 44.99748 55.27722 46.62752 54.77153 48.28635 54.3686 49.96695 54.07219 51.66318 53.88283 53.36772 53.80078 55.07414 53.82875 56.7752 53.96379 58.46469 54.20506 60.13562 54.55554 61.78046 55.0104 63.39355 55.56827 64.96791 56.22783 66.49683 56.985 67.97568 57.83823 69.3962 58.78398 70.7551 59.81715 72.0446 60.93558 73.26122 62.13202 74.39955 63.4035 75.45479 64.74547 76.42259 66.15117 77.30002 67.61525 78.0814 69.13258 78.76651 70.69618 79.35048 72.30014 79.83115 73.93771 80.20801 75.60246 80.47752 77.28764 80.63918 78.98654 80.69458 80.69244"/>
</g>
</svg>
