<svg xmlns="http://www.w3.org/2000/svg" xmlns:xlink="http://www.w3.org/1999/xlink" xmlns:inkscape="http://www.inkscape.org/namespaces/inkscape" version="1.1" width="230" height="183" viewBox="0 0 230 183">
<defs>
<path id="font_1_1" d="M.6589966 .23046875C.6759949 .23046875 .69400027 .23046875 .69400027 .25045777 .69400027 .27046205 .6759949 .27046205 .6589966 .27046205H.117996219C.100997928 .27046205 .08299255 .27046205 .08299255 .25045777 .08299255 .23046875 .100997928 .23046875 .117996219 .23046875H.6589966Z"/>
<path id="font_2_2" d="M.2939911 .64004519C.2939911 .66400149 .2939911 .6660156 .2709961 .6660156 .20899964 .60227969 .12098694 .60227969 .08898926 .60227969V.57128909C.10899353 .57128909 .16799927 .57128909 .21998596 .5972748V.07902527C.21998596 .042999269 .21699524 .0309906 .1269989 .0309906H.09498596V0C.12998963 .0029907227 .21699524 .0029907227 .25698854 .0029907227 .29699708 .0029907227 .38398744 .0029907227 .4189911 0V.0309906H.3869934C.29699708 .0309906 .2939911 .041992189 .2939911 .07902527V.64004519Z"/>
<path id="font_2_1" d="M.45999146 .31976319C.45999146 .39982606 .45498658 .47988893 .41999818 .5539398 .37399293 .65000918 .2919922 .6660156 .25 .6660156 .18998719 .6660156 .116989139 .64001467 .07598877 .54693606 .04399109 .47789 .038986207 .39982606 .038986207 .31976319 .038986207 .24472046 .042999269 .15464783 .083999637 .07859802 .1269989-.0024719239 .19999695-.022460938 .24899292-.022460938 .30299378-.022460938 .3789978-.0014648438 .4229889 .09359741 .45498658 .16265869 .45999146 .2407074 .45999146 .31976319M.24899292-.00047302247C.20999146-.00047302247 .15098572 .024551392 .1329956 .12062073 .12199402 .18066406 .12199402 .2727356 .12199402 .3317871 .12199402 .39582826 .12199402 .46188355 .12998963 .5159149 .14898682 .63500979 .22399903 .64401248 .24899292 .64401248 .28199769 .64401248 .34799195 .6259918 .36698915 .52693179 .3769989 .47088624 .3769989 .39482118 .3769989 .3317871 .3769989 .25672914 .3769989 .18867493 .3659973 .12461853 .35099793 .029556275 .2939911-.00047302247 .24899292-.00047302247Z"/>
<path id="font_3_1" d="M.19198609 .052993776C.19198609 .08198547 .16799927 .10598755 .13899231 .10598755 .10998535 .10598755 .085998538 .08198547 .085998538 .052993776 .085998538 .023986817 .10998535 0 .13899231 0 .16799927 0 .19198609 .023986817 .19198609 .052993776Z"/>
<path id="font_2_4" d="M.44898988 .20022583C.44898988 .3193512 .36698915 .41944886 .25898744 .41944886 .21099854 .41944886 .16799927 .40345765 .13198853 .36842347V.5637665C.1519928 .5577698 .18499756 .55078127 .21699524 .55078127 .33999635 .55078127 .4099884 .6417694 .4099884 .6547699 .4099884 .6607666 .40699769 .6657715 .3999939 .6657715 .39898683 .6657715 .39698792 .6657715 .3919983 .66278079 .37199403 .6537781 .32299806 .6337738 .2559967 .6337738 .21598816 .6337738 .16999817 .6407776 .12298584 .6617737 .114990238 .66477969 .11299133 .66477969 .11099243 .66477969 .100997928 .66477969 .100997928 .6567688 .100997928 .6407776V.34439088C.100997928 .32637025 .100997928 .31835938 .114990238 .31835938 .12199402 .31835938 .12399292 .32136537 .12799073 .32736207 .13899231 .3433838 .17599488 .39746095 .25698854 .39746095 .30899049 .39746095 .33399964 .35139466 .34199525 .33337403 .35798646 .29632569 .3600006 .25727845 .3600006 .20722962 .3600006 .17222595 .3600006 .11222839 .33599855 .07035828 .31199647 .031463624 .2749939 .0055389406 .22898865 .0055389406 .1559906 .0055389406 .09899902 .058380128 .08198547 .11723328 .084991458 .1162262 .08799744 .115234378 .09899902 .115234378 .13198853 .115234378 .14898682 .14022827 .14898682 .16423035 .14898682 .18823242 .13198853 .21322632 .09899902 .21322632 .084991458 .21322632 .049987794 .20622254 .049987794 .16023255 .049987794 .07434082 .11898804-.022460938 .23098755-.022460938 .34700013-.022460938 .44898988 .073349 .44898988 .20022583Z"/>
<path id="font_2_3" d="M.1269989 .07699585 .23298645 .18003845C.3889923 .31811524 .44898988 .3721466 .44898988 .47216798 .44898988 .5860901 .35899354 .6660156 .23699951 .6660156 .12399292 .6660156 .049987794 .57411196 .049987794 .48516847 .049987794 .4291687 .099990848 .4291687 .102996829 .4291687 .11999512 .4291687 .15499878 .44117738 .15499878 .48217774 .15499878 .5081787 .13699341 .5341797 .101989749 .5341797 .09399414 .5341797 .09199524 .5341797 .08898926 .5331726 .11199951 .59806826 .1659851 .63500979 .22399903 .63500979 .31498719 .63500979 .35798646 .5541382 .35798646 .47216798 .35798646 .39215089 .30799867 .31311036 .25299073 .25108338L.06098938 .036987306C.049987794 .025985718 .049987794 .023986817 .049987794 0H.42099L.44898988 .17404175H.42399598C.4189911 .14402771 .4119873 .1000061 .4019928 .084991458 .394989 .07699585 .32899476 .07699585 .30699159 .07699585H.1269989Z"/>
<clipPath id="clip_4">
<path transform="matrix(1.00002,0,0,-1.00005,29.59629,102.59233)" d="M194.25289-46.46281V48.0801L153.21616 100.78947 0 86.66394V-7.87897L41.03671-60.58835Z"/>
</clipPath>
<path id="font_3_2" d="M.33399964 .30233766C.33999635 .32835389 .36299134 .42037965 .43299867 .42037965 .43798829 .42037965 .46199037 .42037965 .48298646 .40734864 .45498658 .402359 .43499757 .37734986 .43499757 .35334779 .43499757 .33735658 .44599916 .31835938 .47299195 .31835938 .49499513 .31835938 .5269928 .3363495 .5269928 .37635804 .5269928 .42837525 .46798707 .4423828 .43399049 .4423828 .37599183 .4423828 .34098817 .38935853 .32899476 .36634828 .3039856 .43237306 .25 .4423828 .22099304 .4423828 .116989139 .4423828 .05999756 .3133545 .05999756 .28834535 .05999756 .27833558 .069992069 .27833558 .07199097 .27833558 .07998657 .27833558 .08299255 .28033448 .084991458 .28933717 .11898804 .39535523 .18499756 .42037965 .21899414 .42037965 .23799134 .42037965 .272995 .4113617 .272995 .35334779 .272995 .32235719 .2559967 .25532533 .21899414 .11528015 .20298767 .053268434 .16799927 .011245728 .12399292 .011245728 .117996219 .011245728 .09498596 .011245728 .07398987 .024276734 .09899902 .029266358 .12098694 .05027771 .12098694 .07827759 .12098694 .105270389 .09899902 .11328125 .083999637 .11328125 .053985597 .11328125 .0289917 .08728027 .0289917 .055267335 .0289917 .009246826 .07899475-.0107421879 .12298584-.0107421879 .18899536-.0107421879 .22499085 .059280397 .22799683 .0652771 .23999024 .028274537 .27598573-.0107421879 .33599855-.0107421879 .43899537-.0107421879 .49598695 .118270877 .49598695 .14328003 .49598695 .1532898 .4869995 .1532898 .48399354 .1532898 .47499085 .1532898 .47299195 .14929199 .47099305 .14228821 .43798829 .03527832 .36999513 .011245728 .33799745 .011245728 .29899598 .011245728 .2829895 .043273927 .2829895 .07727051 .2829895 .09927368 .2889862 .121276859 .2999878 .16529846L.33399964 .30233766Z"/>
<path id="font_3_3" d="M.48599244 .38136292C.48999024 .39537049 .48999024 .39736939 .48999024 .40437318 .48999024 .42237855 .47599793 .43138124 .46099855 .43138124 .45098878 .43138124 .43499757 .42536927 .42599488 .41036988 .42399598 .405365 .41600038 .37435914 .4119873 .35635377 .40499879 .33035279 .397995 .30334474 .3919983 .27633668L.34700013 .09628296C.34298707 .08126831 .2999878 .011245728 .23399353 .011245728 .18299866 .011245728 .17199707 .055267335 .17199707 .0922699 .17199707 .1382904 .18899536 .20030213 .22299195 .28833009 .23899842 .3293457 .24299622 .3403473 .24299622 .36035157 .24299622 .405365 .21099854 .4423828 .16099549 .4423828 .06599426 .4423828 .0289917 .29733277 .0289917 .28833009 .0289917 .27833558 .038986207 .27833558 .040985109 .27833558 .050994874 .27833558 .051986696 .28033448 .056991579 .29634095 .083999637 .3903656 .12399292 .42037965 .1579895 .42037965 .1659851 .42037965 .18299866 .42037965 .18299866 .3883667 .18299866 .36335755 .17298889 .3373413 .1659851 .31834413 .12599182 .21231079 .10798645 .1552887 .10798645 .10827637 .10798645 .019256592 .17098999-.0107421879 .22999573-.0107421879 .2689972-.0107421879 .30299378 .0062561037 .33099366 .03425598 .31799317-.017745972 .30599977-.06674194 .2659912-.11973572 .23999024-.15385437 .20199585-.18309021 .1559906-.18309021 .14199829-.18309021 .09700012-.18005371 .07998657-.14074707 .09599304-.14074707 .10899353-.14074707 .12298584-.1287384 .1329956-.11973572 .14299011-.10673523 .14299011-.08773804 .14299011-.056747438 .115997318-.052734376 .10598755-.052734376 .08299255-.052734376 .049987794-.068740848 .049987794-.11773682 .049987794-.16796875 .09399414-.20507813 .1559906-.20507813 .25898744-.20507813 .3619995-.11373901 .3899994-.00074768069L.48599244 .38136292Z"/>
<path id="font_3_4" d="M.1329956 .08345032C.18699646 .14138794 .21598816 .16636658 .2519989 .19732666 .2519989 .19833374 .31399537 .25128175 .34999085 .2872467 .44499208 .3803711 .46699525 .42837525 .46699525 .43237306 .46699525 .4423828 .45799256 .4423828 .45599366 .4423828 .44898988 .4423828 .44599916 .44036866 .44099427 .43138124 .41099549 .38337709 .3899994 .3671875 .3659973 .3671875 .34199525 .3671875 .32998658 .38237 .31498719 .3993683 .29599 .42237855 .2789917 .4423828 .24598694 .4423828 .17098999 .4423828 .125 .34918214 .125 .3282013 .125 .3231964 .12799073 .31721498 .13699341 .31721498 .1459961 .31721498 .147995 .3222046 .1499939 .3282013 .16899109 .37434388 .22698975 .37538148 .23498535 .37538148 .2559967 .37538148 .2749939 .36820985 .2979889 .36018373 .33799745 .34518434 .34899903 .34518434 .375 .34518434 .33898927 .30223084 .25498963 .2303009 .23599243 .21430969L.1459961 .13040161C.07798767 .06341553 .042999269 .0062561037 .042999269-.00074768069 .042999269-.0107421879 .052993776-.0107421879 .054992677-.0107421879 .06298828-.0107421879 .06498718-.008743286 .070999149 .002243042 .09399414 .037246705 .12399292 .064453128 .1559906 .064453128 .1789856 .064453128 .18899536 .055252077 .21398926 .026245118 .23098755 .0052490236 .24899292-.0107421879 .27799989-.0107421879 .3769989-.0107421879 .43499757 .1164093 .43499757 .14338684 .43499757 .14837647 .43099977 .15338135 .4229889 .15338135 .4139862 .15338135 .4119873 .14738465 .40899659 .14039612 .38598634 .07543945 .32199098 .056243898 .2889862 .056243898 .2689972 .056243898 .25099183 .06239319 .22999573 .06944275 .19599915 .08244324 .18099976 .08644104 .1599884 .08644104 .1579895 .08644104 .14199829 .08644104 .1329956 .08345032Z"/>
</defs>
<path transform="matrix(1.00002,0,0,-1.00005,29.59629,102.59233)" stroke-width=".19925" stroke-linecap="butt" stroke-miterlimit="10" stroke-linejoin="miter" fill="none" stroke="#7f807f" d="M-.00696-7.87001 4.22716-7.47966M10.25435-21.05011 14.48848-20.65976M20.51569-34.23022 24.74982-33.83987M30.77702-47.41034 35.01115-47.01999M41.03836-60.59045 45.27249-60.2001M153.2092 6.2555 148.97505 5.86514M163.47052-6.92459 159.23638-7.31494M173.73186-20.1047 169.49771-20.49506M183.99318-33.28482 179.75904-33.67517M194.25452-46.46494 190.02037-46.85529"/>
<path transform="matrix(1.00002,0,0,-1.00005,29.59629,102.59233)" stroke-width=".19925" stroke-linecap="butt" stroke-miterlimit="10" stroke-linejoin="miter" fill="none" stroke="#7f807f" d="M0-7.87897 2.61293-11.23514M38.30441-4.34755 40.91734-7.70372M76.60884-.81613 79.22177-4.1723M114.91327 2.71527 117.5262-.64088M153.2177 6.2467 155.83063 2.89053M41.03671-60.58835 38.42377-57.23218M79.34114-57.05693 76.7282-53.70076M117.64557-53.5255 115.03262-50.16933M155.94998-49.99408 153.33704-46.63791M194.25441-46.46266 191.64147-43.10649"/>
<path transform="matrix(1.00002,0,0,-1.00005,29.59629,102.59233)" stroke-width=".3985" stroke-linecap="butt" stroke-miterlimit="10" stroke-linejoin="miter" fill="none" stroke="#000000" d="M0-7.87897 41.03671-60.58835"/>
<path transform="matrix(1.00002,0,0,-1.00005,29.59629,102.59233)" stroke-width=".3985" stroke-linecap="butt" stroke-miterlimit="10" stroke-linejoin="miter" fill="none" stroke="#000000" d="M153.21616 6.24655 194.25289-46.46281"/>
<path transform="matrix(1.00002,0,0,-1.00005,29.59629,102.59233)" stroke-width=".3985" stroke-linecap="butt" stroke-miterlimit="10" stroke-linejoin="miter" fill="none" stroke="#000000" d="M0-7.87897 153.21616 6.24655"/>
<path transform="matrix(1.00002,0,0,-1.00005,29.59629,102.59233)" stroke-width=".3985" stroke-linecap="butt" stroke-miterlimit="10" stroke-linejoin="miter" fill="none" stroke="#000000" d="M41.03671-60.58835 194.25289-46.46281"/>
<use data-text="&#x2212;" xlink:href="#font_1_1" transform="matrix(9.962799,0,0,-9.963098,14.889999,122.395328)"/>
<use data-text="1" xlink:href="#font_2_2" transform="matrix(9.962799,0,0,-9.963098,22.639145,122.395328)"/>
<use data-text="&#x2212;" xlink:href="#font_1_1" transform="matrix(9.962799,0,0,-9.963098,19.18708,137.8681)"/>
<use data-text="0" xlink:href="#font_2_1" transform="matrix(9.962799,0,0,-9.963098,26.936226,137.8681)"/>
<use data-text="." xlink:href="#font_3_1" transform="matrix(9.962799,0,0,-9.963098,31.917336,137.8681)"/>
<use data-text="5" xlink:href="#font_2_4" transform="matrix(9.962799,0,0,-9.963098,34.685388,137.8681)"/>
<use data-text="0" xlink:href="#font_2_1" transform="matrix(9.962799,0,0,-9.963098,41.55153,146.68955)"/>
<use data-text="0" xlink:href="#font_2_1" transform="matrix(9.962799,0,0,-9.963098,45.848619,162.16231)"/>
<use data-text="." xlink:href="#font_3_1" transform="matrix(9.962799,0,0,-9.963098,50.83072,162.16231)"/>
<use data-text="5" xlink:href="#font_2_4" transform="matrix(9.962799,0,0,-9.963098,53.597764,162.16231)"/>
<use data-text="1" xlink:href="#font_2_2" transform="matrix(9.962799,0,0,-9.963098,62.074945,173.05084)"/>
<use data-text="0" xlink:href="#font_2_1" transform="matrix(9.962799,0,0,-9.963098,70.56711,173.45487)"/>
<use data-text="0" xlink:href="#font_2_1" transform="matrix(9.962799,0,0,-9.963098,105.1168,170.26972)"/>
<use data-text="." xlink:href="#font_3_1" transform="matrix(9.962799,0,0,-9.963098,110.0989,170.26972)"/>
<use data-text="5" xlink:href="#font_2_4" transform="matrix(9.962799,0,0,-9.963098,112.865947,170.26972)"/>
<use data-text="1" xlink:href="#font_2_2" transform="matrix(9.962799,0,0,-9.963098,147.17765,166.39151)"/>
<use data-text="1" xlink:href="#font_2_2" transform="matrix(9.962799,0,0,-9.963098,181.72736,163.20636)"/>
<use data-text="." xlink:href="#font_3_1" transform="matrix(9.962799,0,0,-9.963098,186.70944,163.20636)"/>
<use data-text="5" xlink:href="#font_2_4" transform="matrix(9.962799,0,0,-9.963098,189.4765,163.20636)"/>
<use data-text="2" xlink:href="#font_2_3" transform="matrix(9.962799,0,0,-9.963098,223.78818,159.32816)"/>
<path transform="matrix(1.00002,0,0,-1.00005,29.59629,102.59233)" stroke-width=".19925" stroke-linecap="butt" stroke-miterlimit="10" stroke-linejoin="miter" fill="none" stroke="#7f807f" d="M153.2092 100.79843 148.97505 100.40807M163.47052 87.61833 159.23638 87.22797M173.73186 74.43822 169.49771 74.04785M183.99318 61.2581 179.75904 60.86774M194.25452 48.07799 190.02037 47.68762"/>
<path transform="matrix(1.00002,0,0,-1.00005,29.59629,102.59233)" stroke-width=".19925" stroke-linecap="butt" stroke-miterlimit="10" stroke-linejoin="miter" fill="none" stroke="#7f807f" d="M0 86.66394 2.61293 83.30777M38.30441 90.19537 40.91734 86.8392M76.60884 93.72679 79.22177 90.37062M114.91327 97.25821 117.5262 93.90204M153.2177 100.78963 155.83063 97.43346"/>
<path transform="matrix(1.00002,0,0,-1.00005,29.59629,102.59233)" stroke-width=".3985" stroke-linecap="butt" stroke-miterlimit="10" stroke-linejoin="miter" fill="none" stroke="#000000" d="M153.21616 100.78947 194.25289 48.0801"/>
<path transform="matrix(1.00002,0,0,-1.00005,29.59629,102.59233)" stroke-width=".3985" stroke-linecap="butt" stroke-miterlimit="10" stroke-linejoin="miter" fill="none" stroke="#000000" d="M0 86.66394 153.21616 100.78947"/>
<path transform="matrix(1.00002,0,0,-1.00005,29.59629,102.59233)" stroke-width=".19925" stroke-linecap="butt" stroke-miterlimit="10" stroke-linejoin="miter" fill="none" stroke="#7f807f" d="M0-7.87897V-3.62706M38.30441-4.34755V-.09564M76.60884-.81613V3.43576M114.91327 2.71527V6.96718M153.2177 6.2467V10.4986M0 86.66394V82.41205M38.30441 90.19537V85.94347M76.60884 93.72679V89.47488M114.91327 97.25821V93.0063M153.2177 100.78963V96.53772"/>
<path transform="matrix(1.00002,0,0,-1.00005,29.59629,102.59233)" stroke-width=".19925" stroke-linecap="butt" stroke-miterlimit="10" stroke-linejoin="miter" fill="none" stroke="#7f807f" d="M0-.00076 4.23413 .38957M0 39.39209 4.23413 39.78244M0 78.78497 4.23413 79.17534M153.21616 14.12474 148.98201 13.73439M153.21616 53.51761 148.98201 53.12726M153.21616 92.9105 148.98201 92.52014"/>
<path transform="matrix(1.00002,0,0,-1.00005,29.59629,102.59233)" stroke-width=".3985" stroke-linecap="butt" stroke-miterlimit="10" stroke-linejoin="miter" fill="none" stroke="#000000" d="M0-7.87897V86.66394"/>
<path transform="matrix(1.00002,0,0,-1.00005,29.59629,102.59233)" stroke-width=".3985" stroke-linecap="butt" stroke-miterlimit="10" stroke-linejoin="miter" fill="none" stroke="#000000" d="M153.21616 6.24655V100.78947"/>
<use data-text="&#x2212;" xlink:href="#font_1_1" transform="matrix(9.962799,0,0,-9.963098,13.345963,101.107257)"/>
<use data-text="1" xlink:href="#font_2_2" transform="matrix(9.962799,0,0,-9.963098,21.095108,101.107257)"/>
<use data-text="0" xlink:href="#font_2_1" transform="matrix(9.962799,0,0,-9.963098,21.095124,63.805395)"/>
<use data-text="1" xlink:href="#font_2_2" transform="matrix(9.962799,0,0,-9.963098,21.095124,24.410424)"/>
<path transform="matrix(1.00002,0,0,-1.00005,29.59629,102.59233)" stroke-width=".19925" stroke-linecap="butt" stroke-miterlimit="10" stroke-linejoin="miter" fill="none" stroke="#7f807f" d="M41.03671-60.58835V-56.33644M79.34114-57.05693V-52.80502M117.64557-53.5255V-49.2736M155.94998-49.99408V-45.74219M194.25441-46.46266V-42.21077"/>
<path transform="matrix(1.00002,0,0,-1.00005,29.59629,102.59233)" stroke-width=".19925" stroke-linecap="butt" stroke-miterlimit="10" stroke-linejoin="miter" fill="none" stroke="#7f807f" d="M194.25289-38.58463 190.01874-38.97498M194.25289 .80824 190.01874 .41788M194.25289 40.20113 190.01874 39.81076"/>
<path transform="matrix(1.00002,0,0,-1.00005,29.59629,102.59233)" stroke-width=".3985" stroke-linecap="butt" stroke-miterlimit="10" stroke-linejoin="miter" fill="none" stroke="#000000" d="M194.25289-46.46281V48.0801"/>
<path transform="matrix(1.00002,0,0,-1.00005,29.59629,102.59233)" stroke-width=".19925" stroke-linecap="butt" stroke-miterlimit="10" stroke-linejoin="miter" fill="none" stroke="#7f807f" d="M-.00696-7.87001V-3.6181M10.25435-21.05011V-16.7982M20.51569-34.23022V-29.97832M30.77702-47.41034V-43.15843M41.03836-60.59045V-56.33856"/>
<path transform="matrix(1.00002,0,0,-1.00005,29.59629,102.59233)" stroke-width=".19925" stroke-linecap="butt" stroke-miterlimit="10" stroke-linejoin="miter" fill="none" stroke="#7f807f" d="M0-.00076 2.61293-3.35693M0 39.39209 2.61293 36.03592M0 78.78497 2.61293 75.4288"/>
<path transform="matrix(1.00002,0,0,-1.00005,29.59629,102.59233)" stroke-width=".19925" stroke-linecap="butt" stroke-miterlimit="10" stroke-linejoin="miter" fill="none" stroke="#7f807f" d="M153.2092 6.2555V10.5074M163.47052-6.92459V-2.67268M173.73186-20.1047V-15.8528M183.99318-33.28482V-29.03291M194.25452-46.46494V-42.21303M153.2092 100.79843V96.54652M163.47052 87.61833V83.36642M173.73186 74.43822V70.18631M183.99318 61.2581V57.0062M194.25452 48.07799V43.82608"/>
<path transform="matrix(1.00002,0,0,-1.00005,29.59629,102.59233)" stroke-width=".19925" stroke-linecap="butt" stroke-miterlimit="10" stroke-linejoin="miter" fill="none" stroke="#7f807f" d="M153.21616 14.12474 155.82909 10.76857M153.21616 53.51761 155.82909 50.16144M153.21616 92.9105 155.82909 89.55434M194.25289-38.58463 191.63994-35.22845M194.25289 .80824 191.63994 4.16441M194.25289 40.20113 191.63994 43.5573"/>
<g clip-path="url(#clip_4)">
<path transform="matrix(1.00002,0,0,-1.00005,29.59629,102.59233)" stroke-width=".3985" stroke-linecap="butt" stroke-miterlimit="10" stroke-linejoin="miter" fill="none" stroke="#0000ff" d="M20.51569 52.43372 22.9034 50.30183 25.28128 47.94193 27.63947 45.3623 29.9677 42.58481 32.25589 39.62314 34.49545 36.4998 36.67601 33.23232 38.79013 29.8429 40.82806 26.35245 42.78343 22.78192 44.64734 19.15576 46.41412 15.4966 48.0772 11.82793 49.63074 8.17201 51.07066 4.55235 52.39148 .9921 53.59134-2.48618 54.6657-5.85907 55.6147-9.1074 56.4354-12.20766 57.12889-15.14397 57.69447-17.8941 58.13521-20.4434 58.45026-22.7723 58.64543-24.86897 58.72237-26.7169 58.68698-28.30838 58.54208-29.6279 58.2952-30.67097 57.95186-31.42792 57.5197-31.89417 57.00539-32.06834 56.41753-31.94727 55.76411-31.53056 55.05382-30.82155 54.2971-29.82446 53.50198-28.54372 52.67921-26.98866 51.83864-25.16669 50.98962-23.0914 50.14268-20.77122 49.30779-18.22444 48.49501-15.46153 47.71355-12.50455 46.97429-9.36679 46.28604-6.07187 45.65765-2.63557 45.09798 .91754 44.61595 4.5685 44.2178 8.29312 43.91273 12.06944 43.70598 15.87508 43.60431 19.68478 43.61304 23.4776 43.7365 27.2294 43.97945 30.91602 44.34439 34.51709 44.83495 38.00873 45.45108 41.37184 46.19589 44.58229 47.06775 47.62474 48.0667 50.4785 49.19145 53.12659 50.43925 55.55272 51.80838 57.74377 53.29474 59.68158 54.89233 61.36227 56.59769 62.76865 58.40495 63.89703 60.30478 64.73875 62.29451 65.29007 64.36551 65.54515 66.50577 65.50748 68.71126 65.174 70.97035 64.54916 73.27654 63.63591 75.61748 62.4434 77.9839 60.97559 80.36766 59.24417 82.7576 57.2606 85.14168 55.03664 87.51337 52.58617 89.86104 49.92538 92.17392 47.07275 94.4434 44.0441 96.66003 40.8613 98.81633 37.54169 100.90059 34.10979 102.90654 30.58398 104.82599 26.98953 106.65257 23.34709 108.37732 19.681 109.99916 16.01524 111.50732 12.37036 112.89993 8.7718 114.17188 5.24242 115.32285 1.80319 116.34767-1.52348 117.24425-4.71492 118.01492-7.75078 118.65817-10.61546 119.17265-13.2877 119.56268-15.74985 119.83057-17.98782 119.97748-19.98782 120.00838-21.7338 119.92809-23.21783 119.74222-24.42706 119.45686-25.3587 119.0757-25.99858 118.61093-26.35048 118.06674-26.40457 117.45102-26.1672 116.77367-25.6318 116.04477-24.80853 115.27-23.69563 114.46297-22.30545 113.63095-20.64197 112.78648-18.71774 111.93738-16.54239 111.09303-14.1296 110.26645-11.4944 109.46611-8.65228 108.69975-5.62076 107.98106-2.41795 107.31465 .93584 106.71324 4.42036 106.18227 8.0158 105.73413 11.69844 105.37125 15.44635 105.10455 19.23796 104.9381 23.04672 104.88243 26.85413 104.93556 30.63255 105.1064 34.36128 105.39809 38.0178 105.81284 41.57643 106.35287 45.02002 107.02025 48.32347 107.81598 51.47008 108.73898 54.4387 109.78807 57.21208 110.96326 59.77318 112.26076 62.10628 113.67616 64.19838 115.20747 66.03511 116.84937 67.60718 118.59537 68.90352 120.44006 69.9182 122.37697 70.6428 124.39975 71.07843 126.49931 71.2154 128.6667 71.06058 130.89531 70.60939 133.17502 69.87119 135.49568 68.84308 137.8479 67.54034 140.22368 65.96455 142.6098 64.13188 144.99835 62.04938 147.37833 59.73378 149.74176 57.19766 152.07674 54.45833 154.3728 51.53282 156.62357 48.4398 158.81691 45.20049 160.94464 41.83398 162.99887 38.36131 164.97219 34.80536 166.85448 31.18889 168.6415 27.53354 170.32494 23.86603 171.90155 20.20468 173.36473 16.5765 174.70912 13.00214 175.93437 9.50491 177.0335 6.11037 178.009 2.83426 178.85604-.29689 179.5745-3.26778 180.16565-6.05678 180.63004-8.64659 180.97139-11.02188 181.18972-13.16602 181.28998-15.06607 181.27713-16.70906 181.15486-18.08429 180.92626-19.18272 180.60309-19.99777 180.18704-20.5239 179.68943-20.75719 179.11518-20.6944 178.4755-20.338 177.77562-19.6869 177.02803-18.74863 176.23773-17.52267 175.42078-16.023 174.58254-14.25317 173.7339-12.22836"/>
</g>
<use data-text="x" xlink:href="#font_3_2" transform="matrix(9.962799,0,0,-9.963098,21.41513,167.31757)"/>
<use data-text="y" xlink:href="#font_3_3" transform="matrix(9.962799,0,0,-9.963098,152.58975,180.49922)"/>
<use data-text="z" xlink:href="#font_3_4" transform="matrix(0,-9.963098,-9.962799,-0,5.50581,54.370927)"/>
</svg>
