<svg xmlns="http://www.w3.org/2000/svg" xmlns:xlink="http://www.w3.org/1999/xlink" xmlns:inkscape="http://www.inkscape.org/namespaces/inkscape" version="1.1" width="206" height="175" viewBox="0 0 206 175">
<defs>
<clipPath id="clip_1">
<path transform="matrix(1.00002,0,0,-1.00005,9.717903,163.19936)" d="M0 0H194.27347V161.39472H0Z"/>
</clipPath>
<path id="font_2_1" d="M.45999146 .31976319C.45999146 .39982606 .45498658 .47988893 .41999818 .5539398 .37399293 .65000918 .2919922 .6660156 .25 .6660156 .18998719 .6660156 .116989139 .64001467 .07598877 .54693606 .04399109 .47789 .038986207 .39982606 .038986207 .31976319 .038986207 .24472046 .042999269 .15464783 .083999637 .07859802 .1269989-.0024719239 .19999695-.022460938 .24899292-.022460938 .30299378-.022460938 .3789978-.0014648438 .4229889 .09359741 .45498658 .16265869 .45999146 .2407074 .45999146 .31976319M.24899292-.00047302247C.20999146-.00047302247 .15098572 .024551392 .1329956 .12062073 .12199402 .18066406 .12199402 .2727356 .12199402 .3317871 .12199402 .39582826 .12199402 .46188355 .12998963 .5159149 .14898682 .63500979 .22399903 .64401248 .24899292 .64401248 .28199769 .64401248 .34799195 .6259918 .36698915 .52693179 .3769989 .47088624 .3769989 .39482118 .3769989 .3317871 .3769989 .25672914 .3769989 .18867493 .3659973 .12461853 .35099793 .029556275 .2939911-.00047302247 .24899292-.00047302247Z"/>
<path id="font_3_1" d="M.19198609 .052993776C.19198609 .08198547 .16799927 .10598755 .13899231 .10598755 .10998535 .10598755 .085998538 .08198547 .085998538 .052993776 .085998538 .023986817 .10998535 0 .13899231 0 .16799927 0 .19198609 .023986817 .19198609 .052993776Z"/>
<path id="font_2_6" d="M.44898988 .20022583C.44898988 .3193512 .36698915 .41944886 .25898744 .41944886 .21099854 .41944886 .16799927 .40345765 .13198853 .36842347V.5637665C.1519928 .5577698 .18499756 .55078127 .21699524 .55078127 .33999635 .55078127 .4099884 .6417694 .4099884 .6547699 .4099884 .6607666 .40699769 .6657715 .3999939 .6657715 .39898683 .6657715 .39698792 .6657715 .3919983 .66278079 .37199403 .6537781 .32299806 .6337738 .2559967 .6337738 .21598816 .6337738 .16999817 .6407776 .12298584 .6617737 .114990238 .66477969 .11299133 .66477969 .11099243 .66477969 .100997928 .66477969 .100997928 .6567688 .100997928 .6407776V.34439088C.100997928 .32637025 .100997928 .31835938 .114990238 .31835938 .12199402 .31835938 .12399292 .32136537 .12799073 .32736207 .13899231 .3433838 .17599488 .39746095 .25698854 .39746095 .30899049 .39746095 .33399964 .35139466 .34199525 .33337403 .35798646 .29632569 .3600006 .25727845 .3600006 .20722962 .3600006 .17222595 .3600006 .11222839 .33599855 .07035828 .31199647 .031463624 .2749939 .0055389406 .22898865 .0055389406 .1559906 .0055389406 .09899902 .058380128 .08198547 .11723328 .084991458 .1162262 .08799744 .115234378 .09899902 .115234378 .13198853 .115234378 .14898682 .14022827 .14898682 .16423035 .14898682 .18823242 .13198853 .21322632 .09899902 .21322632 .084991458 .21322632 .049987794 .20622254 .049987794 .16023255 .049987794 .07434082 .11898804-.022460938 .23098755-.022460938 .34700013-.022460938 .44898988 .073349 .44898988 .20022583Z"/>
<path id="font_2_2" d="M.2939911 .64004519C.2939911 .66400149 .2939911 .6660156 .2709961 .6660156 .20899964 .60227969 .12098694 .60227969 .08898926 .60227969V.57128909C.10899353 .57128909 .16799927 .57128909 .21998596 .5972748V.07902527C.21998596 .042999269 .21699524 .0309906 .1269989 .0309906H.09498596V0C.12998963 .0029907227 .21699524 .0029907227 .25698854 .0029907227 .29699708 .0029907227 .38398744 .0029907227 .4189911 0V.0309906H.3869934C.29699708 .0309906 .2939911 .041992189 .2939911 .07902527V.64004519Z"/>
<path id="font_2_3" d="M.1269989 .07699585 .23298645 .18003845C.3889923 .31811524 .44898988 .3721466 .44898988 .47216798 .44898988 .5860901 .35899354 .6660156 .23699951 .6660156 .12399292 .6660156 .049987794 .57411196 .049987794 .48516847 .049987794 .4291687 .099990848 .4291687 .102996829 .4291687 .11999512 .4291687 .15499878 .44117738 .15499878 .48217774 .15499878 .5081787 .13699341 .5341797 .101989749 .5341797 .09399414 .5341797 .09199524 .5341797 .08898926 .5331726 .11199951 .59806826 .1659851 .63500979 .22399903 .63500979 .31498719 .63500979 .35798646 .5541382 .35798646 .47216798 .35798646 .39215089 .30799867 .31311036 .25299073 .25108338L.06098938 .036987306C.049987794 .025985718 .049987794 .023986817 .049987794 0H.42099L.44898988 .17404175H.42399598C.4189911 .14402771 .4119873 .1000061 .4019928 .084991458 .394989 .07699585 .32899476 .07699585 .30699159 .07699585H.1269989Z"/>
<path id="font_2_4" d="M.2899933 .35191346C.37199403 .37893678 .42999269 .4490509 .42999269 .52809146 .42999269 .6100464 .34199525 .6660156 .24598694 .6660156 .14498902 .6660156 .068984989 .60606387 .068984989 .53009036 .068984989 .49710084 .09098816 .47808839 .11999512 .47808839 .15098572 .47808839 .17098999 .50009158 .17098999 .5290985 .17098999 .57910159 .12399292 .57910159 .10899353 .57910159 .13999939 .62802127 .20599365 .64100649 .24198914 .64100649 .2829895 .64100649 .33799745 .6190338 .33799745 .5290985 .33799745 .51708987 .33599855 .45906068 .30999757 .4149933 .27999879 .36691285 .24598694 .36390687 .22099304 .36291505 .21299744 .36190797 .18899536 .35990907 .18199158 .35990907 .17399597 .35890199 .16699219 .35791017 .16699219 .3479004 .16699219 .33691407 .17399597 .33691407 .19099427 .33691407H.23498535C.31698609 .33691407 .35398866 .2686615 .35398866 .17037964 .35398866 .034469606 .2849884 .0055389406 .24099732 .0055389406 .19799805 .0055389406 .12298584 .022491456 .08799744 .08137512 .12298584 .07637024 .1539917 .09837341 .1539917 .1363678 .1539917 .17237854 .1269989 .19238281 .09799194 .19238281 .07398987 .19238281 .041992189 .17837525 .041992189 .1343689 .041992189 .043441774 .1349945-.022460938 .24398804-.022460938 .3659973-.022460938 .45700074 .06838989 .45700074 .17037964 .45700074 .252594 .3939972 .33088685 .2899933 .35191346Z"/>
<path id="font_2_5" d="M.2939911 .16503906V.07800293C.2939911 .041992189 .2919922 .0309906 .21798706 .0309906H.19699097V0C.23799134 .0029907227 .2899933 .0029907227 .33198548 .0029907227 .37399293 .0029907227 .4269867 .0029907227 .46798707 0V.0309906H.44699098C.37298585 .0309906 .37098695 .041992189 .37098695 .07800293V.16503906H.47099305V.19602967H.37098695V.65075686C.37098695 .67074587 .37098695 .6767578 .35499574 .6767578 .34599305 .6767578 .34298707 .6767578 .33499146 .66474917L.027999878 .19602967V.16503906H.2939911M.2999878 .19602967H.055999757L.2999878 .5688019V.19602967Z"/>
<clipPath id="clip_4">
<path transform="matrix(1.00002,0,0,-1.00005,9.717903,163.19936)" d="M0 0H194.27347V161.39472H0Z"/>
</clipPath>
</defs>
<path transform="matrix(1.00002,0,0,-1.00005,9.717903,163.19936)" stroke-width=".3985" stroke-linecap="butt" stroke-miterlimit="10" stroke-linejoin="miter" fill="none" stroke="#bfbfbf" d="M16.19026 0V161.39472M56.66553 0V161.39472M97.14081 0V161.39472M137.61608 0V161.39472M178.09134 0V161.39472"/>
<path transform="matrix(1.00002,0,0,-1.00005,9.717903,163.19936)" stroke-width=".3985" stroke-linecap="butt" stroke-miterlimit="10" stroke-linejoin="miter" fill="none" stroke="#bfbfbf" d="M0 13.45023H194.27347M0 47.07549H194.27347M0 80.70074H194.27347M0 114.326H194.27347M0 147.95125H194.27347"/>
<path transform="matrix(1.00002,0,0,-1.00005,9.717903,163.19936)" stroke-width=".19925" stroke-linecap="butt" stroke-miterlimit="10" stroke-linejoin="miter" fill="none" stroke="#7f807f" d="M16.19026 0V4.25204M56.66553 0V4.25204M97.14081 0V4.25204M137.61608 0V4.25204M178.09134 0V4.25204M16.19026 161.39472V157.14266M56.66553 161.39472V157.14266M97.14081 161.39472V157.14266M137.61608 161.39472V157.14266M178.09134 161.39472V157.14266"/>
<path transform="matrix(1.00002,0,0,-1.00005,9.717903,163.19936)" stroke-width=".19925" stroke-linecap="butt" stroke-miterlimit="10" stroke-linejoin="miter" fill="none" stroke="#7f807f" d="M0 13.45023H4.25189M0 47.07549H4.25189M0 80.70074H4.25189M0 114.326H4.25189M0 147.95125H4.25189M194.27347 13.45023H190.02156M194.27347 47.07549H190.02156M194.27347 80.70074H190.02156M194.27347 114.326H190.02156M194.27347 147.95125H190.02156"/>
<path transform="matrix(1.00002,0,0,-1.00005,9.717903,163.19936)" stroke-width=".3985" stroke-linecap="butt" stroke-miterlimit="10" stroke-linejoin="miter" fill="none" stroke="#000000" d="M0 0V161.39472H194.27347V0H0Z"/>
<g clip-path="url(#clip_1)">
<path transform="matrix(1.00002,0,0,-1.00005,9.717903,163.19936)" d="M16.19026 13.45023 17.82555 13.46394 19.46083 13.50511 21.09612 13.57372 22.73138 13.66978 24.36667 13.79326 26.00195 13.9442 27.63724 14.12259 29.2725 14.32841 30.9078 14.56169 32.54308 14.8224 34.17836 15.11057 35.81364 15.42616 37.44893 15.76921 39.0842 16.13971 40.71948 16.53763 42.35477 16.96301 43.99005 17.41583 45.62532 17.8961 47.26062 18.4038 48.89589 18.93895 50.53119 19.50154 52.16646 20.09158 53.80176 20.70908 55.43703 21.35399 57.07231 22.02635 58.7076 22.72618 60.34288 23.45341 61.97815 24.20813 63.61345 24.99026 65.24872 25.79987 66.884 26.63689 68.51929 27.50136 70.15457 28.39328 71.78984 29.31262 73.42513 30.25945 75.06041 31.2337 76.6957 32.2354 78.33096 33.26453 79.96626 34.3211 81.60153 35.40512 83.23682 36.51659 84.8721 37.6555 86.50739 38.82187 88.14267 40.01566 89.77795 41.2369 91.41324 42.48558 93.04852 43.76172 94.68379 45.06526 96.31909 46.39629 97.95436 47.7547 99.58965 49.14063 101.22493 50.55396 102.86021 51.99474 104.49548 53.46303 106.13077 54.9587 107.76605 56.48183 109.40134 58.03238 111.0366 59.6104 112.6719 61.21588 114.30717 62.84875 115.94246 64.50914 117.57774 66.19691 119.21303 67.91216 120.84831 69.65483 122.4836 71.4248 124.11888 73.22237 125.75417 75.04741 127.38943 76.89984 129.02474 78.77975 130.66 80.68709 132.29529 82.62186 133.93058 84.58409 135.56586 86.57378 137.20113 88.5909 138.83641 90.63547 140.4717 92.70743 142.10698 94.80692 143.74225 96.93378 145.37755 99.08801 147.01282 101.26978 148.6481 103.479 150.28339 105.71562 151.91867 107.97975 153.55394 110.27133 155.18924 112.5903 156.82451 114.93677 158.45981 117.31064 160.09508 119.71196 161.73038 122.14078 163.36565 124.59694 165.00093 127.08061 166.63622 129.59174 168.2715 132.1301 169.90677 134.69606 171.54206 137.28954 173.17734 139.9104 174.81262 142.55872 176.44789 145.23448 178.08319 147.9377V147.94448L176.44789 146.58594 174.81262 145.22742 173.17734 143.86887 171.54206 142.51033 169.90677 141.15181 168.2715 139.79326 166.63622 138.43483 165.00093 137.0763 163.36565 135.71778 161.73038 134.35923 160.09508 133.00069 158.45981 131.64217 156.82451 130.28362 155.18924 128.92508 153.55394 127.56656 151.91867 126.20802 150.28339 124.84947 148.6481 123.49095 147.01282 122.13242 145.37755 120.77388 143.74225 119.41544 142.10698 118.05692 140.4717 116.69838 138.83641 115.33983 137.20113 113.98131 135.56586 112.62277 133.93058 111.26424 132.29529 109.9057 130.66 108.54716 129.02474 107.18863 127.38943 105.8301 125.75417 104.47156 124.11888 103.11302 122.4836 101.7545 120.84831 100.39606 119.21303 99.03752 117.57774 97.67899 115.94246 96.32045 114.30717 94.96191 112.6719 93.60338 111.0366 92.24486 109.40134 90.8863 107.76605 89.52777 106.13077 88.16925 104.49548 86.81071 102.86021 85.45216 101.22493 84.09364 99.58965 82.7351 97.95436 81.37656 96.31909 80.0181 94.68379 78.65956 93.04852 77.30104 91.41324 75.9425 89.77795 74.58397 88.14267 73.22545 86.50739 71.86691 84.8721 70.50839 83.23682 69.14987 81.60153 67.79135 79.96626 66.43282 78.33096 65.07428 76.6957 63.71576 75.06041 62.35722 73.42513 60.99869 71.78984 59.64017 70.15457 58.28165 68.51929 56.92311 66.884 55.56459 65.24872 54.20607 63.61345 52.84755 61.97815 51.489 60.34288 50.13048 58.7076 48.77196 57.07231 47.4134 55.43703 46.05489 53.80176 44.69637 52.16646 43.33784 50.53119 41.97931 48.89589 40.62079 47.26062 39.26227 45.62532 37.90372 43.99005 36.5452 42.35477 35.18668 40.71948 33.82814 39.0842 32.4696 37.44893 31.11108 35.81364 29.75256 34.17836 28.39403 32.54308 27.0355 30.9078 25.67699 29.2725 24.31845 27.63724 22.95992 26.00195 21.6014 24.36667 20.24286 22.73138 18.88434 21.09612 17.5258 19.46083 16.16728 17.82555 14.80876 16.19026 13.45023Z" fill="#ccccff" fill-opacity=".5"/>
</g>
<use data-text="0" xlink:href="#font_2_1" transform="matrix(9.962799,0,0,-9.963098,23.418175,173.13985)"/>
<use data-text="0" xlink:href="#font_2_1" transform="matrix(9.962799,0,0,-9.963098,60.01891,173.13985)"/>
<use data-text="." xlink:href="#font_3_1" transform="matrix(9.962799,0,0,-9.963098,65.00101,173.13985)"/>
<use data-text="5" xlink:href="#font_2_6" transform="matrix(9.962799,0,0,-9.963098,67.76807,173.13985)"/>
<use data-text="1" xlink:href="#font_2_2" transform="matrix(9.962799,0,0,-9.963098,104.3698,173.13985)"/>
<use data-text="1" xlink:href="#font_2_2" transform="matrix(9.962799,0,0,-9.963098,140.97153,173.13985)"/>
<use data-text="." xlink:href="#font_3_1" transform="matrix(9.962799,0,0,-9.963098,145.95365,173.13985)"/>
<use data-text="5" xlink:href="#font_2_6" transform="matrix(9.962799,0,0,-9.963098,148.72069,173.13985)"/>
<use data-text="2" xlink:href="#font_2_3" transform="matrix(9.962799,0,0,-9.963098,185.32242,173.13985)"/>
<use data-text="0" xlink:href="#font_2_1" transform="matrix(9.962799,0,0,-9.963098,1.2167282,152.95885)"/>
<use data-text="1" xlink:href="#font_2_2" transform="matrix(9.962799,0,0,-9.963098,1.2167282,119.33217)"/>
<use data-text="2" xlink:href="#font_2_3" transform="matrix(9.962799,0,0,-9.963098,1.2167282,85.70449)"/>
<use data-text="3" xlink:href="#font_2_4" transform="matrix(9.962799,0,0,-9.963098,1.2167282,52.077814)"/>
<use data-text="4" xlink:href="#font_2_5" transform="matrix(9.962799,0,0,-9.963098,1.2167282,18.451127)"/>
<g clip-path="url(#clip_4)">
<path transform="matrix(1.00002,0,0,-1.00005,9.717903,163.19936)" stroke-width=".99628" stroke-linecap="butt" stroke-miterlimit="10" stroke-linejoin="miter" fill="none" stroke="#ff0000" d="M16.19026 13.45023 17.82555 13.46394 19.46083 13.50511 21.09612 13.57372 22.73138 13.66978 24.36667 13.79326 26.00195 13.9442 27.63724 14.12259 29.2725 14.32841 30.9078 14.56169 32.54308 14.8224 34.17836 15.11057 35.81364 15.42616 37.44893 15.76921 39.0842 16.13971 40.71948 16.53763 42.35477 16.96301 43.99005 17.41583 45.62532 17.8961 47.26062 18.4038 48.89589 18.93895 50.53119 19.50154 52.16646 20.09158 53.80176 20.70908 55.43703 21.35399 57.07231 22.02635 58.7076 22.72618 60.34288 23.45341 61.97815 24.20813 63.61345 24.99026 65.24872 25.79987 66.884 26.63689 68.51929 27.50136 70.15457 28.39328 71.78984 29.31262 73.42513 30.25945 75.06041 31.2337 76.6957 32.2354 78.33096 33.26453 79.96626 34.3211 81.60153 35.40512 83.23682 36.51659 84.8721 37.6555 86.50739 38.82187 88.14267 40.01566 89.77795 41.2369 91.41324 42.48558 93.04852 43.76172 94.68379 45.06526 96.31909 46.39629 97.95436 47.7547 99.58965 49.14063 101.22493 50.55396 102.86021 51.99474 104.49548 53.46303 106.13077 54.9587 107.76605 56.48183 109.40134 58.03238 111.0366 59.6104 112.6719 61.21588 114.30717 62.84875 115.94246 64.50914 117.57774 66.19691 119.21303 67.91216 120.84831 69.65483 122.4836 71.4248 124.11888 73.22237 125.75417 75.04741 127.38943 76.89984 129.02474 78.77975 130.66 80.68709 132.29529 82.62186 133.93058 84.58409 135.56586 86.57378 137.20113 88.5909 138.83641 90.63547 140.4717 92.70743 142.10698 94.80692 143.74225 96.93378 145.37755 99.08801 147.01282 101.26978 148.6481 103.479 150.28339 105.71562 151.91867 107.97975 153.55394 110.27133 155.18924 112.5903 156.82451 114.93677 158.45981 117.31064 160.09508 119.71196 161.73038 122.14078 163.36565 124.59694 165.00093 127.08061 166.63622 129.59174 168.2715 132.1301 169.90677 134.69606 171.54206 137.28954 173.17734 139.9104 174.81262 142.55872 176.44789 145.23448 178.08319 147.9377"/>
<path transform="matrix(1.00002,0,0,-1.00005,9.717903,163.19936)" stroke-width=".99628" stroke-linecap="butt" stroke-miterlimit="10" stroke-linejoin="miter" fill="none" stroke="#0000ff" d="M16.19026 13.45023 17.82555 14.80876 19.46083 16.16728 21.09612 17.5258 22.73138 18.88434 24.36667 20.24286 26.00195 21.6014 27.63724 22.95992 29.2725 24.31845 30.9078 25.67699 32.54308 27.0355 34.17836 28.39403 35.81364 29.75256 37.44893 31.11108 39.0842 32.4696 40.71948 33.82814 42.35477 35.18668 43.99005 36.5452 45.62532 37.90372 47.26062 39.26227 48.89589 40.62079 50.53119 41.97931 52.16646 43.33784 53.80176 44.69637 55.43703 46.05489 57.07231 47.4134 58.7076 48.77196 60.34288 50.13048 61.97815 51.489 63.61345 52.84755 65.24872 54.20607 66.884 55.56459 68.51929 56.92311 70.15457 58.28165 71.78984 59.64017 73.42513 60.99869 75.06041 62.35722 76.6957 63.71576 78.33096 65.07428 79.96626 66.43282 81.60153 67.79135 83.23682 69.14987 84.8721 70.50839 86.50739 71.86691 88.14267 73.22545 89.77795 74.58397 91.41324 75.9425 93.04852 77.30104 94.68379 78.65956 96.31909 80.0181 97.95436 81.37656 99.58965 82.7351 101.22493 84.09364 102.86021 85.45216 104.49548 86.81071 106.13077 88.16925 107.76605 89.52777 109.40134 90.8863 111.0366 92.24486 112.6719 93.60338 114.30717 94.96191 115.94246 96.32045 117.57774 97.67899 119.21303 99.03752 120.84831 100.39606 122.4836 101.7545 124.11888 103.11302 125.75417 104.47156 127.38943 105.8301 129.02474 107.18863 130.66 108.54716 132.29529 109.9057 133.93058 111.26424 135.56586 112.62277 137.20113 113.98131 138.83641 115.33983 140.4717 116.69838 142.10698 118.05692 143.74225 119.41544 145.37755 120.77388 147.01282 122.13242 148.6481 123.49095 150.28339 124.84947 151.91867 126.20802 153.55394 127.56656 155.18924 128.92508 156.82451 130.28362 158.45981 131.64217 160.09508 133.00069 161.73038 134.35923 163.36565 135.71778 165.00093 137.0763 166.63622 138.43483 168.2715 139.79326 169.90677 141.15181 171.54206 142.51033 173.17734 143.86887 174.81262 145.22742 176.44789 146.58594 178.08319 147.94448"/>
</g>
</svg>
