<svg xmlns="http://www.w3.org/2000/svg" xmlns:xlink="http://www.w3.org/1999/xlink" xmlns:inkscape="http://www.inkscape.org/namespaces/inkscape" version="1.1" width="213" height="175" viewBox="0 0 213 175">
<defs>
<path id="font_1_1" d="M.45999146 .31976319C.45999146 .39982606 .45498658 .47988893 .41999818 .5539398 .37399293 .65000918 .2919922 .6660156 .25 .6660156 .18998719 .6660156 .116989139 .64001467 .07598877 .54693606 .04399109 .47789 .038986207 .39982606 .038986207 .31976319 .038986207 .24472046 .042999269 .15464783 .083999637 .07859802 .1269989-.0024719239 .19999695-.022460938 .24899292-.022460938 .30299378-.022460938 .3789978-.0014648438 .4229889 .09359741 .45498658 .16265869 .45999146 .2407074 .45999146 .31976319M.24899292-.00047302247C.20999146-.00047302247 .15098572 .024551392 .1329956 .12062073 .12199402 .18066406 .12199402 .2727356 .12199402 .3317871 .12199402 .39582826 .12199402 .46188355 .12998963 .5159149 .14898682 .63500979 .22399903 .64401248 .24899292 .64401248 .28199769 .64401248 .34799195 .6259918 .36698915 .52693179 .3769989 .47088624 .3769989 .39482118 .3769989 .3317871 .3769989 .25672914 .3769989 .18867493 .3659973 .12461853 .35099793 .029556275 .2939911-.00047302247 .24899292-.00047302247Z"/>
<path id="font_2_1" d="M.19198609 .052993776C.19198609 .08198547 .16799927 .10598755 .13899231 .10598755 .10998535 .10598755 .085998538 .08198547 .085998538 .052993776 .085998538 .023986817 .10998535 0 .13899231 0 .16799927 0 .19198609 .023986817 .19198609 .052993776Z"/>
<path id="font_1_3" d="M.1269989 .07699585 .23298645 .18003845C.3889923 .31811524 .44898988 .3721466 .44898988 .47216798 .44898988 .5860901 .35899354 .6660156 .23699951 .6660156 .12399292 .6660156 .049987794 .57411196 .049987794 .48516847 .049987794 .4291687 .099990848 .4291687 .102996829 .4291687 .11999512 .4291687 .15499878 .44117738 .15499878 .48217774 .15499878 .5081787 .13699341 .5341797 .101989749 .5341797 .09399414 .5341797 .09199524 .5341797 .08898926 .5331726 .11199951 .59806826 .1659851 .63500979 .22399903 .63500979 .31498719 .63500979 .35798646 .5541382 .35798646 .47216798 .35798646 .39215089 .30799867 .31311036 .25299073 .25108338L.06098938 .036987306C.049987794 .025985718 .049987794 .023986817 .049987794 0H.42099L.44898988 .17404175H.42399598C.4189911 .14402771 .4119873 .1000061 .4019928 .084991458 .394989 .07699585 .32899476 .07699585 .30699159 .07699585H.1269989Z"/>
<path id="font_1_4" d="M.2939911 .16503906V.07800293C.2939911 .041992189 .2919922 .0309906 .21798706 .0309906H.19699097V0C.23799134 .0029907227 .2899933 .0029907227 .33198548 .0029907227 .37399293 .0029907227 .4269867 .0029907227 .46798707 0V.0309906H.44699098C.37298585 .0309906 .37098695 .041992189 .37098695 .07800293V.16503906H.47099305V.19602967H.37098695V.65075686C.37098695 .67074587 .37098695 .6767578 .35499574 .6767578 .34599305 .6767578 .34298707 .6767578 .33499146 .66474917L.027999878 .19602967V.16503906H.2939911M.2999878 .19602967H.055999757L.2999878 .5688019V.19602967Z"/>
<path id="font_1_5" d="M.13198853 .327713V.35173036C.13198853 .6047821 .2559967 .64100649 .30699159 .64100649 .33099366 .64100649 .37298585 .634964 .394989 .6007538 .37998963 .6007538 .33999635 .6007538 .33999635 .5557556 .33999635 .524765 .3639984 .5097656 .38598634 .5097656 .4019928 .5097656 .43199159 .51875308 .43199159 .5577545 .43199159 .6178589 .3880005 .6660156 .30499269 .6660156 .1769867 .6660156 .041992189 .5367584 .041992189 .31570436 .041992189 .048553468 .1579895-.022460938 .25099183-.022460938 .3619995-.022460938 .45700074 .07156372 .45700074 .2036438 .45700074 .33070375 .36799623 .4267578 .25698854 .4267578 .18899536 .4267578 .1519928 .37573243 .13198853 .327713M.25099183 .0055389406C.18798828 .0055389406 .1579895 .06556702 .1519928 .080566409 .13398743 .127594 .13398743 .2076416 .13398743 .22564698 .13398743 .30369569 .1659851 .40374757 .2559967 .40374757 .27198792 .40374757 .31799317 .40374757 .34899903 .34172059 .36698915 .30470277 .36698915 .2536621 .36698915 .20463562 .36698915 .15661621 .36698915 .10658264 .34999085 .0705719 .31999208 .010528564 .27398683 .0055389406 .25099183 .0055389406Z"/>
<path id="font_1_6" d="M.16299439 .4569702C.116989139 .486969 .11299133 .52098086 .11299133 .5379791 .11299133 .598999 .17799378 .64100649 .24899292 .64100649 .32199098 .64100649 .38598634 .58898928 .38598634 .51698306 .38598634 .45996095 .34700013 .4119568 .2869873 .37695313L.16299439 .4569702M.30899049 .36193849C.3809967 .3989563 .42999269 .45095826 .42999269 .51698306 .42999269 .6090088 .34098817 .6660156 .25 .6660156 .1499939 .6660156 .068984989 .59199526 .068984989 .49897767 .068984989 .4809723 .070999149 .43595887 .11299133 .38894654 .12399292 .37695313 .16099549 .35194398 .18598938 .33494569 .12799073 .30592347 .041992189 .24984741 .041992189 .15072632 .041992189 .04458618 .14399719-.022460938 .24899292-.022460938 .3619995-.022460938 .45700074 .06060791 .45700074 .16773987 .45700074 .20379639 .44599916 .24885559 .4079895 .2909088 .3889923 .31193543 .37298585 .3219452 .30899049 .36193849M.20899964 .3199463 .33198548 .24183655C.3600006 .2228241 .40699769 .19277954 .40699769 .13169861 .40699769 .05760193 .33198548 .0055389406 .25 .0055389406 .1639862 .0055389406 .09199524 .067611698 .09199524 .15072632 .09199524 .20880127 .12399292 .27288819 .20899964 .3199463Z"/>
<path id="font_1_2" d="M.2939911 .64004519C.2939911 .66400149 .2939911 .6660156 .2709961 .6660156 .20899964 .60227969 .12098694 .60227969 .08898926 .60227969V.57128909C.10899353 .57128909 .16799927 .57128909 .21998596 .5972748V.07902527C.21998596 .042999269 .21699524 .0309906 .1269989 .0309906H.09498596V0C.12998963 .0029907227 .21699524 .0029907227 .25698854 .0029907227 .29699708 .0029907227 .38398744 .0029907227 .4189911 0V.0309906H.3869934C.29699708 .0309906 .2939911 .041992189 .2939911 .07902527V.64004519Z"/>
<clipPath id="clip_3">
<path transform="matrix(1,0,0,-1.00005,33.656007,149.74968)" d="M-16.1903-13.45029H178.08379V147.94524H-16.1903Z"/>
</clipPath>
</defs>
<path transform="matrix(1,0,0,-1.00005,33.656007,149.74968)" stroke-width=".19925" stroke-linecap="butt" stroke-miterlimit="10" stroke-linejoin="miter" fill="none" stroke="#7f807f" d="M0-13.45029V-9.19777M32.3787-13.45029V-9.19777M64.75739-13.45029V-9.19777M97.13608-13.45029V-9.19777M129.51477-13.45029V-9.19777M161.89347-13.45029V-9.19777M0 147.94524V143.6927M32.3787 147.94524V143.6927M64.75739 147.94524V143.6927M97.13608 147.94524V143.6927M129.51477 147.94524V143.6927M161.89347 147.94524V143.6927"/>
<path transform="matrix(1,0,0,-1.00005,33.656007,149.74968)" stroke-width=".19925" stroke-linecap="butt" stroke-miterlimit="10" stroke-linejoin="miter" fill="none" stroke="#7f807f" d="M-16.1903 0H-11.9381M-16.1903 26.89899H-11.9381M-16.1903 53.79797H-11.9381M-16.1903 80.69696H-11.9381M-16.1903 107.59595H-11.9381M-16.1903 134.49494H-11.9381M178.08379 0H173.83156M178.08379 26.89899H173.83156M178.08379 53.79797H173.83156M178.08379 80.69696H173.83156M178.08379 107.59595H173.83156M178.08379 134.49494H173.83156"/>
<path transform="matrix(1,0,0,-1.00005,33.656007,149.74968)" stroke-width=".3985" stroke-linecap="butt" stroke-miterlimit="10" stroke-linejoin="miter" fill="none" stroke="#000000" d="M-16.1903-13.45029V147.94524H178.08379V-13.45029H-16.1903Z"/>
<use data-text="0" xlink:href="#font_1_1" transform="matrix(9.9626,0,0,-9.963098,31.165009,173.14185)"/>
<use data-text="0" xlink:href="#font_1_1" transform="matrix(9.9626,0,0,-9.963098,59.670007,173.14185)"/>
<use data-text="." xlink:href="#font_2_1" transform="matrix(9.9626,0,0,-9.963098,64.652,173.14185)"/>
<use data-text="2" xlink:href="#font_1_3" transform="matrix(9.9626,0,0,-9.963098,67.419,173.14185)"/>
<use data-text="0" xlink:href="#font_1_1" transform="matrix(9.9626,0,0,-9.963098,92.048007,173.14185)"/>
<use data-text="." xlink:href="#font_2_1" transform="matrix(9.9626,0,0,-9.963098,97.03,173.14185)"/>
<use data-text="4" xlink:href="#font_1_4" transform="matrix(9.9626,0,0,-9.963098,99.797,173.14185)"/>
<use data-text="0" xlink:href="#font_1_1" transform="matrix(9.9626,0,0,-9.963098,124.42701,173.14185)"/>
<use data-text="." xlink:href="#font_2_1" transform="matrix(9.9626,0,0,-9.963098,129.409,173.14185)"/>
<use data-text="6" xlink:href="#font_1_5" transform="matrix(9.9626,0,0,-9.963098,132.176,173.14185)"/>
<use data-text="0" xlink:href="#font_1_1" transform="matrix(9.9626,0,0,-9.963098,156.806,173.14185)"/>
<use data-text="." xlink:href="#font_2_1" transform="matrix(9.9626,0,0,-9.963098,161.788,173.14185)"/>
<use data-text="8" xlink:href="#font_1_6" transform="matrix(9.9626,0,0,-9.963098,164.555,173.14185)"/>
<use data-text="1" xlink:href="#font_1_2" transform="matrix(9.9626,0,0,-9.963098,193.059,173.14185)"/>
<use data-text="0" xlink:href="#font_1_1" transform="matrix(9.9626,0,0,-9.963098,8.9640049,152.95984)"/>
<use data-text="0" xlink:href="#font_1_1" transform="matrix(9.9626,0,0,-9.963098,1.2160034,126.059497)"/>
<use data-text="." xlink:href="#font_2_1" transform="matrix(9.9626,0,0,-9.963098,6.197998,126.059497)"/>
<use data-text="2" xlink:href="#font_1_3" transform="matrix(9.9626,0,0,-9.963098,8.964996,126.059497)"/>
<use data-text="0" xlink:href="#font_1_1" transform="matrix(9.9626,0,0,-9.963098,1.2160034,99.15915)"/>
<use data-text="." xlink:href="#font_2_1" transform="matrix(9.9626,0,0,-9.963098,6.197998,99.15915)"/>
<use data-text="4" xlink:href="#font_1_4" transform="matrix(9.9626,0,0,-9.963098,8.964996,99.15915)"/>
<use data-text="0" xlink:href="#font_1_1" transform="matrix(9.9626,0,0,-9.963098,1.2160034,72.25881)"/>
<use data-text="." xlink:href="#font_2_1" transform="matrix(9.9626,0,0,-9.963098,6.197998,72.25881)"/>
<use data-text="6" xlink:href="#font_1_5" transform="matrix(9.9626,0,0,-9.963098,8.964996,72.25881)"/>
<use data-text="0" xlink:href="#font_1_1" transform="matrix(9.9626,0,0,-9.963098,1.2160034,45.358469)"/>
<use data-text="." xlink:href="#font_2_1" transform="matrix(9.9626,0,0,-9.963098,6.197998,45.358469)"/>
<use data-text="8" xlink:href="#font_1_6" transform="matrix(9.9626,0,0,-9.963098,8.964996,45.358469)"/>
<use data-text="1" xlink:href="#font_1_2" transform="matrix(9.9626,0,0,-9.963098,8.9640049,18.458115)"/>
<g clip-path="url(#clip_3)">
<path transform="matrix(1,0,0,-1.00005,33.656007,149.74968)" d="M0 0H161.89347L0 134.49494Z" fill="#b3b3ff"/>
<path transform="matrix(1,0,0,-1.00005,33.656007,149.74968)" stroke-width=".3985" stroke-linecap="butt" stroke-miterlimit="10" stroke-linejoin="miter" fill="none" stroke="#000000" d="M0 0H161.89347L0 134.49494Z"/>
<path transform="matrix(1,0,0,-1.00005,33.656007,149.74968)" stroke-width="1.19553" stroke-linecap="butt" stroke-miterlimit="10" stroke-linejoin="miter" fill="none" stroke="#ff0000" d="M16.18935 0V121.04544"/>
<path transform="matrix(1,0,0,-1.00005,33.656007,149.74968)" stroke-width="1.19553" stroke-linecap="butt" stroke-miterlimit="10" stroke-linejoin="miter" fill="none" stroke="#ff0000" d="M32.3787 0V107.59595"/>
<path transform="matrix(1,0,0,-1.00005,33.656007,149.74968)" stroke-width="1.19553" stroke-linecap="butt" stroke-miterlimit="10" stroke-linejoin="miter" fill="none" stroke="#ff0000" d="M48.56804 0V94.14645"/>
<path transform="matrix(1,0,0,-1.00005,33.656007,149.74968)" stroke-width="1.19553" stroke-linecap="butt" stroke-miterlimit="10" stroke-linejoin="miter" fill="none" stroke="#ff0000" d="M64.75739 0V80.69696"/>
<path transform="matrix(1,0,0,-1.00005,33.656007,149.74968)" stroke-width="1.19553" stroke-linecap="butt" stroke-miterlimit="10" stroke-linejoin="miter" fill="none" stroke="#ff0000" d="M80.94673 0V67.24747"/>
<path transform="matrix(1,0,0,-1.00005,33.656007,149.74968)" stroke-width="1.19553" stroke-linecap="butt" stroke-miterlimit="10" stroke-linejoin="miter" fill="none" stroke="#ff0000" d="M97.13608 0V53.79797"/>
<path transform="matrix(1,0,0,-1.00005,33.656007,149.74968)" stroke-width="1.19553" stroke-linecap="butt" stroke-miterlimit="10" stroke-linejoin="miter" fill="none" stroke="#ff0000" d="M113.32542 0V40.34848"/>
<path transform="matrix(1,0,0,-1.00005,33.656007,149.74968)" stroke-width="1.19553" stroke-linecap="butt" stroke-miterlimit="10" stroke-linejoin="miter" fill="none" stroke="#ff0000" d="M129.51477 0V26.89899"/>
<path transform="matrix(1,0,0,-1.00005,33.656007,149.74968)" stroke-width="1.19553" stroke-linecap="butt" stroke-miterlimit="10" stroke-linejoin="miter" fill="none" stroke="#ff0000" d="M145.70412 0V13.4495"/>
<path transform="matrix(1,0,0,-1.00005,33.656007,149.74968)" stroke-width=".79701" stroke-linecap="butt" stroke-miterlimit="10" stroke-linejoin="miter" fill="none" stroke="#0000ff" d="M0 0H161.89347L0 134.49494V0"/>
</g>
</svg>
