<svg xmlns="http://www.w3.org/2000/svg" xmlns:xlink="http://www.w3.org/1999/xlink" xmlns:inkscape="http://www.inkscape.org/namespaces/inkscape" version="1.1" width="259" height="174" viewBox="0 0 259 174">
<defs>
<path id="font_1_1" d="M.33099366-.2400055C.33099366-.23701477 .33099366-.23500061 .31399537-.21800232 .18899536-.0920105 .15699768 .09700012 .15699768 .25 .15699768 .42399598 .19499207 .59799197 .31799317 .72299197 .33099366 .73498538 .33099366 .7369995 .33099366 .73999026 .33099366 .746994 .32699586 .75 .32099916 .75 .31098939 .75 .22099304 .6819916 .1619873 .5549927 .11099243 .44499208 .09899902 .33399964 .09899902 .25 .09899902 .17199707 .10998535 .050994874 .16499329-.06201172 .22499085-.18501282 .31098939-.25 .32099916-.25 .32699586-.25 .33099366-.24700928 .33099366-.2400055Z"/>
<path id="font_2_2" d="M.33399964 .30233766C.33999635 .32835389 .36299134 .42037965 .43299867 .42037965 .43798829 .42037965 .46199037 .42037965 .48298646 .40734864 .45498658 .402359 .43499757 .37734986 .43499757 .35334779 .43499757 .33735658 .44599916 .31835938 .47299195 .31835938 .49499513 .31835938 .5269928 .3363495 .5269928 .37635804 .5269928 .42837525 .46798707 .4423828 .43399049 .4423828 .37599183 .4423828 .34098817 .38935853 .32899476 .36634828 .3039856 .43237306 .25 .4423828 .22099304 .4423828 .116989139 .4423828 .05999756 .3133545 .05999756 .28834535 .05999756 .27833558 .069992069 .27833558 .07199097 .27833558 .07998657 .27833558 .08299255 .28033448 .084991458 .28933717 .11898804 .39535523 .18499756 .42037965 .21899414 .42037965 .23799134 .42037965 .272995 .4113617 .272995 .35334779 .272995 .32235719 .2559967 .25532533 .21899414 .11528015 .20298767 .053268434 .16799927 .011245728 .12399292 .011245728 .117996219 .011245728 .09498596 .011245728 .07398987 .024276734 .09899902 .029266358 .12098694 .05027771 .12098694 .07827759 .12098694 .105270389 .09899902 .11328125 .083999637 .11328125 .053985597 .11328125 .0289917 .08728027 .0289917 .055267335 .0289917 .009246826 .07899475-.0107421879 .12298584-.0107421879 .18899536-.0107421879 .22499085 .059280397 .22799683 .0652771 .23999024 .028274537 .27598573-.0107421879 .33599855-.0107421879 .43899537-.0107421879 .49598695 .118270877 .49598695 .14328003 .49598695 .1532898 .4869995 .1532898 .48399354 .1532898 .47499085 .1532898 .47299195 .14929199 .47099305 .14228821 .43798829 .03527832 .36999513 .011245728 .33799745 .011245728 .29899598 .011245728 .2829895 .043273927 .2829895 .07727051 .2829895 .09927368 .2889862 .121276859 .2999878 .16529846L.33399964 .30233766Z"/>
<path id="font_3_1" d="M.32299806 .24900818C.40499879 .28497315 .44198609 .29896546 .46699525 .31095887 .48599244 .3189392 .49499513 .322937 .49499513 .34191896 .49499513 .35891725 .48199464 .37390138 .46398927 .37390138 .45700074 .37390138 .45498658 .37390138 .44299317 .36489869L.30699159 .27398683 .32199098 .42185975C.32398988 .4398346 .32199098 .46484376 .2919922 .46484376 .27999879 .46484376 .26098634 .4568329 .26098634 .43484498 .26098634 .42585755 .2649994 .39587403 .2659912 .38587953 .2679901 .36889649 .2749939 .29696656 .2769928 .27398683L.14199829 .36489869C.13198853 .3708954 .1289978 .37390138 .11999512 .37390138 .101989749 .37390138 .08898926 .35891725 .08898926 .34191896 .08898926 .3219452 .100997928 .3169403 .10998535 .3129425L.26098634 .25C.1789856 .21403504 .14199829 .20004273 .116989139 .18806458 .09799194 .18006897 .08898926 .17607117 .08898926 .15708924 .08898926 .1401062 .101989749 .12510681 .11999512 .12510681 .1269989 .12510681 .1289978 .12510681 .14099121 .1341095L.2769928 .22502136 .26098634 .06416321C.26098634 .042175294 .27999879 .034179689 .2919922 .034179689 .3039856 .034179689 .32299806 .042175294 .32299806 .06416321 .32299806 .073150638 .31900025 .103134158 .31799317 .11312866 .31599427 .1301117 .30899049 .20204163 .30699159 .22502136L.4269867 .14509583C.45298768 .12510681 .45498658 .12510681 .46398927 .12510681 .48199464 .12510681 .49499513 .1401062 .49499513 .15708924 .49499513 .17706299 .48298646 .18206787 .47399903 .18606568L.32299806 .24900818Z"/>
<path id="font_4_2" d="M.5289917 .1640625V.20005799H.41799928V.64582827C.41799928 .66682437 .41799928 .6738281 .3959961 .6738281 .38398744 .6738281 .37998963 .6738281 .36999513 .65982058L.038986207 .20005799V.1640625H.33299256V.08201599C.33299256 .04800415 .33299256 .035995485 .2519989 .035995485H.22499085V0C.2749939 .0019989014 .33898927 .0039978029 .375 .0039978029 .4119873 .0039978029 .47599793 .0019989014 .526001 0V.035995485H.49899293C.41799928 .035995485 .41799928 .04800415 .41799928 .08201599V.1640625H.5289917M.33999635 .5658722V.20005799H.07598877L.33999635 .5658722Z"/>
<path id="font_4_1" d="M.272995 .33428956C.35099793 .33428956 .40699769 .2803192 .40699769 .1733551 .40699769 .04940796 .33499146 .012466431 .2769928 .012466431 .23699951 .012466431 .14898682 .0234375 .10699463 .082351688 .1539917 .084350589 .16499329 .11735535 .16499329 .13835144 .16499329 .17034912 .14099121 .19335938 .10998535 .19335938 .08198547 .19335938 .053985597 .17634583 .053985597 .13534546 .053985597 .041412355 .1579895-.01953125 .2789917-.01953125 .41799928-.01953125 .5139923 .07336426 .5139923 .1733551 .5139923 .2513275 .44999696 .32929994 .33999635 .35229493 .44499208 .39024354 .48298646 .4650879 .48298646 .5260773 .48298646 .60505679 .3919983 .6640625 .2809906 .6640625 .16999817 .6640625 .084991458 .61006167 .084991458 .5300751 .084991458 .49606324 .10699463 .47706605 .13699341 .47706605 .16799927 .47706605 .18798828 .5000763 .18798828 .5280762 .18798828 .5570679 .16799927 .57806399 .13699341 .5800781 .17199707 .62405398 .24099732 .63505557 .27799989 .63505557 .32299806 .63505557 .38598634 .6130676 .38598634 .5260773 .38598634 .48406983 .37199403 .43814088 .34599305 .4072113 .31298829 .36927796 .2849884 .3672943 .23498535 .36428834 .20999146 .3623047 .20799256 .3623047 .20298767 .3612976 .20098877 .3612976 .19299317 .3592987 .19299317 .34829713 .19299317 .33428956 .20199585 .33428956 .21899414 .33428956H.272995Z"/>
<path id="font_2_1" d="M.20298767 .0009918213C.20298767 .066986087 .17799378 .10598755 .13899231 .10598755 .10598755 .10598755 .085998538 .08099365 .085998538 .052993776 .085998538 .025985718 .10598755 0 .13899231 0 .15098572 0 .1639862 .0039978029 .17399597 .0129852299 .1769867 .01499939 .17799378 .015991211 .1789856 .015991211 .17999268 .015991211 .18099976 .01499939 .18099976 .0009918213 .18099976-.07316589 .1459961-.13328552 .11299133-.16635132 .101989749-.17736817 .101989749-.17936707 .101989749-.18237305 .101989749-.18936157 .10699463-.19335938 .11199951-.19335938 .12298584-.19335938 .20298767-.116256717 .20298767 .0009918213Z"/>
<path id="font_2_3" d="M.48599244 .38136292C.48999024 .39537049 .48999024 .39736939 .48999024 .40437318 .48999024 .42237855 .47599793 .43138124 .46099855 .43138124 .45098878 .43138124 .43499757 .42536927 .42599488 .41036988 .42399598 .405365 .41600038 .37435914 .4119873 .35635377 .40499879 .33035279 .397995 .30334474 .3919983 .27633668L.34700013 .09628296C.34298707 .08126831 .2999878 .011245728 .23399353 .011245728 .18299866 .011245728 .17199707 .055267335 .17199707 .0922699 .17199707 .1382904 .18899536 .20030213 .22299195 .28833009 .23899842 .3293457 .24299622 .3403473 .24299622 .36035157 .24299622 .405365 .21099854 .4423828 .16099549 .4423828 .06599426 .4423828 .0289917 .29733277 .0289917 .28833009 .0289917 .27833558 .038986207 .27833558 .040985109 .27833558 .050994874 .27833558 .051986696 .28033448 .056991579 .29634095 .083999637 .3903656 .12399292 .42037965 .1579895 .42037965 .1659851 .42037965 .18299866 .42037965 .18299866 .3883667 .18299866 .36335755 .17298889 .3373413 .1659851 .31834413 .12599182 .21231079 .10798645 .1552887 .10798645 .10827637 .10798645 .019256592 .17098999-.0107421879 .22999573-.0107421879 .2689972-.0107421879 .30299378 .0062561037 .33099366 .03425598 .31799317-.017745972 .30599977-.06674194 .2659912-.11973572 .23999024-.15385437 .20199585-.18309021 .1559906-.18309021 .14199829-.18309021 .09700012-.18005371 .07998657-.14074707 .09599304-.14074707 .10899353-.14074707 .12298584-.1287384 .1329956-.11973572 .14299011-.10673523 .14299011-.08773804 .14299011-.056747438 .115997318-.052734376 .10598755-.052734376 .08299255-.052734376 .049987794-.068740848 .049987794-.11773682 .049987794-.16796875 .09399414-.20507813 .1559906-.20507813 .25898744-.20507813 .3619995-.11373901 .3899994-.00074768069L.48599244 .38136292Z"/>
<path id="font_1_2" d="M.2889862 .25C.2889862 .32798768 .27799989 .44898988 .22299195 .56199648 .16299439 .68499758 .07699585 .75 .066986087 .75 .06098938 .75 .056991579 .74598696 .056991579 .73999026 .056991579 .7369995 .056991579 .73498538 .07598877 .71699526 .17399597 .6179962 .23098755 .45899964 .23098755 .25 .23098755 .07899475 .19400025-.09700012 .069992069-.2230072 .056991579-.23500061 .056991579-.23701477 .056991579-.2400055 .056991579-.2460022 .06098938-.25 .066986087-.25 .07699585-.25 .16699219-.18200684 .22599793-.055007936 .2769928 .054992677 .2889862 .16600037 .2889862 .25Z"/>
</defs>
<path transform="matrix(1.00008,0,0,-1.00003,2.0966492,171.88268)" stroke-width=".3985" stroke-linecap="butt" stroke-miterlimit="10" stroke-linejoin="miter" fill="none" stroke="#bfbfbf" d="M0 0H255.12128M0 42.5202H255.12128M0 85.04042H255.12128M0 127.56062H255.12128M0 170.0659H255.12128M0 0V170.08086M42.5202 0V170.08086M85.04042 0V170.08086M127.56062 0V170.08086M170.08086 0V170.08086M212.60106 0V170.08086M255.10634 0V170.08086M255.12128 170.08086"/>
<path transform="matrix(1.00008,0,0,-1.00003,2.0966492,171.88268)" d="M24.22145 17.22061C24.22145 18.04596 23.55238 18.71503 22.72704 18.71503 21.9017 18.71503 21.23262 18.04596 21.23262 17.22061 21.23262 16.39526 21.9017 15.7262 22.72704 15.7262 23.55238 15.7262 24.22145 16.39526 24.22145 17.22061ZM22.72704 17.22061" fill="#8080ff"/>
<path transform="matrix(1.00008,0,0,-1.00003,2.0966492,171.88268)" stroke-width=".3985" stroke-linecap="butt" stroke-miterlimit="10" stroke-linejoin="miter" fill="none" stroke="#8080ff" d="M24.22145 17.22061C24.22145 18.04596 23.55238 18.71503 22.72704 18.71503 21.9017 18.71503 21.23262 18.04596 21.23262 17.22061 21.23262 16.39526 21.9017 15.7262 22.72704 15.7262 23.55238 15.7262 24.22145 16.39526 24.22145 17.22061ZM22.72704 17.22061"/>
<path transform="matrix(1.00008,0,0,-1.00003,2.0966492,171.88268)" d="M29.93614 66.6331C29.93614 67.45845 29.26707 68.12752 28.44173 68.12752 27.61638 68.12752 26.94731 67.45845 26.94731 66.6331 26.94731 65.80775 27.61638 65.13869 28.44173 65.13869 29.26707 65.13869 29.93614 65.80775 29.93614 66.6331ZM28.44173 66.6331" fill="#8080ff"/>
<path transform="matrix(1.00008,0,0,-1.00003,2.0966492,171.88268)" stroke-width=".3985" stroke-linecap="butt" stroke-miterlimit="10" stroke-linejoin="miter" fill="none" stroke="#8080ff" d="M29.93614 66.6331C29.93614 67.45845 29.26707 68.12752 28.44173 68.12752 27.61638 68.12752 26.94731 67.45845 26.94731 66.6331 26.94731 65.80775 27.61638 65.13869 28.44173 65.13869 29.26707 65.13869 29.93614 65.80775 29.93614 66.6331ZM28.44173 66.6331"/>
<path transform="matrix(1.00008,0,0,-1.00003,2.0966492,171.88268)" d="M26.08353 107.7889C26.08353 108.61424 25.41446 109.28331 24.58911 109.28331 23.76376 109.28331 23.0947 108.61424 23.0947 107.7889 23.0947 106.96355 23.76376 106.29448 24.58911 106.29448 25.41446 106.29448 26.08353 106.96355 26.08353 107.7889ZM24.58911 107.7889" fill="#8080ff"/>
<path transform="matrix(1.00008,0,0,-1.00003,2.0966492,171.88268)" stroke-width=".3985" stroke-linecap="butt" stroke-miterlimit="10" stroke-linejoin="miter" fill="none" stroke="#8080ff" d="M26.08353 107.7889C26.08353 108.61424 25.41446 109.28331 24.58911 109.28331 23.76376 109.28331 23.0947 108.61424 23.0947 107.7889 23.0947 106.96355 23.76376 106.29448 24.58911 106.29448 25.41446 106.29448 26.08353 106.96355 26.08353 107.7889ZM24.58911 107.7889"/>
<path transform="matrix(1.00008,0,0,-1.00003,2.0966492,171.88268)" d="M24.92282 142.28984C24.92282 143.11519 24.25374 143.78426 23.4284 143.78426 22.60306 143.78426 21.93399 143.11519 21.93399 142.28984 21.93399 141.4645 22.60306 140.79543 23.4284 140.79543 24.25374 140.79543 24.92282 141.4645 24.92282 142.28984ZM23.4284 142.28984" fill="#8080ff"/>
<path transform="matrix(1.00008,0,0,-1.00003,2.0966492,171.88268)" stroke-width=".3985" stroke-linecap="butt" stroke-miterlimit="10" stroke-linejoin="miter" fill="none" stroke="#8080ff" d="M24.92282 142.28984C24.92282 143.11519 24.25374 143.78426 23.4284 143.78426 22.60306 143.78426 21.93399 143.11519 21.93399 142.28984 21.93399 141.4645 22.60306 140.79543 23.4284 140.79543 24.25374 140.79543 24.92282 141.4645 24.92282 142.28984ZM23.4284 142.28984"/>
<path transform="matrix(1.00008,0,0,-1.00003,2.0966492,171.88268)" d="M66.34654 14.26984C66.34654 15.09518 65.67747 15.76425 64.85213 15.76425 64.0268 15.76425 63.35771 15.09518 63.35771 14.26984 63.35771 13.44449 64.0268 12.77542 64.85213 12.77542 65.67747 12.77542 66.34654 13.44449 66.34654 14.26984ZM64.85213 14.26984" fill="#8080ff"/>
<path transform="matrix(1.00008,0,0,-1.00003,2.0966492,171.88268)" stroke-width=".3985" stroke-linecap="butt" stroke-miterlimit="10" stroke-linejoin="miter" fill="none" stroke="#8080ff" d="M66.34654 14.26984C66.34654 15.09518 65.67747 15.76425 64.85213 15.76425 64.0268 15.76425 63.35771 15.09518 63.35771 14.26984 63.35771 13.44449 64.0268 12.77542 64.85213 12.77542 65.67747 12.77542 66.34654 13.44449 66.34654 14.26984ZM64.85213 14.26984"/>
<path transform="matrix(1.00008,0,0,-1.00003,2.0966492,171.88268)" d="M61.32024 72.23752C61.32024 73.06287 60.65117 73.73193 59.82582 73.73193 59.00049 73.73193 58.3314 73.06287 58.3314 72.23752 58.3314 71.41217 59.00049 70.7431 59.82582 70.7431 60.65117 70.7431 61.32024 71.41217 61.32024 72.23752ZM59.82582 72.23752" fill="#8080ff"/>
<path transform="matrix(1.00008,0,0,-1.00003,2.0966492,171.88268)" stroke-width=".3985" stroke-linecap="butt" stroke-miterlimit="10" stroke-linejoin="miter" fill="none" stroke="#8080ff" d="M61.32024 72.23752C61.32024 73.06287 60.65117 73.73193 59.82582 73.73193 59.00049 73.73193 58.3314 73.06287 58.3314 72.23752 58.3314 71.41217 59.00049 70.7431 59.82582 70.7431 60.65117 70.7431 61.32024 71.41217 61.32024 72.23752ZM59.82582 72.23752"/>
<path transform="matrix(1.00008,0,0,-1.00003,2.0966492,171.88268)" d="M74.6078 102.40118C74.6078 103.22653 73.93874 103.8956 73.11339 103.8956 72.28804 103.8956 71.61897 103.22653 71.61897 102.40118 71.61897 101.57584 72.28804 100.90677 73.11339 100.90677 73.93874 100.90677 74.6078 101.57584 74.6078 102.40118ZM73.11339 102.40118" fill="#8080ff"/>
<path transform="matrix(1.00008,0,0,-1.00003,2.0966492,171.88268)" stroke-width=".3985" stroke-linecap="butt" stroke-miterlimit="10" stroke-linejoin="miter" fill="none" stroke="#8080ff" d="M74.6078 102.40118C74.6078 103.22653 73.93874 103.8956 73.11339 103.8956 72.28804 103.8956 71.61897 103.22653 71.61897 102.40118 71.61897 101.57584 72.28804 100.90677 73.11339 100.90677 73.93874 100.90677 74.6078 101.57584 74.6078 102.40118ZM73.11339 102.40118"/>
<path transform="matrix(1.00008,0,0,-1.00003,2.0966492,171.88268)" d="M64.89192 153.44673C64.89192 154.27207 64.22285 154.94115 63.3975 154.94115 62.57216 154.94115 61.90309 154.27207 61.90309 153.44673 61.90309 152.62139 62.57216 151.95232 63.3975 151.95232 64.22285 151.95232 64.89192 152.62139 64.89192 153.44673ZM63.3975 153.44673" fill="#8080ff"/>
<path transform="matrix(1.00008,0,0,-1.00003,2.0966492,171.88268)" stroke-width=".3985" stroke-linecap="butt" stroke-miterlimit="10" stroke-linejoin="miter" fill="none" stroke="#8080ff" d="M64.89192 153.44673C64.89192 154.27207 64.22285 154.94115 63.3975 154.94115 62.57216 154.94115 61.90309 154.27207 61.90309 153.44673 61.90309 152.62139 62.57216 151.95232 63.3975 151.95232 64.22285 151.95232 64.89192 152.62139 64.89192 153.44673ZM63.3975 153.44673"/>
<path transform="matrix(1.00008,0,0,-1.00003,2.0966492,171.88268)" d="M111.09865 27.18758C111.09865 28.01292 110.42958 28.68199 109.60423 28.68199 108.77888 28.68199 108.10982 28.01292 108.10982 27.18758 108.10982 26.36223 108.77888 25.69316 109.60423 25.69316 110.42958 25.69316 111.09865 26.36223 111.09865 27.18758ZM109.60423 27.18758" fill="#8080ff"/>
<path transform="matrix(1.00008,0,0,-1.00003,2.0966492,171.88268)" stroke-width=".3985" stroke-linecap="butt" stroke-miterlimit="10" stroke-linejoin="miter" fill="none" stroke="#8080ff" d="M111.09865 27.18758C111.09865 28.01292 110.42958 28.68199 109.60423 28.68199 108.77888 28.68199 108.10982 28.01292 108.10982 27.18758 108.10982 26.36223 108.77888 25.69316 109.60423 25.69316 110.42958 25.69316 111.09865 26.36223 111.09865 27.18758ZM109.60423 27.18758"/>
<path transform="matrix(1.00008,0,0,-1.00003,2.0966492,171.88268)" d="M116.0776 58.82664C116.0776 59.652 115.40854 60.32106 114.58319 60.32106 113.75784 60.32106 113.08878 59.652 113.08878 58.82664 113.08878 58.0013 113.75784 57.33223 114.58319 57.33223 115.40854 57.33223 116.0776 58.0013 116.0776 58.82664ZM114.58319 58.82664" fill="#8080ff"/>
<path transform="matrix(1.00008,0,0,-1.00003,2.0966492,171.88268)" stroke-width=".3985" stroke-linecap="butt" stroke-miterlimit="10" stroke-linejoin="miter" fill="none" stroke="#8080ff" d="M116.0776 58.82664C116.0776 59.652 115.40854 60.32106 114.58319 60.32106 113.75784 60.32106 113.08878 59.652 113.08878 58.82664 113.08878 58.0013 113.75784 57.33223 114.58319 57.33223 115.40854 57.33223 116.0776 58.0013 116.0776 58.82664ZM114.58319 58.82664"/>
<path transform="matrix(1.00008,0,0,-1.00003,2.0966492,171.88268)" d="M107.85007 108.20995C107.85007 109.03528 107.181 109.70436 106.35565 109.70436 105.5303 109.70436 104.86124 109.03528 104.86124 108.20995 104.86124 107.3846 105.5303 106.71553 106.35565 106.71553 107.181 106.71553 107.85007 107.3846 107.85007 108.20995ZM106.35565 108.20995" fill="#8080ff"/>
<path transform="matrix(1.00008,0,0,-1.00003,2.0966492,171.88268)" stroke-width=".3985" stroke-linecap="butt" stroke-miterlimit="10" stroke-linejoin="miter" fill="none" stroke="#8080ff" d="M107.85007 108.20995C107.85007 109.03528 107.181 109.70436 106.35565 109.70436 105.5303 109.70436 104.86124 109.03528 104.86124 108.20995 104.86124 107.3846 105.5303 106.71553 106.35565 106.71553 107.181 106.71553 107.85007 107.3846 107.85007 108.20995ZM106.35565 108.20995"/>
<path transform="matrix(1.00008,0,0,-1.00003,2.0966492,171.88268)" d="M105.83034 148.95244C105.83034 149.77779 105.16127 150.44686 104.33592 150.44686 103.51059 150.44686 102.8415 149.77779 102.8415 148.95244 102.8415 148.12709 103.51059 147.45803 104.33592 147.45803 105.16127 147.45803 105.83034 148.12709 105.83034 148.95244ZM104.33592 148.95244" fill="#8080ff"/>
<path transform="matrix(1.00008,0,0,-1.00003,2.0966492,171.88268)" stroke-width=".3985" stroke-linecap="butt" stroke-miterlimit="10" stroke-linejoin="miter" fill="none" stroke="#8080ff" d="M105.83034 148.95244C105.83034 149.77779 105.16127 150.44686 104.33592 150.44686 103.51059 150.44686 102.8415 149.77779 102.8415 148.95244 102.8415 148.12709 103.51059 147.45803 104.33592 147.45803 105.16127 147.45803 105.83034 148.12709 105.83034 148.95244ZM104.33592 148.95244"/>
<path transform="matrix(1.00008,0,0,-1.00003,2.0966492,171.88268)" d="M152.20706 31.822C152.20706 32.64735 151.538 33.31642 150.71265 33.31642 149.8873 33.31642 149.21823 32.64735 149.21823 31.822 149.21823 30.99666 149.8873 30.32759 150.71265 30.32759 151.538 30.32759 152.20706 30.99666 152.20706 31.822ZM150.71265 31.822" fill="#8080ff"/>
<path transform="matrix(1.00008,0,0,-1.00003,2.0966492,171.88268)" stroke-width=".3985" stroke-linecap="butt" stroke-miterlimit="10" stroke-linejoin="miter" fill="none" stroke="#8080ff" d="M152.20706 31.822C152.20706 32.64735 151.538 33.31642 150.71265 33.31642 149.8873 33.31642 149.21823 32.64735 149.21823 31.822 149.21823 30.99666 149.8873 30.32759 150.71265 30.32759 151.538 30.32759 152.20706 30.99666 152.20706 31.822ZM150.71265 31.822"/>
<path transform="matrix(1.00008,0,0,-1.00003,2.0966492,171.88268)" d="M159.37184 73.64478C159.37184 74.47012 158.70278 75.13919 157.87743 75.13919 157.0521 75.13919 156.38301 74.47012 156.38301 73.64478 156.38301 72.81943 157.0521 72.15036 157.87743 72.15036 158.70278 72.15036 159.37184 72.81943 159.37184 73.64478ZM157.87743 73.64478" fill="#8080ff"/>
<path transform="matrix(1.00008,0,0,-1.00003,2.0966492,171.88268)" stroke-width=".3985" stroke-linecap="butt" stroke-miterlimit="10" stroke-linejoin="miter" fill="none" stroke="#8080ff" d="M159.37184 73.64478C159.37184 74.47012 158.70278 75.13919 157.87743 75.13919 157.0521 75.13919 156.38301 74.47012 156.38301 73.64478 156.38301 72.81943 157.0521 72.15036 157.87743 72.15036 158.70278 72.15036 159.37184 72.81943 159.37184 73.64478ZM157.87743 73.64478"/>
<path transform="matrix(1.00008,0,0,-1.00003,2.0966492,171.88268)" d="M150.38329 108.04387C150.38329 108.86922 149.71422 109.53828 148.88887 109.53828 148.06352 109.53828 147.39446 108.86922 147.39446 108.04387 147.39446 107.21852 148.06352 106.54945 148.88887 106.54945 149.71422 106.54945 150.38329 107.21852 150.38329 108.04387ZM148.88887 108.04387" fill="#8080ff"/>
<path transform="matrix(1.00008,0,0,-1.00003,2.0966492,171.88268)" stroke-width=".3985" stroke-linecap="butt" stroke-miterlimit="10" stroke-linejoin="miter" fill="none" stroke="#8080ff" d="M150.38329 108.04387C150.38329 108.86922 149.71422 109.53828 148.88887 109.53828 148.06352 109.53828 147.39446 108.86922 147.39446 108.04387 147.39446 107.21852 148.06352 106.54945 148.88887 106.54945 149.71422 106.54945 150.38329 107.21852 150.38329 108.04387ZM148.88887 108.04387"/>
<use data-text="(" xlink:href="#font_1_1" transform="matrix(9.963397,0,0,-9.962899,131.19599,78.33487)"/>
<use data-text="x" xlink:href="#font_2_2" transform="matrix(9.963397,0,0,-9.962899,135.0703,78.33487)"/>
<use data-text="&#x2217;" xlink:href="#font_3_1" transform="matrix(6.974358,0,0,-6.9740097,140.76476,74.71976)"/>
<use data-text="4" xlink:href="#font_4_2" transform="matrix(6.974358,0,0,-6.9740097,140.76476,80.80794)"/>
<use data-text="3" xlink:href="#font_4_1" transform="matrix(6.974358,0,0,-6.9740097,144.73316,80.80794)"/>
<use data-text="," xlink:href="#font_2_1" transform="matrix(9.963397,0,0,-9.962899,149.20642,78.334857)"/>
<use data-text="y" xlink:href="#font_2_3" transform="matrix(9.963397,0,0,-9.962899,153.62021,78.334857)"/>
<use data-text="&#x2217;" xlink:href="#font_3_1" transform="matrix(6.974358,0,0,-6.9740097,158.8772,74.71974)"/>
<use data-text="4" xlink:href="#font_4_2" transform="matrix(6.974358,0,0,-6.9740097,158.51917,80.80792)"/>
<use data-text="3" xlink:href="#font_4_1" transform="matrix(6.974358,0,0,-6.9740097,162.48758,80.80792)"/>
<use data-text=")" xlink:href="#font_1_2" transform="matrix(9.963397,0,0,-9.962899,166.96085,78.33484)"/>
<path transform="matrix(1.00008,0,0,-1.00003,2.0966492,171.88268)" d="M151.64197 151.69948C151.64197 152.52483 150.97289 153.1939 150.14756 153.1939 149.3222 153.1939 148.65314 152.52483 148.65314 151.69948 148.65314 150.87415 149.3222 150.20507 150.14756 150.20507 150.97289 150.20507 151.64197 150.87415 151.64197 151.69948ZM150.14756 151.69948" fill="#8080ff"/>
<path transform="matrix(1.00008,0,0,-1.00003,2.0966492,171.88268)" stroke-width=".3985" stroke-linecap="butt" stroke-miterlimit="10" stroke-linejoin="miter" fill="none" stroke="#8080ff" d="M151.64197 151.69948C151.64197 152.52483 150.97289 153.1939 150.14756 153.1939 149.3222 153.1939 148.65314 152.52483 148.65314 151.69948 148.65314 150.87415 149.3222 150.20507 150.14756 150.20507 150.97289 150.20507 151.64197 150.87415 151.64197 151.69948ZM150.14756 151.69948"/>
<path transform="matrix(1.00008,0,0,-1.00003,2.0966492,171.88268)" d="M190.4711 28.91342C190.4711 29.73877 189.80204 30.40784 188.97669 30.40784 188.15134 30.40784 187.48227 29.73877 187.48227 28.91342 187.48227 28.08807 188.15134 27.419 188.97669 27.419 189.80204 27.419 190.4711 28.08807 190.4711 28.91342ZM188.97669 28.91342" fill="#8080ff"/>
<path transform="matrix(1.00008,0,0,-1.00003,2.0966492,171.88268)" stroke-width=".3985" stroke-linecap="butt" stroke-miterlimit="10" stroke-linejoin="miter" fill="none" stroke="#8080ff" d="M190.4711 28.91342C190.4711 29.73877 189.80204 30.40784 188.97669 30.40784 188.15134 30.40784 187.48227 29.73877 187.48227 28.91342 187.48227 28.08807 188.15134 27.419 188.97669 27.419 189.80204 27.419 190.4711 28.08807 190.4711 28.91342ZM188.97669 28.91342"/>
<path transform="matrix(1.00008,0,0,-1.00003,2.0966492,171.88268)" d="M190.13957 68.67035C190.13957 69.4957 189.4705 70.16476 188.64516 70.16476 187.81981 70.16476 187.15074 69.4957 187.15074 68.67035 187.15074 67.845 187.81981 67.17593 188.64516 67.17593 189.4705 67.17593 190.13957 67.845 190.13957 68.67035ZM188.64516 68.67035" fill="#8080ff"/>
<path transform="matrix(1.00008,0,0,-1.00003,2.0966492,171.88268)" stroke-width=".3985" stroke-linecap="butt" stroke-miterlimit="10" stroke-linejoin="miter" fill="none" stroke="#8080ff" d="M190.13957 68.67035C190.13957 69.4957 189.4705 70.16476 188.64516 70.16476 187.81981 70.16476 187.15074 69.4957 187.15074 68.67035 187.15074 67.845 187.81981 67.17593 188.64516 67.17593 189.4705 67.17593 190.13957 67.845 190.13957 68.67035ZM188.64516 68.67035"/>
<path transform="matrix(1.00008,0,0,-1.00003,2.0966492,171.88268)" d="M197.19339 101.64014C197.19339 102.46547 196.52433 103.13455 195.69898 103.13455 194.87364 103.13455 194.20456 102.46547 194.20456 101.64014 194.20456 100.81479 194.87364 100.14572 195.69898 100.14572 196.52433 100.14572 197.19339 100.81479 197.19339 101.64014ZM195.69898 101.64014" fill="#8080ff"/>
<path transform="matrix(1.00008,0,0,-1.00003,2.0966492,171.88268)" stroke-width=".3985" stroke-linecap="butt" stroke-miterlimit="10" stroke-linejoin="miter" fill="none" stroke="#8080ff" d="M197.19339 101.64014C197.19339 102.46547 196.52433 103.13455 195.69898 103.13455 194.87364 103.13455 194.20456 102.46547 194.20456 101.64014 194.20456 100.81479 194.87364 100.14572 195.69898 100.14572 196.52433 100.14572 197.19339 100.81479 197.19339 101.64014ZM195.69898 101.64014"/>
<path transform="matrix(1.00008,0,0,-1.00003,2.0966492,171.88268)" d="M186.13838 151.75463C186.13838 152.57997 185.46932 153.24904 184.64397 153.24904 183.81862 153.24904 183.14955 152.57997 183.14955 151.75463 183.14955 150.92928 183.81862 150.26021 184.64397 150.26021 185.46932 150.26021 186.13838 150.92928 186.13838 151.75463ZM184.64397 151.75463" fill="#8080ff"/>
<path transform="matrix(1.00008,0,0,-1.00003,2.0966492,171.88268)" stroke-width=".3985" stroke-linecap="butt" stroke-miterlimit="10" stroke-linejoin="miter" fill="none" stroke="#8080ff" d="M186.13838 151.75463C186.13838 152.57997 185.46932 153.24904 184.64397 153.24904 183.81862 153.24904 183.14955 152.57997 183.14955 151.75463 183.14955 150.92928 183.81862 150.26021 184.64397 150.26021 185.46932 150.26021 186.13838 150.92928 186.13838 151.75463ZM184.64397 151.75463"/>
<path transform="matrix(1.00008,0,0,-1.00003,2.0966492,171.88268)" d="M228.91812 22.23782C228.91812 23.06317 228.24906 23.73224 227.4237 23.73224 226.59836 23.73224 225.92929 23.06317 225.92929 22.23782 225.92929 21.41248 226.59836 20.74341 227.4237 20.74341 228.24906 20.74341 228.91812 21.41248 228.91812 22.23782ZM227.4237 22.23782" fill="#8080ff"/>
<path transform="matrix(1.00008,0,0,-1.00003,2.0966492,171.88268)" stroke-width=".3985" stroke-linecap="butt" stroke-miterlimit="10" stroke-linejoin="miter" fill="none" stroke="#8080ff" d="M228.91812 22.23782C228.91812 23.06317 228.24906 23.73224 227.4237 23.73224 226.59836 23.73224 225.92929 23.06317 225.92929 22.23782 225.92929 21.41248 226.59836 20.74341 227.4237 20.74341 228.24906 20.74341 228.91812 21.41248 228.91812 22.23782ZM227.4237 22.23782"/>
<path transform="matrix(1.00008,0,0,-1.00003,2.0966492,171.88268)" d="M239.78629 67.13918C239.78629 67.96452 239.11722 68.63359 238.29187 68.63359 237.46652 68.63359 236.79746 67.96452 236.79746 67.13918 236.79746 66.31383 237.46652 65.64476 238.29187 65.64476 239.11722 65.64476 239.78629 66.31383 239.78629 67.13918ZM238.29187 67.13918" fill="#8080ff"/>
<path transform="matrix(1.00008,0,0,-1.00003,2.0966492,171.88268)" stroke-width=".3985" stroke-linecap="butt" stroke-miterlimit="10" stroke-linejoin="miter" fill="none" stroke="#8080ff" d="M239.78629 67.13918C239.78629 67.96452 239.11722 68.63359 238.29187 68.63359 237.46652 68.63359 236.79746 67.96452 236.79746 67.13918 236.79746 66.31383 237.46652 65.64476 238.29187 65.64476 239.11722 65.64476 239.78629 66.31383 239.78629 67.13918ZM238.29187 67.13918"/>
<path transform="matrix(1.00008,0,0,-1.00003,2.0966492,171.88268)" d="M242.69034 100.07976C242.69034 100.9051 242.02127 101.57417 241.19593 101.57417 240.37058 101.57417 239.7015 100.9051 239.7015 100.07976 239.7015 99.25441 240.37058 98.58534 241.19593 98.58534 242.02127 98.58534 242.69034 99.25441 242.69034 100.07976ZM241.19593 100.07976" fill="#8080ff"/>
<path transform="matrix(1.00008,0,0,-1.00003,2.0966492,171.88268)" stroke-width=".3985" stroke-linecap="butt" stroke-miterlimit="10" stroke-linejoin="miter" fill="none" stroke="#8080ff" d="M242.69034 100.07976C242.69034 100.9051 242.02127 101.57417 241.19593 101.57417 240.37058 101.57417 239.7015 100.9051 239.7015 100.07976 239.7015 99.25441 240.37058 98.58534 241.19593 98.58534 242.02127 98.58534 242.69034 99.25441 242.69034 100.07976ZM241.19593 100.07976"/>
<path transform="matrix(1.00008,0,0,-1.00003,2.0966492,171.88268)" d="M229.54746 153.89311C229.54746 154.71846 228.87837 155.38753 228.05304 155.38753 227.22769 155.38753 226.55863 154.71846 226.55863 153.89311 226.55863 153.06777 227.22769 152.3987 228.05304 152.3987 228.87837 152.3987 229.54746 153.06777 229.54746 153.89311ZM228.05304 153.89311" fill="#8080ff"/>
<path transform="matrix(1.00008,0,0,-1.00003,2.0966492,171.88268)" stroke-width=".3985" stroke-linecap="butt" stroke-miterlimit="10" stroke-linejoin="miter" fill="none" stroke="#8080ff" d="M229.54746 153.89311C229.54746 154.71846 228.87837 155.38753 228.05304 155.38753 227.22769 155.38753 226.55863 154.71846 226.55863 153.89311 226.55863 153.06777 227.22769 152.3987 228.05304 152.3987 228.87837 152.3987 229.54746 153.06777 229.54746 153.89311ZM228.05304 153.89311"/>
</svg>
